<svg xmlns="http://www.w3.org/2000/svg" width="60" height="60" viewBox="0 0 60 60">
    <g id="noun-back-arrow-1066735" transform="translate(-166.25 -96.25)">
      <path id="Path_91" data-name="Path 91" d="M196.25,156.25a29.994,29.994,0,1,1,23.142-10.906A30,30,0,0,1,196.25,156.25Zm0-58.095a28.095,28.095,0,1,0,28.095,28.095A28.086,28.086,0,0,0,196.25,98.155Z" fill="#002e66"/>
      <path id="Path_92" data-name="Path 92" d="M298.679,224.213,285.25,210.69l13.429-13.524,1.334,1.429-12.1,12.1,12.1,12.1Z" transform="translate(-103.762 -84.44)" fill="#002e66"/>
      <path id="Path_93" data-name="Path 93" d="M333.679,224.213,320.25,210.69l13.429-13.524,1.334,1.429-12.1,12.1,12.1,12.1Z" transform="translate(-127.19 -84.44)" fill="#002e66"/>
    </g>
</svg>
  