<?xml version="1.0" encoding="UTF-8"?>
<!DOCTYPE svg PUBLIC "-//W3C//DTD SVG 1.1//EN" "http://www.w3.org/Graphics/SVG/1.1/DTD/svg11.dtd">
<svg xmlns="http://www.w3.org/2000/svg" version="1.1" width="512px" height="512px" style="shape-rendering:geometricPrecision; text-rendering:geometricPrecision; image-rendering:optimizeQuality; fill-rule:evenodd; clip-rule:evenodd" xmlns:xlink="http://www.w3.org/1999/xlink">
<g><path style="opacity:0.997" fill="#a3d3fe" d="M 232.5,-0.5 C 247.833,-0.5 263.167,-0.5 278.5,-0.5C 364.976,9.80479 431.142,51.8048 477,125.5C 491.647,150.798 501.814,177.798 507.5,206.5C 466.917,167.418 426.75,127.751 387,87.5C 386.601,87.7284 386.435,88.0618 386.5,88.5C 384.465,85.7984 382.132,83.4651 379.5,81.5C 359,88.3324 338.666,95.3324 318.5,102.5C 302.257,107.248 286.257,112.581 270.5,118.5C 270.611,117.883 270.944,117.383 271.5,117C 256.833,102 242.167,87 227.5,72C 226.906,71.5357 226.239,71.369 225.5,71.5C 219.261,63.7556 212.428,56.4223 205,49.5C 200.652,54.0153 196.152,58.3487 191.5,62.5C 186.848,58.3487 182.348,54.0153 178,49.5C 170.833,56.6667 163.667,63.8333 156.5,71C 161.015,75.3482 165.349,79.8482 169.5,84.5C 165.349,89.1518 161.015,93.6518 156.5,98C 163.422,105.428 170.756,112.261 178.5,118.5C 178.369,119.239 178.536,119.906 179,120.5C 200.702,142.035 222.202,163.701 243.5,185.5C 231.942,179.887 220.275,174.554 208.5,169.5C 190.945,160.139 173.112,151.139 155,142.5C 139.151,157.177 125.318,173.511 113.5,191.5C 87.5684,229.01 88.4018,266.01 116,302.5C 119.062,305.732 122.229,308.732 125.5,311.5C 115.68,331.14 105.847,350.807 96,370.5C 84.1394,364.236 72.1394,358.236 60,352.5C 58.779,353.272 57.779,354.272 57,355.5C 54.3606,362.112 51.1939,368.446 47.5,374.5C 48.2427,375.182 48.9094,375.849 49.5,376.5C 89.1667,416.5 128.833,456.5 168.5,496.5C 108.101,473.939 61.9343,434.606 30,378.5C 13.3053,347.029 3.1386,313.696 -0.5,278.5C -0.5,263.167 -0.5,247.833 -0.5,232.5C 10.3875,142.857 54.7208,75.3573 132.5,30C 163.971,13.3053 197.304,3.1386 232.5,-0.5 Z"/></g>
<g><path style="opacity:1" fill="#fdfefe" d="M 225.5,71.5 C 221.018,75.15 217.018,79.3167 213.5,84C 216.952,88.4549 220.786,92.6216 225,96.5C 225.667,97.5 225.667,98.5 225,99.5C 218.833,105.667 212.667,111.833 206.5,118C 205.5,118.667 204.5,118.667 203.5,118C 199.652,113.984 195.652,110.151 191.5,106.5C 187.146,110.522 182.813,114.522 178.5,118.5C 170.756,112.261 163.422,105.428 156.5,98C 161.015,93.6518 165.349,89.1518 169.5,84.5C 165.349,79.8482 161.015,75.3482 156.5,71C 163.667,63.8333 170.833,56.6667 178,49.5C 182.348,54.0153 186.848,58.3487 191.5,62.5C 196.152,58.3487 200.652,54.0153 205,49.5C 212.428,56.4223 219.261,63.7556 225.5,71.5 Z"/></g>
<g><path style="opacity:1" fill="#66b1fc" d="M 225.5,71.5 C 226.239,71.369 226.906,71.5357 227.5,72C 242.167,87 256.833,102 271.5,117C 270.944,117.383 270.611,117.883 270.5,118.5C 264.057,120.092 257.724,122.092 251.5,124.5C 250.518,146.033 252.185,167.366 256.5,188.5C 256.5,189.5 256.5,190.5 256.5,191.5C 252.066,190.461 247.732,188.461 243.5,185.5C 222.202,163.701 200.702,142.035 179,120.5C 178.536,119.906 178.369,119.239 178.5,118.5C 182.813,114.522 187.146,110.522 191.5,106.5C 195.652,110.151 199.652,113.984 203.5,118C 204.5,118.667 205.5,118.667 206.5,118C 212.667,111.833 218.833,105.667 225,99.5C 225.667,98.5 225.667,97.5 225,96.5C 220.786,92.6216 216.952,88.4549 213.5,84C 217.018,79.3167 221.018,75.15 225.5,71.5 Z"/></g>
<g><path style="opacity:1" fill="#e8ecf4" d="M 386.5,88.5 C 397.172,103.835 406.839,119.835 415.5,136.5C 389.253,144.027 363.253,152.36 337.5,161.5C 331.444,141.726 325.11,122.059 318.5,102.5C 338.666,95.3324 359,88.3324 379.5,81.5C 382.132,83.4651 384.465,85.7984 386.5,88.5 Z"/></g>
<g><path style="opacity:1" fill="#65b1fb" d="M 507.5,206.5 C 508.846,215.297 510.179,223.963 511.5,232.5C 511.5,247.833 511.5,263.167 511.5,278.5C 500.612,368.144 456.279,435.644 378.5,481C 347.029,497.695 313.696,507.861 278.5,511.5C 263.167,511.5 247.833,511.5 232.5,511.5C 210.53,509.305 189.196,504.305 168.5,496.5C 128.833,456.5 89.1667,416.5 49.5,376.5C 68.1667,385.5 86.8333,394.5 105.5,403.5C 121.283,411.892 137.283,420.059 153.5,428C 154.784,428.684 155.951,428.517 157,427.5C 160.943,420.292 164.276,412.959 167,405.5C 154.911,399.206 142.745,393.039 130.5,387C 140.577,367.679 150.244,348.179 159.5,328.5C 204.335,335.999 237.168,319.666 258,279.5C 259.803,275.256 261.303,270.922 262.5,266.5C 266.573,254.616 270.239,242.616 273.5,230.5C 291.294,254.394 315.294,266.061 345.5,265.5C 347.766,265.141 349.599,265.808 351,267.5C 357.5,287 364,306.5 370.5,326C 370.095,326.945 369.428,327.612 368.5,328C 356.167,332.333 343.833,336.667 331.5,341C 334.26,348.445 336.927,355.945 339.5,363.5C 340.723,364.614 342.056,364.781 343.5,364C 360.894,358.258 378.227,352.424 395.5,346.5C 415.229,340.368 434.896,334.035 454.5,327.5C 452.309,319.427 449.809,311.427 447,303.5C 446.439,302.978 445.772,302.645 445,302.5C 433.5,306.333 422,310.167 410.5,314C 409.056,314.781 407.723,314.614 406.5,313.5C 399.628,293.55 392.961,273.55 386.5,253.5C 422.656,227.199 434.156,192.532 421,149.5C 419.152,145.141 417.318,140.808 415.5,136.5C 406.839,119.835 397.172,103.835 386.5,88.5C 386.435,88.0618 386.601,87.7284 387,87.5C 426.75,127.751 466.917,167.418 507.5,206.5 Z"/></g>
<g><path style="opacity:1" fill="#fefefe" d="M 318.5,102.5 C 325.11,122.059 331.444,141.726 337.5,161.5C 310.579,170.696 283.579,179.696 256.5,188.5C 252.185,167.366 250.518,146.033 251.5,124.5C 257.724,122.092 264.057,120.092 270.5,118.5C 286.257,112.581 302.257,107.248 318.5,102.5 Z"/></g>
<g><path style="opacity:1" fill="#fe432e" d="M 415.5,136.5 C 417.318,140.808 419.152,145.141 421,149.5C 434.156,192.532 422.656,227.199 386.5,253.5C 380.947,256.11 375.281,258.443 369.5,260.5C 358.862,227.585 348.196,194.585 337.5,161.5C 363.253,152.36 389.253,144.027 415.5,136.5 Z"/></g>
<g><path style="opacity:1" fill="#fefefe" d="M 208.5,169.5 C 201.103,186.85 193.603,204.184 186,221.5C 185.502,223.544 184.335,224.878 182.5,225.5C 159.372,214.436 136.372,203.103 113.5,191.5C 125.318,173.511 139.151,157.177 155,142.5C 173.112,151.139 190.945,160.139 208.5,169.5 Z"/></g>
<g><path style="opacity:1" fill="#fe6c52" d="M 337.5,161.5 C 348.196,194.585 358.862,227.585 369.5,260.5C 369.5,260.833 369.5,261.167 369.5,261.5C 361.501,263.491 353.501,264.824 345.5,265.5C 315.294,266.061 291.294,254.394 273.5,230.5C 274.35,222.097 275.683,213.764 277.5,205.5C 277.167,204.5 276.833,203.5 276.5,202.5C 269.45,199.313 262.783,195.646 256.5,191.5C 256.5,190.5 256.5,189.5 256.5,188.5C 283.579,179.696 310.579,170.696 337.5,161.5 Z"/></g>
<g><path style="opacity:1" fill="#e8ecf4" d="M 208.5,169.5 C 220.275,174.554 231.942,179.887 243.5,185.5C 247.732,188.461 252.066,190.461 256.5,191.5C 262.783,195.646 269.45,199.313 276.5,202.5C 276.833,203.5 277.167,204.5 277.5,205.5C 275.683,213.764 274.35,222.097 273.5,230.5C 270.239,242.616 266.573,254.616 262.5,266.5C 236.641,252.404 210.308,239.07 183.5,226.5C 182.833,226.5 182.5,226.167 182.5,225.5C 184.335,224.878 185.502,223.544 186,221.5C 193.603,204.184 201.103,186.85 208.5,169.5 Z"/></g>
<g><path style="opacity:1" fill="#fe6c52" d="M 113.5,191.5 C 136.372,203.103 159.372,214.436 182.5,225.5C 182.5,226.167 182.833,226.5 183.5,226.5C 169.775,258.284 155.775,289.951 141.5,321.5C 135.83,318.667 130.497,315.334 125.5,311.5C 122.229,308.732 119.062,305.732 116,302.5C 88.4018,266.01 87.5684,229.01 113.5,191.5 Z"/></g>
<g><path style="opacity:1" fill="#fe432e" d="M 183.5,226.5 C 210.308,239.07 236.641,252.404 262.5,266.5C 261.303,270.922 259.803,275.256 258,279.5C 237.168,319.666 204.335,335.999 159.5,328.5C 153.301,327.066 147.301,325.066 141.5,322.5C 141.5,322.167 141.5,321.833 141.5,321.5C 155.775,289.951 169.775,258.284 183.5,226.5 Z"/></g>
<g><path style="opacity:1" fill="#e8ecf4" d="M 386.5,253.5 C 392.961,273.55 399.628,293.55 406.5,313.5C 407.723,314.614 409.056,314.781 410.5,314C 422,310.167 433.5,306.333 445,302.5C 445.772,302.645 446.439,302.978 447,303.5C 449.809,311.427 452.309,319.427 454.5,327.5C 434.896,334.035 415.229,340.368 395.5,346.5C 387.635,317.906 378.968,289.572 369.5,261.5C 369.5,261.167 369.5,260.833 369.5,260.5C 375.281,258.443 380.947,256.11 386.5,253.5 Z"/></g>
<g><path style="opacity:1" fill="#fefefe" d="M 369.5,261.5 C 378.968,289.572 387.635,317.906 395.5,346.5C 378.227,352.424 360.894,358.258 343.5,364C 342.056,364.781 340.723,364.614 339.5,363.5C 336.927,355.945 334.26,348.445 331.5,341C 343.833,336.667 356.167,332.333 368.5,328C 369.428,327.612 370.095,326.945 370.5,326C 364,306.5 357.5,287 351,267.5C 349.599,265.808 347.766,265.141 345.5,265.5C 353.501,264.824 361.501,263.491 369.5,261.5 Z"/></g>
<g><path style="opacity:1" fill="#fdfefe" d="M 125.5,311.5 C 130.497,315.334 135.83,318.667 141.5,321.5C 141.5,321.833 141.5,322.167 141.5,322.5C 129.225,349.382 117.225,376.382 105.5,403.5C 86.8333,394.5 68.1667,385.5 49.5,376.5C 48.9094,375.849 48.2427,375.182 47.5,374.5C 51.1939,368.446 54.3606,362.112 57,355.5C 57.779,354.272 58.779,353.272 60,352.5C 72.1394,358.236 84.1394,364.236 96,370.5C 105.847,350.807 115.68,331.14 125.5,311.5 Z"/></g>
<g><path style="opacity:1" fill="#e8ecf5" d="M 141.5,322.5 C 147.301,325.066 153.301,327.066 159.5,328.5C 150.244,348.179 140.577,367.679 130.5,387C 142.745,393.039 154.911,399.206 167,405.5C 164.276,412.959 160.943,420.292 157,427.5C 155.951,428.517 154.784,428.684 153.5,428C 137.283,420.059 121.283,411.892 105.5,403.5C 117.225,376.382 129.225,349.382 141.5,322.5 Z"/></g>
</svg>
