<?xml version="1.0" encoding="UTF-8"?>
<!DOCTYPE svg PUBLIC "-//W3C//DTD SVG 1.1//EN" "http://www.w3.org/Graphics/SVG/1.1/DTD/svg11.dtd">
<svg xmlns="http://www.w3.org/2000/svg" version="1.1" width="512px" height="512px" style="shape-rendering:geometricPrecision; text-rendering:geometricPrecision; image-rendering:optimizeQuality; fill-rule:evenodd; clip-rule:evenodd" xmlns:xlink="http://www.w3.org/1999/xlink">
<g><path style="opacity:0.996" fill="#fecd00" d="M 232.5,-0.5 C 247.833,-0.5 263.167,-0.5 278.5,-0.5C 368.144,10.3879 435.644,54.7213 481,132.5C 497.695,163.971 507.861,197.304 511.5,232.5C 511.5,245.5 511.5,258.5 511.5,271.5C 442.548,201.548 373.548,131.548 304.5,61.5C 301.553,57.0582 297.553,53.8915 292.5,52C 280.171,51.5001 267.838,51.3335 255.5,51.5C 243.278,50.1406 234.111,44.1406 228,33.5C 209.018,39.4591 202.018,52.1257 207,71.5C 208.889,76.5507 212.055,80.5507 216.5,83.5C 210.347,84.3279 204.013,84.8279 197.5,85C 179.22,92.3205 173.887,105.154 181.5,123.5C 161.939,131.622 154.939,145.956 160.5,166.5C 157.5,166.5 154.5,166.5 151.5,166.5C 147.984,183.08 144.984,199.747 142.5,216.5C 141.662,216.842 141.328,217.508 141.5,218.5C 135.574,243.23 134.074,268.23 137,293.5C 137.77,300.267 139.604,306.6 142.5,312.5C 151.081,336.742 165.748,356.409 186.5,371.5C 186.369,372.239 186.536,372.906 187,373.5C 203.305,388.804 219.305,404.471 235,420.5C 235.5,411.173 235.666,401.839 235.5,392.5C 235.833,392.5 236.167,392.5 236.5,392.5C 236.5,404.5 236.5,416.5 236.5,428.5C 223.833,428.5 211.167,428.5 198.5,428.5C 198.172,439.014 198.506,449.347 199.5,459.5C 216.5,476.833 233.5,494.167 250.5,511.5C 244.5,511.5 238.5,511.5 232.5,511.5C 142.856,500.612 75.3562,456.279 30,378.5C 13.3053,347.029 3.1386,313.696 -0.5,278.5C -0.5,263.167 -0.5,247.833 -0.5,232.5C 10.3875,142.857 54.7208,75.3573 132.5,30C 163.971,13.3053 197.304,3.1386 232.5,-0.5 Z"/></g>
<g><path style="opacity:1" fill="#e9ecf4" d="M 255.5,51.5 C 255.5,62.5 255.5,73.5 255.5,84.5C 242.421,84.8137 229.421,84.4803 216.5,83.5C 212.055,80.5507 208.889,76.5507 207,71.5C 202.018,52.1257 209.018,39.4591 228,33.5C 234.111,44.1406 243.278,50.1406 255.5,51.5 Z"/></g>
<g><path style="opacity:1" fill="#cdd2e0" d="M 255.5,51.5 C 267.838,51.3335 280.171,51.5001 292.5,52C 297.553,53.8915 301.553,57.0582 304.5,61.5C 307.783,69.9798 306.45,77.6464 300.5,84.5C 285.5,84.5 270.5,84.5 255.5,84.5C 255.5,73.5 255.5,62.5 255.5,51.5 Z"/></g>
<g><path style="opacity:1" fill="#fea300" d="M 304.5,61.5 C 373.548,131.548 442.548,201.548 511.5,271.5C 511.5,273.833 511.5,276.167 511.5,278.5C 500.612,368.144 456.279,435.644 378.5,481C 347.029,497.695 313.696,507.861 278.5,511.5C 269.167,511.5 259.833,511.5 250.5,511.5C 233.5,494.167 216.5,476.833 199.5,459.5C 218.167,459.5 236.833,459.5 255.5,459.5C 274.5,459.5 293.5,459.5 312.5,459.5C 312.5,449.167 312.5,438.833 312.5,428.5C 300.167,428.5 287.833,428.5 275.5,428.5C 275.5,416.5 275.5,404.5 275.5,392.5C 322.568,383.104 354.235,355.771 370.5,310.5C 376.232,291.173 377.732,271.507 375,251.5C 373.381,239.788 371.548,228.121 369.5,216.5C 366.168,199.507 362.835,182.507 359.5,165.5C 356.615,165.806 353.948,165.473 351.5,164.5C 355.927,144.346 348.594,130.679 329.5,123.5C 337.281,105.228 331.948,92.3945 313.5,85C 309.179,84.501 304.846,84.3343 300.5,84.5C 306.45,77.6464 307.783,69.9798 304.5,61.5 Z"/></g>
<g><path style="opacity:1" fill="#fefefe" d="M 216.5,83.5 C 229.421,84.4803 242.421,84.8137 255.5,84.5C 255.5,97.1667 255.5,109.833 255.5,122.5C 230.759,122.177 206.092,122.51 181.5,123.5C 173.887,105.154 179.22,92.3205 197.5,85C 204.013,84.8279 210.347,84.3279 216.5,83.5 Z"/></g>
<g><path style="opacity:1" fill="#e9ecf4" d="M 255.5,84.5 C 270.5,84.5 285.5,84.5 300.5,84.5C 304.846,84.3343 309.179,84.501 313.5,85C 331.948,92.3945 337.281,105.228 329.5,123.5C 304.878,122.519 280.211,122.186 255.5,122.5C 255.5,109.833 255.5,97.1667 255.5,84.5 Z"/></g>
<g><path style="opacity:1" fill="#cdd2e0" d="M 255.5,122.5 C 280.211,122.186 304.878,122.519 329.5,123.5C 348.594,130.679 355.927,144.346 351.5,164.5C 319.573,165.492 287.573,165.826 255.5,165.5C 255.5,151.167 255.5,136.833 255.5,122.5 Z"/></g>
<g><path style="opacity:1" fill="#fffefe" d="M 160.5,166.5 C 192.167,166.5 223.833,166.5 255.5,166.5C 255.5,183.167 255.5,199.833 255.5,216.5C 217.833,216.5 180.167,216.5 142.5,216.5C 144.984,199.747 147.984,183.08 151.5,166.5C 154.5,166.5 157.5,166.5 160.5,166.5 Z"/></g>
<g><path style="opacity:1" fill="#e9ecf4" d="M 255.5,122.5 C 255.5,136.833 255.5,151.167 255.5,165.5C 287.573,165.826 319.573,165.492 351.5,164.5C 353.948,165.473 356.615,165.806 359.5,165.5C 362.835,182.507 366.168,199.507 369.5,216.5C 331.5,216.5 293.5,216.5 255.5,216.5C 255.5,199.833 255.5,183.167 255.5,166.5C 223.833,166.5 192.167,166.5 160.5,166.5C 154.939,145.956 161.939,131.622 181.5,123.5C 206.092,122.51 230.759,122.177 255.5,122.5 Z"/></g>
<g><path style="opacity:1" fill="#ff7581" d="M 142.5,216.5 C 180.167,216.5 217.833,216.5 255.5,216.5C 255.5,216.833 255.5,217.167 255.5,217.5C 217.427,217.173 179.427,217.507 141.5,218.5C 141.328,217.508 141.662,216.842 142.5,216.5 Z"/></g>
<g><path style="opacity:1" fill="#fe5e95" d="M 255.5,217.5 C 255.5,248.833 255.5,280.167 255.5,311.5C 255.5,311.833 255.5,312.167 255.5,312.5C 217.833,312.5 180.167,312.5 142.5,312.5C 139.604,306.6 137.77,300.267 137,293.5C 134.074,268.23 135.574,243.23 141.5,218.5C 179.427,217.507 217.427,217.173 255.5,217.5 Z"/></g>
<g><path style="opacity:1" fill="#d72877" d="M 255.5,216.5 C 293.5,216.5 331.5,216.5 369.5,216.5C 371.548,228.121 373.381,239.788 375,251.5C 377.732,271.507 376.232,291.173 370.5,310.5C 332.239,311.494 293.906,311.827 255.5,311.5C 255.5,280.167 255.5,248.833 255.5,217.5C 255.5,217.167 255.5,216.833 255.5,216.5 Z"/></g>
<g><path style="opacity:1" fill="#d72877" d="M 142.5,312.5 C 180.167,312.5 217.833,312.5 255.5,312.5C 255.5,339.5 255.5,366.5 255.5,393.5C 249.131,393.653 242.797,393.32 236.5,392.5C 236.167,392.5 235.833,392.5 235.5,392.5C 217.791,388.816 201.458,381.816 186.5,371.5C 165.748,356.409 151.081,336.742 142.5,312.5 Z"/></g>
<g><path style="opacity:1" fill="#a00f5a" d="M 370.5,310.5 C 354.235,355.771 322.568,383.104 275.5,392.5C 268.869,393.331 262.202,393.664 255.5,393.5C 255.5,366.5 255.5,339.5 255.5,312.5C 255.5,312.167 255.5,311.833 255.5,311.5C 293.906,311.827 332.239,311.494 370.5,310.5 Z"/></g>
<g><path style="opacity:1" fill="#fea201" d="M 186.5,371.5 C 201.458,381.816 217.791,388.816 235.5,392.5C 235.666,401.839 235.5,411.173 235,420.5C 219.305,404.471 203.305,388.804 187,373.5C 186.536,372.906 186.369,372.239 186.5,371.5 Z"/></g>
<g><path style="opacity:1" fill="#fffefd" d="M 236.5,392.5 C 242.797,393.32 249.131,393.653 255.5,393.5C 255.5,415.5 255.5,437.5 255.5,459.5C 236.833,459.5 218.167,459.5 199.5,459.5C 198.506,449.347 198.172,439.014 198.5,428.5C 211.167,428.5 223.833,428.5 236.5,428.5C 236.5,416.5 236.5,404.5 236.5,392.5 Z"/></g>
<g><path style="opacity:1" fill="#e9ecf4" d="M 275.5,392.5 C 275.5,404.5 275.5,416.5 275.5,428.5C 287.833,428.5 300.167,428.5 312.5,428.5C 312.5,438.833 312.5,449.167 312.5,459.5C 293.5,459.5 274.5,459.5 255.5,459.5C 255.5,437.5 255.5,415.5 255.5,393.5C 262.202,393.664 268.869,393.331 275.5,392.5 Z"/></g>
</svg>
