<?xml version="1.0" encoding="UTF-8"?>
<!DOCTYPE svg PUBLIC "-//W3C//DTD SVG 1.1//EN" "http://www.w3.org/Graphics/SVG/1.1/DTD/svg11.dtd">
<svg xmlns="http://www.w3.org/2000/svg" version="1.1" width="512px" height="512px" style="shape-rendering:geometricPrecision; text-rendering:geometricPrecision; image-rendering:optimizeQuality; fill-rule:evenodd; clip-rule:evenodd" xmlns:xlink="http://www.w3.org/1999/xlink">
<g><path style="opacity:0.998" fill="#feae3d" d="M 232.5,-0.5 C 247.833,-0.5 263.167,-0.5 278.5,-0.5C 368.144,10.3879 435.644,54.7213 481,132.5C 497.695,163.971 507.861,197.304 511.5,232.5C 511.5,247.833 511.5,263.167 511.5,278.5C 509.305,300.47 504.305,321.804 496.5,342.5C 459.216,303.549 421.216,265.216 382.5,227.5C 380.393,226.532 378.059,226.198 375.5,226.5C 328.868,179.368 282.035,132.368 235,85.5C 234.503,87.8098 234.337,90.1432 234.5,92.5C 233.527,90.0521 233.194,87.3854 233.5,84.5C 220.01,83.5043 206.344,83.171 192.5,83.5C 192.5,86.5 192.5,89.5 192.5,92.5C 190.833,92.5 189.167,92.5 187.5,92.5C 187.5,100.5 187.5,108.5 187.5,116.5C 189.167,116.5 190.833,116.5 192.5,116.5C 192.5,133.833 192.5,151.167 192.5,168.5C 192.5,175.833 192.5,183.167 192.5,190.5C 176.264,194.235 166.098,204.235 162,220.5C 161.5,231.161 161.333,241.828 161.5,252.5C 161.5,252.833 161.5,253.167 161.5,253.5C 161.5,282.5 161.5,311.5 161.5,340.5C 161.169,367.672 161.502,394.672 162.5,421.5C 192.167,451.5 221.833,481.5 251.5,511.5C 245.167,511.5 238.833,511.5 232.5,511.5C 142.856,500.612 75.3562,456.279 30,378.5C 13.3053,347.029 3.1386,313.696 -0.5,278.5C -0.5,263.167 -0.5,247.833 -0.5,232.5C 10.3875,142.857 54.7208,75.3573 132.5,30C 163.971,13.3053 197.304,3.1386 232.5,-0.5 Z"/></g>
<g><path style="opacity:1" fill="#037655" d="M 233.5,84.5 C 226.833,84.5 220.167,84.5 213.5,84.5C 213.5,112.5 213.5,140.5 213.5,168.5C 220.167,168.5 226.833,168.5 233.5,168.5C 233.5,168.833 233.5,169.167 233.5,169.5C 226.5,169.5 219.5,169.5 212.5,169.5C 206.021,168.509 199.354,168.176 192.5,168.5C 192.5,151.167 192.5,133.833 192.5,116.5C 191.432,115.566 190.099,115.232 188.5,115.5C 188.5,108.167 188.5,100.833 188.5,93.5C 190.099,93.7678 191.432,93.4345 192.5,92.5C 192.5,89.5 192.5,86.5 192.5,83.5C 206.344,83.171 220.01,83.5043 233.5,84.5 Z"/></g>
<g><path style="opacity:1" fill="#005d50" d="M 233.5,84.5 C 233.194,87.3854 233.527,90.0521 234.5,92.5C 235.833,92.5 237.167,92.5 238.5,92.5C 238.5,100.5 238.5,108.5 238.5,116.5C 236.833,116.5 235.167,116.5 233.5,116.5C 233.5,133.833 233.5,151.167 233.5,168.5C 226.833,168.5 220.167,168.5 213.5,168.5C 213.5,140.5 213.5,112.5 213.5,84.5C 220.167,84.5 226.833,84.5 233.5,84.5 Z"/></g>
<g><path style="opacity:1" fill="#fe9500" d="M 375.5,226.5 C 362.167,226.5 348.833,226.5 335.5,226.5C 320.167,226.5 304.833,226.5 289.5,226.5C 289.5,234.833 289.5,243.167 289.5,251.5C 289.5,251.833 289.5,252.167 289.5,252.5C 289.333,268.17 289.5,283.837 290,299.5C 293.899,320.692 306.066,334.359 326.5,340.5C 326.5,360.833 326.5,381.167 326.5,401.5C 323.5,401.5 320.5,401.5 317.5,401.5C 316.509,407.979 316.176,414.646 316.5,421.5C 322.833,421.5 329.167,421.5 335.5,421.5C 342.167,421.5 348.833,421.5 355.5,421.5C 355.5,414.833 355.5,408.167 355.5,401.5C 352.5,401.5 349.5,401.5 346.5,401.5C 346.5,381.167 346.5,360.833 346.5,340.5C 366.595,334.568 378.429,321.234 382,300.5C 382.5,284.503 382.667,268.503 382.5,252.5C 382.5,244.167 382.5,235.833 382.5,227.5C 421.216,265.216 459.216,303.549 496.5,342.5C 473.939,402.899 434.606,449.066 378.5,481C 347.029,497.695 313.696,507.861 278.5,511.5C 269.5,511.5 260.5,511.5 251.5,511.5C 221.833,481.5 192.167,451.5 162.5,421.5C 179.167,421.5 195.833,421.5 212.5,421.5C 229.833,421.5 247.167,421.5 264.5,421.5C 264.5,394.833 264.5,368.167 264.5,341.5C 264.5,341.167 264.5,340.833 264.5,340.5C 264.5,311.167 264.5,281.833 264.5,252.5C 264.667,241.828 264.5,231.161 264,220.5C 259.774,204.607 249.774,194.274 234,189.5C 233.5,182.842 233.334,176.175 233.5,169.5C 233.5,169.167 233.5,168.833 233.5,168.5C 233.5,151.167 233.5,133.833 233.5,116.5C 235.167,116.5 236.833,116.5 238.5,116.5C 238.5,108.5 238.5,100.5 238.5,92.5C 237.167,92.5 235.833,92.5 234.5,92.5C 234.337,90.1432 234.503,87.8098 235,85.5C 282.035,132.368 328.868,179.368 375.5,226.5 Z"/></g>
<g><path style="opacity:1" fill="#308d4c" d="M 192.5,92.5 C 191.432,93.4345 190.099,93.7678 188.5,93.5C 188.5,100.833 188.5,108.167 188.5,115.5C 190.099,115.232 191.432,115.566 192.5,116.5C 190.833,116.5 189.167,116.5 187.5,116.5C 187.5,108.5 187.5,100.5 187.5,92.5C 189.167,92.5 190.833,92.5 192.5,92.5 Z"/></g>
<g><path style="opacity:1" fill="#02ac45" d="M 192.5,168.5 C 199.354,168.176 206.021,168.509 212.5,169.5C 212.5,197.167 212.5,224.833 212.5,252.5C 195.5,252.5 178.5,252.5 161.5,252.5C 161.333,241.828 161.5,231.161 162,220.5C 166.098,204.235 176.264,194.235 192.5,190.5C 192.5,183.167 192.5,175.833 192.5,168.5 Z"/></g>
<g><path style="opacity:1" fill="#01924e" d="M 212.5,169.5 C 219.5,169.5 226.5,169.5 233.5,169.5C 233.334,176.175 233.5,182.842 234,189.5C 249.774,194.274 259.774,204.607 264,220.5C 264.5,231.161 264.667,241.828 264.5,252.5C 247.167,252.5 229.833,252.5 212.5,252.5C 212.5,224.833 212.5,197.167 212.5,169.5 Z"/></g>
<g><path style="opacity:1" fill="#cbd0e1" d="M 335.5,226.5 C 348.833,226.5 362.167,226.5 375.5,226.5C 378.059,226.198 380.393,226.532 382.5,227.5C 382.5,235.833 382.5,244.167 382.5,252.5C 366.833,252.5 351.167,252.5 335.5,252.5C 320.167,252.5 304.833,252.5 289.5,252.5C 289.5,252.167 289.5,251.833 289.5,251.5C 304.833,251.5 320.167,251.5 335.5,251.5C 335.5,243.167 335.5,234.833 335.5,226.5 Z"/></g>
<g><path style="opacity:1" fill="#d9e2ec" d="M 335.5,226.5 C 335.5,234.833 335.5,243.167 335.5,251.5C 320.167,251.5 304.833,251.5 289.5,251.5C 289.5,243.167 289.5,234.833 289.5,226.5C 304.833,226.5 320.167,226.5 335.5,226.5 Z"/></g>
<g><path style="opacity:1" fill="#e9336c" d="M 289.5,252.5 C 304.833,252.5 320.167,252.5 335.5,252.5C 335.5,281.833 335.5,311.167 335.5,340.5C 333.833,340.5 332.167,340.5 330.5,340.5C 329.167,340.5 327.833,340.5 326.5,340.5C 306.066,334.359 293.899,320.692 290,299.5C 289.5,283.837 289.333,268.17 289.5,252.5 Z"/></g>
<g><path style="opacity:1" fill="#b12e64" d="M 335.5,252.5 C 351.167,252.5 366.833,252.5 382.5,252.5C 382.667,268.503 382.5,284.503 382,300.5C 378.429,321.234 366.595,334.568 346.5,340.5C 342.833,340.5 339.167,340.5 335.5,340.5C 335.5,311.167 335.5,281.833 335.5,252.5 Z"/></g>
<g><path style="opacity:1" fill="#bdd551" d="M 161.5,253.5 C 178.5,253.5 195.5,253.5 212.5,253.5C 212.5,282.5 212.5,311.5 212.5,340.5C 195.5,340.5 178.5,340.5 161.5,340.5C 161.5,311.5 161.5,282.5 161.5,253.5 Z"/></g>
<g><path style="opacity:1" fill="#7bcd48" d="M 161.5,253.5 C 161.5,253.167 161.5,252.833 161.5,252.5C 178.5,252.5 195.5,252.5 212.5,252.5C 229.833,252.5 247.167,252.5 264.5,252.5C 264.5,281.833 264.5,311.167 264.5,340.5C 247.167,340.5 229.833,340.5 212.5,340.5C 212.5,311.5 212.5,282.5 212.5,253.5C 195.5,253.5 178.5,253.5 161.5,253.5 Z"/></g>
<g><path style="opacity:1" fill="#cad3e3" d="M 326.5,340.5 C 327.833,340.5 329.167,340.5 330.5,340.5C 331.919,341.451 333.585,341.784 335.5,341.5C 335.5,367.833 335.5,394.167 335.5,420.5C 329.5,420.5 323.5,420.5 317.5,420.5C 317.5,414.167 317.5,407.833 317.5,401.5C 320.5,401.5 323.5,401.5 326.5,401.5C 326.5,381.167 326.5,360.833 326.5,340.5 Z"/></g>
<g><path style="opacity:1" fill="#bbc5cf" d="M 330.5,340.5 C 332.167,340.5 333.833,340.5 335.5,340.5C 339.167,340.5 342.833,340.5 346.5,340.5C 346.5,360.833 346.5,381.167 346.5,401.5C 349.5,401.5 352.5,401.5 355.5,401.5C 355.5,408.167 355.5,414.833 355.5,421.5C 348.833,421.5 342.167,421.5 335.5,421.5C 335.5,421.167 335.5,420.833 335.5,420.5C 335.5,394.167 335.5,367.833 335.5,341.5C 333.585,341.784 331.919,341.451 330.5,340.5 Z"/></g>
<g><path style="opacity:1" fill="#07ad44" d="M 161.5,340.5 C 178.5,340.5 195.5,340.5 212.5,340.5C 229.833,340.5 247.167,340.5 264.5,340.5C 264.5,340.833 264.5,341.167 264.5,341.5C 247.167,341.5 229.833,341.5 212.5,341.5C 212.5,368.167 212.5,394.833 212.5,421.5C 195.833,421.5 179.167,421.5 162.5,421.5C 161.502,394.672 161.169,367.672 161.5,340.5 Z"/></g>
<g><path style="opacity:1" fill="#00924e" d="M 264.5,341.5 C 264.5,368.167 264.5,394.833 264.5,421.5C 247.167,421.5 229.833,421.5 212.5,421.5C 212.5,394.833 212.5,368.167 212.5,341.5C 229.833,341.5 247.167,341.5 264.5,341.5 Z"/></g>
<g><path style="opacity:1" fill="#d8c3a7" d="M 317.5,401.5 C 317.5,407.833 317.5,414.167 317.5,420.5C 323.5,420.5 329.5,420.5 335.5,420.5C 335.5,420.833 335.5,421.167 335.5,421.5C 329.167,421.5 322.833,421.5 316.5,421.5C 316.176,414.646 316.509,407.979 317.5,401.5 Z"/></g>
</svg>
