<?xml version="1.0" encoding="UTF-8"?>
<!DOCTYPE svg PUBLIC "-//W3C//DTD SVG 1.1//EN" "http://www.w3.org/Graphics/SVG/1.1/DTD/svg11.dtd">
<svg xmlns="http://www.w3.org/2000/svg" version="1.1" width="512px" height="512px" style="shape-rendering:geometricPrecision; text-rendering:geometricPrecision; image-rendering:optimizeQuality; fill-rule:evenodd; clip-rule:evenodd" xmlns:xlink="http://www.w3.org/1999/xlink">
<g><path style="opacity:0.996" fill="#ffcd00" d="M 232.5,-0.5 C 247.833,-0.5 263.167,-0.5 278.5,-0.5C 368.144,10.3879 435.644,54.7213 481,132.5C 497.695,163.971 507.861,197.304 511.5,232.5C 511.5,238.833 511.5,245.167 511.5,251.5C 451.167,191.5 390.833,131.5 330.5,71.5C 305.672,70.5023 280.672,70.169 255.5,70.5C 230.491,70.1669 205.491,70.5002 180.5,71.5C 180.624,72.1067 180.957,72.44 181.5,72.5C 199.983,97.8061 212.816,125.806 220,156.5C 221.139,168.631 220.472,180.631 218,192.5C 212.506,204.672 204.673,215.172 194.5,224C 170.862,243.15 146.862,261.817 122.5,280C 111.521,288.806 102.188,298.972 94.5,310.5C 84.6119,322.021 81.1119,335.355 84,350.5C 85.8636,356.56 88.5302,362.226 92,367.5C 96.3688,372.037 100.869,376.37 105.5,380.5C 147.723,423.224 190.223,465.89 233,508.5C 233.692,509.437 233.525,510.103 232.5,510.5C 142.638,500.417 75.1382,456.417 30,378.5C 13.3053,347.029 3.1386,313.696 -0.5,278.5C -0.5,263.167 -0.5,247.833 -0.5,232.5C 10.3875,142.857 54.7208,75.3573 132.5,30C 163.971,13.3053 197.304,3.1386 232.5,-0.5 Z"/></g>
<g><path style="opacity:1" fill="#ffdb44" d="M 255.5,70.5 C 255.5,70.8333 255.5,71.1667 255.5,71.5C 230.661,71.169 205.994,71.5023 181.5,72.5C 180.957,72.44 180.624,72.1067 180.5,71.5C 205.491,70.5002 230.491,70.1669 255.5,70.5 Z"/></g>
<g><path style="opacity:1" fill="#f9df73" d="M 255.5,71.5 C 255.5,71.1667 255.5,70.8333 255.5,70.5C 280.672,70.169 305.672,70.5023 330.5,71.5C 330.5,72.1667 330.167,72.5 329.5,72.5C 305.006,71.5023 280.339,71.169 255.5,71.5 Z"/></g>
<g><path style="opacity:1" fill="#fffefe" d="M 255.5,71.5 C 255.5,151.167 255.5,230.833 255.5,310.5C 201.833,310.5 148.167,310.5 94.5,310.5C 102.188,298.972 111.521,288.806 122.5,280C 146.862,261.817 170.862,243.15 194.5,224C 204.673,215.172 212.506,204.672 218,192.5C 220.472,180.631 221.139,168.631 220,156.5C 212.816,125.806 199.983,97.8061 181.5,72.5C 205.994,71.5023 230.661,71.169 255.5,71.5 Z"/></g>
<g><path style="opacity:1" fill="#e9ecf4" d="M 255.5,71.5 C 280.339,71.169 305.006,71.5023 329.5,72.5C 311.921,96.6644 299.421,123.331 292,152.5C 285.671,179.714 292.838,202.547 313.5,221C 340.212,242.714 367.212,264.048 394.5,285C 403.114,292.774 410.781,301.274 417.5,310.5C 363.5,310.5 309.5,310.5 255.5,310.5C 255.5,230.833 255.5,151.167 255.5,71.5 Z"/></g>
<g><path style="opacity:1" fill="#ffa300" d="M 330.5,71.5 C 390.833,131.5 451.167,191.5 511.5,251.5C 511.5,260.5 511.5,269.5 511.5,278.5C 500.612,368.144 456.279,435.644 378.5,481C 347.029,497.695 313.696,507.861 278.5,511.5C 263.167,511.5 247.833,511.5 232.5,511.5C 232.5,511.167 232.5,510.833 232.5,510.5C 233.525,510.103 233.692,509.437 233,508.5C 190.223,465.89 147.723,423.224 105.5,380.5C 125.033,393.63 146.366,402.797 169.5,408C 185.692,411.798 202.025,414.798 218.5,417C 230.829,417.5 243.162,417.667 255.5,417.5C 294.262,418.818 331.929,412.984 368.5,400C 386.507,393.922 402.34,384.422 416,371.5C 432.008,351.801 432.508,331.801 417.5,311.5C 417.5,311.167 417.5,310.833 417.5,310.5C 410.781,301.274 403.114,292.774 394.5,285C 367.212,264.048 340.212,242.714 313.5,221C 292.838,202.547 285.671,179.714 292,152.5C 299.421,123.331 311.921,96.6644 329.5,72.5C 330.167,72.5 330.5,72.1667 330.5,71.5 Z"/></g>
<g><path style="opacity:1" fill="#ff593f" d="M 94.5,310.5 C 148.167,310.5 201.833,310.5 255.5,310.5C 309.5,310.5 363.5,310.5 417.5,310.5C 417.5,310.833 417.5,311.167 417.5,311.5C 363.5,311.5 309.5,311.5 255.5,311.5C 255.5,346.833 255.5,382.167 255.5,417.5C 243.162,417.667 230.829,417.5 218.5,417C 202.025,414.798 185.692,411.798 169.5,408C 146.366,402.797 125.033,393.63 105.5,380.5C 100.869,376.37 96.3688,372.037 92,367.5C 88.5302,362.226 85.8636,356.56 84,350.5C 81.1119,335.355 84.6119,322.021 94.5,310.5 Z"/></g>
<g><path style="opacity:1" fill="#f92814" d="M 417.5,311.5 C 432.508,331.801 432.008,351.801 416,371.5C 402.34,384.422 386.507,393.922 368.5,400C 331.929,412.984 294.262,418.818 255.5,417.5C 255.5,382.167 255.5,346.833 255.5,311.5C 309.5,311.5 363.5,311.5 417.5,311.5 Z"/></g>
</svg>
