<?xml version="1.0" encoding="UTF-8"?>
<!DOCTYPE svg PUBLIC "-//W3C//DTD SVG 1.1//EN" "http://www.w3.org/Graphics/SVG/1.1/DTD/svg11.dtd">
<svg xmlns="http://www.w3.org/2000/svg" version="1.1" width="512px" height="512px" style="shape-rendering:geometricPrecision; text-rendering:geometricPrecision; image-rendering:optimizeQuality; fill-rule:evenodd; clip-rule:evenodd" xmlns:xlink="http://www.w3.org/1999/xlink">
<g><path style="opacity:0.996" fill="#ee5ca4" d="M 232.5,-0.5 C 247.833,-0.5 263.167,-0.5 278.5,-0.5C 368.144,10.3879 435.644,54.7213 481,132.5C 497.695,163.971 507.861,197.304 511.5,232.5C 511.5,247.833 511.5,263.167 511.5,278.5C 510.335,283.633 509.668,288.966 509.5,294.5C 460.535,246.035 411.701,197.368 363,148.5C 362.833,216.668 362.333,284.668 361.5,352.5C 361.5,284.167 361.5,215.833 361.5,147.5C 359.833,147.5 358.167,147.5 356.5,147.5C 348.869,139.368 341.036,131.368 333,123.5C 332.617,124.056 332.117,124.389 331.5,124.5C 331.03,123.307 330.03,122.64 328.5,122.5C 314.158,124.721 301.158,130.054 289.5,138.5C 281.055,122.781 268.055,115.781 250.5,117.5C 239.912,118.916 231.412,123.916 225,132.5C 222.35,136.133 220.517,140.133 219.5,144.5C 218.596,145.209 218.263,146.209 218.5,147.5C 195.5,147.5 172.5,147.5 149.5,147.5C 149.333,218.167 149.5,288.834 150,359.5C 153.135,374.139 161.301,384.805 174.5,391.5C 173.448,391.351 172.448,391.517 171.5,392C 210.701,431.035 249.701,470.201 288.5,509.5C 285.059,510.097 281.725,510.763 278.5,511.5C 263.167,511.5 247.833,511.5 232.5,511.5C 142.856,500.612 75.3562,456.279 30,378.5C 13.3053,347.029 3.1386,313.696 -0.5,278.5C -0.5,263.167 -0.5,247.833 -0.5,232.5C 10.3875,142.857 54.7208,75.3573 132.5,30C 163.971,13.3053 197.304,3.1386 232.5,-0.5 Z"/></g>
<g><path style="opacity:1" fill="#fed329" d="M 250.5,117.5 C 252.167,117.5 253.833,117.5 255.5,117.5C 255.5,127.5 255.5,137.5 255.5,147.5C 243.5,147.5 231.5,147.5 219.5,147.5C 219.5,146.5 219.5,145.5 219.5,144.5C 220.517,140.133 222.35,136.133 225,132.5C 231.412,123.916 239.912,118.916 250.5,117.5 Z"/></g>
<g><path style="opacity:1" fill="#fead39" d="M 250.5,117.5 C 268.055,115.781 281.055,122.781 289.5,138.5C 286.761,141.233 284.427,144.233 282.5,147.5C 282.167,147.5 281.833,147.5 281.5,147.5C 272.833,147.5 264.167,147.5 255.5,147.5C 255.5,137.5 255.5,127.5 255.5,117.5C 253.833,117.5 252.167,117.5 250.5,117.5 Z"/></g>
<g><path style="opacity:1" fill="#51bd74" d="M 331.5,124.5 C 330.462,131.984 328.795,139.318 326.5,146.5C 325.833,147.5 325.167,148.5 324.5,149.5C 310.665,148.628 296.665,147.961 282.5,147.5C 284.427,144.233 286.761,141.233 289.5,138.5C 301.158,130.054 314.158,124.721 328.5,122.5C 330.03,122.64 331.03,123.307 331.5,124.5 Z"/></g>
<g><path style="opacity:1" fill="#e82282" d="M 356.5,147.5 C 346.319,147.827 336.319,147.494 326.5,146.5C 328.795,139.318 330.462,131.984 331.5,124.5C 332.117,124.389 332.617,124.056 333,123.5C 341.036,131.368 348.869,139.368 356.5,147.5 Z"/></g>
<g><path style="opacity:1" fill="#fefefe" d="M 218.5,147.5 C 217.805,155.451 218.805,163.118 221.5,170.5C 215.053,171.564 210.053,174.897 206.5,180.5C 180.856,182.062 169.523,195.728 172.5,221.5C 172.5,263.833 172.5,306.167 172.5,348.5C 199.995,349.498 227.662,349.831 255.5,349.5C 255.5,364.5 255.5,379.5 255.5,394.5C 232.167,394.5 208.833,394.5 185.5,394.5C 181.658,394.108 177.991,393.108 174.5,391.5C 161.301,384.805 153.135,374.139 150,359.5C 149.5,288.834 149.333,218.167 149.5,147.5C 172.5,147.5 195.5,147.5 218.5,147.5 Z"/></g>
<g><path style="opacity:1" fill="#feae3a" d="M 219.5,144.5 C 219.5,145.5 219.5,146.5 219.5,147.5C 231.5,147.5 243.5,147.5 255.5,147.5C 255.5,153.167 255.5,158.833 255.5,164.5C 252.059,164.301 248.726,164.801 245.5,166C 241.351,168.005 237.351,170.171 233.5,172.5C 229.68,170.855 225.68,170.189 221.5,170.5C 218.805,163.118 217.805,155.451 218.5,147.5C 218.263,146.209 218.596,145.209 219.5,144.5 Z"/></g>
<g><path style="opacity:1" fill="#fe7d37" d="M 255.5,147.5 C 264.167,147.5 272.833,147.5 281.5,147.5C 276.837,153.827 273.504,160.827 271.5,168.5C 266.428,166.143 261.095,164.81 255.5,164.5C 255.5,158.833 255.5,153.167 255.5,147.5 Z"/></g>
<g><path style="opacity:1" fill="#0daa5e" d="M 281.5,147.5 C 281.833,147.5 282.167,147.5 282.5,147.5C 296.665,147.961 310.665,148.628 324.5,149.5C 319.862,161.127 312.195,170.127 301.5,176.5C 293.828,170.018 285.495,169.018 276.5,173.5C 274.479,172.145 272.812,170.479 271.5,168.5C 273.504,160.827 276.837,153.827 281.5,147.5 Z"/></g>
<g><path style="opacity:1" fill="#d6e8f7" d="M 326.5,146.5 C 336.319,147.494 346.319,147.827 356.5,147.5C 358.167,147.5 359.833,147.5 361.5,147.5C 361.5,215.833 361.5,284.167 361.5,352.5C 359.593,376.242 346.927,390.409 323.5,395C 277.332,395.832 231.332,395.665 185.5,394.5C 208.833,394.5 232.167,394.5 255.5,394.5C 255.5,379.5 255.5,364.5 255.5,349.5C 283.167,349.5 310.833,349.5 338.5,349.5C 338.5,306.833 338.5,264.167 338.5,221.5C 341.486,195.755 330.153,182.088 304.5,180.5C 303.476,179.148 302.476,177.815 301.5,176.5C 312.195,170.127 319.862,161.127 324.5,149.5C 325.167,148.5 325.833,147.5 326.5,146.5 Z"/></g>
<g><path style="opacity:1" fill="#ea1d82" d="M 509.5,294.5 C 492.881,383.934 443.881,448.768 362.5,489C 338.869,499.6 314.202,506.433 288.5,509.5C 249.701,470.201 210.701,431.035 171.5,392C 172.448,391.517 173.448,391.351 174.5,391.5C 177.991,393.108 181.658,394.108 185.5,394.5C 231.332,395.665 277.332,395.832 323.5,395C 346.927,390.409 359.593,376.242 361.5,352.5C 362.333,284.668 362.833,216.668 363,148.5C 411.701,197.368 460.535,246.035 509.5,294.5 Z"/></g>
<g><path style="opacity:1" fill="#ffe16f" d="M 255.5,164.5 C 255.5,183.5 255.5,202.5 255.5,221.5C 227.833,221.5 200.167,221.5 172.5,221.5C 169.523,195.728 180.856,182.062 206.5,180.5C 210.053,174.897 215.053,171.564 221.5,170.5C 225.68,170.189 229.68,170.855 233.5,172.5C 237.351,170.171 241.351,168.005 245.5,166C 248.726,164.801 252.059,164.301 255.5,164.5 Z"/></g>
<g><path style="opacity:1" fill="#fed328" d="M 255.5,164.5 C 261.095,164.81 266.428,166.143 271.5,168.5C 272.812,170.479 274.479,172.145 276.5,173.5C 285.495,169.018 293.828,170.018 301.5,176.5C 302.476,177.815 303.476,179.148 304.5,180.5C 330.153,182.088 341.486,195.755 338.5,221.5C 310.833,221.5 283.167,221.5 255.5,221.5C 255.5,202.5 255.5,183.5 255.5,164.5 Z"/></g>
<g><path style="opacity:1" fill="#ffd428" d="M 172.5,221.5 C 200.167,221.5 227.833,221.5 255.5,221.5C 255.5,263.833 255.5,306.167 255.5,348.5C 227.833,348.5 200.167,348.5 172.5,348.5C 172.5,306.167 172.5,263.833 172.5,221.5 Z"/></g>
<g><path style="opacity:1" fill="#feae39" d="M 255.5,221.5 C 283.167,221.5 310.833,221.5 338.5,221.5C 338.5,264.167 338.5,306.833 338.5,349.5C 310.833,349.5 283.167,349.5 255.5,349.5C 227.662,349.831 199.995,349.498 172.5,348.5C 200.167,348.5 227.833,348.5 255.5,348.5C 255.5,306.167 255.5,263.833 255.5,221.5 Z"/></g>
</svg>
