<?xml version="1.0" encoding="UTF-8"?>
<!DOCTYPE svg PUBLIC "-//W3C//DTD SVG 1.1//EN" "http://www.w3.org/Graphics/SVG/1.1/DTD/svg11.dtd">
<svg xmlns="http://www.w3.org/2000/svg" version="1.1" width="512px" height="512px" style="shape-rendering:geometricPrecision; text-rendering:geometricPrecision; image-rendering:optimizeQuality; fill-rule:evenodd; clip-rule:evenodd" xmlns:xlink="http://www.w3.org/1999/xlink">
<g><path style="opacity:0.996" fill="#00b4fe" d="M 232.5,-0.5 C 247.833,-0.5 263.167,-0.5 278.5,-0.5C 368.144,10.3879 435.644,54.7213 481,132.5C 497.695,163.971 507.861,197.304 511.5,232.5C 511.5,247.833 511.5,263.167 511.5,278.5C 509.055,300.956 504.055,322.956 496.5,344.5C 495.448,344.649 494.448,344.483 493.5,344C 462.632,312.965 431.632,282.132 400.5,251.5C 394.69,250.51 388.69,250.177 382.5,250.5C 330.167,197.5 277.5,144.833 224.5,92.5C 213.679,91.5054 202.679,91.1721 191.5,91.5C 180.167,91.5 168.833,91.5 157.5,91.5C 157.667,103.838 157.5,116.171 157,128.5C 155.042,133.665 153.709,138.999 153,144.5C 152.729,157.918 152.562,171.252 152.5,184.5C 135.144,191.69 123.978,204.357 119,222.5C 118.168,275.668 118.335,328.668 119.5,381.5C 162.608,425.275 205.942,468.608 249.5,511.5C 243.833,511.5 238.167,511.5 232.5,511.5C 142.856,500.612 75.3562,456.279 30,378.5C 13.3053,347.029 3.1386,313.696 -0.5,278.5C -0.5,263.167 -0.5,247.833 -0.5,232.5C 10.3875,142.857 54.7208,75.3573 132.5,30C 163.971,13.3053 197.304,3.1386 232.5,-0.5 Z"/></g>
<g><path style="opacity:1" fill="#d55a2e" d="M 191.5,91.5 C 191.5,121.833 191.5,152.167 191.5,182.5C 203.678,182.172 215.678,182.505 227.5,183.5C 215.167,183.5 202.833,183.5 190.5,183.5C 177.784,183.205 165.117,183.538 152.5,184.5C 152.562,171.252 152.729,157.918 153,144.5C 153.709,138.999 155.042,133.665 157,128.5C 157.5,116.171 157.667,103.838 157.5,91.5C 168.833,91.5 180.167,91.5 191.5,91.5 Z"/></g>
<g><path style="opacity:1" fill="#a03914" d="M 191.5,91.5 C 202.679,91.1721 213.679,91.5054 224.5,92.5C 223.329,110.113 224.829,127.446 229,144.5C 229.711,157.519 229.545,170.519 228.5,183.5C 228.167,183.5 227.833,183.5 227.5,183.5C 215.678,182.505 203.678,182.172 191.5,182.5C 191.5,152.167 191.5,121.833 191.5,91.5 Z"/></g>
<g><path style="opacity:1" fill="#0099fb" d="M 224.5,92.5 C 277.5,144.833 330.167,197.5 382.5,250.5C 368.833,250.5 355.167,250.5 341.5,250.5C 321.5,250.5 301.5,250.5 281.5,250.5C 281.168,294.337 281.501,338.003 282.5,381.5C 302.167,381.5 321.833,381.5 341.5,381.5C 361.167,381.5 380.833,381.5 400.5,381.5C 400.5,366.167 400.5,350.833 400.5,335.5C 400.5,307.5 400.5,279.5 400.5,251.5C 431.632,282.132 462.632,312.965 493.5,344C 494.448,344.483 495.448,344.649 496.5,344.5C 462.341,429.824 400.675,483.657 311.5,506C 300.424,508.254 289.424,510.087 278.5,511.5C 268.833,511.5 259.167,511.5 249.5,511.5C 205.942,468.608 162.608,425.275 119.5,381.5C 143.167,381.5 166.833,381.5 190.5,381.5C 214.833,381.5 239.167,381.5 263.5,381.5C 263.667,328.499 263.5,275.499 263,222.5C 257.722,204.052 246.222,191.052 228.5,183.5C 229.545,170.519 229.711,157.519 229,144.5C 224.829,127.446 223.329,110.113 224.5,92.5 Z"/></g>
<g><path style="opacity:1" fill="#fd8803" d="M 190.5,183.5 C 190.5,205.833 190.5,228.167 190.5,250.5C 173.833,250.5 157.167,250.5 140.5,250.5C 140.5,277.833 140.5,305.167 140.5,332.5C 157.167,332.5 173.833,332.5 190.5,332.5C 190.5,348.833 190.5,365.167 190.5,381.5C 166.833,381.5 143.167,381.5 119.5,381.5C 118.335,328.668 118.168,275.668 119,222.5C 123.978,204.357 135.144,191.69 152.5,184.5C 165.117,183.538 177.784,183.205 190.5,183.5 Z"/></g>
<g><path style="opacity:1" fill="#fe6900" d="M 190.5,183.5 C 202.833,183.5 215.167,183.5 227.5,183.5C 227.833,183.5 228.167,183.5 228.5,183.5C 246.222,191.052 257.722,204.052 263,222.5C 263.5,275.499 263.667,328.499 263.5,381.5C 239.167,381.5 214.833,381.5 190.5,381.5C 190.5,365.167 190.5,348.833 190.5,332.5C 207.833,332.5 225.167,332.5 242.5,332.5C 242.831,304.995 242.498,277.662 241.5,250.5C 224.833,250.5 208.167,250.5 191.5,250.5C 191.167,250.5 190.833,250.5 190.5,250.5C 190.5,228.167 190.5,205.833 190.5,183.5 Z"/></g>
<g><path style="opacity:1" fill="#ad2a01" d="M 190.5,250.5 C 190.833,250.5 191.167,250.5 191.5,250.5C 191.5,277.5 191.5,304.5 191.5,331.5C 208.167,331.5 224.833,331.5 241.5,331.5C 241.5,304.5 241.5,277.5 241.5,250.5C 242.498,277.662 242.831,304.995 242.5,332.5C 225.167,332.5 207.833,332.5 190.5,332.5C 173.833,332.5 157.167,332.5 140.5,332.5C 140.5,305.167 140.5,277.833 140.5,250.5C 157.167,250.5 173.833,250.5 190.5,250.5 Z"/></g>
<g><path style="opacity:1" fill="#8d1e02" d="M 191.5,250.5 C 208.167,250.5 224.833,250.5 241.5,250.5C 241.5,277.5 241.5,304.5 241.5,331.5C 224.833,331.5 208.167,331.5 191.5,331.5C 191.5,304.5 191.5,277.5 191.5,250.5 Z"/></g>
<g><path style="opacity:1" fill="#fcdc82" d="M 341.5,250.5 C 341.5,284.167 341.5,317.833 341.5,351.5C 328.5,351.5 315.5,351.5 302.5,351.5C 294.371,348.21 287.871,342.876 283,335.5C 282.5,350.83 282.333,366.163 282.5,381.5C 281.501,338.003 281.168,294.337 281.5,250.5C 301.5,250.5 321.5,250.5 341.5,250.5 Z"/></g>
<g><path style="opacity:1" fill="#febe7a" d="M 341.5,250.5 C 355.167,250.5 368.833,250.5 382.5,250.5C 388.69,250.177 394.69,250.51 400.5,251.5C 400.5,279.5 400.5,307.5 400.5,335.5C 397.065,339.438 393.398,343.271 389.5,347C 386.446,349.194 383.112,350.861 379.5,352C 366.838,352.5 354.171,352.667 341.5,352.5C 328.323,352.829 315.323,352.495 302.5,351.5C 315.5,351.5 328.5,351.5 341.5,351.5C 341.5,317.833 341.5,284.167 341.5,250.5 Z"/></g>
<g><path style="opacity:1" fill="#d55a2f" d="M 302.5,351.5 C 315.323,352.495 328.323,352.829 341.5,352.5C 341.5,362.167 341.5,371.833 341.5,381.5C 321.833,381.5 302.167,381.5 282.5,381.5C 282.333,366.163 282.5,350.83 283,335.5C 287.871,342.876 294.371,348.21 302.5,351.5 Z"/></g>
<g><path style="opacity:1" fill="#a03914" d="M 400.5,335.5 C 400.5,350.833 400.5,366.167 400.5,381.5C 380.833,381.5 361.167,381.5 341.5,381.5C 341.5,371.833 341.5,362.167 341.5,352.5C 354.171,352.667 366.838,352.5 379.5,352C 383.112,350.861 386.446,349.194 389.5,347C 393.398,343.271 397.065,339.438 400.5,335.5 Z"/></g>
</svg>
