<?xml version="1.0" encoding="UTF-8"?>
<!DOCTYPE svg PUBLIC "-//W3C//DTD SVG 1.1//EN" "http://www.w3.org/Graphics/SVG/1.1/DTD/svg11.dtd">
<svg xmlns="http://www.w3.org/2000/svg" version="1.1" width="512px" height="512px" style="shape-rendering:geometricPrecision; text-rendering:geometricPrecision; image-rendering:optimizeQuality; fill-rule:evenodd; clip-rule:evenodd" xmlns:xlink="http://www.w3.org/1999/xlink">
<g><path style="opacity:0.994" fill="#1dd782" d="M 232.5,-0.5 C 247.833,-0.5 263.167,-0.5 278.5,-0.5C 364.976,9.80479 431.142,51.8048 477,125.5C 490.114,148.063 499.614,172.063 505.5,197.5C 469.833,162.167 434.167,126.833 398.5,91.5C 358.335,90.3354 318.002,90.1687 277.5,91C 273.488,101.88 270.488,113.047 268.5,124.5C 267.883,124.611 267.383,124.944 267,125.5C 255.632,113.965 244.132,102.631 232.5,91.5C 192.335,90.3354 152.002,90.1687 111.5,91C 105.626,108.792 101.292,126.958 98.5,145.5C 93.3998,178.246 104.066,204.246 130.5,223.5C 137.778,232.446 145.778,240.779 154.5,248.5C 154.5,255.833 154.5,263.167 154.5,270.5C 127.833,270.5 101.167,270.5 74.5,270.5C 74.2053,272.735 74.5386,274.735 75.5,276.5C 77.5896,295.684 86.5896,310.684 102.5,321.5C 108.5,328.5 114.5,335.5 120.5,342.5C 90.6554,354.595 60.9887,366.928 31.5,379.5C 19.1109,358.362 10.2776,335.695 5,311.5C 2.74641,300.424 0.913081,289.424 -0.5,278.5C -0.5,263.167 -0.5,247.833 -0.5,232.5C 10.3875,142.857 54.7208,75.3573 132.5,30C 163.971,13.3053 197.304,3.1386 232.5,-0.5 Z"/></g>
<g><path style="opacity:1" fill="#fefdfd" d="M 232.5,91.5 C 238.396,109.082 242.396,127.082 244.5,145.5C 195.833,145.5 147.167,145.5 98.5,145.5C 101.292,126.958 105.626,108.792 111.5,91C 152.002,90.1687 192.335,90.3354 232.5,91.5 Z"/></g>
<g><path style="opacity:1" fill="#e9ebf2" d="M 398.5,91.5 C 404.388,109.054 408.388,127.054 410.5,145.5C 361.833,145.5 313.167,145.5 264.5,145.5C 265.321,138.394 266.655,131.394 268.5,124.5C 270.488,113.047 273.488,101.88 277.5,91C 318.002,90.1687 358.335,90.3354 398.5,91.5 Z"/></g>
<g><path style="opacity:1" fill="#27b973" d="M 232.5,91.5 C 244.132,102.631 255.632,113.965 267,125.5C 267.383,124.944 267.883,124.611 268.5,124.5C 266.655,131.394 265.321,138.394 264.5,145.5C 259.398,182.794 273.065,210.627 305.5,229C 310.745,231.137 316.078,232.97 321.5,234.5C 321.5,246.5 321.5,258.5 321.5,270.5C 277.167,270.5 232.833,270.5 188.5,270.5C 188.5,258.5 188.5,246.5 188.5,234.5C 231.212,220.095 249.878,190.428 244.5,145.5C 242.396,127.082 238.396,109.082 232.5,91.5 Z"/></g>
<g><path style="opacity:1" fill="#25ba73" d="M 398.5,91.5 C 434.167,126.833 469.833,162.167 505.5,197.5C 508.06,209.197 510.06,220.864 511.5,232.5C 511.5,247.833 511.5,263.167 511.5,278.5C 500.612,368.144 456.279,435.644 378.5,481C 347.029,497.695 313.696,507.861 278.5,511.5C 263.167,511.5 247.833,511.5 232.5,511.5C 179.398,506.033 132.398,486.366 91.5,452.5C 108.665,441.522 125.999,430.689 143.5,420C 146.833,419.333 150.167,419.333 153.5,420C 187.473,424.163 221.473,427.997 255.5,431.5C 276.175,437.511 295.841,435.011 314.5,424C 351.681,395.575 388.681,366.908 425.5,338C 421.833,333.667 418.167,329.333 414.5,325C 412.423,323.295 410.09,322.128 407.5,321.5C 425.138,309.231 434.138,292.231 434.5,270.5C 407.833,270.5 381.167,270.5 354.5,270.5C 354.5,258.5 354.5,246.5 354.5,234.5C 383.485,226.348 401.985,207.682 410,178.5C 411.693,167.37 411.86,156.37 410.5,145.5C 408.388,127.054 404.388,109.054 398.5,91.5 Z"/></g>
<g><path style="opacity:1" fill="#fe6c52" d="M 98.5,145.5 C 147.167,145.5 195.833,145.5 244.5,145.5C 249.878,190.428 231.212,220.095 188.5,234.5C 188.167,234.5 187.833,234.5 187.5,234.5C 176.81,235.755 166.143,235.755 155.5,234.5C 155.167,234.5 154.833,234.5 154.5,234.5C 145.992,231.912 137.992,228.245 130.5,223.5C 104.066,204.246 93.3998,178.246 98.5,145.5 Z"/></g>
<g><path style="opacity:1" fill="#fe432e" d="M 264.5,145.5 C 313.167,145.5 361.833,145.5 410.5,145.5C 411.86,156.37 411.693,167.37 410,178.5C 401.985,207.682 383.485,226.348 354.5,234.5C 354.167,234.5 353.833,234.5 353.5,234.5C 342.81,235.755 332.143,235.755 321.5,234.5C 316.078,232.97 310.745,231.137 305.5,229C 273.065,210.627 259.398,182.794 264.5,145.5 Z"/></g>
<g><path style="opacity:1" fill="#30b872" d="M 130.5,223.5 C 137.992,228.245 145.992,231.912 154.5,234.5C 154.5,239.167 154.5,243.833 154.5,248.5C 145.778,240.779 137.778,232.446 130.5,223.5 Z"/></g>
<g><path style="opacity:1" fill="#fffdfd" d="M 155.5,234.5 C 166.143,235.755 176.81,235.755 187.5,234.5C 187.5,246.5 187.5,258.5 187.5,270.5C 176.833,270.5 166.167,270.5 155.5,270.5C 155.5,258.5 155.5,246.5 155.5,234.5 Z"/></g>
<g><path style="opacity:1" fill="#e9ebf3" d="M 321.5,234.5 C 332.143,235.755 342.81,235.755 353.5,234.5C 353.5,246.5 353.5,258.5 353.5,270.5C 342.833,270.5 332.167,270.5 321.5,270.5C 321.5,258.5 321.5,246.5 321.5,234.5 Z"/></g>
<g><path style="opacity:1" fill="#86e2bc" d="M 154.5,234.5 C 154.833,234.5 155.167,234.5 155.5,234.5C 155.5,246.5 155.5,258.5 155.5,270.5C 129.005,271.498 102.339,271.831 75.5,271.5C 75.5,273.167 75.5,274.833 75.5,276.5C 74.5386,274.735 74.2053,272.735 74.5,270.5C 101.167,270.5 127.833,270.5 154.5,270.5C 154.5,263.167 154.5,255.833 154.5,248.5C 154.5,243.833 154.5,239.167 154.5,234.5 Z"/></g>
<g><path style="opacity:1" fill="#e8edf4" d="M 187.5,234.5 C 187.833,234.5 188.167,234.5 188.5,234.5C 188.5,246.5 188.5,258.5 188.5,270.5C 210.66,271.497 232.994,271.831 255.5,271.5C 255.5,291.167 255.5,310.833 255.5,330.5C 219.833,330.5 184.167,330.5 148.5,330.5C 132.002,332.857 116.669,329.857 102.5,321.5C 86.5896,310.684 77.5896,295.684 75.5,276.5C 75.5,274.833 75.5,273.167 75.5,271.5C 102.339,271.831 129.005,271.498 155.5,270.5C 166.167,270.5 176.833,270.5 187.5,270.5C 187.5,258.5 187.5,246.5 187.5,234.5 Z"/></g>
<g><path style="opacity:1" fill="#dbe0ea" d="M 353.5,234.5 C 353.833,234.5 354.167,234.5 354.5,234.5C 354.5,246.5 354.5,258.5 354.5,270.5C 381.167,270.5 407.833,270.5 434.5,270.5C 434.138,292.231 425.138,309.231 407.5,321.5C 396.478,328.256 384.478,331.59 371.5,331.5C 348.339,330.502 325.006,330.169 301.5,330.5C 286.167,330.5 270.833,330.5 255.5,330.5C 255.5,310.833 255.5,291.167 255.5,271.5C 232.994,271.831 210.66,271.497 188.5,270.5C 232.833,270.5 277.167,270.5 321.5,270.5C 332.167,270.5 342.833,270.5 353.5,270.5C 353.5,258.5 353.5,246.5 353.5,234.5 Z"/></g>
<g><path style="opacity:1" fill="#f9a68e" d="M 407.5,321.5 C 410.09,322.128 412.423,323.295 414.5,325C 418.167,329.333 421.833,333.667 425.5,338C 388.681,366.908 351.681,395.575 314.5,424C 295.841,435.011 276.175,437.511 255.5,431.5C 254.846,411.804 255.512,392.471 257.5,373.5C 266.826,375 276.16,376.167 285.5,377C 313.642,362.339 341.642,347.506 369.5,332.5C 370.167,332.167 370.833,331.833 371.5,331.5C 384.478,331.59 396.478,328.256 407.5,321.5 Z"/></g>
<g><path style="opacity:1" fill="#34bc78" d="M 102.5,321.5 C 116.669,329.857 132.002,332.857 148.5,330.5C 148.5,330.833 148.5,331.167 148.5,331.5C 139.004,334.776 129.67,338.443 120.5,342.5C 114.5,335.5 108.5,328.5 102.5,321.5 Z"/></g>
<g><path style="opacity:1" fill="#f2d0c8" d="M 148.5,331.5 C 148.5,331.167 148.5,330.833 148.5,330.5C 184.167,330.5 219.833,330.5 255.5,330.5C 270.833,330.5 286.167,330.5 301.5,330.5C 301.5,330.833 301.5,331.167 301.5,331.5C 301.5,332.167 301.167,332.5 300.5,332.5C 285.676,331.504 270.676,331.171 255.5,331.5C 219.833,331.5 184.167,331.5 148.5,331.5 Z"/></g>
<g><path style="opacity:1" fill="#9cd5c1" d="M 301.5,331.5 C 301.5,331.167 301.5,330.833 301.5,330.5C 325.006,330.169 348.339,330.502 371.5,331.5C 370.833,331.833 370.167,332.167 369.5,332.5C 347.006,331.503 324.339,331.169 301.5,331.5 Z"/></g>
<g><path style="opacity:0.998" fill="#febea9" d="M 148.5,331.5 C 184.167,331.5 219.833,331.5 255.5,331.5C 255.5,339.833 255.5,348.167 255.5,356.5C 246.977,360.593 238.31,364.427 229.5,368C 238.791,370.38 248.124,372.213 257.5,373.5C 255.512,392.471 254.846,411.804 255.5,431.5C 221.473,427.997 187.473,424.163 153.5,420C 150.167,419.333 146.833,419.333 143.5,420C 125.999,430.689 108.665,441.522 91.5,452.5C 66.2762,432.294 46.2762,407.96 31.5,379.5C 60.9887,366.928 90.6554,354.595 120.5,342.5C 129.67,338.443 139.004,334.776 148.5,331.5 Z"/></g>
<g><path style="opacity:1" fill="#f8a68e" d="M 255.5,331.5 C 270.676,331.171 285.676,331.504 300.5,332.5C 298.78,335.731 296.447,338.564 293.5,341C 280.915,346.462 268.248,351.629 255.5,356.5C 255.5,348.167 255.5,339.833 255.5,331.5 Z"/></g>
<g><path style="opacity:1" fill="#2ab973" d="M 301.5,331.5 C 324.339,331.169 347.006,331.503 369.5,332.5C 341.642,347.506 313.642,362.339 285.5,377C 276.16,376.167 266.826,375 257.5,373.5C 248.124,372.213 238.791,370.38 229.5,368C 238.31,364.427 246.977,360.593 255.5,356.5C 268.248,351.629 280.915,346.462 293.5,341C 296.447,338.564 298.78,335.731 300.5,332.5C 301.167,332.5 301.5,332.167 301.5,331.5 Z"/></g>
</svg>
