<?xml version="1.0" encoding="UTF-8"?>
<!DOCTYPE svg PUBLIC "-//W3C//DTD SVG 1.1//EN" "http://www.w3.org/Graphics/SVG/1.1/DTD/svg11.dtd">
<svg xmlns="http://www.w3.org/2000/svg" version="1.1" width="512px" height="512px" style="shape-rendering:geometricPrecision; text-rendering:geometricPrecision; image-rendering:optimizeQuality; fill-rule:evenodd; clip-rule:evenodd" xmlns:xlink="http://www.w3.org/1999/xlink">
<g><path style="opacity:0.997" fill="#fee16f" d="M 232.5,-0.5 C 247.833,-0.5 263.167,-0.5 278.5,-0.5C 368.144,10.3879 435.644,54.7213 481,132.5C 497.695,163.971 507.861,197.304 511.5,232.5C 511.5,247.833 511.5,263.167 511.5,278.5C 510.09,288.743 508.423,299.076 506.5,309.5C 505.761,309.631 505.094,309.464 504.5,309C 434.632,238.965 364.632,169.132 294.5,99.5C 294.5,98.8333 294.167,98.5 293.5,98.5C 288.833,98.5 284.167,98.5 279.5,98.5C 279.5,119.5 279.5,140.5 279.5,161.5C 279.167,161.5 278.833,161.5 278.5,161.5C 270.833,161.5 263.167,161.5 255.5,161.5C 248.167,161.5 240.833,161.5 233.5,161.5C 233.5,161.167 233.5,160.833 233.5,160.5C 239.509,160.666 245.509,160.499 251.5,160C 245.631,153.964 239.631,148.13 233.5,142.5C 230.833,141.167 228.167,141.167 225.5,142.5C 213.006,144.576 203.34,150.91 196.5,161.5C 196.167,161.5 195.833,161.5 195.5,161.5C 184.167,161.5 172.833,161.5 161.5,161.5C 173.28,245.434 185.947,329.101 199.5,412.5C 199.369,413.239 199.536,413.906 200,414.5C 231.701,446.035 263.201,477.701 294.5,509.5C 288.966,509.668 283.633,510.335 278.5,511.5C 263.167,511.5 247.833,511.5 232.5,511.5C 142.856,500.612 75.3562,456.279 30,378.5C 13.3053,347.029 3.1386,313.696 -0.5,278.5C -0.5,263.167 -0.5,247.833 -0.5,232.5C 10.3875,142.857 54.7208,75.3573 132.5,30C 163.971,13.3053 197.304,3.1386 232.5,-0.5 Z"/></g>
<g><path style="opacity:1" fill="#8d4cd4" d="M 293.5,98.5 C 293.5,119.5 293.5,140.5 293.5,161.5C 288.833,161.5 284.167,161.5 279.5,161.5C 279.5,140.5 279.5,119.5 279.5,98.5C 284.167,98.5 288.833,98.5 293.5,98.5 Z"/></g>
<g><path style="opacity:1" fill="#fed428" d="M 294.5,99.5 C 364.632,169.132 434.632,238.965 504.5,309C 505.094,309.464 505.761,309.631 506.5,309.5C 486.386,391.773 438.386,451.606 362.5,489C 340.649,498.628 317.982,505.462 294.5,509.5C 263.201,477.701 231.701,446.035 200,414.5C 199.536,413.906 199.369,413.239 199.5,412.5C 218.167,412.5 236.833,412.5 255.5,412.5C 274.5,412.5 293.5,412.5 312.5,412.5C 325.079,328.871 337.412,245.205 349.5,161.5C 331.167,161.5 312.833,161.5 294.5,161.5C 294.5,140.833 294.5,120.167 294.5,99.5 Z"/></g>
<g><path style="opacity:1" fill="#ffd42a" d="M 233.5,142.5 C 239.631,148.13 245.631,153.964 251.5,160C 245.509,160.499 239.509,160.666 233.5,160.5C 233.5,154.5 233.5,148.5 233.5,142.5 Z"/></g>
<g><path style="opacity:1" fill="#b7e14d" d="M 225.5,142.5 C 228.167,141.167 230.833,141.167 233.5,142.5C 233.5,148.5 233.5,154.5 233.5,160.5C 233.5,160.833 233.5,161.167 233.5,161.5C 227.158,161.666 220.825,161.5 214.5,161C 219.816,157.003 225.816,155.17 232.5,155.5C 232.5,151.167 232.5,146.833 232.5,142.5C 230.167,142.5 227.833,142.5 225.5,142.5 Z"/></g>
<g><path style="opacity:1" fill="#fefdfc" d="M 195.5,161.5 C 188.253,173.736 186.587,186.736 190.5,200.5C 187.833,200.5 185.167,200.5 182.5,200.5C 191.394,259.095 199.728,317.761 207.5,376.5C 223.5,376.5 239.5,376.5 255.5,376.5C 255.5,388.5 255.5,400.5 255.5,412.5C 236.833,412.5 218.167,412.5 199.5,412.5C 185.947,329.101 173.28,245.434 161.5,161.5C 172.833,161.5 184.167,161.5 195.5,161.5 Z"/></g>
<g><path style="opacity:1" fill="#51bf74" d="M 195.5,161.5 C 195.833,161.5 196.167,161.5 196.5,161.5C 201.844,161.334 207.177,161.501 212.5,162C 201.372,173.021 198.705,185.854 204.5,200.5C 199.968,200.182 195.634,200.515 191.5,201.5C 190.833,201.5 190.5,201.167 190.5,200.5C 186.587,186.736 188.253,173.736 195.5,161.5 Z"/></g>
<g><path style="opacity:1" fill="#79dc5b" d="M 225.5,142.5 C 227.833,142.5 230.167,142.5 232.5,142.5C 232.5,146.833 232.5,151.167 232.5,155.5C 225.816,155.17 219.816,157.003 214.5,161C 220.825,161.5 227.158,161.666 233.5,161.5C 233.5,171.5 233.5,181.5 233.5,191.5C 233.5,194.5 233.5,197.5 233.5,200.5C 233.167,200.5 232.833,200.5 232.5,200.5C 223.5,200.5 214.5,200.5 205.5,200.5C 205.167,200.5 204.833,200.5 204.5,200.5C 198.705,185.854 201.372,173.021 212.5,162C 207.177,161.501 201.844,161.334 196.5,161.5C 203.34,150.91 213.006,144.576 225.5,142.5 Z"/></g>
<g><path style="opacity:1" fill="#fefefe" d="M 233.5,161.5 C 240.833,161.5 248.167,161.5 255.5,161.5C 255.5,164.5 255.5,167.5 255.5,170.5C 248.167,177.5 240.833,184.5 233.5,191.5C 233.5,181.5 233.5,171.5 233.5,161.5 Z"/></g>
<g><path style="opacity:1" fill="#d5e8f7" d="M 255.5,161.5 C 263.167,161.5 270.833,161.5 278.5,161.5C 278.666,171.839 278.5,182.172 278,192.5C 270.632,184.964 263.132,177.631 255.5,170.5C 255.5,167.5 255.5,164.5 255.5,161.5 Z"/></g>
<g><path style="opacity:1" fill="#693a96" d="M 293.5,98.5 C 294.167,98.5 294.5,98.8333 294.5,99.5C 294.5,120.167 294.5,140.833 294.5,161.5C 294.5,174.5 294.5,187.5 294.5,200.5C 289.5,200.5 284.5,200.5 279.5,200.5C 279.5,187.5 279.5,174.5 279.5,161.5C 284.167,161.5 288.833,161.5 293.5,161.5C 293.5,140.5 293.5,119.5 293.5,98.5 Z"/></g>
<g><path style="opacity:1" fill="#d5e7f5" d="M 294.5,161.5 C 312.833,161.5 331.167,161.5 349.5,161.5C 337.412,245.205 325.079,328.871 312.5,412.5C 293.5,412.5 274.5,412.5 255.5,412.5C 255.5,400.5 255.5,388.5 255.5,376.5C 271.5,376.5 287.5,376.5 303.5,376.5C 311.27,317.773 319.604,259.107 328.5,200.5C 317.167,200.5 305.833,200.5 294.5,200.5C 294.5,187.5 294.5,174.5 294.5,161.5 Z"/></g>
<g><path style="opacity:1" fill="#d6e9f8" d="M 255.5,170.5 C 255.5,180.5 255.5,190.5 255.5,200.5C 248.167,200.5 240.833,200.5 233.5,200.5C 233.5,197.5 233.5,194.5 233.5,191.5C 240.833,184.5 248.167,177.5 255.5,170.5 Z"/></g>
<g><path style="opacity:1" fill="#b2d4f1" d="M 278.5,161.5 C 278.833,161.5 279.167,161.5 279.5,161.5C 279.5,174.5 279.5,187.5 279.5,200.5C 279.167,200.5 278.833,200.5 278.5,200.5C 270.833,200.5 263.167,200.5 255.5,200.5C 255.5,190.5 255.5,180.5 255.5,170.5C 263.132,177.631 270.632,184.964 278,192.5C 278.5,182.172 278.666,171.839 278.5,161.5 Z"/></g>
<g><path style="opacity:1" fill="#94623b" d="M 190.5,200.5 C 190.5,201.167 190.833,201.5 191.5,201.5C 199.02,219.767 212.686,229.434 232.5,230.5C 232.5,225.833 232.5,221.167 232.5,216.5C 232.5,211.167 232.5,205.833 232.5,200.5C 232.833,200.5 233.167,200.5 233.5,200.5C 233.335,203.518 233.502,206.518 234,209.5C 241.035,216.703 248.202,223.703 255.5,230.5C 255.5,238.5 255.5,246.5 255.5,254.5C 249.187,248.522 242.854,242.522 236.5,236.5C 225.167,247.167 214.167,258.167 203.5,269.5C 214.167,280.833 225.167,291.833 236.5,302.5C 242.854,296.478 249.187,290.478 255.5,284.5C 255.5,315.167 255.5,345.833 255.5,376.5C 239.5,376.5 223.5,376.5 207.5,376.5C 199.728,317.761 191.394,259.095 182.5,200.5C 185.167,200.5 187.833,200.5 190.5,200.5 Z"/></g>
<g><path style="opacity:1" fill="#0aa85d" d="M 204.5,200.5 C 204.833,200.5 205.167,200.5 205.5,200.5C 211.281,211.225 220.281,216.559 232.5,216.5C 232.5,221.167 232.5,225.833 232.5,230.5C 212.686,229.434 199.02,219.767 191.5,201.5C 195.634,200.515 199.968,200.182 204.5,200.5 Z"/></g>
<g><path style="opacity:1" fill="#4ebe73" d="M 205.5,200.5 C 214.5,200.5 223.5,200.5 232.5,200.5C 232.5,205.833 232.5,211.167 232.5,216.5C 220.281,216.559 211.281,211.225 205.5,200.5 Z"/></g>
<g><path style="opacity:1" fill="#ab7145" d="M 233.5,200.5 C 240.833,200.5 248.167,200.5 255.5,200.5C 255.5,210.5 255.5,220.5 255.5,230.5C 248.202,223.703 241.035,216.703 234,209.5C 233.502,206.518 233.335,203.518 233.5,200.5 Z"/></g>
<g><path style="opacity:1" fill="#94613a" d="M 255.5,200.5 C 263.167,200.5 270.833,200.5 278.5,200.5C 278.664,203.187 278.497,205.854 278,208.5C 270.632,216.036 263.132,223.369 255.5,230.5C 255.5,220.5 255.5,210.5 255.5,200.5 Z"/></g>
<g><path style="opacity:1" fill="#4b1e79" d="M 279.5,200.5 C 284.5,200.5 289.5,200.5 294.5,200.5C 294.5,209.5 294.5,218.5 294.5,227.5C 290.561,233.108 285.894,238.108 280.5,242.5C 279.504,228.677 279.171,214.677 279.5,200.5 Z"/></g>
<g><path style="opacity:1" fill="#70482a" d="M 294.5,200.5 C 305.833,200.5 317.167,200.5 328.5,200.5C 319.604,259.107 311.27,317.773 303.5,376.5C 287.5,376.5 271.5,376.5 255.5,376.5C 255.5,345.833 255.5,315.167 255.5,284.5C 259.167,280.5 262.833,276.5 266.5,272.5C 273.209,275.15 280.209,276.15 287.5,275.5C 285.052,276.473 282.385,276.806 279.5,276.5C 279.5,305.167 279.5,333.833 279.5,362.5C 284.305,363.487 289.305,363.821 294.5,363.5C 294.5,333.833 294.5,304.167 294.5,274.5C 313.613,265.945 321.446,251.278 318,230.5C 316.112,225.055 313.445,220.055 310,215.5C 309.282,214.549 308.449,214.383 307.5,215C 304.961,217.37 302.628,219.87 300.5,222.5C 298.5,224.167 296.5,225.833 294.5,227.5C 294.5,218.5 294.5,209.5 294.5,200.5 Z"/></g>
<g><path style="opacity:1" fill="#71472b" d="M 278.5,200.5 C 278.833,200.5 279.167,200.5 279.5,200.5C 279.171,214.677 279.504,228.677 280.5,242.5C 275.194,247.14 270.194,252.14 265.5,257.5C 264.167,258.5 262.833,259.5 261.5,260.5C 259.167,258.833 257.167,256.833 255.5,254.5C 255.5,246.5 255.5,238.5 255.5,230.5C 263.132,223.369 270.632,216.036 278,208.5C 278.497,205.854 278.664,203.187 278.5,200.5 Z"/></g>
<g><path style="opacity:1" fill="#0ca75c" d="M 294.5,274.5 C 294.167,274.5 293.833,274.5 293.5,274.5C 291.5,274.833 289.5,275.167 287.5,275.5C 280.209,276.15 273.209,275.15 266.5,272.5C 263.257,270.604 260.257,268.27 257.5,265.5C 258.857,263.814 260.19,262.148 261.5,260.5C 262.833,259.5 264.167,258.5 265.5,257.5C 275.104,266.762 285.771,267.929 297.5,261C 309.315,250.901 311.481,239.067 304,225.5C 302.961,224.29 301.794,223.29 300.5,222.5C 302.628,219.87 304.961,217.37 307.5,215C 308.449,214.383 309.282,214.549 310,215.5C 313.445,220.055 316.112,225.055 318,230.5C 321.446,251.278 313.613,265.945 294.5,274.5 Z"/></g>
<g><path style="opacity:1" fill="#4fbd72" d="M 300.5,222.5 C 301.794,223.29 302.961,224.29 304,225.5C 311.481,239.067 309.315,250.901 297.5,261C 285.771,267.929 275.104,266.762 265.5,257.5C 270.194,252.14 275.194,247.14 280.5,242.5C 285.894,238.108 290.561,233.108 294.5,227.5C 296.5,225.833 298.5,224.167 300.5,222.5 Z"/></g>
<g><path style="opacity:1" fill="#aa7045" d="M 255.5,254.5 C 257.167,256.833 259.167,258.833 261.5,260.5C 260.19,262.148 258.857,263.814 257.5,265.5C 260.257,268.27 263.257,270.604 266.5,272.5C 262.833,276.5 259.167,280.5 255.5,284.5C 249.187,290.478 242.854,296.478 236.5,302.5C 225.167,291.833 214.167,280.833 203.5,269.5C 214.167,258.167 225.167,247.167 236.5,236.5C 242.854,242.522 249.187,248.522 255.5,254.5 Z"/></g>
<g><path style="opacity:1" fill="#542665" d="M 293.5,274.5 C 293.833,274.5 294.167,274.5 294.5,274.5C 294.5,304.167 294.5,333.833 294.5,363.5C 289.305,363.821 284.305,363.487 279.5,362.5C 284.167,362.5 288.833,362.5 293.5,362.5C 293.5,333.167 293.5,303.833 293.5,274.5 Z"/></g>
<g><path style="opacity:1" fill="#4a1b79" d="M 293.5,274.5 C 293.5,303.833 293.5,333.167 293.5,362.5C 288.833,362.5 284.167,362.5 279.5,362.5C 279.5,333.833 279.5,305.167 279.5,276.5C 282.385,276.806 285.052,276.473 287.5,275.5C 289.5,275.167 291.5,274.833 293.5,274.5 Z"/></g>
</svg>
