<?xml version="1.0" encoding="UTF-8"?>
<!DOCTYPE svg PUBLIC "-//W3C//DTD SVG 1.1//EN" "http://www.w3.org/Graphics/SVG/1.1/DTD/svg11.dtd">
<svg xmlns="http://www.w3.org/2000/svg" version="1.1" width="512px" height="512px" style="shape-rendering:geometricPrecision; text-rendering:geometricPrecision; image-rendering:optimizeQuality; fill-rule:evenodd; clip-rule:evenodd" xmlns:xlink="http://www.w3.org/1999/xlink">
<g><path style="opacity:0.997" fill="#8e4dd4" d="M 232.5,-0.5 C 247.833,-0.5 263.167,-0.5 278.5,-0.5C 368.144,10.3879 435.644,54.7213 481,132.5C 497.695,163.971 507.861,197.304 511.5,232.5C 511.5,241.833 511.5,251.167 511.5,260.5C 470.035,219.535 428.701,178.368 387.5,137C 386.906,136.536 386.239,136.369 385.5,136.5C 370.178,116.518 349.845,108.018 324.5,111C 311.159,113.336 299.826,119.336 290.5,129C 294.369,133.037 298.369,136.87 302.5,140.5C 306.833,145.5 311.5,150.167 316.5,154.5C 298.674,155.497 280.674,155.83 262.5,155.5C 251.535,144.035 240.369,132.702 229,121.5C 228.5,132.828 228.333,144.162 228.5,155.5C 223.5,155.5 218.5,155.5 213.5,155.5C 195.833,155.5 178.167,155.5 160.5,155.5C 160.5,230.833 160.5,306.167 160.5,381.5C 160.5,382.167 160.833,382.5 161.5,382.5C 203.5,424.833 245.5,467.167 287.5,509.5C 284.5,510.167 281.5,510.833 278.5,511.5C 263.167,511.5 247.833,511.5 232.5,511.5C 142.856,500.612 75.3562,456.279 30,378.5C 13.3053,347.029 3.1386,313.696 -0.5,278.5C -0.5,263.167 -0.5,247.833 -0.5,232.5C 10.3875,142.857 54.7208,75.3573 132.5,30C 163.971,13.3053 197.304,3.1386 232.5,-0.5 Z"/></g>
<g><path style="opacity:1" fill="#fdd12c" d="M 385.5,136.5 C 400.917,159.734 401.417,183.401 387,207.5C 384.872,210.63 382.372,213.463 379.5,216C 374.512,213.195 370.178,209.362 366.5,204.5C 377.61,190.519 380.777,174.852 376,157.5C 364.931,134.353 346.764,125.519 321.5,131C 315.004,134.035 308.67,137.202 302.5,140.5C 298.369,136.87 294.369,133.037 290.5,129C 299.826,119.336 311.159,113.336 324.5,111C 349.845,108.018 370.178,116.518 385.5,136.5 Z"/></g>
<g><path style="opacity:1" fill="#613393" d="M 262.5,155.5 C 260.833,155.5 259.167,155.5 257.5,155.5C 247.833,155.5 238.167,155.5 228.5,155.5C 228.333,144.162 228.5,132.828 229,121.5C 240.369,132.702 251.535,144.035 262.5,155.5 Z"/></g>
<g><path style="opacity:1" fill="#fee16f" d="M 366.5,204.5 C 362.5,200.833 358.5,197.167 354.5,193.5C 341.806,180.473 329.139,167.473 316.5,154.5C 311.5,150.167 306.833,145.5 302.5,140.5C 308.67,137.202 315.004,134.035 321.5,131C 346.764,125.519 364.931,134.353 376,157.5C 380.777,174.852 377.61,190.519 366.5,204.5 Z"/></g>
<g><path style="opacity:1" fill="#613393" d="M 385.5,136.5 C 386.239,136.369 386.906,136.536 387.5,137C 428.701,178.368 470.035,219.535 511.5,260.5C 511.5,266.5 511.5,272.5 511.5,278.5C 500.612,368.144 456.279,435.644 378.5,481C 350.011,496.441 319.678,505.941 287.5,509.5C 245.5,467.167 203.5,424.833 161.5,382.5C 225.833,382.5 290.167,382.5 354.5,382.5C 354.5,319.5 354.5,256.5 354.5,193.5C 358.5,197.167 362.5,200.833 366.5,204.5C 370.178,209.362 374.512,213.195 379.5,216C 382.372,213.463 384.872,210.63 387,207.5C 401.417,183.401 400.917,159.734 385.5,136.5 Z"/></g>
<g><path style="opacity:1" fill="#fffefe" d="M 213.5,155.5 C 213.5,161.5 213.5,167.5 213.5,173.5C 203.5,173.5 193.5,173.5 183.5,173.5C 183.5,227.5 183.5,281.5 183.5,335.5C 207.994,336.498 232.661,336.831 257.5,336.5C 257.5,351.5 257.5,366.5 257.5,381.5C 225.167,381.5 192.833,381.5 160.5,381.5C 160.5,306.167 160.5,230.833 160.5,155.5C 178.167,155.5 195.833,155.5 213.5,155.5 Z"/></g>
<g><path style="opacity:1" fill="#633694" d="M 213.5,155.5 C 218.5,155.5 223.5,155.5 228.5,155.5C 228.5,161.5 228.5,167.5 228.5,173.5C 223.5,173.5 218.5,173.5 213.5,173.5C 213.5,167.5 213.5,161.5 213.5,155.5 Z"/></g>
<g><path style="opacity:1" fill="#fdfdfe" d="M 228.5,155.5 C 238.167,155.5 247.833,155.5 257.5,155.5C 257.5,161.5 257.5,167.5 257.5,173.5C 247.833,173.5 238.167,173.5 228.5,173.5C 228.5,167.5 228.5,161.5 228.5,155.5 Z"/></g>
<g><path style="opacity:1" fill="#d5e6f6" d="M 316.5,154.5 C 329.139,167.473 341.806,180.473 354.5,193.5C 354.5,256.5 354.5,319.5 354.5,382.5C 290.167,382.5 225.833,382.5 161.5,382.5C 160.833,382.5 160.5,382.167 160.5,381.5C 192.833,381.5 225.167,381.5 257.5,381.5C 257.5,366.5 257.5,351.5 257.5,336.5C 282.167,336.5 306.833,336.5 331.5,336.5C 331.5,282.167 331.5,227.833 331.5,173.5C 306.833,173.5 282.167,173.5 257.5,173.5C 257.5,167.5 257.5,161.5 257.5,155.5C 259.167,155.5 260.833,155.5 262.5,155.5C 280.674,155.83 298.674,155.497 316.5,154.5 Z"/></g>
<g><path style="opacity:1" fill="#fed328" d="M 213.5,173.5 C 213.5,193.5 213.5,213.5 213.5,233.5C 202.27,237.761 195.937,245.928 194.5,258C 195.283,270.931 201.616,279.764 213.5,284.5C 213.5,290.833 213.5,297.167 213.5,303.5C 218.695,303.821 223.695,303.487 228.5,302.5C 228.5,296.5 228.5,290.5 228.5,284.5C 235.624,282.376 240.958,278.043 244.5,271.5C 248.833,275.5 253.167,279.5 257.5,283.5C 257.5,300.833 257.5,318.167 257.5,335.5C 232.833,335.5 208.167,335.5 183.5,335.5C 183.5,281.5 183.5,227.5 183.5,173.5C 193.5,173.5 203.5,173.5 213.5,173.5 Z"/></g>
<g><path style="opacity:1" fill="#4e1e78" d="M 213.5,173.5 C 218.5,173.5 223.5,173.5 228.5,173.5C 228.5,193.5 228.5,213.5 228.5,233.5C 223.5,232.167 218.5,232.167 213.5,233.5C 213.5,213.5 213.5,193.5 213.5,173.5 Z"/></g>
<g><path style="opacity:1" fill="#fdd22a" d="M 228.5,173.5 C 238.167,173.5 247.833,173.5 257.5,173.5C 257.5,187.167 257.5,200.833 257.5,214.5C 250.113,221.891 242.446,228.891 234.5,235.5C 232.5,234.833 230.5,234.167 228.5,233.5C 228.5,213.5 228.5,193.5 228.5,173.5 Z"/></g>
<g><path style="opacity:1" fill="#feae3a" d="M 257.5,173.5 C 282.167,173.5 306.833,173.5 331.5,173.5C 331.5,227.833 331.5,282.167 331.5,336.5C 306.833,336.5 282.167,336.5 257.5,336.5C 232.661,336.831 207.994,336.498 183.5,335.5C 208.167,335.5 232.833,335.5 257.5,335.5C 257.5,318.167 257.5,300.833 257.5,283.5C 269.298,272.202 280.965,260.702 292.5,249C 289.5,246 286.5,243 283.5,240C 295.495,239.5 307.495,239.333 319.5,239.5C 319.5,222.833 319.5,206.167 319.5,189.5C 302.833,189.5 286.167,189.5 269.5,189.5C 269.667,201.505 269.5,213.505 269,225.5C 265.298,221.63 261.464,217.963 257.5,214.5C 257.5,200.833 257.5,187.167 257.5,173.5 Z"/></g>
<g><path style="opacity:1" fill="#ffd328" d="M 257.5,283.5 C 257.5,260.5 257.5,237.5 257.5,214.5C 261.464,217.963 265.298,221.63 269,225.5C 269.5,213.505 269.667,201.505 269.5,189.5C 286.167,189.5 302.833,189.5 319.5,189.5C 319.5,206.167 319.5,222.833 319.5,239.5C 307.495,239.333 295.495,239.5 283.5,240C 286.5,243 289.5,246 292.5,249C 280.965,260.702 269.298,272.202 257.5,283.5 Z"/></g>
<g><path style="opacity:1" fill="#ffe16c" d="M 194.5,191.5 C 205.045,191.521 207.711,196.021 202.5,205C 193.895,207.734 190.062,204.567 191,195.5C 192.376,194.295 193.542,192.962 194.5,191.5 Z"/></g>
<g><path style="opacity:1" fill="#fee06e" d="M 257.5,214.5 C 257.5,237.5 257.5,260.5 257.5,283.5C 253.167,279.5 248.833,275.5 244.5,271.5C 251.095,256.702 247.761,244.702 234.5,235.5C 242.446,228.891 250.113,221.891 257.5,214.5 Z"/></g>
<g><path style="opacity:1" fill="#e91f81" d="M 228.5,233.5 C 230.5,234.167 232.5,234.833 234.5,235.5C 247.761,244.702 251.095,256.702 244.5,271.5C 240.958,278.043 235.624,282.376 228.5,284.5C 223.802,285.778 219.135,285.778 214.5,284.5C 214.167,284.5 213.833,284.5 213.5,284.5C 201.616,279.764 195.283,270.931 194.5,258C 195.937,245.928 202.27,237.761 213.5,233.5C 218.5,232.167 223.5,232.167 228.5,233.5 Z"/></g>
<g><path style="opacity:1" fill="#ffd228" d="M 305.5,261.5 C 313.161,260.663 316.661,263.996 316,271.5C 312.455,277.209 308.121,277.875 303,273.5C 300.511,268.757 301.345,264.757 305.5,261.5 Z"/></g>
<g><path style="opacity:1" fill="#7b4d63" d="M 213.5,284.5 C 213.833,284.5 214.167,284.5 214.5,284.5C 214.5,290.5 214.5,296.5 214.5,302.5C 219.167,302.5 223.833,302.5 228.5,302.5C 223.695,303.487 218.695,303.821 213.5,303.5C 213.5,297.167 213.5,290.833 213.5,284.5 Z"/></g>
<g><path style="opacity:1" fill="#4b1b7a" d="M 214.5,284.5 C 219.135,285.778 223.802,285.778 228.5,284.5C 228.5,290.5 228.5,296.5 228.5,302.5C 223.833,302.5 219.167,302.5 214.5,302.5C 214.5,296.5 214.5,290.5 214.5,284.5 Z"/></g>
<g><path style="opacity:1" fill="#ffd228" d="M 277.5,299.5 C 288.045,299.521 290.711,304.021 285.5,313C 276.895,315.734 273.062,312.567 274,303.5C 274.69,301.65 275.856,300.316 277.5,299.5 Z"/></g>
</svg>
