<?xml version="1.0" encoding="UTF-8"?>
<!DOCTYPE svg PUBLIC "-//W3C//DTD SVG 1.1//EN" "http://www.w3.org/Graphics/SVG/1.1/DTD/svg11.dtd">
<svg xmlns="http://www.w3.org/2000/svg" version="1.1" width="512px" height="512px" style="shape-rendering:geometricPrecision; text-rendering:geometricPrecision; image-rendering:optimizeQuality; fill-rule:evenodd; clip-rule:evenodd" xmlns:xlink="http://www.w3.org/1999/xlink">
<g><path style="opacity:0.996" fill="#1dd781" d="M 232.5,-0.5 C 247.833,-0.5 263.167,-0.5 278.5,-0.5C 368.144,10.3879 435.644,54.7213 481,132.5C 497.695,163.971 507.861,197.304 511.5,232.5C 511.5,247.833 511.5,263.167 511.5,278.5C 509.233,298.825 504.9,318.825 498.5,338.5C 459.856,301.523 421.856,263.856 384.5,225.5C 373.833,225.5 363.167,225.5 352.5,225.5C 337.5,225.5 322.5,225.5 307.5,225.5C 288.783,205.782 269.449,186.782 249.5,168.5C 245.511,162.845 240.844,157.845 235.5,153.5C 209.777,126.777 183.444,100.777 156.5,75.5C 155.173,74.1999 153.84,72.8665 152.5,71.5C 146.766,74.3577 141.433,77.6911 136.5,81.5C 130.395,84.0538 124.728,87.3872 119.5,91.5C 129.356,109.227 139.689,126.561 150.5,143.5C 154.306,151.108 158.64,158.441 163.5,165.5C 150.411,184.67 149.078,204.67 159.5,225.5C 157.5,225.5 155.5,225.5 153.5,225.5C 162.167,297.505 170.834,369.505 179.5,441.5C 203.19,464.19 226.19,487.523 248.5,511.5C 243.167,511.5 237.833,511.5 232.5,511.5C 142.856,500.612 75.3562,456.279 30,378.5C 13.3053,347.029 3.1386,313.696 -0.5,278.5C -0.5,263.167 -0.5,247.833 -0.5,232.5C 10.3875,142.857 54.7208,75.3573 132.5,30C 163.971,13.3053 197.304,3.1386 232.5,-0.5 Z"/></g>
<g><path style="opacity:1" fill="#333a40" d="M 156.5,75.5 C 165.317,91.8006 174.65,107.801 184.5,123.5C 178.669,126.581 173.002,129.915 167.5,133.5C 167.167,133.5 166.833,133.5 166.5,133.5C 156.5,116.167 146.5,98.8333 136.5,81.5C 141.433,77.6911 146.766,74.3577 152.5,71.5C 153.84,72.8665 155.173,74.1999 156.5,75.5 Z"/></g>
<g><path style="opacity:1" fill="#27b972" d="M 156.5,75.5 C 183.444,100.777 209.777,126.777 235.5,153.5C 223.94,146.485 211.44,143.819 198,145.5C 192.748,138.669 188.248,131.336 184.5,123.5C 174.65,107.801 165.317,91.8006 156.5,75.5 Z"/></g>
<g><path style="opacity:1" fill="#555a65" d="M 136.5,81.5 C 146.5,98.8333 156.5,116.167 166.5,133.5C 161.167,136.833 155.833,140.167 150.5,143.5C 139.689,126.561 129.356,109.227 119.5,91.5C 124.728,87.3872 130.395,84.0538 136.5,81.5 Z"/></g>
<g><path style="opacity:1" fill="#f82915" d="M 184.5,123.5 C 188.248,131.336 192.748,138.669 198,145.5C 211.44,143.819 223.94,146.485 235.5,153.5C 240.844,157.845 245.511,162.845 249.5,168.5C 261.085,187.335 272.418,206.335 283.5,225.5C 283.167,225.5 282.833,225.5 282.5,225.5C 275.833,225.5 269.167,225.5 262.5,225.5C 256.86,216.184 251.194,206.851 245.5,197.5C 235.275,203.776 224.942,209.776 214.5,215.5C 197.998,188.66 182.331,161.327 167.5,133.5C 173.002,129.915 178.669,126.581 184.5,123.5 Z"/></g>
<g><path style="opacity:1" fill="#fe583e" d="M 166.5,133.5 C 166.833,133.5 167.167,133.5 167.5,133.5C 182.331,161.327 197.998,188.66 214.5,215.5C 209.5,218.833 204.5,222.167 199.5,225.5C 186.167,225.5 172.833,225.5 159.5,225.5C 149.078,204.67 150.411,184.67 163.5,165.5C 158.64,158.441 154.306,151.108 150.5,143.5C 155.833,140.167 161.167,136.833 166.5,133.5 Z"/></g>
<g><path style="opacity:1" fill="#2ab972" d="M 249.5,168.5 C 269.449,186.782 288.783,205.782 307.5,225.5C 299.5,225.5 291.5,225.5 283.5,225.5C 272.418,206.335 261.085,187.335 249.5,168.5 Z"/></g>
<g><path style="opacity:1" fill="#ebedf3" d="M 262.5,225.5 C 260.167,225.5 257.833,225.5 255.5,225.5C 236.833,225.5 218.167,225.5 199.5,225.5C 204.5,222.167 209.5,218.833 214.5,215.5C 224.942,209.776 235.275,203.776 245.5,197.5C 251.194,206.851 256.86,216.184 262.5,225.5 Z"/></g>
<g><path style="opacity:1" fill="#555a66" d="M 159.5,225.5 C 172.833,225.5 186.167,225.5 199.5,225.5C 218.167,225.5 236.833,225.5 255.5,225.5C 255.5,297.5 255.5,369.5 255.5,441.5C 230.167,441.5 204.833,441.5 179.5,441.5C 170.834,369.505 162.167,297.505 153.5,225.5C 155.5,225.5 157.5,225.5 159.5,225.5 Z"/></g>
<g><path style="opacity:1" fill="#333940" d="M 255.5,225.5 C 257.833,225.5 260.167,225.5 262.5,225.5C 269.167,225.5 275.833,225.5 282.5,225.5C 282.5,272.833 282.5,320.167 282.5,367.5C 305.833,367.5 329.167,367.5 352.5,367.5C 352.5,320.167 352.5,272.833 352.5,225.5C 363.167,225.5 373.833,225.5 384.5,225.5C 375.838,297.466 367.504,369.466 359.5,441.5C 324.833,441.5 290.167,441.5 255.5,441.5C 255.5,369.5 255.5,297.5 255.5,225.5 Z"/></g>
<g><path style="opacity:1" fill="#fefefe" d="M 282.5,225.5 C 282.833,225.5 283.167,225.5 283.5,225.5C 291.5,225.5 299.5,225.5 307.5,225.5C 322.5,225.5 337.5,225.5 352.5,225.5C 352.5,272.833 352.5,320.167 352.5,367.5C 329.167,367.5 305.833,367.5 282.5,367.5C 282.5,320.167 282.5,272.833 282.5,225.5 Z"/></g>
<g><path style="opacity:1" fill="#25b972" d="M 384.5,225.5 C 421.856,263.856 459.856,301.523 498.5,338.5C 465.318,426.847 402.985,482.681 311.5,506C 300.424,508.254 289.424,510.087 278.5,511.5C 268.5,511.5 258.5,511.5 248.5,511.5C 226.19,487.523 203.19,464.19 179.5,441.5C 204.833,441.5 230.167,441.5 255.5,441.5C 290.167,441.5 324.833,441.5 359.5,441.5C 367.504,369.466 375.838,297.466 384.5,225.5 Z"/></g>
</svg>
