<?xml version="1.0" encoding="UTF-8"?>
<!DOCTYPE svg PUBLIC "-//W3C//DTD SVG 1.1//EN" "http://www.w3.org/Graphics/SVG/1.1/DTD/svg11.dtd">
<svg xmlns="http://www.w3.org/2000/svg" version="1.1" width="512px" height="512px" style="shape-rendering:geometricPrecision; text-rendering:geometricPrecision; image-rendering:optimizeQuality; fill-rule:evenodd; clip-rule:evenodd" xmlns:xlink="http://www.w3.org/1999/xlink">
<g><path style="opacity:0.998" fill="#9ad963" d="M 232.5,-0.5 C 247.833,-0.5 263.167,-0.5 278.5,-0.5C 368.144,10.3879 435.644,54.7213 481,132.5C 497.695,163.971 507.861,197.304 511.5,232.5C 511.5,247.833 511.5,263.167 511.5,278.5C 509.627,296.197 505.96,313.53 500.5,330.5C 440.5,270.833 380.5,211.167 320.5,151.5C 301.833,151.5 283.167,151.5 264.5,151.5C 253.167,139.5 241.5,127.833 229.5,116.5C 208.702,95.2014 187.702,74.0347 166.5,53C 165.833,52.3333 165.167,52.3333 164.5,53C 161.333,56.1667 158.167,59.3333 155,62.5C 154.333,63.5 154.333,64.5 155,65.5C 174,84.5 193,103.5 212,122.5C 212.5,132.161 212.666,141.828 212.5,151.5C 204.5,151.5 196.5,151.5 188.5,151.5C 192.891,162.121 195.891,173.121 197.5,184.5C 200.423,202.29 199.589,219.957 195,237.5C 191.025,250.065 187.358,262.732 184,275.5C 179.732,298.358 185.399,318.358 201,335.5C 206.028,339.699 210.861,344.032 215.5,348.5C 222.819,357.499 231.153,366.166 240.5,374.5C 245.171,397.537 244.171,420.371 237.5,443C 228.805,449.345 219.805,455.178 210.5,460.5C 227.167,477.5 243.833,494.5 260.5,511.5C 251.167,511.5 241.833,511.5 232.5,511.5C 142.856,500.612 75.3562,456.279 30,378.5C 13.3053,347.029 3.1386,313.696 -0.5,278.5C -0.5,263.167 -0.5,247.833 -0.5,232.5C 10.3875,142.857 54.7208,75.3573 132.5,30C 163.971,13.3053 197.304,3.1386 232.5,-0.5 Z"/></g>
<g><path style="opacity:1" fill="#f88427" d="M 229.5,116.5 C 229.5,128.167 229.5,139.833 229.5,151.5C 223.833,151.5 218.167,151.5 212.5,151.5C 212.666,141.828 212.5,132.161 212,122.5C 193,103.5 174,84.5 155,65.5C 154.333,64.5 154.333,63.5 155,62.5C 158.167,59.3333 161.333,56.1667 164.5,53C 165.167,52.3333 165.833,52.3333 166.5,53C 187.702,74.0347 208.702,95.2014 229.5,116.5 Z"/></g>
<g><path style="opacity:1" fill="#6bbf48" d="M 229.5,116.5 C 241.5,127.833 253.167,139.5 264.5,151.5C 252.833,151.5 241.167,151.5 229.5,151.5C 229.5,139.833 229.5,128.167 229.5,116.5 Z"/></g>
<g><path style="opacity:1" fill="#8cc7f9" d="M 212.5,151.5 C 212.5,160.167 212.5,168.833 212.5,177.5C 206.859,178.487 201.859,180.821 197.5,184.5C 195.891,173.121 192.891,162.121 188.5,151.5C 196.5,151.5 204.5,151.5 212.5,151.5 Z"/></g>
<g><path style="opacity:1" fill="#f55f27" d="M 212.5,151.5 C 218.167,151.5 223.833,151.5 229.5,151.5C 229.5,160.833 229.5,170.167 229.5,179.5C 223.989,177.79 218.323,177.123 212.5,177.5C 212.5,168.833 212.5,160.167 212.5,151.5 Z"/></g>
<g><path style="opacity:1" fill="#8bc6f8" d="M 229.5,151.5 C 241.167,151.5 252.833,151.5 264.5,151.5C 283.167,151.5 301.833,151.5 320.5,151.5C 320.5,151.833 320.5,152.167 320.5,152.5C 298.833,152.5 277.167,152.5 255.5,152.5C 254.582,164.803 254.248,177.136 254.5,189.5C 256.5,189.5 258.5,189.5 260.5,189.5C 259.081,190.451 257.415,190.784 255.5,190.5C 251.727,190.737 248.06,190.237 244.5,189C 239.349,186.004 234.349,182.838 229.5,179.5C 229.5,170.167 229.5,160.833 229.5,151.5 Z"/></g>
<g><path style="opacity:1" fill="#6db1f7" d="M 320.5,152.5 C 316.084,162.415 313.084,172.748 311.5,183.5C 307.296,181.489 302.963,179.656 298.5,178C 293.167,177.333 287.833,177.333 282.5,178C 277.565,180.606 272.898,183.606 268.5,187C 265.978,188.341 263.311,189.174 260.5,189.5C 258.5,189.5 256.5,189.5 254.5,189.5C 254.248,177.136 254.582,164.803 255.5,152.5C 277.167,152.5 298.833,152.5 320.5,152.5 Z"/></g>
<g><path style="opacity:1" fill="#6abf48" d="M 320.5,151.5 C 380.5,211.167 440.5,270.833 500.5,330.5C 476.289,405.883 427.956,459.716 355.5,492C 330.621,502.136 304.954,508.636 278.5,511.5C 272.5,511.5 266.5,511.5 260.5,511.5C 243.833,494.5 227.167,477.5 210.5,460.5C 225.5,460.5 240.5,460.5 255.5,460.5C 269.837,460.667 284.171,460.5 298.5,460C 289.416,454.374 280.25,448.874 271,443.5C 263.835,417.202 263.668,390.869 270.5,364.5C 271.404,363.791 271.737,362.791 271.5,361.5C 290.138,353.032 305.305,340.365 317,323.5C 325.61,308.841 328.277,293.174 325,276.5C 321.205,262.114 317.205,247.78 313,233.5C 309.129,216.892 308.629,200.226 311.5,183.5C 313.084,172.748 316.084,162.415 320.5,152.5C 320.5,152.167 320.5,151.833 320.5,151.5 Z"/></g>
<g><path style="opacity:1" fill="#fdf6ce" d="M 212.5,177.5 C 218.323,177.123 223.989,177.79 229.5,179.5C 234.349,182.838 239.349,186.004 244.5,189C 248.06,190.237 251.727,190.737 255.5,190.5C 254.167,247.5 254.167,304.5 255.5,361.5C 249.5,361.5 243.5,361.5 237.5,361.5C 229.865,357.682 222.531,353.349 215.5,348.5C 210.861,344.032 206.028,339.699 201,335.5C 185.399,318.358 179.732,298.358 184,275.5C 187.358,262.732 191.025,250.065 195,237.5C 199.589,219.957 200.423,202.29 197.5,184.5C 201.859,180.821 206.859,178.487 212.5,177.5 Z"/></g>
<g><path style="opacity:1" fill="#fde5b6" d="M 311.5,183.5 C 308.629,200.226 309.129,216.892 313,233.5C 317.205,247.78 321.205,262.114 325,276.5C 328.277,293.174 325.61,308.841 317,323.5C 305.305,340.365 290.138,353.032 271.5,361.5C 266.167,361.5 260.833,361.5 255.5,361.5C 254.167,304.5 254.167,247.5 255.5,190.5C 257.415,190.784 259.081,190.451 260.5,189.5C 263.311,189.174 265.978,188.341 268.5,187C 272.898,183.606 277.565,180.606 282.5,178C 287.833,177.333 293.167,177.333 298.5,178C 302.963,179.656 307.296,181.489 311.5,183.5 Z"/></g>
<g><path style="opacity:1" fill="#ffac12" d="M 270.5,231.5 C 275.833,231.5 281.167,231.5 286.5,231.5C 286.5,236.5 286.5,241.5 286.5,246.5C 291.167,246.5 295.833,246.5 300.5,246.5C 300.5,251.5 300.5,256.5 300.5,261.5C 295.5,261.5 290.5,261.5 285.5,261.5C 285.5,256.5 285.5,251.5 285.5,246.5C 280.5,246.5 275.5,246.5 270.5,246.5C 270.5,241.5 270.5,236.5 270.5,231.5 Z"/></g>
<g><path style="opacity:1" fill="#f9ce23" d="M 207.5,277.5 C 212.833,277.5 218.167,277.5 223.5,277.5C 223.5,282.5 223.5,287.5 223.5,292.5C 218.167,292.5 212.833,292.5 207.5,292.5C 207.5,287.5 207.5,282.5 207.5,277.5 Z"/></g>
<g><path style="opacity:1" fill="#71c250" d="M 215.5,348.5 C 222.531,353.349 229.865,357.682 237.5,361.5C 237.328,362.492 237.662,363.158 238.5,363.5C 239.326,367.136 239.992,370.803 240.5,374.5C 231.153,366.166 222.819,357.499 215.5,348.5 Z"/></g>
<g><path style="opacity:1" fill="#c8d7cd" d="M 237.5,361.5 C 243.5,361.5 249.5,361.5 255.5,361.5C 260.833,361.5 266.167,361.5 271.5,361.5C 271.737,362.791 271.404,363.791 270.5,364.5C 265.604,362.554 260.271,361.887 254.5,362.5C 248.974,362.179 243.64,362.512 238.5,363.5C 237.662,363.158 237.328,362.492 237.5,361.5 Z"/></g>
<g><path style="opacity:1" fill="#8cc7fb" d="M 254.5,362.5 C 254.21,395.184 254.544,427.851 255.5,460.5C 240.5,460.5 225.5,460.5 210.5,460.5C 219.805,455.178 228.805,449.345 237.5,443C 244.171,420.371 245.171,397.537 240.5,374.5C 239.992,370.803 239.326,367.136 238.5,363.5C 243.64,362.512 248.974,362.179 254.5,362.5 Z"/></g>
<g><path style="opacity:1" fill="#6cb1f7" d="M 254.5,362.5 C 260.271,361.887 265.604,362.554 270.5,364.5C 263.668,390.869 263.835,417.202 271,443.5C 280.25,448.874 289.416,454.374 298.5,460C 284.171,460.5 269.837,460.667 255.5,460.5C 254.544,427.851 254.21,395.184 254.5,362.5 Z"/></g>
</svg>
