<?xml version="1.0" encoding="UTF-8"?>
<!DOCTYPE svg PUBLIC "-//W3C//DTD SVG 1.1//EN" "http://www.w3.org/Graphics/SVG/1.1/DTD/svg11.dtd">
<svg xmlns="http://www.w3.org/2000/svg" version="1.1" width="512px" height="512px" style="shape-rendering:geometricPrecision; text-rendering:geometricPrecision; image-rendering:optimizeQuality; fill-rule:evenodd; clip-rule:evenodd" xmlns:xlink="http://www.w3.org/1999/xlink">
<g><path style="opacity:0.989" fill="#b15f4b" d="M 233.5,-0.5 C 248.167,-0.5 262.833,-0.5 277.5,-0.5C 377.805,11.9821 449.305,63.9821 492,155.5C 501.932,179.228 508.099,203.895 510.5,229.5C 455.5,174.833 400.5,120.167 345.5,65.5C 324.34,64.5027 303.007,64.1694 281.5,64.5C 281.5,72.8333 281.5,81.1667 281.5,89.5C 281.5,107.833 281.5,126.167 281.5,144.5C 281.167,144.5 280.833,144.5 280.5,144.5C 280.666,134.494 280.5,124.494 280,114.5C 263.667,98.1667 247.333,81.8333 231,65.5C 230.5,91.8312 230.333,118.165 230.5,144.5C 230.167,144.5 229.833,144.5 229.5,144.5C 229.5,126.167 229.5,107.833 229.5,89.5C 229.5,81.1667 229.5,72.8333 229.5,64.5C 208.167,64.5 186.833,64.5 165.5,64.5C 165.5,72.8333 165.5,81.1667 165.5,89.5C 165.5,107.833 165.5,126.167 165.5,144.5C 148.167,144.5 130.833,144.5 113.5,144.5C 113.5,153.5 113.5,162.5 113.5,171.5C 113.5,189.5 113.5,207.5 113.5,225.5C 95.5,225.5 77.5,225.5 59.5,225.5C 59.5,245.5 59.5,265.5 59.5,285.5C 67.1667,285.5 74.8333,285.5 82.5,285.5C 82.5,285.833 82.5,286.167 82.5,286.5C 75.1591,286.334 67.8258,286.5 60.5,287C 67.7018,294.369 75.0351,301.536 82.5,308.5C 82.5,343.833 82.5,379.167 82.5,414.5C 99.5,414.5 116.5,414.5 133.5,414.5C 117.005,415.332 100.338,415.832 83.5,416C 109.368,441.701 135.035,467.535 160.5,493.5C 103.467,470.64 59.9667,432.306 30,378.5C 13.1449,346.722 2.97822,313.055 -0.5,277.5C -0.5,262.833 -0.5,248.167 -0.5,233.5C 11.9821,133.195 63.9821,61.6947 155.5,19C 180.687,8.70332 206.687,2.20332 233.5,-0.5 Z"/></g>
<g><path style="opacity:1" fill="#fefefd" d="M 229.5,89.5 C 208.5,89.5 187.5,89.5 166.5,89.5C 166.167,89.5 165.833,89.5 165.5,89.5C 165.5,81.1667 165.5,72.8333 165.5,64.5C 186.833,64.5 208.167,64.5 229.5,64.5C 229.5,72.8333 229.5,81.1667 229.5,89.5 Z"/></g>
<g><path style="opacity:1" fill="#dce0ea" d="M 345.5,65.5 C 345.5,73.5 345.5,81.5 345.5,89.5C 345.167,89.5 344.833,89.5 344.5,89.5C 323.5,89.5 302.5,89.5 281.5,89.5C 281.5,81.1667 281.5,72.8333 281.5,64.5C 303.007,64.1694 324.34,64.5027 345.5,65.5 Z"/></g>
<g><path style="opacity:1" fill="#985040" d="M 345.5,65.5 C 400.5,120.167 455.5,174.833 510.5,229.5C 510.232,231.099 510.566,232.432 511.5,233.5C 511.5,248.167 511.5,262.833 511.5,277.5C 499.018,377.805 447.018,449.305 355.5,492C 330.313,502.297 304.313,508.797 277.5,511.5C 262.5,511.5 247.5,511.5 232.5,511.5C 207.66,508.931 183.66,502.931 160.5,493.5C 135.035,467.535 109.368,441.701 83.5,416C 100.338,415.832 117.005,415.332 133.5,414.5C 133.5,371.833 133.5,329.167 133.5,286.5C 214.833,286.5 296.167,286.5 377.5,286.5C 377.5,329.167 377.5,371.833 377.5,414.5C 394.5,414.5 411.5,414.5 428.5,414.5C 428.5,371.833 428.5,329.167 428.5,286.5C 436.352,286.825 444.018,286.492 451.5,285.5C 451.5,265.5 451.5,245.5 451.5,225.5C 433.5,225.5 415.5,225.5 397.5,225.5C 397.5,207.5 397.5,189.5 397.5,171.5C 397.5,162.5 397.5,153.5 397.5,144.5C 380.167,144.5 362.833,144.5 345.5,144.5C 345.5,126.167 345.5,107.833 345.5,89.5C 345.5,81.5 345.5,73.5 345.5,65.5 Z"/></g>
<g><path style="opacity:1" fill="#985040" d="M 280.5,144.5 C 263.833,144.5 247.167,144.5 230.5,144.5C 230.333,118.165 230.5,91.8312 231,65.5C 247.333,81.8333 263.667,98.1667 280,114.5C 280.5,124.494 280.666,134.494 280.5,144.5 Z"/></g>
<g><path style="opacity:1" fill="#e6b618" d="M 165.5,89.5 C 165.833,89.5 166.167,89.5 166.5,89.5C 166.5,107.833 166.5,126.167 166.5,144.5C 185.674,144.17 204.674,144.503 223.5,145.5C 208.5,145.5 193.5,145.5 178.5,145.5C 178.167,145.5 177.833,145.5 177.5,145.5C 173.5,145.5 169.5,145.5 165.5,145.5C 165.5,145.167 165.5,144.833 165.5,144.5C 165.5,126.167 165.5,107.833 165.5,89.5 Z"/></g>
<g><path style="opacity:1" fill="#feda00" d="M 166.5,89.5 C 187.5,89.5 208.5,89.5 229.5,89.5C 229.5,107.833 229.5,126.167 229.5,144.5C 227.735,145.461 225.735,145.795 223.5,145.5C 204.674,144.503 185.674,144.17 166.5,144.5C 166.5,126.167 166.5,107.833 166.5,89.5 Z"/></g>
<g><path style="opacity:1" fill="#fec200" d="M 281.5,89.5 C 302.5,89.5 323.5,89.5 344.5,89.5C 344.5,107.833 344.5,126.167 344.5,144.5C 325.326,144.17 306.326,144.503 287.5,145.5C 285.5,145.5 283.5,145.5 281.5,145.5C 281.5,145.167 281.5,144.833 281.5,144.5C 281.5,126.167 281.5,107.833 281.5,89.5 Z"/></g>
<g><path style="opacity:1" fill="#e1a216" d="M 344.5,89.5 C 344.833,89.5 345.167,89.5 345.5,89.5C 345.5,107.833 345.5,126.167 345.5,144.5C 345.5,144.833 345.5,145.167 345.5,145.5C 341.5,145.5 337.5,145.5 333.5,145.5C 333.167,145.5 332.833,145.5 332.5,145.5C 317.5,145.5 302.5,145.5 287.5,145.5C 306.326,144.503 325.326,144.17 344.5,144.5C 344.5,126.167 344.5,107.833 344.5,89.5 Z"/></g>
<g><path style="opacity:1" fill="#985040" d="M 178.5,145.5 C 193.5,145.5 208.5,145.5 223.5,145.5C 223.5,154.167 223.5,162.833 223.5,171.5C 223.5,189.5 223.5,207.5 223.5,225.5C 208.5,225.5 193.5,225.5 178.5,225.5C 178.5,198.833 178.5,172.167 178.5,145.5 Z"/></g>
<g><path style="opacity:1" fill="#fdfcf9" d="M 229.5,144.5 C 229.833,144.5 230.167,144.5 230.5,144.5C 247.167,144.5 263.833,144.5 280.5,144.5C 280.833,144.5 281.167,144.5 281.5,144.5C 281.5,144.833 281.5,145.167 281.5,145.5C 272.833,145.5 264.167,145.5 255.5,145.5C 255.5,154.167 255.5,162.833 255.5,171.5C 244.833,171.5 234.167,171.5 223.5,171.5C 223.5,162.833 223.5,154.167 223.5,145.5C 225.735,145.795 227.735,145.461 229.5,144.5 Z"/></g>
<g><path style="opacity:1" fill="#dce1ea" d="M 281.5,145.5 C 283.5,145.5 285.5,145.5 287.5,145.5C 287.5,154.167 287.5,162.833 287.5,171.5C 276.833,171.5 266.167,171.5 255.5,171.5C 255.5,162.833 255.5,154.167 255.5,145.5C 264.167,145.5 272.833,145.5 281.5,145.5 Z"/></g>
<g><path style="opacity:1" fill="#985040" d="M 287.5,145.5 C 302.5,145.5 317.5,145.5 332.5,145.5C 332.5,154.167 332.5,162.833 332.5,171.5C 332.5,189.5 332.5,207.5 332.5,225.5C 317.5,225.5 302.5,225.5 287.5,225.5C 287.5,207.5 287.5,189.5 287.5,171.5C 287.5,162.833 287.5,154.167 287.5,145.5 Z"/></g>
<g><path style="opacity:1" fill="#eaca83" d="M 165.5,144.5 C 165.5,144.833 165.5,145.167 165.5,145.5C 148.5,145.5 131.5,145.5 114.5,145.5C 114.5,153.833 114.5,162.167 114.5,170.5C 135.5,170.5 156.5,170.5 177.5,170.5C 177.5,162.167 177.5,153.833 177.5,145.5C 177.833,145.5 178.167,145.5 178.5,145.5C 178.5,172.167 178.5,198.833 178.5,225.5C 178.167,225.5 177.833,225.5 177.5,225.5C 177.5,207.5 177.5,189.5 177.5,171.5C 156.167,171.5 134.833,171.5 113.5,171.5C 113.5,162.5 113.5,153.5 113.5,144.5C 130.833,144.5 148.167,144.5 165.5,144.5 Z"/></g>
<g><path style="opacity:1" fill="#fefffe" d="M 165.5,145.5 C 169.5,145.5 173.5,145.5 177.5,145.5C 177.5,153.833 177.5,162.167 177.5,170.5C 156.5,170.5 135.5,170.5 114.5,170.5C 114.5,162.167 114.5,153.833 114.5,145.5C 131.5,145.5 148.5,145.5 165.5,145.5 Z"/></g>
<g><path style="opacity:1" fill="#dbc08d" d="M 345.5,145.5 C 345.5,145.167 345.5,144.833 345.5,144.5C 362.833,144.5 380.167,144.5 397.5,144.5C 397.5,153.5 397.5,162.5 397.5,171.5C 375.833,171.5 354.167,171.5 332.5,171.5C 332.5,162.833 332.5,154.167 332.5,145.5C 332.833,145.5 333.167,145.5 333.5,145.5C 333.5,153.833 333.5,162.167 333.5,170.5C 354.5,170.5 375.5,170.5 396.5,170.5C 396.5,162.167 396.5,153.833 396.5,145.5C 379.5,145.5 362.5,145.5 345.5,145.5 Z"/></g>
<g><path style="opacity:1" fill="#dbe1ea" d="M 333.5,145.5 C 337.5,145.5 341.5,145.5 345.5,145.5C 362.5,145.5 379.5,145.5 396.5,145.5C 396.5,153.833 396.5,162.167 396.5,170.5C 375.5,170.5 354.5,170.5 333.5,170.5C 333.5,162.167 333.5,153.833 333.5,145.5 Z"/></g>
<g><path style="opacity:1" fill="#fed900" d="M 113.5,171.5 C 134.833,171.5 156.167,171.5 177.5,171.5C 177.5,189.5 177.5,207.5 177.5,225.5C 156.167,225.5 134.833,225.5 113.5,225.5C 113.5,207.5 113.5,189.5 113.5,171.5 Z"/></g>
<g><path style="opacity:1" fill="#ffd900" d="M 223.5,171.5 C 234.167,171.5 244.833,171.5 255.5,171.5C 255.5,189.5 255.5,207.5 255.5,225.5C 244.833,225.5 234.167,225.5 223.5,225.5C 223.5,207.5 223.5,189.5 223.5,171.5 Z"/></g>
<g><path style="opacity:1" fill="#fec105" d="M 255.5,171.5 C 266.167,171.5 276.833,171.5 287.5,171.5C 287.5,189.5 287.5,207.5 287.5,225.5C 277.013,226.494 266.346,226.828 255.5,226.5C 244.654,226.828 233.987,226.494 223.5,225.5C 234.167,225.5 244.833,225.5 255.5,225.5C 255.5,207.5 255.5,189.5 255.5,171.5 Z"/></g>
<g><path style="opacity:1" fill="#fdc001" d="M 332.5,171.5 C 354.167,171.5 375.833,171.5 397.5,171.5C 397.5,189.5 397.5,207.5 397.5,225.5C 375.833,225.5 354.167,225.5 332.5,225.5C 332.5,207.5 332.5,189.5 332.5,171.5 Z"/></g>
<g><path style="opacity:1" fill="#e2b69c" d="M 113.5,225.5 C 134.833,225.5 156.167,225.5 177.5,225.5C 177.833,225.5 178.167,225.5 178.5,225.5C 193.5,225.5 208.5,225.5 223.5,225.5C 233.987,226.494 244.654,226.828 255.5,226.5C 255.5,246.167 255.5,265.833 255.5,285.5C 214.833,285.5 174.167,285.5 133.5,285.5C 116.5,285.5 99.5,285.5 82.5,285.5C 74.8333,285.5 67.1667,285.5 59.5,285.5C 59.5,265.5 59.5,245.5 59.5,225.5C 77.5,225.5 95.5,225.5 113.5,225.5 Z"/></g>
<g><path style="opacity:1" fill="#cfa287" d="M 287.5,225.5 C 302.5,225.5 317.5,225.5 332.5,225.5C 354.167,225.5 375.833,225.5 397.5,225.5C 415.5,225.5 433.5,225.5 451.5,225.5C 451.5,245.5 451.5,265.5 451.5,285.5C 386.167,285.5 320.833,285.5 255.5,285.5C 255.5,265.833 255.5,246.167 255.5,226.5C 266.346,226.828 277.013,226.494 287.5,225.5 Z"/></g>
<g><path style="opacity:1" fill="#985040" d="M 82.5,286.5 C 82.5,293.833 82.5,301.167 82.5,308.5C 75.0351,301.536 67.7018,294.369 60.5,287C 67.8258,286.5 75.1591,286.334 82.5,286.5 Z"/></g>
<g><path style="opacity:1" fill="#cfa287" d="M 82.5,285.5 C 99.5,285.5 116.5,285.5 133.5,285.5C 133.5,285.833 133.5,286.167 133.5,286.5C 133.5,329.167 133.5,371.833 133.5,414.5C 116.5,414.5 99.5,414.5 82.5,414.5C 82.5,379.167 82.5,343.833 82.5,308.5C 82.5,301.167 82.5,293.833 82.5,286.5C 82.5,286.167 82.5,285.833 82.5,285.5 Z"/></g>
<g><path style="opacity:1" fill="#be9379" d="M 133.5,286.5 C 133.5,286.167 133.5,285.833 133.5,285.5C 174.167,285.5 214.833,285.5 255.5,285.5C 320.833,285.5 386.167,285.5 451.5,285.5C 444.018,286.492 436.352,286.825 428.5,286.5C 428.5,329.167 428.5,371.833 428.5,414.5C 411.5,414.5 394.5,414.5 377.5,414.5C 377.5,371.833 377.5,329.167 377.5,286.5C 296.167,286.5 214.833,286.5 133.5,286.5 Z"/></g>
</svg>
