<?xml version="1.0" encoding="UTF-8"?>
<!DOCTYPE svg PUBLIC "-//W3C//DTD SVG 1.1//EN" "http://www.w3.org/Graphics/SVG/1.1/DTD/svg11.dtd">
<svg xmlns="http://www.w3.org/2000/svg" version="1.1" width="512px" height="512px" style="shape-rendering:geometricPrecision; text-rendering:geometricPrecision; image-rendering:optimizeQuality; fill-rule:evenodd; clip-rule:evenodd" xmlns:xlink="http://www.w3.org/1999/xlink">
<g><path style="opacity:0.997" fill="#8e4dd4" d="M 232.5,-0.5 C 247.833,-0.5 263.167,-0.5 278.5,-0.5C 368.144,10.3879 435.644,54.7213 481,132.5C 496.441,160.989 505.941,191.322 509.5,223.5C 469.833,184.167 430.167,144.833 390.5,105.5C 390.5,104.833 390.167,104.5 389.5,104.5C 363.498,104.333 337.498,104.5 311.5,105C 307.289,118.344 303.622,131.844 300.5,145.5C 299.833,145.5 299.5,145.833 299.5,146.5C 286.496,146.667 273.496,146.5 260.5,146C 251.27,136.938 242.27,127.772 233.5,118.5C 214.707,119.553 201.373,128.553 193.5,145.5C 192.833,145.5 192.5,145.833 192.5,146.5C 186.5,146.5 180.5,146.5 174.5,146.5C 174.168,184.004 174.502,221.337 175.5,258.5C 178.013,282.539 189.013,301.539 208.5,315.5C 219.077,327.58 230.244,339.247 242,350.5C 242.5,358.159 242.666,365.826 242.5,373.5C 220.854,377.665 203.187,388.498 189.5,406C 189.728,406.399 190.062,406.565 190.5,406.5C 223.965,440.465 257.632,474.299 291.5,508C 292.793,508.49 294.127,508.657 295.5,508.5C 289.844,509.573 284.177,510.573 278.5,511.5C 263.167,511.5 247.833,511.5 232.5,511.5C 142.856,500.612 75.3562,456.279 30,378.5C 13.3053,347.029 3.1386,313.696 -0.5,278.5C -0.5,263.167 -0.5,247.833 -0.5,232.5C 10.3875,142.857 54.7208,75.3573 132.5,30C 163.971,13.3053 197.304,3.1386 232.5,-0.5 Z"/></g>
<g><path style="opacity:1" fill="#b4e24f" d="M 389.5,104.5 C 389.5,109.5 389.5,114.5 389.5,119.5C 367.327,119.169 345.327,119.503 323.5,120.5C 320.97,128.761 318.636,137.094 316.5,145.5C 311.067,146.802 305.734,146.802 300.5,145.5C 303.622,131.844 307.289,118.344 311.5,105C 337.498,104.5 363.498,104.333 389.5,104.5 Z"/></g>
<g><path style="opacity:1" fill="#613393" d="M 390.5,105.5 C 430.167,144.833 469.833,184.167 509.5,223.5C 510.167,226.5 510.833,229.5 511.5,232.5C 511.5,247.833 511.5,263.167 511.5,278.5C 500.612,368.144 456.279,435.644 378.5,481C 352.447,495.073 324.78,504.24 295.5,508.5C 294.127,508.657 292.793,508.49 291.5,508C 257.632,474.299 223.965,440.465 190.5,406.5C 211.833,406.5 233.167,406.5 254.5,406.5C 276.503,406.667 298.503,406.5 320.5,406C 307.113,388.306 289.447,377.806 267.5,374.5C 267.5,359.5 267.5,344.5 267.5,329.5C 296.322,324.171 316.822,308.171 329,281.5C 331.939,274.079 333.772,266.412 334.5,258.5C 335.498,221.337 335.832,184.004 335.5,146.5C 329.167,146.5 322.833,146.5 316.5,146.5C 316.5,146.167 316.5,145.833 316.5,145.5C 318.636,137.094 320.97,128.761 323.5,120.5C 345.833,120.5 368.167,120.5 390.5,120.5C 390.5,115.5 390.5,110.5 390.5,105.5 Z"/></g>
<g><path style="opacity:1" fill="#fdd12d" d="M 233.5,118.5 C 233.5,122.833 233.5,127.167 233.5,131.5C 222.643,132.428 213.976,137.261 207.5,146C 202.648,146.815 197.981,146.648 193.5,145.5C 201.373,128.553 214.707,119.553 233.5,118.5 Z"/></g>
<g><path style="opacity:1" fill="#a0b85e" d="M 389.5,104.5 C 390.167,104.5 390.5,104.833 390.5,105.5C 390.5,110.5 390.5,115.5 390.5,120.5C 368.167,120.5 345.833,120.5 323.5,120.5C 345.327,119.503 367.327,119.169 389.5,119.5C 389.5,114.5 389.5,109.5 389.5,104.5 Z"/></g>
<g><path style="opacity:1" fill="#693f9b" d="M 233.5,118.5 C 242.27,127.772 251.27,136.938 260.5,146C 273.496,146.5 286.496,146.667 299.5,146.5C 299.5,146.833 299.5,147.167 299.5,147.5C 284.5,147.5 269.5,147.5 254.5,147.5C 247.5,147.5 240.5,147.5 233.5,147.5C 233.5,142.167 233.5,136.833 233.5,131.5C 233.5,127.167 233.5,122.833 233.5,118.5 Z"/></g>
<g><path style="opacity:1" fill="#fcde6e" d="M 233.5,131.5 C 233.5,136.833 233.5,142.167 233.5,147.5C 224.5,147.5 215.5,147.5 206.5,147.5C 201.833,147.5 197.167,147.5 192.5,147.5C 192.5,147.167 192.5,146.833 192.5,146.5C 192.5,145.833 192.833,145.5 193.5,145.5C 197.981,146.648 202.648,146.815 207.5,146C 213.976,137.261 222.643,132.428 233.5,131.5 Z"/></g>
<g><path style="opacity:1" fill="#c6c7f0" d="M 192.5,146.5 C 192.5,146.833 192.5,147.167 192.5,147.5C 192.167,147.5 191.833,147.5 191.5,147.5C 186.167,147.5 180.833,147.5 175.5,147.5C 175.5,184.5 175.5,221.5 175.5,258.5C 174.502,221.337 174.168,184.004 174.5,146.5C 180.5,146.5 186.5,146.5 192.5,146.5 Z"/></g>
<g><path style="opacity:1" fill="#d5e7f7" d="M 191.5,147.5 C 190.097,152.391 189.43,157.391 189.5,162.5C 189.5,164.5 189.5,166.5 189.5,168.5C 189.5,189.833 189.5,211.167 189.5,232.5C 185.232,269.149 199.566,295.316 232.5,311C 239.581,313.771 246.914,314.937 254.5,314.5C 255.833,345.167 255.833,375.833 254.5,406.5C 233.167,406.5 211.833,406.5 190.5,406.5C 190.062,406.565 189.728,406.399 189.5,406C 203.187,388.498 220.854,377.665 242.5,373.5C 243.496,359.01 243.829,344.343 243.5,329.5C 230.552,327.853 218.885,323.187 208.5,315.5C 189.013,301.539 178.013,282.539 175.5,258.5C 175.5,221.5 175.5,184.5 175.5,147.5C 180.833,147.5 186.167,147.5 191.5,147.5 Z"/></g>
<g><path style="opacity:1" fill="#feaf3b" d="M 191.5,147.5 C 191.833,147.5 192.167,147.5 192.5,147.5C 197.167,147.5 201.833,147.5 206.5,147.5C 203.948,152.158 202.615,157.158 202.5,162.5C 198.167,162.5 193.833,162.5 189.5,162.5C 189.43,157.391 190.097,152.391 191.5,147.5 Z"/></g>
<g><path style="opacity:1" fill="#ffd328" d="M 206.5,147.5 C 215.5,147.5 224.5,147.5 233.5,147.5C 233.5,152.5 233.5,157.5 233.5,162.5C 223.167,162.5 212.833,162.5 202.5,162.5C 202.615,157.158 203.948,152.158 206.5,147.5 Z"/></g>
<g><path style="opacity:1" fill="#d6e8f6" d="M 233.5,147.5 C 240.5,147.5 247.5,147.5 254.5,147.5C 254.5,152.5 254.5,157.5 254.5,162.5C 247.5,162.5 240.5,162.5 233.5,162.5C 233.5,157.5 233.5,152.5 233.5,147.5 Z"/></g>
<g><path style="opacity:1" fill="#b2d7f2" d="M 254.5,147.5 C 269.5,147.5 284.5,147.5 299.5,147.5C 297.766,152.372 296.433,157.372 295.5,162.5C 281.833,162.5 268.167,162.5 254.5,162.5C 254.5,157.5 254.5,152.5 254.5,147.5 Z"/></g>
<g><path style="opacity:1" fill="#7bdb5d" d="M 300.5,145.5 C 305.734,146.802 311.067,146.802 316.5,145.5C 316.5,145.833 316.5,146.167 316.5,146.5C 316.5,146.833 316.5,147.167 316.5,147.5C 314.389,152.243 312.723,157.243 311.5,162.5C 306.167,162.5 300.833,162.5 295.5,162.5C 296.433,157.372 297.766,152.372 299.5,147.5C 299.5,147.167 299.5,146.833 299.5,146.5C 299.5,145.833 299.833,145.5 300.5,145.5 Z"/></g>
<g><path style="opacity:1" fill="#b1d5f1" d="M 316.5,147.5 C 322.5,147.5 328.5,147.5 334.5,147.5C 334.5,184.5 334.5,221.5 334.5,258.5C 333.772,266.412 331.939,274.079 329,281.5C 316.822,308.171 296.322,324.171 267.5,329.5C 267.5,344.5 267.5,359.5 267.5,374.5C 289.447,377.806 307.113,388.306 320.5,406C 298.503,406.5 276.503,406.667 254.5,406.5C 255.833,375.833 255.833,345.167 254.5,314.5C 288.207,312.962 309.707,295.962 319,263.5C 320.304,253.211 320.804,242.878 320.5,232.5C 320.5,209.167 320.5,185.833 320.5,162.5C 317.5,162.5 314.5,162.5 311.5,162.5C 312.723,157.243 314.389,152.243 316.5,147.5 Z"/></g>
<g><path style="opacity:1" fill="#a1b3de" d="M 316.5,147.5 C 316.5,147.167 316.5,146.833 316.5,146.5C 322.833,146.5 329.167,146.5 335.5,146.5C 335.832,184.004 335.498,221.337 334.5,258.5C 334.5,221.5 334.5,184.5 334.5,147.5C 328.5,147.5 322.5,147.5 316.5,147.5 Z"/></g>
<g><path style="opacity:1" fill="#ffad37" d="M 202.5,162.5 C 212.833,162.5 223.167,162.5 233.5,162.5C 233.5,172.833 233.5,183.167 233.5,193.5C 217.984,192.502 207.818,184.502 203,169.5C 202.503,167.19 202.337,164.857 202.5,162.5 Z"/></g>
<g><path style="opacity:1" fill="#ff7d37" d="M 189.5,162.5 C 193.833,162.5 198.167,162.5 202.5,162.5C 202.337,164.857 202.503,167.19 203,169.5C 207.818,184.502 217.984,192.502 233.5,193.5C 233.5,197.833 233.5,202.167 233.5,206.5C 209.228,204.892 194.562,192.225 189.5,168.5C 189.5,166.5 189.5,164.5 189.5,162.5 Z"/></g>
<g><path style="opacity:1" fill="#fee16f" d="M 233.5,162.5 C 240.5,162.5 247.5,162.5 254.5,162.5C 268.167,162.5 281.833,162.5 295.5,162.5C 295.672,163.492 295.338,164.158 294.5,164.5C 281.344,163.504 268.01,163.171 254.5,163.5C 254.5,186.5 254.5,209.5 254.5,232.5C 232.833,232.5 211.167,232.5 189.5,232.5C 189.5,211.167 189.5,189.833 189.5,168.5C 194.562,192.225 209.228,204.892 233.5,206.5C 233.5,202.167 233.5,197.833 233.5,193.5C 233.5,183.167 233.5,172.833 233.5,162.5 Z"/></g>
<g><path style="opacity:1" fill="#fed429" d="M 294.5,164.5 C 288.455,187.359 282.122,210.026 275.5,232.5C 268.5,232.5 261.5,232.5 254.5,232.5C 254.5,209.5 254.5,186.5 254.5,163.5C 268.01,163.171 281.344,163.504 294.5,164.5 Z"/></g>
<g><path style="opacity:1" fill="#53be73" d="M 295.5,162.5 C 300.833,162.5 306.167,162.5 311.5,162.5C 304.855,185.746 298.522,209.08 292.5,232.5C 286.388,252.602 280.722,272.935 275.5,293.5C 270.768,292.65 266.101,291.484 261.5,290C 260.978,289.439 260.645,288.772 260.5,288C 265.609,269.51 270.609,251.01 275.5,232.5C 282.122,210.026 288.455,187.359 294.5,164.5C 295.338,164.158 295.672,163.492 295.5,162.5 Z"/></g>
<g><path style="opacity:1" fill="#fdd329" d="M 311.5,162.5 C 314.5,162.5 317.5,162.5 320.5,162.5C 320.5,185.833 320.5,209.167 320.5,232.5C 311.167,232.5 301.833,232.5 292.5,232.5C 298.522,209.08 304.855,185.746 311.5,162.5 Z"/></g>
<g><path style="opacity:1" fill="#ee5ca4" d="M 189.5,232.5 C 211.167,232.5 232.833,232.5 254.5,232.5C 254.5,259.833 254.5,287.167 254.5,314.5C 246.914,314.937 239.581,313.771 232.5,311C 199.566,295.316 185.232,269.149 189.5,232.5 Z"/></g>
<g><path style="opacity:1" fill="#e92182" d="M 254.5,232.5 C 261.5,232.5 268.5,232.5 275.5,232.5C 270.609,251.01 265.609,269.51 260.5,288C 260.645,288.772 260.978,289.439 261.5,290C 266.101,291.484 270.768,292.65 275.5,293.5C 280.722,272.935 286.388,252.602 292.5,232.5C 301.833,232.5 311.167,232.5 320.5,232.5C 320.804,242.878 320.304,253.211 319,263.5C 309.707,295.962 288.207,312.962 254.5,314.5C 254.5,287.167 254.5,259.833 254.5,232.5 Z"/></g>
<g><path style="opacity:1" fill="#693e9b" d="M 208.5,315.5 C 218.885,323.187 230.552,327.853 243.5,329.5C 243.829,344.343 243.496,359.01 242.5,373.5C 242.666,365.826 242.5,358.159 242,350.5C 230.244,339.247 219.077,327.58 208.5,315.5 Z"/></g>
</svg>
