<?xml version="1.0" encoding="UTF-8"?>
<!DOCTYPE svg PUBLIC "-//W3C//DTD SVG 1.1//EN" "http://www.w3.org/Graphics/SVG/1.1/DTD/svg11.dtd">
<svg xmlns="http://www.w3.org/2000/svg" version="1.1" width="512px" height="512px" style="shape-rendering:geometricPrecision; text-rendering:geometricPrecision; image-rendering:optimizeQuality; fill-rule:evenodd; clip-rule:evenodd" xmlns:xlink="http://www.w3.org/1999/xlink">
<g><path style="opacity:0.996" fill="#7acc47" d="M 232.5,-0.5 C 247.833,-0.5 263.167,-0.5 278.5,-0.5C 368.144,10.3879 435.644,54.7213 481,132.5C 497.695,163.971 507.861,197.304 511.5,232.5C 511.5,247.833 511.5,263.167 511.5,278.5C 509,302.502 503.334,325.835 494.5,348.5C 407.833,262.167 321.167,175.833 234.5,89.5C 221.344,88.5044 208.01,88.1711 194.5,88.5C 194.5,91.5 194.5,94.5 194.5,97.5C 193.167,97.5 191.833,97.5 190.5,97.5C 189.508,104.982 189.175,112.648 189.5,120.5C 191.167,120.5 192.833,120.5 194.5,120.5C 194.5,137.5 194.5,154.5 194.5,171.5C 194.5,178.5 194.5,185.5 194.5,192.5C 179.048,195.782 169.215,205.116 165,220.5C 164.5,231.161 164.333,241.828 164.5,252.5C 164.5,281.167 164.5,309.833 164.5,338.5C 164.5,364.5 164.5,390.5 164.5,416.5C 195.833,448.167 227.167,479.833 258.5,511.5C 249.833,511.5 241.167,511.5 232.5,511.5C 142.856,500.612 75.3562,456.279 30,378.5C 13.3053,347.029 3.1386,313.696 -0.5,278.5C -0.5,263.167 -0.5,247.833 -0.5,232.5C 10.3875,142.857 54.7208,75.3573 132.5,30C 163.971,13.3053 197.304,3.1386 232.5,-0.5 Z"/></g>
<g><path style="opacity:1" fill="#ac2902" d="M 234.5,89.5 C 227.833,89.5 221.167,89.5 214.5,89.5C 214.5,116.833 214.5,144.167 214.5,171.5C 207.833,171.5 201.167,171.5 194.5,171.5C 194.5,154.5 194.5,137.5 194.5,120.5C 193.432,119.566 192.099,119.232 190.5,119.5C 190.5,112.167 190.5,104.833 190.5,97.5C 191.833,97.5 193.167,97.5 194.5,97.5C 194.5,94.5 194.5,91.5 194.5,88.5C 208.01,88.1711 221.344,88.5044 234.5,89.5 Z"/></g>
<g><path style="opacity:1" fill="#8d1e02" d="M 234.5,89.5 C 234.5,91.8333 234.5,94.1667 234.5,96.5C 235.833,96.5 237.167,96.5 238.5,96.5C 238.5,104.5 238.5,112.5 238.5,120.5C 237.167,120.5 235.833,120.5 234.5,120.5C 234.5,137.5 234.5,154.5 234.5,171.5C 227.833,171.5 221.167,171.5 214.5,171.5C 214.5,144.167 214.5,116.833 214.5,89.5C 221.167,89.5 227.833,89.5 234.5,89.5 Z"/></g>
<g><path style="opacity:1" fill="#01ad44" d="M 234.5,89.5 C 321.167,175.833 407.833,262.167 494.5,348.5C 471.701,406.471 433.034,450.638 378.5,481C 347.029,497.695 313.696,507.861 278.5,511.5C 271.833,511.5 265.167,511.5 258.5,511.5C 227.167,479.833 195.833,448.167 164.5,416.5C 181.167,416.5 197.833,416.5 214.5,416.5C 231.167,416.5 247.833,416.5 264.5,416.5C 264.5,390.5 264.5,364.5 264.5,338.5C 264.5,309.833 264.5,281.167 264.5,252.5C 264.666,242.161 264.5,231.828 264,221.5C 260.235,205.567 250.401,195.901 234.5,192.5C 234.5,185.5 234.5,178.5 234.5,171.5C 234.5,154.5 234.5,137.5 234.5,120.5C 235.833,120.5 237.167,120.5 238.5,120.5C 238.5,112.5 238.5,104.5 238.5,96.5C 237.167,96.5 235.833,96.5 234.5,96.5C 234.5,94.1667 234.5,91.8333 234.5,89.5 Z"/></g>
<g><path style="opacity:1" fill="#af6c14" d="M 190.5,97.5 C 190.5,104.833 190.5,112.167 190.5,119.5C 192.099,119.232 193.432,119.566 194.5,120.5C 192.833,120.5 191.167,120.5 189.5,120.5C 189.175,112.648 189.508,104.982 190.5,97.5 Z"/></g>
<g><path style="opacity:1" fill="#fe8900" d="M 194.5,171.5 C 201.167,171.5 207.833,171.5 214.5,171.5C 214.5,198.5 214.5,225.5 214.5,252.5C 197.833,252.5 181.167,252.5 164.5,252.5C 164.333,241.828 164.5,231.161 165,220.5C 169.215,205.116 179.048,195.782 194.5,192.5C 194.5,185.5 194.5,178.5 194.5,171.5 Z"/></g>
<g><path style="opacity:1" fill="#fe6900" d="M 214.5,171.5 C 221.167,171.5 227.833,171.5 234.5,171.5C 234.5,178.5 234.5,185.5 234.5,192.5C 250.401,195.901 260.235,205.567 264,221.5C 264.5,231.828 264.666,242.161 264.5,252.5C 247.833,252.5 231.167,252.5 214.5,252.5C 214.5,225.5 214.5,198.5 214.5,171.5 Z"/></g>
<g><path style="opacity:1" fill="#febf7a" d="M 214.5,252.5 C 231.167,252.5 247.833,252.5 264.5,252.5C 264.5,281.167 264.5,309.833 264.5,338.5C 247.833,338.5 231.167,338.5 214.5,338.5C 214.5,309.833 214.5,281.167 214.5,252.5 Z"/></g>
<g><path style="opacity:1" fill="#ffdd81" d="M 164.5,252.5 C 181.167,252.5 197.833,252.5 214.5,252.5C 214.5,281.167 214.5,309.833 214.5,338.5C 197.833,338.5 181.167,338.5 164.5,338.5C 164.5,309.833 164.5,281.167 164.5,252.5 Z"/></g>
<g><path style="opacity:1" fill="#cad1df" d="M 321.5,314.5 C 335.5,314.5 349.5,314.5 363.5,314.5C 362.884,322.506 362.218,330.506 361.5,338.5C 348.167,338.5 334.833,338.5 321.5,338.5C 308.5,338.5 295.5,338.5 282.5,338.5C 282.5,338.167 282.5,337.833 282.5,337.5C 295.5,337.5 308.5,337.5 321.5,337.5C 321.5,329.833 321.5,322.167 321.5,314.5 Z"/></g>
<g><path style="opacity:1" fill="#d8e2eb" d="M 321.5,314.5 C 321.5,322.167 321.5,329.833 321.5,337.5C 308.5,337.5 295.5,337.5 282.5,337.5C 281.668,329.853 281.002,322.186 280.5,314.5C 294.167,314.5 307.833,314.5 321.5,314.5 Z"/></g>
<g><path style="opacity:1" fill="#ff8800" d="M 164.5,338.5 C 181.167,338.5 197.833,338.5 214.5,338.5C 214.5,364.5 214.5,390.5 214.5,416.5C 197.833,416.5 181.167,416.5 164.5,416.5C 164.5,390.5 164.5,364.5 164.5,338.5 Z"/></g>
<g><path style="opacity:1" fill="#fe6900" d="M 214.5,338.5 C 231.167,338.5 247.833,338.5 264.5,338.5C 264.5,364.5 264.5,390.5 264.5,416.5C 247.833,416.5 231.167,416.5 214.5,416.5C 214.5,390.5 214.5,364.5 214.5,338.5 Z"/></g>
<g><path style="opacity:1" fill="#d55a2f" d="M 282.5,338.5 C 295.5,338.5 308.5,338.5 321.5,338.5C 321.5,364.5 321.5,390.5 321.5,416.5C 310.5,416.5 299.5,416.5 288.5,416.5C 287.039,390.435 285.039,364.435 282.5,338.5 Z"/></g>
<g><path style="opacity:1" fill="#a03914" d="M 321.5,338.5 C 334.833,338.5 348.167,338.5 361.5,338.5C 359.245,364.48 357.245,390.48 355.5,416.5C 344.167,416.5 332.833,416.5 321.5,416.5C 321.5,390.5 321.5,364.5 321.5,338.5 Z"/></g>
</svg>
