<?xml version="1.0" encoding="UTF-8"?>
<!DOCTYPE svg PUBLIC "-//W3C//DTD SVG 1.1//EN" "http://www.w3.org/Graphics/SVG/1.1/DTD/svg11.dtd">
<svg xmlns="http://www.w3.org/2000/svg" version="1.1" width="512px" height="512px" style="shape-rendering:geometricPrecision; text-rendering:geometricPrecision; image-rendering:optimizeQuality; fill-rule:evenodd; clip-rule:evenodd" xmlns:xlink="http://www.w3.org/1999/xlink">
<g><path style="opacity:0.998" fill="#5664e0" d="M 232.5,-0.5 C 247.833,-0.5 263.167,-0.5 278.5,-0.5C 368.144,10.3879 435.644,54.7213 481,132.5C 497.695,163.971 507.861,197.304 511.5,232.5C 511.5,247.833 511.5,263.167 511.5,278.5C 510.323,287.914 508.656,297.247 506.5,306.5C 446.167,245.165 385.5,184.831 324.5,125.5C 316.321,112.915 304.654,107.582 289.5,109.5C 285.659,96.8259 277.325,88.6593 264.5,85C 261.518,84.502 258.518,84.3354 255.5,84.5C 242.479,84.3463 232.312,89.6796 225,100.5C 223.259,103.309 222.092,106.309 221.5,109.5C 203.41,107.457 190.91,114.79 184,131.5C 183.5,141.494 183.334,151.494 183.5,161.5C 183.333,184.836 183.5,208.169 184,231.5C 186.118,242.523 189.452,253.189 194,263.5C 209.391,285.462 216.058,309.795 214,336.5C 210.796,361.174 207.629,385.841 204.5,410.5C 221.5,410.5 238.5,410.5 255.5,410.5C 272.5,410.5 289.5,410.5 306.5,410.5C 273.002,411.332 239.336,411.832 205.5,412C 237.368,444.035 269.368,475.868 301.5,507.5C 293.871,509.078 286.205,510.412 278.5,511.5C 263.167,511.5 247.833,511.5 232.5,511.5C 142.856,500.612 75.3562,456.279 30,378.5C 13.3053,347.029 3.1386,313.696 -0.5,278.5C -0.5,263.167 -0.5,247.833 -0.5,232.5C 10.3875,142.857 54.7208,75.3573 132.5,30C 163.971,13.3053 197.304,3.1386 232.5,-0.5 Z"/></g>
<g><path style="opacity:1" fill="#fefefe" d="M 255.5,84.5 C 255.5,110.167 255.5,135.833 255.5,161.5C 236.833,161.5 218.167,161.5 199.5,161.5C 194.167,161.5 188.833,161.5 183.5,161.5C 183.334,151.494 183.5,141.494 184,131.5C 190.91,114.79 203.41,107.457 221.5,109.5C 222.092,106.309 223.259,103.309 225,100.5C 232.312,89.6796 242.479,84.3463 255.5,84.5 Z"/></g>
<g><path style="opacity:1" fill="#e6e6ed" d="M 255.5,84.5 C 258.518,84.3354 261.518,84.502 264.5,85C 277.325,88.6593 285.659,96.8259 289.5,109.5C 304.654,107.582 316.321,112.915 324.5,125.5C 325.32,127.812 326.153,130.146 327,132.5C 327.5,161.831 327.667,191.165 327.5,220.5C 324.561,228.146 318.894,231.48 310.5,230.5C 305.246,229.081 301.746,225.748 300,220.5C 299.667,212.833 299.333,205.167 299,197.5C 284.346,202.957 274.679,198.29 270,183.5C 269.5,176.174 269.334,168.841 269.5,161.5C 264.833,161.5 260.167,161.5 255.5,161.5C 255.5,135.833 255.5,110.167 255.5,84.5 Z"/></g>
<g><path style="opacity:1" fill="#3748db" d="M 506.5,306.5 C 487.744,390.421 439.744,451.255 362.5,489C 342.984,497.895 322.65,504.061 301.5,507.5C 269.368,475.868 237.368,444.035 205.5,412C 239.336,411.832 273.002,411.332 306.5,410.5C 303.371,385.841 300.204,361.174 297,336.5C 294.98,310.603 301.313,286.936 316,265.5C 323.441,251.403 327.274,236.403 327.5,220.5C 327.667,191.165 327.5,161.831 327,132.5C 326.153,130.146 325.32,127.812 324.5,125.5C 385.5,184.831 446.167,245.165 506.5,306.5 Z"/></g>
<g><path style="opacity:1" fill="#e6e5ec" d="M 183.5,161.5 C 188.833,161.5 194.167,161.5 199.5,161.5C 199.082,185.864 199.582,210.198 201,234.5C 202.465,239.894 204.131,245.228 206,250.5C 212.527,262.221 218.527,274.221 224,286.5C 230.033,303.355 232.033,320.689 230,338.5C 228.898,349.188 227.731,359.855 226.5,370.5C 225.566,371.568 225.232,372.901 225.5,374.5C 235.5,374.5 245.5,374.5 255.5,374.5C 255.5,386.5 255.5,398.5 255.5,410.5C 238.5,410.5 221.5,410.5 204.5,410.5C 207.629,385.841 210.796,361.174 214,336.5C 216.058,309.795 209.391,285.462 194,263.5C 189.452,253.189 186.118,242.523 184,231.5C 183.5,208.169 183.333,184.836 183.5,161.5 Z"/></g>
<g><path style="opacity:1" fill="#fe6611" d="M 199.5,161.5 C 218.167,161.5 236.833,161.5 255.5,161.5C 255.5,201.167 255.5,240.833 255.5,280.5C 247.007,282.142 244.174,287.142 247,295.5C 249.141,298.321 251.975,299.654 255.5,299.5C 255.5,324.167 255.5,348.833 255.5,373.5C 245.833,373.5 236.167,373.5 226.5,373.5C 226.5,372.5 226.5,371.5 226.5,370.5C 227.731,359.855 228.898,349.188 230,338.5C 232.033,320.689 230.033,303.355 224,286.5C 218.527,274.221 212.527,262.221 206,250.5C 204.131,245.228 202.465,239.894 201,234.5C 199.582,210.198 199.082,185.864 199.5,161.5 Z"/></g>
<g><path style="opacity:1" fill="#fe2c2f" d="M 255.5,161.5 C 260.167,161.5 264.833,161.5 269.5,161.5C 269.334,168.841 269.5,176.174 270,183.5C 274.679,198.29 284.346,202.957 299,197.5C 299.333,205.167 299.667,212.833 300,220.5C 301.746,225.748 305.246,229.081 310.5,230.5C 309.295,237.32 307.461,243.986 305,250.5C 298.473,262.221 292.473,274.221 287,286.5C 280.921,303.347 278.921,320.68 281,338.5C 282.643,349.119 283.81,359.786 284.5,370.5C 284.5,371.5 284.5,372.5 284.5,373.5C 274.833,373.5 265.167,373.5 255.5,373.5C 255.5,348.833 255.5,324.167 255.5,299.5C 261.807,299.193 265.141,295.859 265.5,289.5C 264.703,283.704 261.37,280.704 255.5,280.5C 255.5,240.833 255.5,201.167 255.5,161.5 Z"/></g>
<g><path style="opacity:1" fill="#ff7b36" d="M 229.5,195.5 C 237.103,194.461 241.77,197.628 243.5,205C 242.12,213.027 237.453,216.027 229.5,214C 224.268,211.367 222.435,207.201 224,201.5C 225.36,198.977 227.193,196.977 229.5,195.5 Z"/></g>
<g><path style="opacity:1" fill="#d6d5e1" d="M 327.5,220.5 C 327.274,236.403 323.441,251.403 316,265.5C 301.313,286.936 294.98,310.603 297,336.5C 300.204,361.174 303.371,385.841 306.5,410.5C 289.5,410.5 272.5,410.5 255.5,410.5C 255.5,398.5 255.5,386.5 255.5,374.5C 265.5,374.5 275.5,374.5 285.5,374.5C 285.768,372.901 285.434,371.568 284.5,370.5C 283.81,359.786 282.643,349.119 281,338.5C 278.921,320.68 280.921,303.347 287,286.5C 292.473,274.221 298.473,262.221 305,250.5C 307.461,243.986 309.295,237.32 310.5,230.5C 318.894,231.48 324.561,228.146 327.5,220.5 Z"/></g>
<g><path style="opacity:1" fill="#ff6412" d="M 278.5,232.5 C 287.702,232.199 291.869,236.532 291,245.5C 288.818,251.241 284.651,253.408 278.5,252C 269.221,245.503 269.221,239.003 278.5,232.5 Z"/></g>
<g><path style="opacity:1" fill="#ff7b36" d="M 255.5,280.5 C 255.5,286.833 255.5,293.167 255.5,299.5C 251.975,299.654 249.141,298.321 247,295.5C 244.174,287.142 247.007,282.142 255.5,280.5 Z"/></g>
<g><path style="opacity:1" fill="#ff6511" d="M 255.5,280.5 C 261.37,280.704 264.703,283.704 265.5,289.5C 265.141,295.859 261.807,299.193 255.5,299.5C 255.5,293.167 255.5,286.833 255.5,280.5 Z"/></g>
<g><path style="opacity:1" fill="#f1b191" d="M 226.5,370.5 C 226.5,371.5 226.5,372.5 226.5,373.5C 236.167,373.5 245.833,373.5 255.5,373.5C 255.5,373.833 255.5,374.167 255.5,374.5C 245.5,374.5 235.5,374.5 225.5,374.5C 225.232,372.901 225.566,371.568 226.5,370.5 Z"/></g>
<g><path style="opacity:1" fill="#e98c92" d="M 284.5,370.5 C 285.434,371.568 285.768,372.901 285.5,374.5C 275.5,374.5 265.5,374.5 255.5,374.5C 255.5,374.167 255.5,373.833 255.5,373.5C 265.167,373.5 274.833,373.5 284.5,373.5C 284.5,372.5 284.5,371.5 284.5,370.5 Z"/></g>
</svg>
