<?xml version="1.0" encoding="UTF-8"?>
<!DOCTYPE svg PUBLIC "-//W3C//DTD SVG 1.1//EN" "http://www.w3.org/Graphics/SVG/1.1/DTD/svg11.dtd">
<svg xmlns="http://www.w3.org/2000/svg" version="1.1" width="512px" height="512px" style="shape-rendering:geometricPrecision; text-rendering:geometricPrecision; image-rendering:optimizeQuality; fill-rule:evenodd; clip-rule:evenodd" xmlns:xlink="http://www.w3.org/1999/xlink">
<g><path style="opacity:0.995" fill="#4d02ac" d="M 232.5,-0.5 C 247.833,-0.5 263.167,-0.5 278.5,-0.5C 368.144,10.3879 435.644,54.7213 481,132.5C 497.392,162.841 507.225,195.175 510.5,229.5C 442.833,162.167 375.167,94.8333 307.5,27.5C 272.833,26.1667 238.167,26.1667 203.5,27.5C 203.5,45.1667 203.5,62.8333 203.5,80.5C 203.5,81.1667 203.833,81.5 204.5,81.5C 208.167,85.8333 212.167,89.8333 216.5,93.5C 216.5,100.833 216.5,108.167 216.5,115.5C 184.917,120.915 165.417,139.248 158,170.5C 157.501,174.821 157.334,179.154 157.5,183.5C 157.5,212.833 157.5,242.167 157.5,271.5C 157.5,282.167 157.5,292.833 157.5,303.5C 157.5,321.5 157.5,339.5 157.5,357.5C 157.5,368.167 157.5,378.833 157.5,389.5C 157.333,406.837 157.5,424.17 158,441.5C 159.844,453.213 165.678,462.213 175.5,468.5C 187.722,481.224 200.222,493.891 213,506.5C 213.464,507.094 213.631,507.761 213.5,508.5C 122.357,490.848 57.524,439.848 19,355.5C 8.86392,330.621 2.36392,304.954 -0.5,278.5C -0.5,263.167 -0.5,247.833 -0.5,232.5C 10.3875,142.857 54.7208,75.3573 132.5,30C 163.971,13.3053 197.304,3.1386 232.5,-0.5 Z"/></g>
<g><path style="opacity:1" fill="#fefffe" d="M 203.5,27.5 C 220.833,27.5 238.167,27.5 255.5,27.5C 255.5,45.1667 255.5,62.8333 255.5,80.5C 238.167,80.5 220.833,80.5 203.5,80.5C 203.5,62.8333 203.5,45.1667 203.5,27.5 Z"/></g>
<g><path style="opacity:1" fill="#d9d8db" d="M 203.5,27.5 C 238.167,26.1667 272.833,26.1667 307.5,27.5C 307.5,45.5 307.5,63.5 307.5,81.5C 303.167,81.5 298.833,81.5 294.5,81.5C 281.5,81.5 268.5,81.5 255.5,81.5C 242.5,81.5 229.5,81.5 216.5,81.5C 212.5,81.5 208.5,81.5 204.5,81.5C 203.833,81.5 203.5,81.1667 203.5,80.5C 220.833,80.5 238.167,80.5 255.5,80.5C 255.5,62.8333 255.5,45.1667 255.5,27.5C 238.167,27.5 220.833,27.5 203.5,27.5 Z"/></g>
<g><path style="opacity:1" fill="#290077" d="M 307.5,27.5 C 375.167,94.8333 442.833,162.167 510.5,229.5C 510.263,230.791 510.596,231.791 511.5,232.5C 511.5,247.833 511.5,263.167 511.5,278.5C 500.612,368.144 456.279,435.644 378.5,481C 347.029,497.695 313.696,507.861 278.5,511.5C 263.167,511.5 247.833,511.5 232.5,511.5C 226.3,510.429 219.967,509.429 213.5,508.5C 213.631,507.761 213.464,507.094 213,506.5C 200.222,493.891 187.722,481.224 175.5,468.5C 179.815,471.155 184.482,472.988 189.5,474C 211.497,474.5 233.497,474.667 255.5,474.5C 277.169,474.667 298.836,474.5 320.5,474C 337.779,470.722 348.612,460.555 353,443.5C 353.5,425.503 353.667,407.503 353.5,389.5C 353.5,378.833 353.5,368.167 353.5,357.5C 353.5,339.5 353.5,321.5 353.5,303.5C 353.5,293.167 353.5,282.833 353.5,272.5C 353.5,272.167 353.5,271.833 353.5,271.5C 353.5,242.167 353.5,212.833 353.5,183.5C 352.633,149.932 336.3,127.765 304.5,117C 301.173,116.39 297.839,115.89 294.5,115.5C 294.5,104.167 294.5,92.8333 294.5,81.5C 298.833,81.5 303.167,81.5 307.5,81.5C 307.5,63.5 307.5,45.5 307.5,27.5 Z"/></g>
<g><path style="opacity:1" fill="#290077" d="M 204.5,81.5 C 208.5,81.5 212.5,81.5 216.5,81.5C 216.5,85.5 216.5,89.5 216.5,93.5C 212.167,89.8333 208.167,85.8333 204.5,81.5 Z"/></g>
<g><path style="opacity:1" fill="#0e7ae5" d="M 255.5,81.5 C 268.5,81.5 281.5,81.5 294.5,81.5C 294.5,92.8333 294.5,104.167 294.5,115.5C 281.549,114.537 268.549,114.204 255.5,114.5C 255.5,103.5 255.5,92.5 255.5,81.5 Z"/></g>
<g><path style="opacity:1" fill="#75f4fe" d="M 216.5,115.5 C 229.5,115.5 242.5,115.5 255.5,115.5C 255.5,138.167 255.5,160.833 255.5,183.5C 222.833,183.5 190.167,183.5 157.5,183.5C 157.334,179.154 157.501,174.821 158,170.5C 165.417,139.248 184.917,120.915 216.5,115.5 Z"/></g>
<g><path style="opacity:1" fill="#4abdfe" d="M 216.5,81.5 C 229.5,81.5 242.5,81.5 255.5,81.5C 255.5,92.5 255.5,103.5 255.5,114.5C 268.549,114.204 281.549,114.537 294.5,115.5C 297.839,115.89 301.173,116.39 304.5,117C 336.3,127.765 352.633,149.932 353.5,183.5C 320.833,183.5 288.167,183.5 255.5,183.5C 255.5,160.833 255.5,138.167 255.5,115.5C 242.5,115.5 229.5,115.5 216.5,115.5C 216.5,108.167 216.5,100.833 216.5,93.5C 216.5,89.5 216.5,85.5 216.5,81.5 Z"/></g>
<g><path style="opacity:1" fill="#fefefe" d="M 157.5,183.5 C 190.167,183.5 222.833,183.5 255.5,183.5C 255.5,212.833 255.5,242.167 255.5,271.5C 239.167,271.5 222.833,271.5 206.5,271.5C 190.167,271.5 173.833,271.5 157.5,271.5C 157.5,242.167 157.5,212.833 157.5,183.5 Z"/></g>
<g><path style="opacity:1" fill="#dadbdb" d="M 255.5,183.5 C 288.167,183.5 320.833,183.5 353.5,183.5C 353.5,212.833 353.5,242.167 353.5,271.5C 320.833,271.5 288.167,271.5 255.5,271.5C 255.5,242.167 255.5,212.833 255.5,183.5 Z"/></g>
<g><path style="opacity:1" fill="#4abeff" d="M 157.5,271.5 C 173.833,271.5 190.167,271.5 206.5,271.5C 206.5,282.167 206.5,292.833 206.5,303.5C 190.167,303.5 173.833,303.5 157.5,303.5C 157.5,292.833 157.5,282.167 157.5,271.5 Z"/></g>
<g><path style="opacity:1" fill="#76f4fe" d="M 206.5,271.5 C 222.833,271.5 239.167,271.5 255.5,271.5C 255.5,339.167 255.5,406.833 255.5,474.5C 233.497,474.667 211.497,474.5 189.5,474C 184.482,472.988 179.815,471.155 175.5,468.5C 165.678,462.213 159.844,453.213 158,441.5C 157.5,424.17 157.333,406.837 157.5,389.5C 173.833,389.5 190.167,389.5 206.5,389.5C 206.5,378.833 206.5,368.167 206.5,357.5C 190.167,357.5 173.833,357.5 157.5,357.5C 157.5,339.5 157.5,321.5 157.5,303.5C 173.833,303.5 190.167,303.5 206.5,303.5C 206.5,292.833 206.5,282.167 206.5,271.5 Z"/></g>
<g><path style="opacity:1" fill="#4abdfe" d="M 255.5,271.5 C 288.167,271.5 320.833,271.5 353.5,271.5C 353.5,271.833 353.5,272.167 353.5,272.5C 337.167,272.5 320.833,272.5 304.5,272.5C 304.5,282.833 304.5,293.167 304.5,303.5C 320.833,303.5 337.167,303.5 353.5,303.5C 353.5,321.5 353.5,339.5 353.5,357.5C 337.167,357.5 320.833,357.5 304.5,357.5C 304.5,368.167 304.5,378.833 304.5,389.5C 320.833,389.5 337.167,389.5 353.5,389.5C 353.667,407.503 353.5,425.503 353,443.5C 348.612,460.555 337.779,470.722 320.5,474C 298.836,474.5 277.169,474.667 255.5,474.5C 255.5,406.833 255.5,339.167 255.5,271.5 Z"/></g>
<g><path style="opacity:1" fill="#0e7ae5" d="M 353.5,272.5 C 353.5,282.833 353.5,293.167 353.5,303.5C 337.167,303.5 320.833,303.5 304.5,303.5C 304.5,293.167 304.5,282.833 304.5,272.5C 320.833,272.5 337.167,272.5 353.5,272.5 Z"/></g>
<g><path style="opacity:1" fill="#4abeff" d="M 157.5,357.5 C 173.833,357.5 190.167,357.5 206.5,357.5C 206.5,368.167 206.5,378.833 206.5,389.5C 190.167,389.5 173.833,389.5 157.5,389.5C 157.5,378.833 157.5,368.167 157.5,357.5 Z"/></g>
<g><path style="opacity:1" fill="#0f7ae5" d="M 353.5,357.5 C 353.5,368.167 353.5,378.833 353.5,389.5C 337.167,389.5 320.833,389.5 304.5,389.5C 304.5,378.833 304.5,368.167 304.5,357.5C 320.833,357.5 337.167,357.5 353.5,357.5 Z"/></g>
</svg>
