<?xml version="1.0" encoding="UTF-8"?>
<!DOCTYPE svg PUBLIC "-//W3C//DTD SVG 1.1//EN" "http://www.w3.org/Graphics/SVG/1.1/DTD/svg11.dtd">
<svg xmlns="http://www.w3.org/2000/svg" version="1.1" width="512px" height="512px" style="shape-rendering:geometricPrecision; text-rendering:geometricPrecision; image-rendering:optimizeQuality; fill-rule:evenodd; clip-rule:evenodd" xmlns:xlink="http://www.w3.org/1999/xlink">
<g><path style="opacity:0.996" fill="#f93e82" d="M 232.5,-0.5 C 247.833,-0.5 263.167,-0.5 278.5,-0.5C 362.756,9.30468 427.923,49.638 474,120.5C 485.616,140.067 494.783,160.734 501.5,182.5C 467.833,149.167 434.167,115.833 400.5,82.5C 352.167,82.5 303.833,82.5 255.5,82.5C 207.167,82.5 158.833,82.5 110.5,82.5C 110.5,105.167 110.5,127.833 110.5,150.5C 110.5,150.833 110.5,151.167 110.5,151.5C 110.5,210.167 110.5,268.833 110.5,327.5C 110.333,351.502 110.5,375.502 111,399.5C 112.75,410.398 118.25,418.731 127.5,424.5C 127.369,425.239 127.536,425.906 128,426.5C 155.035,453.368 181.868,480.368 208.5,507.5C 134.831,492.435 77.6638,453.435 37,390.5C 16.1784,355.868 3.67839,318.535 -0.5,278.5C -0.5,263.167 -0.5,247.833 -0.5,232.5C 10.3875,142.857 54.7208,75.3573 132.5,30C 163.971,13.3053 197.304,3.1386 232.5,-0.5 Z"/></g>
<g><path style="opacity:1" fill="#fefffe" d="M 255.5,82.5 C 255.5,105.167 255.5,127.833 255.5,150.5C 207.167,150.5 158.833,150.5 110.5,150.5C 110.5,127.833 110.5,105.167 110.5,82.5C 158.833,82.5 207.167,82.5 255.5,82.5 Z"/></g>
<g><path style="opacity:1" fill="#eae9e9" d="M 255.5,82.5 C 303.833,82.5 352.167,82.5 400.5,82.5C 400.5,105.5 400.5,128.5 400.5,151.5C 352.167,151.5 303.833,151.5 255.5,151.5C 207.167,151.5 158.833,151.5 110.5,151.5C 110.5,151.167 110.5,150.833 110.5,150.5C 158.833,150.5 207.167,150.5 255.5,150.5C 255.5,127.833 255.5,105.167 255.5,82.5 Z"/></g>
<g><path style="opacity:1" fill="#ba1e7f" d="M 400.5,82.5 C 434.167,115.833 467.833,149.167 501.5,182.5C 506.267,199.004 509.601,215.67 511.5,232.5C 511.5,247.833 511.5,263.167 511.5,278.5C 500.612,368.144 456.279,435.644 378.5,481C 347.029,497.695 313.696,507.861 278.5,511.5C 263.167,511.5 247.833,511.5 232.5,511.5C 224.594,510.34 216.594,509.007 208.5,507.5C 181.868,480.368 155.035,453.368 128,426.5C 127.536,425.906 127.369,425.239 127.5,424.5C 131.085,427.124 135.085,428.957 139.5,430C 178.165,430.5 216.832,430.667 255.5,430.5C 293.168,430.667 330.835,430.5 368.5,430C 385.892,426.941 396.392,416.774 400,399.5C 400.5,375.502 400.667,351.502 400.5,327.5C 400.5,268.833 400.5,210.167 400.5,151.5C 400.5,128.5 400.5,105.5 400.5,82.5 Z"/></g>
<g><path style="opacity:1" fill="#ffe446" d="M 110.5,151.5 C 158.833,151.5 207.167,151.5 255.5,151.5C 255.5,173.5 255.5,195.5 255.5,217.5C 239.868,202.368 224.368,187.035 209,171.5C 188.167,192.333 167.333,213.167 146.5,234C 167.333,254.833 188.167,275.667 209,296.5C 224.368,280.965 239.868,265.632 255.5,250.5C 255.5,261.167 255.5,271.833 255.5,282.5C 246.075,283.425 240.741,288.592 239.5,298C 240.291,307.958 245.625,313.458 255.5,314.5C 255.5,330.167 255.5,345.833 255.5,361.5C 220.5,361.5 185.5,361.5 150.5,361.5C 129.937,358.567 116.603,347.234 110.5,327.5C 110.5,268.833 110.5,210.167 110.5,151.5 Z"/></g>
<g><path style="opacity:1" fill="#fec136" d="M 255.5,151.5 C 303.833,151.5 352.167,151.5 400.5,151.5C 400.5,210.167 400.5,268.833 400.5,327.5C 395.464,346.033 383.464,357.2 364.5,361C 328.168,361.5 291.835,361.667 255.5,361.5C 255.5,345.833 255.5,330.167 255.5,314.5C 265.39,313.443 270.723,307.943 271.5,298C 270.273,288.607 264.94,283.44 255.5,282.5C 255.5,271.833 255.5,261.167 255.5,250.5C 260.603,244.895 265.936,239.395 271.5,234C 266.298,228.63 260.965,223.464 255.5,218.5C 255.5,218.167 255.5,217.833 255.5,217.5C 255.5,195.5 255.5,173.5 255.5,151.5 Z"/></g>
<g><path style="opacity:1" fill="#fffffe" d="M 255.5,217.5 C 255.5,217.833 255.5,218.167 255.5,218.5C 255.5,229.167 255.5,239.833 255.5,250.5C 239.868,265.632 224.368,280.965 209,296.5C 188.167,275.667 167.333,254.833 146.5,234C 167.333,213.167 188.167,192.333 209,171.5C 224.368,187.035 239.868,202.368 255.5,217.5 Z"/></g>
<g><path style="opacity:1" fill="#f79521" d="M 327.5,177.5 C 340.807,176.975 347.307,183.308 347,196.5C 342.139,207.902 333.972,211.068 322.5,206C 315.417,198.51 314.751,190.51 320.5,182C 322.898,180.476 325.231,178.976 327.5,177.5 Z"/></g>
<g><path style="opacity:1" fill="#eae9e9" d="M 255.5,218.5 C 260.965,223.464 266.298,228.63 271.5,234C 265.936,239.395 260.603,244.895 255.5,250.5C 255.5,239.833 255.5,229.167 255.5,218.5 Z"/></g>
<g><path style="opacity:1" fill="#eae9e8" d="M 345.5,236.5 C 355.376,256.59 365.042,276.924 374.5,297.5C 354.733,307.798 334.567,317.465 314,326.5C 311.844,324.199 310.178,321.533 309,318.5C 301.527,301.749 293.86,285.082 286,268.5C 285.333,267.167 285.333,265.833 286,264.5C 306.09,255.536 325.923,246.203 345.5,236.5 Z"/></g>
<g><path style="opacity:1" fill="#ffc236" d="M 255.5,282.5 C 255.5,293.167 255.5,303.833 255.5,314.5C 245.625,313.458 240.291,307.958 239.5,298C 240.741,288.592 246.075,283.425 255.5,282.5 Z"/></g>
<g><path style="opacity:1" fill="#f79621" d="M 255.5,282.5 C 264.94,283.44 270.273,288.607 271.5,298C 270.723,307.943 265.39,313.443 255.5,314.5C 255.5,303.833 255.5,293.167 255.5,282.5 Z"/></g>
<g><path style="opacity:1" fill="#ffc136" d="M 156.5,302.5 C 170.338,301.51 177.171,307.843 177,321.5C 171.554,333.537 163.054,336.371 151.5,330C 145.959,323.424 145.125,316.258 149,308.5C 151.114,305.879 153.614,303.879 156.5,302.5 Z"/></g>
<g><path style="opacity:1" fill="#fefefe" d="M 110.5,327.5 C 116.603,347.234 129.937,358.567 150.5,361.5C 185.329,362.498 220.329,362.832 255.5,362.5C 255.5,385.167 255.5,407.833 255.5,430.5C 216.832,430.667 178.165,430.5 139.5,430C 135.085,428.957 131.085,427.124 127.5,424.5C 118.25,418.731 112.75,410.398 111,399.5C 110.5,375.502 110.333,351.502 110.5,327.5 Z"/></g>
<g><path style="opacity:1" fill="#eae9e9" d="M 400.5,327.5 C 400.667,351.502 400.5,375.502 400,399.5C 396.392,416.774 385.892,426.941 368.5,430C 330.835,430.5 293.168,430.667 255.5,430.5C 255.5,407.833 255.5,385.167 255.5,362.5C 220.329,362.832 185.329,362.498 150.5,361.5C 185.5,361.5 220.5,361.5 255.5,361.5C 291.835,361.667 328.168,361.5 364.5,361C 383.464,357.2 395.464,346.033 400.5,327.5 Z"/></g>
</svg>
