<?xml version="1.0" encoding="UTF-8"?>
<!DOCTYPE svg PUBLIC "-//W3C//DTD SVG 1.1//EN" "http://www.w3.org/Graphics/SVG/1.1/DTD/svg11.dtd">
<svg xmlns="http://www.w3.org/2000/svg" version="1.1" width="512px" height="512px" style="shape-rendering:geometricPrecision; text-rendering:geometricPrecision; image-rendering:optimizeQuality; fill-rule:evenodd; clip-rule:evenodd" xmlns:xlink="http://www.w3.org/1999/xlink">
<g><path style="opacity:0.997" fill="#ee5ca4" d="M 232.5,-0.5 C 247.833,-0.5 263.167,-0.5 278.5,-0.5C 368.144,10.3879 435.644,54.7213 481,132.5C 497.695,163.971 507.861,197.304 511.5,232.5C 511.5,247.833 511.5,263.167 511.5,278.5C 510.323,287.914 508.656,297.247 506.5,306.5C 434.167,234.5 361.833,162.5 289.5,90.5C 284.5,89.1667 279.5,89.1667 274.5,90.5C 274.5,115.833 274.5,141.167 274.5,166.5C 268.167,166.5 261.833,166.5 255.5,166.5C 232.833,166.5 210.167,166.5 187.5,166.5C 187.5,248.167 187.5,329.833 187.5,411.5C 210.167,411.5 232.833,411.5 255.5,411.5C 278.167,411.5 300.833,411.5 323.5,411.5C 278.669,412.333 233.669,412.833 188.5,413C 220.5,445 252.5,477 284.5,509C 285.448,509.483 286.448,509.649 287.5,509.5C 284.5,510.167 281.5,510.833 278.5,511.5C 263.167,511.5 247.833,511.5 232.5,511.5C 142.856,500.612 75.3562,456.279 30,378.5C 13.3053,347.029 3.1386,313.696 -0.5,278.5C -0.5,263.167 -0.5,247.833 -0.5,232.5C 10.3875,142.857 54.7208,75.3573 132.5,30C 163.971,13.3053 197.304,3.1386 232.5,-0.5 Z"/></g>
<g><path style="opacity:1" fill="#76db5a" d="M 274.5,90.5 C 279.167,90.5 283.833,90.5 288.5,90.5C 288.5,115.833 288.5,141.167 288.5,166.5C 283.833,166.5 279.167,166.5 274.5,166.5C 274.5,141.167 274.5,115.833 274.5,90.5 Z"/></g>
<g><path style="opacity:1" fill="#ea1d82" d="M 289.5,90.5 C 361.833,162.5 434.167,234.5 506.5,306.5C 487.744,390.421 439.744,451.255 362.5,489C 338.575,499.809 313.575,506.642 287.5,509.5C 286.448,509.649 285.448,509.483 284.5,509C 252.5,477 220.5,445 188.5,413C 233.669,412.833 278.669,412.333 323.5,411.5C 323.5,329.833 323.5,248.167 323.5,166.5C 312.167,166.5 300.833,166.5 289.5,166.5C 289.5,141.167 289.5,115.833 289.5,90.5 Z"/></g>
<g><path style="opacity:1" fill="#85c560" d="M 274.5,90.5 C 279.5,89.1667 284.5,89.1667 289.5,90.5C 289.5,115.833 289.5,141.167 289.5,166.5C 289.167,166.5 288.833,166.5 288.5,166.5C 288.5,141.167 288.5,115.833 288.5,90.5C 283.833,90.5 279.167,90.5 274.5,90.5 Z"/></g>
<g><path style="opacity:1" fill="#d6e8f7" d="M 255.5,166.5 C 255.5,174.833 255.5,183.167 255.5,191.5C 238.167,191.5 220.833,191.5 203.5,191.5C 203.5,251.5 203.5,311.5 203.5,371.5C 220.833,371.5 238.167,371.5 255.5,371.5C 255.5,384.833 255.5,398.167 255.5,411.5C 232.833,411.5 210.167,411.5 187.5,411.5C 187.5,329.833 187.5,248.167 187.5,166.5C 210.167,166.5 232.833,166.5 255.5,166.5 Z"/></g>
<g><path style="opacity:1" fill="#b1d6f2" d="M 255.5,166.5 C 261.833,166.5 268.167,166.5 274.5,166.5C 274.5,174.833 274.5,183.167 274.5,191.5C 268.167,191.5 261.833,191.5 255.5,191.5C 255.5,183.167 255.5,174.833 255.5,166.5 Z"/></g>
<g><path style="opacity:1" fill="#4fbf74" d="M 274.5,166.5 C 279.167,166.5 283.833,166.5 288.5,166.5C 288.833,166.5 289.167,166.5 289.5,166.5C 289.5,174.833 289.5,183.167 289.5,191.5C 284.5,191.5 279.5,191.5 274.5,191.5C 274.5,183.167 274.5,174.833 274.5,166.5 Z"/></g>
<g><path style="opacity:1" fill="#b2d6f2" d="M 289.5,166.5 C 300.833,166.5 312.167,166.5 323.5,166.5C 323.5,248.167 323.5,329.833 323.5,411.5C 300.833,411.5 278.167,411.5 255.5,411.5C 255.5,398.167 255.5,384.833 255.5,371.5C 272.833,371.5 290.167,371.5 307.5,371.5C 307.5,311.5 307.5,251.5 307.5,191.5C 301.5,191.5 295.5,191.5 289.5,191.5C 289.5,183.167 289.5,174.833 289.5,166.5 Z"/></g>
<g><path style="opacity:1" fill="#fed429" d="M 255.5,191.5 C 261.833,191.5 268.167,191.5 274.5,191.5C 274.5,191.833 274.5,192.167 274.5,192.5C 268.167,192.5 261.833,192.5 255.5,192.5C 255.5,207.833 255.5,223.167 255.5,238.5C 250.187,233.522 244.854,228.522 239.5,223.5C 230.014,232.486 220.681,241.652 211.5,251C 220.681,260.348 230.014,269.514 239.5,278.5C 244.854,273.478 250.187,268.478 255.5,263.5C 255.335,267.182 255.501,270.848 256,274.5C 262.035,280.703 268.202,286.703 274.5,292.5C 274.5,298.833 274.5,305.167 274.5,311.5C 267.838,317.329 261.671,323.663 256,330.5C 255.5,344.163 255.333,357.829 255.5,371.5C 238.167,371.5 220.833,371.5 203.5,371.5C 203.5,311.5 203.5,251.5 203.5,191.5C 220.833,191.5 238.167,191.5 255.5,191.5 Z"/></g>
<g><path style="opacity:1" fill="#fdae38" d="M 274.5,192.5 C 274.5,225.833 274.5,259.167 274.5,292.5C 268.202,286.703 262.035,280.703 256,274.5C 255.501,270.848 255.335,267.182 255.5,263.5C 255.5,263.167 255.5,262.833 255.5,262.5C 259.631,258.87 263.631,255.037 267.5,251C 263.631,246.963 259.631,243.13 255.5,239.5C 255.5,239.167 255.5,238.833 255.5,238.5C 255.5,223.167 255.5,207.833 255.5,192.5C 261.833,192.5 268.167,192.5 274.5,192.5 Z"/></g>
<g><path style="opacity:1" fill="#02aa5d" d="M 274.5,191.5 C 279.5,191.5 284.5,191.5 289.5,191.5C 289.5,245.833 289.5,300.167 289.5,354.5C 284.5,354.5 279.5,354.5 274.5,354.5C 274.5,340.167 274.5,325.833 274.5,311.5C 274.5,305.167 274.5,298.833 274.5,292.5C 274.5,259.167 274.5,225.833 274.5,192.5C 274.5,192.167 274.5,191.833 274.5,191.5 Z"/></g>
<g><path style="opacity:1" fill="#feae38" d="M 289.5,191.5 C 295.5,191.5 301.5,191.5 307.5,191.5C 307.5,251.5 307.5,311.5 307.5,371.5C 290.167,371.5 272.833,371.5 255.5,371.5C 255.333,357.829 255.5,344.163 256,330.5C 261.671,323.663 267.838,317.329 274.5,311.5C 274.5,325.833 274.5,340.167 274.5,354.5C 279.5,354.5 284.5,354.5 289.5,354.5C 289.5,300.167 289.5,245.833 289.5,191.5 Z"/></g>
<g><path style="opacity:1" fill="#ffe16e" d="M 255.5,238.5 C 255.5,238.833 255.5,239.167 255.5,239.5C 255.5,247.167 255.5,254.833 255.5,262.5C 255.5,262.833 255.5,263.167 255.5,263.5C 250.187,268.478 244.854,273.478 239.5,278.5C 230.014,269.514 220.681,260.348 211.5,251C 220.681,241.652 230.014,232.486 239.5,223.5C 244.854,228.522 250.187,233.522 255.5,238.5 Z"/></g>
<g><path style="opacity:1" fill="#ffd328" d="M 255.5,239.5 C 259.631,243.13 263.631,246.963 267.5,251C 263.631,255.037 259.631,258.87 255.5,262.5C 255.5,254.833 255.5,247.167 255.5,239.5 Z"/></g>
<g><path style="opacity:1" fill="#ffe16e" d="M 253.5,275.5 C 254.832,284.141 255.498,293.141 255.5,302.5C 255.333,311.5 255.167,320.5 255,329.5C 245.79,320.625 236.957,311.458 228.5,302C 236.659,293.007 244.993,284.174 253.5,275.5 Z"/></g>
</svg>
