<?xml version="1.0" encoding="UTF-8"?>
<!DOCTYPE svg PUBLIC "-//W3C//DTD SVG 1.1//EN" "http://www.w3.org/Graphics/SVG/1.1/DTD/svg11.dtd">
<svg xmlns="http://www.w3.org/2000/svg" version="1.1" width="512px" height="512px" style="shape-rendering:geometricPrecision; text-rendering:geometricPrecision; image-rendering:optimizeQuality; fill-rule:evenodd; clip-rule:evenodd" xmlns:xlink="http://www.w3.org/1999/xlink">
<g><path style="opacity:0.994" fill="#8cd202" d="M 232.5,-0.5 C 247.833,-0.5 263.167,-0.5 278.5,-0.5C 368.144,10.3879 435.644,54.7213 481,132.5C 496.768,161.971 506.601,193.304 510.5,226.5C 476.167,192.5 441.833,158.5 407.5,124.5C 401.528,116.694 394.694,109.694 387,103.5C 377.975,112.027 368.808,120.36 359.5,128.5C 356.473,126.14 353.806,123.473 351.5,120.5C 342.149,114.141 332.815,107.808 323.5,101.5C 315.157,94.5697 306.324,88.2364 297,82.5C 291.054,90.2133 285.221,98.0466 279.5,106C 281.684,107.363 283.684,108.863 285.5,110.5C 284.728,111.694 283.728,112.694 282.5,113.5C 266.035,97.5351 249.701,81.3685 233.5,65C 232.906,64.5357 232.239,64.369 231.5,64.5C 230.836,62.513 229.669,60.8463 228,59.5C 219.557,65.3009 211.057,70.9676 202.5,76.5C 192.195,83.323 181.862,90.1564 171.5,97C 177.03,105.346 182.696,113.512 188.5,121.5C 195.5,129.167 202.833,136.5 210.5,143.5C 217.224,152.592 223.724,161.926 230,171.5C 230.483,172.448 230.649,173.448 230.5,174.5C 222.49,177.174 214.49,179.84 206.5,182.5C 192.833,169.167 179.167,155.833 165.5,142.5C 151.954,129.052 137.954,116.052 123.5,103.5C 116.15,109.884 109.483,116.884 103.5,124.5C 112.521,133.188 121.521,141.855 130.5,150.5C 130.369,151.239 130.536,151.906 131,152.5C 147.702,169.035 164.202,185.701 180.5,202.5C 177.188,207.804 173.521,212.804 169.5,217.5C 158.5,206.833 147.5,196.167 136.5,185.5C 117.732,180.057 98.7323,175.057 79.5,170.5C 77.5817,179.925 75.2484,189.258 72.5,198.5C 72.6236,199.107 72.9569,199.44 73.5,199.5C 94.1317,220.632 114.965,241.632 136,262.5C 136.464,263.094 136.631,263.761 136.5,264.5C 132.082,270.246 128.082,276.246 124.5,282.5C 105.169,308.512 86.1695,334.846 67.5,361.5C 69.1856,362.857 70.8523,364.19 72.5,365.5C 72.369,366.239 72.5357,366.906 73,367.5C 120.035,414.368 166.868,461.368 213.5,508.5C 122.357,490.848 57.524,439.848 19,355.5C 8.86392,330.621 2.36392,304.954 -0.5,278.5C -0.5,263.167 -0.5,247.833 -0.5,232.5C 10.3875,142.857 54.7208,75.3573 132.5,30C 163.971,13.3053 197.304,3.1386 232.5,-0.5 Z"/></g>
<g><path style="opacity:1" fill="#a65d4e" d="M 231.5,64.5 C 235.699,71.0574 240.032,77.5574 244.5,84C 242.234,85.4264 240.568,87.2598 239.5,89.5C 238.883,89.3893 238.383,89.056 238,88.5C 231.618,93.0553 225.118,97.3886 218.5,101.5C 218.5,100.833 218.167,100.5 217.5,100.5C 212.473,92.4825 207.473,84.4825 202.5,76.5C 211.057,70.9676 219.557,65.3009 228,59.5C 229.669,60.8463 230.836,62.513 231.5,64.5 Z"/></g>
<g><path style="opacity:1" fill="#6fb301" d="M 231.5,64.5 C 232.239,64.369 232.906,64.5357 233.5,65C 249.701,81.3685 266.035,97.5351 282.5,113.5C 278.247,120.268 273.747,126.934 269,133.5C 258.945,118.952 249.112,104.285 239.5,89.5C 240.568,87.2598 242.234,85.4264 244.5,84C 240.032,77.5574 235.699,71.0574 231.5,64.5 Z"/></g>
<g><path style="opacity:1" fill="#c28776" d="M 202.5,76.5 C 207.473,84.4825 212.473,92.4825 217.5,100.5C 217.586,101.496 217.252,102.329 216.5,103C 209.013,107.663 201.68,112.496 194.5,117.5C 192.5,118.833 190.5,120.167 188.5,121.5C 182.696,113.512 177.03,105.346 171.5,97C 181.862,90.1564 192.195,83.323 202.5,76.5 Z"/></g>
<g><path style="opacity:1" fill="#c28776" d="M 323.5,101.5 C 317.741,109.348 311.741,117.015 305.5,124.5C 298.833,119.833 292.167,115.167 285.5,110.5C 283.684,108.863 281.684,107.363 279.5,106C 285.221,98.0466 291.054,90.2133 297,82.5C 306.324,88.2364 315.157,94.5697 323.5,101.5 Z"/></g>
<g><path style="opacity:1" fill="#905040" d="M 239.5,89.5 C 249.112,104.285 258.945,118.952 269,133.5C 273.747,126.934 278.247,120.268 282.5,113.5C 283.728,112.694 284.728,111.694 285.5,110.5C 292.167,115.167 298.833,119.833 305.5,124.5C 305.5,124.833 305.5,125.167 305.5,125.5C 277.833,164.833 250.167,204.167 222.5,243.5C 222.167,243.5 221.833,243.5 221.5,243.5C 214.652,239.345 207.319,238.512 199.5,241C 195.63,242.287 191.964,243.953 188.5,246C 187.167,246.667 185.833,246.667 184.5,246C 177.676,240.755 170.676,235.755 163.5,231C 162.748,230.329 162.414,229.496 162.5,228.5C 165.094,224.974 167.427,221.308 169.5,217.5C 173.521,212.804 177.188,207.804 180.5,202.5C 187.721,193.897 196.387,187.23 206.5,182.5C 214.49,179.84 222.49,177.174 230.5,174.5C 234.682,172.381 239.015,170.548 243.5,169C 246.91,164.592 249.91,159.925 252.5,155C 241.353,137.026 230.02,119.192 218.5,101.5C 225.118,97.3886 231.618,93.0553 238,88.5C 238.383,89.056 238.883,89.3893 239.5,89.5 Z"/></g>
<g><path style="opacity:1" fill="#b36e59" d="M 217.5,100.5 C 218.167,100.5 218.5,100.833 218.5,101.5C 230.02,119.192 241.353,137.026 252.5,155C 249.91,159.925 246.91,164.592 243.5,169C 239.015,170.548 234.682,172.381 230.5,174.5C 230.649,173.448 230.483,172.448 230,171.5C 223.724,161.926 217.224,152.592 210.5,143.5C 205.59,134.586 200.257,125.92 194.5,117.5C 201.68,112.496 209.013,107.663 216.5,103C 217.252,102.329 217.586,101.496 217.5,100.5 Z"/></g>
<g><path style="opacity:1" fill="#a55e4e" d="M 323.5,101.5 C 332.815,107.808 342.149,114.141 351.5,120.5C 346.595,129.295 340.929,137.629 334.5,145.5C 332.754,143.748 330.754,142.415 328.5,141.5C 321.016,135.923 313.35,130.59 305.5,125.5C 305.5,125.167 305.5,124.833 305.5,124.5C 311.741,117.015 317.741,109.348 323.5,101.5 Z"/></g>
<g><path style="opacity:1" fill="#fdfefc" d="M 165.5,142.5 C 159.557,150.111 152.891,157.111 145.5,163.5C 140.185,159.518 135.185,155.184 130.5,150.5C 121.521,141.855 112.521,133.188 103.5,124.5C 109.483,116.884 116.15,109.884 123.5,103.5C 137.954,116.052 151.954,129.052 165.5,142.5 Z"/></g>
<g><path style="opacity:1" fill="#e8ecf2" d="M 407.5,124.5 C 393.546,137.45 379.546,150.45 365.5,163.5C 358.15,157.116 351.483,150.116 345.5,142.5C 349.881,137.452 354.548,132.785 359.5,128.5C 368.808,120.36 377.975,112.027 387,103.5C 394.694,109.694 401.528,116.694 407.5,124.5 Z"/></g>
<g><path style="opacity:1" fill="#72b205" d="M 194.5,117.5 C 200.257,125.92 205.59,134.586 210.5,143.5C 202.833,136.5 195.5,129.167 188.5,121.5C 190.5,120.167 192.5,118.833 194.5,117.5 Z"/></g>
<g><path style="opacity:1" fill="#6fb400" d="M 351.5,120.5 C 353.806,123.473 356.473,126.14 359.5,128.5C 354.548,132.785 349.881,137.452 345.5,142.5C 351.483,150.116 358.15,157.116 365.5,163.5C 379.546,150.45 393.546,137.45 407.5,124.5C 441.833,158.5 476.167,192.5 510.5,226.5C 510.205,228.735 510.539,230.735 511.5,232.5C 511.5,247.833 511.5,263.167 511.5,278.5C 500.612,368.144 456.279,435.644 378.5,481C 347.029,497.695 313.696,507.861 278.5,511.5C 263.167,511.5 247.833,511.5 232.5,511.5C 226.3,510.429 219.967,509.429 213.5,508.5C 166.868,461.368 120.035,414.368 73,367.5C 72.5357,366.906 72.369,366.239 72.5,365.5C 86.5,375.5 100.5,385.5 114.5,395.5C 129.621,406.115 144.621,416.948 159.5,428C 160.5,428.667 161.5,428.667 162.5,428C 181.386,401.954 200.052,375.788 218.5,349.5C 231.135,331.857 243.801,314.19 256.5,296.5C 259.603,291.948 262.936,287.614 266.5,283.5C 276.846,298.87 287.18,314.204 297.5,329.5C 314.773,356.533 332.44,383.367 350.5,410C 351.5,410.667 352.5,410.667 353.5,410C 368.566,399.81 383.566,389.644 398.5,379.5C 415.331,369.25 431.664,358.25 447.5,346.5C 429.823,319.805 412.156,293.138 394.5,266.5C 382.525,247.871 370.192,229.538 357.5,211.5C 350.852,200.216 343.685,189.216 336,178.5C 329.699,171.606 322.199,166.606 313.5,163.5C 318.474,156.185 323.474,148.851 328.5,141.5C 330.754,142.415 332.754,143.748 334.5,145.5C 340.929,137.629 346.595,129.295 351.5,120.5 Z"/></g>
<g><path style="opacity:1" fill="#61362b" d="M 305.5,125.5 C 313.35,130.59 321.016,135.923 328.5,141.5C 323.474,148.851 318.474,156.185 313.5,163.5C 304.444,175.255 295.61,187.255 287,199.5C 286.503,202.146 286.336,204.813 286.5,207.5C 285.751,218.484 285.417,229.484 285.5,240.5C 285.5,242.833 285.5,245.167 285.5,247.5C 283.72,252.83 281.72,258.163 279.5,263.5C 275.141,270.184 270.807,276.851 266.5,283.5C 262.936,287.614 259.603,291.948 256.5,296.5C 248.449,290.72 240.283,285.053 232,279.5C 232.592,272.245 232.592,264.911 232,257.5C 230.553,251.588 227.386,246.921 222.5,243.5C 250.167,204.167 277.833,164.833 305.5,125.5 Z"/></g>
<g><path style="opacity:1" fill="#6fb502" d="M 165.5,142.5 C 179.167,155.833 192.833,169.167 206.5,182.5C 196.387,187.23 187.721,193.897 180.5,202.5C 164.202,185.701 147.702,169.035 131,152.5C 130.536,151.906 130.369,151.239 130.5,150.5C 135.185,155.184 140.185,159.518 145.5,163.5C 152.891,157.111 159.557,150.111 165.5,142.5 Z"/></g>
<g><path style="opacity:1" fill="#915041" d="M 313.5,163.5 C 322.199,166.606 329.699,171.606 336,178.5C 343.685,189.216 350.852,200.216 357.5,211.5C 349.702,217.572 341.368,222.905 332.5,227.5C 321.285,220.453 309.285,218.62 296.5,222C 293.694,216.713 290.36,211.879 286.5,207.5C 286.336,204.813 286.503,202.146 287,199.5C 295.61,187.255 304.444,175.255 313.5,163.5 Z"/></g>
<g><path style="opacity:1" fill="#fdfefc" d="M 136.5,185.5 C 133.538,194.68 131.205,204.014 129.5,213.5C 110.764,209.149 92.0973,204.483 73.5,199.5C 72.9569,199.44 72.6236,199.107 72.5,198.5C 75.2484,189.258 77.5817,179.925 79.5,170.5C 98.7323,175.057 117.732,180.057 136.5,185.5 Z"/></g>
<g><path style="opacity:1" fill="#e7ecf2" d="M 427.5,170.5 C 429.124,170.36 430.29,171.027 431,172.5C 433.644,181.409 435.811,190.409 437.5,199.5C 418.911,204.48 400.245,209.147 381.5,213.5C 379.323,203.792 376.99,194.125 374.5,184.5C 392.475,180.591 410.141,175.924 427.5,170.5 Z"/></g>
<g><path style="opacity:1" fill="#6fb502" d="M 136.5,185.5 C 147.5,196.167 158.5,206.833 169.5,217.5C 167.427,221.308 165.094,224.974 162.5,228.5C 153.833,240.5 145.167,252.5 136.5,264.5C 136.631,263.761 136.464,263.094 136,262.5C 114.965,241.632 94.1317,220.632 73.5,199.5C 92.0973,204.483 110.764,209.149 129.5,213.5C 131.205,204.014 133.538,194.68 136.5,185.5 Z"/></g>
<g><path style="opacity:1" fill="#d69a8b" d="M 297.5,329.5 C 287.18,314.204 276.846,298.87 266.5,283.5C 270.807,276.851 275.141,270.184 279.5,263.5C 281.764,262.419 283.931,261.085 286,259.5C 285.983,255.525 285.816,251.525 285.5,247.5C 285.5,245.167 285.5,242.833 285.5,240.5C 287.332,233.51 291.165,227.843 297,223.5C 317.749,254.662 338.249,285.996 358.5,317.5C 350.466,322.15 342.133,322.65 333.5,319C 329.833,317.167 326.167,315.333 322.5,313.5C 314.149,318.86 305.816,324.193 297.5,329.5 Z"/></g>
<g><path style="opacity:1" fill="#c28677" d="M 162.5,228.5 C 162.414,229.496 162.748,230.329 163.5,231C 170.676,235.755 177.676,240.755 184.5,246C 185.833,246.667 187.167,246.667 188.5,246C 191.964,243.953 195.63,242.287 199.5,241C 207.319,238.512 214.652,239.345 221.5,243.5C 200.214,274.117 178.547,304.45 156.5,334.5C 152.148,330.474 149.315,325.474 148,319.5C 147.416,312.756 147.416,306.089 148,299.5C 140.288,293.615 132.455,287.948 124.5,282.5C 128.082,276.246 132.082,270.246 136.5,264.5C 145.167,252.5 153.833,240.5 162.5,228.5 Z"/></g>
<g><path style="opacity:1" fill="#a55d4e" d="M 221.5,243.5 C 221.833,243.5 222.167,243.5 222.5,243.5C 227.386,246.921 230.553,251.588 232,257.5C 232.592,264.911 232.592,272.245 232,279.5C 240.283,285.053 248.449,290.72 256.5,296.5C 243.801,314.19 231.135,331.857 218.5,349.5C 210.369,343.596 202.035,337.929 193.5,332.5C 181.551,340.302 169.218,341.302 156.5,335.5C 156.5,335.167 156.5,334.833 156.5,334.5C 178.547,304.45 200.214,274.117 221.5,243.5 Z"/></g>
<g><path style="opacity:1" fill="#b36e5b" d="M 285.5,247.5 C 285.816,251.525 285.983,255.525 286,259.5C 283.931,261.085 281.764,262.419 279.5,263.5C 281.72,258.163 283.72,252.83 285.5,247.5 Z"/></g>
<g><path style="opacity:1" fill="#915041" d="M 394.5,266.5 C 412.156,293.138 429.823,319.805 447.5,346.5C 431.664,358.25 415.331,369.25 398.5,379.5C 385.64,358.955 372.64,338.455 359.5,318C 363.089,314.4 365.922,310.233 368,305.5C 369.032,297.537 369.866,289.537 370.5,281.5C 378.22,275.978 386.22,270.978 394.5,266.5 Z"/></g>
<g><path style="opacity:1" fill="#905040" d="M 124.5,282.5 C 132.455,287.948 140.288,293.615 148,299.5C 147.416,306.089 147.416,312.756 148,319.5C 149.315,325.474 152.148,330.474 156.5,334.5C 156.5,334.833 156.5,335.167 156.5,335.5C 142.5,355.5 128.5,375.5 114.5,395.5C 100.5,385.5 86.5,375.5 72.5,365.5C 70.8523,364.19 69.1856,362.857 67.5,361.5C 86.1695,334.846 105.169,308.512 124.5,282.5 Z"/></g>
<g><path style="opacity:1" fill="#b36e59" d="M 286.5,207.5 C 290.36,211.879 293.694,216.713 296.5,222C 309.285,218.62 321.285,220.453 332.5,227.5C 341.368,222.905 349.702,217.572 357.5,211.5C 370.192,229.538 382.525,247.871 394.5,266.5C 386.22,270.978 378.22,275.978 370.5,281.5C 369.866,289.537 369.032,297.537 368,305.5C 365.922,310.233 363.089,314.4 359.5,318C 372.64,338.455 385.64,358.955 398.5,379.5C 383.566,389.644 368.566,399.81 353.5,410C 352.5,410.667 351.5,410.667 350.5,410C 332.44,383.367 314.773,356.533 297.5,329.5C 305.816,324.193 314.149,318.86 322.5,313.5C 326.167,315.333 329.833,317.167 333.5,319C 342.133,322.65 350.466,322.15 358.5,317.5C 338.249,285.996 317.749,254.662 297,223.5C 291.165,227.843 287.332,233.51 285.5,240.5C 285.417,229.484 285.751,218.484 286.5,207.5 Z"/></g>
<g><path style="opacity:1" fill="#61362b" d="M 218.5,349.5 C 200.052,375.788 181.386,401.954 162.5,428C 161.5,428.667 160.5,428.667 159.5,428C 144.621,416.948 129.621,406.115 114.5,395.5C 128.5,375.5 142.5,355.5 156.5,335.5C 169.218,341.302 181.551,340.302 193.5,332.5C 202.035,337.929 210.369,343.596 218.5,349.5 Z"/></g>
</svg>
