<?xml version="1.0" encoding="UTF-8"?>
<!DOCTYPE svg PUBLIC "-//W3C//DTD SVG 1.1//EN" "http://www.w3.org/Graphics/SVG/1.1/DTD/svg11.dtd">
<svg xmlns="http://www.w3.org/2000/svg" version="1.1" width="512px" height="512px" style="shape-rendering:geometricPrecision; text-rendering:geometricPrecision; image-rendering:optimizeQuality; fill-rule:evenodd; clip-rule:evenodd" xmlns:xlink="http://www.w3.org/1999/xlink">
<g><path style="opacity:0.997" fill="#90dc73" d="M 232.5,-0.5 C 247.833,-0.5 263.167,-0.5 278.5,-0.5C 368.144,10.3879 435.644,54.7213 481,132.5C 497.695,163.971 507.861,197.304 511.5,232.5C 511.5,239.5 511.5,246.5 511.5,253.5C 443.119,185.452 374.785,117.452 306.5,49.5C 291.993,33.3776 273.993,23.0443 252.5,18.5C 252.567,19.9587 252.234,21.2921 251.5,22.5C 249.524,29.9515 245.857,36.4515 240.5,42C 231.653,46.5898 222.653,50.9232 213.5,55C 203.979,60.3446 197.646,68.1779 194.5,78.5C 193.514,82.97 193.181,87.6367 193.5,92.5C 191.585,92.2155 189.919,92.5489 188.5,93.5C 176.696,95.8019 169.196,102.802 166,114.5C 165.254,120.551 165.421,126.551 166.5,132.5C 171.612,148.603 175.278,164.937 177.5,181.5C 177.744,200.708 173.911,219.042 166,236.5C 145.21,270.311 147.21,302.644 172,333.5C 175.41,337.416 179.243,340.749 183.5,343.5C 198.506,360.506 214.506,376.506 231.5,391.5C 231.5,407.5 231.5,423.5 231.5,439.5C 215.293,440.353 202.46,447.353 193,460.5C 190.338,465.316 187.505,469.982 184.5,474.5C 183.167,475.167 183.167,475.833 184.5,476.5C 194.833,487.167 205.167,497.833 215.5,508.5C 123.271,491.765 57.7708,440.765 19,355.5C 8.86392,330.621 2.36392,304.954 -0.5,278.5C -0.5,263.167 -0.5,247.833 -0.5,232.5C 10.3875,142.857 54.7208,75.3573 132.5,30C 163.971,13.3053 197.304,3.1386 232.5,-0.5 Z"/></g>
<g><path style="opacity:1" fill="#e9e9e9" d="M 306.5,49.5 C 315.012,62.8881 318.012,77.5548 315.5,93.5C 327.862,95.3586 335.695,102.359 339,114.5C 339.746,120.551 339.579,126.551 338.5,132.5C 309.833,132.5 281.167,132.5 252.5,132.5C 252.832,95.6629 252.498,58.9962 251.5,22.5C 252.234,21.2921 252.567,19.9587 252.5,18.5C 273.993,23.0443 291.993,33.3776 306.5,49.5 Z"/></g>
<g><path style="opacity:1" fill="#fefefe" d="M 251.5,22.5 C 252.498,58.9962 252.832,95.6629 252.5,132.5C 223.833,132.5 195.167,132.5 166.5,132.5C 165.421,126.551 165.254,120.551 166,114.5C 169.196,102.802 176.696,95.8019 188.5,93.5C 190.5,93.5 192.5,93.5 194.5,93.5C 194.5,88.5 194.5,83.5 194.5,78.5C 197.646,68.1779 203.979,60.3446 213.5,55C 222.653,50.9232 231.653,46.5898 240.5,42C 245.857,36.4515 249.524,29.9515 251.5,22.5 Z"/></g>
<g><path style="opacity:1" fill="#4fbf74" d="M 306.5,49.5 C 374.785,117.452 443.119,185.452 511.5,253.5C 511.5,261.833 511.5,270.167 511.5,278.5C 500.612,368.144 456.279,435.644 378.5,481C 347.029,497.695 313.696,507.861 278.5,511.5C 263.167,511.5 247.833,511.5 232.5,511.5C 226.823,510.573 221.156,509.573 215.5,508.5C 205.167,497.833 194.833,487.167 184.5,476.5C 230.172,476.833 275.838,476.5 321.5,475.5C 321.376,474.893 321.043,474.56 320.5,474.5C 314.443,460.275 304.443,449.775 290.5,443C 284.984,441.037 279.317,439.87 273.5,439.5C 273.5,414.167 273.5,388.833 273.5,363.5C 293.59,359.955 311.59,351.789 327.5,339C 340.119,326.925 348.452,312.425 352.5,295.5C 387.621,291.687 408.121,272.353 414,237.5C 416.142,209.952 405.642,188.785 382.5,174C 376.995,171.276 371.328,168.943 365.5,167C 353.876,165.668 342.21,165.168 330.5,165.5C 332.386,154.291 335.052,143.291 338.5,132.5C 339.579,126.551 339.746,120.551 339,114.5C 335.695,102.359 327.862,95.3586 315.5,93.5C 318.012,77.5548 315.012,62.8881 306.5,49.5 Z"/></g>
<g><path style="opacity:1" fill="#d8f3ce" d="M 194.5,78.5 C 194.5,83.5 194.5,88.5 194.5,93.5C 192.5,93.5 190.5,93.5 188.5,93.5C 189.919,92.5489 191.585,92.2155 193.5,92.5C 193.181,87.6367 193.514,82.97 194.5,78.5 Z"/></g>
<g><path style="opacity:1" fill="#fef2c1" d="M 166.5,132.5 C 195.167,132.5 223.833,132.5 252.5,132.5C 252.5,148.5 252.5,164.5 252.5,180.5C 252.5,180.833 252.5,181.167 252.5,181.5C 227.5,181.5 202.5,181.5 177.5,181.5C 175.278,164.937 171.612,148.603 166.5,132.5 Z"/></g>
<g><path style="opacity:1" fill="#fbde83" d="M 252.5,132.5 C 281.167,132.5 309.833,132.5 338.5,132.5C 335.052,143.291 332.386,154.291 330.5,165.5C 329.291,169.618 328.624,173.951 328.5,178.5C 303.394,180.476 278.061,181.143 252.5,180.5C 252.5,164.5 252.5,148.5 252.5,132.5 Z"/></g>
<g><path style="opacity:1" fill="#e8e9e8" d="M 330.5,165.5 C 342.21,165.168 353.876,165.668 365.5,167C 371.328,168.943 376.995,171.276 382.5,174C 405.642,188.785 416.142,209.952 414,237.5C 408.121,272.353 387.621,291.687 352.5,295.5C 352.791,290.335 353.124,285.169 353.5,280C 353.06,273.408 352.06,266.908 350.5,260.5C 365.139,259.374 374.639,251.707 379,237.5C 381.21,219.747 374.044,207.581 357.5,201C 347.839,200.5 338.172,200.334 328.5,200.5C 327.582,194.225 327.249,187.892 327.5,181.5C 328.404,180.791 328.737,179.791 328.5,178.5C 328.624,173.951 329.291,169.618 330.5,165.5 Z"/></g>
<g><path style="opacity:1" fill="#d1b672" d="M 328.5,178.5 C 328.737,179.791 328.404,180.791 327.5,181.5C 302.5,181.5 277.5,181.5 252.5,181.5C 252.5,181.167 252.5,180.833 252.5,180.5C 278.061,181.143 303.394,180.476 328.5,178.5 Z"/></g>
<g><path style="opacity:1" fill="#7f5b5b" d="M 177.5,181.5 C 202.5,181.5 227.5,181.5 252.5,181.5C 252.5,242.167 252.5,302.833 252.5,363.5C 255.167,363.5 257.833,363.5 260.5,363.5C 258.052,364.473 255.385,364.806 252.5,364.5C 245.385,364.55 238.385,363.884 231.5,362.5C 213.723,360.467 197.723,354.134 183.5,343.5C 179.243,340.749 175.41,337.416 172,333.5C 147.21,302.644 145.21,270.311 166,236.5C 173.911,219.042 177.744,200.708 177.5,181.5 Z"/></g>
<g><path style="opacity:1" fill="#563f3f" d="M 252.5,181.5 C 277.5,181.5 302.5,181.5 327.5,181.5C 327.249,187.892 327.582,194.225 328.5,200.5C 329.794,210.469 332.294,220.135 336,229.5C 340.887,239.934 345.72,250.268 350.5,260.5C 352.06,266.908 353.06,273.408 353.5,280C 353.124,285.169 352.791,290.335 352.5,295.5C 348.452,312.425 340.119,326.925 327.5,339C 311.59,351.789 293.59,359.955 273.5,363.5C 269.167,363.5 264.833,363.5 260.5,363.5C 257.833,363.5 255.167,363.5 252.5,363.5C 252.5,302.833 252.5,242.167 252.5,181.5 Z"/></g>
<g><path style="opacity:1" fill="#50be74" d="M 328.5,200.5 C 338.172,200.334 347.839,200.5 357.5,201C 374.044,207.581 381.21,219.747 379,237.5C 374.639,251.707 365.139,259.374 350.5,260.5C 345.72,250.268 340.887,239.934 336,229.5C 332.294,220.135 329.794,210.469 328.5,200.5 Z"/></g>
<g><path style="opacity:1" fill="#51be73" d="M 183.5,343.5 C 197.723,354.134 213.723,360.467 231.5,362.5C 231.5,372.167 231.5,381.833 231.5,391.5C 214.506,376.506 198.506,360.506 183.5,343.5 Z"/></g>
<g><path style="opacity:1" fill="#e7e9e7" d="M 231.5,362.5 C 238.385,363.884 245.385,364.55 252.5,364.5C 252.5,389.5 252.5,414.5 252.5,439.5C 245.5,439.5 238.5,439.5 231.5,439.5C 231.5,423.5 231.5,407.5 231.5,391.5C 231.5,381.833 231.5,372.167 231.5,362.5 Z"/></g>
<g><path style="opacity:1" fill="#d3d5d3" d="M 260.5,363.5 C 264.833,363.5 269.167,363.5 273.5,363.5C 273.5,388.833 273.5,414.167 273.5,439.5C 266.5,439.5 259.5,439.5 252.5,439.5C 252.5,414.5 252.5,389.5 252.5,364.5C 255.385,364.806 258.052,364.473 260.5,363.5 Z"/></g>
<g><path style="opacity:1" fill="#fefefe" d="M 231.5,439.5 C 238.5,439.5 245.5,439.5 252.5,439.5C 252.5,451.5 252.5,463.5 252.5,475.5C 229.661,475.831 206.994,475.497 184.5,474.5C 187.505,469.982 190.338,465.316 193,460.5C 202.46,447.353 215.293,440.353 231.5,439.5 Z"/></g>
<g><path style="opacity:1" fill="#e9e9e9" d="M 252.5,439.5 C 259.5,439.5 266.5,439.5 273.5,439.5C 279.317,439.87 284.984,441.037 290.5,443C 304.443,449.775 314.443,460.275 320.5,474.5C 298.006,475.497 275.339,475.831 252.5,475.5C 252.5,463.5 252.5,451.5 252.5,439.5 Z"/></g>
<g><path style="opacity:1" fill="#8fd3a6" d="M 184.5,474.5 C 206.994,475.497 229.661,475.831 252.5,475.5C 275.339,475.831 298.006,475.497 320.5,474.5C 321.043,474.56 321.376,474.893 321.5,475.5C 275.838,476.5 230.172,476.833 184.5,476.5C 183.167,475.833 183.167,475.167 184.5,474.5 Z"/></g>
</svg>
