<?xml version="1.0" encoding="UTF-8"?>
<!DOCTYPE svg PUBLIC "-//W3C//DTD SVG 1.1//EN" "http://www.w3.org/Graphics/SVG/1.1/DTD/svg11.dtd">
<svg xmlns="http://www.w3.org/2000/svg" version="1.1" width="512px" height="512px" style="shape-rendering:geometricPrecision; text-rendering:geometricPrecision; image-rendering:optimizeQuality; fill-rule:evenodd; clip-rule:evenodd" xmlns:xlink="http://www.w3.org/1999/xlink">
<g><path style="opacity:0.994" fill="#fecd00" d="M 232.5,-0.5 C 247.833,-0.5 263.167,-0.5 278.5,-0.5C 362.756,9.30468 427.923,49.638 474,120.5C 487.742,142.984 497.909,166.984 504.5,192.5C 503.761,192.631 503.094,192.464 502.5,192C 455.632,144.965 408.632,98.1319 361.5,51.5C 354.018,50.508 346.352,50.1746 338.5,50.5C 330.833,50.5 323.167,50.5 315.5,50.5C 314.505,62.3217 314.172,74.3217 314.5,86.5C 302.5,74.8333 290.5,63.1667 278.5,51.5C 271.018,50.508 263.352,50.1746 255.5,50.5C 247.833,50.5 240.167,50.5 232.5,50.5C 231.669,61.9928 231.169,73.6595 231,85.5C 219.298,73.6313 207.465,61.9646 195.5,50.5C 187.833,50.5 180.167,50.5 172.5,50.5C 164.833,50.5 157.167,50.5 149.5,50.5C 149.5,74.5 149.5,98.5 149.5,122.5C 149.832,132.522 149.499,142.522 148.5,152.5C 127.896,161.711 115.396,177.378 111,199.5C 110.168,281.001 110.334,362.334 111.5,443.5C 127.132,459.632 142.965,475.632 159,491.5C 159.464,492.094 159.631,492.761 159.5,493.5C 90.9489,464.115 42.7823,414.782 15,345.5C 7.11831,323.65 1.95164,301.317 -0.5,278.5C -0.5,263.167 -0.5,247.833 -0.5,232.5C 10.3875,142.857 54.7208,75.3573 132.5,30C 163.971,13.3053 197.304,3.1386 232.5,-0.5 Z"/></g>
<g><path style="opacity:1" fill="#565a65" d="M 172.5,50.5 C 172.5,74.1667 172.5,97.8333 172.5,121.5C 180.167,121.5 187.833,121.5 195.5,121.5C 195.5,121.833 195.5,122.167 195.5,122.5C 187.833,122.5 180.167,122.5 172.5,122.5C 164.833,122.5 157.167,122.5 149.5,122.5C 149.5,98.5 149.5,74.5 149.5,50.5C 157.167,50.5 164.833,50.5 172.5,50.5 Z"/></g>
<g><path style="opacity:1" fill="#32393f" d="M 172.5,50.5 C 180.167,50.5 187.833,50.5 195.5,50.5C 195.5,74.1667 195.5,97.8333 195.5,121.5C 187.833,121.5 180.167,121.5 172.5,121.5C 172.5,97.8333 172.5,74.1667 172.5,50.5 Z"/></g>
<g><path style="opacity:1" fill="#575965" d="M 232.5,50.5 C 240.167,50.5 247.833,50.5 255.5,50.5C 255.5,74.1667 255.5,97.8333 255.5,121.5C 263.167,121.5 270.833,121.5 278.5,121.5C 278.5,121.833 278.5,122.167 278.5,122.5C 270.833,122.5 263.167,122.5 255.5,122.5C 247.833,122.5 240.167,122.5 232.5,122.5C 232.5,98.5 232.5,74.5 232.5,50.5 Z"/></g>
<g><path style="opacity:1" fill="#333940" d="M 255.5,50.5 C 263.352,50.1746 271.018,50.508 278.5,51.5C 278.5,74.8333 278.5,98.1667 278.5,121.5C 270.833,121.5 263.167,121.5 255.5,121.5C 255.5,97.8333 255.5,74.1667 255.5,50.5 Z"/></g>
<g><path style="opacity:1" fill="#545b66" d="M 315.5,50.5 C 323.167,50.5 330.833,50.5 338.5,50.5C 338.5,74.1667 338.5,97.8333 338.5,121.5C 346.167,121.5 353.833,121.5 361.5,121.5C 361.5,121.833 361.5,122.167 361.5,122.5C 353.833,122.5 346.167,122.5 338.5,122.5C 330.833,122.5 323.167,122.5 315.5,122.5C 315.5,98.5 315.5,74.5 315.5,50.5 Z"/></g>
<g><path style="opacity:1" fill="#333940" d="M 338.5,50.5 C 346.352,50.1746 354.018,50.508 361.5,51.5C 361.5,74.8333 361.5,98.1667 361.5,121.5C 353.833,121.5 346.167,121.5 338.5,121.5C 338.5,97.8333 338.5,74.1667 338.5,50.5 Z"/></g>
<g><path style="opacity:1" fill="#fea200" d="M 278.5,51.5 C 290.5,63.1667 302.5,74.8333 314.5,86.5C 314.833,108.51 314.5,130.51 313.5,152.5C 307.405,155.202 302.071,158.869 297.5,163.5C 292.025,159.035 286.025,155.368 279.5,152.5C 278.501,142.522 278.168,132.522 278.5,122.5C 278.5,122.167 278.5,121.833 278.5,121.5C 278.5,98.1667 278.5,74.8333 278.5,51.5 Z"/></g>
<g><path style="opacity:1" fill="#fea300" d="M 361.5,51.5 C 408.632,98.1319 455.632,144.965 502.5,192C 503.094,192.464 503.761,192.631 504.5,192.5C 507.501,205.848 509.835,219.181 511.5,232.5C 511.5,247.833 511.5,263.167 511.5,278.5C 500.612,368.144 456.279,435.644 378.5,481C 347.029,497.695 313.696,507.861 278.5,511.5C 263.167,511.5 247.833,511.5 232.5,511.5C 207.451,508.821 183.118,502.821 159.5,493.5C 159.631,492.761 159.464,492.094 159,491.5C 142.965,475.632 127.132,459.632 111.5,443.5C 131.833,443.5 152.167,443.5 172.5,443.5C 179.5,443.5 186.5,443.5 193.5,443.5C 214.167,443.5 234.833,443.5 255.5,443.5C 276.5,443.5 297.5,443.5 318.5,443.5C 325.167,443.5 331.833,443.5 338.5,443.5C 359.5,443.5 380.5,443.5 401.5,443.5C 401.974,362.145 401.474,280.812 400,199.5C 395.589,177.328 383.089,161.662 362.5,152.5C 361.501,142.522 361.168,132.522 361.5,122.5C 361.5,122.167 361.5,121.833 361.5,121.5C 361.5,98.1667 361.5,74.8333 361.5,51.5 Z"/></g>
<g><path style="opacity:1" fill="#fda203" d="M 195.5,50.5 C 207.465,61.9646 219.298,73.6313 231,85.5C 231.169,73.6595 231.669,61.9928 232.5,50.5C 232.5,74.5 232.5,98.5 232.5,122.5C 232.832,132.522 232.499,142.522 231.5,152.5C 224.975,155.368 218.975,159.035 213.5,163.5C 208.682,158.712 203.015,155.045 196.5,152.5C 195.501,142.522 195.168,132.522 195.5,122.5C 195.5,122.167 195.5,121.833 195.5,121.5C 195.5,97.8333 195.5,74.1667 195.5,50.5 Z"/></g>
<g><path style="opacity:1" fill="#ff9b86" d="M 149.5,122.5 C 157.167,122.5 164.833,122.5 172.5,122.5C 172.5,159.5 172.5,196.5 172.5,233.5C 158.656,233.171 144.99,233.504 131.5,234.5C 131.5,286.833 131.5,339.167 131.5,391.5C 144.99,392.496 158.656,392.829 172.5,392.5C 172.5,409.5 172.5,426.5 172.5,443.5C 152.167,443.5 131.833,443.5 111.5,443.5C 110.334,362.334 110.168,281.001 111,199.5C 115.396,177.378 127.896,161.711 148.5,152.5C 149.499,142.522 149.832,132.522 149.5,122.5 Z"/></g>
<g><path style="opacity:1" fill="#ff6c51" d="M 172.5,122.5 C 180.167,122.5 187.833,122.5 195.5,122.5C 195.168,132.522 195.501,142.522 196.5,152.5C 203.015,155.045 208.682,158.712 213.5,163.5C 201.902,174.696 195.069,188.363 193,204.5C 192.5,214.161 192.334,223.828 192.5,233.5C 185.833,233.5 179.167,233.5 172.5,233.5C 172.5,196.5 172.5,159.5 172.5,122.5 Z"/></g>
<g><path style="opacity:1" fill="#fe583e" d="M 232.5,122.5 C 240.167,122.5 247.833,122.5 255.5,122.5C 255.5,159.5 255.5,196.5 255.5,233.5C 241.656,233.171 227.99,233.504 214.5,234.5C 214.5,286.833 214.5,339.167 214.5,391.5C 228.167,391.5 241.833,391.5 255.5,391.5C 269.167,391.5 282.833,391.5 296.5,391.5C 283.01,392.496 269.344,392.829 255.5,392.5C 255.5,409.5 255.5,426.5 255.5,443.5C 234.833,443.5 214.167,443.5 193.5,443.5C 193.5,426.5 193.5,409.5 193.5,392.5C 193.832,339.331 193.499,286.331 192.5,233.5C 192.334,223.828 192.5,214.161 193,204.5C 195.069,188.363 201.902,174.696 213.5,163.5C 218.975,159.035 224.975,155.368 231.5,152.5C 232.499,142.522 232.832,132.522 232.5,122.5 Z"/></g>
<g><path style="opacity:1" fill="#f82a16" d="M 255.5,122.5 C 263.167,122.5 270.833,122.5 278.5,122.5C 278.168,132.522 278.501,142.522 279.5,152.5C 286.025,155.368 292.025,159.035 297.5,163.5C 310.345,175.684 317.012,190.684 317.5,208.5C 317.174,217.349 317.507,226.016 318.5,234.5C 318.5,286.833 318.5,339.167 318.5,391.5C 318.5,408.833 318.5,426.167 318.5,443.5C 297.5,443.5 276.5,443.5 255.5,443.5C 255.5,426.5 255.5,409.5 255.5,392.5C 269.344,392.829 283.01,392.496 296.5,391.5C 296.5,338.833 296.5,286.167 296.5,233.5C 282.833,233.5 269.167,233.5 255.5,233.5C 255.5,196.5 255.5,159.5 255.5,122.5 Z"/></g>
<g><path style="opacity:1" fill="#2ad67f" d="M 315.5,50.5 C 315.5,74.5 315.5,98.5 315.5,122.5C 323.167,122.5 330.833,122.5 338.5,122.5C 338.5,159.5 338.5,196.5 338.5,233.5C 331.833,233.5 325.167,233.5 318.5,233.5C 318.826,224.983 318.493,216.65 317.5,208.5C 317.012,190.684 310.345,175.684 297.5,163.5C 302.071,158.869 307.405,155.202 313.5,152.5C 314.5,130.51 314.833,108.51 314.5,86.5C 314.172,74.3217 314.505,62.3217 315.5,50.5 Z"/></g>
<g><path style="opacity:1" fill="#30c37e" d="M 338.5,122.5 C 346.167,122.5 353.833,122.5 361.5,122.5C 361.168,132.522 361.501,142.522 362.5,152.5C 383.089,161.662 395.589,177.328 400,199.5C 401.474,280.812 401.974,362.145 401.5,443.5C 380.5,443.5 359.5,443.5 338.5,443.5C 338.5,426.167 338.5,408.833 338.5,391.5C 352.167,391.5 365.833,391.5 379.5,391.5C 379.5,339.167 379.5,286.833 379.5,234.5C 366.01,233.504 352.344,233.171 338.5,233.5C 338.5,196.5 338.5,159.5 338.5,122.5 Z"/></g>
<g><path style="opacity:1" fill="#99d6ba" d="M 317.5,208.5 C 318.493,216.65 318.826,224.983 318.5,233.5C 325.167,233.5 331.833,233.5 338.5,233.5C 352.344,233.171 366.01,233.504 379.5,234.5C 365.833,234.5 352.167,234.5 338.5,234.5C 331.833,234.5 325.167,234.5 318.5,234.5C 317.507,226.016 317.174,217.349 317.5,208.5 Z"/></g>
<g><path style="opacity:1" fill="#f2f5fb" d="M 131.5,234.5 C 145.167,234.5 158.833,234.5 172.5,234.5C 172.5,286.833 172.5,339.167 172.5,391.5C 158.833,391.5 145.167,391.5 131.5,391.5C 131.5,339.167 131.5,286.833 131.5,234.5 Z"/></g>
<g><path style="opacity:1" fill="#dbe1ea" d="M 172.5,234.5 C 179.167,234.5 185.833,234.5 192.5,234.5C 192.5,286.833 192.5,339.167 192.5,391.5C 185.833,391.5 179.167,391.5 172.5,391.5C 172.5,339.167 172.5,286.833 172.5,234.5 Z"/></g>
<g><path style="opacity:1" fill="#fffefe" d="M 214.5,234.5 C 228.167,234.5 241.833,234.5 255.5,234.5C 255.5,286.833 255.5,339.167 255.5,391.5C 241.833,391.5 228.167,391.5 214.5,391.5C 214.5,339.167 214.5,286.833 214.5,234.5 Z"/></g>
<g><path style="opacity:1" fill="#e9ecf4" d="M 214.5,234.5 C 227.99,233.504 241.656,233.171 255.5,233.5C 269.167,233.5 282.833,233.5 296.5,233.5C 296.5,286.167 296.5,338.833 296.5,391.5C 282.833,391.5 269.167,391.5 255.5,391.5C 255.5,339.167 255.5,286.833 255.5,234.5C 241.833,234.5 228.167,234.5 214.5,234.5 Z"/></g>
<g><path style="opacity:1" fill="#f1f6fb" d="M 318.5,234.5 C 325.167,234.5 331.833,234.5 338.5,234.5C 338.5,286.833 338.5,339.167 338.5,391.5C 331.833,391.5 325.167,391.5 318.5,391.5C 318.5,339.167 318.5,286.833 318.5,234.5 Z"/></g>
<g><path style="opacity:1" fill="#dce1eb" d="M 338.5,234.5 C 352.167,234.5 365.833,234.5 379.5,234.5C 379.5,286.833 379.5,339.167 379.5,391.5C 365.833,391.5 352.167,391.5 338.5,391.5C 338.5,339.167 338.5,286.833 338.5,234.5 Z"/></g>
<g><path style="opacity:1" fill="#efada6" d="M 131.5,234.5 C 144.99,233.504 158.656,233.171 172.5,233.5C 179.167,233.5 185.833,233.5 192.5,233.5C 193.499,286.331 193.832,339.331 193.5,392.5C 186.5,392.5 179.5,392.5 172.5,392.5C 158.656,392.829 144.99,392.496 131.5,391.5C 145.167,391.5 158.833,391.5 172.5,391.5C 179.167,391.5 185.833,391.5 192.5,391.5C 192.5,339.167 192.5,286.833 192.5,234.5C 185.833,234.5 179.167,234.5 172.5,234.5C 158.833,234.5 145.167,234.5 131.5,234.5 Z"/></g>
<g><path style="opacity:1" fill="#ff6b51" d="M 172.5,392.5 C 179.5,392.5 186.5,392.5 193.5,392.5C 193.5,409.5 193.5,426.5 193.5,443.5C 186.5,443.5 179.5,443.5 172.5,443.5C 172.5,426.5 172.5,409.5 172.5,392.5 Z"/></g>
<g><path style="opacity:1" fill="#20d782" d="M 318.5,391.5 C 325.167,391.5 331.833,391.5 338.5,391.5C 338.5,408.833 338.5,426.167 338.5,443.5C 331.833,443.5 325.167,443.5 318.5,443.5C 318.5,426.167 318.5,408.833 318.5,391.5 Z"/></g>
</svg>
