<?xml version="1.0" encoding="UTF-8"?>
<!DOCTYPE svg PUBLIC "-//W3C//DTD SVG 1.1//EN" "http://www.w3.org/Graphics/SVG/1.1/DTD/svg11.dtd">
<svg xmlns="http://www.w3.org/2000/svg" version="1.1" width="512px" height="512px" style="shape-rendering:geometricPrecision; text-rendering:geometricPrecision; image-rendering:optimizeQuality; fill-rule:evenodd; clip-rule:evenodd" xmlns:xlink="http://www.w3.org/1999/xlink">
<g><path style="opacity:0.996" fill="#01b4fe" d="M 232.5,-0.5 C 247.833,-0.5 263.167,-0.5 278.5,-0.5C 368.144,10.3879 435.644,54.7213 481,132.5C 497.695,163.971 507.861,197.304 511.5,232.5C 511.5,247.833 511.5,263.167 511.5,278.5C 510.833,281.5 510.167,284.5 509.5,287.5C 476.868,254.368 444.035,221.368 411,188.5C 410.83,197.343 410.33,206.01 409.5,214.5C 409.5,205.5 409.5,196.5 409.5,187.5C 404.167,187.5 398.833,187.5 393.5,187.5C 364.55,156.883 334.884,126.883 304.5,97.5C 304.389,96.8826 304.056,96.3826 303.5,96C 297.788,94.5945 292.121,93.0945 286.5,91.5C 280.425,90.1476 274.425,88.4809 268.5,86.5C 267.056,88.6079 266.39,90.9412 266.5,93.5C 264.833,93.5 263.167,93.5 261.5,93.5C 259.675,100.465 258.009,107.465 256.5,114.5C 257.5,114.5 258.5,114.5 259.5,114.5C 255.972,130.279 251.972,145.945 247.5,161.5C 246.147,167.576 244.481,173.576 242.5,179.5C 222.556,180.953 210.056,191.286 205,210.5C 203.829,215.186 202.662,219.852 201.5,224.5C 176.833,224.5 152.167,224.5 127.5,224.5C 129.079,234.797 130.412,245.13 131.5,255.5C 127.167,255.5 122.833,255.5 118.5,255.5C 118.5,261.5 118.5,267.5 118.5,273.5C 123.833,273.5 129.167,273.5 134.5,273.5C 134.5,273.833 134.5,274.167 134.5,274.5C 129.489,274.334 124.489,274.501 119.5,275C 125.035,280.703 130.702,286.203 136.5,291.5C 140.367,316.904 144.034,342.238 147.5,367.5C 148.649,379.374 150.315,391.04 152.5,402.5C 188.5,438.833 224.5,475.167 260.5,511.5C 251.167,511.5 241.833,511.5 232.5,511.5C 142.856,500.612 75.3562,456.279 30,378.5C 13.3053,347.029 3.1386,313.696 -0.5,278.5C -0.5,263.167 -0.5,247.833 -0.5,232.5C 10.3875,142.857 54.7208,75.3573 132.5,30C 163.971,13.3053 197.304,3.1386 232.5,-0.5 Z"/></g>
<g><path style="opacity:1" fill="#ac2b03" d="M 286.5,91.5 C 279.378,116.43 272.378,141.43 265.5,166.5C 259.4,165.142 253.4,163.475 247.5,161.5C 251.972,145.945 255.972,130.279 259.5,114.5C 258.5,114.5 257.5,114.5 256.5,114.5C 258.009,107.465 259.675,100.465 261.5,93.5C 263.167,93.5 264.833,93.5 266.5,93.5C 266.39,90.9412 267.056,88.6079 268.5,86.5C 274.425,88.4809 280.425,90.1476 286.5,91.5 Z"/></g>
<g><path style="opacity:1" fill="#8e1f03" d="M 286.5,91.5 C 292.121,93.0945 297.788,94.5945 303.5,96C 304.056,96.3826 304.389,96.8826 304.5,97.5C 303.838,99.4705 303.172,101.47 302.5,103.5C 304.149,104.148 305.482,105.148 306.5,106.5C 304.512,112.783 302.679,119.116 301,125.5C 299.701,125.966 298.201,125.966 296.5,125.5C 292.612,141.397 288.278,157.064 283.5,172.5C 277.692,170.208 271.692,168.208 265.5,166.5C 272.378,141.43 279.378,116.43 286.5,91.5 Z"/></g>
<g><path style="opacity:1" fill="#0199fb" d="M 304.5,97.5 C 334.884,126.883 364.55,156.883 393.5,187.5C 386.833,187.5 380.167,187.5 373.5,187.5C 361.167,187.5 348.833,187.5 336.5,187.5C 336.5,196.5 336.5,205.5 336.5,214.5C 336.056,236.212 336.556,257.878 338,279.5C 342.419,292.27 350.919,300.936 363.5,305.5C 363.5,331.5 363.5,357.5 363.5,383.5C 360.167,383.5 356.833,383.5 353.5,383.5C 353.5,389.833 353.5,396.167 353.5,402.5C 366.5,402.5 379.5,402.5 392.5,402.5C 392.5,396.167 392.5,389.833 392.5,383.5C 389.167,383.5 385.833,383.5 382.5,383.5C 382.5,357.5 382.5,331.5 382.5,305.5C 395.057,301.445 403.557,293.111 408,280.5C 409.456,258.553 409.956,236.553 409.5,214.5C 410.33,206.01 410.83,197.343 411,188.5C 444.035,221.368 476.868,254.368 509.5,287.5C 497.959,367.825 458.293,429.991 390.5,474C 355.868,494.822 318.535,507.322 278.5,511.5C 272.5,511.5 266.5,511.5 260.5,511.5C 224.5,475.167 188.5,438.833 152.5,402.5C 176.167,402.5 199.833,402.5 223.5,402.5C 247.167,402.5 270.833,402.5 294.5,402.5C 296.259,390.184 297.926,377.851 299.5,365.5C 303.835,334.825 308.168,304.158 312.5,273.5C 317.833,273.5 323.167,273.5 328.5,273.5C 328.5,267.5 328.5,261.5 328.5,255.5C 324.167,255.5 319.833,255.5 315.5,255.5C 316.407,245.155 317.407,234.822 318.5,224.5C 311.833,224.5 305.167,224.5 298.5,224.5C 298.859,209.548 292.693,198.214 280,190.5C 280.623,184.444 281.79,178.444 283.5,172.5C 288.278,157.064 292.612,141.397 296.5,125.5C 298.201,125.966 299.701,125.966 301,125.5C 302.679,119.116 304.512,112.783 306.5,106.5C 305.482,105.148 304.149,104.148 302.5,103.5C 303.172,101.47 303.838,99.4705 304.5,97.5 Z"/></g>
<g><path style="opacity:1" fill="#fd8902" d="M 247.5,161.5 C 253.4,163.475 259.4,165.142 265.5,166.5C 260.179,185.787 255.179,205.12 250.5,224.5C 241.5,224.5 232.5,224.5 223.5,224.5C 216.167,224.5 208.833,224.5 201.5,224.5C 202.662,219.852 203.829,215.186 205,210.5C 210.056,191.286 222.556,180.953 242.5,179.5C 244.481,173.576 246.147,167.576 247.5,161.5 Z"/></g>
<g><path style="opacity:1" fill="#fe6900" d="M 265.5,166.5 C 271.692,168.208 277.692,170.208 283.5,172.5C 281.79,178.444 280.623,184.444 280,190.5C 292.693,198.214 298.859,209.548 298.5,224.5C 282.5,224.5 266.5,224.5 250.5,224.5C 255.179,205.12 260.179,185.787 265.5,166.5 Z"/></g>
<g><path style="opacity:1" fill="#d8e2ec" d="M 373.5,187.5 C 373.5,196.5 373.5,205.5 373.5,214.5C 361.167,214.5 348.833,214.5 336.5,214.5C 336.5,205.5 336.5,196.5 336.5,187.5C 348.833,187.5 361.167,187.5 373.5,187.5 Z"/></g>
<g><path style="opacity:1" fill="#cad3e3" d="M 373.5,187.5 C 380.167,187.5 386.833,187.5 393.5,187.5C 398.833,187.5 404.167,187.5 409.5,187.5C 409.5,196.5 409.5,205.5 409.5,214.5C 397.5,214.5 385.5,214.5 373.5,214.5C 373.5,205.5 373.5,196.5 373.5,187.5 Z"/></g>
<g><path style="opacity:1" fill="#e8336d" d="M 336.5,214.5 C 348.833,214.5 361.167,214.5 373.5,214.5C 373.5,244.833 373.5,275.167 373.5,305.5C 371.833,305.5 370.167,305.5 368.5,305.5C 366.833,305.5 365.167,305.5 363.5,305.5C 350.919,300.936 342.419,292.27 338,279.5C 336.556,257.878 336.056,236.212 336.5,214.5 Z"/></g>
<g><path style="opacity:1" fill="#b12e65" d="M 373.5,214.5 C 385.5,214.5 397.5,214.5 409.5,214.5C 409.956,236.553 409.456,258.553 408,280.5C 403.557,293.111 395.057,301.445 382.5,305.5C 379.482,305.704 376.482,306.037 373.5,306.5C 371.585,306.784 369.919,306.451 368.5,305.5C 370.167,305.5 371.833,305.5 373.5,305.5C 373.5,275.167 373.5,244.833 373.5,214.5 Z"/></g>
<g><path style="opacity:1" fill="#d55a2f" d="M 201.5,224.5 C 208.833,224.5 216.167,224.5 223.5,224.5C 223.5,271.5 223.5,318.5 223.5,365.5C 223.5,365.833 223.5,366.167 223.5,366.5C 197.995,366.169 172.661,366.502 147.5,367.5C 144.034,342.238 140.367,316.904 136.5,291.5C 136.079,285.798 135.412,280.131 134.5,274.5C 134.5,274.167 134.5,273.833 134.5,273.5C 144.5,273.5 154.5,273.5 164.5,273.5C 164.5,267.5 164.5,261.5 164.5,255.5C 153.5,255.5 142.5,255.5 131.5,255.5C 130.412,245.13 129.079,234.797 127.5,224.5C 152.167,224.5 176.833,224.5 201.5,224.5 Z"/></g>
<g><path style="opacity:1" fill="#a03914" d="M 223.5,224.5 C 232.5,224.5 241.5,224.5 250.5,224.5C 266.5,224.5 282.5,224.5 298.5,224.5C 305.167,224.5 311.833,224.5 318.5,224.5C 317.407,234.822 316.407,245.155 315.5,255.5C 304.167,255.5 292.833,255.5 281.5,255.5C 281.5,261.5 281.5,267.5 281.5,273.5C 291.833,273.5 302.167,273.5 312.5,273.5C 308.168,304.158 303.835,334.825 299.5,365.5C 274.167,365.5 248.833,365.5 223.5,365.5C 223.5,318.5 223.5,271.5 223.5,224.5 Z"/></g>
<g><path style="opacity:1" fill="#fede81" d="M 131.5,255.5 C 142.5,255.5 153.5,255.5 164.5,255.5C 164.5,261.5 164.5,267.5 164.5,273.5C 154.5,273.5 144.5,273.5 134.5,273.5C 129.167,273.5 123.833,273.5 118.5,273.5C 118.5,267.5 118.5,261.5 118.5,255.5C 122.833,255.5 127.167,255.5 131.5,255.5 Z"/></g>
<g><path style="opacity:1" fill="#fdbe7b" d="M 315.5,255.5 C 319.833,255.5 324.167,255.5 328.5,255.5C 328.5,261.5 328.5,267.5 328.5,273.5C 323.167,273.5 317.833,273.5 312.5,273.5C 302.167,273.5 291.833,273.5 281.5,273.5C 281.5,267.5 281.5,261.5 281.5,255.5C 292.833,255.5 304.167,255.5 315.5,255.5 Z"/></g>
<g><path style="opacity:1" fill="#2397f4" d="M 134.5,274.5 C 135.412,280.131 136.079,285.798 136.5,291.5C 130.702,286.203 125.035,280.703 119.5,275C 124.489,274.501 129.489,274.334 134.5,274.5 Z"/></g>
<g><path style="opacity:1" fill="#c5d2e3" d="M 363.5,305.5 C 365.167,305.5 366.833,305.5 368.5,305.5C 369.919,306.451 371.585,306.784 373.5,306.5C 373.5,338.167 373.5,369.833 373.5,401.5C 367.167,401.5 360.833,401.5 354.5,401.5C 354.5,395.833 354.5,390.167 354.5,384.5C 357.713,384.81 360.713,384.477 363.5,383.5C 363.5,357.5 363.5,331.5 363.5,305.5 Z"/></g>
<g><path style="opacity:1" fill="#b6c7d6" d="M 382.5,305.5 C 382.5,331.5 382.5,357.5 382.5,383.5C 385.833,383.5 389.167,383.5 392.5,383.5C 392.5,389.833 392.5,396.167 392.5,402.5C 379.5,402.5 366.5,402.5 353.5,402.5C 353.5,396.167 353.5,389.833 353.5,383.5C 356.833,383.5 360.167,383.5 363.5,383.5C 360.713,384.477 357.713,384.81 354.5,384.5C 354.5,390.167 354.5,395.833 354.5,401.5C 360.833,401.5 367.167,401.5 373.5,401.5C 373.5,369.833 373.5,338.167 373.5,306.5C 376.482,306.037 379.482,305.704 382.5,305.5 Z"/></g>
<g><path style="opacity:1" fill="#ac2902" d="M 223.5,366.5 C 223.5,378.5 223.5,390.5 223.5,402.5C 199.833,402.5 176.167,402.5 152.5,402.5C 150.315,391.04 148.649,379.374 147.5,367.5C 172.661,366.502 197.995,366.169 223.5,366.5 Z"/></g>
<g><path style="opacity:1" fill="#8d1e02" d="M 223.5,365.5 C 248.833,365.5 274.167,365.5 299.5,365.5C 297.926,377.851 296.259,390.184 294.5,402.5C 270.833,402.5 247.167,402.5 223.5,402.5C 223.5,390.5 223.5,378.5 223.5,366.5C 223.5,366.167 223.5,365.833 223.5,365.5 Z"/></g>
</svg>
