<?xml version="1.0" encoding="UTF-8"?>
<!DOCTYPE svg PUBLIC "-//W3C//DTD SVG 1.1//EN" "http://www.w3.org/Graphics/SVG/1.1/DTD/svg11.dtd">
<svg xmlns="http://www.w3.org/2000/svg" version="1.1" width="512px" height="512px" style="shape-rendering:geometricPrecision; text-rendering:geometricPrecision; image-rendering:optimizeQuality; fill-rule:evenodd; clip-rule:evenodd" xmlns:xlink="http://www.w3.org/1999/xlink">
<g><path style="opacity:0.998" fill="#a4f1ed" d="M 233.5,-0.5 C 248.5,-0.5 263.5,-0.5 278.5,-0.5C 366.197,10.2481 432.864,53.2481 478.5,128.5C 463.174,154.167 444.174,176.834 421.5,196.5C 416.619,189.44 411.119,182.774 405,176.5C 399.167,182.333 393.333,188.167 387.5,194C 393.151,199.476 397.818,205.643 401.5,212.5C 391.852,218.661 381.852,224.328 371.5,229.5C 366.917,223.208 360.917,218.875 353.5,216.5C 348.194,186.875 332.361,164.875 306,150.5C 305.832,130.329 305.332,110.329 304.5,90.5C 288.167,90.5 271.833,90.5 255.5,90.5C 239.167,90.5 222.833,90.5 206.5,90.5C 206.5,110.5 206.5,130.5 206.5,150.5C 179.515,164.423 163.181,186.423 157.5,216.5C 150.38,219.287 144.38,223.62 139.5,229.5C 129.148,224.328 119.148,218.661 109.5,212.5C 113.239,205.925 117.573,199.759 122.5,194C 117.379,187.877 111.879,182.043 106,176.5C 99.8806,182.774 94.3806,189.44 89.5,196.5C 66.7966,176.809 47.7966,154.142 32.5,128.5C 78.2721,52.7796 145.272,9.77955 233.5,-0.5 Z"/></g>
<g><path style="opacity:1" fill="#bdeafd" d="M 255.5,90.5 C 255.5,107.167 255.5,123.833 255.5,140.5C 238.335,139.999 222.002,143.333 206.5,150.5C 206.5,130.5 206.5,110.5 206.5,90.5C 222.833,90.5 239.167,90.5 255.5,90.5 Z"/></g>
<g><path style="opacity:1" fill="#8ab8ec" d="M 255.5,90.5 C 271.833,90.5 288.167,90.5 304.5,90.5C 304.5,110.167 304.5,129.833 304.5,149.5C 288.779,143.29 272.446,140.29 255.5,140.5C 255.5,123.833 255.5,107.167 255.5,90.5 Z"/></g>
<g><path style="opacity:0.998" fill="#6bb4c8" d="M 32.5,128.5 C 47.7966,154.142 66.7966,176.809 89.5,196.5C 63.0096,244.396 64.5096,291.396 94,337.5C 97.5264,342.539 101.526,347.206 106,351.5C 111.879,345.957 117.379,340.123 122.5,334C 91.3883,296.339 87.055,255.839 109.5,212.5C 119.148,218.661 129.148,224.328 139.5,229.5C 130.353,243.954 130.187,258.62 139,273.5C 143.587,279.288 149.254,283.622 156,286.5C 156.173,292.016 156.673,297.349 157.5,302.5C 157.906,327.529 158.906,352.529 160.5,377.5C 116.997,377.168 73.6635,377.501 30.5,378.5C 13.3569,347.256 3.02353,313.923 -0.5,278.5C -0.5,263.167 -0.5,247.833 -0.5,232.5C 3.24393,195.599 14.2439,160.932 32.5,128.5 Z"/></g>
<g><path style="opacity:0.998" fill="#6bb4c8" d="M 478.5,128.5 C 496.756,160.932 507.756,195.599 511.5,232.5C 511.5,247.833 511.5,263.167 511.5,278.5C 507.87,313.334 497.87,346.334 481.5,377.5C 437.5,377.5 393.5,377.5 349.5,377.5C 352.238,347.231 353.905,316.898 354.5,286.5C 373.572,278.031 381.405,263.365 378,242.5C 376.48,237.822 374.313,233.488 371.5,229.5C 381.852,224.328 391.852,218.661 401.5,212.5C 423.937,255.844 419.603,296.344 388.5,334C 393.621,340.123 399.121,345.957 405,351.5C 439.111,313.616 448.445,270.283 433,221.5C 429.686,212.875 425.852,204.542 421.5,196.5C 444.174,176.834 463.174,154.167 478.5,128.5 Z"/></g>
<g><path style="opacity:1" fill="#bce9fc" d="M 304.5,90.5 C 305.332,110.329 305.832,130.329 306,150.5C 332.361,164.875 348.194,186.875 353.5,216.5C 351.692,216.509 350.025,216.009 348.5,215C 317.502,214.5 286.502,214.333 255.5,214.5C 255.5,189.833 255.5,165.167 255.5,140.5C 272.446,140.29 288.779,143.29 304.5,149.5C 304.5,129.833 304.5,110.167 304.5,90.5 Z"/></g>
<g><path style="opacity:1" fill="#e6f9fe" d="M 255.5,140.5 C 255.5,165.167 255.5,189.833 255.5,214.5C 225.165,214.333 194.832,214.5 164.5,215C 162.187,215.662 159.854,216.162 157.5,216.5C 163.181,186.423 179.515,164.423 206.5,150.5C 222.002,143.333 238.335,139.999 255.5,140.5 Z"/></g>
<g><path style="opacity:1" fill="#e5f9fe" d="M 109.5,212.5 C 87.055,255.839 91.3883,296.339 122.5,334C 117.379,340.123 111.879,345.957 106,351.5C 101.526,347.206 97.5264,342.539 94,337.5C 64.5096,291.396 63.0096,244.396 89.5,196.5C 94.3806,189.44 99.8806,182.774 106,176.5C 111.879,182.043 117.379,187.877 122.5,194C 117.573,199.759 113.239,205.925 109.5,212.5 Z"/></g>
<g><path style="opacity:1" fill="#bce9fc" d="M 421.5,196.5 C 425.852,204.542 429.686,212.875 433,221.5C 448.445,270.283 439.111,313.616 405,351.5C 399.121,345.957 393.621,340.123 388.5,334C 419.603,296.344 423.937,255.844 401.5,212.5C 397.818,205.643 393.151,199.476 387.5,194C 393.333,188.167 399.167,182.333 405,176.5C 411.119,182.774 416.619,189.44 421.5,196.5 Z"/></g>
<g><path style="opacity:1" fill="#bce9fc" d="M 255.5,214.5 C 255.5,239.167 255.5,263.833 255.5,288.5C 222.802,288.812 190.136,288.479 157.5,287.5C 157.5,292.5 157.5,297.5 157.5,302.5C 156.673,297.349 156.173,292.016 156,286.5C 149.254,283.622 143.587,279.288 139,273.5C 130.187,258.62 130.353,243.954 139.5,229.5C 144.38,223.62 150.38,219.287 157.5,216.5C 159.854,216.162 162.187,215.662 164.5,215C 194.832,214.5 225.165,214.333 255.5,214.5 Z"/></g>
<g><path style="opacity:1" fill="#8ab8ec" d="M 255.5,214.5 C 286.502,214.333 317.502,214.5 348.5,215C 350.025,216.009 351.692,216.509 353.5,216.5C 360.917,218.875 366.917,223.208 371.5,229.5C 374.313,233.488 376.48,237.822 378,242.5C 381.405,263.365 373.572,278.031 354.5,286.5C 352.692,286.491 351.025,286.991 349.5,288C 318.168,288.5 286.835,288.667 255.5,288.5C 255.5,263.833 255.5,239.167 255.5,214.5 Z"/></g>
<g><path style="opacity:0.999" fill="#e6f9fe" d="M 255.5,288.5 C 255.5,362.833 255.5,437.167 255.5,511.5C 248.167,511.5 240.833,511.5 233.5,511.5C 215.468,509.661 197.801,505.994 180.5,500.5C 171.325,459.787 164.658,418.787 160.5,377.5C 158.906,352.529 157.906,327.529 157.5,302.5C 157.5,297.5 157.5,292.5 157.5,287.5C 190.136,288.479 222.802,288.812 255.5,288.5 Z"/></g>
<g><path style="opacity:1" fill="#bce9fc" d="M 354.5,286.5 C 353.905,316.898 352.238,347.231 349.5,377.5C 345.346,419.243 338.68,460.576 329.5,501.5C 312.293,506.143 294.959,509.476 277.5,511.5C 270.167,511.5 262.833,511.5 255.5,511.5C 255.5,437.167 255.5,362.833 255.5,288.5C 286.835,288.667 318.168,288.5 349.5,288C 351.025,286.991 352.692,286.491 354.5,286.5 Z"/></g>
<g><path style="opacity:0.997" fill="#457690" d="M 160.5,377.5 C 164.658,418.787 171.325,459.787 180.5,500.5C 114.277,479.729 64.2768,439.062 30.5,378.5C 73.6635,377.501 116.997,377.168 160.5,377.5 Z"/></g>
<g><path style="opacity:0.997" fill="#457690" d="M 349.5,377.5 C 393.5,377.5 437.5,377.5 481.5,377.5C 447.115,438.705 396.449,480.038 329.5,501.5C 338.68,460.576 345.346,419.243 349.5,377.5 Z"/></g>
</svg>
