<?xml version="1.0" encoding="UTF-8"?>
<!DOCTYPE svg PUBLIC "-//W3C//DTD SVG 1.1//EN" "http://www.w3.org/Graphics/SVG/1.1/DTD/svg11.dtd">
<svg xmlns="http://www.w3.org/2000/svg" version="1.1" width="512px" height="512px" style="shape-rendering:geometricPrecision; text-rendering:geometricPrecision; image-rendering:optimizeQuality; fill-rule:evenodd; clip-rule:evenodd" xmlns:xlink="http://www.w3.org/1999/xlink">
<g><path style="opacity:0.997" fill="#77dc5a" d="M 232.5,-0.5 C 247.833,-0.5 263.167,-0.5 278.5,-0.5C 368.144,10.3879 435.644,54.7213 481,132.5C 497.695,163.971 507.861,197.304 511.5,232.5C 511.5,247.833 511.5,263.167 511.5,278.5C 510.833,281.5 510.167,284.5 509.5,287.5C 509.662,285.473 509.495,283.473 509,281.5C 466.965,239.299 424.799,197.299 382.5,155.5C 376.833,155.5 371.167,155.5 365.5,155.5C 360.11,149.108 354.11,143.441 347.5,138.5C 341.728,130.894 335.061,124.06 327.5,118C 308.01,108.608 293.176,113.441 283,132.5C 280.98,140.215 281.146,147.882 283.5,155.5C 274.167,155.5 264.833,155.5 255.5,155.5C 213.165,155.333 170.832,155.5 128.5,156C 166.456,208.078 204.289,260.245 242,312.5C 242.667,340.167 242.667,367.833 242,395.5C 225.194,402.268 208.361,408.935 191.5,415.5C 190.29,415.932 189.29,416.599 188.5,417.5C 219.167,448.5 249.833,479.5 280.5,510.5C 279.508,510.328 278.842,510.662 278.5,511.5C 263.167,511.5 247.833,511.5 232.5,511.5C 142.856,500.612 75.3562,456.279 30,378.5C 13.3053,347.029 3.1386,313.696 -0.5,278.5C -0.5,263.167 -0.5,247.833 -0.5,232.5C 10.3875,142.857 54.7208,75.3573 132.5,30C 163.971,13.3053 197.304,3.1386 232.5,-0.5 Z"/></g>
<g><path style="opacity:1" fill="#fce16e" d="M 347.5,138.5 C 343.87,142.631 340.037,146.631 336,150.5C 329.802,143.968 323.302,137.801 316.5,132C 306.867,129.14 301.2,132.64 299.5,142.5C 299.617,147.732 301.617,152.065 305.5,155.5C 298.5,155.5 291.5,155.5 284.5,155.5C 284.167,155.5 283.833,155.5 283.5,155.5C 281.146,147.882 280.98,140.215 283,132.5C 293.176,113.441 308.01,108.608 327.5,118C 335.061,124.06 341.728,130.894 347.5,138.5 Z"/></g>
<g><path style="opacity:1" fill="#52bf73" d="M 347.5,138.5 C 354.11,143.441 360.11,149.108 365.5,155.5C 345.833,155.5 326.167,155.5 306.5,155.5C 306.167,155.5 305.833,155.5 305.5,155.5C 301.617,152.065 299.617,147.732 299.5,142.5C 301.2,132.64 306.867,129.14 316.5,132C 323.302,137.801 329.802,143.968 336,150.5C 340.037,146.631 343.87,142.631 347.5,138.5 Z"/></g>
<g><path style="opacity:1" fill="#fefcfb" d="M 255.5,155.5 C 255.5,161.167 255.5,166.833 255.5,172.5C 269.5,172.5 283.5,172.5 297.5,172.5C 298.167,172.5 298.5,172.833 298.5,173.5C 284.167,173.5 269.833,173.5 255.5,173.5C 224.832,173.333 194.165,173.5 163.5,174C 192.697,214.682 222.03,255.182 251.5,295.5C 252.568,296.434 253.901,296.768 255.5,296.5C 255.5,336.5 255.5,376.5 255.5,416.5C 233.993,416.831 212.66,416.497 191.5,415.5C 208.361,408.935 225.194,402.268 242,395.5C 242.667,367.833 242.667,340.167 242,312.5C 204.289,260.245 166.456,208.078 128.5,156C 170.832,155.5 213.165,155.333 255.5,155.5 Z"/></g>
<g><path style="opacity:1" fill="#d6e8f7" d="M 255.5,155.5 C 264.833,155.5 274.167,155.5 283.5,155.5C 283.833,155.5 284.167,155.5 284.5,155.5C 285.343,158.516 286.843,161.183 289,163.5C 292.038,166.369 294.871,169.369 297.5,172.5C 283.5,172.5 269.5,172.5 255.5,172.5C 255.5,166.833 255.5,161.167 255.5,155.5 Z"/></g>
<g><path style="opacity:1" fill="#fed32d" d="M 284.5,155.5 C 291.5,155.5 298.5,155.5 305.5,155.5C 305.833,155.5 306.167,155.5 306.5,155.5C 309.462,158.964 312.629,162.297 316,165.5C 317.454,168.071 318.62,170.738 319.5,173.5C 312.833,173.5 306.167,173.5 299.5,173.5C 299.167,173.5 298.833,173.5 298.5,173.5C 298.5,172.833 298.167,172.5 297.5,172.5C 294.871,169.369 292.038,166.369 289,163.5C 286.843,161.183 285.343,158.516 284.5,155.5 Z"/></g>
<g><path style="opacity:1" fill="#d5e7f5" d="M 306.5,155.5 C 326.167,155.5 345.833,155.5 365.5,155.5C 371.167,155.5 376.833,155.5 382.5,155.5C 344.676,207.804 306.843,260.137 269,312.5C 268.333,340.167 268.333,367.833 269,395.5C 285.801,402.267 302.634,408.933 319.5,415.5C 298.34,416.497 277.007,416.831 255.5,416.5C 255.5,376.5 255.5,336.5 255.5,296.5C 257.144,296.714 258.644,296.38 260,295.5C 289.167,255 318.333,214.5 347.5,174C 338.173,173.5 328.839,173.334 319.5,173.5C 318.62,170.738 317.454,168.071 316,165.5C 312.629,162.297 309.462,158.964 306.5,155.5 Z"/></g>
<g><path style="opacity:1" fill="#4fbf73" d="M 382.5,155.5 C 424.799,197.299 466.965,239.299 509,281.5C 509.495,283.473 509.662,285.473 509.5,287.5C 497.959,367.825 458.293,429.991 390.5,474C 356.688,494.659 320.022,506.826 280.5,510.5C 249.833,479.5 219.167,448.5 188.5,417.5C 233.168,417.667 277.835,417.5 322.5,417C 321.756,415.961 320.756,415.461 319.5,415.5C 302.634,408.933 285.801,402.267 269,395.5C 268.333,367.833 268.333,340.167 269,312.5C 306.843,260.137 344.676,207.804 382.5,155.5 Z"/></g>
<g><path style="opacity:1" fill="#ea1e81" d="M 255.5,173.5 C 255.5,214.167 255.5,254.833 255.5,295.5C 254.167,295.5 252.833,295.5 251.5,295.5C 222.03,255.182 192.697,214.682 163.5,174C 194.165,173.5 224.832,173.333 255.5,173.5 Z"/></g>
<g><path style="opacity:1" fill="#c21569" d="M 255.5,173.5 C 269.833,173.5 284.167,173.5 298.5,173.5C 298.833,173.5 299.167,173.5 299.5,173.5C 305.065,179.955 304.732,186.122 298.5,192C 293.077,195.394 287.744,195.227 282.5,191.5C 278.167,195.167 274.167,199.167 270.5,203.5C 286.08,216.069 300.914,215.069 315,200.5C 320.345,192.111 321.845,183.111 319.5,173.5C 328.839,173.334 338.173,173.5 347.5,174C 318.333,214.5 289.167,255 260,295.5C 258.644,296.38 257.144,296.714 255.5,296.5C 253.901,296.768 252.568,296.434 251.5,295.5C 252.833,295.5 254.167,295.5 255.5,295.5C 255.5,254.833 255.5,214.167 255.5,173.5 Z"/></g>
<g><path style="opacity:1" fill="#feab38" d="M 299.5,173.5 C 306.167,173.5 312.833,173.5 319.5,173.5C 321.845,183.111 320.345,192.111 315,200.5C 300.914,215.069 286.08,216.069 270.5,203.5C 274.167,199.167 278.167,195.167 282.5,191.5C 287.744,195.227 293.077,195.394 298.5,192C 304.732,186.122 305.065,179.955 299.5,173.5 Z"/></g>
<g><path style="opacity:1" fill="#a8dcc4" d="M 191.5,415.5 C 212.66,416.497 233.993,416.831 255.5,416.5C 277.007,416.831 298.34,416.497 319.5,415.5C 320.756,415.461 321.756,415.961 322.5,417C 277.835,417.5 233.168,417.667 188.5,417.5C 189.29,416.599 190.29,415.932 191.5,415.5 Z"/></g>
</svg>
