<?xml version="1.0" encoding="UTF-8"?>
<!DOCTYPE svg PUBLIC "-//W3C//DTD SVG 1.1//EN" "http://www.w3.org/Graphics/SVG/1.1/DTD/svg11.dtd">
<svg xmlns="http://www.w3.org/2000/svg" version="1.1" width="512px" height="512px" style="shape-rendering:geometricPrecision; text-rendering:geometricPrecision; image-rendering:optimizeQuality; fill-rule:evenodd; clip-rule:evenodd" xmlns:xlink="http://www.w3.org/1999/xlink">
<g><path style="opacity:0.997" fill="#76db5a" d="M 232.5,-0.5 C 247.833,-0.5 263.167,-0.5 278.5,-0.5C 368.144,10.3879 435.644,54.7213 481,132.5C 497.695,163.971 507.861,197.304 511.5,232.5C 511.5,247.833 511.5,263.167 511.5,278.5C 511.167,278.5 510.833,278.5 510.5,278.5C 510.66,276.801 510.494,275.134 510,273.5C 457.965,221.299 405.799,169.299 353.5,117.5C 350.371,113.869 347.037,110.369 343.5,107C 342.668,106.312 342.002,106.479 341.5,107.5C 329.89,127.058 318.557,146.725 307.5,166.5C 307.167,166.5 306.833,166.5 306.5,166.5C 256.833,166.5 207.167,166.5 157.5,166.5C 157.167,238.335 157.501,310.002 158.5,381.5C 200.465,423.965 242.632,466.299 285,508.5C 285.464,509.094 285.631,509.761 285.5,510.5C 282.941,510.198 280.607,510.532 278.5,511.5C 263.167,511.5 247.833,511.5 232.5,511.5C 142.856,500.612 75.3562,456.279 30,378.5C 13.3053,347.029 3.1386,313.696 -0.5,278.5C -0.5,263.167 -0.5,247.833 -0.5,232.5C 10.3875,142.857 54.7208,75.3573 132.5,30C 163.971,13.3053 197.304,3.1386 232.5,-0.5 Z"/></g>
<g><path style="opacity:1" fill="#8d4fd2" d="M 353.5,117.5 C 343.581,133.668 333.915,150.002 324.5,166.5C 324.167,166.5 323.833,166.5 323.5,166.5C 318.167,166.5 312.833,166.5 307.5,166.5C 318.557,146.725 329.89,127.058 341.5,107.5C 342.002,106.479 342.668,106.312 343.5,107C 347.037,110.369 350.371,113.869 353.5,117.5 Z"/></g>
<g><path style="opacity:1" fill="#4fbf73" d="M 353.5,117.5 C 405.799,169.299 457.965,221.299 510,273.5C 510.494,275.134 510.66,276.801 510.5,278.5C 500.417,368.362 456.417,435.862 378.5,481C 349.311,496.563 318.311,506.397 285.5,510.5C 285.631,509.761 285.464,509.094 285,508.5C 242.632,466.299 200.465,423.965 158.5,381.5C 190.833,381.5 223.167,381.5 255.5,381.5C 288.167,381.5 320.833,381.5 353.5,381.5C 353.5,309.833 353.5,238.167 353.5,166.5C 343.833,166.5 334.167,166.5 324.5,166.5C 333.915,150.002 343.581,133.668 353.5,117.5 Z"/></g>
<g><path style="opacity:1" fill="#d5e8f7" d="M 306.5,166.5 C 306.5,167.167 306.167,167.5 305.5,167.5C 288.833,167.5 272.167,167.5 255.5,167.5C 255.5,168.5 255.5,169.5 255.5,170.5C 244.511,171.168 236.845,176.502 232.5,186.5C 232.167,186.5 231.833,186.5 231.5,186.5C 213.5,186.5 195.5,186.5 177.5,186.5C 177.5,238.5 177.5,290.5 177.5,342.5C 203.5,342.5 229.5,342.5 255.5,342.5C 255.5,355.5 255.5,368.5 255.5,381.5C 223.167,381.5 190.833,381.5 158.5,381.5C 157.501,310.002 157.167,238.335 157.5,166.5C 207.167,166.5 256.833,166.5 306.5,166.5 Z"/></g>
<g><path style="opacity:1" fill="#b2d5f2" d="M 305.5,167.5 C 302.422,173.991 299.088,180.325 295.5,186.5C 295.167,186.5 294.833,186.5 294.5,186.5C 289.5,186.5 284.5,186.5 279.5,186.5C 279.167,186.5 278.833,186.5 278.5,186.5C 274.966,178.64 268.966,173.64 260.5,171.5C 259.081,170.549 257.415,170.216 255.5,170.5C 255.5,169.5 255.5,168.5 255.5,167.5C 272.167,167.5 288.833,167.5 305.5,167.5 Z"/></g>
<g><path style="opacity:1" fill="#623594" d="M 306.5,166.5 C 306.833,166.5 307.167,166.5 307.5,166.5C 312.833,166.5 318.167,166.5 323.5,166.5C 320.353,173.461 316.687,180.127 312.5,186.5C 312.5,187.167 312.167,187.5 311.5,187.5C 306.36,186.512 301.026,186.179 295.5,186.5C 299.088,180.325 302.422,173.991 305.5,167.5C 306.167,167.5 306.5,167.167 306.5,166.5 Z"/></g>
<g><path style="opacity:1" fill="#b1d6f2" d="M 323.5,166.5 C 323.833,166.5 324.167,166.5 324.5,166.5C 334.167,166.5 343.833,166.5 353.5,166.5C 353.5,238.167 353.5,309.833 353.5,381.5C 320.833,381.5 288.167,381.5 255.5,381.5C 255.5,368.5 255.5,355.5 255.5,342.5C 281.672,342.831 307.672,342.498 333.5,341.5C 333.5,289.833 333.5,238.167 333.5,186.5C 326.5,186.5 319.5,186.5 312.5,186.5C 316.687,180.127 320.353,173.461 323.5,166.5 Z"/></g>
<g><path style="opacity:1" fill="#ee5fa5" d="M 255.5,170.5 C 257.415,170.216 259.081,170.549 260.5,171.5C 258.833,171.5 257.167,171.5 255.5,171.5C 255.5,176.5 255.5,181.5 255.5,186.5C 247.833,186.5 240.167,186.5 232.5,186.5C 236.845,176.502 244.511,171.168 255.5,170.5 Z"/></g>
<g><path style="opacity:1" fill="#e92183" d="M 260.5,171.5 C 268.966,173.64 274.966,178.64 278.5,186.5C 270.833,186.5 263.167,186.5 255.5,186.5C 255.5,181.5 255.5,176.5 255.5,171.5C 257.167,171.5 258.833,171.5 260.5,171.5 Z"/></g>
<g><path style="opacity:1" fill="#95623c" d="M 231.5,186.5 C 227.802,204.099 234.469,215.433 251.5,220.5C 252.568,221.434 253.901,221.768 255.5,221.5C 255.5,231.833 255.5,242.167 255.5,252.5C 255.5,252.833 255.5,253.167 255.5,253.5C 255.5,282.833 255.5,312.167 255.5,341.5C 281.5,341.5 307.5,341.5 333.5,341.5C 307.672,342.498 281.672,342.831 255.5,342.5C 229.5,342.5 203.5,342.5 177.5,342.5C 177.5,290.5 177.5,238.5 177.5,186.5C 195.5,186.5 213.5,186.5 231.5,186.5 Z"/></g>
<g><path style="opacity:1" fill="#e91e81" d="M 231.5,186.5 C 231.833,186.5 232.167,186.5 232.5,186.5C 240.167,186.5 247.833,186.5 255.5,186.5C 255.5,197.833 255.5,209.167 255.5,220.5C 254.167,220.5 252.833,220.5 251.5,220.5C 234.469,215.433 227.802,204.099 231.5,186.5 Z"/></g>
<g><path style="opacity:1" fill="#c11469" d="M 255.5,186.5 C 263.167,186.5 270.833,186.5 278.5,186.5C 278.833,186.5 279.167,186.5 279.5,186.5C 283.162,206.178 275.162,217.845 255.5,221.5C 253.901,221.768 252.568,221.434 251.5,220.5C 252.833,220.5 254.167,220.5 255.5,220.5C 255.5,209.167 255.5,197.833 255.5,186.5 Z"/></g>
<g><path style="opacity:1" fill="#71472c" d="M 279.5,186.5 C 284.5,186.5 289.5,186.5 294.5,186.5C 282.001,208.838 269.001,230.838 255.5,252.5C 255.5,242.167 255.5,231.833 255.5,221.5C 275.162,217.845 283.162,206.178 279.5,186.5 Z"/></g>
<g><path style="opacity:1" fill="#4b1b78" d="M 294.5,186.5 C 294.833,186.5 295.167,186.5 295.5,186.5C 301.026,186.179 306.36,186.512 311.5,187.5C 297.515,212.136 283.015,236.47 268,260.5C 263.725,258.281 259.559,255.948 255.5,253.5C 255.5,253.167 255.5,252.833 255.5,252.5C 269.001,230.838 282.001,208.838 294.5,186.5 Z"/></g>
<g><path style="opacity:1" fill="#71482a" d="M 312.5,186.5 C 319.5,186.5 326.5,186.5 333.5,186.5C 333.5,238.167 333.5,289.833 333.5,341.5C 307.5,341.5 281.5,341.5 255.5,341.5C 255.5,312.167 255.5,282.833 255.5,253.5C 259.559,255.948 263.725,258.281 268,260.5C 283.015,236.47 297.515,212.136 311.5,187.5C 312.167,187.5 312.5,187.167 312.5,186.5 Z"/></g>
<g><path style="opacity:1" fill="#ab7145" d="M 216.5,227.5 C 228.58,238.077 240.247,249.244 251.5,261C 240.319,272.348 228.986,283.514 217.5,294.5C 206.681,283.181 195.681,272.014 184.5,261C 195.757,250.247 206.423,239.08 216.5,227.5 Z"/></g>
<g><path style="opacity:1" fill="#94613a" d="M 292.5,264.5 C 304.146,275.479 315.479,286.812 326.5,298.5C 315.833,309.833 304.833,320.833 293.5,331.5C 282.014,320.514 270.681,309.348 259.5,298C 270.702,286.965 281.702,275.798 292.5,264.5 Z"/></g>
</svg>
