<?xml version="1.0" encoding="UTF-8"?>
<!DOCTYPE svg PUBLIC "-//W3C//DTD SVG 1.1//EN" "http://www.w3.org/Graphics/SVG/1.1/DTD/svg11.dtd">
<svg xmlns="http://www.w3.org/2000/svg" version="1.1" width="512px" height="512px" style="shape-rendering:geometricPrecision; text-rendering:geometricPrecision; image-rendering:optimizeQuality; fill-rule:evenodd; clip-rule:evenodd" xmlns:xlink="http://www.w3.org/1999/xlink">
<g><path style="opacity:0.997" fill="#8e4dd5" d="M 232.5,-0.5 C 247.833,-0.5 263.167,-0.5 278.5,-0.5C 368.144,10.3879 435.644,54.7213 481,132.5C 497.695,163.971 507.861,197.304 511.5,232.5C 511.5,243.167 511.5,253.833 511.5,264.5C 475.167,228.5 438.833,192.5 402.5,156.5C 385.341,155.503 368.008,155.17 350.5,155.5C 340.833,145.167 330.833,135.167 320.5,125.5C 310.239,124.56 300.239,126.226 290.5,130.5C 289.448,130.649 288.448,130.483 287.5,130C 279.912,121.907 271.912,114.407 263.5,107.5C 261.528,103.895 258.861,100.895 255.5,98.5C 239.544,113.42 232.877,131.754 235.5,153.5C 193.508,155.164 151.175,156.164 108.5,156.5C 108.624,157.107 108.957,157.44 109.5,157.5C 154.799,202.299 199.965,247.299 245,292.5C 245.833,316.174 245.666,339.84 244.5,363.5C 221.806,376.179 199.139,388.845 176.5,401.5C 175.475,401.897 175.308,402.563 176,403.5C 211.701,439.035 247.201,474.701 282.5,510.5C 280.901,510.232 279.568,510.566 278.5,511.5C 263.167,511.5 247.833,511.5 232.5,511.5C 142.856,500.612 75.3562,456.279 30,378.5C 13.3053,347.029 3.1386,313.696 -0.5,278.5C -0.5,263.167 -0.5,247.833 -0.5,232.5C 10.3875,142.857 54.7208,75.3573 132.5,30C 163.971,13.3053 197.304,3.1386 232.5,-0.5 Z"/></g>
<g><path style="opacity:1" fill="#b4e250" d="M 255.5,98.5 C 255.5,117.833 255.5,137.167 255.5,156.5C 249.167,156.5 242.833,156.5 236.5,156.5C 236.737,155.209 236.404,154.209 235.5,153.5C 232.877,131.754 239.544,113.42 255.5,98.5 Z"/></g>
<g><path style="opacity:1" fill="#76da5a" d="M 255.5,98.5 C 258.861,100.895 261.528,103.895 263.5,107.5C 270.273,116.381 274.273,126.381 275.5,137.5C 276.99,143.949 276.656,150.282 274.5,156.5C 268.167,156.5 261.833,156.5 255.5,156.5C 255.5,137.167 255.5,117.833 255.5,98.5 Z"/></g>
<g><path style="opacity:1" fill="#613792" d="M 263.5,107.5 C 271.912,114.407 279.912,121.907 287.5,130C 288.448,130.483 289.448,130.649 290.5,130.5C 285.683,132.497 281.183,135.164 277,138.5C 276.617,137.944 276.117,137.611 275.5,137.5C 274.273,126.381 270.273,116.381 263.5,107.5 Z"/></g>
<g><path style="opacity:1" fill="#4fbd74" d="M 320.5,125.5 C 319.609,135.413 317.609,145.08 314.5,154.5C 313.662,154.842 313.328,155.508 313.5,156.5C 313.167,156.5 312.833,156.5 312.5,156.5C 299.833,156.5 287.167,156.5 274.5,156.5C 276.656,150.282 276.99,143.949 275.5,137.5C 276.117,137.611 276.617,137.944 277,138.5C 281.183,135.164 285.683,132.497 290.5,130.5C 300.239,126.226 310.239,124.56 320.5,125.5 Z"/></g>
<g><path style="opacity:1" fill="#613492" d="M 320.5,125.5 C 330.833,135.167 340.833,145.167 350.5,155.5C 338.322,155.828 326.322,155.495 314.5,154.5C 317.609,145.08 319.609,135.413 320.5,125.5 Z"/></g>
<g><path style="opacity:1" fill="#b388e1" d="M 235.5,153.5 C 236.404,154.209 236.737,155.209 236.5,156.5C 193.997,156.168 151.663,156.501 109.5,157.5C 108.957,157.44 108.624,157.107 108.5,156.5C 151.175,156.164 193.508,155.164 235.5,153.5 Z"/></g>
<g><path style="opacity:1" fill="#9b7bd2" d="M 314.5,154.5 C 326.322,155.495 338.322,155.828 350.5,155.5C 368.008,155.17 385.341,155.503 402.5,156.5C 402.5,157.167 402.167,157.5 401.5,157.5C 372.338,156.502 343.005,156.169 313.5,156.5C 313.328,155.508 313.662,154.842 314.5,154.5 Z"/></g>
<g><path style="opacity:1" fill="#fefdfe" d="M 109.5,157.5 C 151.663,156.501 193.997,156.168 236.5,156.5C 238.414,163.661 241.414,170.328 245.5,176.5C 213.826,176.167 182.16,176.5 150.5,177.5C 150.624,178.107 150.957,178.44 151.5,178.5C 186.167,212.5 220.5,246.833 254.5,281.5C 255.494,321.761 255.827,362.094 255.5,402.5C 228.995,402.831 202.661,402.498 176.5,401.5C 199.139,388.845 221.806,376.179 244.5,363.5C 245.666,339.84 245.833,316.174 245,292.5C 199.965,247.299 154.799,202.299 109.5,157.5 Z"/></g>
<g><path style="opacity:1" fill="#78db5b" d="M 236.5,156.5 C 242.833,156.5 249.167,156.5 255.5,156.5C 255.5,167.167 255.5,177.833 255.5,188.5C 252.473,186.14 249.806,183.473 247.5,180.5C 247.573,178.973 246.906,177.973 245.5,177.5C 245.5,177.167 245.5,176.833 245.5,176.5C 241.414,170.328 238.414,163.661 236.5,156.5 Z"/></g>
<g><path style="opacity:1" fill="#4ebd73" d="M 255.5,156.5 C 261.833,156.5 268.167,156.5 274.5,156.5C 270.703,168.26 264.703,178.76 256.5,188C 257.793,188.49 259.127,188.657 260.5,188.5C 259.081,189.451 257.415,189.784 255.5,189.5C 255.5,189.167 255.5,188.833 255.5,188.5C 255.5,177.833 255.5,167.167 255.5,156.5 Z"/></g>
<g><path style="opacity:1" fill="#05a95e" d="M 274.5,156.5 C 287.167,156.5 299.833,156.5 312.5,156.5C 309,164.328 304,170.994 297.5,176.5C 296.833,176.5 296.5,176.833 296.5,177.5C 289.652,181.588 282.319,184.588 274.5,186.5C 269.908,187.598 265.241,188.265 260.5,188.5C 259.127,188.657 257.793,188.49 256.5,188C 264.703,178.76 270.703,168.26 274.5,156.5 Z"/></g>
<g><path style="opacity:1" fill="#d5e7f6" d="M 312.5,156.5 C 312.833,156.5 313.167,156.5 313.5,156.5C 343.005,156.169 372.338,156.502 401.5,157.5C 356.201,202.299 311.035,247.299 266,292.5C 265.167,316.174 265.334,339.84 266.5,363.5C 289.329,376.08 311.996,388.914 334.5,402C 308.169,402.5 281.835,402.667 255.5,402.5C 255.827,362.094 255.494,321.761 254.5,281.5C 254.833,281.5 255.167,281.5 255.5,281.5C 290.167,247.167 324.833,212.833 359.5,178.5C 360.043,178.44 360.376,178.107 360.5,177.5C 339.511,176.5 318.511,176.167 297.5,176.5C 304,170.994 309,164.328 312.5,156.5 Z"/></g>
<g><path style="opacity:0.999" fill="#613393" d="M 402.5,156.5 C 438.833,192.5 475.167,228.5 511.5,264.5C 511.5,269.167 511.5,273.833 511.5,278.5C 498.924,379.224 446.591,450.724 354.5,493C 331.831,502.176 308.498,508.342 284.5,511.5C 283.833,511.5 283.167,511.5 282.5,511.5C 282.5,511.167 282.5,510.833 282.5,510.5C 247.201,474.701 211.701,439.035 176,403.5C 175.308,402.563 175.475,401.897 176.5,401.5C 202.661,402.498 228.995,402.831 255.5,402.5C 281.835,402.667 308.169,402.5 334.5,402C 311.996,388.914 289.329,376.08 266.5,363.5C 265.334,339.84 265.167,316.174 266,292.5C 311.035,247.299 356.201,202.299 401.5,157.5C 402.167,157.5 402.5,157.167 402.5,156.5 Z"/></g>
<g><path style="opacity:1" fill="#f8b3d5" d="M 245.5,176.5 C 245.5,176.833 245.5,177.167 245.5,177.5C 213.996,177.168 182.662,177.502 151.5,178.5C 150.957,178.44 150.624,178.107 150.5,177.5C 182.16,176.5 213.826,176.167 245.5,176.5 Z"/></g>
<g><path style="opacity:1" fill="#de8ac1" d="M 296.5,177.5 C 296.5,176.833 296.833,176.5 297.5,176.5C 318.511,176.167 339.511,176.5 360.5,177.5C 360.376,178.107 360.043,178.44 359.5,178.5C 338.673,177.503 317.673,177.169 296.5,177.5 Z"/></g>
<g><path style="opacity:1" fill="#ee5ba3" d="M 151.5,178.5 C 182.662,177.502 213.996,177.168 245.5,177.5C 246.906,177.973 247.573,178.973 247.5,180.5C 232.797,188.109 228.963,199.443 236,214.5C 240.631,221.401 247.131,225.068 255.5,225.5C 255.5,244.167 255.5,262.833 255.5,281.5C 255.167,281.5 254.833,281.5 254.5,281.5C 220.5,246.833 186.167,212.5 151.5,178.5 Z"/></g>
<g><path style="opacity:1" fill="#e91d82" d="M 296.5,177.5 C 317.673,177.169 338.673,177.503 359.5,178.5C 324.833,212.833 290.167,247.167 255.5,281.5C 255.5,262.833 255.5,244.167 255.5,225.5C 247.131,225.068 240.631,221.401 236,214.5C 228.963,199.443 232.797,188.109 247.5,180.5C 249.806,183.473 252.473,186.14 255.5,188.5C 255.5,188.833 255.5,189.167 255.5,189.5C 255.5,201.167 255.5,212.833 255.5,224.5C 270.181,223.693 277.848,215.86 278.5,201C 278.404,196.043 276.737,191.71 273.5,188C 274.056,187.617 274.389,187.117 274.5,186.5C 282.319,184.588 289.652,181.588 296.5,177.5 Z"/></g>
<g><path style="opacity:1" fill="#c1136a" d="M 274.5,186.5 C 274.389,187.117 274.056,187.617 273.5,188C 276.737,191.71 278.404,196.043 278.5,201C 277.848,215.86 270.181,223.693 255.5,224.5C 255.5,212.833 255.5,201.167 255.5,189.5C 257.415,189.784 259.081,189.451 260.5,188.5C 265.241,188.265 269.908,187.598 274.5,186.5 Z"/></g>
</svg>
