<?xml version="1.0" encoding="UTF-8"?>
<!DOCTYPE svg PUBLIC "-//W3C//DTD SVG 1.1//EN" "http://www.w3.org/Graphics/SVG/1.1/DTD/svg11.dtd">
<svg xmlns="http://www.w3.org/2000/svg" version="1.1" width="512px" height="512px" style="shape-rendering:geometricPrecision; text-rendering:geometricPrecision; image-rendering:optimizeQuality; fill-rule:evenodd; clip-rule:evenodd" xmlns:xlink="http://www.w3.org/1999/xlink">
<g><path style="opacity:0.997" fill="#7584f1" d="M 232.5,-0.5 C 247.833,-0.5 263.167,-0.5 278.5,-0.5C 368.144,10.3879 435.644,54.7213 481,132.5C 497.695,163.971 507.861,197.304 511.5,232.5C 511.5,233.5 511.5,234.5 511.5,235.5C 461.833,186.167 412.167,136.833 362.5,87.5C 359.879,83.3862 356.212,80.5528 351.5,79C 319.502,78.5 287.502,78.3334 255.5,78.5C 223.498,78.3334 191.498,78.5 159.5,79C 147.909,84.0292 144.409,92.5292 149,104.5C 151.074,108.077 153.907,110.744 157.5,112.5C 157.062,112.435 156.728,112.601 156.5,113C 159.333,115.833 162.167,118.667 165,121.5C 165.49,120.207 165.657,118.873 165.5,117.5C 175.116,164.923 184.116,212.589 192.5,260.5C 189.9,262.916 187.067,265.249 184,267.5C 178.087,275.469 178.087,283.469 184,291.5C 186.478,293.82 189.311,295.486 192.5,296.5C 183.37,328.687 174.703,361.021 166.5,393.5C 153.916,399.663 150.749,408.997 157,421.5C 159.063,423.734 161.229,425.734 163.5,427.5C 191.167,455.5 218.833,483.5 246.5,511.5C 241.833,511.5 237.167,511.5 232.5,511.5C 142.856,500.612 75.3562,456.279 30,378.5C 13.3053,347.029 3.1386,313.696 -0.5,278.5C -0.5,263.167 -0.5,247.833 -0.5,232.5C 10.3875,142.857 54.7208,75.3573 132.5,30C 163.971,13.3053 197.304,3.1386 232.5,-0.5 Z"/></g>
<g><path style="opacity:1" fill="#ccd1e1" d="M 255.5,78.5 C 255.5,90.1667 255.5,101.833 255.5,113.5C 225.329,113.169 195.329,113.502 165.5,114.5C 162.833,113.833 160.167,113.167 157.5,112.5C 153.907,110.744 151.074,108.077 149,104.5C 144.409,92.5292 147.909,84.0292 159.5,79C 191.498,78.5 223.498,78.3334 255.5,78.5 Z"/></g>
<g><path style="opacity:1" fill="#aeb3c8" d="M 255.5,78.5 C 287.502,78.3334 319.502,78.5 351.5,79C 356.212,80.5528 359.879,83.3862 362.5,87.5C 366.594,102.633 360.927,111.966 345.5,115.5C 315.852,113.508 285.852,112.841 255.5,113.5C 255.5,101.833 255.5,90.1667 255.5,78.5 Z"/></g>
<g><path style="opacity:1" fill="#4855b7" d="M 362.5,87.5 C 412.167,136.833 461.833,186.167 511.5,235.5C 511.5,249.833 511.5,264.167 511.5,278.5C 500.612,368.144 456.279,435.644 378.5,481C 347.029,497.695 313.696,507.861 278.5,511.5C 267.833,511.5 257.167,511.5 246.5,511.5C 218.833,483.5 191.167,455.5 163.5,427.5C 165.435,428.15 167.435,428.483 169.5,428.5C 226.665,429.665 283.999,429.832 341.5,429C 351.289,426.709 356.623,420.543 357.5,410.5C 356.588,402.25 352.254,396.584 344.5,393.5C 336.373,361.784 328.039,330.117 319.5,298.5C 319.414,297.504 319.748,296.671 320.5,296C 331.729,289.303 334.229,280.136 328,268.5C 325.21,265.535 322.043,263.202 318.5,261.5C 327.756,212.887 336.756,164.22 345.5,115.5C 360.927,111.966 366.594,102.633 362.5,87.5 Z"/></g>
<g><path style="opacity:1" fill="#505cbc" d="M 157.5,112.5 C 160.167,113.167 162.833,113.833 165.5,114.5C 165.5,115.5 165.5,116.5 165.5,117.5C 165.657,118.873 165.49,120.207 165,121.5C 162.167,118.667 159.333,115.833 156.5,113C 156.728,112.601 157.062,112.435 157.5,112.5 Z"/></g>
<g><path style="opacity:1" fill="#e8ecf4" d="M 255.5,113.5 C 255.5,162.833 255.5,212.167 255.5,261.5C 234.424,261.821 213.424,261.488 192.5,260.5C 184.116,212.589 175.116,164.923 165.5,117.5C 165.5,116.5 165.5,115.5 165.5,114.5C 195.329,113.502 225.329,113.169 255.5,113.5 Z"/></g>
<g><path style="opacity:1" fill="#ccd1e0" d="M 255.5,113.5 C 285.852,112.841 315.852,113.508 345.5,115.5C 336.756,164.22 327.756,212.887 318.5,261.5C 297.5,261.5 276.5,261.5 255.5,261.5C 255.5,212.167 255.5,162.833 255.5,113.5 Z"/></g>
<g><path style="opacity:1" fill="#ccd1e1" d="M 192.5,260.5 C 213.424,261.488 234.424,261.821 255.5,261.5C 255.5,273.5 255.5,285.5 255.5,297.5C 234.424,297.821 213.424,297.488 192.5,296.5C 189.311,295.486 186.478,293.82 184,291.5C 178.087,283.469 178.087,275.469 184,267.5C 187.067,265.249 189.9,262.916 192.5,260.5 Z"/></g>
<g><path style="opacity:1" fill="#afb4c8" d="M 255.5,261.5 C 276.5,261.5 297.5,261.5 318.5,261.5C 322.043,263.202 325.21,265.535 328,268.5C 334.229,280.136 331.729,289.303 320.5,296C 319.748,296.671 319.414,297.504 319.5,298.5C 318.778,298.082 318.278,297.416 318,296.5C 297.242,297.493 276.409,297.827 255.5,297.5C 255.5,285.5 255.5,273.5 255.5,261.5 Z"/></g>
<g><path style="opacity:1" fill="#e8ecf4" d="M 192.5,296.5 C 213.424,297.488 234.424,297.821 255.5,297.5C 255.5,329.5 255.5,361.5 255.5,393.5C 225.833,393.5 196.167,393.5 166.5,393.5C 174.703,361.021 183.37,328.687 192.5,296.5 Z"/></g>
<g><path style="opacity:1" fill="#ccd1e0" d="M 319.5,298.5 C 328.039,330.117 336.373,361.784 344.5,393.5C 314.833,393.5 285.167,393.5 255.5,393.5C 255.5,361.5 255.5,329.5 255.5,297.5C 276.409,297.827 297.242,297.493 318,296.5C 318.278,297.416 318.778,298.082 319.5,298.5 Z"/></g>
<g><path style="opacity:1" fill="#ccd1e1" d="M 166.5,393.5 C 196.167,393.5 225.833,393.5 255.5,393.5C 255.5,405.167 255.5,416.833 255.5,428.5C 226.833,428.5 198.167,428.5 169.5,428.5C 167.435,428.483 165.435,428.15 163.5,427.5C 161.229,425.734 159.063,423.734 157,421.5C 150.749,408.997 153.916,399.663 166.5,393.5 Z"/></g>
<g><path style="opacity:1" fill="#acb2c7" d="M 255.5,393.5 C 285.167,393.5 314.833,393.5 344.5,393.5C 352.254,396.584 356.588,402.25 357.5,410.5C 356.623,420.543 351.289,426.709 341.5,429C 283.999,429.832 226.665,429.665 169.5,428.5C 198.167,428.5 226.833,428.5 255.5,428.5C 255.5,416.833 255.5,405.167 255.5,393.5 Z"/></g>
</svg>
