<?xml version="1.0" encoding="UTF-8"?>
<!DOCTYPE svg PUBLIC "-//W3C//DTD SVG 1.1//EN" "http://www.w3.org/Graphics/SVG/1.1/DTD/svg11.dtd">
<svg xmlns="http://www.w3.org/2000/svg" version="1.1" width="512px" height="512px" style="shape-rendering:geometricPrecision; text-rendering:geometricPrecision; image-rendering:optimizeQuality; fill-rule:evenodd; clip-rule:evenodd" xmlns:xlink="http://www.w3.org/1999/xlink">
<g><path style="opacity:0.997" fill="#ff7c37" d="M 232.5,-0.5 C 247.833,-0.5 263.167,-0.5 278.5,-0.5C 368.144,10.3879 435.644,54.7213 481,132.5C 497.695,163.971 507.861,197.304 511.5,232.5C 511.5,247.833 511.5,263.167 511.5,278.5C 510.338,286.43 509.005,294.43 507.5,302.5C 457.368,252.868 407.368,203.035 357.5,153C 356.563,152.308 355.897,152.475 355.5,153.5C 350.934,147.884 344.934,144.884 337.5,144.5C 335.34,124.852 324.34,116.019 304.5,118C 301.716,118.892 299.05,120.058 296.5,121.5C 290.285,105.875 278.952,96.0419 262.5,92C 257.316,91.1837 252.316,91.3503 247.5,92.5C 230.935,96.2132 220.102,106.213 215,122.5C 199.611,113.803 186.611,116.47 176,130.5C 173.668,133.822 172.502,137.489 172.5,141.5C 171.596,142.209 171.263,143.209 171.5,144.5C 169.901,144.232 168.568,144.566 167.5,145.5C 160.352,147.143 155.518,151.477 153,158.5C 151.06,173.653 157.56,182.32 172.5,184.5C 172.5,243.833 172.5,303.167 172.5,362.5C 177.484,369.48 182.817,376.146 188.5,382.5C 188.5,383.167 188.833,383.5 189.5,383.5C 229.465,423.965 269.632,464.299 310,504.5C 310.464,505.094 310.631,505.761 310.5,506.5C 299.727,508.343 289.06,510.009 278.5,511.5C 263.167,511.5 247.833,511.5 232.5,511.5C 142.856,500.612 75.3562,456.279 30,378.5C 13.3053,347.029 3.1386,313.696 -0.5,278.5C -0.5,263.167 -0.5,247.833 -0.5,232.5C 10.3875,142.857 54.7208,75.3573 132.5,30C 163.971,13.3053 197.304,3.1386 232.5,-0.5 Z"/></g>
<g><path style="opacity:1" fill="#fefefd" d="M 247.5,92.5 C 250.167,92.5 252.833,92.5 255.5,92.5C 255.5,122.833 255.5,153.167 255.5,183.5C 284.5,183.5 313.5,183.5 342.5,183.5C 341.432,184.434 340.099,184.768 338.5,184.5C 310.662,184.169 282.995,184.502 255.5,185.5C 246.043,200.596 233.043,204.763 216.5,198C 212.989,195.153 209.489,192.32 206,189.5C 195.567,193.345 186.067,191.845 177.5,185C 175.866,184.506 174.199,184.34 172.5,184.5C 157.56,182.32 151.06,173.653 153,158.5C 155.518,151.477 160.352,147.143 167.5,145.5C 169.167,145.5 170.833,145.5 172.5,145.5C 172.5,144.167 172.5,142.833 172.5,141.5C 172.502,137.489 173.668,133.822 176,130.5C 186.611,116.47 199.611,113.803 215,122.5C 220.102,106.213 230.935,96.2132 247.5,92.5 Z"/></g>
<g><path style="opacity:1" fill="#e7e6ed" d="M 247.5,92.5 C 252.316,91.3503 257.316,91.1837 262.5,92C 278.952,96.0419 290.285,105.875 296.5,121.5C 299.05,120.058 301.716,118.892 304.5,118C 324.34,116.019 335.34,124.852 337.5,144.5C 344.934,144.884 350.934,147.884 355.5,153.5C 360.309,163.237 358.975,172.07 351.5,180C 348.852,182.05 345.852,183.216 342.5,183.5C 313.5,183.5 284.5,183.5 255.5,183.5C 255.5,153.167 255.5,122.833 255.5,92.5C 252.833,92.5 250.167,92.5 247.5,92.5 Z"/></g>
<g><path style="opacity:1" fill="#ffbf9d" d="M 172.5,141.5 C 172.5,142.833 172.5,144.167 172.5,145.5C 170.833,145.5 169.167,145.5 167.5,145.5C 168.568,144.566 169.901,144.232 171.5,144.5C 171.263,143.209 171.596,142.209 172.5,141.5 Z"/></g>
<g><path style="opacity:1" fill="#fe6611" d="M 507.5,302.5 C 492.02,378.448 451.354,436.615 385.5,477C 361.924,490.47 336.924,500.303 310.5,506.5C 310.631,505.761 310.464,505.094 310,504.5C 269.632,464.299 229.465,423.965 189.5,383.5C 233.835,383.667 278.168,383.5 322.5,383C 328.048,376.291 333.381,369.458 338.5,362.5C 339.492,355.018 339.825,347.352 339.5,339.5C 347.352,339.825 355.018,339.492 362.5,338.5C 380.2,334.966 390.7,324.3 394,306.5C 394.667,281.5 394.667,256.5 394,231.5C 389.972,214.807 379.472,204.973 362.5,202C 354.507,201.5 346.507,201.334 338.5,201.5C 338.5,195.833 338.5,190.167 338.5,184.5C 340.099,184.768 341.432,184.434 342.5,183.5C 345.852,183.216 348.852,182.05 351.5,180C 358.975,172.07 360.309,163.237 355.5,153.5C 355.897,152.475 356.563,152.308 357.5,153C 407.368,203.035 457.368,252.868 507.5,302.5 Z"/></g>
<g><path style="opacity:1" fill="#fee16f" d="M 172.5,184.5 C 174.199,184.34 175.866,184.506 177.5,185C 186.067,191.845 195.567,193.345 206,189.5C 209.489,192.32 212.989,195.153 216.5,198C 233.043,204.763 246.043,200.596 255.5,185.5C 255.5,189.833 255.5,194.167 255.5,198.5C 246.349,199.143 240.182,203.81 237,212.5C 236.333,251.167 236.333,289.833 237,328.5C 240.168,337.172 246.334,341.839 255.5,342.5C 255.5,348.833 255.5,355.167 255.5,361.5C 282.672,361.169 309.672,361.502 336.5,362.5C 309.5,362.5 282.5,362.5 255.5,362.5C 227.833,362.5 200.167,362.5 172.5,362.5C 172.5,303.167 172.5,243.833 172.5,184.5 Z"/></g>
<g><path style="opacity:1" fill="#ffd327" d="M 338.5,184.5 C 338.5,190.167 338.5,195.833 338.5,201.5C 338.5,209.167 338.5,216.833 338.5,224.5C 338.5,254.833 338.5,285.167 338.5,315.5C 338.5,323.167 338.5,330.833 338.5,338.5C 338.5,346.5 338.5,354.5 338.5,362.5C 337.833,362.5 337.167,362.5 336.5,362.5C 309.672,361.502 282.672,361.169 255.5,361.5C 255.5,355.167 255.5,348.833 255.5,342.5C 264.678,341.823 270.845,337.156 274,328.5C 274.667,289.833 274.667,251.167 274,212.5C 270.857,203.859 264.69,199.192 255.5,198.5C 255.5,194.167 255.5,189.833 255.5,185.5C 282.995,184.502 310.662,184.169 338.5,184.5 Z"/></g>
<g><path style="opacity:1" fill="#ffd428" d="M 202.5,198.5 C 214.134,196.897 221.967,201.563 226,212.5C 226.667,251.167 226.667,289.833 226,328.5C 219.682,341.939 209.848,345.439 196.5,339C 192.896,336.292 190.396,332.792 189,328.5C 188.333,289.833 188.333,251.167 189,212.5C 191.687,205.981 196.187,201.314 202.5,198.5 Z"/></g>
<g><path style="opacity:1" fill="#ffd428" d="M 255.5,198.5 C 255.5,246.5 255.5,294.5 255.5,342.5C 246.334,341.839 240.168,337.172 237,328.5C 236.333,289.833 236.333,251.167 237,212.5C 240.182,203.81 246.349,199.143 255.5,198.5 Z"/></g>
<g><path style="opacity:1" fill="#ffa21d" d="M 255.5,198.5 C 264.69,199.192 270.857,203.859 274,212.5C 274.667,251.167 274.667,289.833 274,328.5C 270.845,337.156 264.678,341.823 255.5,342.5C 255.5,294.5 255.5,246.5 255.5,198.5 Z"/></g>
<g><path style="opacity:1" fill="#ffa21d" d="M 298.5,198.5 C 309.836,197.414 317.669,202.08 322,212.5C 322.667,251.167 322.667,289.833 322,328.5C 318.786,337.379 312.452,342.046 303,342.5C 293.224,341.389 287.224,336.056 285,326.5C 284.333,288.5 284.333,250.5 285,212.5C 287.687,205.981 292.187,201.314 298.5,198.5 Z"/></g>
<g><path style="opacity:1" fill="#d7d6df" d="M 338.5,201.5 C 346.507,201.334 354.507,201.5 362.5,202C 379.472,204.973 389.972,214.807 394,231.5C 394.667,256.5 394.667,281.5 394,306.5C 390.7,324.3 380.2,334.966 362.5,338.5C 354.833,338.5 347.167,338.5 339.5,338.5C 339.5,331.167 339.5,323.833 339.5,316.5C 346.687,316.825 353.687,316.491 360.5,315.5C 366.109,314.391 369.609,311.058 371,305.5C 371.667,281.833 371.667,258.167 371,234.5C 369.256,229.921 366.09,226.921 361.5,225.5C 354.018,224.508 346.352,224.175 338.5,224.5C 338.5,216.833 338.5,209.167 338.5,201.5 Z"/></g>
<g><path style="opacity:1" fill="#fd9126" d="M 338.5,224.5 C 346.352,224.175 354.018,224.508 361.5,225.5C 354.167,225.5 346.833,225.5 339.5,225.5C 339.5,255.5 339.5,285.5 339.5,315.5C 339.167,315.5 338.833,315.5 338.5,315.5C 338.5,285.167 338.5,254.833 338.5,224.5 Z"/></g>
<g><path style="opacity:1" fill="#fe6613" d="M 361.5,225.5 C 366.09,226.921 369.256,229.921 371,234.5C 371.667,258.167 371.667,281.833 371,305.5C 369.609,311.058 366.109,314.391 360.5,315.5C 353.5,315.5 346.5,315.5 339.5,315.5C 339.5,285.5 339.5,255.5 339.5,225.5C 346.833,225.5 354.167,225.5 361.5,225.5 Z"/></g>
<g><path style="opacity:1" fill="#e8c48d" d="M 338.5,315.5 C 338.833,315.5 339.167,315.5 339.5,315.5C 346.5,315.5 353.5,315.5 360.5,315.5C 353.687,316.491 346.687,316.825 339.5,316.5C 339.5,323.833 339.5,331.167 339.5,338.5C 339.167,338.5 338.833,338.5 338.5,338.5C 338.5,330.833 338.5,323.167 338.5,315.5 Z"/></g>
<g><path style="opacity:1" fill="#f9953e" d="M 338.5,338.5 C 338.833,338.5 339.167,338.5 339.5,338.5C 347.167,338.5 354.833,338.5 362.5,338.5C 355.018,339.492 347.352,339.825 339.5,339.5C 339.825,347.352 339.492,355.018 338.5,362.5C 338.5,354.5 338.5,346.5 338.5,338.5 Z"/></g>
<g><path style="opacity:1" fill="#e7e6ed" d="M 172.5,362.5 C 200.167,362.5 227.833,362.5 255.5,362.5C 255.5,369.167 255.5,375.833 255.5,382.5C 233.167,382.5 210.833,382.5 188.5,382.5C 182.817,376.146 177.484,369.48 172.5,362.5 Z"/></g>
<g><path style="opacity:1" fill="#d8d5de" d="M 255.5,362.5 C 282.5,362.5 309.5,362.5 336.5,362.5C 337.167,362.5 337.833,362.5 338.5,362.5C 333.381,369.458 328.048,376.291 322.5,383C 278.168,383.5 233.835,383.667 189.5,383.5C 188.833,383.5 188.5,383.167 188.5,382.5C 210.833,382.5 233.167,382.5 255.5,382.5C 255.5,375.833 255.5,369.167 255.5,362.5 Z"/></g>
</svg>
