<?xml version="1.0" encoding="UTF-8"?>
<!DOCTYPE svg PUBLIC "-//W3C//DTD SVG 1.1//EN" "http://www.w3.org/Graphics/SVG/1.1/DTD/svg11.dtd">
<svg xmlns="http://www.w3.org/2000/svg" version="1.1" width="512px" height="512px" style="shape-rendering:geometricPrecision; text-rendering:geometricPrecision; image-rendering:optimizeQuality; fill-rule:evenodd; clip-rule:evenodd" xmlns:xlink="http://www.w3.org/1999/xlink">
<g><path style="opacity:0.997" fill="#fee16e" d="M 232.5,-0.5 C 247.833,-0.5 263.167,-0.5 278.5,-0.5C 368.144,10.3879 435.644,54.7213 481,132.5C 497.695,163.971 507.861,197.304 511.5,232.5C 511.5,245.833 511.5,259.167 511.5,272.5C 510.761,272.631 510.094,272.464 509.5,272C 473.299,235.632 436.965,199.465 400.5,163.5C 394.355,162.51 388.022,162.177 381.5,162.5C 376.167,162.5 370.833,162.5 365.5,162.5C 365.5,159.833 365.5,157.167 365.5,154.5C 359.5,154.5 353.5,154.5 347.5,154.5C 338.31,136.616 324.643,132.116 306.5,141C 301.792,144.533 298.459,149.033 296.5,154.5C 291.5,154.5 286.5,154.5 281.5,154.5C 276.666,143.075 267.999,137.075 255.5,136.5C 247.286,136.357 240.453,139.357 235,145.5C 233.141,148.564 231.308,151.564 229.5,154.5C 224.5,154.5 219.5,154.5 214.5,154.5C 205.357,136.508 191.691,132.008 173.5,141C 168.792,144.533 165.459,149.033 163.5,154.5C 157.5,154.5 151.5,154.5 145.5,154.5C 145.5,157.167 145.5,159.833 145.5,162.5C 140.167,162.5 134.833,162.5 129.5,162.5C 123.167,162.5 116.833,162.5 110.5,162.5C 119.578,192.895 136.245,218.229 160.5,238.5C 187.496,267.167 215.496,295.5 244.5,323.5C 244.833,337.183 244.499,350.85 243.5,364.5C 222.013,374.744 200.679,385.244 179.5,396C 205.165,396.5 230.831,396.667 256.5,396.5C 282.672,396.831 308.672,396.498 334.5,395.5C 335.043,395.56 335.376,395.893 335.5,396.5C 283.17,397.333 230.837,397.833 178.5,398C 215.701,435.035 252.701,472.201 289.5,509.5C 285.688,510.026 282.021,510.693 278.5,511.5C 263.167,511.5 247.833,511.5 232.5,511.5C 142.856,500.612 75.3562,456.279 30,378.5C 13.3053,347.029 3.1386,313.696 -0.5,278.5C -0.5,263.167 -0.5,247.833 -0.5,232.5C 10.3875,142.857 54.7208,75.3573 132.5,30C 163.971,13.3053 197.304,3.1386 232.5,-0.5 Z"/></g>
<g><path style="opacity:1" fill="#ee5ca3" d="M 214.5,154.5 C 215.388,157.054 215.721,159.721 215.5,162.5C 197.833,162.5 180.167,162.5 162.5,162.5C 162.401,159.763 162.735,157.096 163.5,154.5C 165.459,149.033 168.792,144.533 173.5,141C 191.691,132.008 205.357,136.508 214.5,154.5 Z"/></g>
<g><path style="opacity:1" fill="#ee5ca3" d="M 255.5,136.5 C 255.5,145.167 255.5,153.833 255.5,162.5C 246.833,162.5 238.167,162.5 229.5,162.5C 229.5,163.833 229.5,165.167 229.5,166.5C 228.566,165.432 228.232,164.099 228.5,162.5C 228.575,159.794 228.908,157.127 229.5,154.5C 231.308,151.564 233.141,148.564 235,145.5C 240.453,139.357 247.286,136.357 255.5,136.5 Z"/></g>
<g><path style="opacity:1" fill="#ea1f81" d="M 255.5,136.5 C 267.999,137.075 276.666,143.075 281.5,154.5C 281.5,156.167 281.5,157.833 281.5,159.5C 281.5,160.5 281.5,161.5 281.5,162.5C 272.833,162.5 264.167,162.5 255.5,162.5C 255.5,153.833 255.5,145.167 255.5,136.5 Z"/></g>
<g><path style="opacity:1" fill="#e91f81" d="M 347.5,154.5 C 348.265,157.096 348.599,159.763 348.5,162.5C 330.833,162.5 313.167,162.5 295.5,162.5C 295.401,159.763 295.735,157.096 296.5,154.5C 298.459,149.033 301.792,144.533 306.5,141C 324.643,132.116 338.31,136.616 347.5,154.5 Z"/></g>
<g><path style="opacity:1" fill="#8e4dd4" d="M 163.5,154.5 C 162.735,157.096 162.401,159.763 162.5,162.5C 156.833,162.5 151.167,162.5 145.5,162.5C 145.5,159.833 145.5,157.167 145.5,154.5C 151.5,154.5 157.5,154.5 163.5,154.5 Z"/></g>
<g><path style="opacity:1" fill="#8e4dd4" d="M 214.5,154.5 C 219.5,154.5 224.5,154.5 229.5,154.5C 228.908,157.127 228.575,159.794 228.5,162.5C 224.167,162.5 219.833,162.5 215.5,162.5C 215.721,159.721 215.388,157.054 214.5,154.5 Z"/></g>
<g><path style="opacity:1" fill="#fefefd" d="M 129.5,162.5 C 144.416,205.249 173.416,233.749 216.5,248C 229.176,252.12 242.176,253.954 255.5,253.5C 256.495,301.095 256.828,348.761 256.5,396.5C 230.831,396.667 205.165,396.5 179.5,396C 200.679,385.244 222.013,374.744 243.5,364.5C 244.499,350.85 244.833,337.183 244.5,323.5C 244.5,306.167 244.5,288.833 244.5,271.5C 212.984,269.112 184.984,258.112 160.5,238.5C 136.245,218.229 119.578,192.895 110.5,162.5C 116.833,162.5 123.167,162.5 129.5,162.5 Z"/></g>
<g><path style="opacity:1" fill="#ee5ca4" d="M 129.5,162.5 C 134.833,162.5 140.167,162.5 145.5,162.5C 145.5,165.5 145.5,168.5 145.5,171.5C 151.5,171.5 157.5,171.5 163.5,171.5C 172.643,189.492 186.309,193.992 204.5,185C 209.208,181.467 212.541,176.967 214.5,171.5C 219.944,172.108 224.944,171.442 229.5,169.5C 233.623,181.912 242.29,188.579 255.5,189.5C 255.833,189.5 256.167,189.5 256.5,189.5C 256.5,210.833 256.5,232.167 256.5,253.5C 256.167,253.5 255.833,253.5 255.5,253.5C 242.176,253.954 229.176,252.12 216.5,248C 173.416,233.749 144.416,205.249 129.5,162.5 Z"/></g>
<g><path style="opacity:1" fill="#653595" d="M 145.5,162.5 C 151.167,162.5 156.833,162.5 162.5,162.5C 162.508,165.545 162.841,168.545 163.5,171.5C 157.5,171.5 151.5,171.5 145.5,171.5C 145.5,168.5 145.5,165.5 145.5,162.5 Z"/></g>
<g><path style="opacity:1" fill="#e91f83" d="M 162.5,162.5 C 180.167,162.5 197.833,162.5 215.5,162.5C 215.632,165.57 215.299,168.57 214.5,171.5C 212.541,176.967 209.208,181.467 204.5,185C 186.309,193.992 172.643,189.492 163.5,171.5C 162.841,168.545 162.508,165.545 162.5,162.5 Z"/></g>
<g><path style="opacity:1" fill="#653495" d="M 215.5,162.5 C 219.833,162.5 224.167,162.5 228.5,162.5C 228.232,164.099 228.566,165.432 229.5,166.5C 229.5,167.5 229.5,168.5 229.5,169.5C 224.944,171.442 219.944,172.108 214.5,171.5C 215.299,168.57 215.632,165.57 215.5,162.5 Z"/></g>
<g><path style="opacity:1" fill="#ea1f83" d="M 255.5,162.5 C 255.5,171.5 255.5,180.5 255.5,189.5C 242.29,188.579 233.623,181.912 229.5,169.5C 229.5,168.5 229.5,167.5 229.5,166.5C 229.5,165.167 229.5,163.833 229.5,162.5C 238.167,162.5 246.833,162.5 255.5,162.5 Z"/></g>
<g><path style="opacity:1" fill="#c2126a" d="M 281.5,159.5 C 282.704,163.469 282.371,167.469 280.5,171.5C 276.256,182.4 268.256,188.4 256.5,189.5C 256.167,189.5 255.833,189.5 255.5,189.5C 255.5,180.5 255.5,171.5 255.5,162.5C 264.167,162.5 272.833,162.5 281.5,162.5C 281.5,161.5 281.5,160.5 281.5,159.5 Z"/></g>
<g><path style="opacity:1" fill="#552382" d="M 281.5,154.5 C 286.5,154.5 291.5,154.5 296.5,154.5C 295.735,157.096 295.401,159.763 295.5,162.5C 295.704,165.518 296.037,168.518 296.5,171.5C 291.167,171.5 285.833,171.5 280.5,171.5C 282.371,167.469 282.704,163.469 281.5,159.5C 281.5,157.833 281.5,156.167 281.5,154.5 Z"/></g>
<g><path style="opacity:1" fill="#c2126a" d="M 295.5,162.5 C 313.167,162.5 330.833,162.5 348.5,162.5C 348.492,165.545 348.159,168.545 347.5,171.5C 341.405,185.386 330.738,191.219 315.5,189C 306.436,186.101 300.102,180.268 296.5,171.5C 296.037,168.518 295.704,165.518 295.5,162.5 Z"/></g>
<g><path style="opacity:1" fill="#532382" d="M 347.5,154.5 C 353.5,154.5 359.5,154.5 365.5,154.5C 365.5,157.167 365.5,159.833 365.5,162.5C 365.5,165.5 365.5,168.5 365.5,171.5C 359.5,171.5 353.5,171.5 347.5,171.5C 348.159,168.545 348.492,165.545 348.5,162.5C 348.599,159.763 348.265,157.096 347.5,154.5 Z"/></g>
<g><path style="opacity:1" fill="#e91e82" d="M 365.5,162.5 C 370.833,162.5 376.167,162.5 381.5,162.5C 364.89,209.602 332.224,239.102 283.5,251C 274.553,252.457 265.553,253.29 256.5,253.5C 256.5,232.167 256.5,210.833 256.5,189.5C 268.256,188.4 276.256,182.4 280.5,171.5C 285.833,171.5 291.167,171.5 296.5,171.5C 300.102,180.268 306.436,186.101 315.5,189C 330.738,191.219 341.405,185.386 347.5,171.5C 353.5,171.5 359.5,171.5 365.5,171.5C 365.5,168.5 365.5,165.5 365.5,162.5 Z"/></g>
<g><path style="opacity:1" fill="#d6e8f5" d="M 381.5,162.5 C 388.022,162.177 394.355,162.51 400.5,163.5C 382.187,217.646 345.521,252.479 290.5,268C 282.881,269.568 275.214,270.735 267.5,271.5C 267.716,302.502 268.049,333.502 268.5,364.5C 290.489,374.828 312.489,385.161 334.5,395.5C 308.672,396.498 282.672,396.831 256.5,396.5C 256.828,348.761 256.495,301.095 255.5,253.5C 255.833,253.5 256.167,253.5 256.5,253.5C 265.553,253.29 274.553,252.457 283.5,251C 332.224,239.102 364.89,209.602 381.5,162.5 Z"/></g>
<g><path style="opacity:1" fill="#fed428" d="M 400.5,163.5 C 436.965,199.465 473.299,235.632 509.5,272C 510.094,272.464 510.761,272.631 511.5,272.5C 511.5,274.5 511.5,276.5 511.5,278.5C 500.612,368.144 456.279,435.644 378.5,481C 350.595,496.024 320.928,505.524 289.5,509.5C 252.701,472.201 215.701,435.035 178.5,398C 230.837,397.833 283.17,397.333 335.5,396.5C 335.376,395.893 335.043,395.56 334.5,395.5C 312.489,385.161 290.489,374.828 268.5,364.5C 268.049,333.502 267.716,302.502 267.5,271.5C 275.214,270.735 282.881,269.568 290.5,268C 345.521,252.479 382.187,217.646 400.5,163.5 Z"/></g>
<g><path style="opacity:1" fill="#ffd42d" d="M 160.5,238.5 C 184.984,258.112 212.984,269.112 244.5,271.5C 244.5,288.833 244.5,306.167 244.5,323.5C 215.496,295.5 187.496,267.167 160.5,238.5 Z"/></g>
</svg>
