<?xml version="1.0" encoding="UTF-8"?>
<!DOCTYPE svg PUBLIC "-//W3C//DTD SVG 1.1//EN" "http://www.w3.org/Graphics/SVG/1.1/DTD/svg11.dtd">
<svg xmlns="http://www.w3.org/2000/svg" version="1.1" width="512px" height="512px" style="shape-rendering:geometricPrecision; text-rendering:geometricPrecision; image-rendering:optimizeQuality; fill-rule:evenodd; clip-rule:evenodd" xmlns:xlink="http://www.w3.org/1999/xlink">
<g><path style="opacity:0.998" fill="#7883ed" d="M 232.5,-0.5 C 247.833,-0.5 263.167,-0.5 278.5,-0.5C 368.144,10.3879 435.644,54.7213 481,132.5C 497.695,163.971 507.861,197.304 511.5,232.5C 511.5,247.833 511.5,263.167 511.5,278.5C 510.833,281.5 510.167,284.5 509.5,287.5C 509.662,285.473 509.495,283.473 509,281.5C 453.25,225.249 397.083,169.583 340.5,114.5C 340.5,114.167 340.5,113.833 340.5,113.5C 283.669,112.501 226.669,112.168 169.5,112.5C 169.263,113.791 169.596,114.791 170.5,115.5C 179.715,169.455 188.715,223.455 197.5,277.5C 209.798,290.298 222.298,302.965 235,315.5C 235.5,302.838 235.667,290.171 235.5,277.5C 236.498,312.329 236.832,347.329 236.5,382.5C 217.5,382.5 198.5,382.5 179.5,382.5C 179.5,387.5 179.5,392.5 179.5,397.5C 179.842,398.338 180.508,398.672 181.5,398.5C 217.632,435.132 253.965,471.632 290.5,508C 292.134,508.494 293.801,508.66 295.5,508.5C 289.844,509.573 284.177,510.573 278.5,511.5C 263.167,511.5 247.833,511.5 232.5,511.5C 142.856,500.612 75.3562,456.279 30,378.5C 13.3053,347.029 3.1386,313.696 -0.5,278.5C -0.5,263.167 -0.5,247.833 -0.5,232.5C 10.3875,142.857 54.7208,75.3573 132.5,30C 163.971,13.3053 197.304,3.1386 232.5,-0.5 Z"/></g>
<g><path style="opacity:1" fill="#a3aef2" d="M 340.5,113.5 C 312.167,113.5 283.833,113.5 255.5,113.5C 226.814,112.842 198.48,113.508 170.5,115.5C 169.596,114.791 169.263,113.791 169.5,112.5C 226.669,112.168 283.669,112.501 340.5,113.5 Z"/></g>
<g><path style="opacity:1" fill="#fefefe" d="M 255.5,113.5 C 255.5,122.833 255.5,132.167 255.5,141.5C 235.833,141.5 216.167,141.5 196.5,141.5C 202.826,179.788 208.826,218.122 214.5,256.5C 228.167,256.5 241.833,256.5 255.5,256.5C 255.5,303.5 255.5,350.5 255.5,397.5C 230.5,397.5 205.5,397.5 180.5,397.5C 180.5,392.833 180.5,388.167 180.5,383.5C 199.341,383.83 218.007,383.497 236.5,382.5C 236.832,347.329 236.498,312.329 235.5,277.5C 222.833,277.5 210.167,277.5 197.5,277.5C 188.715,223.455 179.715,169.455 170.5,115.5C 198.48,113.508 226.814,112.842 255.5,113.5 Z"/></g>
<g><path style="opacity:1" fill="#d5e8f7" d="M 255.5,113.5 C 283.833,113.5 312.167,113.5 340.5,113.5C 340.5,113.833 340.5,114.167 340.5,114.5C 331.608,168.851 322.608,223.184 313.5,277.5C 300.833,277.5 288.167,277.5 275.5,277.5C 274.502,312.663 274.168,347.996 274.5,383.5C 293.167,383.5 311.833,383.5 330.5,383.5C 330.5,388.167 330.5,392.833 330.5,397.5C 305.5,397.5 280.5,397.5 255.5,397.5C 255.5,350.5 255.5,303.5 255.5,256.5C 269.344,256.829 283.01,256.496 296.5,255.5C 302.283,217.469 308.283,179.469 314.5,141.5C 307.167,141.5 299.833,141.5 292.5,141.5C 280.167,141.5 267.833,141.5 255.5,141.5C 255.5,132.167 255.5,122.833 255.5,113.5 Z"/></g>
<g><path style="opacity:1" fill="#4652ca" d="M 340.5,114.5 C 397.083,169.583 453.25,225.249 509,281.5C 509.495,283.473 509.662,285.473 509.5,287.5C 499.357,360.976 464.69,419.809 405.5,464C 372.44,487.525 335.773,502.359 295.5,508.5C 293.801,508.66 292.134,508.494 290.5,508C 253.965,471.632 217.632,435.132 181.5,398.5C 231.5,398.5 281.5,398.5 331.5,398.5C 331.5,393.167 331.5,387.833 331.5,382.5C 312.833,382.5 294.167,382.5 275.5,382.5C 275.5,347.5 275.5,312.5 275.5,277.5C 288.167,277.5 300.833,277.5 313.5,277.5C 322.608,223.184 331.608,168.851 340.5,114.5 Z"/></g>
<g><path style="opacity:1" fill="#ab7246" d="M 255.5,141.5 C 255.5,149.833 255.5,158.167 255.5,166.5C 255.666,173.175 255.5,179.842 255,186.5C 251.318,182.651 247.485,178.984 243.5,175.5C 233.167,185.167 223.167,195.167 213.5,205.5C 223.167,215.833 233.167,225.833 243.5,235.5C 247.485,232.016 251.318,228.349 255,224.5C 255.5,234.828 255.666,245.161 255.5,255.5C 269.167,255.5 282.833,255.5 296.5,255.5C 283.01,256.496 269.344,256.829 255.5,256.5C 241.833,256.5 228.167,256.5 214.5,256.5C 208.826,218.122 202.826,179.788 196.5,141.5C 216.167,141.5 235.833,141.5 255.5,141.5 Z"/></g>
<g><path style="opacity:1" fill="#71482a" d="M 255.5,141.5 C 267.833,141.5 280.167,141.5 292.5,141.5C 296.146,145.812 300.146,149.812 304.5,153.5C 294.514,163.986 284.348,174.319 274,184.5C 267.965,178.297 261.798,172.297 255.5,166.5C 255.5,158.167 255.5,149.833 255.5,141.5 Z"/></g>
<g><path style="opacity:1" fill="#94623b" d="M 292.5,141.5 C 299.833,141.5 307.167,141.5 314.5,141.5C 308.283,179.469 302.283,217.469 296.5,255.5C 282.833,255.5 269.167,255.5 255.5,255.5C 255.666,245.161 255.5,234.828 255,224.5C 251.318,228.349 247.485,232.016 243.5,235.5C 233.167,225.833 223.167,215.833 213.5,205.5C 223.167,195.167 233.167,185.167 243.5,175.5C 247.485,178.984 251.318,182.651 255,186.5C 255.5,179.842 255.666,173.175 255.5,166.5C 261.798,172.297 267.965,178.297 274,184.5C 284.348,174.319 294.514,163.986 304.5,153.5C 300.146,149.812 296.146,145.812 292.5,141.5 Z"/></g>
<g><path style="opacity:1" fill="#71482a" d="M 255.5,187.5 C 261.812,193.146 267.812,199.146 273.5,205.5C 267.848,211.652 262.015,217.652 256,223.5C 255.5,211.505 255.333,199.505 255.5,187.5 Z"/></g>
<g><path style="opacity:1" fill="#4753ca" d="M 197.5,277.5 C 210.167,277.5 222.833,277.5 235.5,277.5C 235.667,290.171 235.5,302.838 235,315.5C 222.298,302.965 209.798,290.298 197.5,277.5 Z"/></g>
<g><path style="opacity:1" fill="#b8bef6" d="M 236.5,382.5 C 218.007,383.497 199.341,383.83 180.5,383.5C 180.5,388.167 180.5,392.833 180.5,397.5C 180.167,397.5 179.833,397.5 179.5,397.5C 179.5,392.5 179.5,387.5 179.5,382.5C 198.5,382.5 217.5,382.5 236.5,382.5 Z"/></g>
<g><path style="opacity:1" fill="#7e8bdb" d="M 275.5,277.5 C 275.5,312.5 275.5,347.5 275.5,382.5C 294.167,382.5 312.833,382.5 331.5,382.5C 331.5,387.833 331.5,393.167 331.5,398.5C 281.5,398.5 231.5,398.5 181.5,398.5C 180.508,398.672 179.842,398.338 179.5,397.5C 179.833,397.5 180.167,397.5 180.5,397.5C 205.5,397.5 230.5,397.5 255.5,397.5C 280.5,397.5 305.5,397.5 330.5,397.5C 330.5,392.833 330.5,388.167 330.5,383.5C 311.833,383.5 293.167,383.5 274.5,383.5C 274.168,347.996 274.502,312.663 275.5,277.5 Z"/></g>
</svg>
