<?xml version="1.0" encoding="UTF-8"?>
<!DOCTYPE svg PUBLIC "-//W3C//DTD SVG 1.1//EN" "http://www.w3.org/Graphics/SVG/1.1/DTD/svg11.dtd">
<svg xmlns="http://www.w3.org/2000/svg" version="1.1" width="512px" height="512px" style="shape-rendering:geometricPrecision; text-rendering:geometricPrecision; image-rendering:optimizeQuality; fill-rule:evenodd; clip-rule:evenodd" xmlns:xlink="http://www.w3.org/1999/xlink">
<g><path style="opacity:0.997" fill="#d4f174" d="M 233.5,-0.5 C 248.167,-0.5 262.833,-0.5 277.5,-0.5C 365.728,9.77955 432.728,52.7796 478.5,128.5C 455.231,166.435 424.898,197.435 387.5,221.5C 379.833,221.5 372.167,221.5 364.5,221.5C 379.951,189.374 377.451,158.707 357,129.5C 347.094,118.491 335.594,109.824 322.5,103.5C 321.661,112.202 320.494,120.869 319,129.5C 317.193,135.118 314.36,140.118 310.5,144.5C 305.2,134.705 299.7,125.038 294,115.5C 281.632,98.0732 268.799,81.0732 255.5,64.5C 238.367,85.4814 222.534,107.481 208,130.5C 205.869,135.794 203.035,140.461 199.5,144.5C 196.833,140.499 194.666,136.166 193,131.5C 190.819,122.593 189.152,113.593 188,104.5C 150.336,121.666 133.336,151.333 137,193.5C 138.731,203.192 141.565,212.525 145.5,221.5C 138.167,221.5 130.833,221.5 123.5,221.5C 85.7763,197.708 55.4429,166.708 32.5,128.5C 78.2721,52.7796 145.272,9.77955 233.5,-0.5 Z"/></g>
<g><path style="opacity:1" fill="#eac42e" d="M 255.5,64.5 C 255.5,116.833 255.5,169.167 255.5,221.5C 236.833,221.5 218.167,221.5 199.5,221.5C 199.5,195.833 199.5,170.167 199.5,144.5C 203.035,140.461 205.869,135.794 208,130.5C 222.534,107.481 238.367,85.4814 255.5,64.5 Z"/></g>
<g><path style="opacity:1" fill="#e59470" d="M 255.5,64.5 C 268.799,81.0732 281.632,98.0732 294,115.5C 299.7,125.038 305.2,134.705 310.5,144.5C 314.36,140.118 317.193,135.118 319,129.5C 320.494,120.869 321.661,112.202 322.5,103.5C 335.594,109.824 347.094,118.491 357,129.5C 377.451,158.707 379.951,189.374 364.5,221.5C 328.167,221.5 291.833,221.5 255.5,221.5C 255.5,169.167 255.5,116.833 255.5,64.5 Z"/></g>
<g><path style="opacity:1" fill="#f1d170" d="M 199.5,144.5 C 199.5,170.167 199.5,195.833 199.5,221.5C 181.5,221.5 163.5,221.5 145.5,221.5C 141.565,212.525 138.731,203.192 137,193.5C 133.336,151.333 150.336,121.666 188,104.5C 189.152,113.593 190.819,122.593 193,131.5C 194.666,136.166 196.833,140.499 199.5,144.5 Z"/></g>
<g><path style="opacity:0.998" fill="#7fce8c" d="M 32.5,128.5 C 55.4429,166.708 85.7763,197.708 123.5,221.5C 114.475,221.168 105.475,221.502 96.5,222.5C 96.6236,223.107 96.9569,223.44 97.5,223.5C 115.167,244.833 132.833,266.167 150.5,287.5C 172.196,312.192 193.862,336.859 215.5,361.5C 219.833,366.833 224.167,372.167 228.5,377.5C 162.167,377.5 95.8333,377.5 29.5,377.5C 13.1298,346.334 3.12983,313.334 -0.5,278.5C -0.5,263.167 -0.5,247.833 -0.5,232.5C 3.24393,195.599 14.2439,160.932 32.5,128.5 Z"/></g>
<g><path style="opacity:0.998" fill="#7fce8c" d="M 478.5,128.5 C 496.756,160.932 507.756,195.599 511.5,232.5C 511.5,247.833 511.5,263.167 511.5,278.5C 507.87,313.334 497.87,346.334 481.5,377.5C 415.167,377.5 348.833,377.5 282.5,377.5C 308.127,347.205 334.127,317.205 360.5,287.5C 378.167,266.167 395.833,244.833 413.5,223.5C 414.043,223.44 414.376,223.107 414.5,222.5C 405.525,221.502 396.525,221.168 387.5,221.5C 424.898,197.435 455.231,166.435 478.5,128.5 Z"/></g>
<g><path style="opacity:1" fill="#d2e9c8" d="M 123.5,221.5 C 130.833,221.5 138.167,221.5 145.5,221.5C 163.5,221.5 181.5,221.5 199.5,221.5C 218.167,221.5 236.833,221.5 255.5,221.5C 255.5,221.833 255.5,222.167 255.5,222.5C 202.664,222.168 149.997,222.501 97.5,223.5C 96.9569,223.44 96.6236,223.107 96.5,222.5C 105.475,221.502 114.475,221.168 123.5,221.5 Z"/></g>
<g><path style="opacity:1" fill="#cae2e7" d="M 255.5,222.5 C 255.5,222.167 255.5,221.833 255.5,221.5C 291.833,221.5 328.167,221.5 364.5,221.5C 372.167,221.5 379.833,221.5 387.5,221.5C 396.525,221.168 405.525,221.502 414.5,222.5C 414.376,223.107 414.043,223.44 413.5,223.5C 361.003,222.501 308.336,222.168 255.5,222.5 Z"/></g>
<g><path style="opacity:1" fill="#e6f9fe" d="M 255.5,222.5 C 255.5,244.167 255.5,265.833 255.5,287.5C 242.5,287.5 229.5,287.5 216.5,287.5C 194.5,287.5 172.5,287.5 150.5,287.5C 132.833,266.167 115.167,244.833 97.5,223.5C 149.997,222.501 202.664,222.168 255.5,222.5 Z"/></g>
<g><path style="opacity:1" fill="#bce9fc" d="M 255.5,222.5 C 308.336,222.168 361.003,222.501 413.5,223.5C 395.833,244.833 378.167,266.167 360.5,287.5C 325.5,287.5 290.5,287.5 255.5,287.5C 255.5,265.833 255.5,244.167 255.5,222.5 Z"/></g>
<g><path style="opacity:1" fill="#bcf0ed" d="M 150.5,287.5 C 172.5,287.5 194.5,287.5 216.5,287.5C 216.831,312.339 216.498,337.006 215.5,361.5C 193.862,336.859 172.196,312.192 150.5,287.5 Z"/></g>
<g><path style="opacity:1" fill="#a3f1ec" d="M 216.5,287.5 C 229.5,287.5 242.5,287.5 255.5,287.5C 255.5,322.5 255.5,357.5 255.5,392.5C 251.167,392.5 246.833,392.5 242.5,392.5C 242.5,391.833 242.167,391.5 241.5,391.5C 237.157,386.792 232.824,382.125 228.5,377.5C 224.167,372.167 219.833,366.833 215.5,361.5C 216.498,337.006 216.831,312.339 216.5,287.5 Z"/></g>
<g><path style="opacity:1" fill="#6bb4c7" d="M 255.5,287.5 C 290.5,287.5 325.5,287.5 360.5,287.5C 334.127,317.205 308.127,347.205 282.5,377.5C 277.822,382.179 273.489,387.179 269.5,392.5C 269.167,392.5 268.833,392.5 268.5,392.5C 264.167,392.5 259.833,392.5 255.5,392.5C 255.5,357.5 255.5,322.5 255.5,287.5 Z"/></g>
<g><path style="opacity:0.996" fill="#299e8c" d="M 29.5,377.5 C 95.8333,377.5 162.167,377.5 228.5,377.5C 232.824,382.125 237.157,386.792 241.5,391.5C 241.5,422.5 241.5,453.5 241.5,484.5C 223.992,484.17 206.659,484.503 189.5,485.5C 189.5,491.5 189.5,497.5 189.5,503.5C 118.783,483.437 65.4501,441.437 29.5,377.5 Z"/></g>
<g><path style="opacity:0.996" fill="#299f8c" d="M 282.5,377.5 C 348.833,377.5 415.167,377.5 481.5,377.5C 445.55,441.437 392.217,483.437 321.5,503.5C 321.5,497.5 321.5,491.5 321.5,485.5C 304.341,484.503 287.008,484.17 269.5,484.5C 269.5,453.833 269.5,423.167 269.5,392.5C 273.489,387.179 277.822,382.179 282.5,377.5 Z"/></g>
<g><path style="opacity:1" fill="#48ad9e" d="M 241.5,391.5 C 242.167,391.5 242.5,391.833 242.5,392.5C 242.5,423.5 242.5,454.5 242.5,485.5C 224.833,485.5 207.167,485.5 189.5,485.5C 206.659,484.503 223.992,484.17 241.5,484.5C 241.5,453.5 241.5,422.5 241.5,391.5 Z"/></g>
<g><path style="opacity:0.995" fill="#e6f9fe" d="M 242.5,392.5 C 246.833,392.5 251.167,392.5 255.5,392.5C 255.5,432.167 255.5,471.833 255.5,511.5C 248.167,511.5 240.833,511.5 233.5,511.5C 218.798,509.715 204.131,507.048 189.5,503.5C 189.5,497.5 189.5,491.5 189.5,485.5C 207.167,485.5 224.833,485.5 242.5,485.5C 242.5,454.5 242.5,423.5 242.5,392.5 Z"/></g>
<g><path style="opacity:1" fill="#bdeafc" d="M 255.5,392.5 C 259.833,392.5 264.167,392.5 268.5,392.5C 268.5,423.5 268.5,454.5 268.5,485.5C 286.167,485.5 303.833,485.5 321.5,485.5C 321.5,491.5 321.5,497.5 321.5,503.5C 306.869,507.048 292.202,509.715 277.5,511.5C 270.167,511.5 262.833,511.5 255.5,511.5C 255.5,471.833 255.5,432.167 255.5,392.5 Z"/></g>
<g><path style="opacity:1" fill="#5bb7ad" d="M 268.5,392.5 C 268.833,392.5 269.167,392.5 269.5,392.5C 269.5,423.167 269.5,453.833 269.5,484.5C 287.008,484.17 304.341,484.503 321.5,485.5C 303.833,485.5 286.167,485.5 268.5,485.5C 268.5,454.5 268.5,423.5 268.5,392.5 Z"/></g>
</svg>
