<?xml version="1.0" encoding="UTF-8"?>
<!DOCTYPE svg PUBLIC "-//W3C//DTD SVG 1.1//EN" "http://www.w3.org/Graphics/SVG/1.1/DTD/svg11.dtd">
<svg xmlns="http://www.w3.org/2000/svg" version="1.1" width="512px" height="512px" style="shape-rendering:geometricPrecision; text-rendering:geometricPrecision; image-rendering:optimizeQuality; fill-rule:evenodd; clip-rule:evenodd" xmlns:xlink="http://www.w3.org/1999/xlink">
<g><path style="opacity:0.996" fill="#915e4b" d="M 233.5,-0.5 C 248.167,-0.5 262.833,-0.5 277.5,-0.5C 367.069,9.6733 435.236,53.0066 482,129.5C 498.004,158.673 507.837,189.673 511.5,222.5C 511.5,237.167 511.5,251.833 511.5,266.5C 510.642,270.673 509.976,275.007 509.5,279.5C 508.761,279.631 508.094,279.464 507.5,279C 469.917,241.25 432.251,203.75 394.5,166.5C 367.718,134.409 334.052,123.909 293.5,135C 279.046,140.55 266.712,149.05 256.5,160.5C 228.005,130.964 194.338,123.131 155.5,137C 118.573,155.344 101.073,185.177 103,226.5C 105.529,246.555 113.696,263.888 127.5,278.5C 150.188,300.854 172.854,323.188 195.5,345.5C 195.17,361.675 195.504,377.675 196.5,393.5C 199.78,398.781 203.447,403.781 207.5,408.5C 240.189,440.189 272.189,472.523 303.5,505.5C 292.624,508.244 281.624,510.244 270.5,511.5C 256.5,511.5 242.5,511.5 228.5,511.5C 131.789,498.905 62.6225,448.572 21,360.5C 9.73692,334.108 2.57026,306.775 -0.5,278.5C -0.5,263.167 -0.5,247.833 -0.5,232.5C 9.30366,148.244 49.637,83.0776 120.5,37C 155.422,15.9704 193.088,3.4704 233.5,-0.5 Z"/></g>
<g><path style="opacity:1" fill="#fe6611" d="M 256.5,160.5 C 256.5,172.5 256.5,184.5 256.5,196.5C 241.742,197.248 231.742,204.581 226.5,218.5C 213.759,212.151 203.926,215.151 197,227.5C 195.921,230.063 195.421,232.729 195.5,235.5C 182.498,237.832 178.665,245.165 184,257.5C 186.691,261.762 190.524,263.762 195.5,263.5C 195.5,290.833 195.5,318.167 195.5,345.5C 172.854,323.188 150.188,300.854 127.5,278.5C 113.696,263.888 105.529,246.555 103,226.5C 101.073,185.177 118.573,155.344 155.5,137C 194.338,123.131 228.005,130.964 256.5,160.5 Z"/></g>
<g><path style="opacity:1" fill="#fe2b2f" d="M 394.5,166.5 C 416.809,202.608 415.642,237.942 391,272.5C 379.965,283.702 368.798,294.702 357.5,305.5C 357.685,290.704 350.685,281.204 336.5,277C 330.175,276.5 323.842,276.334 317.5,276.5C 317.5,272.167 317.5,267.833 317.5,263.5C 326.013,262.486 330.679,257.653 331.5,249C 330.098,240.429 325.098,235.929 316.5,235.5C 314.635,220.152 305.968,213.652 290.5,216C 288.919,216.707 287.419,217.54 286,218.5C 281.131,204.46 271.298,197.127 256.5,196.5C 256.5,184.5 256.5,172.5 256.5,160.5C 266.712,149.05 279.046,140.55 293.5,135C 334.052,123.909 367.718,134.409 394.5,166.5 Z"/></g>
<g><path style="opacity:1" fill="#704738" d="M 394.5,166.5 C 432.251,203.75 469.917,241.25 507.5,279C 508.094,279.464 508.761,279.631 509.5,279.5C 495.073,366.369 450.406,432.535 375.5,478C 352.971,491.01 328.971,500.177 303.5,505.5C 272.189,472.523 240.189,440.189 207.5,408.5C 223.833,408.5 240.167,408.5 256.5,408.5C 272.837,408.667 289.17,408.5 305.5,408C 309.54,403.406 313.206,398.573 316.5,393.5C 317.489,388.025 317.822,382.358 317.5,376.5C 328.169,377.921 338.169,376.088 347.5,371C 352.317,366.849 355.483,361.682 357,355.5C 357.5,338.837 357.667,322.17 357.5,305.5C 368.798,294.702 379.965,283.702 391,272.5C 415.642,237.942 416.809,202.608 394.5,166.5 Z"/></g>
<g><path style="opacity:1" fill="#fffefd" d="M 256.5,196.5 C 256.5,218.833 256.5,241.167 256.5,263.5C 256.5,263.833 256.5,264.167 256.5,264.5C 249.067,276.142 239.067,278.975 226.5,273C 224.65,270.982 222.65,269.149 220.5,267.5C 212.688,270.983 205.688,269.816 199.5,264C 198.207,263.51 196.873,263.343 195.5,263.5C 190.524,263.762 186.691,261.762 184,257.5C 178.665,245.165 182.498,237.832 195.5,235.5C 195.421,232.729 195.921,230.063 197,227.5C 203.926,215.151 213.759,212.151 226.5,218.5C 231.742,204.581 241.742,197.248 256.5,196.5 Z"/></g>
<g><path style="opacity:1" fill="#e7e6ed" d="M 256.5,196.5 C 271.298,197.127 281.131,204.46 286,218.5C 287.419,217.54 288.919,216.707 290.5,216C 305.968,213.652 314.635,220.152 316.5,235.5C 325.098,235.929 330.098,240.429 331.5,249C 330.679,257.653 326.013,262.486 317.5,263.5C 297.167,263.5 276.833,263.5 256.5,263.5C 256.5,241.167 256.5,218.833 256.5,196.5 Z"/></g>
<g><path style="opacity:1" fill="#fee06e" d="M 195.5,263.5 C 196.873,263.343 198.207,263.51 199.5,264C 205.688,269.816 212.688,270.983 220.5,267.5C 222.65,269.149 224.65,270.982 226.5,273C 239.067,278.975 249.067,276.142 256.5,264.5C 256.5,267.833 256.5,271.167 256.5,274.5C 249.721,274.802 245.221,278.135 243,284.5C 242.333,312.5 242.333,340.5 243,368.5C 245.221,374.865 249.721,378.198 256.5,378.5C 256.5,383.5 256.5,388.5 256.5,393.5C 236.5,393.5 216.5,393.5 196.5,393.5C 195.504,377.675 195.17,361.675 195.5,345.5C 195.5,318.167 195.5,290.833 195.5,263.5 Z"/></g>
<g><path style="opacity:1" fill="#fed22a" d="M 256.5,263.5 C 276.833,263.5 297.167,263.5 317.5,263.5C 317.5,267.833 317.5,272.167 317.5,276.5C 317.5,282.167 317.5,287.833 317.5,293.5C 317.5,310.833 317.5,328.167 317.5,345.5C 317.5,350.167 317.5,354.833 317.5,359.5C 317.5,365.167 317.5,370.833 317.5,376.5C 317.822,382.358 317.489,388.025 316.5,393.5C 296.5,393.5 276.5,393.5 256.5,393.5C 256.5,388.5 256.5,383.5 256.5,378.5C 263.083,378.096 267.583,374.763 270,368.5C 270.667,340.5 270.667,312.5 270,284.5C 267.583,278.237 263.083,274.904 256.5,274.5C 256.5,271.167 256.5,267.833 256.5,264.5C 256.5,264.167 256.5,263.833 256.5,263.5 Z"/></g>
<g><path style="opacity:1" fill="#ffd429" d="M 216.5,274.5 C 225.578,272.784 231.745,276.118 235,284.5C 235.667,312.5 235.667,340.5 235,368.5C 230,378.777 222.5,381.111 212.5,375.5C 210.501,373.507 209.001,371.173 208,368.5C 207.333,340.5 207.333,312.5 208,284.5C 209.677,280.122 212.511,276.788 216.5,274.5 Z"/></g>
<g><path style="opacity:1" fill="#ffd328" d="M 256.5,274.5 C 256.5,309.167 256.5,343.833 256.5,378.5C 249.721,378.198 245.221,374.865 243,368.5C 242.333,340.5 242.333,312.5 243,284.5C 245.221,278.135 249.721,274.802 256.5,274.5 Z"/></g>
<g><path style="opacity:1" fill="#ffa21d" d="M 256.5,274.5 C 263.083,274.904 267.583,278.237 270,284.5C 270.667,312.5 270.667,340.5 270,368.5C 267.583,374.763 263.083,378.096 256.5,378.5C 256.5,343.833 256.5,309.167 256.5,274.5 Z"/></g>
<g><path style="opacity:1" fill="#ffa21d" d="M 286.5,274.5 C 295.433,272.857 301.599,276.191 305,284.5C 305.667,312.5 305.667,340.5 305,368.5C 299.523,379.075 291.69,381.241 281.5,375C 279.898,373.065 278.731,370.899 278,368.5C 277.333,340.5 277.333,312.5 278,284.5C 279.261,279.745 282.095,276.412 286.5,274.5 Z"/></g>
<g><path style="opacity:1" fill="#d6d4df" d="M 317.5,276.5 C 323.842,276.334 330.175,276.5 336.5,277C 350.685,281.204 357.685,290.704 357.5,305.5C 357.667,322.17 357.5,338.837 357,355.5C 355.483,361.682 352.317,366.849 347.5,371C 338.169,376.088 328.169,377.921 317.5,376.5C 317.5,370.833 317.5,365.167 317.5,359.5C 322.844,359.666 328.177,359.499 333.5,359C 335.848,358.654 337.681,357.487 339,355.5C 340.453,344.937 340.953,334.27 340.5,323.5C 340.941,314.724 340.441,306.058 339,297.5C 337.786,295.951 336.286,294.785 334.5,294C 328.843,293.501 323.176,293.334 317.5,293.5C 317.5,287.833 317.5,282.167 317.5,276.5 Z"/></g>
<g><path style="opacity:1" fill="#fe2b2f" d="M 317.5,293.5 C 323.176,293.334 328.843,293.501 334.5,294C 336.286,294.785 337.786,295.951 339,297.5C 340.441,306.058 340.941,314.724 340.5,323.5C 332.833,330.833 325.167,338.167 317.5,345.5C 317.5,328.167 317.5,310.833 317.5,293.5 Z"/></g>
<g><path style="opacity:1" fill="#724738" d="M 340.5,323.5 C 340.953,334.27 340.453,344.937 339,355.5C 337.681,357.487 335.848,358.654 333.5,359C 328.177,359.499 322.844,359.666 317.5,359.5C 317.5,354.833 317.5,350.167 317.5,345.5C 325.167,338.167 332.833,330.833 340.5,323.5 Z"/></g>
<g><path style="opacity:1" fill="#e6e6ed" d="M 196.5,393.5 C 216.5,393.5 236.5,393.5 256.5,393.5C 256.5,398.5 256.5,403.5 256.5,408.5C 240.167,408.5 223.833,408.5 207.5,408.5C 203.447,403.781 199.78,398.781 196.5,393.5 Z"/></g>
<g><path style="opacity:1" fill="#d6d6e1" d="M 256.5,393.5 C 276.5,393.5 296.5,393.5 316.5,393.5C 313.206,398.573 309.54,403.406 305.5,408C 289.17,408.5 272.837,408.667 256.5,408.5C 256.5,403.5 256.5,398.5 256.5,393.5 Z"/></g>
</svg>
