<?xml version="1.0" encoding="UTF-8"?>
<!DOCTYPE svg PUBLIC "-//W3C//DTD SVG 1.1//EN" "http://www.w3.org/Graphics/SVG/1.1/DTD/svg11.dtd">
<svg xmlns="http://www.w3.org/2000/svg" version="1.1" width="512px" height="512px" style="shape-rendering:geometricPrecision; text-rendering:geometricPrecision; image-rendering:optimizeQuality; fill-rule:evenodd; clip-rule:evenodd" xmlns:xlink="http://www.w3.org/1999/xlink">
<g><path style="opacity:0.995" fill="#fecd00" d="M 232.5,-0.5 C 247.833,-0.5 263.167,-0.5 278.5,-0.5C 368.144,10.3879 435.644,54.7213 481,132.5C 497.695,163.971 507.861,197.304 511.5,232.5C 511.5,240.833 511.5,249.167 511.5,257.5C 470.167,216.5 428.833,175.5 387.5,134.5C 378.414,129.291 369.081,124.624 359.5,120.5C 357.167,117.5 354.5,114.833 351.5,112.5C 342.179,109.836 332.846,107.169 323.5,104.5C 322.571,105.689 322.238,107.022 322.5,108.5C 293.965,101.308 264.965,97.6414 235.5,97.5C 206.99,96.6344 178.823,99.301 151,105.5C 150.098,105.257 149.265,104.923 148.5,104.5C 138.962,106.88 129.629,109.547 120.5,112.5C 103.875,118.641 87.5414,125.641 71.5,133.5C 70.5004,152.822 70.1671,172.155 70.5,191.5C 70.5,212.5 70.5,233.5 70.5,254.5C 70.1671,273.845 70.5004,293.178 71.5,312.5C 79.8028,316.82 88.1361,320.82 96.5,324.5C 102.833,331.5 109.5,338.167 116.5,344.5C 124.5,371.5 132.5,398.5 140.5,425.5C 168.167,453.5 195.833,481.5 223.5,509.5C 143.175,497.959 81.0087,458.293 37,390.5C 16.1784,355.868 3.67839,318.535 -0.5,278.5C -0.5,263.167 -0.5,247.833 -0.5,232.5C 10.3875,142.857 54.7208,75.3573 132.5,30C 163.971,13.3053 197.304,3.1386 232.5,-0.5 Z"/></g>
<g><path style="opacity:1" fill="#b46e59" d="M 235.5,97.5 C 235.5,117.167 235.5,136.833 235.5,156.5C 206.614,156.296 177.947,158.629 149.5,163.5C 149.809,143.787 149.476,124.121 148.5,104.5C 149.265,104.923 150.098,105.257 151,105.5C 178.823,99.301 206.99,96.6344 235.5,97.5 Z"/></g>
<g><path style="opacity:1" fill="#915041" d="M 235.5,97.5 C 264.965,97.6414 293.965,101.308 322.5,108.5C 322.5,126.833 322.5,145.167 322.5,163.5C 293.687,159.099 264.687,156.765 235.5,156.5C 235.5,136.833 235.5,117.167 235.5,97.5 Z"/></g>
<g><path style="opacity:1" fill="#784132" d="M 351.5,112.5 C 351.5,114.5 351.5,116.5 351.5,118.5C 351.5,135.833 351.5,153.167 351.5,170.5C 351.5,172.833 351.5,175.167 351.5,177.5C 351.5,207.833 351.5,238.167 351.5,268.5C 351.5,270.833 351.5,273.167 351.5,275.5C 351.17,293.008 351.503,310.341 352.5,327.5C 351.897,329.679 351.23,331.846 350.5,334C 341.234,336.812 331.9,339.312 322.5,341.5C 322.5,340.167 322.5,338.833 322.5,337.5C 322.5,319.167 322.5,300.833 322.5,282.5C 322.5,279.5 322.5,276.5 322.5,273.5C 322.5,240.167 322.5,206.833 322.5,173.5C 322.5,170.167 322.5,166.833 322.5,163.5C 322.5,145.167 322.5,126.833 322.5,108.5C 322.238,107.022 322.571,105.689 323.5,104.5C 332.846,107.169 342.179,109.836 351.5,112.5 Z"/></g>
<g><path style="opacity:1" fill="#a65d4e" d="M 148.5,104.5 C 149.476,124.121 149.809,143.787 149.5,163.5C 149.5,203.167 149.5,242.833 149.5,282.5C 149.5,301.833 149.5,321.167 149.5,340.5C 148.054,341.613 146.387,341.78 144.5,341C 136.5,338.667 128.5,336.333 120.5,334C 119.429,333.148 118.429,332.315 117.5,331.5C 119.323,313.194 120.157,294.527 120,275.5C 120.131,221.125 120.297,166.792 120.5,112.5C 129.629,109.547 138.962,106.88 148.5,104.5 Z"/></g>
<g><path style="opacity:1" fill="#f49c08" d="M 351.5,112.5 C 354.5,114.833 357.167,117.5 359.5,120.5C 356.779,120.037 354.112,119.371 351.5,118.5C 351.5,116.5 351.5,114.5 351.5,112.5 Z"/></g>
<g><path style="opacity:1" fill="#915041" d="M 351.5,118.5 C 354.112,119.371 356.779,120.037 359.5,120.5C 369.081,124.624 378.414,129.291 387.5,134.5C 387.5,150.833 387.5,167.167 387.5,183.5C 386.833,183.5 386.167,183.5 385.5,183.5C 374.555,178.403 363.221,174.07 351.5,170.5C 351.5,153.167 351.5,135.833 351.5,118.5 Z"/></g>
<g><path style="opacity:1" fill="#fea200" d="M 387.5,134.5 C 428.833,175.5 470.167,216.5 511.5,257.5C 511.5,264.5 511.5,271.5 511.5,278.5C 500.612,368.144 456.279,435.644 378.5,481C 347.029,497.695 313.696,507.861 278.5,511.5C 263.167,511.5 247.833,511.5 232.5,511.5C 229.5,510.833 226.5,510.167 223.5,509.5C 195.833,481.5 168.167,453.5 140.5,425.5C 154.5,425.5 168.5,425.5 182.5,425.5C 181.167,416.833 179.833,408.167 178.5,399.5C 197.137,397.513 216.137,396.846 235.5,397.5C 257.526,396.844 279.192,397.511 300.5,399.5C 299.283,406.803 298.283,414.136 297.5,421.5C 296.566,422.568 296.232,423.901 296.5,425.5C 311.01,425.829 325.343,425.496 339.5,424.5C 348.989,390.877 358.322,357.21 367.5,323.5C 368.267,322.828 368.934,321.995 369.5,321C 375.524,318.548 381.357,315.715 387,312.5C 387.169,296.661 387.669,280.995 388.5,265.5C 398.833,265.5 409.167,265.5 419.5,265.5C 419.5,278.833 419.5,292.167 419.5,305.5C 429.5,305.5 439.5,305.5 449.5,305.5C 449.5,282.167 449.5,258.833 449.5,235.5C 429.167,235.5 408.833,235.5 388.5,235.5C 388.167,235.5 387.833,235.5 387.5,235.5C 387.5,218.167 387.5,200.833 387.5,183.5C 387.5,167.167 387.5,150.833 387.5,134.5 Z"/></g>
<g><path style="opacity:1" fill="#c28677" d="M 235.5,156.5 C 264.687,156.765 293.687,159.099 322.5,163.5C 322.5,166.833 322.5,170.167 322.5,173.5C 293.613,170.139 264.613,168.472 235.5,168.5C 235.5,204.833 235.5,241.167 235.5,277.5C 249.171,277.667 262.837,277.5 276.5,277C 291.843,275.833 307.176,274.666 322.5,273.5C 322.5,276.5 322.5,279.5 322.5,282.5C 293.703,287.228 264.703,289.561 235.5,289.5C 206.626,289.612 177.959,287.279 149.5,282.5C 149.5,242.833 149.5,203.167 149.5,163.5C 177.947,158.629 206.614,156.296 235.5,156.5 Z"/></g>
<g><path style="opacity:1" fill="#a65d4e" d="M 322.5,173.5 C 322.5,206.833 322.5,240.167 322.5,273.5C 307.176,274.666 291.843,275.833 276.5,277C 262.837,277.5 249.171,277.667 235.5,277.5C 235.5,241.167 235.5,204.833 235.5,168.5C 264.613,168.472 293.613,170.139 322.5,173.5 Z"/></g>
<g><path style="opacity:1" fill="#c28677" d="M 70.5,254.5 C 70.5,233.5 70.5,212.5 70.5,191.5C 85.8006,182.351 102.134,175.685 119.5,171.5C 119.5,205.833 119.5,240.167 119.5,274.5C 102.018,270.564 85.6848,263.897 70.5,254.5 Z"/></g>
<g><path style="opacity:1" fill="#bf8273" d="M 351.5,170.5 C 363.221,174.07 374.555,178.403 385.5,183.5C 374.176,181.501 362.842,179.501 351.5,177.5C 351.5,175.167 351.5,172.833 351.5,170.5 Z"/></g>
<g><path style="opacity:1" fill="#a55c4d" d="M 351.5,177.5 C 362.842,179.501 374.176,181.501 385.5,183.5C 386.167,183.5 386.833,183.5 387.5,183.5C 387.5,200.833 387.5,218.167 387.5,235.5C 387.666,244.506 387.5,253.506 387,262.5C 386.617,263.056 386.117,263.389 385.5,263.5C 385.083,262.876 384.416,262.543 383.5,262.5C 372.916,264.964 362.249,266.964 351.5,268.5C 351.5,238.167 351.5,207.833 351.5,177.5 Z"/></g>
<g><path style="opacity:1" fill="#555a65" d="M 388.5,235.5 C 408.833,235.5 429.167,235.5 449.5,235.5C 449.5,258.833 449.5,282.167 449.5,305.5C 439.5,305.5 429.5,305.5 419.5,305.5C 419.5,292.167 419.5,278.833 419.5,265.5C 409.167,265.5 398.833,265.5 388.5,265.5C 388.5,255.5 388.5,245.5 388.5,235.5 Z"/></g>
<g><path style="opacity:1" fill="#b46e5a" d="M 120.5,112.5 C 120.297,166.792 120.131,221.125 120,275.5C 120.157,294.527 119.323,313.194 117.5,331.5C 116.041,331.567 114.708,331.234 113.5,330.5C 107.934,328.217 102.267,326.217 96.5,324.5C 88.1361,320.82 79.8028,316.82 71.5,312.5C 70.5004,293.178 70.1671,273.845 70.5,254.5C 85.6848,263.897 102.018,270.564 119.5,274.5C 119.5,240.167 119.5,205.833 119.5,171.5C 102.134,175.685 85.8006,182.351 70.5,191.5C 70.1671,172.155 70.5004,152.822 71.5,133.5C 87.5414,125.641 103.875,118.641 120.5,112.5 Z"/></g>
<g><path style="opacity:1" fill="#905041" d="M 387.5,235.5 C 387.833,235.5 388.167,235.5 388.5,235.5C 388.5,245.5 388.5,255.5 388.5,265.5C 387.669,280.995 387.169,296.661 387,312.5C 381.357,315.715 375.524,318.548 369.5,321C 368.934,321.995 368.267,322.828 367.5,323.5C 367.265,322.903 366.765,322.57 366,322.5C 361.669,324.665 357.169,326.332 352.5,327.5C 351.503,310.341 351.17,293.008 351.5,275.5C 363.049,272.095 374.382,268.095 385.5,263.5C 386.117,263.389 386.617,263.056 387,262.5C 387.5,253.506 387.666,244.506 387.5,235.5 Z"/></g>
<g><path style="opacity:1" fill="#bf8273" d="M 385.5,263.5 C 374.382,268.095 363.049,272.095 351.5,275.5C 351.5,273.167 351.5,270.833 351.5,268.5C 362.249,266.964 372.916,264.964 383.5,262.5C 384.416,262.543 385.083,262.876 385.5,263.5 Z"/></g>
<g><path style="opacity:1" fill="#b46e59" d="M 149.5,282.5 C 177.959,287.279 206.626,289.612 235.5,289.5C 235.5,309.167 235.5,328.833 235.5,348.5C 213.382,348.872 191.382,347.539 169.5,344.5C 162.679,343.802 156.012,342.469 149.5,340.5C 149.5,321.167 149.5,301.833 149.5,282.5 Z"/></g>
<g><path style="opacity:1" fill="#915041" d="M 322.5,282.5 C 322.5,300.833 322.5,319.167 322.5,337.5C 318.802,338.341 315.136,339.341 311.5,340.5C 310.828,341.949 310.161,343.282 309.5,344.5C 309.5,343.167 309.5,341.833 309.5,340.5C 285.136,345.874 260.47,348.54 235.5,348.5C 235.5,328.833 235.5,309.167 235.5,289.5C 264.703,289.561 293.703,287.228 322.5,282.5 Z"/></g>
<g><path style="opacity:1" fill="#61362a" d="M 367.5,323.5 C 358.322,357.21 348.989,390.877 339.5,424.5C 325.5,424.5 311.5,424.5 297.5,424.5C 297.5,423.5 297.5,422.5 297.5,421.5C 298.283,414.136 299.283,406.803 300.5,399.5C 301.404,398.791 301.737,397.791 301.5,396.5C 302.834,386.498 304.167,376.498 305.5,366.5C 307.246,359.369 308.579,352.035 309.5,344.5C 310.161,343.282 310.828,341.949 311.5,340.5C 315.136,339.341 318.802,338.341 322.5,337.5C 322.5,338.833 322.5,340.167 322.5,341.5C 331.9,339.312 341.234,336.812 350.5,334C 351.23,331.846 351.897,329.679 352.5,327.5C 357.169,326.332 361.669,324.665 366,322.5C 366.765,322.57 367.265,322.903 367.5,323.5 Z"/></g>
<g><path style="opacity:1" fill="#faa106" d="M 96.5,324.5 C 102.267,326.217 107.934,328.217 113.5,330.5C 114.815,335.094 115.815,339.761 116.5,344.5C 109.5,338.167 102.833,331.5 96.5,324.5 Z"/></g>
<g><path style="opacity:1" fill="#915040" d="M 113.5,330.5 C 114.708,331.234 116.041,331.567 117.5,331.5C 118.429,332.315 119.429,333.148 120.5,334C 128.5,336.333 136.5,338.667 144.5,341C 146.387,341.78 148.054,341.613 149.5,340.5C 156.012,342.469 162.679,343.802 169.5,344.5C 170.421,352.035 171.754,359.369 173.5,366.5C 175.155,376.453 176.488,386.453 177.5,396.5C 177.263,397.791 177.596,398.791 178.5,399.5C 179.833,408.167 181.167,416.833 182.5,425.5C 168.5,425.5 154.5,425.5 140.5,425.5C 132.5,398.5 124.5,371.5 116.5,344.5C 115.815,339.761 114.815,335.094 113.5,330.5 Z"/></g>
<g><path style="opacity:1" fill="#fda201" d="M 309.5,344.5 C 308.579,352.035 307.246,359.369 305.5,366.5C 282.167,366.5 258.833,366.5 235.5,366.5C 214.833,366.5 194.167,366.5 173.5,366.5C 171.754,359.369 170.421,352.035 169.5,344.5C 191.382,347.539 213.382,348.872 235.5,348.5C 260.47,348.54 285.136,345.874 309.5,340.5C 309.5,341.833 309.5,343.167 309.5,344.5 Z"/></g>
<g><path style="opacity:1" fill="#a65d4d" d="M 173.5,366.5 C 194.167,366.5 214.833,366.5 235.5,366.5C 235.5,376.5 235.5,386.5 235.5,396.5C 216.167,396.5 196.833,396.5 177.5,396.5C 176.488,386.453 175.155,376.453 173.5,366.5 Z"/></g>
<g><path style="opacity:1" fill="#784132" d="M 235.5,366.5 C 258.833,366.5 282.167,366.5 305.5,366.5C 304.167,376.498 302.834,386.498 301.5,396.5C 279.5,396.5 257.5,396.5 235.5,396.5C 235.5,386.5 235.5,376.5 235.5,366.5 Z"/></g>
<g><path style="opacity:1" fill="#d98520" d="M 177.5,396.5 C 196.833,396.5 216.167,396.5 235.5,396.5C 235.5,396.833 235.5,397.167 235.5,397.5C 216.137,396.846 197.137,397.513 178.5,399.5C 177.596,398.791 177.263,397.791 177.5,396.5 Z"/></g>
<g><path style="opacity:1" fill="#b16a26" d="M 235.5,397.5 C 235.5,397.167 235.5,396.833 235.5,396.5C 257.5,396.5 279.5,396.5 301.5,396.5C 301.737,397.791 301.404,398.791 300.5,399.5C 279.192,397.511 257.526,396.844 235.5,397.5 Z"/></g>
<g><path style="opacity:1" fill="#8b531f" d="M 297.5,421.5 C 297.5,422.5 297.5,423.5 297.5,424.5C 311.5,424.5 325.5,424.5 339.5,424.5C 325.343,425.496 311.01,425.829 296.5,425.5C 296.232,423.901 296.566,422.568 297.5,421.5 Z"/></g>
</svg>
