<?xml version="1.0" encoding="UTF-8"?>
<!DOCTYPE svg PUBLIC "-//W3C//DTD SVG 1.1//EN" "http://www.w3.org/Graphics/SVG/1.1/DTD/svg11.dtd">
<svg xmlns="http://www.w3.org/2000/svg" version="1.1" width="512px" height="512px" style="shape-rendering:geometricPrecision; text-rendering:geometricPrecision; image-rendering:optimizeQuality; fill-rule:evenodd; clip-rule:evenodd" xmlns:xlink="http://www.w3.org/1999/xlink">
<g><path style="opacity:0.998" fill="#7883ed" d="M 232.5,-0.5 C 247.833,-0.5 263.167,-0.5 278.5,-0.5C 368.144,10.3879 435.644,54.7213 481,132.5C 497.695,163.971 507.861,197.304 511.5,232.5C 511.5,240.167 511.5,247.833 511.5,255.5C 478.035,222.535 444.701,189.368 411.5,156C 410.906,155.536 410.239,155.369 409.5,155.5C 405.753,153.122 401.753,150.955 397.5,149C 396.365,148.251 395.365,148.417 394.5,149.5C 384.6,169.962 375.267,190.628 366.5,211.5C 365.833,211.5 365.5,211.833 365.5,212.5C 328.833,212.5 292.167,212.5 255.5,212.5C 245.5,212.5 235.5,212.5 225.5,212.5C 225.167,212.5 224.833,212.5 224.5,212.5C 219.854,207.188 214.854,202.188 209.5,197.5C 204.146,202.188 199.146,207.188 194.5,212.5C 194.167,212.5 193.833,212.5 193.5,212.5C 168.833,212.5 144.167,212.5 119.5,212.5C 110.833,212.5 102.167,212.5 93.5,212.5C 94.5342,270.318 118.701,315.652 166,348.5C 166.5,359.161 166.667,369.828 166.5,380.5C 208.882,423.883 251.882,466.55 295.5,508.5C 289.844,509.573 284.177,510.573 278.5,511.5C 263.167,511.5 247.833,511.5 232.5,511.5C 142.856,500.612 75.3562,456.279 30,378.5C 13.3053,347.029 3.1386,313.696 -0.5,278.5C -0.5,263.167 -0.5,247.833 -0.5,232.5C 10.3875,142.857 54.7208,75.3573 132.5,30C 163.971,13.3053 197.304,3.1386 232.5,-0.5 Z"/></g>
<g><path style="opacity:1" fill="#76d95c" d="M 409.5,155.5 C 400.833,174.5 392.167,193.5 383.5,212.5C 377.642,212.822 371.975,212.489 366.5,211.5C 375.267,190.628 384.6,169.962 394.5,149.5C 395.365,148.417 396.365,148.251 397.5,149C 401.753,150.955 405.753,153.122 409.5,155.5 Z"/></g>
<g><path style="opacity:1" fill="#4652ca" d="M 409.5,155.5 C 410.239,155.369 410.906,155.536 411.5,156C 444.701,189.368 478.035,222.535 511.5,255.5C 511.5,263.167 511.5,270.833 511.5,278.5C 500.612,368.144 456.279,435.644 378.5,481C 352.447,495.073 324.78,504.24 295.5,508.5C 251.882,466.55 208.882,423.883 166.5,380.5C 196.167,380.5 225.833,380.5 255.5,380.5C 285.167,380.5 314.833,380.5 344.5,380.5C 344.333,369.828 344.5,359.161 345,348.5C 392.299,315.652 416.466,270.318 417.5,212.5C 408.833,212.5 400.167,212.5 391.5,212.5C 388.833,212.5 386.167,212.5 383.5,212.5C 392.167,193.5 400.833,174.5 409.5,155.5 Z"/></g>
<g><path style="opacity:1" fill="#fbf8fc" d="M 224.5,212.5 C 214.5,212.5 204.5,212.5 194.5,212.5C 199.146,207.188 204.146,202.188 209.5,197.5C 214.854,202.188 219.854,207.188 224.5,212.5 Z"/></g>
<g><path style="opacity:1" fill="#d5e8f7" d="M 119.5,212.5 C 122.04,269.12 148.373,310.286 198.5,336C 213.368,343.134 229.035,346.967 245.5,347.5C 248.625,348.479 251.958,348.813 255.5,348.5C 255.5,359.167 255.5,369.833 255.5,380.5C 225.833,380.5 196.167,380.5 166.5,380.5C 166.667,369.828 166.5,359.161 166,348.5C 118.701,315.652 94.5342,270.318 93.5,212.5C 102.167,212.5 110.833,212.5 119.5,212.5 Z"/></g>
<g><path style="opacity:1" fill="#ea1e82" d="M 119.5,212.5 C 144.167,212.5 168.833,212.5 193.5,212.5C 191.873,214.63 190.04,216.63 188,218.5C 187.333,219.167 187.333,219.833 188,220.5C 195.014,227.681 202.181,234.681 209.5,241.5C 216.819,234.681 223.986,227.681 231,220.5C 231.667,219.833 231.667,219.167 231,218.5C 228.96,216.63 227.127,214.63 225.5,212.5C 235.5,212.5 245.5,212.5 255.5,212.5C 255.5,215.5 255.5,218.5 255.5,221.5C 247.854,228.479 240.521,235.812 233.5,243.5C 240.521,251.188 247.854,258.521 255.5,265.5C 255.5,292.833 255.5,320.167 255.5,347.5C 252.167,347.5 248.833,347.5 245.5,347.5C 229.035,346.967 213.368,343.134 198.5,336C 148.373,310.286 122.04,269.12 119.5,212.5 Z"/></g>
<g><path style="opacity:1" fill="#ee5ba3" d="M 193.5,212.5 C 193.833,212.5 194.167,212.5 194.5,212.5C 204.5,212.5 214.5,212.5 224.5,212.5C 224.833,212.5 225.167,212.5 225.5,212.5C 227.127,214.63 228.96,216.63 231,218.5C 231.667,219.167 231.667,219.833 231,220.5C 223.986,227.681 216.819,234.681 209.5,241.5C 202.181,234.681 195.014,227.681 188,220.5C 187.333,219.833 187.333,219.167 188,218.5C 190.04,216.63 191.873,214.63 193.5,212.5 Z"/></g>
<g><path style="opacity:1" fill="#c1176a" d="M 255.5,212.5 C 292.167,212.5 328.833,212.5 365.5,212.5C 353.514,238.474 341.514,264.474 329.5,290.5C 328.635,291.583 327.635,291.749 326.5,291C 307.393,282.03 288.227,273.196 269,264.5C 267.347,264.82 266.347,265.82 266,267.5C 262.459,279.93 263.625,291.93 269.5,303.5C 266.371,307.131 263.037,310.631 259.5,314C 267,321.5 274.5,329 282,336.5C 286.703,331.965 291.203,327.298 295.5,322.5C 313.063,325.162 327.563,319.829 339,306.5C 354.104,275.292 368.937,243.959 383.5,212.5C 386.167,212.5 388.833,212.5 391.5,212.5C 388.96,269.12 362.627,310.286 312.5,336C 294.324,343.808 275.324,347.975 255.5,348.5C 251.958,348.813 248.625,348.479 245.5,347.5C 248.833,347.5 252.167,347.5 255.5,347.5C 255.5,320.167 255.5,292.833 255.5,265.5C 263.146,258.521 270.479,251.188 277.5,243.5C 270.479,235.812 263.146,228.479 255.5,221.5C 255.5,218.5 255.5,215.5 255.5,212.5 Z"/></g>
<g><path style="opacity:1" fill="#50bd73" d="M 366.5,211.5 C 371.975,212.489 377.642,212.822 383.5,212.5C 368.937,243.959 354.104,275.292 339,306.5C 327.563,319.829 313.063,325.162 295.5,322.5C 285.091,318.621 276.424,312.288 269.5,303.5C 263.625,291.93 262.459,279.93 266,267.5C 266.347,265.82 267.347,264.82 269,264.5C 288.227,273.196 307.393,282.03 326.5,291C 327.635,291.749 328.635,291.583 329.5,290.5C 341.514,264.474 353.514,238.474 365.5,212.5C 365.5,211.833 365.833,211.5 366.5,211.5 Z"/></g>
<g><path style="opacity:1" fill="#b1d6f2" d="M 391.5,212.5 C 400.167,212.5 408.833,212.5 417.5,212.5C 416.466,270.318 392.299,315.652 345,348.5C 344.5,359.161 344.333,369.828 344.5,380.5C 314.833,380.5 285.167,380.5 255.5,380.5C 255.5,369.833 255.5,359.167 255.5,348.5C 275.324,347.975 294.324,343.808 312.5,336C 362.627,310.286 388.96,269.12 391.5,212.5 Z"/></g>
<g><path style="opacity:1" fill="#fdab39" d="M 289.5,251.5 C 290.922,255.569 293.922,257.736 298.5,258C 313.981,259.525 322.648,252.525 324.5,237C 324.117,231.398 321.784,226.898 317.5,223.5C 319.311,220.153 321.978,218.32 325.5,218C 333.858,229.558 334.692,241.725 328,254.5C 316.788,268.335 303.288,271.168 287.5,263C 285.415,261.959 283.748,260.459 282.5,258.5C 284.521,255.812 286.854,253.479 289.5,251.5 Z"/></g>
<g><path style="opacity:1" fill="#e91c81" d="M 255.5,221.5 C 263.146,228.479 270.479,235.812 277.5,243.5C 270.479,251.188 263.146,258.521 255.5,265.5C 255.5,250.833 255.5,236.167 255.5,221.5 Z"/></g>
<g><path style="opacity:1" fill="#ee5ba3" d="M 255.5,221.5 C 255.5,236.167 255.5,250.833 255.5,265.5C 247.854,258.521 240.521,251.188 233.5,243.5C 240.521,235.812 247.854,228.479 255.5,221.5 Z"/></g>
<g><path style="opacity:1" fill="#fed029" d="M 317.5,223.5 C 321.784,226.898 324.117,231.398 324.5,237C 322.648,252.525 313.981,259.525 298.5,258C 293.922,257.736 290.922,255.569 289.5,251.5C 298.5,241.833 307.833,232.5 317.5,223.5 Z"/></g>
<g><path style="opacity:1" fill="#fed02c" d="M 169.5,241.5 C 163.416,250.447 162.916,259.78 168,269.5C 177.939,279.345 188.439,280.011 199.5,271.5C 202.395,273.202 204.228,275.536 205,278.5C 188.502,290.486 173.502,288.819 160,273.5C 153.685,261.583 154.019,249.917 161,238.5C 162,237.5 163,236.5 164,235.5C 166.04,237.37 167.873,239.37 169.5,241.5 Z"/></g>
<g><path style="opacity:1" fill="#fede6e" d="M 169.5,241.5 C 179.833,251.167 189.833,261.167 199.5,271.5C 188.439,280.011 177.939,279.345 168,269.5C 162.916,259.78 163.416,250.447 169.5,241.5 Z"/></g>
<g><path style="opacity:1" fill="#ee5ba3" d="M 225.5,273.5 C 233.341,280.508 240.674,288.008 247.5,296C 240.711,303.791 233.544,311.291 226,318.5C 218.5,311 211,303.5 203.5,296C 211.036,288.632 218.369,281.132 225.5,273.5 Z"/></g>
<g><path style="opacity:1" fill="#e71f81" d="M 269.5,303.5 C 276.424,312.288 285.091,318.621 295.5,322.5C 291.203,327.298 286.703,331.965 282,336.5C 274.5,329 267,321.5 259.5,314C 263.037,310.631 266.371,307.131 269.5,303.5 Z"/></g>
</svg>
