<?xml version="1.0" encoding="UTF-8"?>
<!DOCTYPE svg PUBLIC "-//W3C//DTD SVG 1.1//EN" "http://www.w3.org/Graphics/SVG/1.1/DTD/svg11.dtd">
<svg xmlns="http://www.w3.org/2000/svg" version="1.1" width="512px" height="512px" style="shape-rendering:geometricPrecision; text-rendering:geometricPrecision; image-rendering:optimizeQuality; fill-rule:evenodd; clip-rule:evenodd" xmlns:xlink="http://www.w3.org/1999/xlink">
<g><path style="opacity:0.996" fill="#fe5f96" d="M 232.5,-0.5 C 247.833,-0.5 263.167,-0.5 278.5,-0.5C 364.976,9.80479 431.142,51.8048 477,125.5C 490.537,148.612 500.037,173.279 505.5,199.5C 462.833,157.167 420.167,114.833 377.5,72.5C 337.003,71.5014 296.337,71.1681 255.5,71.5C 215.167,71.5 174.833,71.5 134.5,71.5C 134.5,184.833 134.5,298.167 134.5,411.5C 174.833,411.5 215.167,411.5 255.5,411.5C 295.833,411.5 336.167,411.5 376.5,411.5C 296.334,412.333 216.001,412.833 135.5,413C 168.035,445.368 200.368,477.868 232.5,510.5C 142.638,500.417 75.1382,456.417 30,378.5C 13.3053,347.029 3.1386,313.696 -0.5,278.5C -0.5,263.167 -0.5,247.833 -0.5,232.5C 10.3875,142.857 54.7208,75.3573 132.5,30C 163.971,13.3053 197.304,3.1386 232.5,-0.5 Z"/></g>
<g><path style="opacity:1" fill="#fefefe" d="M 255.5,71.5 C 255.5,84.8333 255.5,98.1667 255.5,111.5C 241.66,108.216 227.66,107.549 213.5,109.5C 211.685,136.182 221.019,157.849 241.5,174.5C 215.5,174.5 189.5,174.5 163.5,174.5C 163.5,210.5 163.5,246.5 163.5,282.5C 163.5,284.833 163.5,287.167 163.5,289.5C 163.078,305.549 163.578,321.549 165,337.5C 170.684,357.183 183.517,369.35 203.5,374C 220.83,374.5 238.163,374.667 255.5,374.5C 255.5,386.833 255.5,399.167 255.5,411.5C 215.167,411.5 174.833,411.5 134.5,411.5C 134.5,298.167 134.5,184.833 134.5,71.5C 174.833,71.5 215.167,71.5 255.5,71.5 Z"/></g>
<g><path style="opacity:1" fill="#e8ebf4" d="M 255.5,71.5 C 296.337,71.1681 337.003,71.5014 377.5,72.5C 377.833,185.668 377.5,298.668 376.5,411.5C 336.167,411.5 295.833,411.5 255.5,411.5C 255.5,399.167 255.5,386.833 255.5,374.5C 272.503,374.667 289.503,374.5 306.5,374C 329.079,369.087 342.579,355.254 347,332.5C 347.5,318.171 347.667,303.837 347.5,289.5C 347.5,287.167 347.5,284.833 347.5,282.5C 347.5,246.5 347.5,210.5 347.5,174.5C 340.833,174.5 334.167,174.5 327.5,174.5C 349.495,157.104 357.495,134.438 351.5,106.5C 324.302,105.095 303.636,115.762 289.5,138.5C 282.039,125.376 271.039,116.709 256.5,112.5C 256.5,111.833 256.167,111.5 255.5,111.5C 255.5,98.1667 255.5,84.8333 255.5,71.5 Z"/></g>
<g><path style="opacity:1" fill="#d72878" d="M 377.5,72.5 C 420.167,114.833 462.833,157.167 505.5,199.5C 508.234,210.377 510.234,221.377 511.5,232.5C 511.5,247.833 511.5,263.167 511.5,278.5C 500.612,368.144 456.279,435.644 378.5,481C 347.029,497.695 313.696,507.861 278.5,511.5C 263.167,511.5 247.833,511.5 232.5,511.5C 232.5,511.167 232.5,510.833 232.5,510.5C 200.368,477.868 168.035,445.368 135.5,413C 216.001,412.833 296.334,412.333 376.5,411.5C 377.5,298.668 377.833,185.668 377.5,72.5 Z"/></g>
<g><path style="opacity:1" fill="#0e9154" d="M 327.5,174.5 C 314.57,181.9 300.57,185.567 285.5,185.5C 281.843,169.373 283.176,153.706 289.5,138.5C 303.636,115.762 324.302,105.095 351.5,106.5C 357.495,134.438 349.495,157.104 327.5,174.5 Z"/></g>
<g><path style="opacity:1" fill="#0cb26c" d="M 255.5,111.5 C 256.167,111.5 256.5,111.833 256.5,112.5C 255.833,135.167 255.167,157.833 254.5,180.5C 249.758,179.259 245.425,177.259 241.5,174.5C 221.019,157.849 211.685,136.182 213.5,109.5C 227.66,107.549 241.66,108.216 255.5,111.5 Z"/></g>
<g><path style="opacity:1" fill="#0e9b50" d="M 256.5,112.5 C 271.039,116.709 282.039,125.376 289.5,138.5C 283.176,153.706 281.843,169.373 285.5,185.5C 275.638,186.083 265.971,185.083 256.5,182.5C 255.833,181.833 255.167,181.167 254.5,180.5C 255.167,157.833 255.833,135.167 256.5,112.5 Z"/></g>
<g><path style="opacity:1" fill="#fece03" d="M 241.5,174.5 C 245.425,177.259 249.758,179.259 254.5,180.5C 255.167,181.167 255.833,181.833 256.5,182.5C 255.502,217.663 255.168,252.996 255.5,288.5C 225.167,288.5 194.833,288.5 164.5,288.5C 164.795,286.265 164.461,284.265 163.5,282.5C 163.5,246.5 163.5,210.5 163.5,174.5C 189.5,174.5 215.5,174.5 241.5,174.5 Z"/></g>
<g><path style="opacity:1" fill="#fcba12" d="M 327.5,174.5 C 334.167,174.5 340.833,174.5 347.5,174.5C 347.5,210.5 347.5,246.5 347.5,282.5C 346.539,284.265 346.205,286.265 346.5,288.5C 316.167,288.5 285.833,288.5 255.5,288.5C 255.168,252.996 255.502,217.663 256.5,182.5C 265.971,185.083 275.638,186.083 285.5,185.5C 300.57,185.567 314.57,181.9 327.5,174.5 Z"/></g>
<g><path style="opacity:1" fill="#f09230" d="M 163.5,282.5 C 164.461,284.265 164.795,286.265 164.5,288.5C 194.833,288.5 225.167,288.5 255.5,288.5C 255.5,288.833 255.5,289.167 255.5,289.5C 224.833,289.5 194.167,289.5 163.5,289.5C 163.5,287.167 163.5,284.833 163.5,282.5 Z"/></g>
<g><path style="opacity:1" fill="#f0a619" d="M 347.5,282.5 C 347.5,284.833 347.5,287.167 347.5,289.5C 316.833,289.5 286.167,289.5 255.5,289.5C 255.5,289.167 255.5,288.833 255.5,288.5C 285.833,288.5 316.167,288.5 346.5,288.5C 346.205,286.265 346.539,284.265 347.5,282.5 Z"/></g>
<g><path style="opacity:1" fill="#d72978" d="M 163.5,289.5 C 194.167,289.5 224.833,289.5 255.5,289.5C 255.5,317.833 255.5,346.167 255.5,374.5C 238.163,374.667 220.83,374.5 203.5,374C 183.517,369.35 170.684,357.183 165,337.5C 163.578,321.549 163.078,305.549 163.5,289.5 Z"/></g>
<g><path style="opacity:1" fill="#a0105a" d="M 255.5,289.5 C 286.167,289.5 316.833,289.5 347.5,289.5C 347.667,303.837 347.5,318.171 347,332.5C 342.579,355.254 329.079,369.087 306.5,374C 289.503,374.5 272.503,374.667 255.5,374.5C 255.5,346.167 255.5,317.833 255.5,289.5 Z"/></g>
</svg>
