<?xml version="1.0" encoding="UTF-8"?>
<!DOCTYPE svg PUBLIC "-//W3C//DTD SVG 1.1//EN" "http://www.w3.org/Graphics/SVG/1.1/DTD/svg11.dtd">
<svg xmlns="http://www.w3.org/2000/svg" version="1.1" width="512px" height="512px" style="shape-rendering:geometricPrecision; text-rendering:geometricPrecision; image-rendering:optimizeQuality; fill-rule:evenodd; clip-rule:evenodd" xmlns:xlink="http://www.w3.org/1999/xlink">
<g><path style="opacity:0.996" fill="#ffe16f" d="M 232.5,-0.5 C 247.833,-0.5 263.167,-0.5 278.5,-0.5C 368.144,10.3879 435.644,54.7213 481,132.5C 497.695,163.971 507.861,197.304 511.5,232.5C 511.5,247.833 511.5,263.167 511.5,278.5C 510.138,291.005 507.804,303.339 504.5,315.5C 436.452,247.785 368.452,180.119 300.5,112.5C 292.951,103.452 284.284,95.6182 274.5,89C 272.35,87.5886 270.016,86.7553 267.5,86.5C 265.909,96.9549 263.742,107.288 261,117.5C 258.96,119.37 257.127,121.37 255.5,123.5C 245.765,128.601 237.432,126.934 230.5,118.5C 228.235,117.353 225.902,117.186 223.5,118C 206.34,131.126 194.173,147.959 187,168.5C 183.049,179.512 180.882,190.845 180.5,202.5C 179.514,206.97 179.181,211.637 179.5,216.5C 172.5,216.5 165.5,216.5 158.5,216.5C 168.732,281.554 179.065,346.554 189.5,411.5C 221.833,444.5 254.5,477.167 287.5,509.5C 284.5,510.167 281.5,510.833 278.5,511.5C 263.167,511.5 247.833,511.5 232.5,511.5C 142.856,500.612 75.3562,456.279 30,378.5C 13.3053,347.029 3.1386,313.696 -0.5,278.5C -0.5,263.167 -0.5,247.833 -0.5,232.5C 10.3875,142.857 54.7208,75.3573 132.5,30C 163.971,13.3053 197.304,3.1386 232.5,-0.5 Z"/></g>
<g><path style="opacity:1" fill="#ea1f81" d="M 300.5,112.5 C 318.71,137.793 328.376,166.126 329.5,197.5C 329.5,203.5 329.5,209.5 329.5,215.5C 321.5,215.5 313.5,215.5 305.5,215.5C 307.103,186.224 299.27,159.891 282,136.5C 280,134.5 278,132.5 276,130.5C 274.508,137.95 272.508,145.284 270,152.5C 266.525,157.984 261.692,161.651 255.5,163.5C 255.5,150.167 255.5,136.833 255.5,123.5C 257.127,121.37 258.96,119.37 261,117.5C 263.742,107.288 265.909,96.9549 267.5,86.5C 270.016,86.7553 272.35,87.5886 274.5,89C 284.284,95.6182 292.951,103.452 300.5,112.5 Z"/></g>
<g><path style="opacity:1" fill="#ef5ca3" d="M 255.5,123.5 C 255.5,136.833 255.5,150.167 255.5,163.5C 245.658,165.664 237.325,162.998 230.5,155.5C 213.65,171.874 204.984,191.874 204.5,215.5C 196.5,215.5 188.5,215.5 180.5,215.5C 180.5,211.167 180.5,206.833 180.5,202.5C 180.882,190.845 183.049,179.512 187,168.5C 194.173,147.959 206.34,131.126 223.5,118C 225.902,117.186 228.235,117.353 230.5,118.5C 237.432,126.934 245.765,128.601 255.5,123.5 Z"/></g>
<g><path style="opacity:1" fill="#fed428" d="M 300.5,112.5 C 368.452,180.119 436.452,247.785 504.5,315.5C 484.14,395.364 436.807,453.198 362.5,489C 338.575,499.809 313.575,506.642 287.5,509.5C 254.5,477.167 221.833,444.5 189.5,411.5C 233.67,411.832 277.67,411.499 321.5,410.5C 331.822,346.629 342.155,282.629 352.5,218.5C 353.404,217.791 353.737,216.791 353.5,215.5C 345.833,215.5 338.167,215.5 330.5,215.5C 330.823,209.31 330.49,203.31 329.5,197.5C 328.376,166.126 318.71,137.793 300.5,112.5 Z"/></g>
<g><path style="opacity:1" fill="#c2126a" d="M 305.5,215.5 C 288.833,215.5 272.167,215.5 255.5,215.5C 255.5,198.167 255.5,180.833 255.5,163.5C 261.692,161.651 266.525,157.984 270,152.5C 272.508,145.284 274.508,137.95 276,130.5C 278,132.5 280,134.5 282,136.5C 299.27,159.891 307.103,186.224 305.5,215.5 Z"/></g>
<g><path style="opacity:1" fill="#ea1d82" d="M 255.5,163.5 C 255.5,180.833 255.5,198.167 255.5,215.5C 238.5,215.5 221.5,215.5 204.5,215.5C 204.984,191.874 213.65,171.874 230.5,155.5C 237.325,162.998 245.658,165.664 255.5,163.5 Z"/></g>
<g><path style="opacity:1" fill="#dc71ab" d="M 180.5,202.5 C 180.5,206.833 180.5,211.167 180.5,215.5C 188.5,215.5 196.5,215.5 204.5,215.5C 221.5,215.5 238.5,215.5 255.5,215.5C 272.167,215.5 288.833,215.5 305.5,215.5C 313.5,215.5 321.5,215.5 329.5,215.5C 329.5,215.833 329.5,216.167 329.5,216.5C 304.833,216.5 280.167,216.5 255.5,216.5C 230.167,216.5 204.833,216.5 179.5,216.5C 179.181,211.637 179.514,206.97 180.5,202.5 Z"/></g>
<g><path style="opacity:1" fill="#f3c36d" d="M 329.5,197.5 C 330.49,203.31 330.823,209.31 330.5,215.5C 338.167,215.5 345.833,215.5 353.5,215.5C 353.737,216.791 353.404,217.791 352.5,218.5C 345.24,216.535 337.573,215.868 329.5,216.5C 329.5,216.167 329.5,215.833 329.5,215.5C 329.5,209.5 329.5,203.5 329.5,197.5 Z"/></g>
<g><path style="opacity:1" fill="#fdfdfd" d="M 179.5,216.5 C 204.833,216.5 230.167,216.5 255.5,216.5C 255.5,224.5 255.5,232.5 255.5,240.5C 231.167,240.5 206.833,240.5 182.5,240.5C 182.263,241.791 182.596,242.791 183.5,243.5C 188.556,275.502 193.722,307.502 199,339.5C 206.47,368.801 225.303,384.468 255.5,386.5C 255.5,394.5 255.5,402.5 255.5,410.5C 277.5,410.5 299.5,410.5 321.5,410.5C 277.67,411.499 233.67,411.832 189.5,411.5C 179.065,346.554 168.732,281.554 158.5,216.5C 165.5,216.5 172.5,216.5 179.5,216.5 Z"/></g>
<g><path style="opacity:1" fill="#d5e8f7" d="M 255.5,216.5 C 280.167,216.5 304.833,216.5 329.5,216.5C 337.573,215.868 345.24,216.535 352.5,218.5C 342.155,282.629 331.822,346.629 321.5,410.5C 299.5,410.5 277.5,410.5 255.5,410.5C 255.5,402.5 255.5,394.5 255.5,386.5C 257.735,386.795 259.735,386.461 261.5,385.5C 288.643,381.525 305.476,366.192 312,339.5C 317.278,307.499 322.445,275.499 327.5,243.5C 328.404,242.791 328.737,241.791 328.5,240.5C 304.167,240.5 279.833,240.5 255.5,240.5C 255.5,232.5 255.5,224.5 255.5,216.5 Z"/></g>
<g><path style="opacity:1" fill="#959bd7" d="M 255.5,240.5 C 279.833,240.5 304.167,240.5 328.5,240.5C 328.737,241.791 328.404,242.791 327.5,243.5C 303.857,241.51 279.857,240.843 255.5,241.5C 231.143,240.843 207.143,241.51 183.5,243.5C 182.596,242.791 182.263,241.791 182.5,240.5C 206.833,240.5 231.167,240.5 255.5,240.5 Z"/></g>
<g><path style="opacity:1" fill="#4652ca" d="M 255.5,241.5 C 255.5,289.5 255.5,337.5 255.5,385.5C 257.5,385.5 259.5,385.5 261.5,385.5C 259.735,386.461 257.735,386.795 255.5,386.5C 225.303,384.468 206.47,368.801 199,339.5C 193.722,307.502 188.556,275.502 183.5,243.5C 207.143,241.51 231.143,240.843 255.5,241.5 Z"/></g>
<g><path style="opacity:1" fill="#3530a3" d="M 255.5,241.5 C 279.857,240.843 303.857,241.51 327.5,243.5C 322.445,275.499 317.278,307.499 312,339.5C 305.476,366.192 288.643,381.525 261.5,385.5C 259.5,385.5 257.5,385.5 255.5,385.5C 255.5,337.5 255.5,289.5 255.5,241.5 Z"/></g>
</svg>
