<?xml version="1.0" encoding="UTF-8"?>
<!DOCTYPE svg PUBLIC "-//W3C//DTD SVG 1.1//EN" "http://www.w3.org/Graphics/SVG/1.1/DTD/svg11.dtd">
<svg xmlns="http://www.w3.org/2000/svg" version="1.1" width="512px" height="512px" style="shape-rendering:geometricPrecision; text-rendering:geometricPrecision; image-rendering:optimizeQuality; fill-rule:evenodd; clip-rule:evenodd" xmlns:xlink="http://www.w3.org/1999/xlink">
<g><path style="opacity:0.995" fill="#fecd00" d="M 232.5,-0.5 C 247.833,-0.5 263.167,-0.5 278.5,-0.5C 368.144,10.3879 435.644,54.7213 481,132.5C 497.695,163.971 507.861,197.304 511.5,232.5C 511.5,247.833 511.5,263.167 511.5,278.5C 510.138,291.005 507.804,303.339 504.5,315.5C 435.5,246.833 366.5,178.167 297.5,109.5C 288.514,97.8509 279.181,86.5175 269.5,75.5C 262.202,66.2004 254.535,57.2004 246.5,48.5C 233.688,58.8114 221.021,69.3114 208.5,80C 209.999,82.3279 211.666,84.4946 213.5,86.5C 193.524,103.635 173.358,120.635 153,137.5C 122.444,122.625 92.9439,124.459 64.5,143C 45.4691,158.841 26.4691,174.675 7.5,190.5C 30.1608,110.363 79.4941,53.1961 155.5,19C 180.377,8.86452 206.043,2.36452 232.5,-0.5 Z"/></g>
<g><path style="opacity:1" fill="#0f9153" d="M 269.5,75.5 C 279.181,86.5175 288.514,97.8509 297.5,109.5C 284.864,119.825 272.197,130.158 259.5,140.5C 257.481,138.81 255.481,137.144 253.5,135.5C 246.784,125.938 239.45,116.772 231.5,108C 243.764,96.5593 256.431,85.726 269.5,75.5 Z"/></g>
<g><path style="opacity:0.999" fill="#1fd881" d="M 213.5,86.5 C 218.762,92.9362 224.262,99.2695 230,105.5C 230.667,106.5 230.667,107.5 230,108.5C 183.237,149.773 136.07,190.439 88.5,230.5C 77.0182,216.904 65.5182,203.238 54,189.5C 36.2511,205.089 18.0845,220.089 -0.5,234.5C -0.5,233.833 -0.5,233.167 -0.5,232.5C 1.13717,218.406 3.80384,204.406 7.5,190.5C 26.4691,174.675 45.4691,158.841 64.5,143C 92.9439,124.459 122.444,122.625 153,137.5C 173.358,120.635 193.524,103.635 213.5,86.5 Z"/></g>
<g><path style="opacity:1" fill="#2dc47e" d="M 269.5,75.5 C 256.431,85.726 243.764,96.5593 231.5,108C 239.45,116.772 246.784,125.938 253.5,135.5C 233.54,151.621 213.707,167.955 194,184.5C 203.517,223.282 192.684,255.115 161.5,280C 119.136,315.175 76.8025,350.341 34.5,385.5C 29.1261,377.419 24.7928,368.752 21.5,359.5C 55.4603,331.378 89.2936,303.044 123,274.5C 123.667,273.5 123.667,272.5 123,271.5C 111.635,257.974 100.135,244.641 88.5,231.5C 88.5,231.167 88.5,230.833 88.5,230.5C 136.07,190.439 183.237,149.773 230,108.5C 230.667,107.5 230.667,106.5 230,105.5C 224.262,99.2695 218.762,92.9362 213.5,86.5C 211.666,84.4946 209.999,82.3279 208.5,80C 221.021,69.3114 233.688,58.8114 246.5,48.5C 254.535,57.2004 262.202,66.2004 269.5,75.5 Z"/></g>
<g><path style="opacity:1" fill="#fea300" d="M 297.5,109.5 C 366.5,178.167 435.5,246.833 504.5,315.5C 487.576,383.577 449.576,436.41 390.5,474C 355.868,494.822 318.535,507.322 278.5,511.5C 263.5,511.5 248.5,511.5 233.5,511.5C 204.086,508.562 175.753,501.062 148.5,489C 139.952,485.232 131.952,480.732 124.5,475.5C 95.1667,445.5 65.5,415.833 35.5,386.5C 34.8333,386.5 34.5,386.167 34.5,385.5C 76.8025,350.341 119.136,315.175 161.5,280C 192.684,255.115 203.517,223.282 194,184.5C 213.707,167.955 233.54,151.621 253.5,135.5C 255.481,137.144 257.481,138.81 259.5,140.5C 272.197,130.158 284.864,119.825 297.5,109.5 Z"/></g>
<g><path style="opacity:0.995" fill="#fefefe" d="M 88.5,230.5 C 88.5,230.833 88.5,231.167 88.5,231.5C 62.6122,254.788 36.2788,277.621 9.5,300C 7.21008,301.777 5.54341,303.944 4.5,306.5C 2.34374,297.247 0.677071,287.914 -0.5,278.5C -0.5,263.833 -0.5,249.167 -0.5,234.5C 18.0845,220.089 36.2511,205.089 54,189.5C 65.5182,203.238 77.0182,216.904 88.5,230.5 Z"/></g>
<g><path style="opacity:1" fill="#fffefe" d="M 304.5,215.5 C 304.5,250.5 304.5,285.5 304.5,320.5C 271.833,320.5 239.167,320.5 206.5,320.5C 212.707,285.592 218.374,250.592 223.5,215.5C 250.5,215.5 277.5,215.5 304.5,215.5 Z"/></g>
<g><path style="opacity:1" fill="#e9edf4" d="M 304.5,215.5 C 331.5,215.5 358.5,215.5 385.5,215.5C 390.943,250.49 396.276,285.49 401.5,320.5C 369.167,320.5 336.833,320.5 304.5,320.5C 304.5,285.5 304.5,250.5 304.5,215.5 Z"/></g>
<g><path style="opacity:1" fill="#e8edf4" d="M 88.5,231.5 C 100.135,244.641 111.635,257.974 123,271.5C 123.667,272.5 123.667,273.5 123,274.5C 89.2936,303.044 55.4603,331.378 21.5,359.5C 13.2544,342.76 7.58769,325.093 4.5,306.5C 5.54341,303.944 7.21008,301.777 9.5,300C 36.2788,277.621 62.6122,254.788 88.5,231.5 Z"/></g>
<g><path style="opacity:1" fill="#fe6c52" d="M 206.5,320.5 C 239.167,320.5 271.833,320.5 304.5,320.5C 336.833,320.5 369.167,320.5 401.5,320.5C 402.167,320.5 402.5,320.833 402.5,321.5C 369.833,321.5 337.167,321.5 304.5,321.5C 304.5,361.833 304.5,402.167 304.5,442.5C 260.986,440.666 230.153,419.999 212,380.5C 205.58,360.957 203.746,340.957 206.5,320.5 Z"/></g>
<g><path style="opacity:1" fill="#ff432e" d="M 402.5,321.5 C 408.968,362.693 396.301,396.527 364.5,423C 346.711,436.207 326.711,442.707 304.5,442.5C 304.5,402.167 304.5,361.833 304.5,321.5C 337.167,321.5 369.833,321.5 402.5,321.5 Z"/></g>
<g><path style="opacity:0.935" fill="#ffcd00" d="M 35.5,386.5 C 65.5,415.833 95.1667,445.5 124.5,475.5C 93.872,457.717 68.0387,434.383 47,405.5C 42.6416,399.444 38.8082,393.11 35.5,386.5 Z"/></g>
</svg>
