<?xml version="1.0" encoding="UTF-8"?>
<!DOCTYPE svg PUBLIC "-//W3C//DTD SVG 1.1//EN" "http://www.w3.org/Graphics/SVG/1.1/DTD/svg11.dtd">
<svg xmlns="http://www.w3.org/2000/svg" version="1.1" width="512px" height="512px" style="shape-rendering:geometricPrecision; text-rendering:geometricPrecision; image-rendering:optimizeQuality; fill-rule:evenodd; clip-rule:evenodd" xmlns:xlink="http://www.w3.org/1999/xlink">
<g><path style="opacity:0.996" fill="#80dafe" d="M 232.5,-0.5 C 247.833,-0.5 263.167,-0.5 278.5,-0.5C 368.144,10.3879 435.644,54.7213 481,132.5C 497.695,163.971 507.861,197.304 511.5,232.5C 511.5,247.833 511.5,263.167 511.5,278.5C 511.167,278.5 510.833,278.5 510.5,278.5C 510.649,277.448 510.483,276.448 510,275.5C 458.965,224.299 407.799,173.299 356.5,122.5C 337.674,121.503 318.674,121.17 299.5,121.5C 277.5,98.8333 255.167,76.5 232.5,54.5C 206.672,53.5022 180.672,53.1689 154.5,53.5C 154.173,63.6806 154.506,73.6806 155.5,83.5C 167.833,96.1667 180.167,108.833 192.5,121.5C 179.816,121.168 167.149,121.501 154.5,122.5C 164.885,145.322 172.885,168.989 178.5,193.5C 197.09,269.641 206.423,346.975 206.5,425.5C 203.167,425.5 199.833,425.5 196.5,425.5C 196.5,437.833 196.5,450.167 196.5,462.5C 216.167,462.5 235.833,462.5 255.5,462.5C 255.5,462.833 255.5,463.167 255.5,463.5C 236.164,463.333 216.83,463.5 197.5,464C 213.368,479.701 229.035,495.535 244.5,511.5C 240.5,511.5 236.5,511.5 232.5,511.5C 142.856,500.612 75.3562,456.279 30,378.5C 13.3053,347.029 3.1386,313.696 -0.5,278.5C -0.5,263.167 -0.5,247.833 -0.5,232.5C 10.3875,142.857 54.7208,75.3573 132.5,30C 163.971,13.3053 197.304,3.1386 232.5,-0.5 Z"/></g>
<g><path style="opacity:1" fill="#707789" d="M 232.5,54.5 C 233.905,77.0329 235.905,99.3662 238.5,121.5C 238.5,121.833 238.5,122.167 238.5,122.5C 240.001,146.178 241.668,169.845 243.5,193.5C 233.5,193.5 223.5,193.5 213.5,193.5C 212.048,169.404 210.048,145.404 207.5,121.5C 206.72,108.813 205.72,96.1461 204.5,83.5C 188.167,83.5 171.833,83.5 155.5,83.5C 154.506,73.6806 154.173,63.6806 154.5,53.5C 180.672,53.1689 206.672,53.5022 232.5,54.5 Z"/></g>
<g><path style="opacity:1" fill="#4ab7f6" d="M 232.5,54.5 C 255.167,76.5 277.5,98.8333 299.5,121.5C 279.167,121.5 258.833,121.5 238.5,121.5C 235.905,99.3662 233.905,77.0329 232.5,54.5 Z"/></g>
<g><path style="opacity:1" fill="#4ab7f6" d="M 155.5,83.5 C 171.833,83.5 188.167,83.5 204.5,83.5C 205.72,96.1461 206.72,108.813 207.5,121.5C 202.5,121.5 197.5,121.5 192.5,121.5C 180.167,108.833 167.833,96.1667 155.5,83.5 Z"/></g>
<g><path style="opacity:1" fill="#fdfdfe" d="M 192.5,121.5 C 197.5,121.5 202.5,121.5 207.5,121.5C 210.048,145.404 212.048,169.404 213.5,193.5C 201.833,193.5 190.167,193.5 178.5,193.5C 172.885,168.989 164.885,145.322 154.5,122.5C 167.149,121.501 179.816,121.168 192.5,121.5 Z"/></g>
<g><path style="opacity:1" fill="#fdfdfd" d="M 238.5,122.5 C 244.167,122.5 249.833,122.5 255.5,122.5C 255.5,146.167 255.5,169.833 255.5,193.5C 251.5,193.5 247.5,193.5 243.5,193.5C 241.668,169.845 240.001,146.178 238.5,122.5 Z"/></g>
<g><path style="opacity:1" fill="#e8ecf4" d="M 238.5,122.5 C 238.5,122.167 238.5,121.833 238.5,121.5C 258.833,121.5 279.167,121.5 299.5,121.5C 318.674,121.17 337.674,121.503 356.5,122.5C 346.507,145.479 338.507,169.146 332.5,193.5C 306.833,193.5 281.167,193.5 255.5,193.5C 255.5,169.833 255.5,146.167 255.5,122.5C 249.833,122.5 244.167,122.5 238.5,122.5 Z"/></g>
<g><path style="opacity:1" fill="#4ab8f6" d="M 356.5,122.5 C 407.799,173.299 458.965,224.299 510,275.5C 510.483,276.448 510.649,277.448 510.5,278.5C 500.417,368.362 456.417,435.862 378.5,481C 347.029,497.695 313.696,507.861 278.5,511.5C 267.167,511.5 255.833,511.5 244.5,511.5C 229.035,495.535 213.368,479.701 197.5,464C 216.83,463.5 236.164,463.333 255.5,463.5C 275.167,463.5 294.833,463.5 314.5,463.5C 314.5,450.833 314.5,438.167 314.5,425.5C 311.167,425.5 307.833,425.5 304.5,425.5C 304.972,347.059 314.305,269.726 332.5,193.5C 338.507,169.146 346.507,145.479 356.5,122.5 Z"/></g>
<g><path style="opacity:1" fill="#fe5f96" d="M 178.5,193.5 C 190.167,193.5 201.833,193.5 213.5,193.5C 223.5,193.5 233.5,193.5 243.5,193.5C 247.5,193.5 251.5,193.5 255.5,193.5C 255.5,228.167 255.5,262.833 255.5,297.5C 272.424,298.347 278.924,307.013 275,323.5C 270.98,331.357 264.48,335.024 255.5,334.5C 255.5,364.833 255.5,395.167 255.5,425.5C 239.167,425.5 222.833,425.5 206.5,425.5C 206.423,346.975 197.09,269.641 178.5,193.5 Z"/></g>
<g><path style="opacity:1" fill="#d72878" d="M 255.5,193.5 C 281.167,193.5 306.833,193.5 332.5,193.5C 314.305,269.726 304.972,347.059 304.5,425.5C 288.167,425.5 271.833,425.5 255.5,425.5C 255.5,395.167 255.5,364.833 255.5,334.5C 264.48,335.024 270.98,331.357 275,323.5C 278.924,307.013 272.424,298.347 255.5,297.5C 255.5,262.833 255.5,228.167 255.5,193.5 Z"/></g>
<g><path style="opacity:1" fill="#ff8eb7" d="M 215.5,216.5 C 230.406,215.887 235.573,222.554 231,236.5C 224.297,244.032 217.297,244.365 210,237.5C 205.303,228.612 207.136,221.612 215.5,216.5 Z"/></g>
<g><path style="opacity:1" fill="#fe5e95" d="M 287.5,216.5 C 304.95,215.119 313.45,223.119 313,240.5C 308.81,252.019 300.644,256.852 288.5,255C 275.609,249.328 271.442,239.828 276,226.5C 278.818,221.839 282.651,218.505 287.5,216.5 Z"/></g>
<g><path style="opacity:1" fill="#ff8eb7" d="M 251.5,298.5 C 252.833,298.5 254.167,298.5 255.5,298.5C 255.5,310.167 255.5,321.833 255.5,333.5C 243.607,330.395 238.773,322.728 241,310.5C 242.08,308.004 243.414,305.67 245,303.5C 247.352,301.97 249.519,300.303 251.5,298.5 Z"/></g>
<g><path style="opacity:1" fill="#ff8eb7" d="M 225.5,352.5 C 242.448,353.749 247.615,362.082 241,377.5C 232.644,384.466 224.644,384.132 217,376.5C 211.657,365.531 214.491,357.531 225.5,352.5 Z"/></g>
<g><path style="opacity:1" fill="#fe5e95" d="M 275.5,382.5 C 283.438,380.721 289.271,383.387 293,390.5C 293.985,403.181 288.152,408.681 275.5,407C 268.765,403.475 266.265,397.975 268,390.5C 270.028,387.308 272.528,384.641 275.5,382.5 Z"/></g>
<g><path style="opacity:1" fill="#fefeff" d="M 206.5,425.5 C 222.833,425.5 239.167,425.5 255.5,425.5C 255.5,437.833 255.5,450.167 255.5,462.5C 235.833,462.5 216.167,462.5 196.5,462.5C 196.5,450.167 196.5,437.833 196.5,425.5C 199.833,425.5 203.167,425.5 206.5,425.5 Z"/></g>
<g><path style="opacity:1" fill="#e7ecf5" d="M 255.5,425.5 C 271.833,425.5 288.167,425.5 304.5,425.5C 307.833,425.5 311.167,425.5 314.5,425.5C 314.5,438.167 314.5,450.833 314.5,463.5C 294.833,463.5 275.167,463.5 255.5,463.5C 255.5,463.167 255.5,462.833 255.5,462.5C 255.5,450.167 255.5,437.833 255.5,425.5 Z"/></g>
</svg>
