<?xml version="1.0" encoding="UTF-8"?>
<!DOCTYPE svg PUBLIC "-//W3C//DTD SVG 1.1//EN" "http://www.w3.org/Graphics/SVG/1.1/DTD/svg11.dtd">
<svg xmlns="http://www.w3.org/2000/svg" version="1.1" width="512px" height="512px" style="shape-rendering:geometricPrecision; text-rendering:geometricPrecision; image-rendering:optimizeQuality; fill-rule:evenodd; clip-rule:evenodd" xmlns:xlink="http://www.w3.org/1999/xlink">
<g><path style="opacity:0.998" fill="#7883ed" d="M 232.5,-0.5 C 247.833,-0.5 263.167,-0.5 278.5,-0.5C 368.144,10.3879 435.644,54.7213 481,132.5C 497.695,163.971 507.861,197.304 511.5,232.5C 511.5,247.833 511.5,263.167 511.5,278.5C 511.167,278.5 510.833,278.5 510.5,278.5C 470.167,237.5 429.5,196.833 388.5,156.5C 366.868,134.368 345.035,112.368 323,90.5C 317.033,108.704 311.533,127.037 306.5,145.5C 294.833,145.5 283.167,145.5 271.5,145.5C 261.869,135.368 252.036,125.368 242,115.5C 241.817,118.365 241.317,121.031 240.5,123.5C 240.5,120.5 240.5,117.5 240.5,114.5C 229.499,112.223 220.332,115.223 213,123.5C 211.878,125.407 211.045,127.407 210.5,129.5C 201.135,131.334 194.802,136.668 191.5,145.5C 185.491,145.334 179.491,145.501 173.5,146C 148.675,179.727 144.675,215.894 161.5,254.5C 169.208,270.602 180.208,283.936 194.5,294.5C 209.493,311.167 225.493,327.5 242.5,343.5C 242.667,358.17 242.5,372.837 242,387.5C 224.043,394.757 206.21,402.091 188.5,409.5C 221.5,442.833 254.5,476.167 287.5,509.5C 284.5,510.167 281.5,510.833 278.5,511.5C 263.167,511.5 247.833,511.5 232.5,511.5C 142.856,500.612 75.3562,456.279 30,378.5C 13.3053,347.029 3.1386,313.696 -0.5,278.5C -0.5,263.167 -0.5,247.833 -0.5,232.5C 10.3875,142.857 54.7208,75.3573 132.5,30C 163.971,13.3053 197.304,3.1386 232.5,-0.5 Z"/></g>
<g><path style="opacity:1" fill="#fce071" d="M 388.5,156.5 C 385.371,160.131 382.037,163.631 378.5,167C 377.5,167.667 376.5,167.667 375.5,167C 360.986,152.319 346.319,137.819 331.5,123.5C 328.402,130.215 326.069,137.215 324.5,144.5C 323.833,144.5 323.5,144.833 323.5,145.5C 317.833,145.5 312.167,145.5 306.5,145.5C 311.533,127.037 317.033,108.704 323,90.5C 345.035,112.368 366.868,134.368 388.5,156.5 Z"/></g>
<g><path style="opacity:1" fill="#4fae38" d="M 240.5,123.5 C 240.453,126.969 239.787,130.302 238.5,133.5C 235.002,139.919 229.668,143.919 222.5,145.5C 218.167,145.5 213.833,145.5 209.5,145.5C 209.218,140.073 209.551,134.74 210.5,129.5C 211.045,127.407 211.878,125.407 213,123.5C 220.332,115.223 229.499,112.223 240.5,114.5C 240.5,117.5 240.5,120.5 240.5,123.5 Z"/></g>
<g><path style="opacity:1" fill="#4752ca" d="M 271.5,145.5 C 263.167,145.5 254.833,145.5 246.5,145.5C 246.167,145.5 245.833,145.5 245.5,145.5C 243.964,140.981 241.631,136.981 238.5,133.5C 239.787,130.302 240.453,126.969 240.5,123.5C 241.317,121.031 241.817,118.365 242,115.5C 252.036,125.368 261.869,135.368 271.5,145.5 Z"/></g>
<g><path style="opacity:1" fill="#4652ca" d="M 388.5,156.5 C 429.5,196.833 470.167,237.5 510.5,278.5C 500.417,368.362 456.417,435.862 378.5,481C 350.011,496.441 319.678,505.941 287.5,509.5C 254.5,476.167 221.5,442.833 188.5,409.5C 210.833,409.5 233.167,409.5 255.5,409.5C 277.836,409.667 300.169,409.5 322.5,409C 304.579,401.869 286.579,395.036 268.5,388.5C 268.5,363.5 268.5,338.5 268.5,313.5C 325.328,301.833 355.662,267 359.5,209C 359.509,185.358 352.176,164.358 337.5,146C 332.981,145.825 328.647,145.325 324.5,144.5C 326.069,137.215 328.402,130.215 331.5,123.5C 346.319,137.819 360.986,152.319 375.5,167C 376.5,167.667 377.5,167.667 378.5,167C 382.037,163.631 385.371,160.131 388.5,156.5 Z"/></g>
<g><path style="opacity:1" fill="#e95fa2" d="M 210.5,129.5 C 209.551,134.74 209.218,140.073 209.5,145.5C 203.5,145.5 197.5,145.5 191.5,145.5C 194.802,136.668 201.135,131.334 210.5,129.5 Z"/></g>
<g><path style="opacity:1" fill="#e95ea2" d="M 238.5,133.5 C 241.631,136.981 243.964,140.981 245.5,145.5C 237.833,145.5 230.167,145.5 222.5,145.5C 229.668,143.919 235.002,139.919 238.5,133.5 Z"/></g>
<g><path style="opacity:1" fill="#fdfcfe" d="M 191.5,145.5 C 190.564,149.735 190.231,154.069 190.5,158.5C 190.5,159.5 190.5,160.5 190.5,161.5C 187.223,161.216 184.057,161.549 181,162.5C 165.672,188.311 163.339,215.311 174,243.5C 188.673,275.581 213.506,293.581 248.5,297.5C 250.607,298.468 252.941,298.802 255.5,298.5C 255.5,303.5 255.5,308.5 255.5,313.5C 251.167,313.5 246.833,313.5 242.5,313.5C 225.005,311.091 209.005,304.757 194.5,294.5C 180.208,283.936 169.208,270.602 161.5,254.5C 144.675,215.894 148.675,179.727 173.5,146C 179.491,145.501 185.491,145.334 191.5,145.5 Z"/></g>
<g><path style="opacity:1" fill="#e92082" d="M 191.5,145.5 C 197.5,145.5 203.5,145.5 209.5,145.5C 213.833,145.5 218.167,145.5 222.5,145.5C 230.167,145.5 237.833,145.5 245.5,145.5C 245.833,145.5 246.167,145.5 246.5,145.5C 246.5,145.833 246.5,146.167 246.5,146.5C 246.5,151.167 246.5,155.833 246.5,160.5C 245.833,160.5 245.5,160.833 245.5,161.5C 227.5,161.5 209.5,161.5 191.5,161.5C 191.737,160.209 191.404,159.209 190.5,158.5C 190.231,154.069 190.564,149.735 191.5,145.5 Z"/></g>
<g><path style="opacity:1" fill="#fef9fc" d="M 246.5,146.5 C 249.5,146.5 252.5,146.5 255.5,146.5C 255.5,151.5 255.5,156.5 255.5,161.5C 252.287,161.81 249.287,161.477 246.5,160.5C 246.5,155.833 246.5,151.167 246.5,146.5 Z"/></g>
<g><path style="opacity:1" fill="#d3e5f7" d="M 246.5,146.5 C 246.5,146.167 246.5,145.833 246.5,145.5C 254.833,145.5 263.167,145.5 271.5,145.5C 283.167,145.5 294.833,145.5 306.5,145.5C 304.527,150.723 302.86,156.057 301.5,161.5C 286.167,161.5 270.833,161.5 255.5,161.5C 255.5,156.5 255.5,151.5 255.5,146.5C 252.5,146.5 249.5,146.5 246.5,146.5 Z"/></g>
<g><path style="opacity:1" fill="#fed42e" d="M 306.5,145.5 C 312.167,145.5 317.833,145.5 323.5,145.5C 322.37,150.888 321.037,156.222 319.5,161.5C 313.5,161.5 307.5,161.5 301.5,161.5C 302.86,156.057 304.527,150.723 306.5,145.5 Z"/></g>
<g><path style="opacity:1" fill="#d4e6f6" d="M 324.5,144.5 C 328.647,145.325 332.981,145.825 337.5,146C 352.176,164.358 359.509,185.358 359.5,209C 355.662,267 325.328,301.833 268.5,313.5C 264.167,313.5 259.833,313.5 255.5,313.5C 255.5,308.5 255.5,303.5 255.5,298.5C 252.941,298.802 250.607,298.468 248.5,297.5C 250.833,297.5 253.167,297.5 255.5,297.5C 293.703,296.149 320.869,278.149 337,243.5C 347.676,215.302 345.342,188.302 330,162.5C 326.606,161.544 323.106,161.211 319.5,161.5C 321.037,156.222 322.37,150.888 323.5,145.5C 323.5,144.833 323.833,144.5 324.5,144.5 Z"/></g>
<g><path style="opacity:1" fill="#ee5ca4" d="M 190.5,158.5 C 191.404,159.209 191.737,160.209 191.5,161.5C 193.872,174.756 200.205,185.589 210.5,194C 219.887,197.989 227.72,195.822 234,187.5C 239.74,179.685 243.574,171.019 245.5,161.5C 245.5,160.833 245.833,160.5 246.5,160.5C 249.287,161.477 252.287,161.81 255.5,161.5C 270.833,161.5 286.167,161.5 301.5,161.5C 301.5,161.833 301.5,162.167 301.5,162.5C 286.167,162.5 270.833,162.5 255.5,162.5C 255.5,207.5 255.5,252.5 255.5,297.5C 253.167,297.5 250.833,297.5 248.5,297.5C 213.506,293.581 188.673,275.581 174,243.5C 163.339,215.311 165.672,188.311 181,162.5C 184.057,161.549 187.223,161.216 190.5,161.5C 190.5,160.5 190.5,159.5 190.5,158.5 Z"/></g>
<g><path style="opacity:1" fill="#c3136a" d="M 191.5,161.5 C 209.5,161.5 227.5,161.5 245.5,161.5C 243.574,171.019 239.74,179.685 234,187.5C 227.72,195.822 219.887,197.989 210.5,194C 200.205,185.589 193.872,174.756 191.5,161.5 Z"/></g>
<g><path style="opacity:1" fill="#ea1f82" d="M 319.5,161.5 C 323.106,161.211 326.606,161.544 330,162.5C 345.342,188.302 347.676,215.302 337,243.5C 320.869,278.149 293.703,296.149 255.5,297.5C 255.5,252.5 255.5,207.5 255.5,162.5C 270.833,162.5 286.167,162.5 301.5,162.5C 289.881,199.642 278.881,236.976 268.5,274.5C 273.6,275.422 278.6,276.755 283.5,278.5C 295.895,239.648 307.895,200.648 319.5,161.5 Z"/></g>
<g><path style="opacity:1" fill="#feac39" d="M 301.5,161.5 C 307.5,161.5 313.5,161.5 319.5,161.5C 307.895,200.648 295.895,239.648 283.5,278.5C 278.6,276.755 273.6,275.422 268.5,274.5C 278.881,236.976 289.881,199.642 301.5,162.5C 301.5,162.167 301.5,161.833 301.5,161.5 Z"/></g>
<g><path style="opacity:1" fill="#4853ca" d="M 194.5,294.5 C 209.005,304.757 225.005,311.091 242.5,313.5C 242.5,323.5 242.5,333.5 242.5,343.5C 225.493,327.5 209.493,311.167 194.5,294.5 Z"/></g>
<g><path style="opacity:1" fill="#d4e7f7" d="M 242.5,313.5 C 246.833,313.5 251.167,313.5 255.5,313.5C 255.5,345.5 255.5,377.5 255.5,409.5C 233.167,409.5 210.833,409.5 188.5,409.5C 206.21,402.091 224.043,394.757 242,387.5C 242.5,372.837 242.667,358.17 242.5,343.5C 242.5,333.5 242.5,323.5 242.5,313.5 Z"/></g>
<g><path style="opacity:1" fill="#b0d5f2" d="M 255.5,313.5 C 259.833,313.5 264.167,313.5 268.5,313.5C 268.5,338.5 268.5,363.5 268.5,388.5C 286.579,395.036 304.579,401.869 322.5,409C 300.169,409.5 277.836,409.667 255.5,409.5C 255.5,377.5 255.5,345.5 255.5,313.5 Z"/></g>
</svg>
