<?xml version="1.0" encoding="UTF-8"?>
<!DOCTYPE svg PUBLIC "-//W3C//DTD SVG 1.1//EN" "http://www.w3.org/Graphics/SVG/1.1/DTD/svg11.dtd">
<svg xmlns="http://www.w3.org/2000/svg" version="1.1" width="512px" height="512px" style="shape-rendering:geometricPrecision; text-rendering:geometricPrecision; image-rendering:optimizeQuality; fill-rule:evenodd; clip-rule:evenodd" xmlns:xlink="http://www.w3.org/1999/xlink">
<g><path style="opacity:0.998" fill="#5663df" d="M 232.5,-0.5 C 247.833,-0.5 263.167,-0.5 278.5,-0.5C 368.144,10.3879 435.644,54.7213 481,132.5C 497.695,163.971 507.861,197.304 511.5,232.5C 511.5,247.833 511.5,263.167 511.5,278.5C 509.627,296.197 505.96,313.53 500.5,330.5C 432.084,260.583 363.084,191.083 293.5,122C 292.563,121.308 291.897,121.475 291.5,122.5C 284.716,110.401 274.383,103.401 260.5,101.5C 237.742,100.046 222.909,110.379 216,132.5C 213.428,151.684 220.262,166.351 236.5,176.5C 236.062,176.435 235.728,176.601 235.5,177C 249.369,190.701 263.035,204.535 276.5,218.5C 242.5,218.5 208.5,218.5 174.5,218.5C 174.179,223.695 174.513,228.695 175.5,233.5C 178.5,233.5 181.5,233.5 184.5,233.5C 184.232,235.099 184.566,236.432 185.5,237.5C 186.617,246.868 187.95,256.202 189.5,265.5C 193.813,298.687 198.479,331.687 203.5,364.5C 205.593,379.82 207.593,395.153 209.5,410.5C 224.833,410.5 240.167,410.5 255.5,410.5C 270.833,410.5 286.167,410.5 301.5,410.5C 271.336,411.332 241.003,411.832 210.5,412C 242.084,444.085 274.084,475.585 306.5,506.5C 297.247,508.656 287.914,510.323 278.5,511.5C 263.167,511.5 247.833,511.5 232.5,511.5C 142.856,500.612 75.3562,456.279 30,378.5C 13.3053,347.029 3.1386,313.696 -0.5,278.5C -0.5,263.167 -0.5,247.833 -0.5,232.5C 10.3875,142.857 54.7208,75.3573 132.5,30C 163.971,13.3053 197.304,3.1386 232.5,-0.5 Z"/></g>
<g><path style="opacity:1" fill="#fde070" d="M 260.5,101.5 C 258.833,101.5 257.167,101.5 255.5,101.5C 255.5,127.833 255.5,154.167 255.5,180.5C 248.771,180.9 242.438,179.567 236.5,176.5C 220.262,166.351 213.428,151.684 216,132.5C 222.909,110.379 237.742,100.046 260.5,101.5 Z"/></g>
<g><path style="opacity:1" fill="#fdd32a" d="M 260.5,101.5 C 274.383,103.401 284.716,110.401 291.5,122.5C 300.986,150.36 291.986,169.527 264.5,180C 261.518,180.498 258.518,180.665 255.5,180.5C 255.5,154.167 255.5,127.833 255.5,101.5C 257.167,101.5 258.833,101.5 260.5,101.5 Z"/></g>
<g><path style="opacity:1" fill="#3748da" d="M 500.5,330.5 C 477.552,403.289 431.552,456.122 362.5,489C 344.545,497.152 325.878,502.985 306.5,506.5C 274.084,475.585 242.084,444.085 210.5,412C 241.003,411.832 271.336,411.332 301.5,410.5C 303.5,395.165 305.5,379.832 307.5,364.5C 312.467,331.679 317.134,298.679 321.5,265.5C 323.114,254.87 324.447,244.203 325.5,233.5C 329.167,233.5 332.833,233.5 336.5,233.5C 336.5,228.5 336.5,223.5 336.5,218.5C 316.5,218.5 296.5,218.5 276.5,218.5C 263.035,204.535 249.369,190.701 235.5,177C 235.728,176.601 236.062,176.435 236.5,176.5C 242.438,179.567 248.771,180.9 255.5,180.5C 258.518,180.665 261.518,180.498 264.5,180C 291.986,169.527 300.986,150.36 291.5,122.5C 291.897,121.475 292.563,121.308 293.5,122C 363.084,191.083 432.084,260.583 500.5,330.5 Z"/></g>
<g><path style="opacity:1" fill="#e6e6ee" d="M 276.5,218.5 C 296.5,218.5 316.5,218.5 336.5,218.5C 336.5,223.5 336.5,228.5 336.5,233.5C 332.833,233.5 329.167,233.5 325.5,233.5C 302.167,233.5 278.833,233.5 255.5,233.5C 255.5,228.833 255.5,224.167 255.5,219.5C 228.833,219.5 202.167,219.5 175.5,219.5C 175.5,224.167 175.5,228.833 175.5,233.5C 174.513,228.695 174.179,223.695 174.5,218.5C 208.5,218.5 242.5,218.5 276.5,218.5 Z"/></g>
<g><path style="opacity:1" fill="#fefefe" d="M 255.5,233.5 C 232.167,233.5 208.833,233.5 185.5,233.5C 185.5,234.833 185.5,236.167 185.5,237.5C 184.566,236.432 184.232,235.099 184.5,233.5C 181.5,233.5 178.5,233.5 175.5,233.5C 175.5,228.833 175.5,224.167 175.5,219.5C 202.167,219.5 228.833,219.5 255.5,219.5C 255.5,224.167 255.5,228.833 255.5,233.5 Z"/></g>
<g><path style="opacity:1" fill="#fe6612" d="M 255.5,233.5 C 255.5,244.167 255.5,254.833 255.5,265.5C 233.5,265.5 211.5,265.5 189.5,265.5C 187.95,256.202 186.617,246.868 185.5,237.5C 185.5,236.167 185.5,234.833 185.5,233.5C 208.833,233.5 232.167,233.5 255.5,233.5 Z"/></g>
<g><path style="opacity:1" fill="#fe2c2f" d="M 255.5,233.5 C 278.833,233.5 302.167,233.5 325.5,233.5C 324.447,244.203 323.114,254.87 321.5,265.5C 299.5,265.5 277.5,265.5 255.5,265.5C 255.5,254.833 255.5,244.167 255.5,233.5 Z"/></g>
<g><path style="opacity:1" fill="#fe7b37" d="M 189.5,265.5 C 211.5,265.5 233.5,265.5 255.5,265.5C 255.5,298.5 255.5,331.5 255.5,364.5C 238.167,364.5 220.833,364.5 203.5,364.5C 198.479,331.687 193.813,298.687 189.5,265.5 Z"/></g>
<g><path style="opacity:1" fill="#fe6511" d="M 255.5,265.5 C 277.5,265.5 299.5,265.5 321.5,265.5C 317.134,298.679 312.467,331.679 307.5,364.5C 290.167,364.5 272.833,364.5 255.5,364.5C 255.5,331.5 255.5,298.5 255.5,265.5 Z"/></g>
<g><path style="opacity:1" fill="#fe6611" d="M 203.5,364.5 C 220.833,364.5 238.167,364.5 255.5,364.5C 255.5,379.833 255.5,395.167 255.5,410.5C 240.167,410.5 224.833,410.5 209.5,410.5C 207.593,395.153 205.593,379.82 203.5,364.5 Z"/></g>
<g><path style="opacity:1" fill="#fe2b2f" d="M 255.5,364.5 C 272.833,364.5 290.167,364.5 307.5,364.5C 305.5,379.832 303.5,395.165 301.5,410.5C 286.167,410.5 270.833,410.5 255.5,410.5C 255.5,395.167 255.5,379.833 255.5,364.5 Z"/></g>
</svg>
