<?xml version="1.0" encoding="UTF-8"?>
<!DOCTYPE svg PUBLIC "-//W3C//DTD SVG 1.1//EN" "http://www.w3.org/Graphics/SVG/1.1/DTD/svg11.dtd">
<svg xmlns="http://www.w3.org/2000/svg" version="1.1" width="512px" height="512px" style="shape-rendering:geometricPrecision; text-rendering:geometricPrecision; image-rendering:optimizeQuality; fill-rule:evenodd; clip-rule:evenodd" xmlns:xlink="http://www.w3.org/1999/xlink">
<g><path style="opacity:0.998" fill="#9d9ddf" d="M 233.5,-0.5 C 248.167,-0.5 262.833,-0.5 277.5,-0.5C 365.728,9.77955 432.728,52.7796 478.5,128.5C 461.291,157.676 439.291,182.843 412.5,204C 402.844,211.163 392.844,217.83 382.5,224C 392.675,224.17 402.675,224.67 412.5,225.5C 394.136,226.153 376.136,225.487 358.5,223.5C 368.03,189.716 378.03,156.05 388.5,122.5C 381.749,119.583 374.749,117.25 367.5,115.5C 364.989,117.469 363.489,120.136 363,123.5C 352.965,157.331 342.798,190.997 332.5,224.5C 303.833,224.5 275.167,224.5 246.5,224.5C 246.5,223.5 246.5,222.5 246.5,221.5C 248.381,202.14 242.714,185.474 229.5,171.5C 236.854,165.952 241.687,158.619 244,149.5C 244.5,135.171 244.667,120.837 244.5,106.5C 220.862,103.663 201.528,111.33 186.5,129.5C 182.095,126.604 178.095,123.104 174.5,119C 160.259,108.377 144.259,104.211 126.5,106.5C 126.063,122.224 126.563,137.891 128,153.5C 130.793,161.791 135.96,168.125 143.5,172.5C 131.046,187.206 126.046,204.206 128.5,223.5C 88.4777,199.845 56.4777,168.178 32.5,128.5C 78.2721,52.7796 145.272,9.77955 233.5,-0.5 Z"/></g>
<g><path style="opacity:1" fill="#e2f6a3" d="M 186.5,129.5 C 185.533,137.414 185.199,145.414 185.5,153.5C 169.239,154.966 155.239,161.299 143.5,172.5C 135.96,168.125 130.793,161.791 128,153.5C 126.563,137.891 126.063,122.224 126.5,106.5C 144.259,104.211 160.259,108.377 174.5,119C 178.095,123.104 182.095,126.604 186.5,129.5 Z"/></g>
<g><path style="opacity:1" fill="#aedc4e" d="M 229.5,171.5 C 219.582,161.542 207.582,155.875 193.5,154.5C 191.052,153.527 188.385,153.194 185.5,153.5C 185.199,145.414 185.533,137.414 186.5,129.5C 201.528,111.33 220.862,103.663 244.5,106.5C 244.667,120.837 244.5,135.171 244,149.5C 241.687,158.619 236.854,165.952 229.5,171.5 Z"/></g>
<g><path style="opacity:1" fill="#d4f176" d="M 358.5,223.5 C 346.13,262.951 334.13,302.618 322.5,342.5C 313.618,341.796 304.951,340.463 296.5,338.5C 298.776,338.244 299.943,336.91 300,334.5C 310.739,298.119 321.572,261.786 332.5,225.5C 332.5,225.167 332.5,224.833 332.5,224.5C 342.798,190.997 352.965,157.331 363,123.5C 363.489,120.136 364.989,117.469 367.5,115.5C 374.749,117.25 381.749,119.583 388.5,122.5C 378.03,156.05 368.03,189.716 358.5,223.5 Z"/></g>
<g><path style="opacity:0.997" fill="#7d7dd6" d="M 32.5,128.5 C 56.4777,168.178 88.4777,199.845 128.5,223.5C 128.5,224.167 128.5,224.833 128.5,225.5C 128.5,262.833 128.5,300.167 128.5,337.5C 127.504,350.656 127.171,363.99 127.5,377.5C 94.9957,377.168 62.6624,377.502 30.5,378.5C 13.3569,347.256 3.02353,313.923 -0.5,278.5C -0.5,263.167 -0.5,247.833 -0.5,232.5C 3.24393,195.599 14.2439,160.932 32.5,128.5 Z"/></g>
<g><path style="opacity:0.996" fill="#7d7cd5" d="M 478.5,128.5 C 496.756,160.932 507.756,195.599 511.5,232.5C 511.5,247.833 511.5,263.167 511.5,278.5C 507.87,313.334 497.87,346.334 481.5,377.5C 458.833,377.5 436.167,377.5 413.5,377.5C 413.828,389.678 413.495,401.678 412.5,413.5C 412.5,384.5 412.5,355.5 412.5,326.5C 413.833,292.833 413.833,259.167 412.5,225.5C 402.675,224.67 392.675,224.17 382.5,224C 392.844,217.83 402.844,211.163 412.5,204C 439.291,182.843 461.291,157.676 478.5,128.5 Z"/></g>
<g><path style="opacity:1" fill="#e59370" d="M 185.5,153.5 C 188.385,153.194 191.052,153.527 193.5,154.5C 190.833,154.5 188.167,154.5 185.5,154.5C 185.5,178.167 185.5,201.833 185.5,225.5C 166.833,225.5 148.167,225.5 129.5,225.5C 129.167,225.5 128.833,225.5 128.5,225.5C 128.5,224.833 128.5,224.167 128.5,223.5C 126.046,204.206 131.046,187.206 143.5,172.5C 155.239,161.299 169.239,154.966 185.5,153.5 Z"/></g>
<g><path style="opacity:1" fill="#df6426" d="M 193.5,154.5 C 207.582,155.875 219.582,161.542 229.5,171.5C 242.714,185.474 248.381,202.14 246.5,221.5C 245.566,222.568 245.232,223.901 245.5,225.5C 225.5,225.5 205.5,225.5 185.5,225.5C 185.5,201.833 185.5,178.167 185.5,154.5C 188.167,154.5 190.833,154.5 193.5,154.5 Z"/></g>
<g><path style="opacity:1" fill="#b8c6ec" d="M 246.5,221.5 C 246.5,222.5 246.5,223.5 246.5,224.5C 275.167,224.5 303.833,224.5 332.5,224.5C 332.5,224.833 332.5,225.167 332.5,225.5C 311.833,225.5 291.167,225.5 270.5,225.5C 262.167,225.5 253.833,225.5 245.5,225.5C 245.232,223.901 245.566,222.568 246.5,221.5 Z"/></g>
<g><path style="opacity:1" fill="#e7f9fd" d="M 128.5,225.5 C 128.833,225.5 129.167,225.5 129.5,225.5C 133.751,251.858 146.084,273.358 166.5,290C 180.446,298.494 194.446,298.494 208.5,290C 228.942,273.298 241.275,251.798 245.5,225.5C 253.833,225.5 262.167,225.5 270.5,225.5C 270.5,260.833 270.5,296.167 270.5,331.5C 256.344,327.694 242.01,324.528 227.5,322C 217.87,320.802 208.204,320.302 198.5,320.5C 173.64,320.07 150.307,325.737 128.5,337.5C 128.5,300.167 128.5,262.833 128.5,225.5 Z"/></g>
<g><path style="opacity:1" fill="#cf3b0e" d="M 129.5,225.5 C 148.167,225.5 166.833,225.5 185.5,225.5C 205.5,225.5 225.5,225.5 245.5,225.5C 241.275,251.798 228.942,273.298 208.5,290C 194.446,298.494 180.446,298.494 166.5,290C 146.084,273.358 133.751,251.858 129.5,225.5 Z"/></g>
<g><path style="opacity:1" fill="#bde9fc" d="M 270.5,225.5 C 291.167,225.5 311.833,225.5 332.5,225.5C 321.572,261.786 310.739,298.119 300,334.5C 299.943,336.91 298.776,338.244 296.5,338.5C 288.048,336.97 279.714,334.97 271.5,332.5C 271.5,331.833 271.167,331.5 270.5,331.5C 270.5,296.167 270.5,260.833 270.5,225.5 Z"/></g>
<g><path style="opacity:1" fill="#bce9fc" d="M 358.5,223.5 C 376.136,225.487 394.136,226.153 412.5,225.5C 413.833,259.167 413.833,292.833 412.5,326.5C 383.893,340.267 353.893,345.6 322.5,342.5C 334.13,302.618 346.13,262.951 358.5,223.5 Z"/></g>
<g><path style="opacity:1" fill="#f2cc91" d="M 198.5,320.5 C 198.5,342.833 198.5,365.167 198.5,387.5C 190.859,390.552 183.193,393.719 175.5,397C 183.665,417.994 191.331,439.161 198.5,460.5C 198.5,475.5 198.5,490.5 198.5,505.5C 180.129,501.488 162.463,495.488 145.5,487.5C 131.408,452.195 125.408,415.529 127.5,377.5C 127.171,363.99 127.504,350.656 128.5,337.5C 150.307,325.737 173.64,320.07 198.5,320.5 Z"/></g>
<g><path style="opacity:0.998" fill="#e59370" d="M 198.5,320.5 C 208.204,320.302 217.87,320.802 227.5,322C 242.01,324.528 256.344,327.694 270.5,331.5C 271.167,331.5 271.5,331.833 271.5,332.5C 270.501,391.998 270.168,451.664 270.5,511.5C 257.833,511.5 245.167,511.5 232.5,511.5C 221.21,509.951 209.877,507.951 198.5,505.5C 198.5,490.5 198.5,475.5 198.5,460.5C 199.79,462.14 201.457,462.64 203.5,462C 224.421,454.194 245.421,446.694 266.5,439.5C 258.998,417.161 250.998,394.995 242.5,373C 227.817,377.493 213.151,382.327 198.5,387.5C 198.5,365.167 198.5,342.833 198.5,320.5 Z"/></g>
<g><path style="opacity:1" fill="#d95f2a" d="M 412.5,326.5 C 412.5,355.5 412.5,384.5 412.5,413.5C 411.547,430.887 408.547,447.887 403.5,464.5C 366.157,491.396 324.491,507.062 278.5,511.5C 275.833,511.5 273.167,511.5 270.5,511.5C 270.168,451.664 270.501,391.998 271.5,332.5C 279.714,334.97 288.048,336.97 296.5,338.5C 304.951,340.463 313.618,341.796 322.5,342.5C 353.893,345.6 383.893,340.267 412.5,326.5 Z"/></g>
<g><path style="opacity:1" fill="#da5f2a" d="M 198.5,460.5 C 191.331,439.161 183.665,417.994 175.5,397C 183.193,393.719 190.859,390.552 198.5,387.5C 213.151,382.327 227.817,377.493 242.5,373C 250.998,394.995 258.998,417.161 266.5,439.5C 245.421,446.694 224.421,454.194 203.5,462C 201.457,462.64 199.79,462.14 198.5,460.5 Z"/></g>
<g><path style="opacity:0.991" fill="#5541b7" d="M 127.5,377.5 C 125.408,415.529 131.408,452.195 145.5,487.5C 95.8185,463.152 57.4852,426.819 30.5,378.5C 62.6624,377.502 94.9957,377.168 127.5,377.5 Z"/></g>
<g><path style="opacity:0.987" fill="#5541b7" d="M 481.5,377.5 C 462.574,412.764 436.574,441.764 403.5,464.5C 408.547,447.887 411.547,430.887 412.5,413.5C 413.495,401.678 413.828,389.678 413.5,377.5C 436.167,377.5 458.833,377.5 481.5,377.5 Z"/></g>
<g><path style="opacity:1" fill="#a72020" d="M 294.5,392.5 C 318.167,392.5 341.833,392.5 365.5,392.5C 365.5,416.167 365.5,439.833 365.5,463.5C 341.833,463.5 318.167,463.5 294.5,463.5C 294.5,439.833 294.5,416.167 294.5,392.5 Z"/></g>
</svg>
