<?xml version="1.0" encoding="UTF-8"?>
<!DOCTYPE svg PUBLIC "-//W3C//DTD SVG 1.1//EN" "http://www.w3.org/Graphics/SVG/1.1/DTD/svg11.dtd">
<svg xmlns="http://www.w3.org/2000/svg" version="1.1" width="512px" height="512px" style="shape-rendering:geometricPrecision; text-rendering:geometricPrecision; image-rendering:optimizeQuality; fill-rule:evenodd; clip-rule:evenodd" xmlns:xlink="http://www.w3.org/1999/xlink">
<g><path style="opacity:0.997" fill="#8e4dd4" d="M 232.5,-0.5 C 247.833,-0.5 263.167,-0.5 278.5,-0.5C 368.144,10.3879 435.644,54.7213 481,132.5C 497.695,163.971 507.861,197.304 511.5,232.5C 511.5,247.833 511.5,263.167 511.5,278.5C 511.167,278.5 510.833,278.5 510.5,278.5C 510.66,276.801 510.494,275.134 510,273.5C 465.583,228.582 420.75,184.249 375.5,140.5C 361.477,122.09 342.81,114.257 319.5,117C 294.123,123.209 278.789,139.043 273.5,164.5C 272.686,166.631 272.186,168.964 272,171.5C 266.636,165.601 261.136,160.601 255.5,156.5C 249.833,161.5 244.5,166.833 239.5,172.5C 220.326,172.17 201.326,172.503 182.5,173.5C 153.638,218.963 143.804,268.297 153,321.5C 159.078,346.026 171.911,366.026 191.5,381.5C 231.723,422.224 272.223,462.89 313,503.5C 313.464,504.094 313.631,504.761 313.5,505.5C 301.803,508.06 290.136,510.06 278.5,511.5C 263.167,511.5 247.833,511.5 232.5,511.5C 142.856,500.612 75.3562,456.279 30,378.5C 13.3053,347.029 3.1386,313.696 -0.5,278.5C -0.5,263.167 -0.5,247.833 -0.5,232.5C 10.3875,142.857 54.7208,75.3573 132.5,30C 163.971,13.3053 197.304,3.1386 232.5,-0.5 Z"/></g>
<g><path style="opacity:1" fill="#fde070" d="M 375.5,140.5 C 389.086,163.078 388.586,185.411 374,207.5C 368.442,214.569 361.608,219.902 353.5,223.5C 350.554,219.356 348.554,214.689 347.5,209.5C 362.512,201.823 370.179,189.49 370.5,172.5C 370.214,157.098 363.548,145.264 350.5,137C 328.014,126.506 309.181,131.006 294,150.5C 289.706,157.214 287.539,164.547 287.5,172.5C 301.677,172.171 315.677,172.504 329.5,173.5C 311.167,173.5 292.833,173.5 274.5,173.5C 273.523,170.713 273.19,167.713 273.5,164.5C 278.789,139.043 294.123,123.209 319.5,117C 342.81,114.257 361.477,122.09 375.5,140.5 Z"/></g>
<g><path style="opacity:1" fill="#fed429" d="M 347.5,209.5 C 342.06,197.287 336.06,185.287 329.5,173.5C 315.677,172.504 301.677,172.171 287.5,172.5C 287.539,164.547 289.706,157.214 294,150.5C 309.181,131.006 328.014,126.506 350.5,137C 363.548,145.264 370.214,157.098 370.5,172.5C 370.179,189.49 362.512,201.823 347.5,209.5 Z"/></g>
<g><path style="opacity:1" fill="#613393" d="M 375.5,140.5 C 420.75,184.249 465.583,228.582 510,273.5C 510.494,275.134 510.66,276.801 510.5,278.5C 501.07,365.238 459.403,431.405 385.5,477C 362.937,490.114 338.937,499.614 313.5,505.5C 313.631,504.761 313.464,504.094 313,503.5C 272.223,462.89 231.723,422.224 191.5,381.5C 193.332,382.248 194.999,383.248 196.5,384.5C 235.665,385.665 274.998,385.831 314.5,385C 342.503,365.191 358.336,338.025 362,303.5C 363.897,276.67 360.73,250.504 352.5,225C 353.056,224.617 353.389,224.117 353.5,223.5C 361.608,219.902 368.442,214.569 374,207.5C 388.586,185.411 389.086,163.078 375.5,140.5 Z"/></g>
<g><path style="opacity:1" fill="#fefefe" d="M 255.5,156.5 C 255.5,161.833 255.5,167.167 255.5,172.5C 250.167,172.5 244.833,172.5 239.5,172.5C 244.5,166.833 249.833,161.5 255.5,156.5 Z"/></g>
<g><path style="opacity:1" fill="#fdfdfd" d="M 182.5,173.5 C 200.836,173.333 219.17,173.5 237.5,174C 231.63,179.702 225.964,185.535 220.5,191.5C 212.316,191.174 204.316,191.508 196.5,192.5C 175.919,225.157 167.086,260.824 170,299.5C 171.958,318.388 178.792,335.222 190.5,350C 212.164,350.5 233.831,350.667 255.5,350.5C 277.167,350.5 298.833,350.5 320.5,350.5C 299.006,351.497 277.34,351.831 255.5,351.5C 255.5,362.5 255.5,373.5 255.5,384.5C 235.833,384.5 216.167,384.5 196.5,384.5C 194.999,383.248 193.332,382.248 191.5,381.5C 171.911,366.026 159.078,346.026 153,321.5C 143.804,268.297 153.638,218.963 182.5,173.5 Z"/></g>
<g><path style="opacity:1" fill="#d6e4f7" d="M 182.5,173.5 C 201.326,172.503 220.326,172.17 239.5,172.5C 244.833,172.5 250.167,172.5 255.5,172.5C 255.5,178.833 255.5,185.167 255.5,191.5C 243.833,191.5 232.167,191.5 220.5,191.5C 225.964,185.535 231.63,179.702 237.5,174C 219.17,173.5 200.836,173.333 182.5,173.5 Z"/></g>
<g><path style="opacity:1" fill="#bad9f2" d="M 273.5,164.5 C 273.19,167.713 273.523,170.713 274.5,173.5C 279.964,179.465 285.63,185.298 291.5,191C 279.505,191.5 267.505,191.667 255.5,191.5C 255.5,185.167 255.5,178.833 255.5,172.5C 255.5,167.167 255.5,161.833 255.5,156.5C 261.136,160.601 266.636,165.601 272,171.5C 272.186,168.964 272.686,166.631 273.5,164.5 Z"/></g>
<g><path style="opacity:1" fill="#d3e6f5" d="M 274.5,173.5 C 292.833,173.5 311.167,173.5 329.5,173.5C 336.06,185.287 342.06,197.287 347.5,209.5C 348.554,214.689 350.554,219.356 353.5,223.5C 353.389,224.117 353.056,224.617 352.5,225C 360.73,250.504 363.897,276.67 362,303.5C 358.336,338.025 342.503,365.191 314.5,385C 274.998,385.831 235.665,385.665 196.5,384.5C 216.167,384.5 235.833,384.5 255.5,384.5C 255.5,373.5 255.5,362.5 255.5,351.5C 277.34,351.831 299.006,351.497 320.5,350.5C 335.973,330.329 343.307,307.329 342.5,281.5C 341.034,249.937 332.201,220.603 316,193.5C 307.919,192.518 299.752,192.184 291.5,192.5C 279.5,192.5 267.5,192.5 255.5,192.5C 243.833,192.5 232.167,192.5 220.5,192.5C 212.5,192.5 204.5,192.5 196.5,192.5C 204.316,191.508 212.316,191.174 220.5,191.5C 232.167,191.5 243.833,191.5 255.5,191.5C 267.505,191.667 279.505,191.5 291.5,191C 285.63,185.298 279.964,179.465 274.5,173.5 Z"/></g>
<g><path style="opacity:1" fill="#b5e44e" d="M 196.5,192.5 C 204.5,192.5 212.5,192.5 220.5,192.5C 231.833,204.5 243.5,216.167 255.5,227.5C 255.5,227.833 255.5,228.167 255.5,228.5C 255.5,269.167 255.5,309.833 255.5,350.5C 233.831,350.667 212.164,350.5 190.5,350C 178.792,335.222 171.958,318.388 170,299.5C 167.086,260.824 175.919,225.157 196.5,192.5 Z"/></g>
<g><path style="opacity:1" fill="#77dc59" d="M 220.5,192.5 C 232.167,192.5 243.833,192.5 255.5,192.5C 255.5,204.167 255.5,215.833 255.5,227.5C 243.5,216.167 231.833,204.5 220.5,192.5 Z"/></g>
<g><path style="opacity:1" fill="#4fbf73" d="M 255.5,192.5 C 267.5,192.5 279.5,192.5 291.5,192.5C 279.833,204.833 267.833,216.833 255.5,228.5C 255.5,228.167 255.5,227.833 255.5,227.5C 255.5,215.833 255.5,204.167 255.5,192.5 Z"/></g>
<g><path style="opacity:1" fill="#77db5a" d="M 291.5,192.5 C 299.752,192.184 307.919,192.518 316,193.5C 332.201,220.603 341.034,249.937 342.5,281.5C 343.307,307.329 335.973,330.329 320.5,350.5C 298.833,350.5 277.167,350.5 255.5,350.5C 255.5,309.833 255.5,269.167 255.5,228.5C 267.833,216.833 279.833,204.833 291.5,192.5 Z"/></g>
<g><path style="opacity:1" fill="#4fbf73" d="M 291.5,210.5 C 301.764,220.098 311.764,230.098 321.5,240.5C 312.167,250.5 302.5,260.167 292.5,269.5C 282.347,259.848 272.347,250.014 262.5,240C 272.369,230.298 282.036,220.465 291.5,210.5 Z"/></g>
</svg>
