<?xml version="1.0" encoding="UTF-8"?>
<!DOCTYPE svg PUBLIC "-//W3C//DTD SVG 1.1//EN" "http://www.w3.org/Graphics/SVG/1.1/DTD/svg11.dtd">
<svg xmlns="http://www.w3.org/2000/svg" version="1.1" width="512px" height="512px" style="shape-rendering:geometricPrecision; text-rendering:geometricPrecision; image-rendering:optimizeQuality; fill-rule:evenodd; clip-rule:evenodd" xmlns:xlink="http://www.w3.org/1999/xlink">
<g><path style="opacity:0.997" fill="#d5f174" d="M 233.5,-0.5 C 248.167,-0.5 262.833,-0.5 277.5,-0.5C 365.728,9.77955 432.728,52.7796 478.5,128.5C 456.515,164.653 427.849,194.487 392.5,218C 383.84,218.5 375.173,218.666 366.5,218.5C 386.249,166.739 372.249,127.072 324.5,99.5C 322.609,108.456 320.775,117.456 319,126.5C 317.112,131.945 314.445,136.945 311,141.5C 305.439,130.042 299.105,119.042 292,108.5C 279.97,92.3154 267.803,76.3154 255.5,60.5C 238.367,81.4814 222.534,103.481 208,126.5C 205.487,131.527 202.987,136.527 200.5,141.5C 195.813,136.803 192.646,131.136 191,124.5C 190.143,116.021 188.643,107.688 186.5,99.5C 173.647,107.189 162.147,116.522 152,127.5C 132.497,156.849 130.33,187.515 145.5,219.5C 137.167,219.5 128.833,219.5 120.5,219.5C 84.3901,195.723 55.0568,165.39 32.5,128.5C 78.2721,52.7796 145.272,9.77955 233.5,-0.5 Z"/></g>
<g><path style="opacity:1" fill="#eac32e" d="M 255.5,60.5 C 255.5,113.5 255.5,166.5 255.5,219.5C 237.167,219.5 218.833,219.5 200.5,219.5C 200.5,193.5 200.5,167.5 200.5,141.5C 202.987,136.527 205.487,131.527 208,126.5C 222.534,103.481 238.367,81.4814 255.5,60.5 Z"/></g>
<g><path style="opacity:1" fill="#e59470" d="M 255.5,60.5 C 267.803,76.3154 279.97,92.3154 292,108.5C 299.105,119.042 305.439,130.042 311,141.5C 314.445,136.945 317.112,131.945 319,126.5C 320.775,117.456 322.609,108.456 324.5,99.5C 372.249,127.072 386.249,166.739 366.5,218.5C 365.833,218.5 365.5,218.833 365.5,219.5C 355.833,219.5 346.167,219.5 336.5,219.5C 309.5,219.5 282.5,219.5 255.5,219.5C 255.5,166.5 255.5,113.5 255.5,60.5 Z"/></g>
<g><path style="opacity:1" fill="#f1d270" d="M 200.5,141.5 C 200.5,167.5 200.5,193.5 200.5,219.5C 191.833,219.5 183.167,219.5 174.5,219.5C 164.833,219.5 155.167,219.5 145.5,219.5C 130.33,187.515 132.497,156.849 152,127.5C 162.147,116.522 173.647,107.189 186.5,99.5C 188.643,107.688 190.143,116.021 191,124.5C 192.646,131.136 195.813,136.803 200.5,141.5 Z"/></g>
<g><path style="opacity:0.997" fill="#80cf8c" d="M 32.5,128.5 C 55.0568,165.39 84.3901,195.723 120.5,219.5C 115.489,219.334 110.489,219.501 105.5,220C 121.912,271.303 132.245,323.803 136.5,377.5C 100.833,377.5 65.1667,377.5 29.5,377.5C 13.1298,346.334 3.12983,313.334 -0.5,278.5C -0.5,263.167 -0.5,247.833 -0.5,232.5C 3.24393,195.599 14.2439,160.932 32.5,128.5 Z"/></g>
<g><path style="opacity:0.997" fill="#80cf8c" d="M 478.5,128.5 C 496.756,160.932 507.756,195.599 511.5,232.5C 511.5,247.833 511.5,263.167 511.5,278.5C 507.976,313.923 497.643,347.256 480.5,378.5C 445.337,377.502 410.004,377.168 374.5,377.5C 378.804,323.978 389.138,271.645 405.5,220.5C 392.183,219.501 378.85,219.167 365.5,219.5C 365.5,218.833 365.833,218.5 366.5,218.5C 375.173,218.666 383.84,218.5 392.5,218C 427.849,194.487 456.515,164.653 478.5,128.5 Z"/></g>
<g><path style="opacity:0.999" fill="#e6f9fe" d="M 120.5,219.5 C 128.833,219.5 137.167,219.5 145.5,219.5C 155.167,219.5 164.833,219.5 174.5,219.5C 179.055,241.616 183.722,263.616 188.5,285.5C 193.425,311.793 198.092,338.126 202.5,364.5C 202.216,366.415 202.549,368.081 203.5,369.5C 205.166,394.466 205.833,419.466 205.5,444.5C 222.167,444.5 238.833,444.5 255.5,444.5C 255.5,466.833 255.5,489.167 255.5,511.5C 247.833,511.5 240.167,511.5 232.5,511.5C 199.225,507.928 167.558,498.594 137.5,483.5C 139.82,449.51 139.987,415.51 138,381.5C 137.79,379.942 137.29,378.609 136.5,377.5C 132.245,323.803 121.912,271.303 105.5,220C 110.489,219.501 115.489,219.334 120.5,219.5 Z"/></g>
<g><path style="opacity:1" fill="#e69471" d="M 174.5,219.5 C 183.167,219.5 191.833,219.5 200.5,219.5C 218.833,219.5 237.167,219.5 255.5,219.5C 255.5,241.5 255.5,263.5 255.5,285.5C 233.167,285.5 210.833,285.5 188.5,285.5C 183.722,263.616 179.055,241.616 174.5,219.5 Z"/></g>
<g><path style="opacity:1" fill="#da5f2a" d="M 255.5,219.5 C 282.5,219.5 309.5,219.5 336.5,219.5C 331.911,241.443 327.578,263.443 323.5,285.5C 300.833,285.5 278.167,285.5 255.5,285.5C 255.5,263.5 255.5,241.5 255.5,219.5 Z"/></g>
<g><path style="opacity:1" fill="#bde9fc" d="M 336.5,219.5 C 346.167,219.5 355.833,219.5 365.5,219.5C 378.85,219.167 392.183,219.501 405.5,220.5C 389.138,271.645 378.804,323.978 374.5,377.5C 373.677,380.977 373.177,384.644 373,388.5C 372.272,420.175 372.439,451.842 373.5,483.5C 343.439,498.595 311.773,507.928 278.5,511.5C 270.833,511.5 263.167,511.5 255.5,511.5C 255.5,489.167 255.5,466.833 255.5,444.5C 272.167,444.5 288.833,444.5 305.5,444.5C 305.512,418.112 306.512,391.779 308.5,365.5C 308.5,365.167 308.5,364.833 308.5,364.5C 313.173,338.133 318.173,311.8 323.5,285.5C 327.578,263.443 331.911,241.443 336.5,219.5 Z"/></g>
<g><path style="opacity:1" fill="#f5dfb9" d="M 188.5,285.5 C 210.833,285.5 233.167,285.5 255.5,285.5C 255.5,311.833 255.5,338.167 255.5,364.5C 237.833,364.5 220.167,364.5 202.5,364.5C 198.092,338.126 193.425,311.793 188.5,285.5 Z"/></g>
<g><path style="opacity:1" fill="#edbda9" d="M 255.5,285.5 C 278.167,285.5 300.833,285.5 323.5,285.5C 318.173,311.8 313.173,338.133 308.5,364.5C 290.833,364.5 273.167,364.5 255.5,364.5C 255.5,338.167 255.5,311.833 255.5,285.5 Z"/></g>
<g><path style="opacity:1" fill="#bc9e8f" d="M 202.5,364.5 C 220.167,364.5 237.833,364.5 255.5,364.5C 273.167,364.5 290.833,364.5 308.5,364.5C 308.5,364.833 308.5,365.167 308.5,365.5C 290.833,365.5 273.167,365.5 255.5,365.5C 238.167,365.5 220.833,365.5 203.5,365.5C 203.5,366.833 203.5,368.167 203.5,369.5C 202.549,368.081 202.216,366.415 202.5,364.5 Z"/></g>
<g><path style="opacity:1" fill="#6e5961" d="M 255.5,365.5 C 255.5,391.833 255.5,418.167 255.5,444.5C 238.833,444.5 222.167,444.5 205.5,444.5C 205.833,419.466 205.166,394.466 203.5,369.5C 203.5,368.167 203.5,366.833 203.5,365.5C 220.833,365.5 238.167,365.5 255.5,365.5 Z"/></g>
<g><path style="opacity:1" fill="#533e45" d="M 255.5,365.5 C 273.167,365.5 290.833,365.5 308.5,365.5C 306.512,391.779 305.512,418.112 305.5,444.5C 288.833,444.5 272.167,444.5 255.5,444.5C 255.5,418.167 255.5,391.833 255.5,365.5 Z"/></g>
<g><path style="opacity:0.992" fill="#2a9f8c" d="M 29.5,377.5 C 65.1667,377.5 100.833,377.5 136.5,377.5C 137.29,378.609 137.79,379.942 138,381.5C 139.987,415.51 139.82,449.51 137.5,483.5C 91.2691,458.603 55.2691,423.269 29.5,377.5 Z"/></g>
<g><path style="opacity:0.992" fill="#299f8c" d="M 374.5,377.5 C 410.004,377.168 445.337,377.502 480.5,378.5C 455.064,423.936 419.397,458.936 373.5,483.5C 372.439,451.842 372.272,420.175 373,388.5C 373.177,384.644 373.677,380.977 374.5,377.5 Z"/></g>
</svg>
