<?xml version="1.0" encoding="UTF-8"?>
<!DOCTYPE svg PUBLIC "-//W3C//DTD SVG 1.1//EN" "http://www.w3.org/Graphics/SVG/1.1/DTD/svg11.dtd">
<svg xmlns="http://www.w3.org/2000/svg" version="1.1" width="512px" height="512px" style="shape-rendering:geometricPrecision; text-rendering:geometricPrecision; image-rendering:optimizeQuality; fill-rule:evenodd; clip-rule:evenodd" xmlns:xlink="http://www.w3.org/1999/xlink">
<g><path style="opacity:0.995" fill="#fee16f" d="M 232.5,-0.5 C 247.833,-0.5 263.167,-0.5 278.5,-0.5C 368.144,10.3879 435.644,54.7213 481,132.5C 497.695,163.971 507.861,197.304 511.5,232.5C 511.5,239.167 511.5,245.833 511.5,252.5C 466.201,207.701 421.035,162.701 376,117.5C 375.825,122.019 375.325,126.353 374.5,130.5C 374.5,130.167 374.5,129.833 374.5,129.5C 374.5,125.5 374.5,121.5 374.5,117.5C 356.007,116.503 337.341,116.17 318.5,116.5C 318.5,121.167 318.5,125.833 318.5,130.5C 321.167,130.5 323.833,130.5 326.5,130.5C 326.5,143.167 326.5,155.833 326.5,168.5C 322.298,168.183 318.298,168.517 314.5,169.5C 306.5,169.5 298.5,169.5 290.5,169.5C 297.989,168.671 305.656,168.171 313.5,168C 302.632,156.965 291.632,146.131 280.5,135.5C 272.35,134.507 264.017,134.174 255.5,134.5C 247.5,134.5 239.5,134.5 231.5,134.5C 231.5,142.833 231.5,151.167 231.5,159.5C 215.833,144.167 200.167,128.833 184.5,113.5C 184.5,112.833 184.167,112.5 183.5,112.5C 170.677,111.505 157.677,111.171 144.5,111.5C 144.5,117.833 144.5,124.167 144.5,130.5C 144.667,154.836 144.5,179.169 144,203.5C 132.71,217.792 121.043,231.792 109,245.5C 108.5,293.499 108.333,341.499 108.5,389.5C 148.5,429.833 188.5,470.167 228.5,510.5C 145.91,499.979 82.0768,459.979 37,390.5C 16.1784,355.868 3.67839,318.535 -0.5,278.5C -0.5,263.167 -0.5,247.833 -0.5,232.5C 10.3875,142.857 54.7208,75.3573 132.5,30C 163.971,13.3053 197.304,3.1386 232.5,-0.5 Z"/></g>
<g><path style="opacity:1" fill="#6dc377" d="M 183.5,112.5 C 184.167,112.5 184.5,112.833 184.5,113.5C 184.5,143.5 184.5,173.5 184.5,203.5C 183.502,179.339 183.169,155.006 183.5,130.5C 177.167,130.5 170.833,130.5 164.5,130.5C 157.833,130.5 151.167,130.5 144.5,130.5C 144.5,124.167 144.5,117.833 144.5,111.5C 157.677,111.171 170.677,111.505 183.5,112.5 Z"/></g>
<g><path style="opacity:1" fill="#00aa5d" d="M 183.5,112.5 C 183.5,118.167 183.5,123.833 183.5,129.5C 177.167,129.5 170.833,129.5 164.5,129.5C 164.5,123.833 164.5,118.167 164.5,112.5C 170.833,112.5 177.167,112.5 183.5,112.5 Z"/></g>
<g><path style="opacity:1" fill="#fed328" d="M 184.5,113.5 C 200.167,128.833 215.833,144.167 231.5,159.5C 233.5,159.5 235.5,159.5 237.5,159.5C 237.5,179.167 237.5,198.833 237.5,218.5C 227.088,221.875 218.088,227.542 210.5,235.5C 201.455,225.123 192.788,214.457 184.5,203.5C 184.5,173.5 184.5,143.5 184.5,113.5 Z"/></g>
<g><path style="opacity:1" fill="#876b7b" d="M 374.5,117.5 C 365.167,117.5 355.833,117.5 346.5,117.5C 337.5,117.5 328.5,117.5 319.5,117.5C 319.5,121.5 319.5,125.5 319.5,129.5C 328.5,129.5 337.5,129.5 346.5,129.5C 355.833,129.5 365.167,129.5 374.5,129.5C 374.5,129.833 374.5,130.167 374.5,130.5C 372.167,130.5 369.833,130.5 367.5,130.5C 367.167,130.5 366.833,130.5 366.5,130.5C 359.833,130.5 353.167,130.5 346.5,130.5C 340.167,130.5 333.833,130.5 327.5,130.5C 327.167,130.5 326.833,130.5 326.5,130.5C 323.833,130.5 321.167,130.5 318.5,130.5C 318.5,125.833 318.5,121.167 318.5,116.5C 337.341,116.17 356.007,116.503 374.5,117.5 Z"/></g>
<g><path style="opacity:1" fill="#603393" d="M 346.5,117.5 C 346.5,121.5 346.5,125.5 346.5,129.5C 337.5,129.5 328.5,129.5 319.5,129.5C 319.5,125.5 319.5,121.5 319.5,117.5C 328.5,117.5 337.5,117.5 346.5,117.5 Z"/></g>
<g><path style="opacity:1" fill="#4b1b7a" d="M 346.5,117.5 C 355.833,117.5 365.167,117.5 374.5,117.5C 374.5,121.5 374.5,125.5 374.5,129.5C 365.167,129.5 355.833,129.5 346.5,129.5C 346.5,125.5 346.5,121.5 346.5,117.5 Z"/></g>
<g><path style="opacity:1" fill="#ffd428" d="M 511.5,252.5 C 511.5,261.167 511.5,269.833 511.5,278.5C 500.612,368.144 456.279,435.644 378.5,481C 347.029,497.695 313.696,507.861 278.5,511.5C 263.167,511.5 247.833,511.5 232.5,511.5C 231.432,510.566 230.099,510.232 228.5,510.5C 188.5,470.167 148.5,429.833 108.5,389.5C 137.833,389.5 167.167,389.5 196.5,389.5C 227.833,389.5 259.167,389.5 290.5,389.5C 309.5,389.5 328.5,389.5 347.5,389.5C 366.167,389.5 384.833,389.5 403.5,389.5C 403.833,315.998 403.499,242.665 402.5,169.5C 391.012,168.505 379.345,168.172 367.5,168.5C 367.5,155.833 367.5,143.167 367.5,130.5C 369.833,130.5 372.167,130.5 374.5,130.5C 375.325,126.353 375.825,122.019 376,117.5C 421.035,162.701 466.201,207.701 511.5,252.5 Z"/></g>
<g><path style="opacity:1" fill="#d5e8f7" d="M 144.5,130.5 C 151.167,130.5 157.833,130.5 164.5,130.5C 164.5,174.5 164.5,218.5 164.5,262.5C 150.833,262.5 137.167,262.5 123.5,262.5C 123.5,287.167 123.5,311.833 123.5,336.5C 137.167,336.5 150.833,336.5 164.5,336.5C 164.666,342.176 164.499,347.843 164,353.5C 146.422,365.374 128.588,376.874 110.5,388C 139.165,388.5 167.831,388.667 196.5,388.5C 196.5,388.833 196.5,389.167 196.5,389.5C 167.167,389.5 137.833,389.5 108.5,389.5C 108.333,341.499 108.5,293.499 109,245.5C 121.043,231.792 132.71,217.792 144,203.5C 144.5,179.169 144.667,154.836 144.5,130.5 Z"/></g>
<g><path style="opacity:1" fill="#b2d6f2" d="M 164.5,130.5 C 170.833,130.5 177.167,130.5 183.5,130.5C 183.169,155.006 183.502,179.339 184.5,203.5C 192.788,214.457 201.455,225.123 210.5,235.5C 204.26,243.644 199.927,252.644 197.5,262.5C 186.5,262.5 175.5,262.5 164.5,262.5C 164.5,218.5 164.5,174.5 164.5,130.5 Z"/></g>
<g><path style="opacity:1" fill="#50be73" d="M 327.5,130.5 C 333.833,130.5 340.167,130.5 346.5,130.5C 346.5,157.833 346.5,185.167 346.5,212.5C 335.167,212.5 323.833,212.5 312.5,212.5C 312.5,244.167 312.5,275.833 312.5,307.5C 323.833,307.5 335.167,307.5 346.5,307.5C 346.176,334.907 346.509,362.241 347.5,389.5C 328.5,389.5 309.5,389.5 290.5,389.5C 290.5,389.167 290.5,388.833 290.5,388.5C 290.5,369.833 290.5,351.167 290.5,332.5C 290.5,312.833 290.5,293.167 290.5,273.5C 290.5,257.833 290.5,242.167 290.5,226.5C 290.5,207.5 290.5,188.5 290.5,169.5C 298.5,169.5 306.5,169.5 314.5,169.5C 318.833,169.5 323.167,169.5 327.5,169.5C 327.5,156.5 327.5,143.5 327.5,130.5 Z"/></g>
<g><path style="opacity:1" fill="#11aa5d" d="M 346.5,130.5 C 353.167,130.5 359.833,130.5 366.5,130.5C 366.5,143.5 366.5,156.5 366.5,169.5C 378.5,169.5 390.5,169.5 402.5,169.5C 403.499,242.665 403.833,315.998 403.5,389.5C 384.833,389.5 366.167,389.5 347.5,389.5C 346.509,362.241 346.176,334.907 346.5,307.5C 358.012,307.828 369.346,307.495 380.5,306.5C 380.5,275.167 380.5,243.833 380.5,212.5C 369.5,212.5 358.5,212.5 347.5,212.5C 347.167,212.5 346.833,212.5 346.5,212.5C 346.5,185.167 346.5,157.833 346.5,130.5 Z"/></g>
<g><path style="opacity:1" fill="#e91d81" d="M 255.5,134.5 C 255.5,142.833 255.5,151.167 255.5,159.5C 249.5,159.5 243.5,159.5 237.5,159.5C 235.5,159.5 233.5,159.5 231.5,159.5C 231.5,151.167 231.5,142.833 231.5,134.5C 239.5,134.5 247.5,134.5 255.5,134.5 Z"/></g>
<g><path style="opacity:1" fill="#c31869" d="M 255.5,134.5 C 264.017,134.174 272.35,134.507 280.5,135.5C 280.5,143.5 280.5,151.5 280.5,159.5C 278.167,159.5 275.833,159.5 273.5,159.5C 267.5,159.5 261.5,159.5 255.5,159.5C 255.5,151.167 255.5,142.833 255.5,134.5 Z"/></g>
<g><path style="opacity:1" fill="#fed328" d="M 280.5,135.5 C 291.632,146.131 302.632,156.965 313.5,168C 305.656,168.171 297.989,168.671 290.5,169.5C 290.5,188.5 290.5,207.5 290.5,226.5C 285.493,222.497 279.826,219.83 273.5,218.5C 273.5,198.833 273.5,179.167 273.5,159.5C 275.833,159.5 278.167,159.5 280.5,159.5C 280.5,151.5 280.5,143.5 280.5,135.5 Z"/></g>
<g><path style="opacity:1" fill="#aad06c" d="M 326.5,130.5 C 326.833,130.5 327.167,130.5 327.5,130.5C 327.5,143.5 327.5,156.5 327.5,169.5C 323.167,169.5 318.833,169.5 314.5,169.5C 318.298,168.517 322.298,168.183 326.5,168.5C 326.5,155.833 326.5,143.167 326.5,130.5 Z"/></g>
<g><path style="opacity:1" fill="#95623b" d="M 237.5,159.5 C 243.5,159.5 249.5,159.5 255.5,159.5C 255.5,197.5 255.5,235.5 255.5,273.5C 241.5,273.5 227.5,273.5 213.5,273.5C 213.5,293.167 213.5,312.833 213.5,332.5C 227.323,333.496 241.323,333.829 255.5,333.5C 255.5,351.833 255.5,370.167 255.5,388.5C 267.167,388.5 278.833,388.5 290.5,388.5C 290.5,388.833 290.5,389.167 290.5,389.5C 259.167,389.5 227.833,389.5 196.5,389.5C 196.5,389.167 196.5,388.833 196.5,388.5C 196.5,371.167 196.5,353.833 196.5,336.5C 196.215,311.812 196.549,287.145 197.5,262.5C 199.927,252.644 204.26,243.644 210.5,235.5C 218.088,227.542 227.088,221.875 237.5,218.5C 237.5,198.833 237.5,179.167 237.5,159.5 Z"/></g>
<g><path style="opacity:1" fill="#71482a" d="M 255.5,159.5 C 261.5,159.5 267.5,159.5 273.5,159.5C 273.5,179.167 273.5,198.833 273.5,218.5C 279.826,219.83 285.493,222.497 290.5,226.5C 290.5,242.167 290.5,257.833 290.5,273.5C 278.833,273.5 267.167,273.5 255.5,273.5C 255.5,235.5 255.5,197.5 255.5,159.5 Z"/></g>
<g><path style="opacity:1" fill="#acc539" d="M 366.5,130.5 C 366.833,130.5 367.167,130.5 367.5,130.5C 367.5,143.167 367.5,155.833 367.5,168.5C 379.345,168.172 391.012,168.505 402.5,169.5C 390.5,169.5 378.5,169.5 366.5,169.5C 366.5,156.5 366.5,143.5 366.5,130.5 Z"/></g>
<g><path style="opacity:1" fill="#fcd329" d="M 346.5,212.5 C 346.5,244.167 346.5,275.833 346.5,307.5C 335.167,307.5 323.833,307.5 312.5,307.5C 312.5,275.833 312.5,244.167 312.5,212.5C 323.833,212.5 335.167,212.5 346.5,212.5 Z"/></g>
<g><path style="opacity:1" fill="#feae38" d="M 347.5,212.5 C 358.5,212.5 369.5,212.5 380.5,212.5C 380.5,243.833 380.5,275.167 380.5,306.5C 369.5,306.5 358.5,306.5 347.5,306.5C 347.5,275.167 347.5,243.833 347.5,212.5 Z"/></g>
<g><path style="opacity:1" fill="#f5b835" d="M 346.5,212.5 C 346.833,212.5 347.167,212.5 347.5,212.5C 347.5,243.833 347.5,275.167 347.5,306.5C 358.5,306.5 369.5,306.5 380.5,306.5C 369.346,307.495 358.012,307.828 346.5,307.5C 346.5,275.833 346.5,244.167 346.5,212.5 Z"/></g>
<g><path style="opacity:1" fill="#4fbf74" d="M 164.5,262.5 C 163.167,287.167 163.167,311.833 164.5,336.5C 150.833,336.5 137.167,336.5 123.5,336.5C 123.5,311.833 123.5,287.167 123.5,262.5C 137.167,262.5 150.833,262.5 164.5,262.5 Z"/></g>
<g><path style="opacity:1" fill="#02aa5e" d="M 164.5,262.5 C 175.5,262.5 186.5,262.5 197.5,262.5C 196.549,287.145 196.215,311.812 196.5,336.5C 185.833,336.5 175.167,336.5 164.5,336.5C 163.167,311.833 163.167,287.167 164.5,262.5 Z"/></g>
<g><path style="opacity:1" fill="#e91d81" d="M 255.5,273.5 C 255.5,293.167 255.5,312.833 255.5,332.5C 241.5,332.5 227.5,332.5 213.5,332.5C 213.5,312.833 213.5,293.167 213.5,273.5C 227.5,273.5 241.5,273.5 255.5,273.5 Z"/></g>
<g><path style="opacity:1" fill="#c11269" d="M 255.5,273.5 C 267.167,273.5 278.833,273.5 290.5,273.5C 290.5,293.167 290.5,312.833 290.5,332.5C 278.833,332.5 267.167,332.5 255.5,332.5C 255.5,312.833 255.5,293.167 255.5,273.5 Z"/></g>
<g><path style="opacity:1" fill="#72482a" d="M 213.5,332.5 C 227.5,332.5 241.5,332.5 255.5,332.5C 267.167,332.5 278.833,332.5 290.5,332.5C 290.5,351.167 290.5,369.833 290.5,388.5C 278.833,388.5 267.167,388.5 255.5,388.5C 255.5,370.167 255.5,351.833 255.5,333.5C 241.323,333.829 227.323,333.496 213.5,332.5 Z"/></g>
<g><path style="opacity:1" fill="#aed5f2" d="M 164.5,336.5 C 175.167,336.5 185.833,336.5 196.5,336.5C 196.5,353.833 196.5,371.167 196.5,388.5C 167.831,388.667 139.165,388.5 110.5,388C 128.588,376.874 146.422,365.374 164,353.5C 164.499,347.843 164.666,342.176 164.5,336.5 Z"/></g>
</svg>
