<?xml version="1.0" encoding="UTF-8"?>
<!DOCTYPE svg PUBLIC "-//W3C//DTD SVG 1.1//EN" "http://www.w3.org/Graphics/SVG/1.1/DTD/svg11.dtd">
<svg xmlns="http://www.w3.org/2000/svg" version="1.1" width="512px" height="512px" style="shape-rendering:geometricPrecision; text-rendering:geometricPrecision; image-rendering:optimizeQuality; fill-rule:evenodd; clip-rule:evenodd" xmlns:xlink="http://www.w3.org/1999/xlink">
<g><path style="opacity:0.997" fill="#fe6b51" d="M 232.5,-0.5 C 247.833,-0.5 263.167,-0.5 278.5,-0.5C 368.144,10.3879 435.644,54.7213 481,132.5C 497.695,163.971 507.861,197.304 511.5,232.5C 511.5,243.167 511.5,253.833 511.5,264.5C 448.785,202.118 386.119,139.785 323.5,77.5C 301.006,76.5025 278.339,76.1692 255.5,76.5C 232.833,76.5 210.167,76.5 187.5,76.5C 183.651,107.297 178.984,137.964 173.5,168.5C 163.809,215.894 173.309,258.894 202,297.5C 211.964,310.965 223.464,322.965 236.5,333.5C 236.5,361.833 236.5,390.167 236.5,418.5C 222.167,418.5 207.833,418.5 193.5,418.5C 193.172,429.679 193.505,440.679 194.5,451.5C 214.167,471.5 233.833,491.5 253.5,511.5C 246.5,511.5 239.5,511.5 232.5,511.5C 142.856,500.612 75.3562,456.279 30,378.5C 13.3053,347.029 3.1386,313.696 -0.5,278.5C -0.5,263.167 -0.5,247.833 -0.5,232.5C 10.3875,142.857 54.7208,75.3573 132.5,30C 163.971,13.3053 197.304,3.1386 232.5,-0.5 Z"/></g>
<g><path style="opacity:1" fill="#fffefe" d="M 255.5,76.5 C 255.5,107.167 255.5,137.833 255.5,168.5C 228.167,168.5 200.833,168.5 173.5,168.5C 178.984,137.964 183.651,107.297 187.5,76.5C 210.167,76.5 232.833,76.5 255.5,76.5 Z"/></g>
<g><path style="opacity:1" fill="#e9ecf4" d="M 255.5,76.5 C 278.339,76.1692 301.006,76.5025 323.5,77.5C 327.793,107.882 332.459,138.215 337.5,168.5C 310.167,168.5 282.833,168.5 255.5,168.5C 255.5,137.833 255.5,107.167 255.5,76.5 Z"/></g>
<g><path style="opacity:1" fill="#f92814" d="M 323.5,77.5 C 386.119,139.785 448.785,202.118 511.5,264.5C 511.5,269.167 511.5,273.833 511.5,278.5C 500.612,368.144 456.279,435.644 378.5,481C 347.029,497.695 313.696,507.861 278.5,511.5C 270.167,511.5 261.833,511.5 253.5,511.5C 233.833,491.5 214.167,471.5 194.5,451.5C 214.833,451.5 235.167,451.5 255.5,451.5C 276.167,451.5 296.833,451.5 317.5,451.5C 317.5,440.5 317.5,429.5 317.5,418.5C 303.167,418.5 288.833,418.5 274.5,418.5C 274.5,390.5 274.5,362.5 274.5,334.5C 299.929,313.563 319.096,287.896 332,257.5C 339.835,235.817 342.502,213.484 340,190.5C 339.493,183.116 338.66,175.782 337.5,168.5C 332.459,138.215 327.793,107.882 323.5,77.5 Z"/></g>
<g><path style="opacity:1" fill="#ffdd55" d="M 173.5,168.5 C 200.833,168.5 228.167,168.5 255.5,168.5C 255.5,225.5 255.5,282.5 255.5,339.5C 248.374,339.902 242.041,337.902 236.5,333.5C 223.464,322.965 211.964,310.965 202,297.5C 173.309,258.894 163.809,215.894 173.5,168.5 Z"/></g>
<g><path style="opacity:1" fill="#fecd01" d="M 255.5,168.5 C 282.833,168.5 310.167,168.5 337.5,168.5C 338.66,175.782 339.493,183.116 340,190.5C 342.502,213.484 339.835,235.817 332,257.5C 319.096,287.896 299.929,313.563 274.5,334.5C 268.694,338.102 262.36,340.102 255.5,340.5C 255.5,340.167 255.5,339.833 255.5,339.5C 255.5,282.5 255.5,225.5 255.5,168.5 Z"/></g>
<g><path style="opacity:1" fill="#fffefe" d="M 236.5,333.5 C 242.041,337.902 248.374,339.902 255.5,339.5C 255.5,339.833 255.5,340.167 255.5,340.5C 255.5,377.5 255.5,414.5 255.5,451.5C 235.167,451.5 214.833,451.5 194.5,451.5C 193.505,440.679 193.172,429.679 193.5,418.5C 207.833,418.5 222.167,418.5 236.5,418.5C 236.5,390.167 236.5,361.833 236.5,333.5 Z"/></g>
<g><path style="opacity:1" fill="#e9edf4" d="M 274.5,334.5 C 274.5,362.5 274.5,390.5 274.5,418.5C 288.833,418.5 303.167,418.5 317.5,418.5C 317.5,429.5 317.5,440.5 317.5,451.5C 296.833,451.5 276.167,451.5 255.5,451.5C 255.5,414.5 255.5,377.5 255.5,340.5C 262.36,340.102 268.694,338.102 274.5,334.5 Z"/></g>
</svg>
