<?xml version="1.0" encoding="UTF-8"?>
<!DOCTYPE svg PUBLIC "-//W3C//DTD SVG 1.1//EN" "http://www.w3.org/Graphics/SVG/1.1/DTD/svg11.dtd">
<svg xmlns="http://www.w3.org/2000/svg" version="1.1" width="512px" height="512px" style="shape-rendering:geometricPrecision; text-rendering:geometricPrecision; image-rendering:optimizeQuality; fill-rule:evenodd; clip-rule:evenodd" xmlns:xlink="http://www.w3.org/1999/xlink">
<g><path style="opacity:0.997" fill="#fece01" d="M 232.5,-0.5 C 247.833,-0.5 263.167,-0.5 278.5,-0.5C 368.144,10.3879 435.644,54.7213 481,132.5C 494.123,156.702 502.956,182.369 507.5,209.5C 465.833,168.167 424.167,126.833 382.5,85.5C 375.512,79.351 368.346,73.351 361,67.5C 339.953,91.043 319.119,114.71 298.5,138.5C 284.167,138.5 269.833,138.5 255.5,138.5C 204.499,138.333 153.499,138.5 102.5,139C 117.368,154.035 132.368,168.869 147.5,183.5C 177.833,214.5 208.5,245.167 239.5,275.5C 239.5,275.833 239.5,276.167 239.5,276.5C 239.5,321.167 239.5,365.833 239.5,410.5C 225.5,410.5 211.5,410.5 197.5,410.5C 197.5,420.167 197.5,429.833 197.5,439.5C 220.465,462.965 243.632,486.299 267,509.5C 267.464,510.094 267.631,510.761 267.5,511.5C 255.833,511.5 244.167,511.5 232.5,511.5C 142.856,500.612 75.3562,456.279 30,378.5C 13.3053,347.029 3.1386,313.696 -0.5,278.5C -0.5,263.167 -0.5,247.833 -0.5,232.5C 10.3875,142.857 54.7208,75.3573 132.5,30C 163.971,13.3053 197.304,3.1386 232.5,-0.5 Z"/></g>
<g><path style="opacity:1" fill="#414952" d="M 382.5,85.5 C 382.649,86.552 382.483,87.552 382,88.5C 367.291,105.038 352.791,121.705 338.5,138.5C 325.833,153.167 313.167,167.833 300.5,182.5C 299.662,182.842 299.328,183.508 299.5,184.5C 284.823,200.512 270.49,216.845 256.5,233.5C 255.504,219.01 255.171,204.343 255.5,189.5C 256.415,187.246 257.748,185.246 259.5,183.5C 272.844,168.821 285.844,153.821 298.5,138.5C 319.119,114.71 339.953,91.043 361,67.5C 368.346,73.351 375.512,79.351 382.5,85.5 Z"/></g>
<g><path style="opacity:1" fill="#fea301" d="M 382.5,85.5 C 424.167,126.833 465.833,168.167 507.5,209.5C 509.078,217.129 510.412,224.795 511.5,232.5C 511.5,247.833 511.5,263.167 511.5,278.5C 500.612,368.144 456.279,435.644 378.5,481C 347.029,497.695 313.696,507.861 278.5,511.5C 274.833,511.5 271.167,511.5 267.5,511.5C 267.631,510.761 267.464,510.094 267,509.5C 243.632,486.299 220.465,462.965 197.5,439.5C 216.833,439.5 236.167,439.5 255.5,439.5C 274.833,439.5 294.167,439.5 313.5,439.5C 313.5,429.833 313.5,420.167 313.5,410.5C 299.5,410.5 285.5,410.5 271.5,410.5C 271.5,365.5 271.5,320.5 271.5,275.5C 302.167,245.5 332.5,215.167 362.5,184.5C 363.167,184.5 363.5,184.167 363.5,183.5C 378.632,168.869 393.632,154.035 408.5,139C 385.169,138.5 361.836,138.333 338.5,138.5C 352.791,121.705 367.291,105.038 382,88.5C 382.483,87.552 382.649,86.552 382.5,85.5 Z"/></g>
<g><path style="opacity:1" fill="#fefefe" d="M 255.5,138.5 C 255.5,153.5 255.5,168.5 255.5,183.5C 219.5,183.5 183.5,183.5 147.5,183.5C 132.368,168.869 117.368,154.035 102.5,139C 153.499,138.5 204.499,138.333 255.5,138.5 Z"/></g>
<g><path style="opacity:1" fill="#e7ebf3" d="M 255.5,138.5 C 269.833,138.5 284.167,138.5 298.5,138.5C 285.844,153.821 272.844,168.821 259.5,183.5C 258.167,183.5 256.833,183.5 255.5,183.5C 255.5,168.5 255.5,153.5 255.5,138.5 Z"/></g>
<g><path style="opacity:1" fill="#e8ecf4" d="M 338.5,138.5 C 361.836,138.333 385.169,138.5 408.5,139C 393.632,154.035 378.632,168.869 363.5,183.5C 342.327,183.831 321.327,183.497 300.5,182.5C 313.167,167.833 325.833,153.167 338.5,138.5 Z"/></g>
<g><path style="opacity:1" fill="#91bb9c" d="M 300.5,182.5 C 321.327,183.497 342.327,183.831 363.5,183.5C 363.5,184.167 363.167,184.5 362.5,184.5C 341.5,184.5 320.5,184.5 299.5,184.5C 299.328,183.508 299.662,182.842 300.5,182.5 Z"/></g>
<g><path style="opacity:1" fill="#13c7c6" d="M 147.5,183.5 C 183.5,183.5 219.5,183.5 255.5,183.5C 256.833,183.5 258.167,183.5 259.5,183.5C 257.748,185.246 256.415,187.246 255.5,189.5C 245.312,200.19 235.645,211.357 226.5,223C 232.985,229.982 239.985,236.482 247.5,242.5C 250.188,240.479 252.521,238.146 254.5,235.5C 255.496,248.656 255.829,261.99 255.5,275.5C 250.167,275.5 244.833,275.5 239.5,275.5C 208.5,245.167 177.833,214.5 147.5,183.5 Z"/></g>
<g><path style="opacity:1" fill="#009fa9" d="M 299.5,184.5 C 320.5,184.5 341.5,184.5 362.5,184.5C 332.5,215.167 302.167,245.5 271.5,275.5C 266.167,275.5 260.833,275.5 255.5,275.5C 255.829,261.99 255.496,248.656 254.5,235.5C 255.167,234.833 255.833,234.167 256.5,233.5C 270.49,216.845 284.823,200.512 299.5,184.5 Z"/></g>
<g><path style="opacity:1" fill="#616977" d="M 255.5,189.5 C 255.171,204.343 255.504,219.01 256.5,233.5C 255.833,234.167 255.167,234.833 254.5,235.5C 252.521,238.146 250.188,240.479 247.5,242.5C 239.985,236.482 232.985,229.982 226.5,223C 235.645,211.357 245.312,200.19 255.5,189.5 Z"/></g>
<g><path style="opacity:1" fill="#fefefe" d="M 239.5,276.5 C 244.833,276.5 250.167,276.5 255.5,276.5C 255.5,330.833 255.5,385.167 255.5,439.5C 236.167,439.5 216.833,439.5 197.5,439.5C 197.5,429.833 197.5,420.167 197.5,410.5C 211.5,410.5 225.5,410.5 239.5,410.5C 239.5,365.833 239.5,321.167 239.5,276.5 Z"/></g>
<g><path style="opacity:1" fill="#e8ecf4" d="M 239.5,276.5 C 239.5,276.167 239.5,275.833 239.5,275.5C 244.833,275.5 250.167,275.5 255.5,275.5C 260.833,275.5 266.167,275.5 271.5,275.5C 271.5,320.5 271.5,365.5 271.5,410.5C 285.5,410.5 299.5,410.5 313.5,410.5C 313.5,420.167 313.5,429.833 313.5,439.5C 294.167,439.5 274.833,439.5 255.5,439.5C 255.5,385.167 255.5,330.833 255.5,276.5C 250.167,276.5 244.833,276.5 239.5,276.5 Z"/></g>
</svg>
