<?xml version="1.0" encoding="UTF-8"?>
<!DOCTYPE svg PUBLIC "-//W3C//DTD SVG 1.1//EN" "http://www.w3.org/Graphics/SVG/1.1/DTD/svg11.dtd">
<svg xmlns="http://www.w3.org/2000/svg" version="1.1" width="512px" height="512px" style="shape-rendering:geometricPrecision; text-rendering:geometricPrecision; image-rendering:optimizeQuality; fill-rule:evenodd; clip-rule:evenodd" xmlns:xlink="http://www.w3.org/1999/xlink">
<g><path style="opacity:0.996" fill="#fee16e" d="M 233.5,-0.5 C 248.167,-0.5 262.833,-0.5 277.5,-0.5C 367.069,9.6733 435.236,53.0066 482,129.5C 498.004,158.673 507.837,189.673 511.5,222.5C 511.5,237.167 511.5,251.833 511.5,266.5C 510.662,266.842 510.328,267.508 510.5,268.5C 468.201,226.701 426.035,184.701 384,142.5C 383.833,223.334 383.333,304.001 382.5,384.5C 298.334,385.333 214.001,385.833 129.5,386C 171.368,427.701 213.035,469.535 254.5,511.5C 245.833,511.5 237.167,511.5 228.5,511.5C 131.789,498.905 62.6225,448.572 21,360.5C 9.73692,334.108 2.57026,306.775 -0.5,278.5C -0.5,263.167 -0.5,247.833 -0.5,232.5C 9.30366,148.244 49.637,83.0776 120.5,37C 155.422,15.9704 193.088,3.4704 233.5,-0.5 Z"/></g>
<g><path style="opacity:1" fill="#dcd8d8" d="M 198.5,141.5 C 196.5,141.5 194.5,141.5 192.5,141.5C 181.986,141.172 171.653,141.506 161.5,142.5C 150.5,142.5 139.5,142.5 128.5,142.5C 128.5,185.167 128.5,227.833 128.5,270.5C 128.5,308.5 128.5,346.5 128.5,384.5C 127.501,303.668 127.167,222.668 127.5,141.5C 136.833,141.5 146.167,141.5 155.5,141.5C 155.5,136.5 155.5,131.5 155.5,126.5C 169.833,126.5 184.167,126.5 198.5,126.5C 198.5,131.5 198.5,136.5 198.5,141.5 Z"/></g>
<g><path style="opacity:1" fill="#eeeef3" d="M 276.5,141.5 C 274.833,141.5 273.167,141.5 271.5,141.5C 260.752,141.191 250.085,141.524 239.5,142.5C 238.081,141.549 236.415,141.216 234.5,141.5C 234.5,136.5 234.5,131.5 234.5,126.5C 248.5,126.5 262.5,126.5 276.5,126.5C 276.5,131.5 276.5,136.5 276.5,141.5 Z"/></g>
<g><path style="opacity:1" fill="#d3d2dc" d="M 355.5,126.5 C 355.5,131.5 355.5,136.5 355.5,141.5C 360.5,141.5 365.5,141.5 370.5,141.5C 374.702,141.183 378.702,141.517 382.5,142.5C 371.5,142.5 360.5,142.5 349.5,142.5C 339.347,141.506 329.014,141.172 318.5,141.5C 316.5,141.5 314.5,141.5 312.5,141.5C 312.5,136.5 312.5,131.5 312.5,126.5C 326.833,126.5 341.167,126.5 355.5,126.5 Z"/></g>
<g><path style="opacity:1" fill="#ffd428" d="M 291.5,141.5 C 286.833,141.5 282.167,141.5 277.5,141.5C 277.334,136.821 277.501,132.155 278,127.5C 282.703,132.035 287.203,136.702 291.5,141.5 Z"/></g>
<g><path style="opacity:1" fill="#ffd42c" d="M 355.5,126.5 C 360.833,131.167 365.833,136.167 370.5,141.5C 365.5,141.5 360.5,141.5 355.5,141.5C 355.5,136.5 355.5,131.5 355.5,126.5 Z"/></g>
<g><path style="opacity:1" fill="#ffd428" d="M 213.5,141.5 C 208.833,141.5 204.167,141.5 199.5,141.5C 199.334,136.821 199.501,132.155 200,127.5C 204.703,132.035 209.203,136.702 213.5,141.5 Z"/></g>
<g><path style="opacity:1" fill="#8d8cac" d="M 192.5,141.5 C 194.5,141.5 196.5,141.5 198.5,141.5C 198.833,141.5 199.167,141.5 199.5,141.5C 204.167,141.5 208.833,141.5 213.5,141.5C 220.5,141.5 227.5,141.5 234.5,141.5C 236.415,141.216 238.081,141.549 239.5,142.5C 224.167,142.5 208.833,142.5 193.5,142.5C 193.5,143.833 193.5,145.167 193.5,146.5C 192.549,145.081 192.216,143.415 192.5,141.5 Z"/></g>
<g><path style="opacity:1" fill="#807d8e" d="M 271.5,142.5 C 271.5,142.167 271.5,141.833 271.5,141.5C 273.167,141.5 274.833,141.5 276.5,141.5C 276.833,141.5 277.167,141.5 277.5,141.5C 282.167,141.5 286.833,141.5 291.5,141.5C 298.5,141.5 305.5,141.5 312.5,141.5C 314.5,141.5 316.5,141.5 318.5,141.5C 318.784,143.415 318.451,145.081 317.5,146.5C 317.5,145.167 317.5,143.833 317.5,142.5C 302.167,142.5 286.833,142.5 271.5,142.5 Z"/></g>
<g><path style="opacity:1" fill="#3748da" d="M 161.5,142.5 C 160.515,165.506 159.348,188.506 158,211.5C 146.662,222.843 140.162,236.51 138.5,252.5C 137.51,258.31 137.177,264.31 137.5,270.5C 134.5,270.5 131.5,270.5 128.5,270.5C 128.5,227.833 128.5,185.167 128.5,142.5C 139.5,142.5 150.5,142.5 161.5,142.5 Z"/></g>
<g><path style="opacity:1" fill="#77da5b" d="M 192.5,141.5 C 192.216,143.415 192.549,145.081 193.5,146.5C 194.167,167.837 195,189.17 196,210.5C 204.649,220.127 210.982,231.127 215,243.5C 215.494,245.134 215.66,246.801 215.5,248.5C 215.5,249.833 215.5,251.167 215.5,252.5C 216.165,258.477 216.498,264.477 216.5,270.5C 211.833,270.5 207.167,270.5 202.5,270.5C 200.09,259.837 194.756,251.003 186.5,244C 176.254,239.202 167.754,241.368 161,250.5C 156.782,256.601 153.948,263.267 152.5,270.5C 147.833,270.5 143.167,270.5 138.5,270.5C 138.5,264.5 138.5,258.5 138.5,252.5C 140.162,236.51 146.662,222.843 158,211.5C 159.348,188.506 160.515,165.506 161.5,142.5C 171.653,141.506 181.986,141.172 192.5,141.5 Z"/></g>
<g><path style="opacity:1" fill="#3849d9" d="M 239.5,142.5 C 239.5,146.167 239.5,149.833 239.5,153.5C 233.895,152.908 228.561,153.741 223.5,156C 216.399,164.057 217.066,171.391 225.5,178C 229.7,179.367 234.033,179.867 238.5,179.5C 237.796,189.813 237.296,200.146 237,210.5C 226.811,220.878 220.311,233.211 217.5,247.5C 216.833,247.833 216.167,248.167 215.5,248.5C 215.66,246.801 215.494,245.134 215,243.5C 210.982,231.127 204.649,220.127 196,210.5C 195,189.17 194.167,167.837 193.5,146.5C 193.5,145.167 193.5,143.833 193.5,142.5C 208.833,142.5 224.167,142.5 239.5,142.5 Z"/></g>
<g><path style="opacity:1" fill="#96e381" d="M 271.5,141.5 C 271.5,141.833 271.5,142.167 271.5,142.5C 271.5,145.167 271.5,147.833 271.5,150.5C 270.527,148.052 270.194,145.385 270.5,142.5C 265.5,142.5 260.5,142.5 255.5,142.5C 255.5,175.5 255.5,208.5 255.5,241.5C 249.195,241.903 244.028,244.57 240,249.5C 235.204,255.759 232.037,262.759 230.5,270.5C 225.833,270.5 221.167,270.5 216.5,270.5C 216.498,264.477 216.165,258.477 215.5,252.5C 217.213,251.365 217.88,249.698 217.5,247.5C 220.311,233.211 226.811,220.878 237,210.5C 237.296,200.146 237.796,189.813 238.5,179.5C 238.656,170.825 238.989,162.158 239.5,153.5C 239.5,149.833 239.5,146.167 239.5,142.5C 250.085,141.524 260.752,141.191 271.5,141.5 Z"/></g>
<g><path style="opacity:1" fill="#77db5a" d="M 271.5,150.5 C 271.5,151.5 271.5,152.5 271.5,153.5C 272.442,162.113 272.775,170.779 272.5,179.5C 272.216,181.415 272.549,183.081 273.5,184.5C 273.334,193.173 273.5,201.84 274,210.5C 284.189,220.878 290.689,233.211 293.5,247.5C 293.366,249.292 293.699,250.958 294.5,252.5C 294.5,258.5 294.5,264.5 294.5,270.5C 289.833,270.5 285.167,270.5 280.5,270.5C 278.597,259.515 273.263,250.682 264.5,244C 261.688,242.451 258.688,241.618 255.5,241.5C 255.5,208.5 255.5,175.5 255.5,142.5C 260.5,142.5 265.5,142.5 270.5,142.5C 270.194,145.385 270.527,148.052 271.5,150.5 Z"/></g>
<g><path style="opacity:1" fill="#2a36a9" d="M 271.5,142.5 C 286.833,142.5 302.167,142.5 317.5,142.5C 317.5,143.833 317.5,145.167 317.5,146.5C 316.758,167.834 315.924,189.167 315,210.5C 306.351,220.127 300.018,231.127 296,243.5C 295.506,245.134 295.34,246.801 295.5,248.5C 294.833,248.167 294.167,247.833 293.5,247.5C 290.689,233.211 284.189,220.878 274,210.5C 273.5,201.84 273.334,193.173 273.5,184.5C 273.5,183.167 273.5,181.833 273.5,180.5C 275.735,180.795 277.735,180.461 279.5,179.5C 288.693,178.12 292.86,172.787 292,163.5C 290.911,159.814 288.745,156.981 285.5,155C 280.934,153.691 276.267,153.191 271.5,153.5C 271.5,152.5 271.5,151.5 271.5,150.5C 271.5,147.833 271.5,145.167 271.5,142.5 Z"/></g>
<g><path style="opacity:1" fill="#4eae37" d="M 318.5,141.5 C 329.014,141.172 339.347,141.506 349.5,142.5C 350.639,165.498 351.805,188.498 353,211.5C 362.211,221.588 368.545,233.255 372,246.5C 372.5,254.493 372.666,262.493 372.5,270.5C 367.833,270.5 363.167,270.5 358.5,270.5C 356.58,260.493 351.913,251.993 344.5,245C 335.075,239.574 326.575,240.74 319,248.5C 313.903,255.024 310.737,262.357 309.5,270.5C 304.5,270.5 299.5,270.5 294.5,270.5C 294.5,264.5 294.5,258.5 294.5,252.5C 295.434,251.432 295.768,250.099 295.5,248.5C 295.34,246.801 295.506,245.134 296,243.5C 300.018,231.127 306.351,220.127 315,210.5C 315.924,189.167 316.758,167.834 317.5,146.5C 318.451,145.081 318.784,143.415 318.5,141.5 Z"/></g>
<g><path style="opacity:1" fill="#2936a9" d="M 349.5,142.5 C 360.5,142.5 371.5,142.5 382.5,142.5C 382.5,185.5 382.5,228.5 382.5,271.5C 379.272,270.586 375.939,270.253 372.5,270.5C 372.666,262.493 372.5,254.493 372,246.5C 368.545,233.255 362.211,221.588 353,211.5C 351.805,188.498 350.639,165.498 349.5,142.5 Z"/></g>
<g><path style="opacity:1" fill="#ffd428" d="M 510.5,268.5 C 498.392,364.384 450.392,435.884 366.5,483C 336.132,498.42 304.132,507.92 270.5,511.5C 265.167,511.5 259.833,511.5 254.5,511.5C 213.035,469.535 171.368,427.701 129.5,386C 214.001,385.833 298.334,385.333 382.5,384.5C 383.333,304.001 383.833,223.334 384,142.5C 426.035,184.701 468.201,226.701 510.5,268.5 Z"/></g>
<g><path style="opacity:1" fill="#fbd12e" d="M 239.5,153.5 C 238.989,162.158 238.656,170.825 238.5,179.5C 234.033,179.867 229.7,179.367 225.5,178C 217.066,171.391 216.399,164.057 223.5,156C 228.561,153.741 233.895,152.908 239.5,153.5 Z"/></g>
<g><path style="opacity:1" fill="#fbd12b" d="M 271.5,153.5 C 276.267,153.191 280.934,153.691 285.5,155C 288.745,156.981 290.911,159.814 292,163.5C 292.86,172.787 288.693,178.12 279.5,179.5C 277.167,179.5 274.833,179.5 272.5,179.5C 272.775,170.779 272.442,162.113 271.5,153.5 Z"/></g>
<g><path style="opacity:1" fill="#4f6c8b" d="M 272.5,179.5 C 274.833,179.5 277.167,179.5 279.5,179.5C 277.735,180.461 275.735,180.795 273.5,180.5C 273.5,181.833 273.5,183.167 273.5,184.5C 272.549,183.081 272.216,181.415 272.5,179.5 Z"/></g>
<g><path style="opacity:1" fill="#fce26f" d="M 255.5,241.5 C 255.5,245.5 255.5,249.5 255.5,253.5C 246.646,255.691 241.646,261.358 240.5,270.5C 237.167,270.5 233.833,270.5 230.5,270.5C 232.037,262.759 235.204,255.759 240,249.5C 244.028,244.57 249.195,241.903 255.5,241.5 Z"/></g>
<g><path style="opacity:1" fill="#fca21d" d="M 358.5,270.5 C 355.5,270.5 352.5,270.5 349.5,270.5C 347.548,261.559 342.214,255.892 333.5,253.5C 330.219,253.891 327.385,255.224 325,257.5C 321.762,261.309 319.596,265.642 318.5,270.5C 315.5,270.5 312.5,270.5 309.5,270.5C 310.737,262.357 313.903,255.024 319,248.5C 326.575,240.74 335.075,239.574 344.5,245C 351.913,251.993 356.58,260.493 358.5,270.5 Z"/></g>
<g><path style="opacity:1" fill="#fdd328" d="M 202.5,270.5 C 199.167,270.5 195.833,270.5 192.5,270.5C 190.938,261.659 185.938,255.992 177.5,253.5C 168.786,255.892 163.452,261.559 161.5,270.5C 158.5,270.5 155.5,270.5 152.5,270.5C 153.948,263.267 156.782,256.601 161,250.5C 167.754,241.368 176.254,239.202 186.5,244C 194.756,251.003 200.09,259.837 202.5,270.5 Z"/></g>
<g><path style="opacity:1" fill="#fcd328" d="M 255.5,241.5 C 258.688,241.618 261.688,242.451 264.5,244C 273.263,250.682 278.597,259.515 280.5,270.5C 277.167,270.5 273.833,270.5 270.5,270.5C 269.354,261.358 264.354,255.691 255.5,253.5C 255.5,249.5 255.5,245.5 255.5,241.5 Z"/></g>
<g><path style="opacity:1" fill="#6195a1" d="M 217.5,247.5 C 217.88,249.698 217.213,251.365 215.5,252.5C 215.5,251.167 215.5,249.833 215.5,248.5C 216.167,248.167 216.833,247.833 217.5,247.5 Z"/></g>
<g><path style="opacity:1" fill="#467a78" d="M 293.5,247.5 C 294.167,247.833 294.833,248.167 295.5,248.5C 295.768,250.099 295.434,251.432 294.5,252.5C 293.699,250.958 293.366,249.292 293.5,247.5 Z"/></g>
<g><path style="opacity:1" fill="#ffa31d" d="M 192.5,270.5 C 182.167,270.5 171.833,270.5 161.5,270.5C 163.452,261.559 168.786,255.892 177.5,253.5C 185.938,255.992 190.938,261.659 192.5,270.5 Z"/></g>
<g><path style="opacity:1" fill="#ffd42a" d="M 255.5,253.5 C 255.5,259.167 255.5,264.833 255.5,270.5C 250.5,270.5 245.5,270.5 240.5,270.5C 241.646,261.358 246.646,255.691 255.5,253.5 Z"/></g>
<g><path style="opacity:1" fill="#ffa31d" d="M 255.5,253.5 C 264.354,255.691 269.354,261.358 270.5,270.5C 265.5,270.5 260.5,270.5 255.5,270.5C 255.5,264.833 255.5,259.167 255.5,253.5 Z"/></g>
<g><path style="opacity:1" fill="#ff7c36" d="M 349.5,270.5 C 339.167,270.5 328.833,270.5 318.5,270.5C 319.596,265.642 321.762,261.309 325,257.5C 327.385,255.224 330.219,253.891 333.5,253.5C 342.214,255.892 347.548,261.559 349.5,270.5 Z"/></g>
<g><path style="opacity:1" fill="#5764de" d="M 138.5,252.5 C 138.5,258.5 138.5,264.5 138.5,270.5C 143.167,270.5 147.833,270.5 152.5,270.5C 155.5,270.5 158.5,270.5 161.5,270.5C 171.833,270.5 182.167,270.5 192.5,270.5C 195.833,270.5 199.167,270.5 202.5,270.5C 207.167,270.5 211.833,270.5 216.5,270.5C 221.167,270.5 225.833,270.5 230.5,270.5C 233.833,270.5 237.167,270.5 240.5,270.5C 245.5,270.5 250.5,270.5 255.5,270.5C 260.5,270.5 265.5,270.5 270.5,270.5C 273.833,270.5 277.167,270.5 280.5,270.5C 285.167,270.5 289.833,270.5 294.5,270.5C 299.5,270.5 304.5,270.5 309.5,270.5C 312.5,270.5 315.5,270.5 318.5,270.5C 328.833,270.5 339.167,270.5 349.5,270.5C 352.5,270.5 355.5,270.5 358.5,270.5C 363.167,270.5 367.833,270.5 372.5,270.5C 333.67,271.499 294.67,271.832 255.5,271.5C 255.5,309.167 255.5,346.833 255.5,384.5C 213.167,384.5 170.833,384.5 128.5,384.5C 128.5,346.5 128.5,308.5 128.5,270.5C 131.5,270.5 134.5,270.5 137.5,270.5C 137.177,264.31 137.51,258.31 138.5,252.5 Z"/></g>
<g><path style="opacity:1" fill="#3647da" d="M 372.5,270.5 C 375.939,270.253 379.272,270.586 382.5,271.5C 382.5,309.167 382.5,346.833 382.5,384.5C 340.167,384.5 297.833,384.5 255.5,384.5C 255.5,346.833 255.5,309.167 255.5,271.5C 294.67,271.832 333.67,271.499 372.5,270.5 Z"/></g>
</svg>
