<?xml version="1.0" encoding="UTF-8"?>
<!DOCTYPE svg PUBLIC "-//W3C//DTD SVG 1.1//EN" "http://www.w3.org/Graphics/SVG/1.1/DTD/svg11.dtd">
<svg xmlns="http://www.w3.org/2000/svg" version="1.1" width="512px" height="512px" style="shape-rendering:geometricPrecision; text-rendering:geometricPrecision; image-rendering:optimizeQuality; fill-rule:evenodd; clip-rule:evenodd" xmlns:xlink="http://www.w3.org/1999/xlink">
<g><path style="opacity:0.997" fill="#77dc5a" d="M 232.5,-0.5 C 247.833,-0.5 263.167,-0.5 278.5,-0.5C 368.144,10.3879 435.644,54.7213 481,132.5C 497.695,163.971 507.861,197.304 511.5,232.5C 511.5,235.167 511.5,237.833 511.5,240.5C 475.5,204.833 439.5,169.167 403.5,133.5C 403.5,132.833 403.167,132.5 402.5,132.5C 380.5,132.5 358.5,132.5 336.5,132.5C 332.833,128.167 328.833,124.167 324.5,120.5C 324.5,120.167 324.5,119.833 324.5,119.5C 268.665,118.169 212.665,118.169 156.5,119.5C 156.624,120.107 156.957,120.44 157.5,120.5C 166.679,131.179 175.679,142.013 184.5,153C 175.839,192.796 167.339,232.63 159,272.5C 151.99,309.107 157.324,343.773 175,376.5C 178.03,381.916 181.53,386.916 185.5,391.5C 223.833,430.5 262.5,469.167 301.5,507.5C 293.871,509.078 286.205,510.412 278.5,511.5C 263.167,511.5 247.833,511.5 232.5,511.5C 142.856,500.612 75.3562,456.279 30,378.5C 13.3053,347.029 3.1386,313.696 -0.5,278.5C -0.5,263.167 -0.5,247.833 -0.5,232.5C 10.3875,142.857 54.7208,75.3573 132.5,30C 163.971,13.3053 197.304,3.1386 232.5,-0.5 Z"/></g>
<g><path style="opacity:1" fill="#a9e5a4" d="M 324.5,119.5 C 301.5,119.5 278.5,119.5 255.5,119.5C 222.662,119.168 189.996,119.502 157.5,120.5C 156.957,120.44 156.624,120.107 156.5,119.5C 212.665,118.169 268.665,118.169 324.5,119.5 Z"/></g>
<g><path style="opacity:1" fill="#fefefd" d="M 255.5,119.5 C 255.5,131.167 255.5,142.833 255.5,154.5C 245.833,163.5 236.5,172.833 227.5,182.5C 216.167,182.5 204.833,182.5 193.5,182.5C 187.658,212.875 181.492,243.208 175,273.5C 169.593,308.143 177.093,339.477 197.5,367.5C 216.659,368.497 235.993,368.83 255.5,368.5C 255.5,376.167 255.5,383.833 255.5,391.5C 232.167,391.5 208.833,391.5 185.5,391.5C 181.53,386.916 178.03,381.916 175,376.5C 157.324,343.773 151.99,309.107 159,272.5C 167.339,232.63 175.839,192.796 184.5,153C 175.679,142.013 166.679,131.179 157.5,120.5C 189.996,119.502 222.662,119.168 255.5,119.5 Z"/></g>
<g><path style="opacity:1" fill="#d5e8f6" d="M 255.5,119.5 C 278.5,119.5 301.5,119.5 324.5,119.5C 324.5,119.833 324.5,120.167 324.5,120.5C 325.295,124.476 325.962,128.476 326.5,132.5C 328.848,142.589 331.181,152.589 333.5,162.5C 339.959,198.296 347.126,233.963 355,269.5C 361.909,313.972 352.409,354.472 326.5,391C 302.836,391.5 279.169,391.667 255.5,391.5C 255.5,383.833 255.5,376.167 255.5,368.5C 275.178,368.833 294.845,368.5 314.5,367.5C 334.205,340.018 342.372,309.352 339,275.5C 333.024,244.452 326.857,213.452 320.5,182.5C 308.167,182.5 295.833,182.5 283.5,182.5C 274.167,182.5 264.833,182.5 255.5,182.5C 246.167,182.5 236.833,182.5 227.5,182.5C 236.5,172.833 245.833,163.5 255.5,154.5C 255.5,142.833 255.5,131.167 255.5,119.5 Z"/></g>
<g><path style="opacity:1" fill="#50bf74" d="M 324.5,120.5 C 328.833,124.167 332.833,128.167 336.5,132.5C 333.167,132.5 329.833,132.5 326.5,132.5C 325.962,128.476 325.295,124.476 324.5,120.5 Z"/></g>
<g><path style="opacity:1" fill="#b1d6f1" d="M 326.5,132.5 C 329.833,132.5 333.167,132.5 336.5,132.5C 358.5,132.5 380.5,132.5 402.5,132.5C 402.5,177.833 402.5,223.167 402.5,268.5C 401.167,268.5 399.833,268.5 398.5,268.5C 384.6,265.767 376.1,257.434 373,243.5C 372.5,216.502 372.333,189.502 372.5,162.5C 359.5,162.5 346.5,162.5 333.5,162.5C 331.181,152.589 328.848,142.589 326.5,132.5 Z"/></g>
<g><path style="opacity:1" fill="#79c9aa" d="M 402.5,132.5 C 403.167,132.5 403.5,132.833 403.5,133.5C 403.5,178.833 403.5,224.167 403.5,269.5C 401.585,269.784 399.919,269.451 398.5,268.5C 399.833,268.5 401.167,268.5 402.5,268.5C 402.5,223.167 402.5,177.833 402.5,132.5 Z"/></g>
<g><path style="opacity:1" fill="#4fbf74" d="M 403.5,133.5 C 439.5,169.167 475.5,204.833 511.5,240.5C 511.5,253.167 511.5,265.833 511.5,278.5C 500.612,368.144 456.279,435.644 378.5,481C 354.298,494.123 328.631,502.956 301.5,507.5C 262.5,469.167 223.833,430.5 185.5,391.5C 208.833,391.5 232.167,391.5 255.5,391.5C 279.169,391.667 302.836,391.5 326.5,391C 352.409,354.472 361.909,313.972 355,269.5C 347.126,233.963 339.959,198.296 333.5,162.5C 346.5,162.5 359.5,162.5 372.5,162.5C 372.333,189.502 372.5,216.502 373,243.5C 376.1,257.434 384.6,265.767 398.5,268.5C 399.919,269.451 401.585,269.784 403.5,269.5C 403.5,224.167 403.5,178.833 403.5,133.5 Z"/></g>
<g><path style="opacity:1" fill="#b2d7f3" d="M 255.5,154.5 C 264.584,163.083 273.584,171.916 282.5,181C 273.506,181.5 264.506,181.666 255.5,181.5C 255.5,172.5 255.5,163.5 255.5,154.5 Z"/></g>
<g><path style="opacity:1" fill="#fed429" d="M 227.5,182.5 C 236.772,191.27 245.938,200.27 255,209.5C 255.5,200.506 255.666,191.506 255.5,182.5C 264.833,182.5 274.167,182.5 283.5,182.5C 274.536,191.965 265.369,201.298 256,210.5C 255.501,215.489 255.334,220.489 255.5,225.5C 250.187,220.522 244.854,215.522 239.5,210.5C 229.972,219.195 220.972,228.361 212.5,238C 220.972,247.639 229.972,256.805 239.5,265.5C 244.854,260.478 250.187,255.478 255.5,250.5C 255.333,273.836 255.5,297.169 256,320.5C 261.015,315.318 266.181,310.318 271.5,305.5C 280.986,314.486 290.319,323.652 299.5,333C 290.319,342.348 280.986,351.514 271.5,360.5C 266.167,355.833 261.167,350.833 256.5,345.5C 255.503,352.803 255.169,360.137 255.5,367.5C 236.167,367.5 216.833,367.5 197.5,367.5C 177.093,339.477 169.593,308.143 175,273.5C 181.492,243.208 187.658,212.875 193.5,182.5C 204.833,182.5 216.167,182.5 227.5,182.5 Z"/></g>
<g><path style="opacity:1" fill="#fee16e" d="M 227.5,182.5 C 236.833,182.5 246.167,182.5 255.5,182.5C 255.666,191.506 255.5,200.506 255,209.5C 245.938,200.27 236.772,191.27 227.5,182.5 Z"/></g>
<g><path style="opacity:1" fill="#feae39" d="M 283.5,182.5 C 295.833,182.5 308.167,182.5 320.5,182.5C 326.857,213.452 333.024,244.452 339,275.5C 342.372,309.352 334.205,340.018 314.5,367.5C 294.845,368.5 275.178,368.833 255.5,368.5C 235.993,368.83 216.659,368.497 197.5,367.5C 216.833,367.5 236.167,367.5 255.5,367.5C 255.169,360.137 255.503,352.803 256.5,345.5C 261.167,350.833 266.167,355.833 271.5,360.5C 280.986,351.514 290.319,342.348 299.5,333C 290.319,323.652 280.986,314.486 271.5,305.5C 266.181,310.318 261.015,315.318 256,320.5C 255.5,297.169 255.333,273.836 255.5,250.5C 255.5,250.167 255.5,249.833 255.5,249.5C 259.631,245.87 263.631,242.037 267.5,238C 263.631,233.963 259.631,230.13 255.5,226.5C 255.5,226.167 255.5,225.833 255.5,225.5C 255.334,220.489 255.501,215.489 256,210.5C 265.369,201.298 274.536,191.965 283.5,182.5 Z"/></g>
<g><path style="opacity:1" fill="#ffd328" d="M 295.5,194.5 C 304.286,201.452 312.286,209.285 319.5,218C 312.362,226.305 304.695,234.138 296.5,241.5C 288.348,233.848 280.348,226.015 272.5,218C 280.369,210.298 288.036,202.465 295.5,194.5 Z"/></g>
<g><path style="opacity:1" fill="#ffe16e" d="M 255.5,225.5 C 255.5,225.833 255.5,226.167 255.5,226.5C 255.5,234.167 255.5,241.833 255.5,249.5C 255.5,249.833 255.5,250.167 255.5,250.5C 250.187,255.478 244.854,260.478 239.5,265.5C 229.972,256.805 220.972,247.639 212.5,238C 220.972,228.361 229.972,219.195 239.5,210.5C 244.854,215.522 250.187,220.522 255.5,225.5 Z"/></g>
<g><path style="opacity:1" fill="#ffd42a" d="M 255.5,226.5 C 259.631,230.13 263.631,233.963 267.5,238C 263.631,242.037 259.631,245.87 255.5,249.5C 255.5,241.833 255.5,234.167 255.5,226.5 Z"/></g>
<g><path style="opacity:1" fill="#54be72" d="M 272.5,283.5 C 282.84,291.847 293.84,292.68 305.5,286C 314.24,278.448 317.406,268.948 315,257.5C 313.119,253.738 311.286,250.071 309.5,246.5C 311.311,243.153 313.978,241.32 317.5,241C 328.516,255.576 329.349,270.743 320,286.5C 308.53,299.908 294.364,304.075 277.5,299C 273.127,297.287 269.293,294.787 266,291.5C 267.114,288.195 269.281,285.528 272.5,283.5 Z"/></g>
<g><path style="opacity:1" fill="#79db59" d="M 309.5,246.5 C 311.286,250.071 313.119,253.738 315,257.5C 317.406,268.948 314.24,278.448 305.5,286C 293.84,292.68 282.84,291.847 272.5,283.5C 284.5,270.833 296.833,258.5 309.5,246.5 Z"/></g>
<g><path style="opacity:1" fill="#7bdb58" d="M 206.5,267.5 C 198.264,277.875 197.43,288.875 204,300.5C 216.014,312.547 228.847,313.547 242.5,303.5C 245.146,305.479 247.479,307.812 249.5,310.5C 240.84,319.79 230.173,323.29 217.5,321C 196.825,314.326 187.325,300.159 189,278.5C 190.448,271.722 193.615,265.889 198.5,261C 201.805,262.114 204.472,264.281 206.5,267.5 Z"/></g>
<g><path style="opacity:1" fill="#b5e34d" d="M 206.5,267.5 C 218.833,279.167 230.833,291.167 242.5,303.5C 228.847,313.547 216.014,312.547 204,300.5C 197.43,288.875 198.264,277.875 206.5,267.5 Z"/></g>
<g><path style="opacity:1" fill="#ffe16c" d="M 254.5,321.5 C 255.819,328.677 255.819,336.01 254.5,343.5C 250.634,340.468 247.301,336.968 244.5,333C 247.656,329.011 250.989,325.177 254.5,321.5 Z"/></g>
</svg>
