<?xml version="1.0" encoding="UTF-8"?>
<!DOCTYPE svg PUBLIC "-//W3C//DTD SVG 1.1//EN" "http://www.w3.org/Graphics/SVG/1.1/DTD/svg11.dtd">
<svg xmlns="http://www.w3.org/2000/svg" version="1.1" width="512px" height="512px" style="shape-rendering:geometricPrecision; text-rendering:geometricPrecision; image-rendering:optimizeQuality; fill-rule:evenodd; clip-rule:evenodd" xmlns:xlink="http://www.w3.org/1999/xlink">
<g><path style="opacity:0.996" fill="#ee5ba3" d="M 232.5,-0.5 C 247.833,-0.5 263.167,-0.5 278.5,-0.5C 368.144,10.3879 435.644,54.7213 481,132.5C 497.695,163.971 507.861,197.304 511.5,232.5C 511.5,247.833 511.5,263.167 511.5,278.5C 510.549,279.919 510.216,281.585 510.5,283.5C 454.167,227.5 397.833,171.5 341.5,115.5C 340.903,114.861 340.07,114.528 339,114.5C 316.398,118.128 293.898,122.128 271.5,126.5C 279.895,132.029 288.561,137.029 297.5,141.5C 302.008,144.253 306.341,147.253 310.5,150.5C 305.097,160.303 299.43,169.97 293.5,179.5C 291.833,179.5 290.167,179.5 288.5,179.5C 267.167,157.161 245.5,135.828 223.5,115.5C 198.394,113.524 173.061,112.857 147.5,113.5C 147.5,118.5 147.5,123.5 147.5,128.5C 164.218,146.218 181.551,163.218 199.5,179.5C 182.039,191.069 164.373,202.402 146.5,213.5C 139.025,225.75 134.191,239.083 132,253.5C 126.609,300.686 141.776,339.686 177.5,370.5C 222.118,415.452 266.785,460.452 311.5,505.5C 300.623,508.234 289.623,510.234 278.5,511.5C 263.167,511.5 247.833,511.5 232.5,511.5C 142.856,500.612 75.3562,456.279 30,378.5C 13.3053,347.029 3.1386,313.696 -0.5,278.5C -0.5,263.167 -0.5,247.833 -0.5,232.5C 10.3875,142.857 54.7208,75.3573 132.5,30C 163.971,13.3053 197.304,3.1386 232.5,-0.5 Z"/></g>
<g><path style="opacity:1" fill="#78da5a" d="M 223.5,115.5 C 229.167,136.833 234.833,158.167 240.5,179.5C 235.5,179.5 230.5,179.5 225.5,179.5C 220.836,162.846 216.169,146.179 211.5,129.5C 190.177,128.5 168.844,128.167 147.5,128.5C 147.5,123.5 147.5,118.5 147.5,113.5C 173.061,112.857 198.394,113.524 223.5,115.5 Z"/></g>
<g><path style="opacity:1" fill="#7781ec" d="M 338.5,166.5 C 334.091,163.433 329.424,160.767 324.5,158.5C 320.167,155.331 315.5,152.664 310.5,150.5C 306.341,147.253 302.008,144.253 297.5,141.5C 311.195,132.498 325.195,123.832 339.5,115.5C 340.305,132.514 339.972,149.514 338.5,166.5 Z"/></g>
<g><path style="opacity:1" fill="#e91f82" d="M 288.5,179.5 C 287.5,179.5 286.5,179.5 285.5,179.5C 275.5,179.5 265.5,179.5 255.5,179.5C 250.5,179.5 245.5,179.5 240.5,179.5C 234.833,158.167 229.167,136.833 223.5,115.5C 245.5,135.828 267.167,157.161 288.5,179.5 Z"/></g>
<g><path style="opacity:1" fill="#e91d82" d="M 341.5,115.5 C 397.833,171.5 454.167,227.5 510.5,283.5C 499.106,367.84 457.44,432.34 385.5,477C 362.388,490.537 337.721,500.037 311.5,505.5C 266.785,460.452 222.118,415.452 177.5,370.5C 200.416,388.251 226.416,397.251 255.5,397.5C 307.676,395.107 345.509,370.774 369,324.5C 381.415,295.853 383.415,266.52 375,236.5C 372.877,228.936 369.71,221.936 365.5,215.5C 347.772,203.108 329.772,191.108 311.5,179.5C 315.096,171.961 319.429,164.961 324.5,158.5C 329.424,160.767 334.091,163.433 338.5,166.5C 346.472,171.155 354.472,175.822 362.5,180.5C 362.833,180 363.167,179.5 363.5,179C 356.013,157.865 348.68,136.699 341.5,115.5 Z"/></g>
<g><path style="opacity:1" fill="#4d51c8" d="M 341.5,115.5 C 348.68,136.699 356.013,157.865 363.5,179C 363.167,179.5 362.833,180 362.5,180.5C 354.472,175.822 346.472,171.155 338.5,166.5C 339.972,149.514 340.305,132.514 339.5,115.5C 325.195,123.832 311.195,132.498 297.5,141.5C 288.561,137.029 279.895,132.029 271.5,126.5C 293.898,122.128 316.398,118.128 339,114.5C 340.07,114.528 340.903,114.861 341.5,115.5 Z"/></g>
<g><path style="opacity:1" fill="#e92082" d="M 147.5,128.5 C 168.844,128.167 190.177,128.5 211.5,129.5C 216.169,146.179 220.836,162.846 225.5,179.5C 225.167,179.5 224.833,179.5 224.5,179.5C 216.167,179.5 207.833,179.5 199.5,179.5C 181.551,163.218 164.218,146.218 147.5,128.5 Z"/></g>
<g><path style="opacity:1" fill="#4e1c7a" d="M 310.5,150.5 C 315.5,152.664 320.167,155.331 324.5,158.5C 319.429,164.961 315.096,171.961 311.5,179.5C 305.5,179.5 299.5,179.5 293.5,179.5C 299.43,169.97 305.097,160.303 310.5,150.5 Z"/></g>
<g><path style="opacity:1" fill="#fed328" d="M 199.5,179.5 C 207.833,179.5 216.167,179.5 224.5,179.5C 216.697,200.911 208.697,222.244 200.5,243.5C 182.887,234.359 165.22,225.192 147.5,216C 146.748,215.329 146.414,214.496 146.5,213.5C 164.373,202.402 182.039,191.069 199.5,179.5 Z"/></g>
<g><path style="opacity:1" fill="#ffe16e" d="M 224.5,179.5 C 224.833,179.5 225.167,179.5 225.5,179.5C 230.5,179.5 235.5,179.5 240.5,179.5C 245.5,179.5 250.5,179.5 255.5,179.5C 255.5,200.833 255.5,222.167 255.5,243.5C 237.167,243.5 218.833,243.5 200.5,243.5C 208.697,222.244 216.697,200.911 224.5,179.5 Z"/></g>
<g><path style="opacity:1" fill="#fed328" d="M 255.5,179.5 C 265.5,179.5 275.5,179.5 285.5,179.5C 290.204,190.897 294.871,202.23 299.5,213.5C 299.505,217.534 299.838,221.534 300.5,225.5C 290.178,222.252 282.345,225.252 277,234.5C 276.502,237.482 276.335,240.482 276.5,243.5C 269.5,243.5 262.5,243.5 255.5,243.5C 255.5,222.167 255.5,200.833 255.5,179.5 Z"/></g>
<g><path style="opacity:1" fill="#fead39" d="M 285.5,179.5 C 286.5,179.5 287.5,179.5 288.5,179.5C 290.167,179.5 291.833,179.5 293.5,179.5C 299.5,179.5 305.5,179.5 311.5,179.5C 329.772,191.108 347.772,203.108 365.5,215.5C 358.55,218.308 351.883,221.642 345.5,225.5C 340.098,224.583 334.764,224.25 329.5,224.5C 332.477,206.643 325.144,199.476 307.5,203C 303.913,205.76 301.246,209.26 299.5,213.5C 294.871,202.23 290.204,190.897 285.5,179.5 Z"/></g>
<g><path style="opacity:1" fill="#d5e8f5" d="M 345.5,225.5 C 357.453,235.002 357.453,244.502 345.5,254C 340.537,255.71 335.537,255.876 330.5,254.5C 330.346,258.652 330.346,262.985 330.5,267.5C 325.147,278.718 316.814,281.551 305.5,276C 303.383,274.269 301.883,272.102 301,269.5C 299.528,264.473 299.028,259.473 299.5,254.5C 292.605,256.514 286.272,255.514 280.5,251.5C 278.884,249.262 277.551,246.929 276.5,244.5C 276.5,244.167 276.5,243.833 276.5,243.5C 276.335,240.482 276.502,237.482 277,234.5C 282.345,225.252 290.178,222.252 300.5,225.5C 299.838,221.534 299.505,217.534 299.5,213.5C 301.246,209.26 303.913,205.76 307.5,203C 325.144,199.476 332.477,206.643 329.5,224.5C 334.764,224.25 340.098,224.583 345.5,225.5 Z"/></g>
<g><path style="opacity:1" fill="#95623b" d="M 146.5,213.5 C 146.414,214.496 146.748,215.329 147.5,216C 165.22,225.192 182.887,234.359 200.5,243.5C 218.833,243.5 237.167,243.5 255.5,243.5C 262.5,243.5 269.5,243.5 276.5,243.5C 276.5,243.833 276.5,244.167 276.5,244.5C 269.5,244.5 262.5,244.5 255.5,244.5C 255.5,295.5 255.5,346.5 255.5,397.5C 226.416,397.251 200.416,388.251 177.5,370.5C 141.776,339.686 126.609,300.686 132,253.5C 134.191,239.083 139.025,225.75 146.5,213.5 Z"/></g>
<g><path style="opacity:1" fill="#71482a" d="M 365.5,215.5 C 369.71,221.936 372.877,228.936 375,236.5C 383.415,266.52 381.415,295.853 369,324.5C 345.509,370.774 307.676,395.107 255.5,397.5C 255.5,346.5 255.5,295.5 255.5,244.5C 262.5,244.5 269.5,244.5 276.5,244.5C 277.551,246.929 278.884,249.262 280.5,251.5C 268.574,263.25 262.24,277.584 261.5,294.5C 274.739,294.191 286.739,290.191 297.5,282.5C 300.69,295.546 306.523,307.213 315,317.5C 328.603,303.206 333.77,286.539 330.5,267.5C 330.346,262.985 330.346,258.652 330.5,254.5C 335.537,255.876 340.537,255.71 345.5,254C 357.453,244.502 357.453,235.002 345.5,225.5C 351.883,221.642 358.55,218.308 365.5,215.5 Z"/></g>
<g><path style="opacity:1" fill="#fdd433" d="M 312.5,230.5 C 321.037,230.201 324.871,234.201 324,242.5C 321.003,249.222 316.17,250.889 309.5,247.5C 303.662,240.688 304.662,235.021 312.5,230.5 Z"/></g>
<g><path style="opacity:1" fill="#50bd73" d="M 280.5,251.5 C 286.272,255.514 292.605,256.514 299.5,254.5C 299.028,259.473 299.528,264.473 301,269.5C 301.883,272.102 303.383,274.269 305.5,276C 316.814,281.551 325.147,278.718 330.5,267.5C 333.77,286.539 328.603,303.206 315,317.5C 306.523,307.213 300.69,295.546 297.5,282.5C 286.739,290.191 274.739,294.191 261.5,294.5C 262.24,277.584 268.574,263.25 280.5,251.5 Z"/></g>
</svg>
