<?xml version="1.0" encoding="UTF-8"?>
<!DOCTYPE svg PUBLIC "-//W3C//DTD SVG 1.1//EN" "http://www.w3.org/Graphics/SVG/1.1/DTD/svg11.dtd">
<svg xmlns="http://www.w3.org/2000/svg" version="1.1" width="512px" height="512px" style="shape-rendering:geometricPrecision; text-rendering:geometricPrecision; image-rendering:optimizeQuality; fill-rule:evenodd; clip-rule:evenodd" xmlns:xlink="http://www.w3.org/1999/xlink">
<g><path style="opacity:0.996" fill="#fee26e" d="M 232.5,-0.5 C 247.833,-0.5 263.167,-0.5 278.5,-0.5C 368.144,10.3879 435.644,54.7213 481,132.5C 497.695,163.971 507.861,197.304 511.5,232.5C 511.5,247.833 511.5,263.167 511.5,278.5C 510.17,288.432 508.504,298.432 506.5,308.5C 451.57,255.237 397.237,201.237 343.5,146.5C 342.893,146.624 342.56,146.957 342.5,147.5C 340.833,145.5 339.167,143.5 337.5,141.5C 322.342,140.504 307.009,140.17 291.5,140.5C 272.758,121.092 253.758,102.092 234.5,83.5C 233.542,82.0384 232.376,80.7051 231,79.5C 221.36,90.4474 215.193,103.114 212.5,117.5C 211.679,120.641 211.179,123.975 211,127.5C 197.601,115.222 181.768,108.555 163.5,107.5C 164.836,119.195 168.169,130.195 173.5,140.5C 173.5,140.833 173.5,141.167 173.5,141.5C 151.091,170.741 145.591,203.074 157,238.5C 164.653,259.169 177.153,276.169 194.5,289.5C 209.493,306.167 225.493,322.5 242.5,338.5C 242.667,353.17 242.5,367.837 242,382.5C 224.043,389.757 206.21,397.091 188.5,404.5C 222.465,438.965 256.632,473.299 291,507.5C 291.464,508.094 291.631,508.761 291.5,509.5C 286.99,509.884 282.657,510.551 278.5,511.5C 263.167,511.5 247.833,511.5 232.5,511.5C 142.856,500.612 75.3562,456.279 30,378.5C 13.3053,347.029 3.1386,313.696 -0.5,278.5C -0.5,263.167 -0.5,247.833 -0.5,232.5C 10.3875,142.857 54.7208,75.3573 132.5,30C 163.971,13.3053 197.304,3.1386 232.5,-0.5 Z"/></g>
<g><path style="opacity:1" fill="#79dc59" d="M 234.5,83.5 C 247.861,100.258 252.861,119.258 249.5,140.5C 249.167,140.5 248.833,140.5 248.5,140.5C 239.475,140.168 230.475,140.502 221.5,141.5C 224.289,146.205 226.289,151.205 227.5,156.5C 213.5,156.5 199.5,156.5 185.5,156.5C 180.801,152.126 176.801,147.126 173.5,141.5C 173.5,141.167 173.5,140.833 173.5,140.5C 189.181,140.833 204.848,140.499 220.5,139.5C 218.243,135.988 215.743,132.654 213,129.5C 212.501,125.514 212.334,121.514 212.5,117.5C 215.193,103.114 221.36,90.4474 231,79.5C 232.376,80.7051 233.542,82.0384 234.5,83.5 Z"/></g>
<g><path style="opacity:1" fill="#fed428" d="M 234.5,83.5 C 253.758,102.092 272.758,121.092 291.5,140.5C 277.5,140.5 263.5,140.5 249.5,140.5C 252.861,119.258 247.861,100.258 234.5,83.5 Z"/></g>
<g><path style="opacity:1" fill="#b5e34e" d="M 212.5,117.5 C 212.334,121.514 212.501,125.514 213,129.5C 215.743,132.654 218.243,135.988 220.5,139.5C 204.848,140.499 189.181,140.833 173.5,140.5C 168.169,130.195 164.836,119.195 163.5,107.5C 181.768,108.555 197.601,115.222 211,127.5C 211.179,123.975 211.679,120.641 212.5,117.5 Z"/></g>
<g><path style="opacity:1" fill="#51c073" d="M 248.5,140.5 C 247.233,145.966 245.567,151.299 243.5,156.5C 243.167,156.5 242.833,156.5 242.5,156.5C 237.5,156.5 232.5,156.5 227.5,156.5C 226.289,151.205 224.289,146.205 221.5,141.5C 230.475,140.502 239.475,140.168 248.5,140.5 Z"/></g>
<g><path style="opacity:1" fill="#f6f6e9" d="M 248.5,140.5 C 248.833,140.5 249.167,140.5 249.5,140.5C 263.5,140.5 277.5,140.5 291.5,140.5C 307.009,140.17 322.342,140.504 337.5,141.5C 310.167,141.5 282.833,141.5 255.5,141.5C 255.5,146.5 255.5,151.5 255.5,156.5C 251.5,156.5 247.5,156.5 243.5,156.5C 245.567,151.299 247.233,145.966 248.5,140.5 Z"/></g>
<g><path style="opacity:1" fill="#d6e8f6" d="M 337.5,141.5 C 339.167,143.5 340.833,145.5 342.5,147.5C 362.301,179.82 364.801,213.487 350,248.5C 333.239,282.47 306.072,302.137 268.5,307.5C 268.5,332.833 268.5,358.167 268.5,383.5C 286.357,389.759 304.024,396.592 321.5,404C 299.503,404.5 277.503,404.667 255.5,404.5C 255.5,367.167 255.5,329.833 255.5,292.5C 288.032,291.652 313.199,277.652 331,250.5C 348.144,218.961 347.644,187.794 329.5,157C 304.836,156.5 280.169,156.333 255.5,156.5C 255.5,151.5 255.5,146.5 255.5,141.5C 282.833,141.5 310.167,141.5 337.5,141.5 Z"/></g>
<g><path style="opacity:1" fill="#fefefd" d="M 173.5,141.5 C 176.801,147.126 180.801,152.126 185.5,156.5C 183.856,156.286 182.356,156.62 181,157.5C 157.926,200.701 164.093,239.201 199.5,273C 215.661,286.554 234.328,293.054 255.5,292.5C 255.5,329.833 255.5,367.167 255.5,404.5C 233.167,404.5 210.833,404.5 188.5,404.5C 206.21,397.091 224.043,389.757 242,382.5C 242.5,367.837 242.667,353.17 242.5,338.5C 242.5,328.167 242.5,317.833 242.5,307.5C 224.936,305.646 208.936,299.646 194.5,289.5C 177.153,276.169 164.653,259.169 157,238.5C 145.591,203.074 151.091,170.741 173.5,141.5 Z"/></g>
<g><path style="opacity:1" fill="#fed428" d="M 506.5,308.5 C 486.834,391.326 438.834,451.493 362.5,489C 339.777,499.097 316.11,505.931 291.5,509.5C 291.631,508.761 291.464,508.094 291,507.5C 256.632,473.299 222.465,438.965 188.5,404.5C 210.833,404.5 233.167,404.5 255.5,404.5C 277.503,404.667 299.503,404.5 321.5,404C 304.024,396.592 286.357,389.759 268.5,383.5C 268.5,358.167 268.5,332.833 268.5,307.5C 306.072,302.137 333.239,282.47 350,248.5C 364.801,213.487 362.301,179.82 342.5,147.5C 342.56,146.957 342.893,146.624 343.5,146.5C 397.237,201.237 451.57,255.237 506.5,308.5 Z"/></g>
<g><path style="opacity:1" fill="#d5e9f7" d="M 185.5,156.5 C 198.876,167.871 214.209,173.537 231.5,173.5C 236.341,168.646 240.007,162.98 242.5,156.5C 242.833,156.5 243.167,156.5 243.5,156.5C 247.5,156.5 251.5,156.5 255.5,156.5C 255.5,201.833 255.5,247.167 255.5,292.5C 234.328,293.054 215.661,286.554 199.5,273C 164.093,239.201 157.926,200.701 181,157.5C 182.356,156.62 183.856,156.286 185.5,156.5 Z"/></g>
<g><path style="opacity:1" fill="#52c075" d="M 185.5,156.5 C 199.5,156.5 213.5,156.5 227.5,156.5C 228.951,162.251 230.285,167.917 231.5,173.5C 214.209,173.537 198.876,167.871 185.5,156.5 Z"/></g>
<g><path style="opacity:1" fill="#10ac62" d="M 227.5,156.5 C 232.5,156.5 237.5,156.5 242.5,156.5C 240.007,162.98 236.341,168.646 231.5,173.5C 230.285,167.917 228.951,162.251 227.5,156.5 Z"/></g>
<g><path style="opacity:1" fill="#b1d6f2" d="M 255.5,156.5 C 280.169,156.333 304.836,156.5 329.5,157C 347.644,187.794 348.144,218.961 331,250.5C 313.199,277.652 288.032,291.652 255.5,292.5C 255.5,247.167 255.5,201.833 255.5,156.5 Z"/></g>
<g><path style="opacity:1" fill="#fed42d" d="M 268.5,219.5 C 281.892,230.95 295.892,231.45 310.5,221C 323.107,206.387 323.774,191.221 312.5,175.5C 315.129,172.369 317.962,169.369 321,166.5C 337.384,184.731 338.717,204.065 325,224.5C 308.127,242.593 288.627,246.093 266.5,235C 263.115,233.301 260.948,230.801 260,227.5C 262.703,224.629 265.536,221.962 268.5,219.5 Z"/></g>
<g><path style="opacity:1" fill="#fee16e" d="M 312.5,175.5 C 323.774,191.221 323.107,206.387 310.5,221C 295.892,231.45 281.892,230.95 268.5,219.5C 282.833,204.5 297.5,189.833 312.5,175.5 Z"/></g>
<g><path style="opacity:1" fill="#b3d7f3" d="M 192.5,185.5 C 199.193,185.685 202.026,189.019 201,195.5C 198.839,199.124 195.672,200.291 191.5,199C 185.954,194.097 186.288,189.597 192.5,185.5 Z"/></g>
<g><path style="opacity:1" fill="#b3d7f3" d="M 224.5,207.5 C 231.978,207.485 234.811,211.152 233,218.5C 229,222.5 225,222.5 221,218.5C 219.663,213.916 220.829,210.249 224.5,207.5 Z"/></g>
<g><path style="opacity:1" fill="#b3d7f3" d="M 231.5,256.5 C 239.098,256.334 241.931,260.001 240,267.5C 236,271.5 232,271.5 228,267.5C 226.663,262.916 227.829,259.249 231.5,256.5 Z"/></g>
<g><path style="opacity:1" fill="#ffd42b" d="M 194.5,289.5 C 208.936,299.646 224.936,305.646 242.5,307.5C 242.5,317.833 242.5,328.167 242.5,338.5C 225.493,322.5 209.493,306.167 194.5,289.5 Z"/></g>
</svg>
