<?xml version="1.0" encoding="UTF-8"?>
<!DOCTYPE svg PUBLIC "-//W3C//DTD SVG 1.1//EN" "http://www.w3.org/Graphics/SVG/1.1/DTD/svg11.dtd">
<svg xmlns="http://www.w3.org/2000/svg" version="1.1" width="512px" height="512px" style="shape-rendering:geometricPrecision; text-rendering:geometricPrecision; image-rendering:optimizeQuality; fill-rule:evenodd; clip-rule:evenodd" xmlns:xlink="http://www.w3.org/1999/xlink">
<g><path style="opacity:0.997" fill="#f83e82" d="M 232.5,-0.5 C 247.833,-0.5 263.167,-0.5 278.5,-0.5C 355.64,8.31232 417.473,43.6456 464,105.5C 471.196,115.227 477.363,125.56 482.5,136.5C 464.759,119.091 447.092,101.758 429.5,84.5C 415.087,67.1365 396.754,60.9699 374.5,66C 351.59,74.0753 339.59,90.242 338.5,114.5C 256.998,114.167 175.665,114.501 94.5,115.5C 94.3334,131.837 94.5001,148.17 95,164.5C 95.1862,167.036 95.6862,169.369 96.5,171.5C 101.161,189.494 110.828,204.161 125.5,215.5C 140.785,231.452 156.452,247.119 172.5,262.5C 177.762,270.764 184.428,277.764 192.5,283.5C 200.445,293.113 209.111,302.113 218.5,310.5C 218.5,346.833 218.5,383.167 218.5,419.5C 191.847,421.815 175.847,436.148 170.5,462.5C 169.167,464.5 169.167,466.5 170.5,468.5C 183.167,481.5 195.833,494.5 208.5,507.5C 134.831,492.435 77.6638,453.435 37,390.5C 16.1784,355.868 3.67839,318.535 -0.5,278.5C -0.5,263.167 -0.5,247.833 -0.5,232.5C 10.3875,142.857 54.7208,75.3573 132.5,30C 163.971,13.3053 197.304,3.1386 232.5,-0.5 Z"/></g>
<g><path style="opacity:1" fill="#fbde83" d="M 429.5,84.5 C 442.331,103.71 442.831,123.377 431,143.5C 420.364,158.332 405.864,165.665 387.5,165.5C 388.472,148.547 388.805,131.547 388.5,114.5C 371.833,114.5 355.167,114.5 338.5,114.5C 339.59,90.242 351.59,74.0753 374.5,66C 396.754,60.9699 415.087,67.1365 429.5,84.5 Z"/></g>
<g><path style="opacity:1" fill="#ba1e7f" d="M 429.5,84.5 C 447.092,101.758 464.759,119.091 482.5,136.5C 498.368,166.642 508.035,198.642 511.5,232.5C 511.5,247.833 511.5,263.167 511.5,278.5C 500.612,368.144 456.279,435.644 378.5,481C 347.029,497.695 313.696,507.861 278.5,511.5C 263.167,511.5 247.833,511.5 232.5,511.5C 224.594,510.34 216.594,509.007 208.5,507.5C 195.833,494.5 183.167,481.5 170.5,468.5C 218.003,468.832 265.336,468.499 312.5,467.5C 309.465,438.465 293.465,422.465 264.5,419.5C 264.5,378.5 264.5,337.5 264.5,296.5C 297.146,285.346 316.312,262.679 322,228.5C 355.551,223.114 377.051,204.114 386.5,171.5C 387.461,169.735 387.795,167.735 387.5,165.5C 405.864,165.665 420.364,158.332 431,143.5C 442.831,123.377 442.331,103.71 429.5,84.5 Z"/></g>
<g><path style="opacity:1" fill="#fefefe" d="M 94.5,115.5 C 143.5,115.5 192.5,115.5 241.5,115.5C 241.5,133.833 241.5,152.167 241.5,170.5C 192.997,170.168 144.664,170.501 96.5,171.5C 95.6862,169.369 95.1862,167.036 95,164.5C 94.5001,148.17 94.3334,131.837 94.5,115.5 Z"/></g>
<g><path style="opacity:1" fill="#eae8e9" d="M 94.5,115.5 C 175.665,114.501 256.998,114.167 338.5,114.5C 355.167,114.5 371.833,114.5 388.5,114.5C 388.805,131.547 388.472,148.547 387.5,165.5C 387.795,167.735 387.461,169.735 386.5,171.5C 338.336,170.501 290.003,170.168 241.5,170.5C 241.5,152.167 241.5,133.833 241.5,115.5C 192.5,115.5 143.5,115.5 94.5,115.5 Z"/></g>
<g><path style="opacity:1" fill="#a4e47a" d="M 241.5,170.5 C 241.5,213.5 241.5,256.5 241.5,299.5C 238.833,299.5 236.167,299.5 233.5,299.5C 228.43,299.315 223.43,298.648 218.5,297.5C 209.294,293.896 200.628,289.229 192.5,283.5C 184.428,277.764 177.762,270.764 172.5,262.5C 166.033,252.097 162.366,240.764 161.5,228.5C 148.433,226.924 136.433,222.59 125.5,215.5C 110.828,204.161 101.161,189.494 96.5,171.5C 144.664,170.501 192.997,170.168 241.5,170.5 Z"/></g>
<g><path style="opacity:1" fill="#6bc879" d="M 241.5,170.5 C 290.003,170.168 338.336,170.501 386.5,171.5C 377.051,204.114 355.551,223.114 322,228.5C 316.312,262.679 297.146,285.346 264.5,296.5C 257.052,298.872 249.386,299.872 241.5,299.5C 241.5,256.5 241.5,213.5 241.5,170.5 Z"/></g>
<g><path style="opacity:1" fill="#b9257e" d="M 125.5,215.5 C 136.433,222.59 148.433,226.924 161.5,228.5C 162.366,240.764 166.033,252.097 172.5,262.5C 156.452,247.119 140.785,231.452 125.5,215.5 Z"/></g>
<g><path style="opacity:1" fill="#bc257f" d="M 192.5,283.5 C 200.628,289.229 209.294,293.896 218.5,297.5C 218.5,301.833 218.5,306.167 218.5,310.5C 209.111,302.113 200.445,293.113 192.5,283.5 Z"/></g>
<g><path style="opacity:1" fill="#eae8e8" d="M 218.5,297.5 C 223.43,298.648 228.43,299.315 233.5,299.5C 235.948,300.473 238.615,300.806 241.5,300.5C 241.5,340.167 241.5,379.833 241.5,419.5C 233.833,419.5 226.167,419.5 218.5,419.5C 218.5,383.167 218.5,346.833 218.5,310.5C 218.5,306.167 218.5,301.833 218.5,297.5 Z"/></g>
<g><path style="opacity:1" fill="#d5d3d4" d="M 264.5,296.5 C 264.5,337.5 264.5,378.5 264.5,419.5C 256.833,419.5 249.167,419.5 241.5,419.5C 241.5,379.833 241.5,340.167 241.5,300.5C 238.615,300.806 235.948,300.473 233.5,299.5C 236.167,299.5 238.833,299.5 241.5,299.5C 249.386,299.872 257.052,298.872 264.5,296.5 Z"/></g>
<g><path style="opacity:1" fill="#fefefe" d="M 218.5,419.5 C 226.167,419.5 233.833,419.5 241.5,419.5C 241.5,435.5 241.5,451.5 241.5,467.5C 217.833,467.5 194.167,467.5 170.5,467.5C 170.5,465.833 170.5,464.167 170.5,462.5C 175.847,436.148 191.847,421.815 218.5,419.5 Z"/></g>
<g><path style="opacity:1" fill="#e9e9e9" d="M 241.5,419.5 C 249.167,419.5 256.833,419.5 264.5,419.5C 293.465,422.465 309.465,438.465 312.5,467.5C 288.833,467.5 265.167,467.5 241.5,467.5C 241.5,451.5 241.5,435.5 241.5,419.5 Z"/></g>
<g><path style="opacity:1" fill="#e3b7d2" d="M 170.5,462.5 C 170.5,464.167 170.5,465.833 170.5,467.5C 194.167,467.5 217.833,467.5 241.5,467.5C 265.167,467.5 288.833,467.5 312.5,467.5C 265.336,468.499 218.003,468.832 170.5,468.5C 169.167,466.5 169.167,464.5 170.5,462.5 Z"/></g>
</svg>
