<?xml version="1.0" encoding="UTF-8"?>
<!DOCTYPE svg PUBLIC "-//W3C//DTD SVG 1.1//EN" "http://www.w3.org/Graphics/SVG/1.1/DTD/svg11.dtd">
<svg xmlns="http://www.w3.org/2000/svg" version="1.1" width="512px" height="512px" style="shape-rendering:geometricPrecision; text-rendering:geometricPrecision; image-rendering:optimizeQuality; fill-rule:evenodd; clip-rule:evenodd" xmlns:xlink="http://www.w3.org/1999/xlink">
<g><path style="opacity:0.998" fill="#5664e0" d="M 232.5,-0.5 C 247.833,-0.5 263.167,-0.5 278.5,-0.5C 368.144,10.3879 435.644,54.7213 481,132.5C 497.695,163.971 507.861,197.304 511.5,232.5C 511.5,247.833 511.5,263.167 511.5,278.5C 509.436,297.477 505.436,316.144 499.5,334.5C 464.201,299.701 429.035,264.701 394,229.5C 393.601,229.728 393.435,230.062 393.5,230.5C 390.451,226.645 386.451,224.978 381.5,225.5C 380.947,213.779 374.78,207.446 363,206.5C 359.929,206.784 357.095,207.784 354.5,209.5C 350.425,200.758 344.092,194.425 335.5,190.5C 307.04,160.534 277.706,130.7 247.5,101C 246.906,100.536 246.239,100.369 245.5,100.5C 240.755,92.9564 233.755,89.2897 224.5,89.5C 219.035,79.2577 210.702,74.9243 199.5,76.5C 182.85,82.1374 177.85,93.1374 184.5,109.5C 182.167,109.5 179.833,109.5 177.5,109.5C 177.5,113.833 177.5,118.167 177.5,122.5C 178.919,123.451 180.585,123.784 182.5,123.5C 182.5,127.833 182.5,132.167 182.5,136.5C 180.94,163.811 179.774,191.145 179,218.5C 164.737,233.024 155.737,250.357 152,270.5C 151.168,317.335 151.335,364.002 152.5,410.5C 185.833,444.167 219.167,477.833 252.5,511.5C 245.833,511.5 239.167,511.5 232.5,511.5C 142.856,500.612 75.3562,456.279 30,378.5C 13.3053,347.029 3.1386,313.696 -0.5,278.5C -0.5,263.167 -0.5,247.833 -0.5,232.5C 10.3875,142.857 54.7208,75.3573 132.5,30C 163.971,13.3053 197.304,3.1386 232.5,-0.5 Z"/></g>
<g><path style="opacity:1" fill="#fdfdfe" d="M 199.5,76.5 C 200.833,76.5 202.167,76.5 203.5,76.5C 203.5,87.5 203.5,98.5 203.5,109.5C 197.167,109.5 190.833,109.5 184.5,109.5C 177.85,93.1374 182.85,82.1374 199.5,76.5 Z"/></g>
<g><path style="opacity:1" fill="#e5e6ed" d="M 199.5,76.5 C 210.702,74.9243 219.035,79.2577 224.5,89.5C 233.755,89.2897 240.755,92.9564 245.5,100.5C 247.599,109.62 244.765,116.62 237,121.5C 236.667,133.167 236.333,144.833 236,156.5C 234.108,161.553 230.942,165.553 226.5,168.5C 216.098,170.633 208.765,166.966 204.5,157.5C 203.523,146.248 203.189,134.914 203.5,123.5C 203.5,118.833 203.5,114.167 203.5,109.5C 203.5,98.5 203.5,87.5 203.5,76.5C 202.167,76.5 200.833,76.5 199.5,76.5 Z"/></g>
<g><path style="opacity:1" fill="#3748da" d="M 245.5,100.5 C 246.239,100.369 246.906,100.536 247.5,101C 277.706,130.7 307.04,160.534 335.5,190.5C 330.355,189.309 325.355,189.309 320.5,190.5C 310.705,193.624 303.705,199.957 299.5,209.5C 289.264,204.191 280.764,206.191 274,215.5C 271.994,218.536 271.16,221.869 271.5,225.5C 258.782,227.937 255.449,234.937 261.5,246.5C 264.36,249.899 268.026,251.566 272.5,251.5C 272.818,258.346 273.485,265.013 274.5,271.5C 279.583,311.161 284.583,350.828 289.5,390.5C 290.386,397.126 291.052,403.792 291.5,410.5C 303.5,410.5 315.5,410.5 327.5,410.5C 339.167,410.5 350.833,410.5 362.5,410.5C 362.948,403.792 363.614,397.126 364.5,390.5C 369.697,350.866 374.697,311.2 379.5,271.5C 380.515,265.013 381.182,258.346 381.5,251.5C 393.959,249.368 397.959,242.368 393.5,230.5C 393.435,230.062 393.601,229.728 394,229.5C 429.035,264.701 464.201,299.701 499.5,334.5C 474.356,407.814 426.356,460.314 355.5,492C 330.621,502.136 304.954,508.636 278.5,511.5C 269.833,511.5 261.167,511.5 252.5,511.5C 219.167,477.833 185.833,444.167 152.5,410.5C 169.833,410.5 187.167,410.5 204.5,410.5C 221.5,410.5 238.5,410.5 255.5,410.5C 255.667,362.832 255.5,315.166 255,267.5C 253.079,257.989 249.746,248.989 245,240.5C 239.667,233.167 234.333,225.833 229,218.5C 228.076,201.834 227.242,185.167 226.5,168.5C 230.942,165.553 234.108,161.553 236,156.5C 236.333,144.833 236.667,133.167 237,121.5C 244.765,116.62 247.599,109.62 245.5,100.5 Z"/></g>
<g><path style="opacity:1" fill="#77db5b" d="M 184.5,109.5 C 190.833,109.5 197.167,109.5 203.5,109.5C 203.5,114.167 203.5,118.833 203.5,123.5C 196.833,123.5 190.167,123.5 183.5,123.5C 181.735,122.539 179.735,122.205 177.5,122.5C 177.5,118.167 177.5,113.833 177.5,109.5C 179.833,109.5 182.167,109.5 184.5,109.5 Z"/></g>
<g><path style="opacity:1" fill="#97e381" d="M 183.5,123.5 C 190.167,123.5 196.833,123.5 203.5,123.5C 203.189,134.914 203.523,146.248 204.5,157.5C 203.502,191.329 203.168,225.329 203.5,259.5C 199.654,259.545 195.987,260.378 192.5,262C 179.317,271.863 171.983,285.029 170.5,301.5C 165.456,301.173 160.456,301.506 155.5,302.5C 155.624,303.107 155.957,303.44 156.5,303.5C 159.288,308.242 161.955,313.075 164.5,318C 161.516,322.99 158.516,327.99 155.5,333C 160.155,333.499 164.821,333.666 169.5,333.5C 171.518,349.71 178.851,362.876 191.5,373C 195.187,375.285 199.187,376.452 203.5,376.5C 203.232,387.871 203.566,399.205 204.5,410.5C 187.167,410.5 169.833,410.5 152.5,410.5C 151.335,364.002 151.168,317.335 152,270.5C 155.737,250.357 164.737,233.024 179,218.5C 179.774,191.145 180.94,163.811 182.5,136.5C 183.485,132.366 183.818,128.032 183.5,123.5 Z"/></g>
<g><path style="opacity:1" fill="#7aafa0" d="M 177.5,122.5 C 179.735,122.205 181.735,122.539 183.5,123.5C 183.818,128.032 183.485,132.366 182.5,136.5C 182.5,132.167 182.5,127.833 182.5,123.5C 180.585,123.784 178.919,123.451 177.5,122.5 Z"/></g>
<g><path style="opacity:1" fill="#77db5a" d="M 204.5,157.5 C 208.765,166.966 216.098,170.633 226.5,168.5C 227.242,185.167 228.076,201.834 229,218.5C 234.333,225.833 239.667,233.167 245,240.5C 249.746,248.989 253.079,257.989 255,267.5C 255.5,315.166 255.667,362.832 255.5,410.5C 238.5,410.5 221.5,410.5 204.5,410.5C 203.566,399.205 203.232,387.871 203.5,376.5C 212.983,375.673 220.483,371.34 226,363.5C 232.089,354.405 235.922,344.405 237.5,333.5C 242.214,333.827 246.88,333.493 251.5,332.5C 248.876,327.415 245.876,322.582 242.5,318C 245.638,312.888 248.638,307.721 251.5,302.5C 247.03,301.514 242.363,301.181 237.5,301.5C 235.568,285.796 228.568,272.963 216.5,263C 212.46,260.74 208.127,259.573 203.5,259.5C 203.168,225.329 203.502,191.329 204.5,157.5 Z"/></g>
<g><path style="opacity:1" fill="#fdfdfe" d="M 320.5,190.5 C 322.833,190.5 325.167,190.5 327.5,190.5C 327.5,213.833 327.5,237.167 327.5,260.5C 327.5,263.833 327.5,267.167 327.5,270.5C 327.54,273.881 327.207,277.214 326.5,280.5C 323.176,284.825 318.843,286.325 313.5,285C 311.21,283.223 309.543,281.056 308.5,278.5C 308.5,274.167 308.5,269.833 308.5,265.5C 299.869,266.863 293.869,263.53 290.5,255.5C 287.711,257.298 284.711,257.798 281.5,257C 278.387,255.122 275.387,253.288 272.5,251.5C 268.026,251.566 264.36,249.899 261.5,246.5C 255.449,234.937 258.782,227.937 271.5,225.5C 271.16,221.869 271.994,218.536 274,215.5C 280.764,206.191 289.264,204.191 299.5,209.5C 303.705,199.957 310.705,193.624 320.5,190.5 Z"/></g>
<g><path style="opacity:1" fill="#e6e6ed" d="M 320.5,190.5 C 325.355,189.309 330.355,189.309 335.5,190.5C 344.092,194.425 350.425,200.758 354.5,209.5C 357.095,207.784 359.929,206.784 363,206.5C 374.78,207.446 380.947,213.779 381.5,225.5C 386.451,224.978 390.451,226.645 393.5,230.5C 397.959,242.368 393.959,249.368 381.5,251.5C 369.149,251.168 356.815,251.501 344.5,252.5C 340.932,259.785 335.265,262.452 327.5,260.5C 327.5,237.167 327.5,213.833 327.5,190.5C 325.167,190.5 322.833,190.5 320.5,190.5 Z"/></g>
<g><path style="opacity:1" fill="#f9efc1" d="M 272.5,251.5 C 275.387,253.288 278.387,255.122 281.5,257C 284.711,257.798 287.711,257.298 290.5,255.5C 293.869,263.53 299.869,266.863 308.5,265.5C 308.5,269.833 308.5,274.167 308.5,278.5C 307.527,276.052 307.194,273.385 307.5,270.5C 296.321,270.172 285.321,270.505 274.5,271.5C 273.485,265.013 272.818,258.346 272.5,251.5 Z"/></g>
<g><path style="opacity:1" fill="#fde06f" d="M 381.5,251.5 C 381.182,258.346 380.515,265.013 379.5,271.5C 362.341,270.503 345.008,270.17 327.5,270.5C 327.5,267.167 327.5,263.833 327.5,260.5C 335.265,262.452 340.932,259.785 344.5,252.5C 356.815,251.501 369.149,251.168 381.5,251.5 Z"/></g>
<g><path style="opacity:1" fill="#fddf6d" d="M 203.5,259.5 C 203.5,264.833 203.5,270.167 203.5,275.5C 201.801,275.34 200.134,275.506 198.5,276C 188.995,282.345 183.328,291.178 181.5,302.5C 172.983,302.174 164.65,302.507 156.5,303.5C 155.957,303.44 155.624,303.107 155.5,302.5C 160.456,301.506 165.456,301.173 170.5,301.5C 171.983,285.029 179.317,271.863 192.5,262C 195.987,260.378 199.654,259.545 203.5,259.5 Z"/></g>
<g><path style="opacity:1" fill="#fdd328" d="M 203.5,259.5 C 208.127,259.573 212.46,260.74 216.5,263C 228.568,272.963 235.568,285.796 237.5,301.5C 233.445,301.824 229.445,301.491 225.5,300.5C 223.121,290.89 218.121,283.057 210.5,277C 208.323,275.798 205.989,275.298 203.5,275.5C 203.5,270.167 203.5,264.833 203.5,259.5 Z"/></g>
<g><path style="opacity:1" fill="#fed329" d="M 308.5,278.5 C 309.543,281.056 311.21,283.223 313.5,285C 318.843,286.325 323.176,284.825 326.5,280.5C 326.5,317.167 326.5,353.833 326.5,390.5C 314.167,390.5 301.833,390.5 289.5,390.5C 284.583,350.828 279.583,311.161 274.5,271.5C 285.321,270.505 296.321,270.172 307.5,270.5C 307.194,273.385 307.527,276.052 308.5,278.5 Z"/></g>
<g><path style="opacity:1" fill="#fea21e" d="M 327.5,270.5 C 345.008,270.17 362.341,270.503 379.5,271.5C 374.697,311.2 369.697,350.866 364.5,390.5C 351.833,390.5 339.167,390.5 326.5,390.5C 326.5,353.833 326.5,317.167 326.5,280.5C 327.207,277.214 327.54,273.881 327.5,270.5 Z"/></g>
<g><path style="opacity:1" fill="#ffd328" d="M 203.5,275.5 C 203.5,303.833 203.5,332.167 203.5,360.5C 198.027,359.512 193.527,356.846 190,352.5C 186.1,346.631 183.267,340.298 181.5,333.5C 180.292,323.15 180.292,312.817 181.5,302.5C 183.328,291.178 188.995,282.345 198.5,276C 200.134,275.506 201.801,275.34 203.5,275.5 Z"/></g>
<g><path style="opacity:1" fill="#fea21d" d="M 203.5,275.5 C 205.989,275.298 208.323,275.798 210.5,277C 218.121,283.057 223.121,290.89 225.5,300.5C 229.445,301.491 233.445,301.824 237.5,301.5C 242.363,301.181 247.03,301.514 251.5,302.5C 242.827,302.334 234.16,302.5 225.5,303C 226.775,313.124 226.775,323.291 225.5,333.5C 223.814,343.373 219.147,351.539 211.5,358C 208.978,359.341 206.311,360.174 203.5,360.5C 203.5,332.167 203.5,303.833 203.5,275.5 Z"/></g>
<g><path style="opacity:1" fill="#fe7d37" d="M 181.5,302.5 C 180.292,312.817 180.292,323.15 181.5,333.5C 177.5,333.5 173.5,333.5 169.5,333.5C 164.821,333.666 160.155,333.499 155.5,333C 158.516,327.99 161.516,322.99 164.5,318C 161.955,313.075 159.288,308.242 156.5,303.5C 164.65,302.507 172.983,302.174 181.5,302.5 Z"/></g>
<g><path style="opacity:1" fill="#fe6711" d="M 251.5,302.5 C 248.638,307.721 245.638,312.888 242.5,318C 245.876,322.582 248.876,327.415 251.5,332.5C 246.88,333.493 242.214,333.827 237.5,333.5C 233.5,333.5 229.5,333.5 225.5,333.5C 226.775,323.291 226.775,313.124 225.5,303C 234.16,302.5 242.827,302.334 251.5,302.5 Z"/></g>
<g><path style="opacity:1" fill="#fde16e" d="M 169.5,333.5 C 173.5,333.5 177.5,333.5 181.5,333.5C 183.267,340.298 186.1,346.631 190,352.5C 193.527,356.846 198.027,359.512 203.5,360.5C 203.5,365.833 203.5,371.167 203.5,376.5C 199.187,376.452 195.187,375.285 191.5,373C 178.851,362.876 171.518,349.71 169.5,333.5 Z"/></g>
<g><path style="opacity:1" fill="#fed328" d="M 225.5,333.5 C 229.5,333.5 233.5,333.5 237.5,333.5C 235.922,344.405 232.089,354.405 226,363.5C 220.483,371.34 212.983,375.673 203.5,376.5C 203.5,371.167 203.5,365.833 203.5,360.5C 206.311,360.174 208.978,359.341 211.5,358C 219.147,351.539 223.814,343.373 225.5,333.5 Z"/></g>
<g><path style="opacity:1" fill="#faf1c3" d="M 289.5,390.5 C 301.833,390.5 314.167,390.5 326.5,390.5C 326.207,397.255 326.54,403.922 327.5,410.5C 315.5,410.5 303.5,410.5 291.5,410.5C 291.052,403.792 290.386,397.126 289.5,390.5 Z"/></g>
<g><path style="opacity:1" fill="#fee170" d="M 326.5,390.5 C 339.167,390.5 351.833,390.5 364.5,390.5C 363.614,397.126 362.948,403.792 362.5,410.5C 350.833,410.5 339.167,410.5 327.5,410.5C 326.54,403.922 326.207,397.255 326.5,390.5 Z"/></g>
</svg>
