<?xml version="1.0" encoding="UTF-8"?>
<!DOCTYPE svg PUBLIC "-//W3C//DTD SVG 1.1//EN" "http://www.w3.org/Graphics/SVG/1.1/DTD/svg11.dtd">
<svg xmlns="http://www.w3.org/2000/svg" version="1.1" width="512px" height="512px" style="shape-rendering:geometricPrecision; text-rendering:geometricPrecision; image-rendering:optimizeQuality; fill-rule:evenodd; clip-rule:evenodd" xmlns:xlink="http://www.w3.org/1999/xlink">
<g><path style="opacity:0.996" fill="#00b4fe" d="M 232.5,-0.5 C 247.833,-0.5 263.167,-0.5 278.5,-0.5C 368.144,10.3879 435.644,54.7213 481,132.5C 497.695,163.971 507.861,197.304 511.5,232.5C 511.5,247.833 511.5,263.167 511.5,278.5C 510.693,282.021 510.026,285.688 509.5,289.5C 446.833,227.167 384.167,164.833 321.5,102.5C 299.716,101.177 277.716,100.511 255.5,100.5C 233.49,100.5 211.823,101.167 190.5,102.5C 179.66,122.179 169.327,142.179 159.5,162.5C 148.624,182.178 145.457,203.178 150,225.5C 155.191,249.148 167.358,268.148 186.5,282.5C 198.787,296.301 211.954,309.967 226,323.5C 226.5,316.174 226.666,308.841 226.5,301.5C 226.833,301.5 227.167,301.5 227.5,301.5C 227.667,322.503 227.5,343.503 227,364.5C 210.637,379.366 194.47,394.366 178.5,409.5C 177.833,409.5 177.5,409.833 177.5,410.5C 210.549,444.55 244.216,477.883 278.5,510.5C 278.5,510.833 278.5,511.167 278.5,511.5C 263.167,511.5 247.833,511.5 232.5,511.5C 142.856,500.612 75.3562,456.279 30,378.5C 13.3053,347.029 3.1386,313.696 -0.5,278.5C -0.5,263.167 -0.5,247.833 -0.5,232.5C 10.3875,142.857 54.7208,75.3573 132.5,30C 163.971,13.3053 197.304,3.1386 232.5,-0.5 Z"/></g>
<g><path style="opacity:1" fill="#d8e2ec" d="M 255.5,162.5 C 223.5,162.5 191.5,162.5 159.5,162.5C 169.327,142.179 179.66,122.179 190.5,102.5C 212.091,101.512 233.758,101.178 255.5,101.5C 255.5,121.833 255.5,142.167 255.5,162.5 Z"/></g>
<g><path style="opacity:1" fill="#cad3e2" d="M 321.5,102.5 C 331.31,122.787 341.643,142.787 352.5,162.5C 320.167,162.5 287.833,162.5 255.5,162.5C 255.5,142.167 255.5,121.833 255.5,101.5C 233.758,101.178 212.091,101.512 190.5,102.5C 211.823,101.167 233.49,100.5 255.5,100.5C 277.716,100.511 299.716,101.177 321.5,102.5 Z"/></g>
<g><path style="opacity:1" fill="#0199fb" d="M 321.5,102.5 C 384.167,164.833 446.833,227.167 509.5,289.5C 497.361,368.988 457.695,430.488 390.5,474C 356.101,495.077 318.768,507.244 278.5,510.5C 244.216,477.883 210.549,444.55 177.5,410.5C 229.834,410.667 282.168,410.5 334.5,410C 317.368,395.203 300.535,380.037 284,364.5C 283.5,343.503 283.333,322.503 283.5,301.5C 284.167,301.5 284.5,301.167 284.5,300.5C 342.543,283.733 368.043,245.4 361,185.5C 358.716,177.604 355.882,169.938 352.5,162.5C 341.643,142.787 331.31,122.787 321.5,102.5 Z"/></g>
<g><path style="opacity:1" fill="#fe8901" d="M 159.5,162.5 C 191.5,162.5 223.5,162.5 255.5,162.5C 255.5,208.5 255.5,254.5 255.5,300.5C 265.167,300.5 274.833,300.5 284.5,300.5C 284.5,301.167 284.167,301.5 283.5,301.5C 274.167,301.5 264.833,301.5 255.5,301.5C 246.167,301.5 236.833,301.5 227.5,301.5C 227.167,301.5 226.833,301.5 226.5,301.5C 218.471,297.538 210.137,294.038 201.5,291C 196.473,288.155 191.473,285.321 186.5,282.5C 167.358,268.148 155.191,249.148 150,225.5C 145.457,203.178 148.624,182.178 159.5,162.5 Z"/></g>
<g><path style="opacity:1" fill="#fe6900" d="M 255.5,162.5 C 287.833,162.5 320.167,162.5 352.5,162.5C 355.882,169.938 358.716,177.604 361,185.5C 368.043,245.4 342.543,283.733 284.5,300.5C 274.833,300.5 265.167,300.5 255.5,300.5C 255.5,254.5 255.5,208.5 255.5,162.5 Z"/></g>
<g><path style="opacity:1" fill="#ff6900" d="M 220.5,222.5 C 226.5,222.5 232.5,222.5 238.5,222.5C 238.5,228.5 238.5,234.5 238.5,240.5C 232.5,240.5 226.5,240.5 220.5,240.5C 220.5,234.5 220.5,228.5 220.5,222.5 Z"/></g>
<g><path style="opacity:1" fill="#ff6a00" d="M 187.5,225.5 C 193.833,225.5 200.167,225.5 206.5,225.5C 206.5,231.5 206.5,237.5 206.5,243.5C 200.167,243.5 193.833,243.5 187.5,243.5C 187.5,237.5 187.5,231.5 187.5,225.5 Z"/></g>
<g><path style="opacity:1" fill="#ff6900" d="M 206.5,253.5 C 212.5,253.5 218.5,253.5 224.5,253.5C 224.5,259.5 224.5,265.5 224.5,271.5C 218.5,271.5 212.5,271.5 206.5,271.5C 206.5,265.5 206.5,259.5 206.5,253.5 Z"/></g>
<g><path style="opacity:1" fill="#1099f9" d="M 186.5,282.5 C 191.473,285.321 196.473,288.155 201.5,291C 210.137,294.038 218.471,297.538 226.5,301.5C 226.666,308.841 226.5,316.174 226,323.5C 211.954,309.967 198.787,296.301 186.5,282.5 Z"/></g>
<g><path style="opacity:1" fill="#d8e2ed" d="M 227.5,301.5 C 236.833,301.5 246.167,301.5 255.5,301.5C 255.5,337.5 255.5,373.5 255.5,409.5C 229.833,409.5 204.167,409.5 178.5,409.5C 194.47,394.366 210.637,379.366 227,364.5C 227.5,343.503 227.667,322.503 227.5,301.5 Z"/></g>
<g><path style="opacity:1" fill="#c9d4e4" d="M 255.5,301.5 C 264.833,301.5 274.167,301.5 283.5,301.5C 283.333,322.503 283.5,343.503 284,364.5C 300.535,380.037 317.368,395.203 334.5,410C 282.168,410.5 229.834,410.667 177.5,410.5C 177.5,409.833 177.833,409.5 178.5,409.5C 204.167,409.5 229.833,409.5 255.5,409.5C 255.5,373.5 255.5,337.5 255.5,301.5 Z"/></g>
</svg>
