<?xml version="1.0" encoding="UTF-8"?>
<!DOCTYPE svg PUBLIC "-//W3C//DTD SVG 1.1//EN" "http://www.w3.org/Graphics/SVG/1.1/DTD/svg11.dtd">
<svg xmlns="http://www.w3.org/2000/svg" version="1.1" width="512px" height="512px" style="shape-rendering:geometricPrecision; text-rendering:geometricPrecision; image-rendering:optimizeQuality; fill-rule:evenodd; clip-rule:evenodd" xmlns:xlink="http://www.w3.org/1999/xlink">
<g><path style="opacity:0.997" fill="#8e4dd4" d="M 232.5,-0.5 C 247.833,-0.5 263.167,-0.5 278.5,-0.5C 368.144,10.3879 435.644,54.7213 481,132.5C 497.695,163.971 507.861,197.304 511.5,232.5C 511.5,243.5 511.5,254.5 511.5,265.5C 452.806,207.473 394.473,149.14 336.5,90.5C 333.036,87.5375 329.703,84.3709 326.5,81C 325.517,80.4092 324.85,80.7425 324.5,82C 313.729,109.484 303.062,136.984 292.5,164.5C 280.167,164.5 267.833,164.5 255.5,164.5C 248.167,164.5 240.833,164.5 233.5,164.5C 227.472,158.14 221.472,151.807 215.5,145.5C 191.935,126.126 167.269,124.626 141.5,141C 117.206,162.932 112.706,188.432 128,217.5C 130.335,220.665 132.835,223.665 135.5,226.5C 144.833,236.5 154.5,246.167 164.5,255.5C 173.305,305.236 181.305,355.236 188.5,405.5C 222.299,439.799 256.299,473.965 290.5,508C 292.134,508.494 293.801,508.66 295.5,508.5C 289.844,509.573 284.177,510.573 278.5,511.5C 263.167,511.5 247.833,511.5 232.5,511.5C 142.856,500.612 75.3562,456.279 30,378.5C 13.3053,347.029 3.1386,313.696 -0.5,278.5C -0.5,263.167 -0.5,247.833 -0.5,232.5C 10.3875,142.857 54.7208,75.3573 132.5,30C 163.971,13.3053 197.304,3.1386 232.5,-0.5 Z"/></g>
<g><path style="opacity:1" fill="#ed5ba4" d="M 336.5,90.5 C 327.729,115.376 318.396,140.043 308.5,164.5C 303.167,164.5 297.833,164.5 292.5,164.5C 303.062,136.984 313.729,109.484 324.5,82C 324.85,80.7425 325.517,80.4092 326.5,81C 329.703,84.3709 333.036,87.5375 336.5,90.5 Z"/></g>
<g><path style="opacity:1" fill="#613393" d="M 336.5,90.5 C 394.473,149.14 452.806,207.473 511.5,265.5C 511.5,269.833 511.5,274.167 511.5,278.5C 500.612,368.144 456.279,435.644 378.5,481C 352.447,495.073 324.78,504.24 295.5,508.5C 293.801,508.66 292.134,508.494 290.5,508C 256.299,473.965 222.299,439.799 188.5,405.5C 210.833,405.5 233.167,405.5 255.5,405.5C 277.833,405.5 300.167,405.5 322.5,405.5C 334.963,325.187 347.296,244.853 359.5,164.5C 342.5,164.5 325.5,164.5 308.5,164.5C 318.396,140.043 327.729,115.376 336.5,90.5 Z"/></g>
<g><path style="opacity:1" fill="#50bd74" d="M 215.5,145.5 C 212.23,150.44 208.23,154.773 203.5,158.5C 200.625,154.719 196.958,151.886 192.5,150C 165.715,141.811 147.215,150.645 137,176.5C 133.875,191.183 137.375,203.85 147.5,214.5C 143.833,218.833 139.833,222.833 135.5,226.5C 132.835,223.665 130.335,220.665 128,217.5C 112.706,188.432 117.206,162.932 141.5,141C 167.269,124.626 191.935,126.126 215.5,145.5 Z"/></g>
<g><path style="opacity:1" fill="#77db5a" d="M 203.5,158.5 C 201.833,160.5 200.167,162.5 198.5,164.5C 184.5,177.833 170.833,191.5 157.5,205.5C 154.167,208.5 150.833,211.5 147.5,214.5C 137.375,203.85 133.875,191.183 137,176.5C 147.215,150.645 165.715,141.811 192.5,150C 196.958,151.886 200.625,154.719 203.5,158.5 Z"/></g>
<g><path style="opacity:1" fill="#613393" d="M 215.5,145.5 C 221.472,151.807 227.472,158.14 233.5,164.5C 221.833,164.5 210.167,164.5 198.5,164.5C 200.167,162.5 201.833,160.5 203.5,158.5C 208.23,154.773 212.23,150.44 215.5,145.5 Z"/></g>
<g><path style="opacity:1" fill="#fdfefd" d="M 198.5,164.5 C 210.167,164.5 221.833,164.5 233.5,164.5C 240.833,164.5 248.167,164.5 255.5,164.5C 255.5,177.5 255.5,190.5 255.5,203.5C 227.833,203.5 200.167,203.5 172.5,203.5C 181.268,258.773 189.601,314.106 197.5,369.5C 206.833,369.5 216.167,369.5 225.5,369.5C 226.5,369.5 227.5,369.5 228.5,369.5C 237.5,369.5 246.5,369.5 255.5,369.5C 274.5,369.5 293.5,369.5 312.5,369.5C 293.674,370.497 274.674,370.83 255.5,370.5C 255.5,382.167 255.5,393.833 255.5,405.5C 233.167,405.5 210.833,405.5 188.5,405.5C 181.305,355.236 173.305,305.236 164.5,255.5C 162.426,238.798 160.093,222.131 157.5,205.5C 170.833,191.5 184.5,177.833 198.5,164.5 Z"/></g>
<g><path style="opacity:1" fill="#d5e8f7" d="M 255.5,164.5 C 267.833,164.5 280.167,164.5 292.5,164.5C 287.225,177.385 282.225,190.385 277.5,203.5C 277.167,203.5 276.833,203.5 276.5,203.5C 269.5,203.5 262.5,203.5 255.5,203.5C 255.5,190.5 255.5,177.5 255.5,164.5 Z"/></g>
<g><path style="opacity:1" fill="#c52455" d="M 292.5,164.5 C 297.833,164.5 303.167,164.5 308.5,164.5C 303.305,177.417 298.305,190.417 293.5,203.5C 293.5,204.167 293.167,204.5 292.5,204.5C 287.695,203.513 282.695,203.179 277.5,203.5C 282.225,190.385 287.225,177.385 292.5,164.5 Z"/></g>
<g><path style="opacity:1" fill="#d5e8f6" d="M 308.5,164.5 C 325.5,164.5 342.5,164.5 359.5,164.5C 347.296,244.853 334.963,325.187 322.5,405.5C 300.167,405.5 277.833,405.5 255.5,405.5C 255.5,393.833 255.5,382.167 255.5,370.5C 274.674,370.83 293.674,370.497 312.5,369.5C 321.523,314.357 330.19,259.023 338.5,203.5C 323.5,203.5 308.5,203.5 293.5,203.5C 298.305,190.417 303.305,177.417 308.5,164.5 Z"/></g>
<g><path style="opacity:1" fill="#b5e34f" d="M 255.5,203.5 C 255.5,205.833 255.5,208.167 255.5,210.5C 247.167,218.5 238.833,226.5 230.5,234.5C 230.5,233.5 230.5,232.5 230.5,231.5C 219.833,231.5 209.167,231.5 198.5,231.5C 194.167,231.5 189.833,231.5 185.5,231.5C 187.261,256.255 200.261,270.922 224.5,275.5C 226.265,276.461 228.265,276.795 230.5,276.5C 230.5,269.5 230.5,262.5 230.5,255.5C 236.833,261.5 243.167,267.5 249.5,273.5C 245.5,284.167 241.5,294.833 237.5,305.5C 228.681,294.259 217.014,288.592 202.5,288.5C 202.18,303.085 207.846,314.585 219.5,323C 222.327,324.664 225.327,325.83 228.5,326.5C 224.131,338.912 219.464,351.245 214.5,363.5C 217.98,365.879 221.647,367.879 225.5,369.5C 216.167,369.5 206.833,369.5 197.5,369.5C 189.601,314.106 181.268,258.773 172.5,203.5C 200.167,203.5 227.833,203.5 255.5,203.5 Z"/></g>
<g><path style="opacity:1" fill="#7ada5f" d="M 255.5,203.5 C 262.5,203.5 269.5,203.5 276.5,203.5C 274.174,210.156 271.84,216.823 269.5,223.5C 264.833,219.167 260.167,214.833 255.5,210.5C 255.5,208.167 255.5,205.833 255.5,203.5 Z"/></g>
<g><path style="opacity:1" fill="#c1196a" d="M 276.5,203.5 C 276.833,203.5 277.167,203.5 277.5,203.5C 282.695,203.179 287.695,203.513 292.5,204.5C 288.833,214.5 285.167,224.5 281.5,234.5C 277.129,244.601 273.129,254.934 269.5,265.5C 264.62,276.824 259.953,288.157 255.5,299.5C 255.829,286.656 255.495,273.989 254.5,261.5C 254.833,260.167 255.167,258.833 255.5,257.5C 260.129,246.23 264.796,234.897 269.5,223.5C 271.84,216.823 274.174,210.156 276.5,203.5 Z"/></g>
<g><path style="opacity:1" fill="#77db5b" d="M 293.5,203.5 C 308.5,203.5 323.5,203.5 338.5,203.5C 330.19,259.023 321.523,314.357 312.5,369.5C 293.5,369.5 274.5,369.5 255.5,369.5C 255.5,346.833 255.5,324.167 255.5,301.5C 255.5,300.833 255.5,300.167 255.5,299.5C 259.953,288.157 264.62,276.824 269.5,265.5C 276.632,258.869 283.632,252.036 290.5,245C 286.893,241.902 283.893,238.402 281.5,234.5C 285.167,224.5 288.833,214.5 292.5,204.5C 293.167,204.5 293.5,204.167 293.5,203.5 Z"/></g>
<g><path style="opacity:1" fill="#643795" d="M 157.5,205.5 C 160.093,222.131 162.426,238.798 164.5,255.5C 154.5,246.167 144.833,236.5 135.5,226.5C 139.833,222.833 143.833,218.833 147.5,214.5C 150.833,211.5 154.167,208.5 157.5,205.5 Z"/></g>
<g><path style="opacity:1" fill="#b2d5f1" d="M 255.5,210.5 C 260.167,214.833 264.833,219.167 269.5,223.5C 264.796,234.897 260.129,246.23 255.5,257.5C 255.5,241.833 255.5,226.167 255.5,210.5 Z"/></g>
<g><path style="opacity:1" fill="#d5e8f6" d="M 255.5,210.5 C 255.5,226.167 255.5,241.833 255.5,257.5C 255.167,258.833 254.833,260.167 254.5,261.5C 252.833,265.5 251.167,269.5 249.5,273.5C 243.167,267.5 236.833,261.5 230.5,255.5C 227.371,251.869 224.037,248.369 220.5,245C 224.037,241.631 227.371,238.131 230.5,234.5C 238.833,226.5 247.167,218.5 255.5,210.5 Z"/></g>
<g><path style="opacity:1" fill="#07ab5d" d="M 292.5,218.5 C 312.188,219.521 322.521,229.855 323.5,249.5C 303.5,248.833 293.167,238.5 292.5,218.5 Z"/></g>
<g><path style="opacity:1" fill="#50bf73" d="M 198.5,231.5 C 200.719,250.052 211.052,260.718 229.5,263.5C 229.5,267.5 229.5,271.5 229.5,275.5C 227.833,275.5 226.167,275.5 224.5,275.5C 200.261,270.922 187.261,256.255 185.5,231.5C 189.833,231.5 194.167,231.5 198.5,231.5 Z"/></g>
<g><path style="opacity:1" fill="#77db5b" d="M 198.5,231.5 C 209.167,231.5 219.833,231.5 230.5,231.5C 230.5,232.5 230.5,233.5 230.5,234.5C 227.371,238.131 224.037,241.631 220.5,245C 224.037,248.369 227.371,251.869 230.5,255.5C 230.5,262.5 230.5,269.5 230.5,276.5C 228.265,276.795 226.265,276.461 224.5,275.5C 226.167,275.5 227.833,275.5 229.5,275.5C 229.5,271.5 229.5,267.5 229.5,263.5C 211.052,260.718 200.719,250.052 198.5,231.5 Z"/></g>
<g><path style="opacity:1" fill="#b1d3ed" d="M 281.5,234.5 C 283.893,238.402 286.893,241.902 290.5,245C 283.632,252.036 276.632,258.869 269.5,265.5C 273.129,254.934 277.129,244.601 281.5,234.5 Z"/></g>
<g><path style="opacity:1" fill="#b1d7f0" d="M 291.5,260.5 C 292.552,260.351 293.552,260.517 294.5,261C 303.014,269.348 311.348,277.848 319.5,286.5C 310.833,295.833 301.833,304.833 292.5,313.5C 283.348,304.848 274.348,296.014 265.5,287C 274.369,278.298 283.036,269.465 291.5,260.5 Z"/></g>
<g><path style="opacity:1" fill="#e82481" d="M 254.5,261.5 C 255.495,273.989 255.829,286.656 255.5,299.5C 255.5,300.167 255.5,300.833 255.5,301.5C 246.128,323.937 237.128,346.604 228.5,369.5C 227.5,369.5 226.5,369.5 225.5,369.5C 221.647,367.879 217.98,365.879 214.5,363.5C 219.464,351.245 224.131,338.912 228.5,326.5C 231.677,319.654 234.677,312.654 237.5,305.5C 241.5,294.833 245.5,284.167 249.5,273.5C 251.167,269.5 252.833,265.5 254.5,261.5 Z"/></g>
<g><path style="opacity:1" fill="#51bf73" d="M 237.5,305.5 C 234.677,312.654 231.677,319.654 228.5,326.5C 225.327,325.83 222.327,324.664 219.5,323C 207.846,314.585 202.18,303.085 202.5,288.5C 217.014,288.592 228.681,294.259 237.5,305.5 Z"/></g>
<g><path style="opacity:1" fill="#b5e24e" d="M 255.5,301.5 C 255.5,324.167 255.5,346.833 255.5,369.5C 246.5,369.5 237.5,369.5 228.5,369.5C 237.128,346.604 246.128,323.937 255.5,301.5 Z"/></g>
<g><path style="opacity:1" fill="#04aa5e" d="M 307.5,356.5 C 303.167,356.5 298.833,356.5 294.5,356.5C 292.677,337.677 282.344,327.677 263.5,326.5C 263.5,321.833 263.5,317.167 263.5,312.5C 290.557,314.89 305.223,329.556 307.5,356.5 Z"/></g>
<g><path style="opacity:1" fill="#4fbf73" d="M 263.5,326.5 C 282.344,327.677 292.677,337.677 294.5,356.5C 298.833,356.5 303.167,356.5 307.5,356.5C 293.01,357.496 278.343,357.829 263.5,357.5C 263.5,347.167 263.5,336.833 263.5,326.5 Z"/></g>
</svg>
