<?xml version="1.0" encoding="UTF-8"?>
<!DOCTYPE svg PUBLIC "-//W3C//DTD SVG 1.1//EN" "http://www.w3.org/Graphics/SVG/1.1/DTD/svg11.dtd">
<svg xmlns="http://www.w3.org/2000/svg" version="1.1" width="512px" height="512px" style="shape-rendering:geometricPrecision; text-rendering:geometricPrecision; image-rendering:optimizeQuality; fill-rule:evenodd; clip-rule:evenodd" xmlns:xlink="http://www.w3.org/1999/xlink">
<g><path style="opacity:0.998" fill="#7883ed" d="M 232.5,-0.5 C 247.833,-0.5 263.167,-0.5 278.5,-0.5C 368.144,10.3879 435.644,54.7213 481,132.5C 497.695,163.971 507.861,197.304 511.5,232.5C 511.5,243.5 511.5,254.5 511.5,265.5C 464.167,218.5 416.833,171.5 369.5,124.5C 369.5,123.833 369.167,123.5 368.5,123.5C 342.498,123.333 316.498,123.5 290.5,124C 286.596,138.732 282.263,153.232 277.5,167.5C 259.868,150.368 242.368,133.035 225,115.5C 224.601,115.728 224.435,116.062 224.5,116.5C 223.685,115.571 222.852,114.571 222,113.5C 220.155,118.524 218.655,123.524 217.5,128.5C 217.649,127.448 217.483,126.448 217,125.5C 210.251,118.582 203.417,111.915 196.5,105.5C 194.507,103.533 192.507,101.533 190.5,99.5C 189.016,106.069 188.349,112.736 188.5,119.5C 188.772,128.547 189.272,137.547 190,146.5C 184.333,139.5 178,133.167 171,127.5C 171.39,138.904 172.723,150.237 175,161.5C 177.938,171.48 180.771,181.48 183.5,191.5C 181.58,194.339 179.913,197.339 178.5,200.5C 174.992,206.182 171.992,212.182 169.5,218.5C 161.089,236.884 156.756,256.217 156.5,276.5C 156.173,286.015 156.506,295.348 157.5,304.5C 159.492,324.153 164.159,343.153 171.5,361.5C 173.894,367.287 176.56,372.954 179.5,378.5C 181.25,382.335 183.25,386.001 185.5,389.5C 185.5,390.167 185.833,390.5 186.5,390.5C 224.632,429.132 262.965,467.632 301.5,506C 303.134,506.494 304.801,506.66 306.5,506.5C 297.247,508.656 287.914,510.323 278.5,511.5C 263.167,511.5 247.833,511.5 232.5,511.5C 142.856,500.612 75.3562,456.279 30,378.5C 13.3053,347.029 3.1386,313.696 -0.5,278.5C -0.5,263.167 -0.5,247.833 -0.5,232.5C 10.3875,142.857 54.7208,75.3573 132.5,30C 163.971,13.3053 197.304,3.1386 232.5,-0.5 Z"/></g>
<g><path style="opacity:1" fill="#4fbe75" d="M 196.5,105.5 C 203.749,116.321 210.249,127.655 216,139.5C 216.42,135.809 216.92,132.142 217.5,128.5C 218.655,123.524 220.155,118.524 222,113.5C 222.852,114.571 223.685,115.571 224.5,116.5C 236.471,139.718 243.138,164.385 244.5,190.5C 243.833,190.5 243.167,190.5 242.5,190.5C 222.757,190.179 203.091,190.513 183.5,191.5C 180.771,181.48 177.938,171.48 175,161.5C 172.723,150.237 171.39,138.904 171,127.5C 178,133.167 184.333,139.5 190,146.5C 189.272,137.547 188.772,128.547 188.5,119.5C 188.349,112.736 189.016,106.069 190.5,99.5C 192.507,101.533 194.507,103.533 196.5,105.5 Z"/></g>
<g><path style="opacity:1" fill="#4756c7" d="M 196.5,105.5 C 203.417,111.915 210.251,118.582 217,125.5C 217.483,126.448 217.649,127.448 217.5,128.5C 216.92,132.142 216.42,135.809 216,139.5C 210.249,127.655 203.749,116.321 196.5,105.5 Z"/></g>
<g><path style="opacity:1" fill="#4652c9" d="M 277.5,167.5 C 275.679,175.12 274.012,182.786 272.5,190.5C 271.167,190.5 269.833,190.5 268.5,190.5C 264.167,190.5 259.833,190.5 255.5,190.5C 251.833,190.5 248.167,190.5 244.5,190.5C 243.138,164.385 236.471,139.718 224.5,116.5C 224.435,116.062 224.601,115.728 225,115.5C 242.368,133.035 259.868,150.368 277.5,167.5 Z"/></g>
<g><path style="opacity:1" fill="#e91d82" d="M 368.5,123.5 C 368.5,128.5 368.5,133.5 368.5,138.5C 346.327,138.169 324.327,138.503 302.5,139.5C 297.076,156.188 292.409,173.188 288.5,190.5C 283.167,190.5 277.833,190.5 272.5,190.5C 274.012,182.786 275.679,175.12 277.5,167.5C 282.263,153.232 286.596,138.732 290.5,124C 316.498,123.5 342.498,123.333 368.5,123.5 Z"/></g>
<g><path style="opacity:1" fill="#4652ca" d="M 369.5,124.5 C 416.833,171.5 464.167,218.5 511.5,265.5C 511.5,269.833 511.5,274.167 511.5,278.5C 501.195,364.976 459.195,431.142 385.5,477C 360.843,491.329 334.51,501.162 306.5,506.5C 304.801,506.66 303.134,506.494 301.5,506C 262.965,467.632 224.632,429.132 186.5,390.5C 209.5,390.5 232.5,390.5 255.5,390.5C 259.833,390.5 264.167,390.5 268.5,390.5C 287.845,390.833 307.178,390.5 326.5,389.5C 328.453,385.931 330.119,382.264 331.5,378.5C 334.923,373.253 337.589,367.587 339.5,361.5C 346.831,343.506 351.498,324.839 353.5,305.5C 354.369,303.283 354.702,300.95 354.5,298.5C 357.438,270.456 353.105,243.456 341.5,217.5C 339.263,211.355 336.263,205.688 332.5,200.5C 331.092,197.242 329.426,194.076 327.5,191C 314.504,190.5 301.504,190.333 288.5,190.5C 292.409,173.188 297.076,156.188 302.5,139.5C 324.833,139.5 347.167,139.5 369.5,139.5C 369.5,134.5 369.5,129.5 369.5,124.5 Z"/></g>
<g><path style="opacity:1" fill="#af2f9b" d="M 368.5,123.5 C 369.167,123.5 369.5,123.833 369.5,124.5C 369.5,129.5 369.5,134.5 369.5,139.5C 347.167,139.5 324.833,139.5 302.5,139.5C 324.327,138.503 346.327,138.169 368.5,138.5C 368.5,133.5 368.5,128.5 368.5,123.5 Z"/></g>
<g><path style="opacity:1" fill="#fed328" d="M 255.5,190.5 C 259.833,190.5 264.167,190.5 268.5,190.5C 280.479,203.146 292.812,215.479 305.5,227.5C 314.854,218.812 323.854,209.812 332.5,200.5C 336.263,205.688 339.263,211.355 341.5,217.5C 333.521,224.812 325.854,232.479 318.5,240.5C 330.152,252.653 341.986,264.653 354,276.5C 354.5,283.826 354.666,291.159 354.5,298.5C 354.702,300.95 354.369,303.283 353.5,305.5C 341.521,316.812 329.854,328.479 318.5,340.5C 325.188,347.854 332.188,354.854 339.5,361.5C 337.589,367.587 334.923,373.253 331.5,378.5C 322.854,370.188 314.187,361.855 305.5,353.5C 292.812,365.521 280.479,377.854 268.5,390.5C 264.167,390.5 259.833,390.5 255.5,390.5C 255.5,386.167 255.5,381.833 255.5,377.5C 268.146,365.521 280.479,353.188 292.5,340.5C 280.479,327.812 268.146,315.479 255.5,303.5C 255.5,294.833 255.5,286.167 255.5,277.5C 268.146,265.521 280.479,253.188 292.5,240.5C 280.479,227.812 268.146,215.479 255.5,203.5C 255.5,199.167 255.5,194.833 255.5,190.5 Z"/></g>
<g><path style="opacity:1" fill="#fdd328" d="M 242.5,190.5 C 230.521,203.146 218.188,215.479 205.5,227.5C 196.146,218.812 187.146,209.812 178.5,200.5C 179.913,197.339 181.58,194.339 183.5,191.5C 203.091,190.513 222.757,190.179 242.5,190.5 Z"/></g>
<g><path style="opacity:1" fill="#fee16e" d="M 242.5,190.5 C 243.167,190.5 243.833,190.5 244.5,190.5C 248.167,190.5 251.833,190.5 255.5,190.5C 255.5,194.833 255.5,199.167 255.5,203.5C 242.854,215.479 230.521,227.812 218.5,240.5C 230.521,253.188 242.854,265.521 255.5,277.5C 255.5,286.167 255.5,294.833 255.5,303.5C 242.854,315.479 230.521,327.812 218.5,340.5C 230.521,353.188 242.854,365.521 255.5,377.5C 255.5,381.833 255.5,386.167 255.5,390.5C 232.5,390.5 209.5,390.5 186.5,390.5C 185.833,390.5 185.5,390.167 185.5,389.5C 204.503,389.667 223.503,389.5 242.5,389C 230.626,376.791 218.459,364.958 206,353.5C 197.007,361.659 188.174,369.993 179.5,378.5C 176.56,372.954 173.894,367.287 171.5,361.5C 179.008,354.826 186.008,347.659 192.5,340C 181.34,327.673 169.673,315.84 157.5,304.5C 156.506,295.348 156.173,286.015 156.5,276.5C 168.812,264.854 180.812,252.854 192.5,240.5C 185.425,232.422 177.758,225.089 169.5,218.5C 171.992,212.182 174.992,206.182 178.5,200.5C 187.146,209.812 196.146,218.812 205.5,227.5C 218.188,215.479 230.521,203.146 242.5,190.5 Z"/></g>
<g><path style="opacity:1" fill="#fdad39" d="M 268.5,190.5 C 269.833,190.5 271.167,190.5 272.5,190.5C 277.833,190.5 283.167,190.5 288.5,190.5C 301.504,190.333 314.504,190.5 327.5,191C 329.426,194.076 331.092,197.242 332.5,200.5C 323.854,209.812 314.854,218.812 305.5,227.5C 292.812,215.479 280.479,203.146 268.5,190.5 Z"/></g>
<g><path style="opacity:1" fill="#ffd428" d="M 255.5,203.5 C 255.5,228.167 255.5,252.833 255.5,277.5C 242.854,265.521 230.521,253.188 218.5,240.5C 230.521,227.812 242.854,215.479 255.5,203.5 Z"/></g>
<g><path style="opacity:1" fill="#ffae37" d="M 255.5,203.5 C 268.146,215.479 280.479,227.812 292.5,240.5C 280.479,253.188 268.146,265.521 255.5,277.5C 255.5,252.833 255.5,228.167 255.5,203.5 Z"/></g>
<g><path style="opacity:1" fill="#fdd32b" d="M 169.5,218.5 C 177.758,225.089 185.425,232.422 192.5,240.5C 180.812,252.854 168.812,264.854 156.5,276.5C 156.756,256.217 161.089,236.884 169.5,218.5 Z"/></g>
<g><path style="opacity:1" fill="#fbad3b" d="M 341.5,217.5 C 353.105,243.456 357.438,270.456 354.5,298.5C 354.666,291.159 354.5,283.826 354,276.5C 341.986,264.653 330.152,252.653 318.5,240.5C 325.854,232.479 333.521,224.812 341.5,217.5 Z"/></g>
<g><path style="opacity:1" fill="#ffd428" d="M 204.5,253.5 C 217.761,265.092 230.427,277.426 242.5,290.5C 230.5,303.167 218.167,315.5 205.5,327.5C 192.833,315.5 180.5,303.167 168.5,290.5C 180.521,278.146 192.521,265.813 204.5,253.5 Z"/></g>
<g><path style="opacity:1" fill="#ffae37" d="M 304.5,253.5 C 317.761,265.092 330.427,277.426 342.5,290.5C 330.5,303.167 318.167,315.5 305.5,327.5C 292.833,315.5 280.5,303.167 268.5,290.5C 280.521,278.146 292.521,265.813 304.5,253.5 Z"/></g>
<g><path style="opacity:1" fill="#ffd428" d="M 255.5,303.5 C 255.5,328.167 255.5,352.833 255.5,377.5C 242.854,365.521 230.521,353.188 218.5,340.5C 230.521,327.812 242.854,315.479 255.5,303.5 Z"/></g>
<g><path style="opacity:1" fill="#fed32c" d="M 157.5,304.5 C 169.673,315.84 181.34,327.673 192.5,340C 186.008,347.659 179.008,354.826 171.5,361.5C 164.159,343.153 159.492,324.153 157.5,304.5 Z"/></g>
<g><path style="opacity:1" fill="#feae37" d="M 255.5,303.5 C 268.146,315.479 280.479,327.812 292.5,340.5C 280.479,353.188 268.146,365.521 255.5,377.5C 255.5,352.833 255.5,328.167 255.5,303.5 Z"/></g>
<g><path style="opacity:1" fill="#fdad39" d="M 353.5,305.5 C 351.498,324.839 346.831,343.506 339.5,361.5C 332.188,354.854 325.188,347.854 318.5,340.5C 329.854,328.479 341.521,316.812 353.5,305.5 Z"/></g>
<g><path style="opacity:1" fill="#fed429" d="M 185.5,389.5 C 183.25,386.001 181.25,382.335 179.5,378.5C 188.174,369.993 197.007,361.659 206,353.5C 218.459,364.958 230.626,376.791 242.5,389C 223.503,389.5 204.503,389.667 185.5,389.5 Z"/></g>
<g><path style="opacity:1" fill="#fcac3a" d="M 331.5,378.5 C 330.119,382.264 328.453,385.931 326.5,389.5C 307.178,390.5 287.845,390.833 268.5,390.5C 280.479,377.854 292.812,365.521 305.5,353.5C 314.187,361.855 322.854,370.188 331.5,378.5 Z"/></g>
</svg>
