<?xml version="1.0" encoding="UTF-8"?>
<!DOCTYPE svg PUBLIC "-//W3C//DTD SVG 1.1//EN" "http://www.w3.org/Graphics/SVG/1.1/DTD/svg11.dtd">
<svg xmlns="http://www.w3.org/2000/svg" version="1.1" width="512px" height="512px" style="shape-rendering:geometricPrecision; text-rendering:geometricPrecision; image-rendering:optimizeQuality; fill-rule:evenodd; clip-rule:evenodd" xmlns:xlink="http://www.w3.org/1999/xlink">
<g><path style="opacity:0.997" fill="#a3d3fe" d="M 232.5,-0.5 C 247.833,-0.5 263.167,-0.5 278.5,-0.5C 368.144,10.3879 435.644,54.7213 481,132.5C 497.601,163.135 507.434,195.801 510.5,230.5C 461.833,182.167 413.167,133.833 364.5,85.5C 328.239,84.5069 291.906,84.1735 255.5,84.5C 219.498,84.3333 183.498,84.5 147.5,85C 136.294,116.658 128.627,149.158 124.5,182.5C 114.809,239.446 132.475,285.779 177.5,321.5C 194.494,340.167 212.494,358.5 231.5,376.5C 231.5,390.5 231.5,404.5 231.5,418.5C 213.833,418.5 196.167,418.5 178.5,418.5C 178.172,429.679 178.505,440.679 179.5,451.5C 198.465,470.965 217.632,490.299 237,509.5C 237.464,510.094 237.631,510.761 237.5,511.5C 235.833,511.5 234.167,511.5 232.5,511.5C 142.856,500.612 75.3562,456.279 30,378.5C 13.3053,347.029 3.1386,313.696 -0.5,278.5C -0.5,263.167 -0.5,247.833 -0.5,232.5C 10.3875,142.857 54.7208,75.3573 132.5,30C 163.971,13.3053 197.304,3.1386 232.5,-0.5 Z"/></g>
<g><path style="opacity:1" fill="#fefeff" d="M 255.5,84.5 C 255.5,117.167 255.5,149.833 255.5,182.5C 211.833,182.5 168.167,182.5 124.5,182.5C 128.627,149.158 136.294,116.658 147.5,85C 183.498,84.5 219.498,84.3333 255.5,84.5 Z"/></g>
<g><path style="opacity:1" fill="#e8ecf5" d="M 255.5,84.5 C 291.906,84.1735 328.239,84.5069 364.5,85.5C 374.526,117.269 382.192,149.602 387.5,182.5C 343.5,182.5 299.5,182.5 255.5,182.5C 255.5,149.833 255.5,117.167 255.5,84.5 Z"/></g>
<g><path style="opacity:1" fill="#65b1fb" d="M 364.5,85.5 C 413.167,133.833 461.833,182.167 510.5,230.5C 510.328,231.492 510.662,232.158 511.5,232.5C 511.5,247.833 511.5,263.167 511.5,278.5C 500.612,368.144 456.279,435.644 378.5,481C 347.029,497.695 313.696,507.861 278.5,511.5C 264.833,511.5 251.167,511.5 237.5,511.5C 237.631,510.761 237.464,510.094 237,509.5C 217.632,490.299 198.465,470.965 179.5,451.5C 204.833,451.5 230.167,451.5 255.5,451.5C 281.167,451.5 306.833,451.5 332.5,451.5C 332.5,440.5 332.5,429.5 332.5,418.5C 314.833,418.5 297.167,418.5 279.5,418.5C 279.5,393.833 279.5,369.167 279.5,344.5C 333.693,332.479 368.86,299.812 385,246.5C 389.913,225.327 390.746,203.993 387.5,182.5C 382.192,149.602 374.526,117.269 364.5,85.5 Z"/></g>
<g><path style="opacity:1" fill="#fe6c52" d="M 124.5,182.5 C 168.167,182.5 211.833,182.5 255.5,182.5C 255.5,236.833 255.5,291.167 255.5,345.5C 259.5,345.5 263.5,345.5 267.5,345.5C 263.702,346.483 259.702,346.817 255.5,346.5C 247.436,346.486 239.436,345.819 231.5,344.5C 212.16,340.168 194.16,332.502 177.5,321.5C 132.475,285.779 114.809,239.446 124.5,182.5 Z"/></g>
<g><path style="opacity:1" fill="#fe432e" d="M 255.5,182.5 C 299.5,182.5 343.5,182.5 387.5,182.5C 390.746,203.993 389.913,225.327 385,246.5C 368.86,299.812 333.693,332.479 279.5,344.5C 275.5,344.833 271.5,345.167 267.5,345.5C 263.5,345.5 259.5,345.5 255.5,345.5C 255.5,291.167 255.5,236.833 255.5,182.5 Z"/></g>
<g><path style="opacity:1" fill="#69b0f9" d="M 177.5,321.5 C 194.16,332.502 212.16,340.168 231.5,344.5C 231.5,355.167 231.5,365.833 231.5,376.5C 212.494,358.5 194.494,340.167 177.5,321.5 Z"/></g>
<g><path style="opacity:1" fill="#fefefe" d="M 231.5,344.5 C 239.436,345.819 247.436,346.486 255.5,346.5C 255.5,381.5 255.5,416.5 255.5,451.5C 230.167,451.5 204.833,451.5 179.5,451.5C 178.505,440.679 178.172,429.679 178.5,418.5C 196.167,418.5 213.833,418.5 231.5,418.5C 231.5,404.5 231.5,390.5 231.5,376.5C 231.5,365.833 231.5,355.167 231.5,344.5 Z"/></g>
<g><path style="opacity:1" fill="#e9ecf4" d="M 279.5,344.5 C 279.5,369.167 279.5,393.833 279.5,418.5C 297.167,418.5 314.833,418.5 332.5,418.5C 332.5,429.5 332.5,440.5 332.5,451.5C 306.833,451.5 281.167,451.5 255.5,451.5C 255.5,416.5 255.5,381.5 255.5,346.5C 259.702,346.817 263.702,346.483 267.5,345.5C 271.5,345.167 275.5,344.833 279.5,344.5 Z"/></g>
</svg>
