<?xml version="1.0" encoding="UTF-8"?>
<!DOCTYPE svg PUBLIC "-//W3C//DTD SVG 1.1//EN" "http://www.w3.org/Graphics/SVG/1.1/DTD/svg11.dtd">
<svg xmlns="http://www.w3.org/2000/svg" version="1.1" width="512px" height="512px" style="shape-rendering:geometricPrecision; text-rendering:geometricPrecision; image-rendering:optimizeQuality; fill-rule:evenodd; clip-rule:evenodd" xmlns:xlink="http://www.w3.org/1999/xlink">
<g><path style="opacity:0.996" fill="#ef5ca4" d="M 232.5,-0.5 C 247.833,-0.5 263.167,-0.5 278.5,-0.5C 368.144,10.3879 435.644,54.7213 481,132.5C 497.695,163.971 507.861,197.304 511.5,232.5C 511.5,247.833 511.5,263.167 511.5,278.5C 511.167,278.5 510.833,278.5 510.5,278.5C 463.167,231.5 415.833,184.5 368.5,137.5C 293.335,136.501 218.002,136.167 142.5,136.5C 142.216,138.415 142.549,140.081 143.5,141.5C 155.681,201.405 167.348,261.405 178.5,321.5C 178.17,339.674 178.503,357.674 179.5,375.5C 222.833,419.167 266.167,462.833 309.5,506.5C 299.076,508.423 288.743,510.09 278.5,511.5C 263.167,511.5 247.833,511.5 232.5,511.5C 142.856,500.612 75.3562,456.279 30,378.5C 13.3053,347.029 3.1386,313.696 -0.5,278.5C -0.5,263.167 -0.5,247.833 -0.5,232.5C 10.3875,142.857 54.7208,75.3573 132.5,30C 163.971,13.3053 197.304,3.1386 232.5,-0.5 Z"/></g>
<g><path style="opacity:1" fill="#ea97c6" d="M 368.5,137.5 C 368.672,138.492 368.338,139.158 367.5,139.5C 330.515,137.506 293.182,136.84 255.5,137.5C 218.167,137.5 180.833,137.5 143.5,137.5C 143.5,138.833 143.5,140.167 143.5,141.5C 142.549,140.081 142.216,138.415 142.5,136.5C 218.002,136.167 293.335,136.501 368.5,137.5 Z"/></g>
<g><path style="opacity:1" fill="#fefefe" d="M 255.5,137.5 C 255.5,166.833 255.5,196.167 255.5,225.5C 255.167,225.5 254.833,225.5 254.5,225.5C 243.827,213.993 232.66,202.993 221,192.5C 209.34,202.993 198.173,213.993 187.5,225.5C 183.629,225.185 179.962,225.518 176.5,226.5C 182.629,258.478 188.629,290.478 194.5,322.5C 189.5,322.5 184.5,322.5 179.5,322.5C 179.5,321.833 179.167,321.5 178.5,321.5C 167.348,261.405 155.681,201.405 143.5,141.5C 143.5,140.167 143.5,138.833 143.5,137.5C 180.833,137.5 218.167,137.5 255.5,137.5 Z"/></g>
<g><path style="opacity:1" fill="#d5e8f7" d="M 255.5,137.5 C 293.182,136.84 330.515,137.506 367.5,139.5C 355.576,200.119 343.91,260.785 332.5,321.5C 331.833,321.5 331.5,321.833 331.5,322.5C 326.5,322.5 321.5,322.5 316.5,322.5C 316.5,322.167 316.5,321.833 316.5,321.5C 322.629,289.522 328.629,257.522 334.5,225.5C 330.833,225.5 327.167,225.5 323.5,225.5C 312.521,213.854 301.188,202.521 289.5,191.5C 278.479,202.854 267.479,214.187 256.5,225.5C 256.167,225.5 255.833,225.5 255.5,225.5C 255.5,196.167 255.5,166.833 255.5,137.5 Z"/></g>
<g><path style="opacity:1" fill="#ea1d82" d="M 368.5,137.5 C 415.833,184.5 463.167,231.5 510.5,278.5C 501.07,365.238 459.403,431.405 385.5,477C 361.666,490.667 336.333,500.501 309.5,506.5C 266.167,462.833 222.833,419.167 179.5,375.5C 204.833,375.5 230.167,375.5 255.5,375.5C 281.167,375.5 306.833,375.5 332.5,375.5C 332.5,357.5 332.5,339.5 332.5,321.5C 343.91,260.785 355.576,200.119 367.5,139.5C 368.338,139.158 368.672,138.492 368.5,137.5 Z"/></g>
<g><path style="opacity:1" fill="#d6e9f8" d="M 254.5,225.5 C 232.167,225.5 209.833,225.5 187.5,225.5C 198.173,213.993 209.34,202.993 221,192.5C 232.66,202.993 243.827,213.993 254.5,225.5 Z"/></g>
<g><path style="opacity:1" fill="#b2d7f3" d="M 323.5,225.5 C 301.167,225.5 278.833,225.5 256.5,225.5C 267.479,214.187 278.479,202.854 289.5,191.5C 301.188,202.521 312.521,213.854 323.5,225.5 Z"/></g>
<g><path style="opacity:1" fill="#ac7247" d="M 176.5,226.5 C 180.514,226.334 184.514,226.501 188.5,227C 199.347,238.014 210.347,248.848 221.5,259.5C 232.854,248.479 244.187,237.479 255.5,226.5C 255.5,258.167 255.5,289.833 255.5,321.5C 275.833,321.5 296.167,321.5 316.5,321.5C 316.5,321.833 316.5,322.167 316.5,322.5C 296.167,322.5 275.833,322.5 255.5,322.5C 235.167,322.5 214.833,322.5 194.5,322.5C 188.629,290.478 182.629,258.478 176.5,226.5 Z"/></g>
<g><path style="opacity:1" fill="#96633c" d="M 176.5,226.5 C 179.962,225.518 183.629,225.185 187.5,225.5C 209.833,225.5 232.167,225.5 254.5,225.5C 254.833,225.5 255.167,225.5 255.5,225.5C 255.5,225.833 255.5,226.167 255.5,226.5C 244.187,237.479 232.854,248.479 221.5,259.5C 210.347,248.848 199.347,238.014 188.5,227C 184.514,226.501 180.514,226.334 176.5,226.5 Z"/></g>
<g><path style="opacity:1" fill="#95623b" d="M 323.5,225.5 C 327.167,225.5 330.833,225.5 334.5,225.5C 328.629,257.522 322.629,289.522 316.5,321.5C 296.167,321.5 275.833,321.5 255.5,321.5C 255.5,289.833 255.5,258.167 255.5,226.5C 266.813,237.479 278.146,248.479 289.5,259.5C 301.188,248.479 312.521,237.146 323.5,225.5 Z"/></g>
<g><path style="opacity:1" fill="#72492b" d="M 255.5,226.5 C 255.5,226.167 255.5,225.833 255.5,225.5C 255.833,225.5 256.167,225.5 256.5,225.5C 278.833,225.5 301.167,225.5 323.5,225.5C 312.521,237.146 301.188,248.479 289.5,259.5C 278.146,248.479 266.813,237.479 255.5,226.5 Z"/></g>
<g><path style="opacity:1" fill="#d5e9f7" d="M 179.5,322.5 C 184.5,322.5 189.5,322.5 194.5,322.5C 214.833,322.5 235.167,322.5 255.5,322.5C 255.5,339.833 255.5,357.167 255.5,374.5C 230.167,374.5 204.833,374.5 179.5,374.5C 179.5,357.167 179.5,339.833 179.5,322.5 Z"/></g>
<g><path style="opacity:1" fill="#b1d7f2" d="M 255.5,322.5 C 275.833,322.5 296.167,322.5 316.5,322.5C 321.5,322.5 326.5,322.5 331.5,322.5C 331.5,339.833 331.5,357.167 331.5,374.5C 306.167,374.5 280.833,374.5 255.5,374.5C 255.5,357.167 255.5,339.833 255.5,322.5 Z"/></g>
<g><path style="opacity:1" fill="#dbb6da" d="M 178.5,321.5 C 179.167,321.5 179.5,321.833 179.5,322.5C 179.5,339.833 179.5,357.167 179.5,374.5C 204.833,374.5 230.167,374.5 255.5,374.5C 255.5,374.833 255.5,375.167 255.5,375.5C 230.167,375.5 204.833,375.5 179.5,375.5C 178.503,357.674 178.17,339.674 178.5,321.5 Z"/></g>
<g><path style="opacity:1" fill="#c1a5d4" d="M 332.5,321.5 C 332.5,339.5 332.5,357.5 332.5,375.5C 306.833,375.5 281.167,375.5 255.5,375.5C 255.5,375.167 255.5,374.833 255.5,374.5C 280.833,374.5 306.167,374.5 331.5,374.5C 331.5,357.167 331.5,339.833 331.5,322.5C 331.5,321.833 331.833,321.5 332.5,321.5 Z"/></g>
</svg>
