<?xml version="1.0" encoding="UTF-8"?>
<!DOCTYPE svg PUBLIC "-//W3C//DTD SVG 1.1//EN" "http://www.w3.org/Graphics/SVG/1.1/DTD/svg11.dtd">
<svg xmlns="http://www.w3.org/2000/svg" version="1.1" width="512px" height="512px" style="shape-rendering:geometricPrecision; text-rendering:geometricPrecision; image-rendering:optimizeQuality; fill-rule:evenodd; clip-rule:evenodd" xmlns:xlink="http://www.w3.org/1999/xlink">
<g><path style="opacity:0.997" fill="#8e4dd4" d="M 232.5,-0.5 C 247.833,-0.5 263.167,-0.5 278.5,-0.5C 368.144,10.3879 435.644,54.7213 481,132.5C 497.695,163.971 507.861,197.304 511.5,232.5C 511.5,247.833 511.5,263.167 511.5,278.5C 510.412,286.205 509.078,293.871 507.5,301.5C 507.663,299.143 507.497,296.81 507,294.5C 449.632,236.965 392.132,179.632 334.5,122.5C 332.097,122.552 329.764,122.219 327.5,121.5C 319.833,113.167 311.833,105.167 303.5,97.5C 302.788,96.2613 301.788,95.7613 300.5,96C 292.521,101.643 286.355,108.809 282,117.5C 281.023,119.74 280.523,122.073 280.5,124.5C 279.686,126.631 279.186,128.964 279,131.5C 265.632,117.965 252.132,104.631 238.5,91.5C 238.672,90.5084 238.338,89.8417 237.5,89.5C 232.5,89.5 227.5,89.5 222.5,89.5C 222.5,114.833 222.5,140.167 222.5,165.5C 222.5,165.833 222.5,166.167 222.5,166.5C 210.833,166.5 199.167,166.5 187.5,166.5C 187.5,248.167 187.5,329.833 187.5,411.5C 187.5,412.167 187.833,412.5 188.5,412.5C 220.299,444.799 252.299,476.965 284.5,509C 285.448,509.483 286.448,509.649 287.5,509.5C 284.5,510.167 281.5,510.833 278.5,511.5C 263.167,511.5 247.833,511.5 232.5,511.5C 142.856,500.612 75.3562,456.279 30,378.5C 13.3053,347.029 3.1386,313.696 -0.5,278.5C -0.5,263.167 -0.5,247.833 -0.5,232.5C 10.3875,142.857 54.7208,75.3573 132.5,30C 163.971,13.3053 197.304,3.1386 232.5,-0.5 Z"/></g>
<g><path style="opacity:1" fill="#acc469" d="M 237.5,89.5 C 237.5,89.8333 237.5,90.1667 237.5,90.5C 232.833,90.5 228.167,90.5 223.5,90.5C 223.5,115.5 223.5,140.5 223.5,165.5C 223.167,165.5 222.833,165.5 222.5,165.5C 222.5,140.167 222.5,114.833 222.5,89.5C 227.5,89.5 232.5,89.5 237.5,89.5 Z"/></g>
<g><path style="opacity:1" fill="#b4e34e" d="M 237.5,90.5 C 237.5,115.833 237.5,141.167 237.5,166.5C 232.637,166.819 227.97,166.486 223.5,165.5C 223.5,140.5 223.5,115.5 223.5,90.5C 228.167,90.5 232.833,90.5 237.5,90.5 Z"/></g>
<g><path style="opacity:1" fill="#796193" d="M 237.5,89.5 C 238.338,89.8417 238.672,90.5084 238.5,91.5C 238.5,116.167 238.5,140.833 238.5,165.5C 249.167,165.5 259.833,165.5 270.5,165.5C 270.5,165.833 270.5,166.167 270.5,166.5C 265.5,166.5 260.5,166.5 255.5,166.5C 249.5,166.5 243.5,166.5 237.5,166.5C 237.5,141.167 237.5,115.833 237.5,90.5C 237.5,90.1667 237.5,89.8333 237.5,89.5 Z"/></g>
<g><path style="opacity:1" fill="#613393" d="M 238.5,91.5 C 252.132,104.631 265.632,117.965 279,131.5C 279.186,128.964 279.686,126.631 280.5,124.5C 280.295,130.878 280.628,137.211 281.5,143.5C 275.713,149.74 272.047,157.073 270.5,165.5C 259.833,165.5 249.167,165.5 238.5,165.5C 238.5,140.833 238.5,116.167 238.5,91.5 Z"/></g>
<g><path style="opacity:1" fill="#51bd74" d="M 303.5,97.5 C 306.136,105.937 307.136,114.604 306.5,123.5C 313.367,121.775 320.367,121.108 327.5,121.5C 329.764,122.219 332.097,122.552 334.5,122.5C 333.04,127.418 331.04,132.085 328.5,136.5C 311.288,129.229 295.621,131.563 281.5,143.5C 280.628,137.211 280.295,130.878 280.5,124.5C 280.523,122.073 281.023,119.74 282,117.5C 286.355,108.809 292.521,101.643 300.5,96C 301.788,95.7613 302.788,96.2613 303.5,97.5 Z"/></g>
<g><path style="opacity:1" fill="#613593" d="M 303.5,97.5 C 311.833,105.167 319.833,113.167 327.5,121.5C 320.367,121.108 313.367,121.775 306.5,123.5C 307.136,114.604 306.136,105.937 303.5,97.5 Z"/></g>
<g><path style="opacity:1" fill="#613393" d="M 334.5,122.5 C 392.132,179.632 449.632,236.965 507,294.5C 507.497,296.81 507.663,299.143 507.5,301.5C 490.046,387.921 441.713,450.421 362.5,489C 338.575,499.809 313.575,506.642 287.5,509.5C 286.448,509.649 285.448,509.483 284.5,509C 252.299,476.965 220.299,444.799 188.5,412.5C 233.5,412.5 278.5,412.5 323.5,412.5C 323.5,330.5 323.5,248.5 323.5,166.5C 320.941,166.802 318.607,166.468 316.5,165.5C 321.167,160.5 325.833,155.5 330.5,150.5C 333.146,148.521 335.479,146.188 337.5,143.5C 334.792,140.791 331.792,138.458 328.5,136.5C 331.04,132.085 333.04,127.418 334.5,122.5 Z"/></g>
<g><path style="opacity:1" fill="#fce06f" d="M 328.5,136.5 C 331.792,138.458 334.792,140.791 337.5,143.5C 335.479,146.188 333.146,148.521 330.5,150.5C 321.82,141.914 311.486,139.414 299.5,143C 289.046,147.104 282.713,154.604 280.5,165.5C 277.167,165.5 273.833,165.5 270.5,165.5C 272.047,157.073 275.713,149.74 281.5,143.5C 295.621,131.563 311.288,129.229 328.5,136.5 Z"/></g>
<g><path style="opacity:1" fill="#fed32a" d="M 330.5,150.5 C 325.833,155.5 321.167,160.5 316.5,165.5C 315.833,165.833 315.167,166.167 314.5,166.5C 302.833,166.5 291.167,166.5 279.5,166.5C 278.951,176.514 281.618,185.514 287.5,193.5C 285.854,195.812 283.854,197.812 281.5,199.5C 272.468,190.404 268.801,179.404 270.5,166.5C 270.5,166.167 270.5,165.833 270.5,165.5C 273.833,165.5 277.167,165.5 280.5,165.5C 282.713,154.604 289.046,147.104 299.5,143C 311.486,139.414 321.82,141.914 330.5,150.5 Z"/></g>
<g><path style="opacity:1" fill="#d5e8f7" d="M 222.5,166.5 C 222.5,181.167 222.5,195.833 222.5,210.5C 216.167,210.5 209.833,210.5 203.5,210.5C 203.5,264.167 203.5,317.833 203.5,371.5C 220.833,371.5 238.167,371.5 255.5,371.5C 255.5,384.833 255.5,398.167 255.5,411.5C 232.833,411.5 210.167,411.5 187.5,411.5C 187.5,329.833 187.5,248.167 187.5,166.5C 199.167,166.5 210.833,166.5 222.5,166.5 Z"/></g>
<g><path style="opacity:1" fill="#78dc5c" d="M 222.5,165.5 C 222.833,165.5 223.167,165.5 223.5,165.5C 227.97,166.486 232.637,166.819 237.5,166.5C 237.5,181.167 237.5,195.833 237.5,210.5C 232.5,210.5 227.5,210.5 222.5,210.5C 222.5,195.833 222.5,181.167 222.5,166.5C 222.5,166.167 222.5,165.833 222.5,165.5 Z"/></g>
<g><path style="opacity:1" fill="#d5e8f6" d="M 237.5,166.5 C 243.5,166.5 249.5,166.5 255.5,166.5C 255.5,181.167 255.5,195.833 255.5,210.5C 249.5,210.5 243.5,210.5 237.5,210.5C 237.5,195.833 237.5,181.167 237.5,166.5 Z"/></g>
<g><path style="opacity:1" fill="#b1d5f1" d="M 316.5,165.5 C 318.607,166.468 320.941,166.802 323.5,166.5C 323.5,248.5 323.5,330.5 323.5,412.5C 278.5,412.5 233.5,412.5 188.5,412.5C 187.833,412.5 187.5,412.167 187.5,411.5C 210.167,411.5 232.833,411.5 255.5,411.5C 255.5,398.167 255.5,384.833 255.5,371.5C 272.833,371.5 290.167,371.5 307.5,371.5C 307.5,318.167 307.5,264.833 307.5,211.5C 290.341,210.503 273.008,210.17 255.5,210.5C 255.5,195.833 255.5,181.167 255.5,166.5C 260.5,166.5 265.5,166.5 270.5,166.5C 268.801,179.404 272.468,190.404 281.5,199.5C 283.854,197.812 285.854,195.812 287.5,193.5C 296.833,184.833 305.833,175.833 314.5,166.5C 315.167,166.167 315.833,165.833 316.5,165.5 Z"/></g>
<g><path style="opacity:1" fill="#feae38" d="M 314.5,166.5 C 305.833,175.833 296.833,184.833 287.5,193.5C 281.618,185.514 278.951,176.514 279.5,166.5C 291.167,166.5 302.833,166.5 314.5,166.5 Z"/></g>
<g><path style="opacity:1" fill="#e91d82" d="M 222.5,210.5 C 222.5,258.5 222.5,306.5 222.5,354.5C 227.5,354.5 232.5,354.5 237.5,354.5C 238.496,341.01 238.829,327.344 238.5,313.5C 244.131,318.63 249.631,323.964 255,329.5C 255.833,311.491 255.666,293.491 254.5,275.5C 249.146,280.522 243.813,285.522 238.5,290.5C 238.5,264.167 238.5,237.833 238.5,211.5C 244.167,211.5 249.833,211.5 255.5,211.5C 255.334,217.509 255.501,223.509 256,229.5C 260.711,224.454 265.711,219.787 271,215.5C 280.833,224 290,233.167 298.5,243C 290.028,252.639 281.028,261.805 271.5,270.5C 266.181,265.682 261.015,260.682 256,255.5C 255.333,261.833 255.333,268.167 256,274.5C 265.348,283.681 274.514,293.014 283.5,302.5C 273.817,311.349 264.651,320.682 256,330.5C 255.5,344.163 255.333,357.829 255.5,371.5C 238.167,371.5 220.833,371.5 203.5,371.5C 203.5,317.833 203.5,264.167 203.5,210.5C 209.833,210.5 216.167,210.5 222.5,210.5 Z"/></g>
<g><path style="opacity:1" fill="#51bd74" d="M 222.5,210.5 C 227.5,210.5 232.5,210.5 237.5,210.5C 237.5,258.5 237.5,306.5 237.5,354.5C 232.5,354.5 227.5,354.5 222.5,354.5C 222.5,306.5 222.5,258.5 222.5,210.5 Z"/></g>
<g><path style="opacity:1" fill="#cb4083" d="M 237.5,210.5 C 243.5,210.5 249.5,210.5 255.5,210.5C 273.008,210.17 290.341,210.503 307.5,211.5C 290.167,211.5 272.833,211.5 255.5,211.5C 249.833,211.5 244.167,211.5 238.5,211.5C 238.5,237.833 238.5,264.167 238.5,290.5C 238.5,298.167 238.5,305.833 238.5,313.5C 238.829,327.344 238.496,341.01 237.5,354.5C 237.5,306.5 237.5,258.5 237.5,210.5 Z"/></g>
<g><path style="opacity:1" fill="#c2126a" d="M 255.5,211.5 C 272.833,211.5 290.167,211.5 307.5,211.5C 307.5,264.833 307.5,318.167 307.5,371.5C 290.167,371.5 272.833,371.5 255.5,371.5C 255.333,357.829 255.5,344.163 256,330.5C 264.651,320.682 273.817,311.349 283.5,302.5C 274.514,293.014 265.348,283.681 256,274.5C 255.333,268.167 255.333,261.833 256,255.5C 261.015,260.682 266.181,265.682 271.5,270.5C 281.028,261.805 290.028,252.639 298.5,243C 290,233.167 280.833,224 271,215.5C 265.711,219.787 260.711,224.454 256,229.5C 255.501,223.509 255.334,217.509 255.5,211.5 Z"/></g>
<g><path style="opacity:1" fill="#ee59a2" d="M 254.5,231.5 C 255.656,238.989 255.822,246.655 255,254.5C 250.984,250.652 247.151,246.652 243.5,242.5C 247.521,239.146 251.188,235.479 254.5,231.5 Z"/></g>
<g><path style="opacity:1" fill="#ee5ba3" d="M 238.5,313.5 C 238.5,305.833 238.5,298.167 238.5,290.5C 243.813,285.522 249.146,280.522 254.5,275.5C 255.666,293.491 255.833,311.491 255,329.5C 249.631,323.964 244.131,318.63 238.5,313.5 Z"/></g>
</svg>
