<?xml version="1.0" encoding="UTF-8"?>
<!DOCTYPE svg PUBLIC "-//W3C//DTD SVG 1.1//EN" "http://www.w3.org/Graphics/SVG/1.1/DTD/svg11.dtd">
<svg xmlns="http://www.w3.org/2000/svg" version="1.1" width="512px" height="512px" style="shape-rendering:geometricPrecision; text-rendering:geometricPrecision; image-rendering:optimizeQuality; fill-rule:evenodd; clip-rule:evenodd" xmlns:xlink="http://www.w3.org/1999/xlink">
<g><path style="opacity:0.997" fill="#8e4dd4" d="M 232.5,-0.5 C 247.833,-0.5 263.167,-0.5 278.5,-0.5C 368.144,10.3879 435.644,54.7213 481,132.5C 497.695,163.971 507.861,197.304 511.5,232.5C 511.5,247.833 511.5,263.167 511.5,278.5C 510.234,289.623 508.234,300.623 505.5,311.5C 505.66,309.801 505.494,308.134 505,306.5C 443.965,245.299 382.799,184.299 321.5,123.5C 297.006,122.502 272.339,122.169 247.5,122.5C 243.472,118.141 239.472,113.807 235.5,109.5C 212.904,90.6346 188.238,87.4679 161.5,100C 156.882,102.95 152.548,106.284 148.5,110C 152.702,114.37 157.036,118.537 161.5,122.5C 171.167,132.833 181.167,142.833 191.5,152.5C 191.5,153.167 191.833,153.5 192.5,153.5C 192.333,185.835 192.5,218.168 193,250.5C 195.767,268.723 204.6,283.057 219.5,293.5C 226.778,302.446 234.778,310.779 243.5,318.5C 243.5,344.833 243.5,371.167 243.5,397.5C 226.495,404.168 209.495,410.835 192.5,417.5C 190.973,417.427 189.973,418.094 189.5,419.5C 219.5,449.833 249.5,480.167 279.5,510.5C 278.833,510.5 278.5,510.833 278.5,511.5C 263.167,511.5 247.833,511.5 232.5,511.5C 142.856,500.612 75.3562,456.279 30,378.5C 13.3053,347.029 3.1386,313.696 -0.5,278.5C -0.5,263.167 -0.5,247.833 -0.5,232.5C 10.3875,142.857 54.7208,75.3573 132.5,30C 163.971,13.3053 197.304,3.1386 232.5,-0.5 Z"/></g>
<g><path style="opacity:1" fill="#fead39" d="M 235.5,109.5 C 231.912,113.428 228.245,117.428 224.5,121.5C 223.833,121.833 223.167,122.167 222.5,122.5C 222.167,122.5 221.833,122.5 221.5,122.5C 209.613,111.195 195.613,107.695 179.5,112C 172.854,114.498 166.854,117.998 161.5,122.5C 157.036,118.537 152.702,114.37 148.5,110C 152.548,106.284 156.882,102.95 161.5,100C 188.238,87.4679 212.904,90.6346 235.5,109.5 Z"/></g>
<g><path style="opacity:1" fill="#fee16e" d="M 221.5,122.5 C 211.5,122.5 201.5,122.5 191.5,122.5C 191.5,132.5 191.5,142.5 191.5,152.5C 181.167,142.833 171.167,132.833 161.5,122.5C 166.854,117.998 172.854,114.498 179.5,112C 195.613,107.695 209.613,111.195 221.5,122.5 Z"/></g>
<g><path style="opacity:1" fill="#653591" d="M 235.5,109.5 C 239.472,113.807 243.472,118.141 247.5,122.5C 239.648,122.825 231.982,122.492 224.5,121.5C 228.245,117.428 231.912,113.428 235.5,109.5 Z"/></g>
<g><path style="opacity:1" fill="#b5a0e0" d="M 224.5,121.5 C 231.982,122.492 239.648,122.825 247.5,122.5C 272.339,122.169 297.006,122.502 321.5,123.5C 299.833,123.5 278.167,123.5 256.5,123.5C 245.167,123.5 233.833,123.5 222.5,123.5C 222.5,123.167 222.5,122.833 222.5,122.5C 223.167,122.167 223.833,121.833 224.5,121.5 Z"/></g>
<g><path style="opacity:1" fill="#ffeead" d="M 221.5,122.5 C 221.833,122.5 222.167,122.5 222.5,122.5C 222.5,122.833 222.5,123.167 222.5,123.5C 212.5,123.5 202.5,123.5 192.5,123.5C 192.5,133.5 192.5,143.5 192.5,153.5C 191.833,153.5 191.5,153.167 191.5,152.5C 191.5,142.5 191.5,132.5 191.5,122.5C 201.5,122.5 211.5,122.5 221.5,122.5 Z"/></g>
<g><path style="opacity:1" fill="#fefefd" d="M 222.5,123.5 C 233.833,123.5 245.167,123.5 256.5,123.5C 256.5,134.833 256.5,146.167 256.5,157.5C 239.833,157.5 223.167,157.5 206.5,157.5C 206.333,186.835 206.5,216.169 207,245.5C 213.242,271.575 229.742,285.575 256.5,287.5C 256.5,293.5 256.5,299.5 256.5,305.5C 252.452,305.605 248.452,305.272 244.5,304.5C 244.158,303.662 243.492,303.328 242.5,303.5C 233.977,302.07 226.31,298.737 219.5,293.5C 204.6,283.057 195.767,268.723 193,250.5C 192.5,218.168 192.333,185.835 192.5,153.5C 192.5,143.5 192.5,133.5 192.5,123.5C 202.5,123.5 212.5,123.5 222.5,123.5 Z"/></g>
<g><path style="opacity:1" fill="#d5e8f7" d="M 256.5,123.5 C 278.167,123.5 299.833,123.5 321.5,123.5C 321.968,167.2 321.468,210.867 320,254.5C 312.535,280.799 295.702,297.466 269.5,304.5C 265.176,304.927 260.842,305.261 256.5,305.5C 256.5,299.5 256.5,293.5 256.5,287.5C 284.784,285.285 301.617,270.285 307,242.5C 307.5,214.502 307.667,186.502 307.5,158.5C 290.675,157.503 273.675,157.17 256.5,157.5C 256.5,146.167 256.5,134.833 256.5,123.5 Z"/></g>
<g><path style="opacity:1" fill="#613393" d="M 321.5,123.5 C 382.799,184.299 443.965,245.299 505,306.5C 505.494,308.134 505.66,309.801 505.5,311.5C 484.826,396.01 434.826,456.177 355.5,492C 331.155,502.253 305.822,508.42 279.5,510.5C 249.5,480.167 219.5,449.833 189.5,419.5C 234.501,419.667 279.501,419.5 324.5,419C 323.756,417.961 322.756,417.461 321.5,417.5C 304.409,411.124 287.409,404.457 270.5,397.5C 269.5,366.507 269.167,335.507 269.5,304.5C 295.702,297.466 312.535,280.799 320,254.5C 321.468,210.867 321.968,167.2 321.5,123.5 Z"/></g>
<g><path style="opacity:1" fill="#fee270" d="M 256.5,157.5 C 273.675,157.17 290.675,157.503 307.5,158.5C 290.5,158.5 273.5,158.5 256.5,158.5C 256.5,201.5 256.5,244.5 256.5,287.5C 229.742,285.575 213.242,271.575 207,245.5C 206.5,216.169 206.333,186.835 206.5,157.5C 223.167,157.5 239.833,157.5 256.5,157.5 Z"/></g>
<g><path style="opacity:1" fill="#fed429" d="M 307.5,158.5 C 307.667,186.502 307.5,214.502 307,242.5C 301.617,270.285 284.784,285.285 256.5,287.5C 256.5,244.5 256.5,201.5 256.5,158.5C 273.5,158.5 290.5,158.5 307.5,158.5 Z"/></g>
<g><path style="opacity:1" fill="#633595" d="M 219.5,293.5 C 226.31,298.737 233.977,302.07 242.5,303.5C 243.445,308.405 243.779,313.405 243.5,318.5C 234.778,310.779 226.778,302.446 219.5,293.5 Z"/></g>
<g><path style="opacity:1" fill="#d5e8f7" d="M 244.5,304.5 C 248.452,305.272 252.452,305.605 256.5,305.5C 256.5,343.167 256.5,380.833 256.5,418.5C 234.993,418.831 213.66,418.497 192.5,417.5C 209.495,410.835 226.495,404.168 243.5,397.5C 244.498,366.671 244.831,335.671 244.5,304.5 Z"/></g>
<g><path style="opacity:1" fill="#b2d6f2" d="M 269.5,304.5 C 269.167,335.507 269.5,366.507 270.5,397.5C 287.409,404.457 304.409,411.124 321.5,417.5C 300.006,418.497 278.34,418.831 256.5,418.5C 256.5,380.833 256.5,343.167 256.5,305.5C 260.842,305.261 265.176,304.927 269.5,304.5 Z"/></g>
<g><path style="opacity:1" fill="#b6a9e6" d="M 242.5,303.5 C 243.492,303.328 244.158,303.662 244.5,304.5C 244.831,335.671 244.498,366.671 243.5,397.5C 243.5,371.167 243.5,344.833 243.5,318.5C 243.779,313.405 243.445,308.405 242.5,303.5 Z"/></g>
<g><path style="opacity:1" fill="#8c81c0" d="M 192.5,417.5 C 213.66,418.497 234.993,418.831 256.5,418.5C 278.34,418.831 300.006,418.497 321.5,417.5C 322.756,417.461 323.756,417.961 324.5,419C 279.501,419.5 234.501,419.667 189.5,419.5C 189.973,418.094 190.973,417.427 192.5,417.5 Z"/></g>
</svg>
