<?xml version="1.0" encoding="UTF-8"?>
<!DOCTYPE svg PUBLIC "-//W3C//DTD SVG 1.1//EN" "http://www.w3.org/Graphics/SVG/1.1/DTD/svg11.dtd">
<svg xmlns="http://www.w3.org/2000/svg" version="1.1" width="512px" height="512px" style="shape-rendering:geometricPrecision; text-rendering:geometricPrecision; image-rendering:optimizeQuality; fill-rule:evenodd; clip-rule:evenodd" xmlns:xlink="http://www.w3.org/1999/xlink">
<g><path style="opacity:0.996" fill="#1dd781" d="M 232.5,-0.5 C 247.833,-0.5 263.167,-0.5 278.5,-0.5C 368.144,10.3879 435.644,54.7213 481,132.5C 497.695,163.971 507.861,197.304 511.5,232.5C 511.5,247.833 511.5,263.167 511.5,278.5C 511.167,278.5 510.833,278.5 510.5,278.5C 510.662,276.473 510.495,274.473 510,272.5C 432.965,195.299 355.799,118.299 278.5,41.5C 263.342,40.5038 248.009,40.1705 232.5,40.5C 232.5,62.5 232.5,84.5 232.5,106.5C 233.12,112.926 232.453,118.926 230.5,124.5C 223.765,122.978 217.099,121.145 210.5,119C 200.429,116.789 192.596,119.956 187,128.5C 185.89,135.424 185.39,142.424 185.5,149.5C 185.39,156.576 185.89,163.576 187,170.5C 191.043,177.61 197.21,181.276 205.5,181.5C 200.066,189.038 196.233,197.371 194,206.5C 193.5,288.166 193.333,369.833 193.5,451.5C 213.167,471.5 232.833,491.5 252.5,511.5C 245.833,511.5 239.167,511.5 232.5,511.5C 142.856,500.612 75.3562,456.279 30,378.5C 13.3053,347.029 3.1386,313.696 -0.5,278.5C -0.5,263.167 -0.5,247.833 -0.5,232.5C 10.3875,142.857 54.7208,75.3573 132.5,30C 163.971,13.3053 197.304,3.1386 232.5,-0.5 Z"/></g>
<g><path style="opacity:1" fill="#fdcd01" d="M 278.5,41.5 C 270.833,41.5 263.167,41.5 255.5,41.5C 255.5,63.1667 255.5,84.8333 255.5,106.5C 247.833,106.5 240.167,106.5 232.5,106.5C 232.5,84.5 232.5,62.5 232.5,40.5C 248.009,40.1705 263.342,40.5038 278.5,41.5 Z"/></g>
<g><path style="opacity:1" fill="#fcba11" d="M 278.5,41.5 C 278.5,63.1667 278.5,84.8333 278.5,106.5C 270.833,106.5 263.167,106.5 255.5,106.5C 255.5,84.8333 255.5,63.1667 255.5,41.5C 263.167,41.5 270.833,41.5 278.5,41.5 Z"/></g>
<g><path style="opacity:1" fill="#25b972" d="M 278.5,41.5 C 355.799,118.299 432.965,195.299 510,272.5C 510.495,274.473 510.662,276.473 510.5,278.5C 500.417,368.362 456.417,435.862 378.5,481C 347.029,497.695 313.696,507.861 278.5,511.5C 269.833,511.5 261.167,511.5 252.5,511.5C 232.833,491.5 213.167,471.5 193.5,451.5C 214.167,451.5 234.833,451.5 255.5,451.5C 276.167,451.5 296.833,451.5 317.5,451.5C 317.667,370.499 317.5,289.499 317,208.5C 315.335,198.511 311.502,189.511 305.5,181.5C 313.821,181.263 319.988,177.597 324,170.5C 325.11,163.576 325.61,156.576 325.5,149.5C 329.681,127.926 321.015,117.759 299.5,119C 293.178,120.941 286.845,122.775 280.5,124.5C 278.547,118.926 277.88,112.926 278.5,106.5C 278.5,84.8333 278.5,63.1667 278.5,41.5 Z"/></g>
<g><path style="opacity:1" fill="#565a65" d="M 232.5,106.5 C 240.167,106.5 247.833,106.5 255.5,106.5C 255.5,111.833 255.5,117.167 255.5,122.5C 253.265,122.205 251.265,122.539 249.5,123.5C 245.505,124.001 241.838,125.334 238.5,127.5C 235.748,126.488 233.081,125.488 230.5,124.5C 232.453,118.926 233.12,112.926 232.5,106.5 Z"/></g>
<g><path style="opacity:1" fill="#34393f" d="M 255.5,106.5 C 263.167,106.5 270.833,106.5 278.5,106.5C 277.88,112.926 278.547,118.926 280.5,124.5C 277.754,125.251 275.087,126.251 272.5,127.5C 267.345,124.2 261.679,122.533 255.5,122.5C 255.5,117.167 255.5,111.833 255.5,106.5 Z"/></g>
<g><path style="opacity:1" fill="#fd6b51" d="M 230.5,124.5 C 233.081,125.488 235.748,126.488 238.5,127.5C 228.202,137.374 225.702,149.041 231,162.5C 232.611,166.275 235.111,169.275 238.5,171.5C 231.561,174.741 224.227,177.075 216.5,178.5C 216.17,194.675 216.504,210.675 217.5,226.5C 217.217,227.289 216.717,227.956 216,228.5C 215.833,212.156 215.333,195.823 214.5,179.5C 211.667,180.933 208.667,181.6 205.5,181.5C 197.21,181.276 191.043,177.61 187,170.5C 185.89,163.576 185.39,156.576 185.5,149.5C 185.39,142.424 185.89,135.424 187,128.5C 192.596,119.956 200.429,116.789 210.5,119C 217.099,121.145 223.765,122.978 230.5,124.5 Z"/></g>
<g><path style="opacity:1" fill="#fd422d" d="M 305.5,181.5 C 302.117,181.743 298.951,181.076 296,179.5C 295.667,195.833 295.333,212.167 295,228.5C 294.283,227.956 293.783,227.289 293.5,226.5C 294.496,210.675 294.83,194.675 294.5,178.5C 289.407,177.781 284.407,176.614 279.5,175C 276.719,174.478 274.385,173.311 272.5,171.5C 282.4,162.874 285.233,152.207 281,139.5C 279.113,134.787 276.279,130.787 272.5,127.5C 275.087,126.251 277.754,125.251 280.5,124.5C 286.845,122.775 293.178,120.941 299.5,119C 321.015,117.759 329.681,127.926 325.5,149.5C 325.61,156.576 325.11,163.576 324,170.5C 319.988,177.597 313.821,181.263 305.5,181.5 Z"/></g>
<g><path style="opacity:1" fill="#f82814" d="M 249.5,123.5 C 251.5,123.5 253.5,123.5 255.5,123.5C 255.5,141.167 255.5,158.833 255.5,176.5C 253.833,176.5 252.167,176.5 250.5,176.5C 250.167,176.5 249.833,176.5 249.5,176.5C 245.536,175.688 241.869,174.021 238.5,171.5C 235.111,169.275 232.611,166.275 231,162.5C 225.702,149.041 228.202,137.374 238.5,127.5C 241.838,125.334 245.505,124.001 249.5,123.5 Z"/></g>
<g><path style="opacity:1" fill="#c10201" d="M 249.5,123.5 C 251.265,122.539 253.265,122.205 255.5,122.5C 261.679,122.533 267.345,124.2 272.5,127.5C 276.279,130.787 279.113,134.787 281,139.5C 285.233,152.207 282.4,162.874 272.5,171.5C 269.594,173.45 266.594,175.117 263.5,176.5C 260.873,177.092 258.206,177.425 255.5,177.5C 253.585,177.784 251.919,177.451 250.5,176.5C 252.167,176.5 253.833,176.5 255.5,176.5C 255.5,158.833 255.5,141.167 255.5,123.5C 253.5,123.5 251.5,123.5 249.5,123.5 Z"/></g>
<g><path style="opacity:1" fill="#f82814" d="M 272.5,171.5 C 274.385,173.311 276.719,174.478 279.5,175C 284.407,176.614 289.407,177.781 294.5,178.5C 294.83,194.675 294.496,210.675 293.5,226.5C 289.105,222.77 284.438,219.436 279.5,216.5C 273.93,219.894 268.764,223.894 264,228.5C 263.5,211.17 263.333,193.837 263.5,176.5C 266.594,175.117 269.594,173.45 272.5,171.5 Z"/></g>
<g><path style="opacity:1" fill="#fe583e" d="M 238.5,171.5 C 241.869,174.021 245.536,175.688 249.5,176.5C 247.678,193.471 246.844,210.804 247,228.5C 242.236,223.894 237.07,219.894 231.5,216.5C 226.844,219.83 222.177,223.163 217.5,226.5C 216.504,210.675 216.17,194.675 216.5,178.5C 224.227,177.075 231.561,174.741 238.5,171.5 Z"/></g>
<g><path style="opacity:1" fill="#555a65" d="M 249.5,176.5 C 249.833,176.5 250.167,176.5 250.5,176.5C 251.919,177.451 253.585,177.784 255.5,177.5C 255.5,199.167 255.5,220.833 255.5,242.5C 241.833,242.5 228.167,242.5 214.5,242.5C 214.5,295.167 214.5,347.833 214.5,400.5C 228.167,400.5 241.833,400.5 255.5,400.5C 255.5,417.5 255.5,434.5 255.5,451.5C 234.833,451.5 214.167,451.5 193.5,451.5C 193.333,369.833 193.5,288.166 194,206.5C 196.233,197.371 200.066,189.038 205.5,181.5C 208.667,181.6 211.667,180.933 214.5,179.5C 215.333,195.823 215.833,212.156 216,228.5C 216.717,227.956 217.217,227.289 217.5,226.5C 222.177,223.163 226.844,219.83 231.5,216.5C 237.07,219.894 242.236,223.894 247,228.5C 246.844,210.804 247.678,193.471 249.5,176.5 Z"/></g>
<g><path style="opacity:1" fill="#333940" d="M 263.5,176.5 C 263.333,193.837 263.5,211.17 264,228.5C 268.764,223.894 273.93,219.894 279.5,216.5C 284.438,219.436 289.105,222.77 293.5,226.5C 293.783,227.289 294.283,227.956 295,228.5C 295.333,212.167 295.667,195.833 296,179.5C 298.951,181.076 302.117,181.743 305.5,181.5C 311.502,189.511 315.335,198.511 317,208.5C 317.5,289.499 317.667,370.499 317.5,451.5C 296.833,451.5 276.167,451.5 255.5,451.5C 255.5,434.5 255.5,417.5 255.5,400.5C 269.167,400.5 282.833,400.5 296.5,400.5C 296.5,347.833 296.5,295.167 296.5,242.5C 282.833,242.5 269.167,242.5 255.5,242.5C 255.5,220.833 255.5,199.167 255.5,177.5C 258.206,177.425 260.873,177.092 263.5,176.5 Z"/></g>
<g><path style="opacity:1" fill="#e8ecf4" d="M 255.5,242.5 C 269.167,242.5 282.833,242.5 296.5,242.5C 296.5,295.167 296.5,347.833 296.5,400.5C 282.833,400.5 269.167,400.5 255.5,400.5C 241.833,400.5 228.167,400.5 214.5,400.5C 214.5,347.833 214.5,295.167 214.5,242.5C 228.167,242.5 241.833,242.5 255.5,242.5 Z"/></g>
<g><path style="opacity:1" fill="#fefffe" d="M 215.5,243.5 C 228.833,243.5 242.167,243.5 255.5,243.5C 255.5,295.5 255.5,347.5 255.5,399.5C 242.167,399.5 228.833,399.5 215.5,399.5C 215.5,347.5 215.5,295.5 215.5,243.5 Z"/></g>
</svg>
