<?xml version="1.0" encoding="UTF-8"?>
<!DOCTYPE svg PUBLIC "-//W3C//DTD SVG 1.1//EN" "http://www.w3.org/Graphics/SVG/1.1/DTD/svg11.dtd">
<svg xmlns="http://www.w3.org/2000/svg" version="1.1" width="512px" height="512px" style="shape-rendering:geometricPrecision; text-rendering:geometricPrecision; image-rendering:optimizeQuality; fill-rule:evenodd; clip-rule:evenodd" xmlns:xlink="http://www.w3.org/1999/xlink">
<g><path style="opacity:0.996" fill="#fe7b37" d="M 232.5,-0.5 C 247.833,-0.5 263.167,-0.5 278.5,-0.5C 368.144,10.3879 435.644,54.7213 481,132.5C 497.695,163.971 507.861,197.304 511.5,232.5C 511.5,247.833 511.5,263.167 511.5,278.5C 510.323,287.914 508.656,297.247 506.5,306.5C 506.649,305.448 506.483,304.448 506,303.5C 445.25,242.249 384.083,181.583 322.5,121.5C 319.921,117.25 316.588,113.583 312.5,110.5C 306.813,115.855 301.146,121.188 295.5,126.5C 285.167,115.5 274.5,104.833 263.5,94.5C 263.5,93.8333 263.167,93.5 262.5,93.5C 260.167,93.5 257.833,93.5 255.5,93.5C 252.833,93.5 250.167,93.5 247.5,93.5C 247.17,112.341 247.503,131.007 248.5,149.5C 258.5,160.167 268.833,170.5 279.5,180.5C 279.5,182.5 279.5,184.5 279.5,186.5C 277.5,186.167 275.5,185.833 273.5,185.5C 261.833,173.167 249.833,161.167 237.5,149.5C 225.035,136.535 212.369,123.702 199.5,111C 198.833,110.333 198.167,110.333 197.5,111C 194.667,113.833 191.833,116.667 189,119.5C 188.333,120.167 188.333,120.833 189,121.5C 201.702,134.369 214.535,147.035 227.5,159.5C 237.5,169.833 247.5,180.167 257.5,190.5C 257.027,191.906 256.027,192.573 254.5,192.5C 248.218,185.753 240.552,183.753 231.5,186.5C 228.189,165.493 215.856,155.993 194.5,158C 190.714,159.393 187.048,161.059 183.5,163C 180.267,166.233 177.1,169.4 174,172.5C 159.449,163.341 148.282,166.341 140.5,181.5C 126.979,181.576 121.146,188.243 123,201.5C 124.744,206.079 127.91,209.079 132.5,210.5C 132.26,214.606 131.593,218.606 130.5,222.5C 125.739,222.206 121.072,221.373 116.5,220C 102.267,218.032 92.1005,223.532 86,236.5C 80.9628,254.814 76.7961,273.314 73.5,292C 74.2252,302.87 79.2252,311.037 88.5,316.5C 92.8113,322.499 98.1447,328.165 104.5,333.5C 104.5,335.167 104.5,336.833 104.5,338.5C 106.973,344.779 109.973,350.779 113.5,356.5C 164.833,408.167 216.167,459.833 267.5,511.5C 255.833,511.5 244.167,511.5 232.5,511.5C 142.856,500.612 75.3562,456.279 30,378.5C 13.3053,347.029 3.1386,313.696 -0.5,278.5C -0.5,263.167 -0.5,247.833 -0.5,232.5C 10.3875,142.857 54.7208,75.3573 132.5,30C 163.971,13.3053 197.304,3.1386 232.5,-0.5 Z"/></g>
<g><path style="opacity:1" fill="#7062cb" d="M 255.5,93.5 C 255.5,111.833 255.5,130.167 255.5,148.5C 257.833,148.5 260.167,148.5 262.5,148.5C 262.5,130.167 262.5,111.833 262.5,93.5C 263.167,93.5 263.5,93.8333 263.5,94.5C 263.5,112.833 263.5,131.167 263.5,149.5C 258.5,149.5 253.5,149.5 248.5,149.5C 247.503,131.007 247.17,112.341 247.5,93.5C 250.167,93.5 252.833,93.5 255.5,93.5 Z"/></g>
<g><path style="opacity:1" fill="#3747db" d="M 255.5,93.5 C 257.833,93.5 260.167,93.5 262.5,93.5C 262.5,111.833 262.5,130.167 262.5,148.5C 260.167,148.5 257.833,148.5 255.5,148.5C 255.5,130.167 255.5,111.833 255.5,93.5 Z"/></g>
<g><path style="opacity:1" fill="#fe6611" d="M 263.5,94.5 C 274.5,104.833 285.167,115.5 295.5,126.5C 288.188,134.146 280.855,141.813 273.5,149.5C 276.5,153.167 279.833,156.5 283.5,159.5C 296.521,146.812 309.521,134.145 322.5,121.5C 384.083,181.583 445.25,242.249 506,303.5C 506.483,304.448 506.649,305.448 506.5,306.5C 487.087,393.486 436.754,455.319 355.5,492C 330.621,502.136 304.954,508.636 278.5,511.5C 274.833,511.5 271.167,511.5 267.5,511.5C 216.167,459.833 164.833,408.167 113.5,356.5C 144.669,363.417 175.836,370.417 207,377.5C 212.801,374.346 217.967,370.346 222.5,365.5C 232.635,323.29 242.635,280.956 252.5,238.5C 253.5,238.5 254.5,238.5 255.5,238.5C 256.5,238.5 257.5,238.5 258.5,238.5C 268.188,280.996 278.188,323.329 288.5,365.5C 292.983,370.332 298.149,374.332 304,377.5C 334.802,370.206 365.635,363.04 396.5,356C 397.416,355.626 398.25,355.126 399,354.5C 401.787,349.261 404.287,343.928 406.5,338.5C 405.394,332.863 404.394,327.196 403.5,321.5C 411.529,320.154 419.196,317.654 426.5,314C 435.12,306.808 438.62,297.642 437,286.5C 433.587,273.595 430.587,260.595 428,247.5C 425.846,230.512 416.346,221.178 399.5,219.5C 392.973,220.049 386.64,221.383 380.5,223.5C 379.497,219.479 378.497,215.479 377.5,211.5C 389.064,206.016 391.564,197.683 385,186.5C 380.702,183.432 375.869,181.765 370.5,181.5C 365.938,170.216 357.604,165.716 345.5,168C 342.286,168.856 339.453,170.356 337,172.5C 323.982,156.049 308.482,153.215 290.5,164C 285.433,168.654 281.766,174.154 279.5,180.5C 268.833,170.5 258.5,160.167 248.5,149.5C 253.5,149.5 258.5,149.5 263.5,149.5C 263.5,131.167 263.5,112.833 263.5,94.5 Z"/></g>
<g><path style="opacity:1" fill="#5864de" d="M 237.5,149.5 C 234.5,153.167 231.167,156.5 227.5,159.5C 214.535,147.035 201.702,134.369 189,121.5C 188.333,120.833 188.333,120.167 189,119.5C 191.833,116.667 194.667,113.833 197.5,111C 198.167,110.333 198.833,110.333 199.5,111C 212.369,123.702 225.035,136.535 237.5,149.5 Z"/></g>
<g><path style="opacity:1" fill="#5864dd" d="M 322.5,121.5 C 309.521,134.145 296.521,146.812 283.5,159.5C 279.833,156.5 276.5,153.167 273.5,149.5C 280.855,141.813 288.188,134.146 295.5,126.5C 301.146,121.188 306.813,115.855 312.5,110.5C 316.588,113.583 319.921,117.25 322.5,121.5 Z"/></g>
<g><path style="opacity:1" fill="#fe6611" d="M 237.5,149.5 C 249.833,161.167 261.833,173.167 273.5,185.5C 267.499,185.168 262.166,186.834 257.5,190.5C 247.5,180.167 237.5,169.833 227.5,159.5C 231.167,156.5 234.5,153.167 237.5,149.5 Z"/></g>
<g><path style="opacity:1" fill="#fffefd" d="M 254.5,192.5 C 255.483,207.755 255.817,223.089 255.5,238.5C 254.5,238.5 253.5,238.5 252.5,238.5C 251.735,238.077 250.902,237.743 250,237.5C 242.133,241.737 234.467,241.404 227,236.5C 210.33,245.833 198.497,241.667 191.5,224C 171.745,219.71 152.078,215.21 132.5,210.5C 127.91,209.079 124.744,206.079 123,201.5C 121.146,188.243 126.979,181.576 140.5,181.5C 148.282,166.341 159.449,163.341 174,172.5C 177.1,169.4 180.267,166.233 183.5,163C 187.048,161.059 190.714,159.393 194.5,158C 215.856,155.993 228.189,165.493 231.5,186.5C 240.552,183.753 248.218,185.753 254.5,192.5 Z"/></g>
<g><path style="opacity:1" fill="#e7e6ec" d="M 377.5,211.5 C 358.045,215.03 338.711,219.197 319.5,224C 312.261,241.374 300.428,245.541 284,236.5C 276.321,241.243 268.488,241.576 260.5,237.5C 259.584,237.543 258.917,237.876 258.5,238.5C 257.5,238.5 256.5,238.5 255.5,238.5C 255.817,223.089 255.483,207.755 254.5,192.5C 256.027,192.573 257.027,191.906 257.5,190.5C 262.166,186.834 267.499,185.168 273.5,185.5C 275.5,185.833 277.5,186.167 279.5,186.5C 279.5,184.5 279.5,182.5 279.5,180.5C 281.766,174.154 285.433,168.654 290.5,164C 308.482,153.215 323.982,156.049 337,172.5C 339.453,170.356 342.286,168.856 345.5,168C 357.604,165.716 365.938,170.216 370.5,181.5C 375.869,181.765 380.702,183.432 385,186.5C 391.564,197.683 389.064,206.016 377.5,211.5 Z"/></g>
<g><path style="opacity:1" fill="#fee16e" d="M 132.5,210.5 C 152.078,215.21 171.745,219.71 191.5,224C 198.497,241.667 210.33,245.833 227,236.5C 234.467,241.404 242.133,241.737 250,237.5C 250.902,237.743 251.735,238.077 252.5,238.5C 242.635,280.956 232.635,323.29 222.5,365.5C 183.294,356.075 143.96,347.075 104.5,338.5C 104.5,336.833 104.5,335.167 104.5,333.5C 105.971,330.257 106.971,326.757 107.5,323C 106.944,321.989 106.278,321.156 105.5,320.5C 106.5,320.5 107.5,320.5 108.5,320.5C 109.182,315.107 110.182,309.773 111.5,304.5C 116.655,282.998 121.655,261.332 126.5,239.5C 127.94,233.863 129.273,228.197 130.5,222.5C 131.593,218.606 132.26,214.606 132.5,210.5 Z"/></g>
<g><path style="opacity:1" fill="#fed329" d="M 377.5,211.5 C 378.497,215.479 379.497,219.479 380.5,223.5C 382.143,228.738 383.476,234.071 384.5,239.5C 389.342,261.325 394.342,282.991 399.5,304.5C 400.704,310.311 402.038,315.978 403.5,321.5C 404.394,327.196 405.394,332.863 406.5,338.5C 366.994,346.877 327.66,355.877 288.5,365.5C 278.188,323.329 268.188,280.996 258.5,238.5C 258.917,237.876 259.584,237.543 260.5,237.5C 268.488,241.576 276.321,241.243 284,236.5C 300.428,245.541 312.261,241.374 319.5,224C 338.711,219.197 358.045,215.03 377.5,211.5 Z"/></g>
<g><path style="opacity:1" fill="#e7e4ea" d="M 130.5,222.5 C 129.273,228.197 127.94,233.863 126.5,239.5C 120.234,237.945 113.901,237.112 107.5,237C 104.272,238.563 102.105,241.063 101,244.5C 97.6698,259.16 94.3365,273.826 91,288.5C 89.9243,293.607 91.4243,297.774 95.5,301C 100.708,302.802 106.041,303.969 111.5,304.5C 110.182,309.773 109.182,315.107 108.5,320.5C 107.5,320.5 106.5,320.5 105.5,320.5C 99.6332,319.927 93.9666,318.594 88.5,316.5C 79.2252,311.037 74.2252,302.87 73.5,292C 76.7961,273.314 80.9628,254.814 86,236.5C 92.1005,223.532 102.267,218.032 116.5,220C 121.072,221.373 125.739,222.206 130.5,222.5 Z"/></g>
<g><path style="opacity:1" fill="#d8d5de" d="M 403.5,321.5 C 402.038,315.978 400.704,310.311 399.5,304.5C 404.534,303.526 409.534,302.359 414.5,301C 418.606,299.203 420.606,296.037 420.5,291.5C 417.156,275.792 413.656,260.125 410,244.5C 408.347,239.341 404.847,236.674 399.5,236.5C 394.513,237.609 389.513,238.609 384.5,239.5C 383.476,234.071 382.143,228.738 380.5,223.5C 386.64,221.383 392.973,220.049 399.5,219.5C 416.346,221.178 425.846,230.512 428,247.5C 430.587,260.595 433.587,273.595 437,286.5C 438.62,297.642 435.12,306.808 426.5,314C 419.196,317.654 411.529,320.154 403.5,321.5 Z"/></g>
<g><path style="opacity:1" fill="#ffd429" d="M 148.5,226.5 C 161.006,225.512 167.173,231.178 167,243.5C 161.106,269.197 155.106,294.863 149,320.5C 145.219,328.305 139.053,331.138 130.5,329C 123.815,325.463 120.981,319.963 122,312.5C 127.665,287.841 133.331,263.174 139,238.5C 140.526,233.072 143.693,229.072 148.5,226.5 Z"/></g>
<g><path style="opacity:1" fill="#ffa21d" d="M 353.5,226.5 C 361.65,225.257 367.483,228.257 371,235.5C 376.825,259.8 382.492,284.133 388,308.5C 390.884,323.613 384.717,330.446 369.5,329C 366.667,327.5 364.5,325.333 363,322.5C 356.138,295.496 349.971,268.329 344.5,241C 344.035,233.974 347.035,229.141 353.5,226.5 Z"/></g>
<g><path style="opacity:1" fill="#ffd429" d="M 182.5,234.5 C 195.461,233.629 201.628,239.629 201,252.5C 195.066,278.959 188.733,305.293 182,331.5C 176.096,337.972 169.262,339.139 161.5,335C 156.798,330.078 155.298,324.245 157,317.5C 162.689,292.077 168.689,266.743 175,241.5C 177.396,238.933 179.896,236.6 182.5,234.5 Z"/></g>
<g><path style="opacity:1" fill="#ffa21d" d="M 318.5,234.5 C 327.422,232.922 333.589,236.255 337,244.5C 342.942,270.486 348.775,296.486 354.5,322.5C 353.812,334.526 347.479,339.36 335.5,337C 331.942,335.108 329.442,332.275 328,328.5C 321.51,301.884 315.343,275.217 309.5,248.5C 310.097,242.246 313.097,237.579 318.5,234.5 Z"/></g>
<g><path style="opacity:1" fill="#fe6714" d="M 126.5,239.5 C 121.655,261.332 116.655,282.998 111.5,304.5C 106.041,303.969 100.708,302.802 95.5,301C 91.4243,297.774 89.9243,293.607 91,288.5C 94.3365,273.826 97.6698,259.16 101,244.5C 102.105,241.063 104.272,238.563 107.5,237C 113.901,237.112 120.234,237.945 126.5,239.5 Z"/></g>
<g><path style="opacity:1" fill="#fe6713" d="M 399.5,304.5 C 394.342,282.991 389.342,261.325 384.5,239.5C 389.513,238.609 394.513,237.609 399.5,236.5C 404.847,236.674 408.347,239.341 410,244.5C 413.656,260.125 417.156,275.792 420.5,291.5C 420.606,296.037 418.606,299.203 414.5,301C 409.534,302.359 404.534,303.526 399.5,304.5 Z"/></g>
<g><path style="opacity:1" fill="#ffd429" d="M 216.5,242.5 C 230.652,241.151 236.819,247.485 235,261.5C 229.331,286.174 223.665,310.841 218,335.5C 214.394,343.553 208.228,346.72 199.5,345C 191.857,341.082 189.024,334.915 191,326.5C 196.718,300.296 203.051,274.296 210,248.5C 212.063,246.266 214.229,244.266 216.5,242.5 Z"/></g>
<g><path style="opacity:1" fill="#ffa21d" d="M 284.5,242.5 C 293.433,240.857 299.599,244.191 303,252.5C 308.52,278.579 314.353,304.579 320.5,330.5C 318.248,343.79 310.915,347.956 298.5,343C 296.622,341.457 295.122,339.624 294,337.5C 287.349,310.417 281.182,283.251 275.5,256C 275.652,249.512 278.652,245.012 284.5,242.5 Z"/></g>
<g><path style="opacity:1" fill="#fe6814" d="M 88.5,316.5 C 93.9666,318.594 99.6332,319.927 105.5,320.5C 106.278,321.156 106.944,321.989 107.5,323C 106.971,326.757 105.971,330.257 104.5,333.5C 98.1447,328.165 92.8113,322.499 88.5,316.5 Z"/></g>
<g><path style="opacity:1" fill="#e7e5e9" d="M 104.5,338.5 C 143.96,347.075 183.294,356.075 222.5,365.5C 217.967,370.346 212.801,374.346 207,377.5C 175.836,370.417 144.669,363.417 113.5,356.5C 109.973,350.779 106.973,344.779 104.5,338.5 Z"/></g>
<g><path style="opacity:1" fill="#d8d5de" d="M 406.5,338.5 C 404.287,343.928 401.787,349.261 399,354.5C 398.25,355.126 397.416,355.626 396.5,356C 365.635,363.04 334.802,370.206 304,377.5C 298.149,374.332 292.983,370.332 288.5,365.5C 327.66,355.877 366.994,346.877 406.5,338.5 Z"/></g>
</svg>
