<?xml version="1.0" encoding="UTF-8"?>
<!DOCTYPE svg PUBLIC "-//W3C//DTD SVG 1.1//EN" "http://www.w3.org/Graphics/SVG/1.1/DTD/svg11.dtd">
<svg xmlns="http://www.w3.org/2000/svg" version="1.1" width="512px" height="512px" style="shape-rendering:geometricPrecision; text-rendering:geometricPrecision; image-rendering:optimizeQuality; fill-rule:evenodd; clip-rule:evenodd" xmlns:xlink="http://www.w3.org/1999/xlink">
<g><path style="opacity:0.997" fill="#8d4dd4" d="M 232.5,-0.5 C 247.833,-0.5 263.167,-0.5 278.5,-0.5C 368.144,10.3879 435.644,54.7213 481,132.5C 497.695,163.971 507.861,197.304 511.5,232.5C 511.5,247.833 511.5,263.167 511.5,278.5C 511.167,278.5 510.833,278.5 510.5,278.5C 457.194,225.527 403.86,172.527 350.5,119.5C 336.343,118.504 322.01,118.171 307.5,118.5C 300.167,110.5 292.5,102.833 284.5,95.5C 283.849,94.9094 283.182,94.2427 282.5,93.5C 271.462,97.5743 262.129,103.908 254.5,112.5C 248.182,103.406 239.682,97.0723 229,93.5C 226.919,95.7134 225.585,98.3801 225,101.5C 223.515,107.076 222.682,112.743 222.5,118.5C 201.833,118.5 181.167,118.5 160.5,118.5C 160.041,165.193 160.541,211.86 162,258.5C 166.668,283.525 179.168,303.525 199.5,318.5C 211.114,331.781 223.447,344.448 236.5,356.5C 236.832,366.522 236.499,376.522 235.5,386.5C 217.947,392.906 200.28,398.906 182.5,404.5C 182.5,408.833 182.5,413.167 182.5,417.5C 212.965,448.465 243.632,479.299 274.5,510C 275.793,510.49 277.127,510.657 278.5,510.5C 278.5,510.833 278.5,511.167 278.5,511.5C 263.167,511.5 247.833,511.5 232.5,511.5C 142.856,500.612 75.3562,456.279 30,378.5C 13.3053,347.029 3.1386,313.696 -0.5,278.5C -0.5,263.167 -0.5,247.833 -0.5,232.5C 10.3875,142.857 54.7208,75.3573 132.5,30C 163.971,13.3053 197.304,3.1386 232.5,-0.5 Z"/></g>
<g><path style="opacity:1" fill="#b4e152" d="M 254.5,112.5 C 255.341,114.379 255.675,116.379 255.5,118.5C 244.833,118.5 234.167,118.5 223.5,118.5C 223.5,120.5 223.5,122.5 223.5,124.5C 222.539,122.735 222.205,120.735 222.5,118.5C 222.682,112.743 223.515,107.076 225,101.5C 225.585,98.3801 226.919,95.7134 229,93.5C 239.682,97.0723 248.182,103.406 254.5,112.5 Z"/></g>
<g><path style="opacity:1" fill="#77d95b" d="M 284.5,95.5 C 286.135,100.708 287.135,106.042 287.5,111.5C 287.5,113.833 287.5,116.167 287.5,118.5C 276.833,118.5 266.167,118.5 255.5,118.5C 255.675,116.379 255.341,114.379 254.5,112.5C 262.129,103.908 271.462,97.5743 282.5,93.5C 283.182,94.2427 283.849,94.9094 284.5,95.5 Z"/></g>
<g><path style="opacity:1" fill="#623494" d="M 284.5,95.5 C 292.5,102.833 300.167,110.5 307.5,118.5C 301.167,118.5 294.833,118.5 288.5,118.5C 288.802,115.941 288.468,113.607 287.5,111.5C 287.135,106.042 286.135,100.708 284.5,95.5 Z"/></g>
<g><path style="opacity:1" fill="#fdfdfe" d="M 222.5,118.5 C 222.205,120.735 222.539,122.735 223.5,124.5C 224.482,130.788 226.815,136.454 230.5,141.5C 214.5,141.5 198.5,141.5 182.5,141.5C 182.5,152.167 182.5,162.833 182.5,173.5C 182.333,198.502 182.5,223.502 183,248.5C 188.243,280.078 206.076,300.912 236.5,311C 242.743,312.535 249.077,313.368 255.5,313.5C 255.5,348.167 255.5,382.833 255.5,417.5C 231.167,417.5 206.833,417.5 182.5,417.5C 182.5,413.167 182.5,408.833 182.5,404.5C 200.28,398.906 217.947,392.906 235.5,386.5C 236.499,376.522 236.832,366.522 236.5,356.5C 236.5,349.167 236.5,341.833 236.5,334.5C 222.834,332.165 210.5,326.831 199.5,318.5C 179.168,303.525 166.668,283.525 162,258.5C 160.541,211.86 160.041,165.193 160.5,118.5C 181.167,118.5 201.833,118.5 222.5,118.5 Z"/></g>
<g><path style="opacity:1" fill="#4fbf74" d="M 287.5,111.5 C 288.468,113.607 288.802,115.941 288.5,118.5C 287.802,126.929 285.136,134.596 280.5,141.5C 273.412,148.591 265.078,153.591 255.5,156.5C 255.5,143.833 255.5,131.167 255.5,118.5C 266.167,118.5 276.833,118.5 287.5,118.5C 287.5,116.167 287.5,113.833 287.5,111.5 Z"/></g>
<g><path style="opacity:1" fill="#d5e8f7" d="M 288.5,118.5 C 294.833,118.5 301.167,118.5 307.5,118.5C 322.01,118.171 336.343,118.504 350.5,119.5C 350.667,163.168 350.5,206.835 350,250.5C 343.593,295.405 318.427,323.405 274.5,334.5C 274.333,351.837 274.5,369.17 275,386.5C 292.397,392.855 309.897,399.022 327.5,405C 328.464,409.066 328.797,413.233 328.5,417.5C 304.167,417.5 279.833,417.5 255.5,417.5C 255.5,382.833 255.5,348.167 255.5,313.5C 258.385,313.806 261.052,313.473 263.5,312.5C 290.358,308.816 309.858,294.816 322,270.5C 325.175,263.484 327.175,256.151 328,248.5C 328.5,223.502 328.667,198.502 328.5,173.5C 328.5,162.833 328.5,152.167 328.5,141.5C 312.5,141.5 296.5,141.5 280.5,141.5C 285.136,134.596 287.802,126.929 288.5,118.5 Z"/></g>
<g><path style="opacity:1" fill="#613393" d="M 350.5,119.5 C 403.86,172.527 457.194,225.527 510.5,278.5C 500.417,368.362 456.417,435.862 378.5,481C 347.264,497.975 313.93,507.809 278.5,510.5C 277.127,510.657 275.793,510.49 274.5,510C 243.632,479.299 212.965,448.465 182.5,417.5C 206.833,417.5 231.167,417.5 255.5,417.5C 279.833,417.5 304.167,417.5 328.5,417.5C 328.797,413.233 328.464,409.066 327.5,405C 309.897,399.022 292.397,392.855 275,386.5C 274.5,369.17 274.333,351.837 274.5,334.5C 318.427,323.405 343.593,295.405 350,250.5C 350.5,206.835 350.667,163.168 350.5,119.5 Z"/></g>
<g><path style="opacity:1" fill="#b4e34e" d="M 230.5,141.5 C 237.724,148.215 245.891,153.548 255,157.5C 255.499,162.823 255.666,168.156 255.5,173.5C 231.167,173.5 206.833,173.5 182.5,173.5C 182.5,162.833 182.5,152.167 182.5,141.5C 198.5,141.5 214.5,141.5 230.5,141.5 Z"/></g>
<g><path style="opacity:1" fill="#76db5a" d="M 255.5,118.5 C 255.5,131.167 255.5,143.833 255.5,156.5C 265.078,153.591 273.412,148.591 280.5,141.5C 296.5,141.5 312.5,141.5 328.5,141.5C 328.5,152.167 328.5,162.833 328.5,173.5C 304.167,173.5 279.833,173.5 255.5,173.5C 255.666,168.156 255.499,162.823 255,157.5C 245.891,153.548 237.724,148.215 230.5,141.5C 226.815,136.454 224.482,130.788 223.5,124.5C 223.5,122.5 223.5,120.5 223.5,118.5C 234.167,118.5 244.833,118.5 255.5,118.5 Z"/></g>
<g><path style="opacity:1" fill="#4fbf74" d="M 182.5,173.5 C 206.833,173.5 231.167,173.5 255.5,173.5C 255.5,219.833 255.5,266.167 255.5,312.5C 258.167,312.5 260.833,312.5 263.5,312.5C 261.052,313.473 258.385,313.806 255.5,313.5C 249.077,313.368 242.743,312.535 236.5,311C 206.076,300.912 188.243,280.078 183,248.5C 182.5,223.502 182.333,198.502 182.5,173.5 Z"/></g>
<g><path style="opacity:1" fill="#01aa5e" d="M 255.5,173.5 C 279.833,173.5 304.167,173.5 328.5,173.5C 328.667,198.502 328.5,223.502 328,248.5C 327.175,256.151 325.175,263.484 322,270.5C 309.858,294.816 290.358,308.816 263.5,312.5C 260.833,312.5 258.167,312.5 255.5,312.5C 255.5,266.167 255.5,219.833 255.5,173.5 Z"/></g>
<g><path style="opacity:1" fill="#623494" d="M 199.5,318.5 C 210.5,326.831 222.834,332.165 236.5,334.5C 236.5,341.833 236.5,349.167 236.5,356.5C 223.447,344.448 211.114,331.781 199.5,318.5 Z"/></g>
</svg>
