<?xml version="1.0" encoding="UTF-8"?>
<!DOCTYPE svg PUBLIC "-//W3C//DTD SVG 1.1//EN" "http://www.w3.org/Graphics/SVG/1.1/DTD/svg11.dtd">
<svg xmlns="http://www.w3.org/2000/svg" version="1.1" width="512px" height="512px" style="shape-rendering:geometricPrecision; text-rendering:geometricPrecision; image-rendering:optimizeQuality; fill-rule:evenodd; clip-rule:evenodd" xmlns:xlink="http://www.w3.org/1999/xlink">
<g><path style="opacity:0.996" fill="#fe5f96" d="M 232.5,-0.5 C 247.833,-0.5 263.167,-0.5 278.5,-0.5C 368.144,10.3879 435.644,54.7213 481,132.5C 494.123,156.702 502.956,182.369 507.5,209.5C 471.201,173.701 435.035,137.701 399,101.5C 398.79,103.058 398.29,104.391 397.5,105.5C 397.5,103.833 397.5,102.167 397.5,100.5C 332.833,100.5 268.167,100.5 203.5,100.5C 189.5,85.8333 175.167,71.5 160.5,57.5C 150.789,58.5074 141.122,59.8408 131.5,61.5C 133.493,74.4576 135.16,87.4576 136.5,100.5C 128.833,100.5 121.167,100.5 113.5,100.5C 117.473,158.539 121.807,216.539 126.5,274.5C 127.454,298.561 129.12,322.561 131.5,346.5C 133.273,372.998 135.273,399.332 137.5,425.5C 165.167,453.5 192.833,481.5 220.5,509.5C 141.427,497.07 80.2605,457.403 37,390.5C 16.1784,355.868 3.67839,318.535 -0.5,278.5C -0.5,263.167 -0.5,247.833 -0.5,232.5C 10.3875,142.857 54.7208,75.3573 132.5,30C 163.971,13.3053 197.304,3.1386 232.5,-0.5 Z"/></g>
<g><path style="opacity:1" fill="#717789" d="M 160.5,57.5 C 162.94,71.8067 165.273,86.14 167.5,100.5C 167.5,101.167 167.833,101.5 168.5,101.5C 172.997,130.146 177.331,158.812 181.5,187.5C 170.391,188.055 161.057,192.389 153.5,200.5C 148.675,166.881 143.008,133.548 136.5,100.5C 135.16,87.4576 133.493,74.4576 131.5,61.5C 141.122,59.8408 150.789,58.5074 160.5,57.5 Z"/></g>
<g><path style="opacity:1" fill="#d62978" d="M 160.5,57.5 C 175.167,71.5 189.5,85.8333 203.5,100.5C 191.5,100.5 179.5,100.5 167.5,100.5C 165.273,86.14 162.94,71.8067 160.5,57.5 Z"/></g>
<g><path style="opacity:1" fill="#fefdfd" d="M 136.5,100.5 C 143.008,133.548 148.675,166.881 153.5,200.5C 143.195,215.226 142.862,230.226 152.5,245.5C 138.865,250.797 130.199,260.464 126.5,274.5C 121.807,216.539 117.473,158.539 113.5,100.5C 121.167,100.5 128.833,100.5 136.5,100.5 Z"/></g>
<g><path style="opacity:1" fill="#fefefe" d="M 168.5,101.5 C 197.5,101.5 226.5,101.5 255.5,101.5C 255.5,116.5 255.5,131.5 255.5,146.5C 254.167,146.5 252.833,146.5 251.5,146.5C 236.009,144.771 225.343,136.771 219.5,122.5C 199.873,124.956 188.039,135.956 184,155.5C 182.831,167.495 185.997,178.162 193.5,187.5C 189.5,187.5 185.5,187.5 181.5,187.5C 177.331,158.812 172.997,130.146 168.5,101.5 Z"/></g>
<g><path style="opacity:1" fill="#e9ecf4" d="M 167.5,100.5 C 179.5,100.5 191.5,100.5 203.5,100.5C 268.167,100.5 332.833,100.5 397.5,100.5C 397.5,102.167 397.5,103.833 397.5,105.5C 393.512,163.006 389.179,220.34 384.5,277.5C 382.068,261.737 373.401,251.071 358.5,245.5C 371.078,223.313 366.745,205.146 345.5,191C 338.615,188.359 331.615,186.859 324.5,186.5C 331.044,166.626 324.377,153.46 304.5,147C 288.17,146.5 271.837,146.333 255.5,146.5C 255.5,131.5 255.5,116.5 255.5,101.5C 226.5,101.5 197.5,101.5 168.5,101.5C 167.833,101.5 167.5,101.167 167.5,100.5 Z"/></g>
<g><path style="opacity:1" fill="#d72878" d="M 507.5,209.5 C 509.078,217.129 510.412,224.795 511.5,232.5C 511.5,247.833 511.5,263.167 511.5,278.5C 500.612,368.144 456.279,435.644 378.5,481C 347.029,497.695 313.696,507.861 278.5,511.5C 263.167,511.5 247.833,511.5 232.5,511.5C 228.664,510.622 224.664,509.956 220.5,509.5C 192.833,481.5 165.167,453.5 137.5,425.5C 176.833,425.5 216.167,425.5 255.5,425.5C 295.167,425.5 334.833,425.5 374.5,425.5C 376.065,399.494 377.731,373.494 379.5,347.5C 381.829,324.221 383.495,300.888 384.5,277.5C 389.179,220.34 393.512,163.006 397.5,105.5C 398.29,104.391 398.79,103.058 399,101.5C 435.035,137.701 471.201,173.701 507.5,209.5 Z"/></g>
<g><path style="opacity:1" fill="#ffce04" d="M 251.5,146.5 C 252.568,147.434 253.901,147.768 255.5,147.5C 255.5,160.833 255.5,174.167 255.5,187.5C 234.833,187.5 214.167,187.5 193.5,187.5C 185.997,178.162 182.831,167.495 184,155.5C 188.039,135.956 199.873,124.956 219.5,122.5C 225.343,136.771 236.009,144.771 251.5,146.5 Z"/></g>
<g><path style="opacity:1" fill="#fcba14" d="M 251.5,146.5 C 252.833,146.5 254.167,146.5 255.5,146.5C 271.837,146.333 288.17,146.5 304.5,147C 324.377,153.46 331.044,166.626 324.5,186.5C 301.575,187.489 278.575,187.822 255.5,187.5C 255.5,174.167 255.5,160.833 255.5,147.5C 253.901,147.768 252.568,147.434 251.5,146.5 Z"/></g>
<g><path style="opacity:1" fill="#fee79b" d="M 181.5,187.5 C 185.5,187.5 189.5,187.5 193.5,187.5C 214.167,187.5 234.833,187.5 255.5,187.5C 255.5,206.167 255.5,224.833 255.5,243.5C 222.498,243.333 189.498,243.5 156.5,244C 155.099,244.41 153.766,244.91 152.5,245.5C 142.862,230.226 143.195,215.226 153.5,200.5C 161.057,192.389 170.391,188.055 181.5,187.5 Z"/></g>
<g><path style="opacity:1" fill="#fad17e" d="M 324.5,186.5 C 331.615,186.859 338.615,188.359 345.5,191C 366.745,205.146 371.078,223.313 358.5,245.5C 357.234,244.91 355.901,244.41 354.5,244C 321.502,243.5 288.502,243.333 255.5,243.5C 255.5,224.833 255.5,206.167 255.5,187.5C 278.575,187.822 301.575,187.489 324.5,186.5 Z"/></g>
<g><path style="opacity:1" fill="#ffce01" d="M 255.5,243.5 C 255.5,288.5 255.5,333.5 255.5,378.5C 224.797,378.953 194.13,378.453 163.5,377C 148.074,371.739 137.407,361.572 131.5,346.5C 129.12,322.561 127.454,298.561 126.5,274.5C 130.199,260.464 138.865,250.797 152.5,245.5C 153.766,244.91 155.099,244.41 156.5,244C 189.498,243.5 222.498,243.333 255.5,243.5 Z"/></g>
<g><path style="opacity:1" fill="#fcba12" d="M 255.5,243.5 C 288.502,243.333 321.502,243.5 354.5,244C 355.901,244.41 357.234,244.91 358.5,245.5C 373.401,251.071 382.068,261.737 384.5,277.5C 383.495,300.888 381.829,324.221 379.5,347.5C 373.78,362.554 363.113,372.387 347.5,377C 316.87,378.453 286.203,378.953 255.5,378.5C 255.5,333.5 255.5,288.5 255.5,243.5 Z"/></g>
<g><path style="opacity:1" fill="#e9ecf4" d="M 379.5,347.5 C 377.731,373.494 376.065,399.494 374.5,425.5C 334.833,425.5 295.167,425.5 255.5,425.5C 255.5,409.833 255.5,394.167 255.5,378.5C 286.203,378.953 316.87,378.453 347.5,377C 363.113,372.387 373.78,362.554 379.5,347.5 Z"/></g>
<g><path style="opacity:1" fill="#fffefe" d="M 131.5,346.5 C 137.407,361.572 148.074,371.739 163.5,377C 194.13,378.453 224.797,378.953 255.5,378.5C 255.5,394.167 255.5,409.833 255.5,425.5C 216.167,425.5 176.833,425.5 137.5,425.5C 135.273,399.332 133.273,372.998 131.5,346.5 Z"/></g>
</svg>
