<?xml version="1.0" encoding="UTF-8"?>
<!DOCTYPE svg PUBLIC "-//W3C//DTD SVG 1.1//EN" "http://www.w3.org/Graphics/SVG/1.1/DTD/svg11.dtd">
<svg xmlns="http://www.w3.org/2000/svg" version="1.1" width="512px" height="512px" style="shape-rendering:geometricPrecision; text-rendering:geometricPrecision; image-rendering:optimizeQuality; fill-rule:evenodd; clip-rule:evenodd" xmlns:xlink="http://www.w3.org/1999/xlink">
<g><path style="opacity:0.998" fill="#f98226" d="M 232.5,-0.5 C 247.833,-0.5 263.167,-0.5 278.5,-0.5C 368.144,10.3879 435.644,54.7213 481,132.5C 495.198,159.261 504.698,187.594 509.5,217.5C 460.189,169.856 411.522,121.522 363.5,72.5C 359.061,70.446 354.728,68.1127 350.5,65.5C 340.437,82.5394 330.437,99.5394 320.5,116.5C 253.833,116.5 187.167,116.5 120.5,116.5C 120.426,125.202 122.093,133.535 125.5,141.5C 129.948,151.614 136.614,159.947 145.5,166.5C 158.056,179.557 170.889,192.557 184,205.5C 184.399,205.272 184.565,204.938 184.5,204.5C 189.56,219.905 198.56,232.571 211.5,242.5C 222.443,253.944 233.61,265.278 245,276.5C 245.5,269.842 245.666,263.175 245.5,256.5C 245.833,256.5 246.167,256.5 246.5,256.5C 246.5,315.167 246.5,373.833 246.5,432.5C 231.167,432.5 215.833,432.5 200.5,432.5C 200.177,439.022 200.51,445.355 201.5,451.5C 221.167,471.5 240.833,491.5 260.5,511.5C 251.167,511.5 241.833,511.5 232.5,511.5C 142.856,500.612 75.3562,456.279 30,378.5C 13.3053,347.029 3.1386,313.696 -0.5,278.5C -0.5,263.167 -0.5,247.833 -0.5,232.5C 10.3875,142.857 54.7208,75.3573 132.5,30C 163.971,13.3053 197.304,3.1386 232.5,-0.5 Z"/></g>
<g><path style="opacity:1" fill="#4a53c8" d="M 363.5,72.5 C 355.975,87.3758 347.975,102.042 339.5,116.5C 334.077,124.341 329.41,132.674 325.5,141.5C 325.167,141.5 324.833,141.5 324.5,141.5C 318.5,141.5 312.5,141.5 306.5,141.5C 311.167,133.5 315.833,125.5 320.5,117.5C 320.5,117.167 320.5,116.833 320.5,116.5C 330.437,99.5394 340.437,82.5394 350.5,65.5C 354.728,68.1127 359.061,70.446 363.5,72.5 Z"/></g>
<g><path style="opacity:1" fill="#f55c23" d="M 363.5,72.5 C 411.522,121.522 460.189,169.856 509.5,217.5C 509.741,222.694 510.407,227.694 511.5,232.5C 511.5,247.833 511.5,263.167 511.5,278.5C 500.612,368.144 456.279,435.644 378.5,481C 347.029,497.695 313.696,507.861 278.5,511.5C 272.5,511.5 266.5,511.5 260.5,511.5C 240.833,491.5 221.167,471.5 201.5,451.5C 238.004,451.832 274.337,451.498 310.5,450.5C 310.5,444.5 310.5,438.5 310.5,432.5C 295.167,432.5 279.833,432.5 264.5,432.5C 264.5,373.833 264.5,315.167 264.5,256.5C 306.498,247.498 328.165,221.498 329.5,178.5C 355.516,177.166 374.183,164.833 385.5,141.5C 388.907,133.535 390.574,125.202 390.5,116.5C 373.5,116.5 356.5,116.5 339.5,116.5C 347.975,102.042 355.975,87.3758 363.5,72.5 Z"/></g>
<g><path style="opacity:1" fill="#a6d2f9" d="M 320.5,116.5 C 320.5,116.833 320.5,117.167 320.5,117.5C 298.833,117.5 277.167,117.5 255.5,117.5C 255.5,125.5 255.5,133.5 255.5,141.5C 212.167,141.5 168.833,141.5 125.5,141.5C 122.093,133.535 120.426,125.202 120.5,116.5C 187.167,116.5 253.833,116.5 320.5,116.5 Z"/></g>
<g><path style="opacity:1" fill="#6cb1f7" d="M 320.5,117.5 C 315.833,125.5 311.167,133.5 306.5,141.5C 289.5,141.5 272.5,141.5 255.5,141.5C 255.5,133.5 255.5,125.5 255.5,117.5C 277.167,117.5 298.833,117.5 320.5,117.5 Z"/></g>
<g><path style="opacity:1" fill="#6fb0f5" d="M 339.5,116.5 C 356.5,116.5 373.5,116.5 390.5,116.5C 390.574,125.202 388.907,133.535 385.5,141.5C 365.5,141.5 345.5,141.5 325.5,141.5C 329.41,132.674 334.077,124.341 339.5,116.5 Z"/></g>
<g><path style="opacity:1" fill="#fef6ce" d="M 125.5,141.5 C 168.833,141.5 212.167,141.5 255.5,141.5C 255.5,170.5 255.5,199.5 255.5,228.5C 255.5,229.167 255.5,229.833 255.5,230.5C 255.5,239.167 255.5,247.833 255.5,256.5C 252.5,256.5 249.5,256.5 246.5,256.5C 246.167,256.5 245.833,256.5 245.5,256.5C 232.996,254.578 221.662,249.911 211.5,242.5C 198.56,232.571 189.56,219.905 184.5,204.5C 182.208,195.994 181.208,187.327 181.5,178.5C 168.176,178.281 156.176,174.281 145.5,166.5C 136.614,159.947 129.948,151.614 125.5,141.5 Z"/></g>
<g><path style="opacity:1" fill="#fde5b6" d="M 255.5,141.5 C 272.5,141.5 289.5,141.5 306.5,141.5C 289.737,170.7 272.737,199.7 255.5,228.5C 255.5,199.5 255.5,170.5 255.5,141.5 Z"/></g>
<g><path style="opacity:1" fill="#fdca86" d="M 306.5,141.5 C 312.5,141.5 318.5,141.5 324.5,141.5C 306.264,173.636 287.764,205.636 269,237.5C 264.59,234.907 260.09,232.574 255.5,230.5C 255.5,229.833 255.5,229.167 255.5,228.5C 272.737,199.7 289.737,170.7 306.5,141.5 Z"/></g>
<g><path style="opacity:1" fill="#fde5b6" d="M 324.5,141.5 C 324.833,141.5 325.167,141.5 325.5,141.5C 345.5,141.5 365.5,141.5 385.5,141.5C 374.183,164.833 355.516,177.166 329.5,178.5C 328.165,221.498 306.498,247.498 264.5,256.5C 263.167,256.5 261.833,256.5 260.5,256.5C 258.833,256.5 257.167,256.5 255.5,256.5C 255.5,247.833 255.5,239.167 255.5,230.5C 260.09,232.574 264.59,234.907 269,237.5C 287.764,205.636 306.264,173.636 324.5,141.5 Z"/></g>
<g><path style="opacity:1" fill="#f65d24" d="M 145.5,166.5 C 156.176,174.281 168.176,178.281 181.5,178.5C 181.208,187.327 182.208,195.994 184.5,204.5C 184.565,204.938 184.399,205.272 184,205.5C 170.889,192.557 158.056,179.557 145.5,166.5 Z"/></g>
<g><path style="opacity:1" fill="#f65e24" d="M 211.5,242.5 C 221.662,249.911 232.996,254.578 245.5,256.5C 245.666,263.175 245.5,269.842 245,276.5C 233.61,265.278 222.443,253.944 211.5,242.5 Z"/></g>
<g><path style="opacity:1" fill="#a8d1f8" d="M 246.5,256.5 C 249.5,256.5 252.5,256.5 255.5,256.5C 257.167,256.5 258.833,256.5 260.5,256.5C 259.081,257.451 257.415,257.784 255.5,257.5C 255.5,321.833 255.5,386.167 255.5,450.5C 273.833,450.5 292.167,450.5 310.5,450.5C 274.337,451.498 238.004,451.832 201.5,451.5C 200.51,445.355 200.177,439.022 200.5,432.5C 215.833,432.5 231.167,432.5 246.5,432.5C 246.5,373.833 246.5,315.167 246.5,256.5 Z"/></g>
<g><path style="opacity:1" fill="#6cb1f7" d="M 260.5,256.5 C 261.833,256.5 263.167,256.5 264.5,256.5C 264.5,315.167 264.5,373.833 264.5,432.5C 279.833,432.5 295.167,432.5 310.5,432.5C 310.5,438.5 310.5,444.5 310.5,450.5C 292.167,450.5 273.833,450.5 255.5,450.5C 255.5,386.167 255.5,321.833 255.5,257.5C 257.415,257.784 259.081,257.451 260.5,256.5 Z"/></g>
</svg>
