<?xml version="1.0" encoding="UTF-8"?>
<!DOCTYPE svg PUBLIC "-//W3C//DTD SVG 1.1//EN" "http://www.w3.org/Graphics/SVG/1.1/DTD/svg11.dtd">
<svg xmlns="http://www.w3.org/2000/svg" version="1.1" width="512px" height="512px" style="shape-rendering:geometricPrecision; text-rendering:geometricPrecision; image-rendering:optimizeQuality; fill-rule:evenodd; clip-rule:evenodd" xmlns:xlink="http://www.w3.org/1999/xlink">
<g><path style="opacity:0.996" fill="#fee16e" d="M 232.5,-0.5 C 247.833,-0.5 263.167,-0.5 278.5,-0.5C 368.144,10.3879 435.644,54.7213 481,132.5C 497.695,163.971 507.861,197.304 511.5,232.5C 511.5,247.833 511.5,263.167 511.5,278.5C 510.573,284.177 509.573,289.844 508.5,295.5C 464.119,251.452 419.785,207.452 375.5,163.5C 354.314,137.785 327.981,130.619 296.5,142C 292.606,144.446 288.606,146.612 284.5,148.5C 260.5,123.833 236.167,99.5 211.5,75.5C 189.53,103.648 167.697,131.981 146,160.5C 145.018,161.759 144.685,163.092 145,164.5C 148.429,168.439 152.263,171.772 156.5,174.5C 160.105,179.774 164.438,184.441 169.5,188.5C 163.669,225.485 157.836,262.485 152,299.5C 149.268,340.356 164.102,373.023 196.5,397.5C 231.267,433.773 266.934,469.939 303.5,506C 304.448,506.483 305.448,506.649 306.5,506.5C 297.247,508.656 287.914,510.323 278.5,511.5C 263.167,511.5 247.833,511.5 232.5,511.5C 142.856,500.612 75.3562,456.279 30,378.5C 13.3053,347.029 3.1386,313.696 -0.5,278.5C -0.5,263.167 -0.5,247.833 -0.5,232.5C 10.3875,142.857 54.7208,75.3573 132.5,30C 163.971,13.3053 197.304,3.1386 232.5,-0.5 Z"/></g>
<g><path style="opacity:1" fill="#ef5da2" d="M 211.5,75.5 C 215.636,107.855 219.969,140.188 224.5,172.5C 225.341,174.379 225.675,176.379 225.5,178.5C 225.5,178.833 225.5,179.167 225.5,179.5C 219.729,178.887 214.396,179.554 209.5,181.5C 208.596,180.791 208.263,179.791 208.5,178.5C 206.313,158.049 203.48,137.715 200,117.5C 185.006,136.17 170.506,155.17 156.5,174.5C 152.263,171.772 148.429,168.439 145,164.5C 144.685,163.092 145.018,161.759 146,160.5C 167.697,131.981 189.53,103.648 211.5,75.5 Z"/></g>
<g><path style="opacity:1" fill="#fed329" d="M 211.5,75.5 C 236.167,99.5 260.5,123.833 284.5,148.5C 281.695,151.831 278.528,154.831 275,157.5C 273.25,159.734 271.75,162.068 270.5,164.5C 265.56,167.77 261.227,171.77 257.5,176.5C 250.909,171.249 244.575,165.582 238.5,159.5C 233.813,163.855 229.146,168.188 224.5,172.5C 219.969,140.188 215.636,107.855 211.5,75.5 Z"/></g>
<g><path style="opacity:1" fill="#fed22b" d="M 208.5,178.5 C 196.162,178.333 183.829,178.5 171.5,179C 170.793,182.161 170.126,185.328 169.5,188.5C 164.438,184.441 160.105,179.774 156.5,174.5C 170.506,155.17 185.006,136.17 200,117.5C 203.48,137.715 206.313,158.049 208.5,178.5 Z"/></g>
<g><path style="opacity:1" fill="#79dc59" d="M 375.5,163.5 C 381.532,172.592 385.199,182.592 386.5,193.5C 386.5,195.833 386.5,198.167 386.5,200.5C 380.167,200.5 373.833,200.5 367.5,200.5C 366.405,179.15 355.739,164.984 335.5,158C 313.5,152.605 296.167,159.105 283.5,177.5C 278.833,173.5 274.5,169.167 270.5,164.5C 271.75,162.068 273.25,159.734 275,157.5C 278.528,154.831 281.695,151.831 284.5,148.5C 288.606,146.612 292.606,144.446 296.5,142C 327.981,130.619 354.314,137.785 375.5,163.5 Z"/></g>
<g><path style="opacity:1" fill="#b4e34d" d="M 386.5,193.5 C 387.473,195.948 387.806,198.615 387.5,201.5C 373.5,201.5 359.5,201.5 345.5,201.5C 344.621,195.111 343.621,188.777 342.5,182.5C 342.5,181.167 342.5,179.833 342.5,178.5C 323.167,178.5 303.833,178.5 284.5,178.5C 284.167,178.5 283.833,178.5 283.5,178.5C 283.5,178.167 283.5,177.833 283.5,177.5C 296.167,159.105 313.5,152.605 335.5,158C 355.739,164.984 366.405,179.15 367.5,200.5C 373.833,200.5 380.167,200.5 386.5,200.5C 386.5,198.167 386.5,195.833 386.5,193.5 Z"/></g>
<g><path style="opacity:1" fill="#fffefb" d="M 257.5,176.5 C 257.167,177.167 256.833,177.833 256.5,178.5C 246.167,178.5 235.833,178.5 225.5,178.5C 225.675,176.379 225.341,174.379 224.5,172.5C 229.146,168.188 233.813,163.855 238.5,159.5C 244.575,165.582 250.909,171.249 257.5,176.5 Z"/></g>
<g><path style="opacity:1" fill="#d5e8ee" d="M 270.5,164.5 C 274.5,169.167 278.833,173.5 283.5,177.5C 283.5,177.833 283.5,178.167 283.5,178.5C 274.5,178.5 265.5,178.5 256.5,178.5C 256.833,177.833 257.167,177.167 257.5,176.5C 261.227,171.77 265.56,167.77 270.5,164.5 Z"/></g>
<g><path style="opacity:1" fill="#fed428" d="M 375.5,163.5 C 419.785,207.452 464.119,251.452 508.5,295.5C 494.587,374.542 453.587,435.042 385.5,477C 360.843,491.329 334.51,501.162 306.5,506.5C 305.448,506.649 304.448,506.483 303.5,506C 266.934,469.939 231.267,433.773 196.5,397.5C 214.571,409.744 234.571,415.744 256.5,415.5C 302.507,413.924 335.007,392.257 354,350.5C 360.186,333.348 362.519,315.681 361,297.5C 355.723,265.506 350.556,233.506 345.5,201.5C 359.5,201.5 373.5,201.5 387.5,201.5C 387.806,198.615 387.473,195.948 386.5,193.5C 385.199,182.592 381.532,172.592 375.5,163.5 Z"/></g>
<g><path style="opacity:1" fill="#cee7d5" d="M 284.5,178.5 C 303.833,178.5 323.167,178.5 342.5,178.5C 342.5,179.833 342.5,181.167 342.5,182.5C 341.596,181.791 341.263,180.791 341.5,179.5C 322.833,179.5 304.167,179.5 285.5,179.5C 284.833,179.5 284.5,179.167 284.5,178.5 Z"/></g>
<g><path style="opacity:1" fill="#fefefd" d="M 208.5,178.5 C 208.263,179.791 208.596,180.791 209.5,181.5C 209.5,183.833 209.5,186.167 209.5,188.5C 205.369,192.13 201.369,195.963 197.5,200C 194.964,200.186 192.631,200.686 190.5,201.5C 185.019,233.307 179.852,265.307 175,297.5C 172.629,338.097 189.795,366.93 226.5,384C 236.119,387.957 246.119,389.791 256.5,389.5C 256.5,398.167 256.5,406.833 256.5,415.5C 234.571,415.744 214.571,409.744 196.5,397.5C 164.102,373.023 149.268,340.356 152,299.5C 157.836,262.485 163.669,225.485 169.5,188.5C 170.126,185.328 170.793,182.161 171.5,179C 183.829,178.5 196.162,178.333 208.5,178.5 Z"/></g>
<g><path style="opacity:1" fill="#e92483" d="M 225.5,179.5 C 226.862,186.41 227.862,193.41 228.5,200.5C 228.5,200.833 228.5,201.167 228.5,201.5C 223.167,201.5 217.833,201.5 212.5,201.5C 212.167,201.5 211.833,201.5 211.5,201.5C 211.376,196.951 210.709,192.618 209.5,188.5C 209.5,186.167 209.5,183.833 209.5,181.5C 214.396,179.554 219.729,178.887 225.5,179.5 Z"/></g>
<g><path style="opacity:1" fill="#d6e8f7" d="M 225.5,178.5 C 235.833,178.5 246.167,178.5 256.5,178.5C 256.5,185.833 256.5,193.167 256.5,200.5C 247.167,200.5 237.833,200.5 228.5,200.5C 227.862,193.41 226.862,186.41 225.5,179.5C 225.5,179.167 225.5,178.833 225.5,178.5 Z"/></g>
<g><path style="opacity:1" fill="#b0d3f1" d="M 256.5,178.5 C 265.5,178.5 274.5,178.5 283.5,178.5C 283.833,178.5 284.167,178.5 284.5,178.5C 284.5,179.167 284.833,179.5 285.5,179.5C 291.964,186.465 298.631,193.298 305.5,200C 311.681,200.172 317.681,200.672 323.5,201.5C 317.5,201.5 311.5,201.5 305.5,201.5C 289.167,201.5 272.833,201.5 256.5,201.5C 247.167,201.5 237.833,201.5 228.5,201.5C 228.5,201.167 228.5,200.833 228.5,200.5C 237.833,200.5 247.167,200.5 256.5,200.5C 256.5,193.167 256.5,185.833 256.5,178.5 Z"/></g>
<g><path style="opacity:1" fill="#d5e8f6" d="M 285.5,179.5 C 304.167,179.5 322.833,179.5 341.5,179.5C 341.263,180.791 341.596,181.791 342.5,182.5C 343.621,188.777 344.621,195.111 345.5,201.5C 350.556,233.506 355.723,265.506 361,297.5C 362.519,315.681 360.186,333.348 354,350.5C 335.007,392.257 302.507,413.924 256.5,415.5C 256.5,406.833 256.5,398.167 256.5,389.5C 292.828,387.931 318.328,370.598 333,337.5C 337.756,323.873 339.423,309.873 338,295.5C 333.002,264.18 328.169,232.847 323.5,201.5C 317.681,200.672 311.681,200.172 305.5,200C 298.631,193.298 291.964,186.465 285.5,179.5 Z"/></g>
<g><path style="opacity:1" fill="#d2e1f5" d="M 209.5,188.5 C 210.709,192.618 211.376,196.951 211.5,201.5C 206.833,201.5 202.167,201.5 197.5,201.5C 195.167,201.5 192.833,201.5 190.5,201.5C 192.631,200.686 194.964,200.186 197.5,200C 201.369,195.963 205.369,192.13 209.5,188.5 Z"/></g>
<g><path style="opacity:1" fill="#4852c9" d="M 190.5,201.5 C 192.833,201.5 195.167,201.5 197.5,201.5C 202.464,206.965 207.63,212.298 213,217.5C 213.464,216.906 213.631,216.239 213.5,215.5C 220.488,265.358 227.488,315.358 234.5,365.5C 234.833,366.5 235.167,367.5 235.5,368.5C 240.434,367.425 245.434,366.758 250.5,366.5C 245.205,323.766 239.538,281.1 233.5,238.5C 234.962,239.458 236.295,240.624 237.5,242C 238.167,242.667 238.833,242.667 239.5,242C 245.035,236.297 250.702,230.797 256.5,225.5C 256.5,280.167 256.5,334.833 256.5,389.5C 246.119,389.791 236.119,387.957 226.5,384C 189.795,366.93 172.629,338.097 175,297.5C 179.852,265.307 185.019,233.307 190.5,201.5 Z"/></g>
<g><path style="opacity:1" fill="#7a80ea" d="M 197.5,201.5 C 202.167,201.5 206.833,201.5 211.5,201.5C 211.833,201.5 212.167,201.5 212.5,201.5C 212.669,206.181 213.002,210.848 213.5,215.5C 213.631,216.239 213.464,216.906 213,217.5C 207.63,212.298 202.464,206.965 197.5,201.5 Z"/></g>
<g><path style="opacity:1" fill="#c1126a" d="M 212.5,201.5 C 217.833,201.5 223.167,201.5 228.5,201.5C 230.466,213.794 232.133,226.127 233.5,238.5C 239.538,281.1 245.205,323.766 250.5,366.5C 245.434,366.758 240.434,367.425 235.5,368.5C 235.167,367.5 234.833,366.5 234.5,365.5C 227.488,315.358 220.488,265.358 213.5,215.5C 213.002,210.848 212.669,206.181 212.5,201.5 Z"/></g>
<g><path style="opacity:1" fill="#7882ed" d="M 228.5,201.5 C 237.833,201.5 247.167,201.5 256.5,201.5C 256.5,209.5 256.5,217.5 256.5,225.5C 250.702,230.797 245.035,236.297 239.5,242C 238.833,242.667 238.167,242.667 237.5,242C 236.295,240.624 234.962,239.458 233.5,238.5C 232.133,226.127 230.466,213.794 228.5,201.5 Z"/></g>
<g><path style="opacity:1" fill="#4651c9" d="M 256.5,201.5 C 272.833,201.5 289.167,201.5 305.5,201.5C 293.854,213.812 281.854,225.812 269.5,237.5C 265.146,233.478 260.813,229.478 256.5,225.5C 256.5,217.5 256.5,209.5 256.5,201.5 Z"/></g>
<g><path style="opacity:1" fill="#3530a3" d="M 305.5,201.5 C 311.5,201.5 317.5,201.5 323.5,201.5C 328.169,232.847 333.002,264.18 338,295.5C 339.423,309.873 337.756,323.873 333,337.5C 318.328,370.598 292.828,387.931 256.5,389.5C 256.5,334.833 256.5,280.167 256.5,225.5C 260.813,229.478 265.146,233.478 269.5,237.5C 281.854,225.812 293.854,213.812 305.5,201.5 Z"/></g>
<g><path style="opacity:1" fill="#4551c9" d="M 289.5,234.5 C 299.584,244.083 309.584,253.916 319.5,264C 309.986,273.681 300.319,283.181 290.5,292.5C 280.5,283.167 270.833,273.5 261.5,263.5C 270.855,253.813 280.188,244.146 289.5,234.5 Z"/></g>
</svg>
