<?xml version="1.0" encoding="UTF-8"?>
<!DOCTYPE svg PUBLIC "-//W3C//DTD SVG 1.1//EN" "http://www.w3.org/Graphics/SVG/1.1/DTD/svg11.dtd">
<svg xmlns="http://www.w3.org/2000/svg" version="1.1" width="512px" height="512px" style="shape-rendering:geometricPrecision; text-rendering:geometricPrecision; image-rendering:optimizeQuality; fill-rule:evenodd; clip-rule:evenodd" xmlns:xlink="http://www.w3.org/1999/xlink">
<g><path style="opacity:0.997" fill="#8e4dd4" d="M 232.5,-0.5 C 247.833,-0.5 263.167,-0.5 278.5,-0.5C 368.144,10.3879 435.644,54.7213 481,132.5C 497.695,163.971 507.861,197.304 511.5,232.5C 511.5,247.833 511.5,263.167 511.5,278.5C 510.412,286.205 509.078,293.871 507.5,301.5C 460.216,252.549 412.216,204.216 363.5,156.5C 327.573,155.507 291.573,155.174 255.5,155.5C 242.167,155.5 228.833,155.5 215.5,155.5C 215.167,155.5 214.833,155.5 214.5,155.5C 205.5,145.833 196.167,136.5 186.5,127.5C 183.371,123.869 180.037,120.369 176.5,117C 175.365,116.251 174.365,116.417 173.5,117.5C 165.306,126.223 160.639,136.556 159.5,148.5C 158.532,150.607 158.198,152.941 158.5,155.5C 155.15,155.335 151.817,155.502 148.5,156C 140.235,199.966 153.901,235.466 189.5,262.5C 206.448,281.116 224.115,299.116 242.5,316.5C 242.667,342.835 242.5,369.169 242,395.5C 225.194,402.268 208.361,408.935 191.5,415.5C 190.29,415.932 189.29,416.599 188.5,417.5C 219.167,448.5 249.833,479.5 280.5,510.5C 279.508,510.328 278.842,510.662 278.5,511.5C 263.167,511.5 247.833,511.5 232.5,511.5C 142.856,500.612 75.3562,456.279 30,378.5C 13.3053,347.029 3.1386,313.696 -0.5,278.5C -0.5,263.167 -0.5,247.833 -0.5,232.5C 10.3875,142.857 54.7208,75.3573 132.5,30C 163.971,13.3053 197.304,3.1386 232.5,-0.5 Z"/></g>
<g><path style="opacity:1" fill="#fdd22b" d="M 186.5,127.5 C 179.31,135.395 175.644,144.728 175.5,155.5C 170.167,155.5 164.833,155.5 159.5,155.5C 159.5,153.167 159.5,150.833 159.5,148.5C 160.639,136.556 165.306,126.223 173.5,117.5C 174.365,116.417 175.365,116.251 176.5,117C 180.037,120.369 183.371,123.869 186.5,127.5 Z"/></g>
<g><path style="opacity:1" fill="#fee16f" d="M 186.5,127.5 C 196.167,136.5 205.5,145.833 214.5,155.5C 201.5,155.5 188.5,155.5 175.5,155.5C 175.644,144.728 179.31,135.395 186.5,127.5 Z"/></g>
<g><path style="opacity:1" fill="#fdfcfd" d="M 159.5,148.5 C 159.5,150.833 159.5,153.167 159.5,155.5C 159.353,160.214 159.686,164.881 160.5,169.5C 158.642,199.78 168.976,224.946 191.5,245C 210.684,260.428 229.684,276.095 248.5,292C 250.441,293.903 252.774,294.736 255.5,294.5C 256.5,294.5 257.5,294.5 258.5,294.5C 257.791,295.404 256.791,295.737 255.5,295.5C 255.5,335.833 255.5,376.167 255.5,416.5C 233.993,416.831 212.66,416.497 191.5,415.5C 208.361,408.935 225.194,402.268 242,395.5C 242.5,369.169 242.667,342.835 242.5,316.5C 242.665,312.818 242.499,309.152 242,305.5C 224.336,291.332 206.836,276.999 189.5,262.5C 153.901,235.466 140.235,199.966 148.5,156C 151.817,155.502 155.15,155.335 158.5,155.5C 158.198,152.941 158.532,150.607 159.5,148.5 Z"/></g>
<g><path style="opacity:1" fill="#ffae38" d="M 159.5,155.5 C 164.833,155.5 170.167,155.5 175.5,155.5C 175.964,160.621 176.964,165.621 178.5,170.5C 172.833,170.5 167.167,170.5 161.5,170.5C 161.5,169.833 161.167,169.5 160.5,169.5C 159.686,164.881 159.353,160.214 159.5,155.5 Z"/></g>
<g><path style="opacity:1" fill="#ffd428" d="M 175.5,155.5 C 188.5,155.5 201.5,155.5 214.5,155.5C 214.833,155.5 215.167,155.5 215.5,155.5C 220.167,160.5 224.833,165.5 229.5,170.5C 212.5,170.5 195.5,170.5 178.5,170.5C 176.964,165.621 175.964,160.621 175.5,155.5 Z"/></g>
<g><path style="opacity:1" fill="#fffefe" d="M 215.5,155.5 C 228.833,155.5 242.167,155.5 255.5,155.5C 255.5,160.5 255.5,165.5 255.5,170.5C 247.167,170.5 238.833,170.5 230.5,170.5C 230.167,170.5 229.833,170.5 229.5,170.5C 224.833,165.5 220.167,160.5 215.5,155.5 Z"/></g>
<g><path style="opacity:1" fill="#d5e7f6" d="M 255.5,155.5 C 291.573,155.174 327.573,155.507 363.5,156.5C 370.426,196.558 358.759,230.058 328.5,257C 308.758,273.286 288.925,289.453 269,305.5C 268.333,335.5 268.333,365.5 269,395.5C 285.801,402.267 302.634,408.933 319.5,415.5C 298.34,416.497 277.007,416.831 255.5,416.5C 255.5,376.167 255.5,335.833 255.5,295.5C 256.791,295.737 257.791,295.404 258.5,294.5C 278.336,278.167 298.336,262.001 318.5,246C 341.368,226.087 352.035,200.92 350.5,170.5C 318.833,170.5 287.167,170.5 255.5,170.5C 255.5,165.5 255.5,160.5 255.5,155.5 Z"/></g>
<g><path style="opacity:1" fill="#613393" d="M 363.5,156.5 C 412.216,204.216 460.216,252.549 507.5,301.5C 492.814,375.653 453.814,433.153 390.5,474C 356.688,494.659 320.022,506.826 280.5,510.5C 249.833,479.5 219.167,448.5 188.5,417.5C 233.168,417.667 277.835,417.5 322.5,417C 321.756,415.961 320.756,415.461 319.5,415.5C 302.634,408.933 285.801,402.267 269,395.5C 268.333,365.5 268.333,335.5 269,305.5C 288.925,289.453 308.758,273.286 328.5,257C 358.759,230.058 370.426,196.558 363.5,156.5 Z"/></g>
<g><path style="opacity:1" fill="#ffe16f" d="M 160.5,169.5 C 161.167,169.5 161.5,169.833 161.5,170.5C 167.859,191.69 181.859,204.856 203.5,210C 222.886,213.117 239.552,207.951 253.5,194.5C 250.146,190.479 246.479,186.812 242.5,183.5C 238.5,179.167 234.5,174.833 230.5,170.5C 238.833,170.5 247.167,170.5 255.5,170.5C 255.5,211.833 255.5,253.167 255.5,294.5C 252.774,294.736 250.441,293.903 248.5,292C 229.684,276.095 210.684,260.428 191.5,245C 168.976,224.946 158.642,199.78 160.5,169.5 Z"/></g>
<g><path style="opacity:1" fill="#ffad38" d="M 178.5,170.5 C 195.5,170.5 212.5,170.5 229.5,170.5C 229.833,170.5 230.167,170.5 230.5,170.5C 234.5,174.833 238.5,179.167 242.5,183.5C 221.13,199.622 201.297,197.955 183,178.5C 181.235,175.968 179.735,173.301 178.5,170.5 Z"/></g>
<g><path style="opacity:1" fill="#ff7d37" d="M 161.5,170.5 C 167.167,170.5 172.833,170.5 178.5,170.5C 179.735,173.301 181.235,175.968 183,178.5C 201.297,197.955 221.13,199.622 242.5,183.5C 246.479,186.812 250.146,190.479 253.5,194.5C 239.552,207.951 222.886,213.117 203.5,210C 181.859,204.856 167.859,191.69 161.5,170.5 Z"/></g>
<g><path style="opacity:1" fill="#fed428" d="M 255.5,170.5 C 287.167,170.5 318.833,170.5 350.5,170.5C 352.035,200.92 341.368,226.087 318.5,246C 298.336,262.001 278.336,278.167 258.5,294.5C 257.5,294.5 256.5,294.5 255.5,294.5C 255.5,253.167 255.5,211.833 255.5,170.5 Z"/></g>
<g><path style="opacity:1" fill="#653895" d="M 189.5,262.5 C 206.836,276.999 224.336,291.332 242,305.5C 242.499,309.152 242.665,312.818 242.5,316.5C 224.115,299.116 206.448,281.116 189.5,262.5 Z"/></g>
<g><path style="opacity:1" fill="#afa4d1" d="M 191.5,415.5 C 212.66,416.497 233.993,416.831 255.5,416.5C 277.007,416.831 298.34,416.497 319.5,415.5C 320.756,415.461 321.756,415.961 322.5,417C 277.835,417.5 233.168,417.667 188.5,417.5C 189.29,416.599 190.29,415.932 191.5,415.5 Z"/></g>
</svg>
