<?xml version="1.0" encoding="UTF-8"?>
<!DOCTYPE svg PUBLIC "-//W3C//DTD SVG 1.1//EN" "http://www.w3.org/Graphics/SVG/1.1/DTD/svg11.dtd">
<svg xmlns="http://www.w3.org/2000/svg" version="1.1" width="512px" height="512px" style="shape-rendering:geometricPrecision; text-rendering:geometricPrecision; image-rendering:optimizeQuality; fill-rule:evenodd; clip-rule:evenodd" xmlns:xlink="http://www.w3.org/1999/xlink">
<g><path style="opacity:0.998" fill="#5663df" d="M 232.5,-0.5 C 247.833,-0.5 263.167,-0.5 278.5,-0.5C 368.144,10.3879 435.644,54.7213 481,132.5C 497.695,163.971 507.861,197.304 511.5,232.5C 511.5,247.833 511.5,263.167 511.5,278.5C 510.138,291.005 507.804,303.339 504.5,315.5C 503.761,315.631 503.094,315.464 502.5,315C 426.299,238.632 349.965,162.465 273.5,86.5C 267.797,78.4365 260.464,76.6032 251.5,81C 249.622,82.5429 248.122,84.3762 247,86.5C 245.534,107.433 245.034,128.433 245.5,149.5C 247.833,149.5 250.167,149.5 252.5,149.5C 252.666,154.511 252.499,159.511 252,164.5C 250.22,165.639 248.386,166.639 246.5,167.5C 232.922,152.419 218.755,137.752 204,123.5C 203.5,135.495 203.333,147.495 203.5,159.5C 203.167,159.5 202.833,159.5 202.5,159.5C 202.5,147.167 202.5,134.833 202.5,122.5C 185.5,122.5 168.5,122.5 151.5,122.5C 150.501,209.998 150.167,297.665 150.5,385.5C 143.978,385.177 137.645,385.51 131.5,386.5C 131.5,393.167 131.5,399.833 131.5,406.5C 193.833,406.5 256.167,406.5 318.5,406.5C 343.5,406.5 368.5,406.5 393.5,406.5C 306.668,407.333 219.668,407.833 132.5,408C 166,441.5 199.5,475 233,508.5C 233.692,509.437 233.525,510.103 232.5,510.5C 142.638,500.417 75.1382,456.417 30,378.5C 13.3053,347.029 3.1386,313.696 -0.5,278.5C -0.5,263.167 -0.5,247.833 -0.5,232.5C 10.3875,142.857 54.7208,75.3573 132.5,30C 163.971,13.3053 197.304,3.1386 232.5,-0.5 Z"/></g>
<g><path style="opacity:1" fill="#fd2b30" d="M 273.5,86.5 C 274.466,107.467 274.799,128.467 274.5,149.5C 272.5,149.5 270.5,149.5 268.5,149.5C 263.167,149.5 257.833,149.5 252.5,149.5C 250.167,149.5 247.833,149.5 245.5,149.5C 245.034,128.433 245.534,107.433 247,86.5C 248.122,84.3762 249.622,82.5429 251.5,81C 260.464,76.6032 267.797,78.4365 273.5,86.5 Z"/></g>
<g><path style="opacity:1" fill="#3748da" d="M 273.5,86.5 C 349.965,162.465 426.299,238.632 502.5,315C 503.094,315.464 503.761,315.631 504.5,315.5C 487.576,383.577 449.576,436.41 390.5,474C 355.868,494.822 318.535,507.322 278.5,511.5C 263.167,511.5 247.833,511.5 232.5,511.5C 232.5,511.167 232.5,510.833 232.5,510.5C 233.525,510.103 233.692,509.437 233,508.5C 199.5,475 166,441.5 132.5,408C 219.668,407.833 306.668,407.333 393.5,406.5C 393.5,399.833 393.5,393.167 393.5,386.5C 378.342,385.504 363.009,385.17 347.5,385.5C 347.5,379.5 347.5,373.5 347.5,367.5C 347.392,363.753 347.892,360.086 349,356.5C 354.085,344.912 357.752,332.912 360,320.5C 360.5,298.169 360.667,275.836 360.5,253.5C 346.5,253.5 332.5,253.5 318.5,253.5C 304.833,253.5 291.167,253.5 277.5,253.5C 277.333,276.169 277.5,298.836 278,321.5C 279.913,332.908 283.246,343.908 288,354.5C 289.546,359.73 290.38,365.063 290.5,370.5C 290.5,375.833 290.5,381.167 290.5,386.5C 261.167,386.5 231.833,386.5 202.5,386.5C 202.5,326.833 202.5,267.167 202.5,207.5C 209.251,208.705 215.085,207.038 220,202.5C 221.009,200.975 221.509,199.308 221.5,197.5C 228.508,197.334 235.508,197.5 242.5,198C 249.466,206.429 258.133,208.762 268.5,205C 272.276,203.053 275.61,200.553 278.5,197.5C 284.176,197.334 289.843,197.501 295.5,198C 300.573,199.406 304.073,202.572 306,207.5C 306.5,215.827 306.666,224.16 306.5,232.5C 310.833,232.5 315.167,232.5 319.5,232.5C 323.5,232.5 327.5,232.5 331.5,232.5C 331.666,223.161 331.5,213.827 331,204.5C 329.304,196.77 325.804,190.104 320.5,184.5C 314.965,178.893 308.298,175.06 300.5,173C 293.174,172.5 285.841,172.334 278.5,172.5C 275.805,169.809 272.805,167.475 269.5,165.5C 268.505,160.208 268.172,154.875 268.5,149.5C 270.5,149.5 272.5,149.5 274.5,149.5C 274.799,128.467 274.466,107.467 273.5,86.5 Z"/></g>
<g><path style="opacity:1" fill="#6d5fca" d="M 151.5,122.5 C 151.5,210.5 151.5,298.5 151.5,386.5C 144.833,386.5 138.167,386.5 131.5,386.5C 137.645,385.51 143.978,385.177 150.5,385.5C 150.167,297.665 150.501,209.998 151.5,122.5 Z"/></g>
<g><path style="opacity:1" fill="#fe2b2f" d="M 151.5,122.5 C 168.5,122.5 185.5,122.5 202.5,122.5C 202.5,134.833 202.5,147.167 202.5,159.5C 202.5,175.5 202.5,191.5 202.5,207.5C 202.5,267.167 202.5,326.833 202.5,386.5C 185.5,386.5 168.5,386.5 151.5,386.5C 151.5,298.5 151.5,210.5 151.5,122.5 Z"/></g>
<g><path style="opacity:1" fill="#3848db" d="M 246.5,167.5 C 245.375,169.129 244.041,170.629 242.5,172C 235.842,172.5 229.175,172.666 222.5,172.5C 220.883,161.577 214.549,157.244 203.5,159.5C 203.333,147.495 203.5,135.495 204,123.5C 218.755,137.752 232.922,152.419 246.5,167.5 Z"/></g>
<g><path style="opacity:1" fill="#dad9e4" d="M 252.5,149.5 C 257.833,149.5 263.167,149.5 268.5,149.5C 268.172,154.875 268.505,160.208 269.5,165.5C 272.805,167.475 275.805,169.809 278.5,172.5C 282.386,180.791 282.386,189.124 278.5,197.5C 275.61,200.553 272.276,203.053 268.5,205C 258.133,208.762 249.466,206.429 242.5,198C 235.508,197.5 228.508,197.334 221.5,197.5C 221.509,199.308 221.009,200.975 220,202.5C 215.085,207.038 209.251,208.705 202.5,207.5C 202.5,191.5 202.5,175.5 202.5,159.5C 202.833,159.5 203.167,159.5 203.5,159.5C 214.549,157.244 220.883,161.577 222.5,172.5C 229.175,172.666 235.842,172.5 242.5,172C 244.041,170.629 245.375,169.129 246.5,167.5C 248.386,166.639 250.22,165.639 252,164.5C 252.499,159.511 252.666,154.511 252.5,149.5 Z"/></g>
<g><path style="opacity:1" fill="#fed42f" d="M 255.5,170.5 C 270.351,170.174 276.184,177.174 273,191.5C 266.062,200.824 258.062,201.824 249,194.5C 243.144,184.244 245.311,176.244 255.5,170.5 Z"/></g>
<g><path style="opacity:1" fill="#e5e5ee" d="M 278.5,172.5 C 285.841,172.334 293.174,172.5 300.5,173C 308.298,175.06 314.965,178.893 320.5,184.5C 319.504,200.325 319.17,216.325 319.5,232.5C 315.167,232.5 310.833,232.5 306.5,232.5C 306.666,224.16 306.5,215.827 306,207.5C 304.073,202.572 300.573,199.406 295.5,198C 289.843,197.501 284.176,197.334 278.5,197.5C 282.386,189.124 282.386,180.791 278.5,172.5 Z"/></g>
<g><path style="opacity:1" fill="#fbfbfe" d="M 320.5,184.5 C 325.804,190.104 329.304,196.77 331,204.5C 331.5,213.827 331.666,223.161 331.5,232.5C 327.5,232.5 323.5,232.5 319.5,232.5C 319.17,216.325 319.504,200.325 320.5,184.5 Z"/></g>
<g><path style="opacity:1" fill="#fefefe" d="M 318.5,253.5 C 318.5,258.5 318.5,263.5 318.5,268.5C 307.833,268.5 297.167,268.5 286.5,268.5C 286.333,284.503 286.5,300.503 287,316.5C 289.863,329.089 293.53,341.422 298,353.5C 298.172,360.346 298.672,367.013 299.5,373.5C 305.645,374.49 311.978,374.823 318.5,374.5C 318.5,378.5 318.5,382.5 318.5,386.5C 309.5,386.5 300.5,386.5 291.5,386.5C 291.821,380.974 291.488,375.64 290.5,370.5C 290.38,365.063 289.546,359.73 288,354.5C 283.246,343.908 279.913,332.908 278,321.5C 277.5,298.836 277.333,276.169 277.5,253.5C 291.167,253.5 304.833,253.5 318.5,253.5 Z"/></g>
<g><path style="opacity:1" fill="#f8eec1" d="M 318.5,253.5 C 332.5,253.5 346.5,253.5 360.5,253.5C 360.667,275.836 360.5,298.169 360,320.5C 357.752,332.912 354.085,344.912 349,356.5C 347.892,360.086 347.392,363.753 347.5,367.5C 346.51,373.645 346.177,379.978 346.5,386.5C 337.167,386.5 327.833,386.5 318.5,386.5C 318.5,382.5 318.5,378.5 318.5,374.5C 311.978,374.823 305.645,374.49 299.5,373.5C 305.833,373.5 312.167,373.5 318.5,373.5C 325.167,373.5 331.833,373.5 338.5,373.5C 338.189,365.772 338.689,358.105 340,350.5C 344.135,340.094 347.468,329.428 350,318.5C 350.5,301.837 350.667,285.17 350.5,268.5C 339.833,268.5 329.167,268.5 318.5,268.5C 318.5,263.5 318.5,258.5 318.5,253.5 Z"/></g>
<g><path style="opacity:1" fill="#ffd42a" d="M 318.5,268.5 C 318.5,303.5 318.5,338.5 318.5,373.5C 312.167,373.5 305.833,373.5 299.5,373.5C 298.672,367.013 298.172,360.346 298,353.5C 293.53,341.422 289.863,329.089 287,316.5C 286.5,300.503 286.333,284.503 286.5,268.5C 297.167,268.5 307.833,268.5 318.5,268.5 Z"/></g>
<g><path style="opacity:1" fill="#ffa21d" d="M 318.5,268.5 C 329.167,268.5 339.833,268.5 350.5,268.5C 350.667,285.17 350.5,301.837 350,318.5C 347.468,329.428 344.135,340.094 340,350.5C 338.689,358.105 338.189,365.772 338.5,373.5C 331.833,373.5 325.167,373.5 318.5,373.5C 318.5,338.5 318.5,303.5 318.5,268.5 Z"/></g>
<g><path style="opacity:1" fill="#626ddb" d="M 347.5,367.5 C 347.5,373.5 347.5,379.5 347.5,385.5C 363.009,385.17 378.342,385.504 393.5,386.5C 377.833,386.5 362.167,386.5 346.5,386.5C 346.177,379.978 346.51,373.645 347.5,367.5 Z"/></g>
<g><path style="opacity:1" fill="#e6e6ee" d="M 290.5,370.5 C 291.488,375.64 291.821,380.974 291.5,386.5C 300.5,386.5 309.5,386.5 318.5,386.5C 318.5,393.167 318.5,399.833 318.5,406.5C 256.167,406.5 193.833,406.5 131.5,406.5C 131.5,399.833 131.5,393.167 131.5,386.5C 138.167,386.5 144.833,386.5 151.5,386.5C 168.5,386.5 185.5,386.5 202.5,386.5C 231.833,386.5 261.167,386.5 290.5,386.5C 290.5,381.167 290.5,375.833 290.5,370.5 Z"/></g>
<g><path style="opacity:1" fill="#d7d7e2" d="M 318.5,386.5 C 327.833,386.5 337.167,386.5 346.5,386.5C 362.167,386.5 377.833,386.5 393.5,386.5C 393.5,393.167 393.5,399.833 393.5,406.5C 368.5,406.5 343.5,406.5 318.5,406.5C 318.5,399.833 318.5,393.167 318.5,386.5 Z"/></g>
</svg>
