<?xml version="1.0" encoding="UTF-8"?>
<!DOCTYPE svg PUBLIC "-//W3C//DTD SVG 1.1//EN" "http://www.w3.org/Graphics/SVG/1.1/DTD/svg11.dtd">
<svg xmlns="http://www.w3.org/2000/svg" version="1.1" width="512px" height="512px" style="shape-rendering:geometricPrecision; text-rendering:geometricPrecision; image-rendering:optimizeQuality; fill-rule:evenodd; clip-rule:evenodd" xmlns:xlink="http://www.w3.org/1999/xlink">
<g><path style="opacity:0.998" fill="#7883ed" d="M 232.5,-0.5 C 247.833,-0.5 263.167,-0.5 278.5,-0.5C 368.144,10.3879 435.644,54.7213 481,132.5C 497.695,163.971 507.861,197.304 511.5,232.5C 511.5,247.833 511.5,263.167 511.5,278.5C 510.763,281.725 510.097,285.059 509.5,288.5C 473.368,252.868 437.368,217.035 401.5,181C 400.563,180.308 399.897,180.475 399.5,181.5C 387.575,163.366 370.575,154.366 348.5,154.5C 344.895,149.226 340.562,144.559 335.5,140.5C 328.833,140.5 322.167,140.5 315.5,140.5C 314.833,139.833 314.167,139.167 313.5,138.5C 306.715,129.774 297.715,125.274 286.5,125C 280.812,111.151 270.479,103.651 255.5,102.5C 239.887,103.132 229.554,110.799 224.5,125.5C 211.865,124.983 202.198,129.983 195.5,140.5C 188.833,140.5 182.167,140.5 175.5,140.5C 175.333,182.168 175.5,223.835 176,265.5C 180.262,287.387 191.095,305.054 208.5,318.5C 213.815,325.499 220.148,332.166 227.5,338.5C 224.566,350.191 227.399,360.191 236,368.5C 236.499,373.489 236.666,378.489 236.5,383.5C 219.5,383.5 202.5,383.5 185.5,383.5C 185.5,391.833 185.5,400.167 185.5,408.5C 218.883,442.883 252.883,476.55 287.5,509.5C 284.5,510.167 281.5,510.833 278.5,511.5C 263.167,511.5 247.833,511.5 232.5,511.5C 142.856,500.612 75.3562,456.279 30,378.5C 13.3053,347.029 3.1386,313.696 -0.5,278.5C -0.5,263.167 -0.5,247.833 -0.5,232.5C 10.3875,142.857 54.7208,75.3573 132.5,30C 163.971,13.3053 197.304,3.1386 232.5,-0.5 Z"/></g>
<g><path style="opacity:1" fill="#fde06f" d="M 255.5,102.5 C 255.5,115.167 255.5,127.833 255.5,140.5C 235.5,140.5 215.5,140.5 195.5,140.5C 202.198,129.983 211.865,124.983 224.5,125.5C 229.554,110.799 239.887,103.132 255.5,102.5 Z"/></g>
<g><path style="opacity:1" fill="#fdd22a" d="M 255.5,102.5 C 270.479,103.651 280.812,111.151 286.5,125C 297.715,125.274 306.715,129.774 313.5,138.5C 294.529,140.488 275.196,141.154 255.5,140.5C 255.5,127.833 255.5,115.167 255.5,102.5 Z"/></g>
<g><path style="opacity:1" fill="#fdfdfe" d="M 195.5,140.5 C 193.74,143.689 192.24,147.022 191,150.5C 190.5,157.492 190.334,164.492 190.5,171.5C 190.5,184.833 190.5,198.167 190.5,211.5C 190.333,226.837 190.5,242.17 191,257.5C 193.896,278.707 204.396,294.873 222.5,306C 232.76,311.802 243.76,314.635 255.5,314.5C 255.5,345.5 255.5,376.5 255.5,407.5C 255.5,407.833 255.5,408.167 255.5,408.5C 232.167,408.5 208.833,408.5 185.5,408.5C 185.5,400.167 185.5,391.833 185.5,383.5C 202.5,383.5 219.5,383.5 236.5,383.5C 236.666,378.489 236.499,373.489 236,368.5C 227.399,360.191 224.566,350.191 227.5,338.5C 228.628,335.595 230.295,332.928 232.5,330.5C 223.924,327.546 215.924,323.546 208.5,318.5C 191.095,305.054 180.262,287.387 176,265.5C 175.5,223.835 175.333,182.168 175.5,140.5C 182.167,140.5 188.833,140.5 195.5,140.5 Z"/></g>
<g><path style="opacity:1" fill="#ffd328" d="M 195.5,140.5 C 215.5,140.5 235.5,140.5 255.5,140.5C 255.5,150.833 255.5,161.167 255.5,171.5C 233.833,171.5 212.167,171.5 190.5,171.5C 190.334,164.492 190.5,157.492 191,150.5C 192.24,147.022 193.74,143.689 195.5,140.5 Z"/></g>
<g><path style="opacity:1" fill="#feae38" d="M 313.5,138.5 C 314.167,139.167 314.833,139.833 315.5,140.5C 316.654,143.479 317.82,146.479 319,149.5C 319.5,156.826 319.666,164.159 319.5,171.5C 298.167,171.5 276.833,171.5 255.5,171.5C 255.5,161.167 255.5,150.833 255.5,140.5C 275.196,141.154 294.529,140.488 313.5,138.5 Z"/></g>
<g><path style="opacity:1" fill="#d4e6f6" d="M 315.5,140.5 C 322.167,140.5 328.833,140.5 335.5,140.5C 335.334,145.844 335.501,151.177 336,156.5C 339.983,154.897 344.15,154.23 348.5,154.5C 370.575,154.366 387.575,163.366 399.5,181.5C 413.31,209.807 408.643,234.641 385.5,256C 370.266,266.595 353.6,269.762 335.5,265.5C 328.229,297.439 309.229,319.105 278.5,330.5C 284.599,340.83 285.099,351.497 280,362.5C 278.71,364.792 277.043,366.792 275,368.5C 274.501,373.489 274.334,378.489 274.5,383.5C 290.992,384.497 307.658,384.83 324.5,384.5C 324.5,392.167 324.5,399.833 324.5,407.5C 301.5,407.5 278.5,407.5 255.5,407.5C 255.5,376.5 255.5,345.5 255.5,314.5C 289.96,312.211 311.127,294.211 319,260.5C 319.5,243.837 319.667,227.17 319.5,210.5C 319.5,197.833 319.5,185.167 319.5,172.5C 319.5,172.167 319.5,171.833 319.5,171.5C 319.666,164.159 319.5,156.826 319,149.5C 317.82,146.479 316.654,143.479 315.5,140.5 Z"/></g>
<g><path style="opacity:1" fill="#4854cb" d="M 335.5,140.5 C 340.562,144.559 344.895,149.226 348.5,154.5C 344.15,154.23 339.983,154.897 336,156.5C 335.501,151.177 335.334,145.844 335.5,140.5 Z"/></g>
<g><path style="opacity:1" fill="#ad7345" d="M 190.5,171.5 C 212.167,171.5 233.833,171.5 255.5,171.5C 276.833,171.5 298.167,171.5 319.5,171.5C 319.5,171.833 319.5,172.167 319.5,172.5C 298.167,172.5 276.833,172.5 255.5,172.5C 255.5,185.167 255.5,197.833 255.5,210.5C 233.788,210.189 212.121,210.522 190.5,211.5C 190.5,198.167 190.5,184.833 190.5,171.5 Z"/></g>
<g><path style="opacity:1" fill="#94623a" d="M 319.5,172.5 C 319.5,185.167 319.5,197.833 319.5,210.5C 298.167,210.5 276.833,210.5 255.5,210.5C 255.5,197.833 255.5,185.167 255.5,172.5C 276.833,172.5 298.167,172.5 319.5,172.5 Z"/></g>
<g><path style="opacity:1" fill="#4652ca" d="M 342.5,176.5 C 372.186,175.02 386.352,189.02 385,218.5C 378.333,239.094 364.167,247.928 342.5,245C 340.385,244.443 338.385,243.609 336.5,242.5C 335.167,221.5 335.167,200.5 336.5,179.5C 338.604,178.481 340.604,177.481 342.5,176.5 Z"/></g>
<g><path style="opacity:1" fill="#4652ca" d="M 509.5,288.5 C 497.653,368.402 457.986,430.235 390.5,474C 358.835,493.5 324.501,505.333 287.5,509.5C 252.883,476.55 218.883,442.883 185.5,408.5C 208.833,408.5 232.167,408.5 255.5,408.5C 278.833,408.5 302.167,408.5 325.5,408.5C 325.5,400.167 325.5,391.833 325.5,383.5C 308.5,383.5 291.5,383.5 274.5,383.5C 274.334,378.489 274.501,373.489 275,368.5C 277.043,366.792 278.71,364.792 280,362.5C 285.099,351.497 284.599,340.83 278.5,330.5C 309.229,319.105 328.229,297.439 335.5,265.5C 353.6,269.762 370.266,266.595 385.5,256C 408.643,234.641 413.31,209.807 399.5,181.5C 399.897,180.475 400.563,180.308 401.5,181C 437.368,217.035 473.368,252.868 509.5,288.5 Z"/></g>
<g><path style="opacity:1" fill="#95623b" d="M 255.5,210.5 C 255.5,245.167 255.5,279.833 255.5,314.5C 243.76,314.635 232.76,311.802 222.5,306C 204.396,294.873 193.896,278.707 191,257.5C 190.5,242.17 190.333,226.837 190.5,211.5C 212.121,210.522 233.788,210.189 255.5,210.5 Z"/></g>
<g><path style="opacity:1" fill="#71482a" d="M 255.5,210.5 C 276.833,210.5 298.167,210.5 319.5,210.5C 319.667,227.17 319.5,243.837 319,260.5C 311.127,294.211 289.96,312.211 255.5,314.5C 255.5,279.833 255.5,245.167 255.5,210.5 Z"/></g>
<g><path style="opacity:1" fill="#4e59cd" d="M 208.5,318.5 C 215.924,323.546 223.924,327.546 232.5,330.5C 230.295,332.928 228.628,335.595 227.5,338.5C 220.148,332.166 213.815,325.499 208.5,318.5 Z"/></g>
<g><path style="opacity:1" fill="#bacbef" d="M 274.5,383.5 C 291.5,383.5 308.5,383.5 325.5,383.5C 325.5,391.833 325.5,400.167 325.5,408.5C 302.167,408.5 278.833,408.5 255.5,408.5C 255.5,408.167 255.5,407.833 255.5,407.5C 278.5,407.5 301.5,407.5 324.5,407.5C 324.5,399.833 324.5,392.167 324.5,384.5C 307.658,384.83 290.992,384.497 274.5,383.5 Z"/></g>
</svg>
