<?xml version="1.0" encoding="UTF-8"?>
<!DOCTYPE svg PUBLIC "-//W3C//DTD SVG 1.1//EN" "http://www.w3.org/Graphics/SVG/1.1/DTD/svg11.dtd">
<svg xmlns="http://www.w3.org/2000/svg" version="1.1" width="512px" height="512px" style="shape-rendering:geometricPrecision; text-rendering:geometricPrecision; image-rendering:optimizeQuality; fill-rule:evenodd; clip-rule:evenodd" xmlns:xlink="http://www.w3.org/1999/xlink">
<g><path style="opacity:0.996" fill="#b8ecfe" d="M 232.5,-0.5 C 247.833,-0.5 263.167,-0.5 278.5,-0.5C 368.144,10.3879 435.644,54.7213 481,132.5C 497.695,163.971 507.861,197.304 511.5,232.5C 511.5,239.5 511.5,246.5 511.5,253.5C 447.201,189.701 383.035,125.701 319,61.5C 318.601,61.7284 318.435,62.0618 318.5,62.5C 308.856,49.243 298.022,48.243 286,59.5C 285,61.5 284,63.5 283,65.5C 282.5,74.4938 282.334,83.4938 282.5,92.5C 273.167,83.5 263.833,74.5 254.5,65.5C 224.464,53.0726 194.297,40.7393 164,28.5C 148.898,57.7043 134.065,87.0377 119.5,116.5C 130.812,128.479 142.479,140.146 154.5,151.5C 155.167,144.345 155.833,137.345 156.5,130.5C 156.5,145.5 156.5,160.5 156.5,175.5C 156.5,230.833 156.5,286.167 156.5,341.5C 156.5,358.833 156.5,376.167 156.5,393.5C 156.5,418.833 156.5,444.167 156.5,469.5C 166.798,480.298 177.298,490.965 188,501.5C 188.464,502.094 188.631,502.761 188.5,503.5C 109.246,480.28 52.7456,430.947 19,355.5C 8.86392,330.621 2.36392,304.954 -0.5,278.5C -0.5,263.167 -0.5,247.833 -0.5,232.5C 10.3875,142.857 54.7208,75.3573 132.5,30C 163.971,13.3053 197.304,3.1386 232.5,-0.5 Z"/></g>
<g><path style="opacity:1" fill="#f83f82" d="M 254.5,65.5 C 239.287,75.2735 223.621,84.2735 207.5,92.5C 196.777,96.5359 186.11,100.536 175.5,104.5C 157.12,109.761 138.454,113.761 119.5,116.5C 134.065,87.0377 148.898,57.7043 164,28.5C 194.297,40.7393 224.464,53.0726 254.5,65.5 Z"/></g>
<g><path style="opacity:1" fill="#4fbf75" d="M 318.5,62.5 C 319.479,85.1214 319.812,107.788 319.5,130.5C 307.167,130.5 294.833,130.5 282.5,130.5C 282.5,117.833 282.5,105.167 282.5,92.5C 282.334,83.4938 282.5,74.4938 283,65.5C 284,63.5 285,61.5 286,59.5C 298.022,48.243 308.856,49.243 318.5,62.5 Z"/></g>
<g><path style="opacity:1" fill="#78d2fe" d="M 511.5,253.5 C 511.5,261.833 511.5,270.167 511.5,278.5C 500.612,368.144 456.279,435.644 378.5,481C 347.029,497.695 313.696,507.861 278.5,511.5C 263.167,511.5 247.833,511.5 232.5,511.5C 217.842,509.504 203.176,506.837 188.5,503.5C 188.631,502.761 188.464,502.094 188,501.5C 177.298,490.965 166.798,480.298 156.5,469.5C 189.5,469.5 222.5,469.5 255.5,469.5C 288.833,469.5 322.167,469.5 355.5,469.5C 355.833,371.332 355.499,273.332 354.5,175.5C 354.5,160.5 354.5,145.5 354.5,130.5C 342.833,130.5 331.167,130.5 319.5,130.5C 319.812,107.788 319.479,85.1214 318.5,62.5C 318.435,62.0618 318.601,61.7284 319,61.5C 383.035,125.701 447.201,189.701 511.5,253.5 Z"/></g>
<g><path style="opacity:1" fill="#78d1fe" d="M 254.5,65.5 C 263.833,74.5 273.167,83.5 282.5,92.5C 282.5,105.167 282.5,117.833 282.5,130.5C 261.5,130.5 240.5,130.5 219.5,130.5C 215.668,117.677 211.668,105.01 207.5,92.5C 223.621,84.2735 239.287,75.2735 254.5,65.5 Z"/></g>
<g><path style="opacity:1" fill="#7f5b5c" d="M 207.5,92.5 C 211.668,105.01 215.668,117.677 219.5,130.5C 207.167,130.5 194.833,130.5 182.5,130.5C 180.576,121.726 178.242,113.06 175.5,104.5C 186.11,100.536 196.777,96.5359 207.5,92.5 Z"/></g>
<g><path style="opacity:1" fill="#7ad0fd" d="M 175.5,104.5 C 178.242,113.06 180.576,121.726 182.5,130.5C 173.833,130.5 165.167,130.5 156.5,130.5C 155.833,137.345 155.167,144.345 154.5,151.5C 142.479,140.146 130.812,128.479 119.5,116.5C 138.454,113.761 157.12,109.761 175.5,104.5 Z"/></g>
<g><path style="opacity:1" fill="#fefefe" d="M 156.5,130.5 C 165.167,130.5 173.833,130.5 182.5,130.5C 194.833,130.5 207.167,130.5 219.5,130.5C 231.322,131.495 243.322,131.828 255.5,131.5C 255.5,146.167 255.5,160.833 255.5,175.5C 222.5,175.5 189.5,175.5 156.5,175.5C 156.5,160.5 156.5,145.5 156.5,130.5 Z"/></g>
<g><path style="opacity:1" fill="#e9e9ea" d="M 219.5,130.5 C 240.5,130.5 261.5,130.5 282.5,130.5C 294.833,130.5 307.167,130.5 319.5,130.5C 331.167,130.5 342.833,130.5 354.5,130.5C 354.5,145.5 354.5,160.5 354.5,175.5C 321.5,175.5 288.5,175.5 255.5,175.5C 255.5,160.833 255.5,146.167 255.5,131.5C 243.322,131.828 231.322,131.495 219.5,130.5 Z"/></g>
<g><path style="opacity:1" fill="#fee56c" d="M 156.5,175.5 C 189.5,175.5 222.5,175.5 255.5,175.5C 288.5,175.5 321.5,175.5 354.5,175.5C 354.5,175.833 354.5,176.167 354.5,176.5C 321.5,176.5 288.5,176.5 255.5,176.5C 255.5,231.5 255.5,286.5 255.5,341.5C 222.5,341.5 189.5,341.5 156.5,341.5C 156.5,286.167 156.5,230.833 156.5,175.5 Z"/></g>
<g><path style="opacity:1" fill="#fec035" d="M 354.5,176.5 C 354.5,231.5 354.5,286.5 354.5,341.5C 321.5,341.5 288.5,341.5 255.5,341.5C 255.5,286.5 255.5,231.5 255.5,176.5C 288.5,176.5 321.5,176.5 354.5,176.5 Z"/></g>
<g><path style="opacity:1" fill="#f79521" d="M 299.5,210.5 C 317.269,209.755 323.436,217.755 318,234.5C 308.264,244.11 299.264,243.443 291,232.5C 287.669,222.646 290.502,215.313 299.5,210.5 Z"/></g>
<g><path style="opacity:1" fill="#ffc137" d="M 206.5,248.5 C 220.313,248.145 226.813,254.812 226,268.5C 220.748,279.474 212.582,282.307 201.5,277C 193.919,268.946 193.586,260.613 200.5,252C 202.727,251.059 204.727,249.892 206.5,248.5 Z"/></g>
<g><path style="opacity:1" fill="#f79521" d="M 280.5,283.5 C 298.032,282.93 304.199,290.93 299,307.5C 290.333,316.833 281.667,316.833 273,307.5C 267.802,296.958 270.302,288.958 280.5,283.5 Z"/></g>
<g><path style="opacity:1" fill="#f79521" d="M 156.5,341.5 C 189.5,341.5 222.5,341.5 255.5,341.5C 255.5,369.833 255.5,398.167 255.5,426.5C 235.833,426.5 216.167,426.5 196.5,426.5C 175.907,424.236 162.574,413.236 156.5,393.5C 156.5,376.167 156.5,358.833 156.5,341.5 Z"/></g>
<g><path style="opacity:1" fill="#e07012" d="M 255.5,341.5 C 288.5,341.5 321.5,341.5 354.5,341.5C 354.667,358.837 354.5,376.17 354,393.5C 348.73,412.104 336.563,422.938 317.5,426C 296.836,426.5 276.169,426.667 255.5,426.5C 255.5,398.167 255.5,369.833 255.5,341.5 Z"/></g>
<g><path style="opacity:1" fill="#fffefe" d="M 156.5,393.5 C 162.574,413.236 175.907,424.236 196.5,426.5C 215.993,427.497 235.66,427.83 255.5,427.5C 255.5,441.5 255.5,455.5 255.5,469.5C 222.5,469.5 189.5,469.5 156.5,469.5C 156.5,444.167 156.5,418.833 156.5,393.5 Z"/></g>
<g><path style="opacity:1" fill="#e6e8e8" d="M 354.5,175.5 C 355.499,273.332 355.833,371.332 355.5,469.5C 322.167,469.5 288.833,469.5 255.5,469.5C 255.5,455.5 255.5,441.5 255.5,427.5C 235.66,427.83 215.993,427.497 196.5,426.5C 216.167,426.5 235.833,426.5 255.5,426.5C 276.169,426.667 296.836,426.5 317.5,426C 336.563,422.938 348.73,412.104 354,393.5C 354.5,376.17 354.667,358.837 354.5,341.5C 354.5,286.5 354.5,231.5 354.5,176.5C 354.5,176.167 354.5,175.833 354.5,175.5 Z"/></g>
</svg>
