<?xml version="1.0" encoding="UTF-8"?>
<!DOCTYPE svg PUBLIC "-//W3C//DTD SVG 1.1//EN" "http://www.w3.org/Graphics/SVG/1.1/DTD/svg11.dtd">
<svg xmlns="http://www.w3.org/2000/svg" version="1.1" width="512px" height="512px" style="shape-rendering:geometricPrecision; text-rendering:geometricPrecision; image-rendering:optimizeQuality; fill-rule:evenodd; clip-rule:evenodd" xmlns:xlink="http://www.w3.org/1999/xlink">
<g><path style="opacity:0.996" fill="#97e380" d="M 232.5,-0.5 C 247.833,-0.5 263.167,-0.5 278.5,-0.5C 368.144,10.3879 435.644,54.7213 481,132.5C 497.695,163.971 507.861,197.304 511.5,232.5C 511.5,247.833 511.5,263.167 511.5,278.5C 510.323,287.914 508.656,297.247 506.5,306.5C 470.535,271.035 434.701,235.368 399,199.5C 398.829,207.011 398.329,214.345 397.5,221.5C 397.5,213.833 397.5,206.167 397.5,198.5C 376.833,177.167 355.833,156.167 334.5,135.5C 330.231,130.259 325.064,129.259 319,132.5C 309.538,128.131 304.371,131.131 303.5,141.5C 296.135,141.714 293.635,145.38 296,152.5C 297.412,154.452 299.245,155.785 301.5,156.5C 301.5,168.833 301.5,181.167 301.5,193.5C 301.328,194.492 301.662,195.158 302.5,195.5C 303.167,196.5 303.833,197.5 304.5,198.5C 292.833,198.5 281.167,198.5 269.5,198.5C 251.833,179.827 233.833,162.16 215.5,145.5C 213.723,142.611 211.056,141.278 207.5,141.5C 206.357,131.259 201.024,128.259 191.5,132.5C 182.692,128.403 177.026,131.07 174.5,140.5C 169.089,142.382 166.922,146.048 168,151.5C 169.055,154.056 170.888,155.723 173.5,156.5C 173.5,168.833 173.5,181.167 173.5,193.5C 173.328,194.492 173.662,195.158 174.5,195.5C 175.167,196.5 175.833,197.5 176.5,198.5C 155.5,198.5 134.5,198.5 113.5,198.5C 113.5,206.167 113.5,213.833 113.5,221.5C 117.797,226.298 122.297,230.965 127,235.5C 127.499,230.845 127.666,226.179 127.5,221.5C 127.833,221.5 128.167,221.5 128.5,221.5C 128.5,257.5 128.5,293.5 128.5,329.5C 122.5,329.5 116.5,329.5 110.5,329.5C 110.5,334.5 110.5,339.5 110.5,344.5C 110.842,345.338 111.508,345.672 112.5,345.5C 117.167,350.833 122.167,355.833 127.5,360.5C 127.179,366.026 127.512,371.36 128.5,376.5C 136.833,376.5 145.167,376.5 153.5,376.5C 153.5,376.833 153.5,377.167 153.5,377.5C 145.493,377.334 137.493,377.5 129.5,378C 174.035,422.368 218.368,466.868 262.5,511.5C 252.5,511.5 242.5,511.5 232.5,511.5C 142.856,500.612 75.3562,456.279 30,378.5C 13.3053,347.029 3.1386,313.696 -0.5,278.5C -0.5,263.167 -0.5,247.833 -0.5,232.5C 10.3875,142.857 54.7208,75.3573 132.5,30C 163.971,13.3053 197.304,3.1386 232.5,-0.5 Z"/></g>
<g><path style="opacity:1" fill="#fdfefd" d="M 215.5,145.5 C 216.614,150.572 214.947,154.239 210.5,156.5C 198.167,156.5 185.833,156.5 173.5,156.5C 170.888,155.723 169.055,154.056 168,151.5C 166.922,146.048 169.089,142.382 174.5,140.5C 177.026,131.07 182.692,128.403 191.5,132.5C 201.024,128.259 206.357,131.259 207.5,141.5C 211.056,141.278 213.723,142.611 215.5,145.5 Z"/></g>
<g><path style="opacity:1" fill="#e6e6ec" d="M 334.5,135.5 C 334.5,137.5 334.5,139.5 334.5,141.5C 342.301,142.094 344.801,146.094 342,153.5C 340.855,154.636 339.688,155.636 338.5,156.5C 326.167,156.5 313.833,156.5 301.5,156.5C 299.245,155.785 297.412,154.452 296,152.5C 293.635,145.38 296.135,141.714 303.5,141.5C 304.371,131.131 309.538,128.131 319,132.5C 325.064,129.259 330.231,130.259 334.5,135.5 Z"/></g>
<g><path style="opacity:1" fill="#77dc5a" d="M 269.5,198.5 C 264.833,198.5 260.167,198.5 255.5,198.5C 239.167,198.5 222.833,198.5 206.5,198.5C 207.5,197.167 208.5,195.833 209.5,194.5C 210.461,192.735 210.795,190.735 210.5,188.5C 214.516,189.1 218.016,188.1 221,185.5C 222.968,177.475 222.968,169.475 221,161.5C 218.016,158.9 214.516,157.9 210.5,158.5C 210.5,157.833 210.5,157.167 210.5,156.5C 214.947,154.239 216.614,150.572 215.5,145.5C 233.833,162.16 251.833,179.827 269.5,198.5 Z"/></g>
<g><path style="opacity:1" fill="#78dc5b" d="M 334.5,135.5 C 355.833,156.167 376.833,177.167 397.5,198.5C 376.5,198.5 355.5,198.5 334.5,198.5C 335.5,197.167 336.5,195.833 337.5,194.5C 337.5,194.167 337.5,193.833 337.5,193.5C 338.451,192.081 338.784,190.415 338.5,188.5C 342.516,189.1 346.016,188.1 349,185.5C 350.968,177.475 350.968,169.475 349,161.5C 346.016,158.9 342.516,157.9 338.5,158.5C 338.5,157.833 338.5,157.167 338.5,156.5C 339.688,155.636 340.855,154.636 342,153.5C 344.801,146.094 342.301,142.094 334.5,141.5C 334.5,139.5 334.5,137.5 334.5,135.5 Z"/></g>
<g><path style="opacity:1" fill="#fde26f" d="M 173.5,156.5 C 185.833,156.5 198.167,156.5 210.5,156.5C 210.5,157.167 210.5,157.833 210.5,158.5C 210.5,160.167 210.5,161.833 210.5,163.5C 210.5,170.167 210.5,176.833 210.5,183.5C 210.5,185.167 210.5,186.833 210.5,188.5C 210.795,190.735 210.461,192.735 209.5,194.5C 197.678,193.505 185.678,193.172 173.5,193.5C 173.5,181.167 173.5,168.833 173.5,156.5 Z"/></g>
<g><path style="opacity:1" fill="#fdd429" d="M 301.5,156.5 C 313.833,156.5 326.167,156.5 338.5,156.5C 338.5,157.167 338.5,157.833 338.5,158.5C 338.5,160.167 338.5,161.833 338.5,163.5C 338.5,170.167 338.5,176.833 338.5,183.5C 338.5,185.167 338.5,186.833 338.5,188.5C 338.784,190.415 338.451,192.081 337.5,193.5C 325.5,193.5 313.5,193.5 301.5,193.5C 301.5,181.167 301.5,168.833 301.5,156.5 Z"/></g>
<g><path style="opacity:1" fill="#e4e6ea" d="M 210.5,158.5 C 214.516,157.9 218.016,158.9 221,161.5C 222.968,169.475 222.968,177.475 221,185.5C 218.016,188.1 214.516,189.1 210.5,188.5C 210.5,186.833 210.5,185.167 210.5,183.5C 212.792,183.756 214.959,183.423 217,182.5C 217.667,176.5 217.667,170.5 217,164.5C 214.959,163.577 212.792,163.244 210.5,163.5C 210.5,161.833 210.5,160.167 210.5,158.5 Z"/></g>
<g><path style="opacity:1" fill="#d4d7de" d="M 338.5,158.5 C 342.516,157.9 346.016,158.9 349,161.5C 350.968,169.475 350.968,177.475 349,185.5C 346.016,188.1 342.516,189.1 338.5,188.5C 338.5,186.833 338.5,185.167 338.5,183.5C 340.792,183.756 342.959,183.423 345,182.5C 345.667,176.5 345.667,170.5 345,164.5C 342.959,163.577 340.792,163.244 338.5,163.5C 338.5,161.833 338.5,160.167 338.5,158.5 Z"/></g>
<g><path style="opacity:1" fill="#7adc5e" d="M 210.5,163.5 C 212.792,163.244 214.959,163.577 217,164.5C 217.667,170.5 217.667,176.5 217,182.5C 214.959,183.423 212.792,183.756 210.5,183.5C 210.5,176.833 210.5,170.167 210.5,163.5 Z"/></g>
<g><path style="opacity:1" fill="#7adb5e" d="M 338.5,163.5 C 340.792,163.244 342.959,163.577 345,164.5C 345.667,170.5 345.667,176.5 345,182.5C 342.959,183.423 340.792,183.756 338.5,183.5C 338.5,176.833 338.5,170.167 338.5,163.5 Z"/></g>
<g><path style="opacity:1" fill="#efe4b4" d="M 173.5,193.5 C 185.678,193.172 197.678,193.505 209.5,194.5C 197.655,194.172 185.988,194.505 174.5,195.5C 173.662,195.158 173.328,194.492 173.5,193.5 Z"/></g>
<g><path style="opacity:1" fill="#e6d590" d="M 301.5,193.5 C 313.5,193.5 325.5,193.5 337.5,193.5C 337.5,193.833 337.5,194.167 337.5,194.5C 325.655,194.172 313.988,194.505 302.5,195.5C 301.662,195.158 301.328,194.492 301.5,193.5 Z"/></g>
<g><path style="opacity:1" fill="#e6e6ed" d="M 209.5,194.5 C 208.5,195.833 207.5,197.167 206.5,198.5C 196.5,198.5 186.5,198.5 176.5,198.5C 175.833,197.5 175.167,196.5 174.5,195.5C 185.988,194.505 197.655,194.172 209.5,194.5 Z"/></g>
<g><path style="opacity:1" fill="#d6d7e1" d="M 337.5,194.5 C 336.5,195.833 335.5,197.167 334.5,198.5C 324.5,198.5 314.5,198.5 304.5,198.5C 303.833,197.5 303.167,196.5 302.5,195.5C 313.988,194.505 325.655,194.172 337.5,194.5 Z"/></g>
<g><path style="opacity:1" fill="#905f4c" d="M 176.5,198.5 C 186.5,198.5 196.5,198.5 206.5,198.5C 222.833,198.5 239.167,198.5 255.5,198.5C 255.5,206.167 255.5,213.833 255.5,221.5C 213.167,221.5 170.833,221.5 128.5,221.5C 128.167,221.5 127.833,221.5 127.5,221.5C 122.833,221.5 118.167,221.5 113.5,221.5C 113.5,213.833 113.5,206.167 113.5,198.5C 134.5,198.5 155.5,198.5 176.5,198.5 Z"/></g>
<g><path style="opacity:1" fill="#704738" d="M 255.5,198.5 C 260.167,198.5 264.833,198.5 269.5,198.5C 281.167,198.5 292.833,198.5 304.5,198.5C 314.5,198.5 324.5,198.5 334.5,198.5C 355.5,198.5 376.5,198.5 397.5,198.5C 397.5,206.167 397.5,213.833 397.5,221.5C 392.5,221.5 387.5,221.5 382.5,221.5C 340.167,221.5 297.833,221.5 255.5,221.5C 255.5,213.833 255.5,206.167 255.5,198.5 Z"/></g>
<g><path style="opacity:1" fill="#77db5a" d="M 506.5,306.5 C 487.087,393.486 436.754,455.319 355.5,492C 330.621,502.136 304.954,508.636 278.5,511.5C 273.167,511.5 267.833,511.5 262.5,511.5C 218.368,466.868 174.035,422.368 129.5,378C 137.493,377.5 145.493,377.334 153.5,377.5C 179.339,377.831 205.005,377.498 230.5,376.5C 238.833,376.5 247.167,376.5 255.5,376.5C 258.5,376.5 261.5,376.5 264.5,376.5C 295.5,377.833 326.5,377.833 357.5,376.5C 365.833,376.5 374.167,376.5 382.5,376.5C 383.494,366.347 383.828,356.014 383.5,345.5C 389.026,345.821 394.36,345.488 399.5,344.5C 400.487,339.695 400.821,334.695 400.5,329.5C 394.5,329.5 388.5,329.5 382.5,329.5C 382.5,293.5 382.5,257.5 382.5,221.5C 387.5,221.5 392.5,221.5 397.5,221.5C 398.329,214.345 398.829,207.011 399,199.5C 434.701,235.368 470.535,271.035 506.5,306.5 Z"/></g>
<g><path style="opacity:1" fill="#78dc5c" d="M 113.5,221.5 C 118.167,221.5 122.833,221.5 127.5,221.5C 127.666,226.179 127.499,230.845 127,235.5C 122.297,230.965 117.797,226.298 113.5,221.5 Z"/></g>
<g><path style="opacity:1" fill="#704738" d="M 128.5,221.5 C 170.833,221.5 213.167,221.5 255.5,221.5C 255.5,257.5 255.5,293.5 255.5,329.5C 237.5,329.5 219.5,329.5 201.5,329.5C 201.5,311.167 201.5,292.833 201.5,274.5C 211.167,274.5 220.833,274.5 230.5,274.5C 230.5,265.167 230.5,255.833 230.5,246.5C 204.5,246.5 178.5,246.5 152.5,246.5C 152.173,255.682 152.507,264.682 153.5,273.5C 163.167,273.5 172.833,273.5 182.5,273.5C 182.5,292.167 182.5,310.833 182.5,329.5C 164.5,329.5 146.5,329.5 128.5,329.5C 128.5,293.5 128.5,257.5 128.5,221.5 Z"/></g>
<g><path style="opacity:1" fill="#643f32" d="M 255.5,221.5 C 297.833,221.5 340.167,221.5 382.5,221.5C 382.5,257.5 382.5,293.5 382.5,329.5C 364.5,329.5 346.5,329.5 328.5,329.5C 328.5,311.167 328.5,292.833 328.5,274.5C 322.167,274.5 315.833,274.5 309.5,274.5C 309.5,292.833 309.5,311.167 309.5,329.5C 291.5,329.5 273.5,329.5 255.5,329.5C 255.5,293.5 255.5,257.5 255.5,221.5 Z"/></g>
<g><path style="opacity:1" fill="#c45921" d="M 201.5,274.5 C 201.5,274.167 201.5,273.833 201.5,273.5C 210.833,273.5 220.167,273.5 229.5,273.5C 229.5,264.833 229.5,256.167 229.5,247.5C 204.167,247.5 178.833,247.5 153.5,247.5C 153.5,256.167 153.5,264.833 153.5,273.5C 152.507,264.682 152.173,255.682 152.5,246.5C 178.5,246.5 204.5,246.5 230.5,246.5C 230.5,255.833 230.5,265.167 230.5,274.5C 220.833,274.5 211.167,274.5 201.5,274.5 Z"/></g>
<g><path style="opacity:1" fill="#fe6610" d="M 201.5,273.5 C 195.167,273.5 188.833,273.5 182.5,273.5C 172.833,273.5 163.167,273.5 153.5,273.5C 153.5,264.833 153.5,256.167 153.5,247.5C 178.833,247.5 204.167,247.5 229.5,247.5C 229.5,256.167 229.5,264.833 229.5,273.5C 220.167,273.5 210.833,273.5 201.5,273.5 Z"/></g>
<g><path style="opacity:1" fill="#fc2b2f" d="M 280.5,246.5 C 306.167,246.5 331.833,246.5 357.5,246.5C 357.5,255.5 357.5,264.5 357.5,273.5C 331.833,273.5 306.167,273.5 280.5,273.5C 280.5,264.5 280.5,255.5 280.5,246.5 Z"/></g>
<g><path style="opacity:1" fill="#e5e4ea" d="M 182.5,273.5 C 188.833,273.5 195.167,273.5 201.5,273.5C 201.5,273.833 201.5,274.167 201.5,274.5C 201.5,292.833 201.5,311.167 201.5,329.5C 201.5,329.833 201.5,330.167 201.5,330.5C 201.5,335.167 201.5,339.833 201.5,344.5C 201.5,344.833 201.5,345.167 201.5,345.5C 201.177,349.226 201.511,352.893 202.5,356.5C 211.5,361.333 220.5,366.167 229.5,371C 230.406,372.699 230.739,374.533 230.5,376.5C 205.005,377.498 179.339,377.831 153.5,377.5C 153.5,377.167 153.5,376.833 153.5,376.5C 153.201,374.396 153.534,372.396 154.5,370.5C 163.343,365.578 172.343,360.912 181.5,356.5C 182.491,352.555 182.824,348.555 182.5,344.5C 182.5,339.5 182.5,334.5 182.5,329.5C 182.5,310.833 182.5,292.167 182.5,273.5 Z"/></g>
<g><path style="opacity:1" fill="#b5b6c9" d="M 328.5,329.5 C 328.5,334.833 328.5,340.167 328.5,345.5C 328.177,349.226 328.511,352.893 329.5,356.5C 338.657,360.912 347.657,365.578 356.5,370.5C 357.466,372.396 357.799,374.396 357.5,376.5C 326.5,377.833 295.5,377.833 264.5,376.5C 269.833,376.5 275.167,376.5 280.5,376.5C 280.261,374.533 280.594,372.699 281.5,371C 290.5,366.167 299.5,361.333 308.5,356.5C 309.491,352.555 309.824,348.555 309.5,344.5C 309.5,339.5 309.5,334.5 309.5,329.5C 309.5,311.167 309.5,292.833 309.5,274.5C 315.833,274.5 322.167,274.5 328.5,274.5C 328.5,292.833 328.5,311.167 328.5,329.5 Z"/></g>
<g><path style="opacity:1" fill="#608bb3" d="M 128.5,329.5 C 128.5,329.833 128.5,330.167 128.5,330.5C 122.833,330.5 117.167,330.5 111.5,330.5C 111.5,335.167 111.5,339.833 111.5,344.5C 111.167,344.5 110.833,344.5 110.5,344.5C 110.5,339.5 110.5,334.5 110.5,329.5C 116.5,329.5 122.5,329.5 128.5,329.5 Z"/></g>
<g><path style="opacity:1" fill="#5652a5" d="M 128.5,330.5 C 128.5,330.167 128.5,329.833 128.5,329.5C 146.5,329.5 164.5,329.5 182.5,329.5C 182.5,334.5 182.5,339.5 182.5,344.5C 182.167,344.5 181.833,344.5 181.5,344.5C 181.5,339.833 181.5,335.167 181.5,330.5C 163.833,330.5 146.167,330.5 128.5,330.5 Z"/></g>
<g><path style="opacity:1" fill="#483f7a" d="M 328.5,329.5 C 346.5,329.5 364.5,329.5 382.5,329.5C 382.5,329.833 382.5,330.167 382.5,330.5C 364.833,330.5 347.167,330.5 329.5,330.5C 329.5,335.167 329.5,339.833 329.5,344.5C 347.167,344.5 364.833,344.5 382.5,344.5C 382.5,344.833 382.5,345.167 382.5,345.5C 364.5,345.5 346.5,345.5 328.5,345.5C 328.5,340.167 328.5,334.833 328.5,329.5 Z"/></g>
<g><path style="opacity:1" fill="#4b7d87" d="M 382.5,330.5 C 382.5,330.167 382.5,329.833 382.5,329.5C 388.5,329.5 394.5,329.5 400.5,329.5C 400.821,334.695 400.487,339.695 399.5,344.5C 399.5,339.833 399.5,335.167 399.5,330.5C 393.833,330.5 388.167,330.5 382.5,330.5 Z"/></g>
<g><path style="opacity:1" fill="#3747db" d="M 128.5,330.5 C 146.167,330.5 163.833,330.5 181.5,330.5C 181.5,335.167 181.5,339.833 181.5,344.5C 163.833,344.5 146.167,344.5 128.5,344.5C 122.833,344.5 117.167,344.5 111.5,344.5C 111.5,339.833 111.5,335.167 111.5,330.5C 117.167,330.5 122.833,330.5 128.5,330.5 Z"/></g>
<g><path style="opacity:1" fill="#3747db" d="M 201.5,330.5 C 219.5,330.5 237.5,330.5 255.5,330.5C 255.5,335.167 255.5,339.833 255.5,344.5C 237.5,344.5 219.5,344.5 201.5,344.5C 201.5,339.833 201.5,335.167 201.5,330.5 Z"/></g>
<g><path style="opacity:1" fill="#2e36a5" d="M 201.5,330.5 C 201.5,330.167 201.5,329.833 201.5,329.5C 219.5,329.5 237.5,329.5 255.5,329.5C 273.5,329.5 291.5,329.5 309.5,329.5C 309.5,334.5 309.5,339.5 309.5,344.5C 291.5,344.5 273.5,344.5 255.5,344.5C 255.5,339.833 255.5,335.167 255.5,330.5C 237.5,330.5 219.5,330.5 201.5,330.5 Z"/></g>
<g><path style="opacity:1" fill="#2935aa" d="M 382.5,330.5 C 388.167,330.5 393.833,330.5 399.5,330.5C 399.5,335.167 399.5,339.833 399.5,344.5C 393.833,344.5 388.167,344.5 382.5,344.5C 364.833,344.5 347.167,344.5 329.5,344.5C 329.5,339.833 329.5,335.167 329.5,330.5C 347.167,330.5 364.833,330.5 382.5,330.5 Z"/></g>
<g><path style="opacity:1" fill="#76dc59" d="M 112.5,345.5 C 117.5,345.5 122.5,345.5 127.5,345.5C 127.5,350.5 127.5,355.5 127.5,360.5C 122.167,355.833 117.167,350.833 112.5,345.5 Z"/></g>
<g><path style="opacity:1" fill="#749f63" d="M 110.5,344.5 C 110.833,344.5 111.167,344.5 111.5,344.5C 117.167,344.5 122.833,344.5 128.5,344.5C 128.5,355.167 128.5,365.833 128.5,376.5C 127.512,371.36 127.179,366.026 127.5,360.5C 127.5,355.5 127.5,350.5 127.5,345.5C 122.5,345.5 117.5,345.5 112.5,345.5C 111.508,345.672 110.842,345.338 110.5,344.5 Z"/></g>
<g><path style="opacity:1" fill="#70483b" d="M 128.5,344.5 C 146.167,344.5 163.833,344.5 181.5,344.5C 181.833,344.5 182.167,344.5 182.5,344.5C 182.824,348.555 182.491,352.555 181.5,356.5C 172.343,360.912 163.343,365.578 154.5,370.5C 153.534,372.396 153.201,374.396 153.5,376.5C 145.167,376.5 136.833,376.5 128.5,376.5C 128.5,365.833 128.5,355.167 128.5,344.5 Z"/></g>
<g><path style="opacity:1" fill="#704738" d="M 201.5,345.5 C 219.5,345.5 237.5,345.5 255.5,345.5C 255.5,355.833 255.5,366.167 255.5,376.5C 247.167,376.5 238.833,376.5 230.5,376.5C 230.739,374.533 230.406,372.699 229.5,371C 220.5,366.167 211.5,361.333 202.5,356.5C 201.511,352.893 201.177,349.226 201.5,345.5 Z"/></g>
<g><path style="opacity:1" fill="#633f36" d="M 201.5,345.5 C 201.5,345.167 201.5,344.833 201.5,344.5C 219.5,344.5 237.5,344.5 255.5,344.5C 273.5,344.5 291.5,344.5 309.5,344.5C 309.824,348.555 309.491,352.555 308.5,356.5C 299.5,361.333 290.5,366.167 281.5,371C 280.594,372.699 280.261,374.533 280.5,376.5C 275.167,376.5 269.833,376.5 264.5,376.5C 261.5,376.5 258.5,376.5 255.5,376.5C 255.5,366.167 255.5,355.833 255.5,345.5C 237.5,345.5 219.5,345.5 201.5,345.5 Z"/></g>
<g><path style="opacity:1" fill="#643f32" d="M 328.5,345.5 C 346.5,345.5 364.5,345.5 382.5,345.5C 382.5,355.833 382.5,366.167 382.5,376.5C 374.167,376.5 365.833,376.5 357.5,376.5C 357.799,374.396 357.466,372.396 356.5,370.5C 347.657,365.578 338.657,360.912 329.5,356.5C 328.511,352.893 328.177,349.226 328.5,345.5 Z"/></g>
<g><path style="opacity:1" fill="#6a9a57" d="M 382.5,344.5 C 388.167,344.5 393.833,344.5 399.5,344.5C 394.36,345.488 389.026,345.821 383.5,345.5C 383.828,356.014 383.494,366.347 382.5,376.5C 382.5,366.167 382.5,355.833 382.5,345.5C 382.5,345.167 382.5,344.833 382.5,344.5 Z"/></g>
</svg>
