<?xml version="1.0" encoding="UTF-8"?>
<!DOCTYPE svg PUBLIC "-//W3C//DTD SVG 1.1//EN" "http://www.w3.org/Graphics/SVG/1.1/DTD/svg11.dtd">
<svg xmlns="http://www.w3.org/2000/svg" version="1.1" width="512px" height="512px" style="shape-rendering:geometricPrecision; text-rendering:geometricPrecision; image-rendering:optimizeQuality; fill-rule:evenodd; clip-rule:evenodd" xmlns:xlink="http://www.w3.org/1999/xlink">
<g><path style="opacity:0.996" fill="#ef5ca4" d="M 232.5,-0.5 C 247.833,-0.5 263.167,-0.5 278.5,-0.5C 368.144,10.3879 435.644,54.7213 481,132.5C 497.695,163.971 507.861,197.304 511.5,232.5C 511.5,244.833 511.5,257.167 511.5,269.5C 451.868,210.368 392.368,151.035 333,91.5C 332.617,92.056 332.117,92.3893 331.5,92.5C 326.778,89.6521 321.444,88.3187 315.5,88.5C 310.608,114.413 306.274,140.413 302.5,166.5C 302.167,166.5 301.833,166.5 301.5,166.5C 295.833,166.5 290.167,166.5 284.5,166.5C 278.131,150.14 266.131,143.307 248.5,146C 238.316,149.685 231.316,156.519 227.5,166.5C 203.5,166.5 179.5,166.5 155.5,166.5C 164.388,244.492 173.055,322.492 181.5,400.5C 217.5,436.833 253.5,473.167 289.5,509.5C 285.688,510.026 282.021,510.693 278.5,511.5C 263.167,511.5 247.833,511.5 232.5,511.5C 142.856,500.612 75.3562,456.279 30,378.5C 13.3053,347.029 3.1386,313.696 -0.5,278.5C -0.5,263.167 -0.5,247.833 -0.5,232.5C 10.3875,142.857 54.7208,75.3573 132.5,30C 163.971,13.3053 197.304,3.1386 232.5,-0.5 Z"/></g>
<g><path style="opacity:1" fill="#b6e14f" d="M 331.5,92.5 C 326.953,117.116 322.619,141.783 318.5,166.5C 313.167,166.5 307.833,166.5 302.5,166.5C 306.274,140.413 310.608,114.413 315.5,88.5C 321.444,88.3187 326.778,89.6521 331.5,92.5 Z"/></g>
<g><path style="opacity:1" fill="#ea1d82" d="M 511.5,269.5 C 511.5,272.5 511.5,275.5 511.5,278.5C 500.612,368.144 456.279,435.644 378.5,481C 350.595,496.024 320.928,505.524 289.5,509.5C 253.5,473.167 217.5,436.833 181.5,400.5C 206.167,400.5 230.833,400.5 255.5,400.5C 280.167,400.5 304.833,400.5 329.5,400.5C 337.922,322.793 346.589,245.126 355.5,167.5C 343.185,166.501 330.851,166.168 318.5,166.5C 322.619,141.783 326.953,117.116 331.5,92.5C 332.117,92.3893 332.617,92.056 333,91.5C 392.368,151.035 451.868,210.368 511.5,269.5 Z"/></g>
<g><path style="opacity:1" fill="#fefdfd" d="M 227.5,166.5 C 226.897,174.09 227.897,181.423 230.5,188.5C 213.167,188.5 195.833,188.5 178.5,188.5C 178.842,200.243 179.842,211.909 181.5,223.5C 183.5,240.5 185.5,257.5 187.5,274.5C 190.76,306.51 194.094,338.51 197.5,370.5C 216.833,370.5 236.167,370.5 255.5,370.5C 255.5,380.5 255.5,390.5 255.5,400.5C 230.833,400.5 206.167,400.5 181.5,400.5C 173.055,322.492 164.388,244.492 155.5,166.5C 179.5,166.5 203.5,166.5 227.5,166.5 Z"/></g>
<g><path style="opacity:1" fill="#9a653d" d="M 284.5,166.5 C 275.167,166.5 265.833,166.5 256.5,166.5C 256.5,178.5 256.5,190.5 256.5,202.5C 258.167,202.5 259.833,202.5 261.5,202.5C 260.081,203.451 258.415,203.784 256.5,203.5C 245.361,202.676 236.694,197.676 230.5,188.5C 227.897,181.423 226.897,174.09 227.5,166.5C 231.316,156.519 238.316,149.685 248.5,146C 266.131,143.307 278.131,150.14 284.5,166.5 Z"/></g>
<g><path style="opacity:1" fill="#72492b" d="M 284.5,166.5 C 286.372,174.248 285.372,181.581 281.5,188.5C 276.949,196.115 270.282,200.782 261.5,202.5C 259.833,202.5 258.167,202.5 256.5,202.5C 256.5,190.5 256.5,178.5 256.5,166.5C 265.833,166.5 275.167,166.5 284.5,166.5 Z"/></g>
<g><path style="opacity:1" fill="#d6e7f3" d="M 284.5,166.5 C 290.167,166.5 295.833,166.5 301.5,166.5C 300.442,173.916 299.108,181.249 297.5,188.5C 292.167,188.5 286.833,188.5 281.5,188.5C 285.372,181.581 286.372,174.248 284.5,166.5 Z"/></g>
<g><path style="opacity:1" fill="#78db5d" d="M 301.5,166.5 C 301.833,166.5 302.167,166.5 302.5,166.5C 307.833,166.5 313.167,166.5 318.5,166.5C 316.941,173.744 315.941,181.077 315.5,188.5C 315.167,188.5 314.833,188.5 314.5,188.5C 308.741,188.214 303.075,188.548 297.5,189.5C 297.5,189.167 297.5,188.833 297.5,188.5C 299.108,181.249 300.442,173.916 301.5,166.5 Z"/></g>
<g><path style="opacity:1" fill="#d5e8f6" d="M 318.5,166.5 C 330.851,166.168 343.185,166.501 355.5,167.5C 346.589,245.126 337.922,322.793 329.5,400.5C 304.833,400.5 280.167,400.5 255.5,400.5C 255.5,390.5 255.5,380.5 255.5,370.5C 275.007,370.83 294.341,370.497 313.5,369.5C 316.98,337.85 320.313,306.184 323.5,274.5C 325.276,257.51 326.943,240.51 328.5,223.5C 330.154,212.291 331.821,200.958 333.5,189.5C 327.537,188.504 321.537,188.171 315.5,188.5C 315.941,181.077 316.941,173.744 318.5,166.5 Z"/></g>
<g><path style="opacity:1" fill="#fee16e" d="M 230.5,188.5 C 236.694,197.676 245.361,202.676 256.5,203.5C 256.5,210.167 256.5,216.833 256.5,223.5C 231.5,223.5 206.5,223.5 181.5,223.5C 179.842,211.909 178.842,200.243 178.5,188.5C 195.833,188.5 213.167,188.5 230.5,188.5 Z"/></g>
<g><path style="opacity:1" fill="#fdd328" d="M 281.5,188.5 C 286.833,188.5 292.167,188.5 297.5,188.5C 297.5,188.833 297.5,189.167 297.5,189.5C 295.481,200.955 293.481,212.288 291.5,223.5C 279.833,223.5 268.167,223.5 256.5,223.5C 256.5,216.833 256.5,210.167 256.5,203.5C 258.415,203.784 260.081,203.451 261.5,202.5C 270.282,200.782 276.949,196.115 281.5,188.5 Z"/></g>
<g><path style="opacity:1" fill="#51bd72" d="M 314.5,188.5 C 312.657,200.202 310.657,211.869 308.5,223.5C 305.406,240.49 302.406,257.49 299.5,274.5C 297.382,287.876 295.049,301.209 292.5,314.5C 290.616,325.136 288.95,335.803 287.5,346.5C 281.767,346.353 276.1,345.686 270.5,344.5C 271.618,336.461 272.951,328.461 274.5,320.5C 277.167,305.167 279.833,289.833 282.5,274.5C 285.603,257.552 288.603,240.552 291.5,223.5C 293.481,212.288 295.481,200.955 297.5,189.5C 303.075,188.548 308.741,188.214 314.5,188.5 Z"/></g>
<g><path style="opacity:1" fill="#fdd32a" d="M 314.5,188.5 C 314.833,188.5 315.167,188.5 315.5,188.5C 321.537,188.171 327.537,188.504 333.5,189.5C 331.821,200.958 330.154,212.291 328.5,223.5C 321.833,223.5 315.167,223.5 308.5,223.5C 310.657,211.869 312.657,200.202 314.5,188.5 Z"/></g>
<g><path style="opacity:1" fill="#ac7246" d="M 181.5,223.5 C 206.5,223.5 231.5,223.5 256.5,223.5C 255.515,240.423 255.182,257.423 255.5,274.5C 232.833,274.5 210.167,274.5 187.5,274.5C 185.5,257.5 183.5,240.5 181.5,223.5 Z"/></g>
<g><path style="opacity:1" fill="#95623b" d="M 256.5,223.5 C 268.167,223.5 279.833,223.5 291.5,223.5C 288.603,240.552 285.603,257.552 282.5,274.5C 273.5,274.5 264.5,274.5 255.5,274.5C 255.182,257.423 255.515,240.423 256.5,223.5 Z"/></g>
<g><path style="opacity:1" fill="#94633b" d="M 308.5,223.5 C 315.167,223.5 321.833,223.5 328.5,223.5C 326.943,240.51 325.276,257.51 323.5,274.5C 315.5,274.5 307.5,274.5 299.5,274.5C 302.406,257.49 305.406,240.49 308.5,223.5 Z"/></g>
<g><path style="opacity:1" fill="#71482a" d="M 255.5,274.5 C 264.5,274.5 273.5,274.5 282.5,274.5C 279.833,289.833 277.167,305.167 274.5,320.5C 269.035,325.464 263.702,330.63 258.5,336C 267.681,345.348 277.014,354.514 286.5,363.5C 296.028,354.805 305.028,345.639 313.5,336C 307.008,328.341 300.008,321.174 292.5,314.5C 295.049,301.209 297.382,287.876 299.5,274.5C 307.5,274.5 315.5,274.5 323.5,274.5C 320.313,306.184 316.98,337.85 313.5,369.5C 294.167,369.5 274.833,369.5 255.5,369.5C 255.5,352.5 255.5,335.5 255.5,318.5C 259.343,314.49 263.01,310.323 266.5,306C 263.01,301.677 259.343,297.51 255.5,293.5C 255.5,287.167 255.5,280.833 255.5,274.5 Z"/></g>
<g><path style="opacity:1" fill="#95633c" d="M 187.5,274.5 C 210.167,274.5 232.833,274.5 255.5,274.5C 255.5,280.833 255.5,287.167 255.5,293.5C 250.187,288.522 244.854,283.522 239.5,278.5C 229.833,287.5 220.5,296.833 211.5,306.5C 220.195,316.028 229.361,325.028 239,333.5C 244.658,328.676 250.158,323.676 255.5,318.5C 255.5,335.5 255.5,352.5 255.5,369.5C 274.833,369.5 294.167,369.5 313.5,369.5C 294.341,370.497 275.007,370.83 255.5,370.5C 236.167,370.5 216.833,370.5 197.5,370.5C 194.094,338.51 190.76,306.51 187.5,274.5 Z"/></g>
<g><path style="opacity:1" fill="#a97044" d="M 255.5,293.5 C 259.343,297.51 263.01,301.677 266.5,306C 263.01,310.323 259.343,314.49 255.5,318.5C 250.158,323.676 244.658,328.676 239,333.5C 229.361,325.028 220.195,316.028 211.5,306.5C 220.5,296.833 229.833,287.5 239.5,278.5C 244.854,283.522 250.187,288.522 255.5,293.5 Z"/></g>
<g><path style="opacity:1" fill="#94623b" d="M 292.5,314.5 C 300.008,321.174 307.008,328.341 313.5,336C 305.028,345.639 296.028,354.805 286.5,363.5C 277.014,354.514 267.681,345.348 258.5,336C 263.702,330.63 269.035,325.464 274.5,320.5C 272.951,328.461 271.618,336.461 270.5,344.5C 276.1,345.686 281.767,346.353 287.5,346.5C 288.95,335.803 290.616,325.136 292.5,314.5 Z"/></g>
</svg>
