<?xml version="1.0" encoding="UTF-8"?>
<!DOCTYPE svg PUBLIC "-//W3C//DTD SVG 1.1//EN" "http://www.w3.org/Graphics/SVG/1.1/DTD/svg11.dtd">
<svg xmlns="http://www.w3.org/2000/svg" version="1.1" width="512px" height="512px" style="shape-rendering:geometricPrecision; text-rendering:geometricPrecision; image-rendering:optimizeQuality; fill-rule:evenodd; clip-rule:evenodd" xmlns:xlink="http://www.w3.org/1999/xlink">
<g><path style="opacity:0.993" fill="#a4e47a" d="M 232.5,-0.5 C 247.833,-0.5 263.167,-0.5 278.5,-0.5C 364.976,9.80479 431.142,51.8048 477,125.5C 489.793,147.417 498.959,170.75 504.5,195.5C 462.833,154.167 421.167,112.833 379.5,71.5C 296.833,70.1667 214.167,70.1667 131.5,71.5C 123.566,96.569 116.566,121.902 110.5,147.5C 110.5,147.833 110.5,148.167 110.5,148.5C 96.2614,199.621 85.7614,251.621 79,304.5C 76.928,329.168 80.7613,352.835 90.5,375.5C 90.5,376.167 90.8333,376.5 91.5,376.5C 100.046,395.718 112.713,411.718 129.5,424.5C 129.369,425.239 129.536,425.906 130,426.5C 157.035,453.368 183.868,480.368 210.5,507.5C 135.808,493.277 77.9745,454.277 37,390.5C 16.1784,355.868 3.67839,318.535 -0.5,278.5C -0.5,263.167 -0.5,247.833 -0.5,232.5C 10.3875,142.857 54.7208,75.3573 132.5,30C 163.971,13.3053 197.304,3.1386 232.5,-0.5 Z"/></g>
<g><path style="opacity:1" fill="#fefefe" d="M 131.5,71.5 C 172.833,71.5 214.167,71.5 255.5,71.5C 255.5,96.8333 255.5,122.167 255.5,147.5C 207.167,147.5 158.833,147.5 110.5,147.5C 116.566,121.902 123.566,96.569 131.5,71.5 Z"/></g>
<g><path style="opacity:1" fill="#e9eae9" d="M 131.5,71.5 C 214.167,70.1667 296.833,70.1667 379.5,71.5C 387.084,96.6698 394.084,122.003 400.5,147.5C 352.167,147.5 303.833,147.5 255.5,147.5C 255.5,122.167 255.5,96.8333 255.5,71.5C 214.167,71.5 172.833,71.5 131.5,71.5 Z"/></g>
<g><path style="opacity:1" fill="#6bc979" d="M 379.5,71.5 C 421.167,112.833 462.833,154.167 504.5,195.5C 507.804,207.661 510.138,219.995 511.5,232.5C 511.5,247.833 511.5,263.167 511.5,278.5C 500.612,368.144 456.279,435.644 378.5,481C 347.029,497.695 313.696,507.861 278.5,511.5C 263.167,511.5 247.833,511.5 232.5,511.5C 225.112,510.493 217.779,509.16 210.5,507.5C 183.868,480.368 157.035,453.368 130,426.5C 129.536,425.906 129.369,425.239 129.5,424.5C 135.722,430.049 142.722,434.382 150.5,437.5C 220.332,438.665 290.332,438.832 360.5,438C 387.182,424.153 406.849,403.653 419.5,376.5C 429.731,355.089 433.897,332.422 432,308.5C 425.151,254.088 414.651,200.422 400.5,147.5C 394.084,122.003 387.084,96.6698 379.5,71.5 Z"/></g>
<g><path style="opacity:1" fill="#f83e81" d="M 110.5,148.5 C 158.833,148.5 207.167,148.5 255.5,148.5C 254.9,158.428 255.567,168.095 257.5,177.5C 256.833,177.5 256.167,177.5 255.5,177.5C 246.322,178.343 240.989,183.343 239.5,192.5C 240.553,202.22 245.887,207.553 255.5,208.5C 255.5,264.167 255.5,319.833 255.5,375.5C 200.5,375.5 145.5,375.5 90.5,375.5C 80.7613,352.835 76.928,329.168 79,304.5C 85.7614,251.621 96.2614,199.621 110.5,148.5 Z"/></g>
<g><path style="opacity:1" fill="#ba227f" d="M 110.5,148.5 C 110.5,148.167 110.5,147.833 110.5,147.5C 158.833,147.5 207.167,147.5 255.5,147.5C 303.833,147.5 352.167,147.5 400.5,147.5C 414.651,200.422 425.151,254.088 432,308.5C 433.897,332.422 429.731,355.089 419.5,376.5C 364.833,376.5 310.167,376.5 255.5,376.5C 200.833,376.5 146.167,376.5 91.5,376.5C 90.8333,376.5 90.5,376.167 90.5,375.5C 145.5,375.5 200.5,375.5 255.5,375.5C 255.5,319.833 255.5,264.167 255.5,208.5C 265.141,207.525 270.475,202.192 271.5,192.5C 270.264,184.265 265.598,179.265 257.5,177.5C 255.567,168.095 254.9,158.428 255.5,148.5C 207.167,148.5 158.833,148.5 110.5,148.5 Z"/></g>
<g><path style="opacity:1" fill="#febf36" d="M 343.5,299.5 C 362.403,258.561 355.403,222.894 322.5,192.5C 328.169,185.158 333.836,177.825 339.5,170.5C 382.254,203.606 395.088,245.94 378,297.5C 375.694,303.446 372.861,309.112 369.5,314.5C 360.816,309.472 352.15,304.472 343.5,299.5 Z"/></g>
<g><path style="opacity:1" fill="#ffe36c" d="M 255.5,177.5 C 255.5,187.833 255.5,198.167 255.5,208.5C 245.887,207.553 240.553,202.22 239.5,192.5C 240.989,183.343 246.322,178.343 255.5,177.5 Z"/></g>
<g><path style="opacity:1" fill="#fdbe37" d="M 255.5,177.5 C 256.167,177.5 256.833,177.5 257.5,177.5C 265.598,179.265 270.264,184.265 271.5,192.5C 270.475,202.192 265.141,207.525 255.5,208.5C 255.5,198.167 255.5,187.833 255.5,177.5 Z"/></g>
<g><path style="opacity:1" fill="#f69421" d="M 322.5,192.5 C 355.403,222.894 362.403,258.561 343.5,299.5C 319.9,285.89 296.566,271.89 273.5,257.5C 289.611,235.586 305.944,213.919 322.5,192.5 Z"/></g>
<g><path style="opacity:1" fill="#ffe46c" d="M 148.5,211.5 C 136.77,240.968 141.77,267.135 163.5,290C 167.901,293.188 172.234,296.355 176.5,299.5C 172.301,306.057 167.968,312.557 163.5,319C 135.47,307.608 119.303,286.775 115,256.5C 113.898,238.014 117.898,220.681 127,204.5C 127.414,204.043 127.914,203.709 128.5,203.5C 135.111,206.369 141.778,209.036 148.5,211.5 Z"/></g>
<g><path style="opacity:1" fill="#fec036" d="M 148.5,211.5 C 171.254,220.375 193.921,229.541 216.5,239C 202.911,259.072 189.578,279.238 176.5,299.5C 172.234,296.355 167.901,293.188 163.5,290C 141.77,267.135 136.77,240.968 148.5,211.5 Z"/></g>
<g><path style="opacity:1" fill="#ffe46c" d="M 209.5,295.5 C 225.49,294.648 231.99,301.981 229,317.5C 222.417,327.021 214.251,328.688 204.5,322.5C 196.522,311.574 198.189,302.574 209.5,295.5 Z"/></g>
<g><path style="opacity:1" fill="#fdbe37" d="M 300.5,320.5 C 315.563,319.725 322.063,326.725 320,341.5C 315.154,351.168 307.654,354.001 297.5,350C 289.512,344.032 287.679,336.532 292,327.5C 294.441,324.546 297.275,322.213 300.5,320.5 Z"/></g>
<g><path style="opacity:1" fill="#fefefe" d="M 91.5,376.5 C 146.167,376.5 200.833,376.5 255.5,376.5C 255.5,396.833 255.5,417.167 255.5,437.5C 220.5,437.5 185.5,437.5 150.5,437.5C 142.722,434.382 135.722,430.049 129.5,424.5C 112.713,411.718 100.046,395.718 91.5,376.5 Z"/></g>
<g><path style="opacity:1" fill="#e9eae9" d="M 255.5,376.5 C 310.167,376.5 364.833,376.5 419.5,376.5C 406.849,403.653 387.182,424.153 360.5,438C 290.332,438.832 220.332,438.665 150.5,437.5C 185.5,437.5 220.5,437.5 255.5,437.5C 255.5,417.167 255.5,396.833 255.5,376.5 Z"/></g>
</svg>
