<?xml version="1.0" encoding="UTF-8"?>
<!DOCTYPE svg PUBLIC "-//W3C//DTD SVG 1.1//EN" "http://www.w3.org/Graphics/SVG/1.1/DTD/svg11.dtd">
<svg xmlns="http://www.w3.org/2000/svg" version="1.1" width="512px" height="512px" style="shape-rendering:geometricPrecision; text-rendering:geometricPrecision; image-rendering:optimizeQuality; fill-rule:evenodd; clip-rule:evenodd" xmlns:xlink="http://www.w3.org/1999/xlink">
<g><path style="opacity:0.997" fill="#fe5f96" d="M 232.5,-0.5 C 247.833,-0.5 263.167,-0.5 278.5,-0.5C 368.144,10.3879 435.644,54.7213 481,132.5C 493.711,156.132 502.544,181.132 507.5,207.5C 506.761,207.631 506.094,207.464 505.5,207C 466.632,167.965 427.632,129.132 388.5,90.5C 353.061,85.1593 324.561,96.4927 303,124.5C 298.124,131.917 294.624,139.917 292.5,148.5C 260.833,148.5 229.167,148.5 197.5,148.5C 189.446,139.445 180.779,131.111 171.5,123.5C 170.215,121.548 168.549,119.882 166.5,118.5C 155.942,126.717 147.609,136.717 141.5,148.5C 129.833,148.5 118.167,148.5 106.5,148.5C 106.263,149.791 106.596,150.791 107.5,151.5C 112.254,183.865 117.254,216.198 122.5,248.5C 131.059,305.523 139.726,362.523 148.5,419.5C 148.5,420.167 148.833,420.5 149.5,420.5C 179.5,450.833 209.5,481.167 239.5,511.5C 237.167,511.5 234.833,511.5 232.5,511.5C 142.856,500.612 75.3562,456.279 30,378.5C 13.3053,347.029 3.1386,313.696 -0.5,278.5C -0.5,263.167 -0.5,247.833 -0.5,232.5C 10.3875,142.857 54.7208,75.3573 132.5,30C 163.971,13.3053 197.304,3.1386 232.5,-0.5 Z"/></g>
<g><path style="opacity:1" fill="#09b16b" d="M 388.5,90.5 C 390.707,110.721 387.707,130.055 379.5,148.5C 364.973,173.271 343.307,186.604 314.5,188.5C 306.5,188.5 298.5,188.5 290.5,188.5C 290.5,178.833 290.5,169.167 290.5,159.5C 290.417,155.665 291.083,151.998 292.5,148.5C 294.624,139.917 298.124,131.917 303,124.5C 324.561,96.4927 353.061,85.1593 388.5,90.5 Z"/></g>
<g><path style="opacity:1" fill="#d72878" d="M 388.5,90.5 C 427.632,129.132 466.632,167.965 505.5,207C 506.094,207.464 506.761,207.631 507.5,207.5C 508.926,215.942 510.259,224.276 511.5,232.5C 511.5,247.833 511.5,263.167 511.5,278.5C 500.612,368.144 456.279,435.644 378.5,481C 347.029,497.695 313.696,507.861 278.5,511.5C 265.5,511.5 252.5,511.5 239.5,511.5C 209.5,481.167 179.5,450.833 149.5,420.5C 220.5,420.5 291.5,420.5 362.5,420.5C 371.426,363.535 380.093,306.535 388.5,249.5C 394.003,215.989 399.337,182.323 404.5,148.5C 396.167,148.5 387.833,148.5 379.5,148.5C 387.707,130.055 390.707,110.721 388.5,90.5 Z"/></g>
<g><path style="opacity:1" fill="#09b26b" d="M 171.5,123.5 C 176.42,129.685 181.087,136.018 185.5,142.5C 173.767,150.774 166.6,162.108 164,176.5C 160.481,203.933 170.648,224.433 194.5,238C 212.302,245.59 229.969,245.256 247.5,237C 250.266,235.629 252.599,233.796 254.5,231.5C 254.833,231.5 255.167,231.5 255.5,231.5C 255.5,232.167 255.5,232.833 255.5,233.5C 255.5,244.5 255.5,255.5 255.5,266.5C 219.306,280.526 186.972,274.526 158.5,248.5C 136.188,224.261 128.688,195.927 136,163.5C 137.351,158.607 139.185,153.94 141.5,149.5C 141.5,149.167 141.5,148.833 141.5,148.5C 147.609,136.717 155.942,126.717 166.5,118.5C 168.549,119.882 170.215,121.548 171.5,123.5 Z"/></g>
<g><path style="opacity:1" fill="#d5327a" d="M 171.5,123.5 C 180.779,131.111 189.446,139.445 197.5,148.5C 195.5,148.5 193.5,148.5 191.5,148.5C 189.139,146.806 187.139,144.806 185.5,142.5C 181.087,136.018 176.42,129.685 171.5,123.5 Z"/></g>
<g><path style="opacity:1" fill="#1ed782" d="M 185.5,142.5 C 187.139,144.806 189.139,146.806 191.5,148.5C 191.5,148.833 191.5,149.167 191.5,149.5C 212.5,176.833 233.5,204.167 254.5,231.5C 252.599,233.796 250.266,235.629 247.5,237C 229.969,245.256 212.302,245.59 194.5,238C 170.648,224.433 160.481,203.933 164,176.5C 166.6,162.108 173.767,150.774 185.5,142.5 Z"/></g>
<g><path style="opacity:1" fill="#ffd0e0" d="M 141.5,148.5 C 141.5,148.833 141.5,149.167 141.5,149.5C 129.784,148.856 118.451,149.522 107.5,151.5C 106.596,150.791 106.263,149.791 106.5,148.5C 118.167,148.5 129.833,148.5 141.5,148.5 Z"/></g>
<g><path style="opacity:1" fill="#fdfefd" d="M 141.5,149.5 C 139.185,153.94 137.351,158.607 136,163.5C 128.688,195.927 136.188,224.261 158.5,248.5C 146.5,248.5 134.5,248.5 122.5,248.5C 117.254,216.198 112.254,183.865 107.5,151.5C 118.451,149.522 129.784,148.856 141.5,149.5 Z"/></g>
<g><path style="opacity:1" fill="#fefefe" d="M 191.5,149.5 C 212.833,149.5 234.167,149.5 255.5,149.5C 255.5,176.833 255.5,204.167 255.5,231.5C 255.167,231.5 254.833,231.5 254.5,231.5C 233.5,204.167 212.5,176.833 191.5,149.5 Z"/></g>
<g><path style="opacity:1" fill="#e8ecf4" d="M 191.5,149.5 C 191.5,149.167 191.5,148.833 191.5,148.5C 193.5,148.5 195.5,148.5 197.5,148.5C 229.167,148.5 260.833,148.5 292.5,148.5C 291.083,151.998 290.417,155.665 290.5,159.5C 289.506,169.319 289.173,179.319 289.5,189.5C 298.017,189.826 306.35,189.493 314.5,188.5C 343.307,186.604 364.973,173.271 379.5,148.5C 387.833,148.5 396.167,148.5 404.5,148.5C 399.337,182.323 394.003,215.989 388.5,249.5C 348.67,248.501 308.67,248.168 268.5,248.5C 264.403,243.313 260.07,238.313 255.5,233.5C 255.5,232.833 255.5,232.167 255.5,231.5C 255.5,204.167 255.5,176.833 255.5,149.5C 234.167,149.5 212.833,149.5 191.5,149.5 Z"/></g>
<g><path style="opacity:1" fill="#5cc89e" d="M 290.5,159.5 C 290.5,169.167 290.5,178.833 290.5,188.5C 298.5,188.5 306.5,188.5 314.5,188.5C 306.35,189.493 298.017,189.826 289.5,189.5C 289.173,179.319 289.506,169.319 290.5,159.5 Z"/></g>
<g><path style="opacity:1" fill="#0d9357" d="M 255.5,233.5 C 260.07,238.313 264.403,243.313 268.5,248.5C 269.919,251.1 271.585,253.6 273.5,256C 267.872,260.126 261.872,263.626 255.5,266.5C 255.5,255.5 255.5,244.5 255.5,233.5 Z"/></g>
<g><path style="opacity:1" fill="#80dafe" d="M 122.5,248.5 C 134.5,248.5 146.5,248.5 158.5,248.5C 186.972,274.526 219.306,280.526 255.5,266.5C 255.5,288.5 255.5,310.5 255.5,332.5C 248.442,331.221 241.442,329.554 234.5,327.5C 227.928,347.118 222.595,367.118 218.5,387.5C 230.5,390.5 242.5,393.5 254.5,396.5C 254.5,397.167 254.833,397.5 255.5,397.5C 255.5,404.833 255.5,412.167 255.5,419.5C 219.833,419.5 184.167,419.5 148.5,419.5C 139.726,362.523 131.059,305.523 122.5,248.5 Z"/></g>
<g><path style="opacity:1" fill="#4bb7f6" d="M 268.5,248.5 C 308.67,248.168 348.67,248.501 388.5,249.5C 380.093,306.535 371.426,363.535 362.5,420.5C 291.5,420.5 220.5,420.5 149.5,420.5C 148.833,420.5 148.5,420.167 148.5,419.5C 184.167,419.5 219.833,419.5 255.5,419.5C 255.5,412.167 255.5,404.833 255.5,397.5C 262.148,399.159 268.815,400.826 275.5,402.5C 276.167,402.167 276.833,401.833 277.5,401.5C 282.943,382.341 288.277,363.174 293.5,344C 280.947,339.861 268.281,336.027 255.5,332.5C 255.5,310.5 255.5,288.5 255.5,266.5C 261.872,263.626 267.872,260.126 273.5,256C 271.585,253.6 269.919,251.1 268.5,248.5 Z"/></g>
<g><path style="opacity:1" fill="#95e7fe" d="M 336.5,261.5 C 338.074,261.937 339.241,262.937 340,264.5C 349.047,280.764 358.214,296.931 367.5,313C 351.147,324.271 333.98,334.437 316,343.5C 305.663,326.649 295.496,309.649 285.5,292.5C 285.977,291.522 286.643,290.689 287.5,290C 304.224,280.978 320.557,271.478 336.5,261.5 Z"/></g>
<g><path style="opacity:1" fill="#cef8ff" d="M 192.5,281.5 C 194.074,281.937 195.241,282.937 196,284.5C 203.5,297.5 211,310.5 218.5,323.5C 204.416,331.959 190.249,340.293 176,348.5C 167.581,334.664 159.414,320.664 151.5,306.5C 165.028,297.904 178.694,289.571 192.5,281.5 Z"/></g>
<g><path style="opacity:1" fill="#cef8ff" d="M 255.5,332.5 C 255.831,354.007 255.497,375.34 254.5,396.5C 242.5,393.5 230.5,390.5 218.5,387.5C 222.595,367.118 227.928,347.118 234.5,327.5C 241.442,329.554 248.442,331.221 255.5,332.5 Z"/></g>
<g><path style="opacity:1" fill="#96e7fe" d="M 255.5,332.5 C 268.281,336.027 280.947,339.861 293.5,344C 288.277,363.174 282.943,382.341 277.5,401.5C 276.833,401.833 276.167,402.167 275.5,402.5C 268.815,400.826 262.148,399.159 255.5,397.5C 254.833,397.5 254.5,397.167 254.5,396.5C 255.497,375.34 255.831,354.007 255.5,332.5 Z"/></g>
</svg>
