<?xml version="1.0" encoding="UTF-8"?>
<!DOCTYPE svg PUBLIC "-//W3C//DTD SVG 1.1//EN" "http://www.w3.org/Graphics/SVG/1.1/DTD/svg11.dtd">
<svg xmlns="http://www.w3.org/2000/svg" version="1.1" width="512px" height="512px" style="shape-rendering:geometricPrecision; text-rendering:geometricPrecision; image-rendering:optimizeQuality; fill-rule:evenodd; clip-rule:evenodd" xmlns:xlink="http://www.w3.org/1999/xlink">
<g><path style="opacity:0.997" fill="#a3d3fe" d="M 232.5,-0.5 C 247.833,-0.5 263.167,-0.5 278.5,-0.5C 368.144,10.3879 435.644,54.7213 481,132.5C 495.198,159.261 504.698,187.594 509.5,217.5C 508.761,217.631 508.094,217.464 507.5,217C 455.299,164.632 402.965,112.465 350.5,60.5C 287.167,59.1667 223.833,59.1667 160.5,60.5C 160.5,76.8333 160.5,93.1667 160.5,109.5C 160.333,142.835 160.5,176.168 161,209.5C 161.648,225.738 164.981,241.404 171,256.5C 181.9,276.866 188.566,298.533 191,321.5C 191.5,357.832 191.667,394.165 191.5,430.5C 191.5,440.167 191.5,449.833 191.5,459.5C 212.833,459.5 234.167,459.5 255.5,459.5C 276.833,459.5 298.167,459.5 319.5,459.5C 277.335,460.333 235.002,460.833 192.5,461C 209.368,477.701 226.035,494.535 242.5,511.5C 239.167,511.5 235.833,511.5 232.5,511.5C 142.856,500.612 75.3562,456.279 30,378.5C 13.3053,347.029 3.1386,313.696 -0.5,278.5C -0.5,263.167 -0.5,247.833 -0.5,232.5C 10.3875,142.857 54.7208,75.3573 132.5,30C 163.971,13.3053 197.304,3.1386 232.5,-0.5 Z"/></g>
<g><path style="opacity:1" fill="#fefffe" d="M 160.5,60.5 C 192.167,60.5 223.833,60.5 255.5,60.5C 255.5,76.8333 255.5,93.1667 255.5,109.5C 223.833,109.5 192.167,109.5 160.5,109.5C 160.5,93.1667 160.5,76.8333 160.5,60.5 Z"/></g>
<g><path style="opacity:1" fill="#e8ecf5" d="M 160.5,60.5 C 223.833,59.1667 287.167,59.1667 350.5,60.5C 350.5,76.8333 350.5,93.1667 350.5,109.5C 318.833,109.5 287.167,109.5 255.5,109.5C 255.5,93.1667 255.5,76.8333 255.5,60.5C 223.833,60.5 192.167,60.5 160.5,60.5 Z"/></g>
<g><path style="opacity:1" fill="#65b1fb" d="M 350.5,60.5 C 402.965,112.465 455.299,164.632 507.5,217C 508.094,217.464 508.761,217.631 509.5,217.5C 509.741,222.694 510.407,227.694 511.5,232.5C 511.5,247.833 511.5,263.167 511.5,278.5C 500.612,368.144 456.279,435.644 378.5,481C 347.029,497.695 313.696,507.861 278.5,511.5C 266.5,511.5 254.5,511.5 242.5,511.5C 226.035,494.535 209.368,477.701 192.5,461C 235.002,460.833 277.335,460.333 319.5,459.5C 319.5,449.833 319.5,440.167 319.5,430.5C 319.333,394.498 319.5,358.498 320,322.5C 322.77,298.523 329.77,275.856 341,254.5C 346.173,240.967 349.173,226.967 350,212.5C 350.5,178.502 350.667,144.502 350.5,110.5C 350.5,110.167 350.5,109.833 350.5,109.5C 350.5,93.1667 350.5,76.8333 350.5,60.5 Z"/></g>
<g><path style="opacity:1" fill="#c38778" d="M 160.5,109.5 C 192.167,109.5 223.833,109.5 255.5,109.5C 287.167,109.5 318.833,109.5 350.5,109.5C 350.5,109.833 350.5,110.167 350.5,110.5C 318.833,110.5 287.167,110.5 255.5,110.5C 255.5,217.167 255.5,323.833 255.5,430.5C 234.167,430.5 212.833,430.5 191.5,430.5C 191.667,394.165 191.5,357.832 191,321.5C 188.566,298.533 181.9,276.866 171,256.5C 164.981,241.404 161.648,225.738 161,209.5C 160.5,176.168 160.333,142.835 160.5,109.5 Z"/></g>
<g><path style="opacity:1" fill="#a65d4e" d="M 350.5,110.5 C 350.667,144.502 350.5,178.502 350,212.5C 349.173,226.967 346.173,240.967 341,254.5C 329.77,275.856 322.77,298.523 320,322.5C 319.5,358.498 319.333,394.498 319.5,430.5C 298.167,430.5 276.833,430.5 255.5,430.5C 255.5,323.833 255.5,217.167 255.5,110.5C 287.167,110.5 318.833,110.5 350.5,110.5 Z"/></g>
<g><path style="opacity:1" fill="#fefffe" d="M 191.5,430.5 C 212.833,430.5 234.167,430.5 255.5,430.5C 255.5,440.167 255.5,449.833 255.5,459.5C 234.167,459.5 212.833,459.5 191.5,459.5C 191.5,449.833 191.5,440.167 191.5,430.5 Z"/></g>
<g><path style="opacity:1" fill="#e9edf5" d="M 255.5,430.5 C 276.833,430.5 298.167,430.5 319.5,430.5C 319.5,440.167 319.5,449.833 319.5,459.5C 298.167,459.5 276.833,459.5 255.5,459.5C 255.5,449.833 255.5,440.167 255.5,430.5 Z"/></g>
</svg>
