<?xml version="1.0" encoding="UTF-8"?>
<!DOCTYPE svg PUBLIC "-//W3C//DTD SVG 1.1//EN" "http://www.w3.org/Graphics/SVG/1.1/DTD/svg11.dtd">
<svg xmlns="http://www.w3.org/2000/svg" version="1.1" width="512px" height="512px" style="shape-rendering:geometricPrecision; text-rendering:geometricPrecision; image-rendering:optimizeQuality; fill-rule:evenodd; clip-rule:evenodd" xmlns:xlink="http://www.w3.org/1999/xlink">
<g><path style="opacity:0.996" fill="#905e4c" d="M 232.5,-0.5 C 247.833,-0.5 263.167,-0.5 278.5,-0.5C 368.144,10.3879 435.644,54.7213 481,132.5C 497.695,163.971 507.861,197.304 511.5,232.5C 511.5,247.833 511.5,263.167 511.5,278.5C 510.188,285.654 509.188,292.987 508.5,300.5C 458.368,250.868 408.368,201.035 358.5,151C 357.906,150.536 357.239,150.369 356.5,150.5C 352.535,145.457 348.202,140.623 343.5,136C 341.922,134.906 340.255,134.072 338.5,133.5C 338.489,131.983 337.823,130.816 336.5,130C 312.772,111.478 285.772,101.978 255.5,101.5C 234.304,101.048 214.637,106.048 196.5,116.5C 162.447,133.902 140.78,161.236 131.5,198.5C 121.353,242.237 130.853,281.237 160,315.5C 170.846,326.66 183.012,335.993 196.5,343.5C 196.5,360.5 196.5,377.5 196.5,394.5C 200.143,399.148 203.81,403.815 207.5,408.5C 239.16,409.5 270.826,409.833 302.5,409.5C 271.669,410.332 240.669,410.832 209.5,411C 240.833,442.333 272.167,473.667 303.5,505C 306.146,505.497 308.813,505.664 311.5,505.5C 300.623,508.234 289.623,510.234 278.5,511.5C 263.167,511.5 247.833,511.5 232.5,511.5C 142.856,500.612 75.3562,456.279 30,378.5C 13.3053,347.029 3.1386,313.696 -0.5,278.5C -0.5,263.167 -0.5,247.833 -0.5,232.5C 10.3875,142.857 54.7208,75.3573 132.5,30C 163.971,13.3053 197.304,3.1386 232.5,-0.5 Z"/></g>
<g><path style="opacity:1" fill="#5664df" d="M 255.5,101.5 C 254.851,136.055 255.517,170.389 257.5,204.5C 256.833,204.5 256.167,204.5 255.5,204.5C 241.433,205.372 231.766,212.372 226.5,225.5C 220.757,222.459 214.757,221.792 208.5,223.5C 202.727,219.774 196.727,216.274 190.5,213C 189.903,211.938 189.57,210.772 189.5,209.5C 191.783,178.443 194.116,147.443 196.5,116.5C 214.637,106.048 234.304,101.048 255.5,101.5 Z"/></g>
<g><path style="opacity:1" fill="#3748da" d="M 255.5,101.5 C 285.772,101.978 312.772,111.478 336.5,130C 337.823,130.816 338.489,131.983 338.5,133.5C 328.612,139.029 318.779,144.695 309,150.5C 309.976,157.432 310.81,164.432 311.5,171.5C 324.785,173.541 338.118,175.207 351.5,176.5C 350.167,181.167 348.833,185.833 347.5,190.5C 332.83,190.333 318.163,190.5 303.5,191C 299.781,201.373 296.448,211.873 293.5,222.5C 290.044,222.596 286.877,223.596 284,225.5C 279.6,212.886 270.767,205.886 257.5,204.5C 255.517,170.389 254.851,136.055 255.5,101.5 Z"/></g>
<g><path style="opacity:1" fill="#77db5b" d="M 196.5,116.5 C 194.116,147.443 191.783,178.443 189.5,209.5C 189.57,210.772 189.903,211.938 190.5,213C 196.727,216.274 202.727,219.774 208.5,223.5C 201.521,227.444 197.521,233.444 196.5,241.5C 183.826,244.853 180.326,252.519 186,264.5C 188.805,267.653 192.305,269.319 196.5,269.5C 196.5,288.167 196.5,306.833 196.5,325.5C 195.357,325.092 194.357,324.425 193.5,323.5C 181.226,299.285 169.226,274.951 157.5,250.5C 162.563,240.71 167.896,231.043 173.5,221.5C 159.473,213.821 145.473,206.154 131.5,198.5C 140.78,161.236 162.447,133.902 196.5,116.5 Z"/></g>
<g><path style="opacity:1" fill="#4eae37" d="M 338.5,133.5 C 340.255,134.072 341.922,134.906 343.5,136C 348.202,140.623 352.535,145.457 356.5,150.5C 388.276,195.043 392.11,242.043 368,291.5C 363.879,298.765 359.046,305.432 353.5,311.5C 353.755,296.441 346.755,286.774 332.5,282.5C 331.605,277.188 330.771,271.855 330,266.5C 329.901,264.347 329.067,262.681 327.5,261.5C 329.355,250.05 324.688,243.384 313.5,241.5C 312.049,229.716 305.382,223.383 293.5,222.5C 296.448,211.873 299.781,201.373 303.5,191C 318.163,190.5 332.83,190.333 347.5,190.5C 348.833,185.833 350.167,181.167 351.5,176.5C 338.118,175.207 324.785,173.541 311.5,171.5C 310.81,164.432 309.976,157.432 309,150.5C 318.779,144.695 328.612,139.029 338.5,133.5 Z"/></g>
<g><path style="opacity:1" fill="#704738" d="M 356.5,150.5 C 357.239,150.369 357.906,150.536 358.5,151C 408.368,201.035 458.368,250.868 508.5,300.5C 488.502,394.328 434.169,459.495 345.5,496C 334.407,500.106 323.074,503.273 311.5,505.5C 308.813,505.664 306.146,505.497 303.5,505C 272.167,473.667 240.833,442.333 209.5,411C 240.669,410.832 271.669,410.332 302.5,409.5C 306.47,404.524 310.47,399.524 314.5,394.5C 314.5,389.167 314.5,383.833 314.5,378.5C 322.668,379.05 330.668,378.217 338.5,376C 346.612,371.946 351.445,365.446 353,356.5C 353.5,341.504 353.667,326.504 353.5,311.5C 359.046,305.432 363.879,298.765 368,291.5C 392.11,242.043 388.276,195.043 356.5,150.5 Z"/></g>
<g><path style="opacity:1" fill="#5664de" d="M 131.5,198.5 C 145.473,206.154 159.473,213.821 173.5,221.5C 167.896,231.043 162.563,240.71 157.5,250.5C 169.226,274.951 181.226,299.285 193.5,323.5C 194.357,324.425 195.357,325.092 196.5,325.5C 196.5,331.5 196.5,337.5 196.5,343.5C 183.012,335.993 170.846,326.66 160,315.5C 130.853,281.237 121.353,242.237 131.5,198.5 Z"/></g>
<g><path style="opacity:1" fill="#fefefe" d="M 255.5,204.5 C 255.5,226.167 255.5,247.833 255.5,269.5C 255.5,269.833 255.5,270.167 255.5,270.5C 248.653,281.051 239.32,283.884 227.5,279C 225.833,277.333 224.167,275.667 222.5,274C 217.193,274.359 211.859,274.359 206.5,274C 204.156,273.163 202.156,271.829 200.5,270C 199.207,269.51 197.873,269.343 196.5,269.5C 192.305,269.319 188.805,267.653 186,264.5C 180.326,252.519 183.826,244.853 196.5,241.5C 197.521,233.444 201.521,227.444 208.5,223.5C 214.757,221.792 220.757,222.459 226.5,225.5C 231.766,212.372 241.433,205.372 255.5,204.5 Z"/></g>
<g><path style="opacity:1" fill="#e6e6ed" d="M 255.5,204.5 C 256.167,204.5 256.833,204.5 257.5,204.5C 270.767,205.886 279.6,212.886 284,225.5C 286.877,223.596 290.044,222.596 293.5,222.5C 305.382,223.383 312.049,229.716 313.5,241.5C 324.688,243.384 329.355,250.05 327.5,261.5C 324.643,266.435 320.309,269.101 314.5,269.5C 294.833,269.5 275.167,269.5 255.5,269.5C 255.5,247.833 255.5,226.167 255.5,204.5 Z"/></g>
<g><path style="opacity:1" fill="#394ad9" d="M 327.5,261.5 C 329.067,262.681 329.901,264.347 330,266.5C 330.771,271.855 331.605,277.188 332.5,282.5C 326.591,281.545 320.591,281.211 314.5,281.5C 314.5,277.5 314.5,273.5 314.5,269.5C 320.309,269.101 324.643,266.435 327.5,261.5 Z"/></g>
<g><path style="opacity:1" fill="#fde06e" d="M 196.5,269.5 C 197.873,269.343 199.207,269.51 200.5,270C 202.156,271.829 204.156,273.163 206.5,274C 211.859,274.359 217.193,274.359 222.5,274C 224.167,275.667 225.833,277.333 227.5,279C 239.32,283.884 248.653,281.051 255.5,270.5C 255.5,273.5 255.5,276.5 255.5,279.5C 249.801,279.766 245.635,282.433 243,287.5C 242.333,315.5 242.333,343.5 243,371.5C 245.092,377.43 249.259,380.43 255.5,380.5C 255.5,385.167 255.5,389.833 255.5,394.5C 235.833,394.5 216.167,394.5 196.5,394.5C 196.5,377.5 196.5,360.5 196.5,343.5C 196.5,337.5 196.5,331.5 196.5,325.5C 196.5,306.833 196.5,288.167 196.5,269.5 Z"/></g>
<g><path style="opacity:1" fill="#fdd22a" d="M 255.5,269.5 C 275.167,269.5 294.833,269.5 314.5,269.5C 314.5,273.5 314.5,277.5 314.5,281.5C 314.5,287.167 314.5,292.833 314.5,298.5C 314.5,313.5 314.5,328.5 314.5,343.5C 314.5,349.833 314.5,356.167 314.5,362.5C 314.5,367.833 314.5,373.167 314.5,378.5C 314.5,383.833 314.5,389.167 314.5,394.5C 294.833,394.5 275.167,394.5 255.5,394.5C 255.5,389.833 255.5,385.167 255.5,380.5C 261.756,380.412 265.923,377.412 268,371.5C 268.667,343.5 268.667,315.5 268,287.5C 265.384,282.44 261.217,279.774 255.5,279.5C 255.5,276.5 255.5,273.5 255.5,270.5C 255.5,270.167 255.5,269.833 255.5,269.5 Z"/></g>
<g><path style="opacity:1" fill="#ffd429" d="M 217.5,279.5 C 225.807,278.569 231.641,281.902 235,289.5C 235.667,316.5 235.667,343.5 235,370.5C 230.395,380.368 223.228,382.868 213.5,378C 211.106,376.048 209.606,373.548 209,370.5C 208.333,343.167 208.333,315.833 209,288.5C 210.688,284.315 213.521,281.315 217.5,279.5 Z"/></g>
<g><path style="opacity:1" fill="#ffd428" d="M 255.5,279.5 C 255.5,313.167 255.5,346.833 255.5,380.5C 249.259,380.43 245.092,377.43 243,371.5C 242.333,343.5 242.333,315.5 243,287.5C 245.635,282.433 249.801,279.766 255.5,279.5 Z"/></g>
<g><path style="opacity:1" fill="#ffa21d" d="M 255.5,279.5 C 261.217,279.774 265.384,282.44 268,287.5C 268.667,315.5 268.667,343.5 268,371.5C 265.923,377.412 261.756,380.412 255.5,380.5C 255.5,346.833 255.5,313.167 255.5,279.5 Z"/></g>
<g><path style="opacity:1" fill="#ffa21d" d="M 285.5,279.5 C 293.274,278.468 298.774,281.468 302,288.5C 302.667,315.833 302.667,343.167 302,370.5C 300.169,377.341 295.669,380.674 288.5,380.5C 282.459,379.637 278.293,376.304 276,370.5C 275.333,343.5 275.333,316.5 276,289.5C 278.022,284.98 281.189,281.647 285.5,279.5 Z"/></g>
<g><path style="opacity:1" fill="#d3d2de" d="M 314.5,281.5 C 320.591,281.211 326.591,281.545 332.5,282.5C 346.755,286.774 353.755,296.441 353.5,311.5C 353.667,326.504 353.5,341.504 353,356.5C 351.445,365.446 346.612,371.946 338.5,376C 330.668,378.217 322.668,379.05 314.5,378.5C 314.5,373.167 314.5,367.833 314.5,362.5C 319.511,362.666 324.511,362.499 329.5,362C 331.848,361.654 333.681,360.487 335,358.5C 336.448,348.939 336.948,339.273 336.5,329.5C 336.945,320.06 336.445,310.726 335,301.5C 334.097,300.299 332.931,299.465 331.5,299C 325.843,298.501 320.176,298.334 314.5,298.5C 314.5,292.833 314.5,287.167 314.5,281.5 Z"/></g>
<g><path style="opacity:1" fill="#3748da" d="M 314.5,298.5 C 320.176,298.334 325.843,298.501 331.5,299C 332.931,299.465 334.097,300.299 335,301.5C 336.445,310.726 336.945,320.06 336.5,329.5C 329.434,334.561 322.101,339.228 314.5,343.5C 314.5,328.5 314.5,313.5 314.5,298.5 Z"/></g>
<g><path style="opacity:1" fill="#70483a" d="M 336.5,329.5 C 336.948,339.273 336.448,348.939 335,358.5C 333.681,360.487 331.848,361.654 329.5,362C 324.511,362.499 319.511,362.666 314.5,362.5C 314.5,356.167 314.5,349.833 314.5,343.5C 322.101,339.228 329.434,334.561 336.5,329.5 Z"/></g>
<g><path style="opacity:1" fill="#dcdbe1" d="M 196.5,394.5 C 216.167,394.5 235.833,394.5 255.5,394.5C 275.167,394.5 294.833,394.5 314.5,394.5C 310.47,399.524 306.47,404.524 302.5,409.5C 270.826,409.833 239.16,409.5 207.5,408.5C 203.81,403.815 200.143,399.148 196.5,394.5 Z"/></g>
</svg>
