<?xml version="1.0" encoding="UTF-8"?>
<!DOCTYPE svg PUBLIC "-//W3C//DTD SVG 1.1//EN" "http://www.w3.org/Graphics/SVG/1.1/DTD/svg11.dtd">
<svg xmlns="http://www.w3.org/2000/svg" version="1.1" width="512px" height="512px" style="shape-rendering:geometricPrecision; text-rendering:geometricPrecision; image-rendering:optimizeQuality; fill-rule:evenodd; clip-rule:evenodd" xmlns:xlink="http://www.w3.org/1999/xlink">
<g><path style="opacity:0.996" fill="#97e481" d="M 232.5,-0.5 C 247.833,-0.5 263.167,-0.5 278.5,-0.5C 368.144,10.3879 435.644,54.7213 481,132.5C 497.695,163.971 507.861,197.304 511.5,232.5C 511.5,247.833 511.5,263.167 511.5,278.5C 510.323,287.914 508.656,297.247 506.5,306.5C 446.758,247.091 387.092,187.758 327.5,128.5C 324.888,127.629 322.221,126.963 319.5,126.5C 316.211,111.353 307.211,106.353 292.5,111.5C 287.432,99.4743 278.432,93.141 265.5,92.5C 252.827,93.1781 244.494,99.5114 240.5,111.5C 233.385,108.773 226.385,108.939 219.5,112C 214.605,115.623 212.272,120.456 212.5,126.5C 200.682,128.461 196.849,135.128 201,146.5C 203.322,149.395 206.155,151.395 209.5,152.5C 209.833,208.837 209.5,265.171 208.5,321.5C 193.943,327.278 179.276,332.778 164.5,338C 153.415,342.75 146.249,350.917 143,362.5C 142.5,372.494 142.334,382.494 142.5,392.5C 168.167,392.5 193.833,392.5 219.5,392.5C 194.337,393.332 169.003,393.832 143.5,394C 182.701,433.035 221.701,472.201 260.5,511.5C 251.167,511.5 241.833,511.5 232.5,511.5C 142.856,500.612 75.3562,456.279 30,378.5C 13.3053,347.029 3.1386,313.696 -0.5,278.5C -0.5,263.167 -0.5,247.833 -0.5,232.5C 10.3875,142.857 54.7208,75.3573 132.5,30C 163.971,13.3053 197.304,3.1386 232.5,-0.5 Z"/></g>
<g><path style="opacity:1" fill="#fefefe" d="M 265.5,92.5 C 265.5,115.5 265.5,138.5 265.5,161.5C 265.5,167.833 265.5,174.167 265.5,180.5C 259.136,187.446 253.303,187.113 248,179.5C 247.501,175.179 247.334,170.846 247.5,166.5C 239.202,167.521 233.536,164.188 230.5,156.5C 229.583,157.127 228.583,157.461 227.5,157.5C 222.563,158.397 218.563,156.897 215.5,153C 213.527,152.505 211.527,152.338 209.5,152.5C 206.155,151.395 203.322,149.395 201,146.5C 196.849,135.128 200.682,128.461 212.5,126.5C 212.272,120.456 214.605,115.623 219.5,112C 226.385,108.939 233.385,108.773 240.5,111.5C 244.494,99.5114 252.827,93.1781 265.5,92.5 Z"/></g>
<g><path style="opacity:1" fill="#e6e6ec" d="M 265.5,92.5 C 278.432,93.141 287.432,99.4743 292.5,111.5C 307.211,106.353 316.211,111.353 319.5,126.5C 322.221,126.963 324.888,127.629 327.5,128.5C 335.253,138.598 333.587,146.598 322.5,152.5C 317.5,152.5 312.5,152.5 307.5,152.5C 299.167,152.5 290.833,152.5 282.5,152.5C 281.947,156.761 279.613,159.594 275.5,161C 272.518,161.498 269.518,161.665 266.5,161.5C 266.167,161.5 265.833,161.5 265.5,161.5C 265.5,138.5 265.5,115.5 265.5,92.5 Z"/></g>
<g><path style="opacity:1" fill="#77dc5a" d="M 327.5,128.5 C 387.092,187.758 446.758,247.091 506.5,306.5C 487.087,393.486 436.754,455.319 355.5,492C 330.621,502.136 304.954,508.636 278.5,511.5C 272.5,511.5 266.5,511.5 260.5,511.5C 221.701,472.201 182.701,433.035 143.5,394C 169.003,393.832 194.337,393.332 219.5,392.5C 234.38,385.893 249.38,379.56 264.5,373.5C 265.167,379.833 265.833,386.167 266.5,392.5C 285.167,392.5 303.833,392.5 322.5,392.5C 322.5,312.5 322.5,232.5 322.5,152.5C 333.587,146.598 335.253,138.598 327.5,128.5 Z"/></g>
<g><path style="opacity:1" fill="#faf1c2" d="M 209.5,152.5 C 211.527,152.338 213.527,152.505 215.5,153C 218.563,156.897 222.563,158.397 227.5,157.5C 226.791,158.404 225.791,158.737 224.5,158.5C 224.667,216.168 224.5,273.834 224,331.5C 204.071,339.142 184.237,346.975 164.5,355C 158.076,361.14 155.742,368.64 157.5,377.5C 177.503,377.667 197.503,377.5 217.5,377C 233.483,370.063 249.483,363.23 265.5,356.5C 265.5,361.833 265.5,367.167 265.5,372.5C 264.833,372.5 264.5,372.833 264.5,373.5C 249.38,379.56 234.38,385.893 219.5,392.5C 193.833,392.5 168.167,392.5 142.5,392.5C 142.334,382.494 142.5,372.494 143,362.5C 146.249,350.917 153.415,342.75 164.5,338C 179.276,332.778 193.943,327.278 208.5,321.5C 209.5,265.171 209.833,208.837 209.5,152.5 Z"/></g>
<g><path style="opacity:1" fill="#ffa21e" d="M 307.5,152.5 C 307.5,227.5 307.5,302.5 307.5,377.5C 298.5,377.5 289.5,377.5 280.5,377.5C 280.5,368.5 280.5,359.5 280.5,350.5C 275.426,351.969 270.426,353.636 265.5,355.5C 265.333,323.165 265.5,290.832 266,258.5C 271.322,256.987 272.822,253.654 270.5,248.5C 269.643,247.575 268.643,246.908 267.5,246.5C 266.509,218.241 266.175,189.907 266.5,161.5C 269.518,161.665 272.518,161.498 275.5,161C 279.613,159.594 281.947,156.761 282.5,152.5C 290.833,152.5 299.167,152.5 307.5,152.5 Z"/></g>
<g><path style="opacity:1" fill="#fde16e" d="M 307.5,152.5 C 312.5,152.5 317.5,152.5 322.5,152.5C 322.5,232.5 322.5,312.5 322.5,392.5C 303.833,392.5 285.167,392.5 266.5,392.5C 266.824,385.646 266.491,378.979 265.5,372.5C 265.5,367.167 265.5,361.833 265.5,356.5C 265.5,356.167 265.5,355.833 265.5,355.5C 270.426,353.636 275.426,351.969 280.5,350.5C 280.5,359.5 280.5,368.5 280.5,377.5C 289.5,377.5 298.5,377.5 307.5,377.5C 307.5,302.5 307.5,227.5 307.5,152.5 Z"/></g>
<g><path style="opacity:1" fill="#ffd428" d="M 265.5,180.5 C 265.5,202.5 265.5,224.5 265.5,246.5C 266.167,246.5 266.833,246.5 267.5,246.5C 268.643,246.908 269.643,247.575 270.5,248.5C 272.822,253.654 271.322,256.987 266,258.5C 265.5,290.832 265.333,323.165 265.5,355.5C 265.5,355.833 265.5,356.167 265.5,356.5C 249.483,363.23 233.483,370.063 217.5,377C 197.503,377.5 177.503,377.667 157.5,377.5C 155.742,368.64 158.076,361.14 164.5,355C 184.237,346.975 204.071,339.142 224,331.5C 224.5,273.834 224.667,216.168 224.5,158.5C 225.791,158.737 226.791,158.404 227.5,157.5C 228.583,157.461 229.583,157.127 230.5,156.5C 233.536,164.188 239.202,167.521 247.5,166.5C 247.334,170.846 247.501,175.179 248,179.5C 253.303,187.113 259.136,187.446 265.5,180.5 Z"/></g>
<g><path style="opacity:1" fill="#ffd127" d="M 290.5,174.5 C 296.873,174.368 299.373,177.368 298,183.5C 294.996,187 291.663,187.333 288,184.5C 286.861,180.579 287.695,177.246 290.5,174.5 Z"/></g>
<g><path style="opacity:1" fill="#ffb832" d="M 265.5,161.5 C 265.833,161.5 266.167,161.5 266.5,161.5C 266.175,189.907 266.509,218.241 267.5,246.5C 266.833,246.5 266.167,246.5 265.5,246.5C 265.5,224.5 265.5,202.5 265.5,180.5C 265.5,174.167 265.5,167.833 265.5,161.5 Z"/></g>
<g><path style="opacity:1" fill="#ffe16d" d="M 242.5,203.5 C 250.618,203.382 252.618,206.882 248.5,214C 241.51,216.005 238.676,213.505 240,206.5C 240.698,205.309 241.531,204.309 242.5,203.5 Z"/></g>
<g><path style="opacity:1" fill="#ffd127" d="M 279.5,207.5 C 285.82,207.32 288.32,210.32 287,216.5C 282.927,220.619 279.26,220.285 276,215.5C 275.279,211.946 276.446,209.28 279.5,207.5 Z"/></g>
<g><path style="opacity:1" fill="#ffe16d" d="M 265.5,246.5 C 265.5,250.167 265.5,253.833 265.5,257.5C 261.938,257.436 260.271,255.603 260.5,252C 260.271,248.397 261.938,246.564 265.5,246.5 Z"/></g>
<g><path style="opacity:1" fill="#ffe16d" d="M 242.5,281.5 C 248.82,281.32 251.32,284.32 250,290.5C 246.714,294.485 243.381,294.485 240,290.5C 238.927,286.9 239.76,283.9 242.5,281.5 Z"/></g>
<g><path style="opacity:1" fill="#ffd127" d="M 279.5,300.5 C 285.873,300.368 288.373,303.368 287,309.5C 282.845,313.704 279.178,313.371 276,308.5C 275.279,304.946 276.446,302.28 279.5,300.5 Z"/></g>
<g><path style="opacity:1" fill="#cddf67" d="M 264.5,373.5 C 264.5,372.833 264.833,372.5 265.5,372.5C 266.491,378.979 266.824,385.646 266.5,392.5C 265.833,386.167 265.167,379.833 264.5,373.5 Z"/></g>
</svg>
