<?xml version="1.0" encoding="UTF-8"?>
<!DOCTYPE svg PUBLIC "-//W3C//DTD SVG 1.1//EN" "http://www.w3.org/Graphics/SVG/1.1/DTD/svg11.dtd">
<svg xmlns="http://www.w3.org/2000/svg" version="1.1" width="512px" height="512px" style="shape-rendering:geometricPrecision; text-rendering:geometricPrecision; image-rendering:optimizeQuality; fill-rule:evenodd; clip-rule:evenodd" xmlns:xlink="http://www.w3.org/1999/xlink">
<g><path style="opacity:0.997" fill="#fee16f" d="M 232.5,-0.5 C 247.833,-0.5 263.167,-0.5 278.5,-0.5C 368.144,10.3879 435.644,54.7213 481,132.5C 497.695,163.971 507.861,197.304 511.5,232.5C 511.5,247.833 511.5,263.167 511.5,278.5C 510.566,279.568 510.232,280.901 510.5,282.5C 467.833,240.167 425.167,197.833 382.5,155.5C 352.833,155.5 323.167,155.5 293.5,155.5C 283.869,145.368 274.036,135.368 264,125.5C 263.5,135.494 263.334,145.494 263.5,155.5C 263.167,155.5 262.833,155.5 262.5,155.5C 262.5,155.167 262.5,154.833 262.5,154.5C 262.5,144.5 262.5,134.5 262.5,124.5C 260.167,124.5 257.833,124.5 255.5,124.5C 253.167,124.5 250.833,124.5 248.5,124.5C 248.5,134.5 248.5,144.5 248.5,154.5C 248.5,154.833 248.5,155.167 248.5,155.5C 208.499,155.333 168.499,155.5 128.5,156C 166.456,208.078 204.289,260.245 242,312.5C 242.667,340.167 242.667,367.833 242,395.5C 225.194,402.268 208.361,408.935 191.5,415.5C 189.973,415.427 188.973,416.094 188.5,417.5C 219.167,448.5 249.833,479.5 280.5,510.5C 279.508,510.328 278.842,510.662 278.5,511.5C 263.167,511.5 247.833,511.5 232.5,511.5C 142.856,500.612 75.3562,456.279 30,378.5C 13.3053,347.029 3.1386,313.696 -0.5,278.5C -0.5,263.167 -0.5,247.833 -0.5,232.5C 10.3875,142.857 54.7208,75.3573 132.5,30C 163.971,13.3053 197.304,3.1386 232.5,-0.5 Z"/></g>
<g><path style="opacity:1" fill="#c2814e" d="M 255.5,124.5 C 255.5,134.5 255.5,144.5 255.5,154.5C 253.167,154.5 250.833,154.5 248.5,154.5C 248.5,144.5 248.5,134.5 248.5,124.5C 250.833,124.5 253.167,124.5 255.5,124.5 Z"/></g>
<g><path style="opacity:1" fill="#ab7245" d="M 255.5,124.5 C 257.833,124.5 260.167,124.5 262.5,124.5C 262.5,134.5 262.5,144.5 262.5,154.5C 260.167,154.5 257.833,154.5 255.5,154.5C 255.5,144.5 255.5,134.5 255.5,124.5 Z"/></g>
<g><path style="opacity:1" fill="#ffd428" d="M 293.5,155.5 C 283.5,155.5 273.5,155.5 263.5,155.5C 263.334,145.494 263.5,135.494 264,125.5C 274.036,135.368 283.869,145.368 293.5,155.5 Z"/></g>
<g><path style="opacity:1" fill="#fefefc" d="M 248.5,155.5 C 248.5,161.167 248.5,166.833 248.5,172.5C 247.833,172.5 247.5,172.833 247.5,173.5C 219.498,173.333 191.498,173.5 163.5,174C 192.667,214.5 221.833,255 251,295.5C 252.356,296.38 253.856,296.714 255.5,296.5C 255.5,336.5 255.5,376.5 255.5,416.5C 233.993,416.831 212.66,416.497 191.5,415.5C 208.361,408.935 225.194,402.268 242,395.5C 242.667,367.833 242.667,340.167 242,312.5C 204.289,260.245 166.456,208.078 128.5,156C 168.499,155.5 208.499,155.333 248.5,155.5 Z"/></g>
<g><path style="opacity:1" fill="#ac7246" d="M 248.5,154.5 C 250.833,154.5 253.167,154.5 255.5,154.5C 255.5,160.833 255.5,167.167 255.5,173.5C 252.941,173.802 250.607,173.468 248.5,172.5C 248.5,166.833 248.5,161.167 248.5,155.5C 248.5,155.167 248.5,154.833 248.5,154.5 Z"/></g>
<g><path style="opacity:1" fill="#94613a" d="M 255.5,154.5 C 257.833,154.5 260.167,154.5 262.5,154.5C 262.5,154.833 262.5,155.167 262.5,155.5C 262.5,161.5 262.5,167.5 262.5,173.5C 260.167,173.5 257.833,173.5 255.5,173.5C 255.5,167.167 255.5,160.833 255.5,154.5 Z"/></g>
<g><path style="opacity:1" fill="#d5e8f5" d="M 262.5,155.5 C 262.833,155.5 263.167,155.5 263.5,155.5C 273.5,155.5 283.5,155.5 293.5,155.5C 323.167,155.5 352.833,155.5 382.5,155.5C 344.676,207.804 306.843,260.137 269,312.5C 268.333,340.167 268.333,367.833 269,395.5C 285.671,402.586 302.505,409.253 319.5,415.5C 298.34,416.497 277.007,416.831 255.5,416.5C 255.5,376.5 255.5,336.5 255.5,296.5C 257.099,296.768 258.432,296.434 259.5,295.5C 288.97,255.182 318.303,214.682 347.5,174C 319.169,173.5 290.835,173.333 262.5,173.5C 262.5,167.5 262.5,161.5 262.5,155.5 Z"/></g>
<g><path style="opacity:1" fill="#fed428" d="M 382.5,155.5 C 425.167,197.833 467.833,240.167 510.5,282.5C 499.979,365.09 459.979,428.923 390.5,474C 356.688,494.659 320.022,506.826 280.5,510.5C 249.833,479.5 219.167,448.5 188.5,417.5C 233.168,417.667 277.835,417.5 322.5,417C 321.473,416.487 320.473,415.987 319.5,415.5C 302.505,409.253 285.671,402.586 269,395.5C 268.333,367.833 268.333,340.167 269,312.5C 306.843,260.137 344.676,207.804 382.5,155.5 Z"/></g>
<g><path style="opacity:1" fill="#50bf73" d="M 247.5,173.5 C 247.207,180.255 247.54,186.922 248.5,193.5C 235.588,191.934 227.922,197.434 225.5,210C 227.054,223.717 234.72,229.884 248.5,228.5C 250.025,235.201 252.358,241.534 255.5,247.5C 255.833,247.5 256.167,247.5 256.5,247.5C 255.516,263.422 255.183,279.422 255.5,295.5C 256.833,295.5 258.167,295.5 259.5,295.5C 258.432,296.434 257.099,296.768 255.5,296.5C 253.856,296.714 252.356,296.38 251,295.5C 221.833,255 192.667,214.5 163.5,174C 191.498,173.5 219.498,173.333 247.5,173.5 Z"/></g>
<g><path style="opacity:1" fill="#926a3e" d="M 248.5,172.5 C 250.607,173.468 252.941,173.802 255.5,173.5C 255.5,179.833 255.5,186.167 255.5,192.5C 257.833,192.5 260.167,192.5 262.5,192.5C 262.5,192.833 262.5,193.167 262.5,193.5C 260.167,193.5 257.833,193.5 255.5,193.5C 253.167,193.5 250.833,193.5 248.5,193.5C 247.54,186.922 247.207,180.255 247.5,173.5C 247.5,172.833 247.833,172.5 248.5,172.5 Z"/></g>
<g><path style="opacity:1" fill="#704829" d="M 255.5,173.5 C 257.833,173.5 260.167,173.5 262.5,173.5C 262.5,179.833 262.5,186.167 262.5,192.5C 260.167,192.5 257.833,192.5 255.5,192.5C 255.5,186.167 255.5,179.833 255.5,173.5 Z"/></g>
<g><path style="opacity:1" fill="#07aa5e" d="M 262.5,173.5 C 290.835,173.333 319.169,173.5 347.5,174C 318.303,214.682 288.97,255.182 259.5,295.5C 258.167,295.5 256.833,295.5 255.5,295.5C 255.183,279.422 255.516,263.422 256.5,247.5C 258.78,241.269 260.78,234.935 262.5,228.5C 281.4,228.451 288.233,219.451 283,201.5C 277.877,194.524 271.044,191.858 262.5,193.5C 262.5,193.167 262.5,192.833 262.5,192.5C 262.5,186.167 262.5,179.833 262.5,173.5 Z"/></g>
<g><path style="opacity:1" fill="#b4e34e" d="M 248.5,193.5 C 250.833,193.5 253.167,193.5 255.5,193.5C 255.5,205.167 255.5,216.833 255.5,228.5C 253.167,228.5 250.833,228.5 248.5,228.5C 234.72,229.884 227.054,223.717 225.5,210C 227.922,197.434 235.588,191.934 248.5,193.5 Z"/></g>
<g><path style="opacity:1" fill="#76db5a" d="M 255.5,193.5 C 257.833,193.5 260.167,193.5 262.5,193.5C 271.044,191.858 277.877,194.524 283,201.5C 288.233,219.451 281.4,228.451 262.5,228.5C 260.167,228.5 257.833,228.5 255.5,228.5C 255.5,216.833 255.5,205.167 255.5,193.5 Z"/></g>
<g><path style="opacity:1" fill="#94643b" d="M 248.5,228.5 C 250.833,228.5 253.167,228.5 255.5,228.5C 255.5,234.833 255.5,241.167 255.5,247.5C 252.358,241.534 250.025,235.201 248.5,228.5 Z"/></g>
<g><path style="opacity:1" fill="#70492a" d="M 255.5,228.5 C 257.833,228.5 260.167,228.5 262.5,228.5C 260.78,234.935 258.78,241.269 256.5,247.5C 256.167,247.5 255.833,247.5 255.5,247.5C 255.5,241.167 255.5,234.833 255.5,228.5 Z"/></g>
<g><path style="opacity:1" fill="#eee5a6" d="M 191.5,415.5 C 212.66,416.497 233.993,416.831 255.5,416.5C 277.007,416.831 298.34,416.497 319.5,415.5C 320.473,415.987 321.473,416.487 322.5,417C 277.835,417.5 233.168,417.667 188.5,417.5C 188.973,416.094 189.973,415.427 191.5,415.5 Z"/></g>
</svg>
