<?xml version="1.0" encoding="UTF-8"?>
<!DOCTYPE svg PUBLIC "-//W3C//DTD SVG 1.1//EN" "http://www.w3.org/Graphics/SVG/1.1/DTD/svg11.dtd">
<svg xmlns="http://www.w3.org/2000/svg" version="1.1" width="512px" height="512px" style="shape-rendering:geometricPrecision; text-rendering:geometricPrecision; image-rendering:optimizeQuality; fill-rule:evenodd; clip-rule:evenodd" xmlns:xlink="http://www.w3.org/1999/xlink">
<g><path style="opacity:0.995" fill="#fd6a15" d="M 232.5,-0.5 C 247.833,-0.5 263.167,-0.5 278.5,-0.5C 368.144,10.3879 435.644,54.7213 481,132.5C 497.183,162.549 507.016,194.549 510.5,228.5C 475.167,193.5 439.833,158.5 404.5,123.5C 403.833,122.833 403.167,122.167 402.5,121.5C 357.336,120.501 312.003,120.168 266.5,120.5C 257.5,110.833 248.167,101.5 238.5,92.5C 215.339,91.5025 192.006,91.1691 168.5,91.5C 145.833,91.5 123.167,91.5 100.5,91.5C 101.584,113.518 102.918,135.518 104.5,157.5C 104.5,157.833 104.5,158.167 104.5,158.5C 109.278,236.51 114.278,314.51 119.5,392.5C 116.136,405.303 113.136,418.303 110.5,431.5C 133.857,453.857 156.524,476.857 178.5,500.5C 104.255,475.425 51.0886,427.092 19,355.5C 8.86392,330.621 2.36392,304.954 -0.5,278.5C -0.5,263.167 -0.5,247.833 -0.5,232.5C 10.3875,142.857 54.7208,75.3573 132.5,30C 163.971,13.3053 197.304,3.1386 232.5,-0.5 Z"/></g>
<g><path style="opacity:1" fill="#fffefd" d="M 168.5,91.5 C 168.5,113.5 168.5,135.5 168.5,157.5C 147.167,157.5 125.833,157.5 104.5,157.5C 102.918,135.518 101.584,113.518 100.5,91.5C 123.167,91.5 145.833,91.5 168.5,91.5 Z"/></g>
<g><path style="opacity:1" fill="#e9ecf4" d="M 168.5,91.5 C 192.006,91.1691 215.339,91.5025 238.5,92.5C 238.332,99.5097 237.999,106.51 237.5,113.5C 236.527,115.948 236.194,118.615 236.5,121.5C 233.428,121.183 230.428,121.516 227.5,122.5C 221.649,133.724 216.983,145.391 213.5,157.5C 198.5,157.5 183.5,157.5 168.5,157.5C 168.5,135.5 168.5,113.5 168.5,91.5 Z"/></g>
<g><path style="opacity:1" fill="#ea3e03" d="M 238.5,92.5 C 248.167,101.5 257.5,110.833 266.5,120.5C 256.833,120.5 247.167,120.5 237.5,120.5C 237.5,118.167 237.5,115.833 237.5,113.5C 237.999,106.51 238.332,99.5097 238.5,92.5 Z"/></g>
<g><path style="opacity:1" fill="#f9b593" d="M 237.5,113.5 C 237.5,115.833 237.5,118.167 237.5,120.5C 247.167,120.5 256.833,120.5 266.5,120.5C 312.003,120.168 357.336,120.501 402.5,121.5C 373.833,121.5 345.167,121.5 316.5,121.5C 289.833,121.5 263.167,121.5 236.5,121.5C 236.194,118.615 236.527,115.948 237.5,113.5 Z"/></g>
<g><path style="opacity:1" fill="#fefefe" d="M 236.5,121.5 C 263.167,121.5 289.833,121.5 316.5,121.5C 316.5,135.5 316.5,149.5 316.5,163.5C 281.484,164.16 246.817,163.493 212.5,161.5C 212.5,160.833 212.5,160.167 212.5,159.5C 213.338,159.158 213.672,158.492 213.5,157.5C 216.983,145.391 221.649,133.724 227.5,122.5C 230.428,121.516 233.428,121.183 236.5,121.5 Z"/></g>
<g><path style="opacity:1" fill="#e9ecf4" d="M 316.5,121.5 C 345.167,121.5 373.833,121.5 402.5,121.5C 403.167,122.167 403.833,122.833 404.5,123.5C 410.356,136.066 415.022,149.066 418.5,162.5C 384.671,163.498 350.671,163.832 316.5,163.5C 316.5,149.5 316.5,135.5 316.5,121.5 Z"/></g>
<g><path style="opacity:1" fill="#ea3e03" d="M 404.5,123.5 C 439.833,158.5 475.167,193.5 510.5,228.5C 510.232,230.099 510.566,231.432 511.5,232.5C 511.5,247.833 511.5,263.167 511.5,278.5C 500.612,368.144 456.279,435.644 378.5,481C 347.029,497.695 313.696,507.861 278.5,511.5C 263.167,511.5 247.833,511.5 232.5,511.5C 214.315,509.354 196.315,505.687 178.5,500.5C 156.524,476.857 133.857,453.857 110.5,431.5C 129.833,431.5 149.167,431.5 168.5,431.5C 188.5,431.5 208.5,431.5 228.5,431.5C 225.577,418.553 222.911,405.553 220.5,392.5C 222.292,354.156 224.292,315.823 226.5,277.5C 237.293,299.531 252.293,318.364 271.5,334C 278.653,339.241 286.319,343.407 294.5,346.5C 294.5,365.833 294.5,385.167 294.5,404.5C 286.981,404.175 279.648,404.508 272.5,405.5C 272.5,416.5 272.5,427.5 272.5,438.5C 287.167,438.5 301.833,438.5 316.5,438.5C 330.5,438.5 344.5,438.5 358.5,438.5C 358.5,427.5 358.5,416.5 358.5,405.5C 351.352,404.508 344.019,404.175 336.5,404.5C 336.5,385.167 336.5,365.833 336.5,346.5C 360.732,335.447 379.899,318.447 394,295.5C 414.563,263.145 424.563,227.812 424,189.5C 422.947,181.069 421.447,172.736 419.5,164.5C 419.672,163.508 419.338,162.842 418.5,162.5C 415.022,149.066 410.356,136.066 404.5,123.5 Z"/></g>
<g><path style="opacity:1" fill="#f8de88" d="M 104.5,158.5 C 104.5,158.167 104.5,157.833 104.5,157.5C 125.833,157.5 147.167,157.5 168.5,157.5C 183.5,157.5 198.5,157.5 213.5,157.5C 213.672,158.492 213.338,159.158 212.5,159.5C 198.01,158.504 183.343,158.171 168.5,158.5C 147.167,158.5 125.833,158.5 104.5,158.5 Z"/></g>
<g><path style="opacity:1" fill="#ffcd00" d="M 104.5,158.5 C 125.833,158.5 147.167,158.5 168.5,158.5C 168.5,236.5 168.5,314.5 168.5,392.5C 152.167,392.5 135.833,392.5 119.5,392.5C 114.278,314.51 109.278,236.51 104.5,158.5 Z"/></g>
<g><path style="opacity:1" fill="#fcb912" d="M 168.5,158.5 C 183.343,158.171 198.01,158.504 212.5,159.5C 212.5,160.167 212.5,160.833 212.5,161.5C 211.596,162.209 211.263,163.209 211.5,164.5C 204.573,191.651 205.406,218.651 214,245.5C 217.487,256.467 221.654,267.133 226.5,277.5C 224.292,315.823 222.292,354.156 220.5,392.5C 203.167,392.5 185.833,392.5 168.5,392.5C 168.5,314.5 168.5,236.5 168.5,158.5 Z"/></g>
<g><path style="opacity:1" fill="#d5b3ab" d="M 212.5,161.5 C 246.817,163.493 281.484,164.16 316.5,163.5C 316.5,163.833 316.5,164.167 316.5,164.5C 281.5,164.5 246.5,164.5 211.5,164.5C 211.263,163.209 211.596,162.209 212.5,161.5 Z"/></g>
<g><path style="opacity:1" fill="#a3786f" d="M 418.5,162.5 C 419.338,162.842 419.672,163.508 419.5,164.5C 385.167,164.5 350.833,164.5 316.5,164.5C 316.5,164.167 316.5,163.833 316.5,163.5C 350.671,163.832 384.671,163.498 418.5,162.5 Z"/></g>
<g><path style="opacity:1" fill="#a65d4e" d="M 211.5,164.5 C 246.5,164.5 281.5,164.5 316.5,164.5C 316.5,226.167 316.5,287.833 316.5,349.5C 314.833,349.5 313.167,349.5 311.5,349.5C 305.993,349.265 300.66,348.265 295.5,346.5C 295.167,346.5 294.833,346.5 294.5,346.5C 286.319,343.407 278.653,339.241 271.5,334C 252.293,318.364 237.293,299.531 226.5,277.5C 221.654,267.133 217.487,256.467 214,245.5C 205.406,218.651 204.573,191.651 211.5,164.5 Z"/></g>
<g><path style="opacity:1" fill="#784132" d="M 316.5,164.5 C 350.833,164.5 385.167,164.5 419.5,164.5C 421.447,172.736 422.947,181.069 424,189.5C 424.563,227.812 414.563,263.145 394,295.5C 379.899,318.447 360.732,335.447 336.5,346.5C 336.167,346.5 335.833,346.5 335.5,346.5C 329.32,348.402 322.986,349.402 316.5,349.5C 316.5,287.833 316.5,226.167 316.5,164.5 Z"/></g>
<g><path style="opacity:1" fill="#d6998a" d="M 249.5,184.5 C 265.538,185.587 270.704,193.587 265,208.5C 256.617,216.777 248.617,216.444 241,207.5C 236.503,197.156 239.336,189.49 249.5,184.5 Z"/></g>
<g><path style="opacity:1" fill="#b26c59" d="M 374.5,184.5 C 389.547,185.691 394.714,193.358 390,207.5C 381.632,216.746 373.299,216.746 365,207.5C 360.461,196.613 363.627,188.946 374.5,184.5 Z"/></g>
<g><path style="opacity:1" fill="#d69a8b" d="M 271.5,227.5 C 286.906,227.393 292.739,234.727 289,249.5C 284.435,255.802 278.268,257.969 270.5,256C 261.3,250.532 259.133,243.032 264,233.5C 266.114,230.879 268.614,228.879 271.5,227.5 Z"/></g>
<g><path style="opacity:1" fill="#f6b199" d="M 294.5,346.5 C 294.833,346.5 295.167,346.5 295.5,346.5C 295.5,366.167 295.5,385.833 295.5,405.5C 287.833,405.5 280.167,405.5 272.5,405.5C 279.648,404.508 286.981,404.175 294.5,404.5C 294.5,385.167 294.5,365.833 294.5,346.5 Z"/></g>
<g><path style="opacity:1" fill="#fefefe" d="M 295.5,346.5 C 300.66,348.265 305.993,349.265 311.5,349.5C 312.919,350.451 314.585,350.784 316.5,350.5C 316.5,379.833 316.5,409.167 316.5,438.5C 301.833,438.5 287.167,438.5 272.5,438.5C 272.5,427.5 272.5,416.5 272.5,405.5C 280.167,405.5 287.833,405.5 295.5,405.5C 295.5,385.833 295.5,366.167 295.5,346.5 Z"/></g>
<g><path style="opacity:1" fill="#e8ecf4" d="M 335.5,346.5 C 335.5,366.167 335.5,385.833 335.5,405.5C 343.167,405.5 350.833,405.5 358.5,405.5C 358.5,416.5 358.5,427.5 358.5,438.5C 344.5,438.5 330.5,438.5 316.5,438.5C 316.5,409.167 316.5,379.833 316.5,350.5C 314.585,350.784 312.919,350.451 311.5,349.5C 313.167,349.5 314.833,349.5 316.5,349.5C 322.986,349.402 329.32,348.402 335.5,346.5 Z"/></g>
<g><path style="opacity:1" fill="#fffefd" d="M 119.5,392.5 C 135.833,392.5 152.167,392.5 168.5,392.5C 168.5,405.5 168.5,418.5 168.5,431.5C 149.167,431.5 129.833,431.5 110.5,431.5C 113.136,418.303 116.136,405.303 119.5,392.5 Z"/></g>
<g><path style="opacity:1" fill="#e9ecf4" d="M 168.5,392.5 C 185.833,392.5 203.167,392.5 220.5,392.5C 222.911,405.553 225.577,418.553 228.5,431.5C 208.5,431.5 188.5,431.5 168.5,431.5C 168.5,418.5 168.5,405.5 168.5,392.5 Z"/></g>
<g><path style="opacity:1" fill="#efa38c" d="M 335.5,346.5 C 335.833,346.5 336.167,346.5 336.5,346.5C 336.5,365.833 336.5,385.167 336.5,404.5C 344.019,404.175 351.352,404.508 358.5,405.5C 350.833,405.5 343.167,405.5 335.5,405.5C 335.5,385.833 335.5,366.167 335.5,346.5 Z"/></g>
</svg>
