<?xml version="1.0" encoding="UTF-8"?>
<!DOCTYPE svg PUBLIC "-//W3C//DTD SVG 1.1//EN" "http://www.w3.org/Graphics/SVG/1.1/DTD/svg11.dtd">
<svg xmlns="http://www.w3.org/2000/svg" version="1.1" width="512px" height="512px" style="shape-rendering:geometricPrecision; text-rendering:geometricPrecision; image-rendering:optimizeQuality; fill-rule:evenodd; clip-rule:evenodd" xmlns:xlink="http://www.w3.org/1999/xlink">
<g><path style="opacity:0.995" fill="#fecc40" d="M 232.5,-0.5 C 247.833,-0.5 263.167,-0.5 278.5,-0.5C 368.144,10.3879 435.644,54.7213 481,132.5C 497.695,163.971 507.861,197.304 511.5,232.5C 511.5,235.5 511.5,238.5 511.5,241.5C 480.833,211.167 450.167,180.833 419.5,150.5C 403.163,152.589 387.163,156.923 371.5,163.5C 335.119,126.452 298.452,89.7853 261.5,53.5C 259.5,51.5 257.5,49.5 255.5,47.5C 228.002,82.1815 210.502,121.515 203,165.5C 202.481,178.523 202.481,191.523 203,204.5C 178.994,180.738 150.494,164.571 117.5,156C 108.966,153.43 100.299,151.597 91.5,150.5C 94.4904,177.971 101.657,204.304 113,229.5C 122.119,248.285 134.619,264.452 150.5,278C 118.538,283.487 88.8712,294.821 61.5,312C 63.0664,312.608 64.3998,313.442 65.5,314.5C 88.2923,338.8 111.959,362.967 136.5,387C 137.094,387.464 137.761,387.631 138.5,387.5C 137.406,389.612 136.406,391.779 135.5,394C 135.728,394.399 136.062,394.565 136.5,394.5C 175.167,433.5 213.833,472.5 252.5,511.5C 245.833,511.5 239.167,511.5 232.5,511.5C 142.856,500.612 75.3562,456.279 30,378.5C 13.3053,347.029 3.1386,313.696 -0.5,278.5C -0.5,263.167 -0.5,247.833 -0.5,232.5C 10.3875,142.857 54.7208,75.3573 132.5,30C 163.971,13.3053 197.304,3.1386 232.5,-0.5 Z"/></g>
<g><path style="opacity:1" fill="#36b75c" d="M 255.5,47.5 C 255.5,181.167 255.5,314.833 255.5,448.5C 247.5,448.5 239.5,448.5 231.5,448.5C 235.561,418.147 239.394,387.813 243,357.5C 225.777,380.032 202.944,392.532 174.5,395C 161.788,395.795 149.121,395.628 136.5,394.5C 136.062,394.565 135.728,394.399 135.5,394C 136.406,391.779 137.406,389.612 138.5,387.5C 145.044,372.906 153.71,359.739 164.5,348C 129.084,343.917 96.0843,332.75 65.5,314.5C 64.3998,313.442 63.0664,312.608 61.5,312C 88.8712,294.821 118.538,283.487 150.5,278C 134.619,264.452 122.119,248.285 113,229.5C 101.657,204.304 94.4904,177.971 91.5,150.5C 100.299,151.597 108.966,153.43 117.5,156C 150.494,164.571 178.994,180.738 203,204.5C 202.481,191.523 202.481,178.523 203,165.5C 210.502,121.515 228.002,82.1815 255.5,47.5 Z"/></g>
<g><path style="opacity:1" fill="#0b8259" d="M 255.5,47.5 C 257.5,49.5 259.5,51.5 261.5,53.5C 279.216,78.9345 292.716,106.601 302,136.5C 308.179,158.814 310.179,181.481 308,204.5C 326.109,186.19 347.276,172.523 371.5,163.5C 387.163,156.923 403.163,152.589 419.5,150.5C 416.053,189.685 403.219,225.352 381,257.5C 374.833,265 368,271.833 360.5,278C 392.473,283.494 422.14,294.828 449.5,312C 418.074,332.143 383.74,344.143 346.5,348C 358.929,361.51 368.596,376.844 375.5,394C 361.881,395.573 348.214,395.906 334.5,395C 306.763,392.24 284.596,379.74 268,357.5C 271.745,387.79 275.578,418.123 279.5,448.5C 271.5,448.5 263.5,448.5 255.5,448.5C 255.5,314.833 255.5,181.167 255.5,47.5 Z"/></g>
<g><path style="opacity:1" fill="#fdaf31" d="M 261.5,53.5 C 298.452,89.7853 335.119,126.452 371.5,163.5C 347.276,172.523 326.109,186.19 308,204.5C 310.179,181.481 308.179,158.814 302,136.5C 292.716,106.601 279.216,78.9345 261.5,53.5 Z"/></g>
<g><path style="opacity:1" fill="#feb031" d="M 419.5,150.5 C 450.167,180.833 480.833,211.167 511.5,241.5C 511.5,253.833 511.5,266.167 511.5,278.5C 500.612,368.144 456.279,435.644 378.5,481C 347.029,497.695 313.696,507.861 278.5,511.5C 269.833,511.5 261.167,511.5 252.5,511.5C 213.833,472.5 175.167,433.5 136.5,394.5C 149.121,395.628 161.788,395.795 174.5,395C 202.944,392.532 225.777,380.032 243,357.5C 239.394,387.813 235.561,418.147 231.5,448.5C 239.5,448.5 247.5,448.5 255.5,448.5C 263.5,448.5 271.5,448.5 279.5,448.5C 275.578,418.123 271.745,387.79 268,357.5C 284.596,379.74 306.763,392.24 334.5,395C 348.214,395.906 361.881,395.573 375.5,394C 368.596,376.844 358.929,361.51 346.5,348C 383.74,344.143 418.074,332.143 449.5,312C 422.14,294.828 392.473,283.494 360.5,278C 368,271.833 374.833,265 381,257.5C 403.219,225.352 416.053,189.685 419.5,150.5 Z"/></g>
<g><path style="opacity:1" fill="#feb031" d="M 65.5,314.5 C 96.0843,332.75 129.084,343.917 164.5,348C 153.71,359.739 145.044,372.906 138.5,387.5C 137.761,387.631 137.094,387.464 136.5,387C 111.959,362.967 88.2923,338.8 65.5,314.5 Z"/></g>
</svg>
