<?xml version="1.0" encoding="UTF-8"?>
<!DOCTYPE svg PUBLIC "-//W3C//DTD SVG 1.1//EN" "http://www.w3.org/Graphics/SVG/1.1/DTD/svg11.dtd">
<svg xmlns="http://www.w3.org/2000/svg" version="1.1" width="512px" height="512px" style="shape-rendering:geometricPrecision; text-rendering:geometricPrecision; image-rendering:optimizeQuality; fill-rule:evenodd; clip-rule:evenodd" xmlns:xlink="http://www.w3.org/1999/xlink">
<g><path style="opacity:0.997" fill="#8e4dd5" d="M 232.5,-0.5 C 247.833,-0.5 263.167,-0.5 278.5,-0.5C 368.144,10.3879 435.644,54.7213 481,132.5C 497.695,163.971 507.861,197.304 511.5,232.5C 511.5,242.833 511.5,253.167 511.5,263.5C 475.167,227.5 438.833,191.5 402.5,155.5C 353.5,155.5 304.5,155.5 255.5,155.5C 241.167,155.5 226.833,155.5 212.5,155.5C 212.167,155.5 211.833,155.5 211.5,155.5C 202.521,145.854 193.188,136.521 183.5,127.5C 179.833,130.5 176.5,133.833 173.5,137.5C 179.188,143.52 184.855,149.52 190.5,155.5C 163.165,155.333 135.831,155.5 108.5,156C 153.68,201.347 199.014,246.514 244.5,291.5C 245.666,315.16 245.833,338.826 245,362.5C 222.554,375.305 200.054,387.972 177.5,400.5C 175.895,401.006 175.561,401.673 176.5,402.5C 211.632,438.132 246.965,473.632 282.5,509C 284.134,509.494 285.801,509.66 287.5,509.5C 284.5,510.167 281.5,510.833 278.5,511.5C 263.167,511.5 247.833,511.5 232.5,511.5C 142.856,500.612 75.3562,456.279 30,378.5C 13.3053,347.029 3.1386,313.696 -0.5,278.5C -0.5,263.167 -0.5,247.833 -0.5,232.5C 10.3875,142.857 54.7208,75.3573 132.5,30C 163.971,13.3053 197.304,3.1386 232.5,-0.5 Z"/></g>
<g><path style="opacity:1" fill="#7882ed" d="M 211.5,155.5 C 204.833,155.5 198.167,155.5 191.5,155.5C 191.167,155.5 190.833,155.5 190.5,155.5C 184.855,149.52 179.188,143.52 173.5,137.5C 176.5,133.833 179.833,130.5 183.5,127.5C 193.188,136.521 202.521,145.854 211.5,155.5 Z"/></g>
<g><path style="opacity:1" fill="#fdfcfe" d="M 190.5,155.5 C 190.833,155.5 191.167,155.5 191.5,155.5C 198.167,162.5 204.833,169.5 211.5,176.5C 191.164,176.333 170.831,176.5 150.5,177C 185.368,212.035 220.368,246.868 255.5,281.5C 255.5,321.5 255.5,361.5 255.5,401.5C 229.328,401.831 203.328,401.498 177.5,400.5C 200.054,387.972 222.554,375.305 245,362.5C 245.833,338.826 245.666,315.16 244.5,291.5C 199.014,246.514 153.68,201.347 108.5,156C 135.831,155.5 163.165,155.333 190.5,155.5 Z"/></g>
<g><path style="opacity:1" fill="#4753ca" d="M 191.5,155.5 C 198.167,155.5 204.833,155.5 211.5,155.5C 211.833,155.5 212.167,155.5 212.5,155.5C 219.167,162.5 225.833,169.5 232.5,176.5C 225.833,176.5 219.167,176.5 212.5,176.5C 212.167,176.5 211.833,176.5 211.5,176.5C 204.833,169.5 198.167,162.5 191.5,155.5 Z"/></g>
<g><path style="opacity:1" fill="#fafbfa" d="M 212.5,155.5 C 226.833,155.5 241.167,155.5 255.5,155.5C 255.5,162.167 255.5,168.833 255.5,175.5C 290.671,175.168 325.671,175.502 360.5,176.5C 325.5,176.5 290.5,176.5 255.5,176.5C 248.167,176.5 240.833,176.5 233.5,176.5C 233.167,176.5 232.833,176.5 232.5,176.5C 225.833,169.5 219.167,162.5 212.5,155.5 Z"/></g>
<g><path style="opacity:1" fill="#d5e7f7" d="M 255.5,155.5 C 304.5,155.5 353.5,155.5 402.5,155.5C 357.521,201.146 312.188,246.479 266.5,291.5C 265.334,315.16 265.167,338.826 266,362.5C 288.446,375.305 310.946,387.972 333.5,400.5C 307.672,401.498 281.672,401.831 255.5,401.5C 255.5,361.5 255.5,321.5 255.5,281.5C 256.167,281.5 256.5,281.167 256.5,280.5C 291.5,246.167 326.167,211.5 360.5,176.5C 325.671,175.502 290.671,175.168 255.5,175.5C 255.5,168.833 255.5,162.167 255.5,155.5 Z"/></g>
<g><path style="opacity:1" fill="#613393" d="M 402.5,155.5 C 438.833,191.5 475.167,227.5 511.5,263.5C 511.5,268.5 511.5,273.5 511.5,278.5C 500.612,368.144 456.279,435.644 378.5,481C 350.011,496.441 319.678,505.941 287.5,509.5C 285.801,509.66 284.134,509.494 282.5,509C 246.965,473.632 211.632,438.132 176.5,402.5C 229.501,402.667 282.501,402.5 335.5,402C 334.956,401.283 334.289,400.783 333.5,400.5C 310.946,387.972 288.446,375.305 266,362.5C 265.167,338.826 265.334,315.16 266.5,291.5C 312.188,246.479 357.521,201.146 402.5,155.5 Z"/></g>
<g><path style="opacity:1" fill="#fee270" d="M 211.5,176.5 C 211.833,176.5 212.167,176.5 212.5,176.5C 217.5,181.833 222.5,187.167 227.5,192.5C 226.669,213.48 236.002,228.147 255.5,236.5C 255.171,251.343 255.504,266.01 256.5,280.5C 256.5,281.167 256.167,281.5 255.5,281.5C 220.368,246.868 185.368,212.035 150.5,177C 170.831,176.5 191.164,176.333 211.5,176.5 Z"/></g>
<g><path style="opacity:1" fill="#3933a1" d="M 212.5,176.5 C 219.167,176.5 225.833,176.5 232.5,176.5C 232.833,176.5 233.167,176.5 233.5,176.5C 234.833,178.5 236.5,180.167 238.5,181.5C 233.475,183.859 229.808,187.525 227.5,192.5C 222.5,187.167 217.5,181.833 212.5,176.5 Z"/></g>
<g><path style="opacity:1" fill="#fce16e" d="M 233.5,176.5 C 240.833,176.5 248.167,176.5 255.5,176.5C 255.5,178.5 255.5,180.5 255.5,182.5C 249.879,181.646 244.212,181.313 238.5,181.5C 236.5,180.167 234.833,178.5 233.5,176.5 Z"/></g>
<g><path style="opacity:1" fill="#fed42a" d="M 255.5,176.5 C 290.5,176.5 325.5,176.5 360.5,176.5C 326.167,211.5 291.5,246.167 256.5,280.5C 255.504,266.01 255.171,251.343 255.5,236.5C 263.035,239.423 270.369,238.923 277.5,235C 285.345,226.405 286.512,216.905 281,206.5C 275.151,195.814 266.651,188.148 255.5,183.5C 255.5,183.167 255.5,182.833 255.5,182.5C 255.5,180.5 255.5,178.5 255.5,176.5 Z"/></g>
<g><path style="opacity:1" fill="#b5e34e" d="M 238.5,181.5 C 244.212,181.313 249.879,181.646 255.5,182.5C 255.5,182.833 255.5,183.167 255.5,183.5C 255.5,201.167 255.5,218.833 255.5,236.5C 236.002,228.147 226.669,213.48 227.5,192.5C 229.808,187.525 233.475,183.859 238.5,181.5 Z"/></g>
<g><path style="opacity:1" fill="#79db59" d="M 255.5,183.5 C 266.651,188.148 275.151,195.814 281,206.5C 286.512,216.905 285.345,226.405 277.5,235C 270.369,238.923 263.035,239.423 255.5,236.5C 255.5,218.833 255.5,201.167 255.5,183.5 Z"/></g>
<g><path style="opacity:1" fill="#8d72b6" d="M 177.5,400.5 C 203.328,401.498 229.328,401.831 255.5,401.5C 281.672,401.831 307.672,401.498 333.5,400.5C 334.289,400.783 334.956,401.283 335.5,402C 282.501,402.5 229.501,402.667 176.5,402.5C 175.561,401.673 175.895,401.006 177.5,400.5 Z"/></g>
</svg>
