<?xml version="1.0" encoding="UTF-8"?>
<!DOCTYPE svg PUBLIC "-//W3C//DTD SVG 1.1//EN" "http://www.w3.org/Graphics/SVG/1.1/DTD/svg11.dtd">
<svg xmlns="http://www.w3.org/2000/svg" version="1.1" width="512px" height="512px" style="shape-rendering:geometricPrecision; text-rendering:geometricPrecision; image-rendering:optimizeQuality; fill-rule:evenodd; clip-rule:evenodd" xmlns:xlink="http://www.w3.org/1999/xlink">
<g><path style="opacity:0.991" fill="#b05e4b" d="M 233.5,-0.5 C 248.167,-0.5 262.833,-0.5 277.5,-0.5C 377.805,11.9821 449.305,63.9821 492,155.5C 500.048,174.81 505.548,194.81 508.5,215.5C 468.167,175.5 427.833,135.5 387.5,95.5C 343.67,94.5013 299.67,94.168 255.5,94.5C 211.5,94.5 167.5,94.5 123.5,94.5C 123.176,101.354 123.509,108.021 124.5,114.5C 128.5,119.167 132.833,123.5 137.5,127.5C 137.5,148.167 137.5,168.833 137.5,189.5C 132.833,189.5 128.167,189.5 123.5,189.5C 123.175,196.687 123.509,203.687 124.5,210.5C 128.5,215.167 132.833,219.5 137.5,223.5C 137.5,247.5 137.5,271.5 137.5,295.5C 132.833,295.5 128.167,295.5 123.5,295.5C 123.176,302.354 123.509,309.021 124.5,315.5C 128.5,320.167 132.833,324.5 137.5,328.5C 137.5,352.833 137.5,377.167 137.5,401.5C 132.833,401.5 128.167,401.5 123.5,401.5C 123.176,408.354 123.509,415.021 124.5,421.5C 152.833,450.167 181.167,478.833 209.5,507.5C 135.347,492.814 77.847,453.814 37,390.5C 15.9696,355.576 3.4696,317.909 -0.5,277.5C -0.5,262.833 -0.5,248.167 -0.5,233.5C 11.9821,133.195 63.9821,61.6947 155.5,19C 180.687,8.70332 206.687,2.20332 233.5,-0.5 Z"/></g>
<g><path style="opacity:1" fill="#cdd1df" d="M 255.5,94.5 C 255.5,101.167 255.5,107.833 255.5,114.5C 216.5,114.5 177.5,114.5 138.5,114.5C 138.5,139.5 138.5,164.5 138.5,189.5C 138.167,189.5 137.833,189.5 137.5,189.5C 137.5,168.833 137.5,148.167 137.5,127.5C 137.5,123.167 137.5,118.833 137.5,114.5C 133.167,114.5 128.833,114.5 124.5,114.5C 123.509,108.021 123.176,101.354 123.5,94.5C 167.5,94.5 211.5,94.5 255.5,94.5 Z"/></g>
<g><path style="opacity:1" fill="#bdc2d1" d="M 255.5,94.5 C 299.67,94.168 343.67,94.5013 387.5,95.5C 387.5,101.833 387.5,108.167 387.5,114.5C 382.833,114.5 378.167,114.5 373.5,114.5C 334.167,114.5 294.833,114.5 255.5,114.5C 255.5,107.833 255.5,101.167 255.5,94.5 Z"/></g>
<g><path style="opacity:1" fill="#985040" d="M 387.5,95.5 C 427.833,135.5 468.167,175.5 508.5,215.5C 509.631,221.482 510.631,227.482 511.5,233.5C 511.5,248.167 511.5,262.833 511.5,277.5C 499.018,377.805 447.018,449.305 355.5,492C 330.313,502.297 304.313,508.797 277.5,511.5C 262.5,511.5 247.5,511.5 232.5,511.5C 224.795,510.412 217.129,509.078 209.5,507.5C 181.167,478.833 152.833,450.167 124.5,421.5C 168.167,421.5 211.833,421.5 255.5,421.5C 299.5,421.5 343.5,421.5 387.5,421.5C 387.5,414.833 387.5,408.167 387.5,401.5C 382.833,401.5 378.167,401.5 373.5,401.5C 373.5,372.833 373.5,344.167 373.5,315.5C 378.167,315.5 382.833,315.5 387.5,315.5C 387.5,308.833 387.5,302.167 387.5,295.5C 382.833,295.5 378.167,295.5 373.5,295.5C 373.5,267.167 373.5,238.833 373.5,210.5C 378.167,210.5 382.833,210.5 387.5,210.5C 387.5,203.5 387.5,196.5 387.5,189.5C 382.833,189.5 378.167,189.5 373.5,189.5C 373.5,164.5 373.5,139.5 373.5,114.5C 378.167,114.5 382.833,114.5 387.5,114.5C 387.5,108.167 387.5,101.833 387.5,95.5 Z"/></g>
<g><path style="opacity:1" fill="#985040" d="M 124.5,114.5 C 128.833,114.5 133.167,114.5 137.5,114.5C 137.5,118.833 137.5,123.167 137.5,127.5C 132.833,123.5 128.5,119.167 124.5,114.5 Z"/></g>
<g><path style="opacity:1" fill="#e8ecf4" d="M 255.5,114.5 C 255.5,120.167 255.5,125.833 255.5,131.5C 246.161,131.334 236.827,131.5 227.5,132C 214.493,138.187 211.327,147.687 218,160.5C 220.559,163.531 223.726,165.698 227.5,167C 236.827,167.5 246.161,167.666 255.5,167.5C 255.5,174.833 255.5,182.167 255.5,189.5C 216.5,189.5 177.5,189.5 138.5,189.5C 138.5,164.5 138.5,139.5 138.5,114.5C 177.5,114.5 216.5,114.5 255.5,114.5 Z"/></g>
<g><path style="opacity:1" fill="#dbe0ea" d="M 255.5,114.5 C 294.833,114.5 334.167,114.5 373.5,114.5C 373.5,139.5 373.5,164.5 373.5,189.5C 334.167,189.5 294.833,189.5 255.5,189.5C 255.5,182.167 255.5,174.833 255.5,167.5C 264.506,167.666 273.506,167.5 282.5,167C 294.876,161.873 298.709,153.04 294,140.5C 291.013,136.512 287.18,133.679 282.5,132C 273.506,131.5 264.506,131.334 255.5,131.5C 255.5,125.833 255.5,120.167 255.5,114.5 Z"/></g>
<g><path style="opacity:1" fill="#985041" d="M 255.5,131.5 C 264.506,131.334 273.506,131.5 282.5,132C 287.18,133.679 291.013,136.512 294,140.5C 298.709,153.04 294.876,161.873 282.5,167C 273.506,167.5 264.506,167.666 255.5,167.5C 246.161,167.666 236.827,167.5 227.5,167C 223.726,165.698 220.559,163.531 218,160.5C 211.327,147.687 214.493,138.187 227.5,132C 236.827,131.5 246.161,131.334 255.5,131.5 Z"/></g>
<g><path style="opacity:1" fill="#bc9694" d="M 137.5,189.5 C 133.366,190.485 129.032,190.818 124.5,190.5C 124.5,196.833 124.5,203.167 124.5,209.5C 129.032,209.182 133.366,209.515 137.5,210.5C 133.167,210.5 128.833,210.5 124.5,210.5C 123.509,203.687 123.175,196.687 123.5,189.5C 128.167,189.5 132.833,189.5 137.5,189.5 Z"/></g>
<g><path style="opacity:1" fill="#cdd2e1" d="M 137.5,189.5 C 137.833,189.5 138.167,189.5 138.5,189.5C 177.5,189.5 216.5,189.5 255.5,189.5C 294.833,189.5 334.167,189.5 373.5,189.5C 373.5,189.833 373.5,190.167 373.5,190.5C 334.167,190.5 294.833,190.5 255.5,190.5C 255.5,196.833 255.5,203.167 255.5,209.5C 294.833,209.5 334.167,209.5 373.5,209.5C 373.5,209.833 373.5,210.167 373.5,210.5C 334.167,210.5 294.833,210.5 255.5,210.5C 216.5,210.5 177.5,210.5 138.5,210.5C 138.167,210.5 137.833,210.5 137.5,210.5C 133.366,209.515 129.032,209.182 124.5,209.5C 124.5,203.167 124.5,196.833 124.5,190.5C 129.032,190.818 133.366,190.485 137.5,189.5 Z"/></g>
<g><path style="opacity:1" fill="#bdc3d1" d="M 373.5,190.5 C 377.833,190.5 382.167,190.5 386.5,190.5C 386.5,196.833 386.5,203.167 386.5,209.5C 382.167,209.5 377.833,209.5 373.5,209.5C 334.167,209.5 294.833,209.5 255.5,209.5C 255.5,203.167 255.5,196.833 255.5,190.5C 294.833,190.5 334.167,190.5 373.5,190.5 Z"/></g>
<g><path style="opacity:1" fill="#b8a8af" d="M 373.5,190.5 C 373.5,190.167 373.5,189.833 373.5,189.5C 378.167,189.5 382.833,189.5 387.5,189.5C 387.5,196.5 387.5,203.5 387.5,210.5C 382.833,210.5 378.167,210.5 373.5,210.5C 373.5,210.167 373.5,209.833 373.5,209.5C 377.833,209.5 382.167,209.5 386.5,209.5C 386.5,203.167 386.5,196.833 386.5,190.5C 382.167,190.5 377.833,190.5 373.5,190.5 Z"/></g>
<g><path style="opacity:1" fill="#995040" d="M 124.5,210.5 C 128.833,210.5 133.167,210.5 137.5,210.5C 137.5,214.833 137.5,219.167 137.5,223.5C 132.833,219.5 128.5,215.167 124.5,210.5 Z"/></g>
<g><path style="opacity:1" fill="#e8ecf4" d="M 138.5,210.5 C 177.5,210.5 216.5,210.5 255.5,210.5C 255.5,238.833 255.5,267.167 255.5,295.5C 216.5,295.5 177.5,295.5 138.5,295.5C 138.5,267.167 138.5,238.833 138.5,210.5 Z"/></g>
<g><path style="opacity:1" fill="#dbe0ea" d="M 255.5,210.5 C 294.833,210.5 334.167,210.5 373.5,210.5C 373.5,238.833 373.5,267.167 373.5,295.5C 334.167,295.5 294.833,295.5 255.5,295.5C 255.5,267.167 255.5,238.833 255.5,210.5 Z"/></g>
<g><path style="opacity:1" fill="#cdd0de" d="M 137.5,210.5 C 137.833,210.5 138.167,210.5 138.5,210.5C 138.5,238.833 138.5,267.167 138.5,295.5C 177.5,295.5 216.5,295.5 255.5,295.5C 255.5,302.167 255.5,308.833 255.5,315.5C 216.33,315.168 177.33,315.501 138.5,316.5C 138.5,344.833 138.5,373.167 138.5,401.5C 138.167,401.5 137.833,401.5 137.5,401.5C 137.5,377.167 137.5,352.833 137.5,328.5C 137.5,324.167 137.5,319.833 137.5,315.5C 133.167,315.5 128.833,315.5 124.5,315.5C 123.509,309.021 123.176,302.354 123.5,295.5C 128.167,295.5 132.833,295.5 137.5,295.5C 137.5,271.5 137.5,247.5 137.5,223.5C 137.5,219.167 137.5,214.833 137.5,210.5 Z"/></g>
<g><path style="opacity:1" fill="#bec2d1" d="M 255.5,295.5 C 294.833,295.5 334.167,295.5 373.5,295.5C 378.167,295.5 382.833,295.5 387.5,295.5C 387.5,302.167 387.5,308.833 387.5,315.5C 382.833,315.5 378.167,315.5 373.5,315.5C 334.167,315.5 294.833,315.5 255.5,315.5C 255.5,308.833 255.5,302.167 255.5,295.5 Z"/></g>
<g><path style="opacity:1" fill="#9a5444" d="M 124.5,315.5 C 128.833,315.5 133.167,315.5 137.5,315.5C 137.5,319.833 137.5,324.167 137.5,328.5C 132.833,324.5 128.5,320.167 124.5,315.5 Z"/></g>
<g><path style="opacity:1" fill="#e8edf4" d="M 138.5,316.5 C 177.167,316.5 215.833,316.5 254.5,316.5C 254.5,344.833 254.5,373.167 254.5,401.5C 215.833,401.5 177.167,401.5 138.5,401.5C 138.5,373.167 138.5,344.833 138.5,316.5 Z"/></g>
<g><path style="opacity:1" fill="#dbe0ea" d="M 138.5,316.5 C 177.33,315.501 216.33,315.168 255.5,315.5C 294.833,315.5 334.167,315.5 373.5,315.5C 373.5,344.167 373.5,372.833 373.5,401.5C 334.167,401.5 294.833,401.5 255.5,401.5C 255.167,401.5 254.833,401.5 254.5,401.5C 254.5,373.167 254.5,344.833 254.5,316.5C 215.833,316.5 177.167,316.5 138.5,316.5 Z"/></g>
<g><path style="opacity:1" fill="#ccd1e0" d="M 137.5,401.5 C 137.833,401.5 138.167,401.5 138.5,401.5C 177.167,401.5 215.833,401.5 254.5,401.5C 254.833,401.5 255.167,401.5 255.5,401.5C 255.5,408.167 255.5,414.833 255.5,421.5C 211.833,421.5 168.167,421.5 124.5,421.5C 123.509,415.021 123.176,408.354 123.5,401.5C 128.167,401.5 132.833,401.5 137.5,401.5 Z"/></g>
<g><path style="opacity:1" fill="#bdc2d1" d="M 255.5,401.5 C 294.833,401.5 334.167,401.5 373.5,401.5C 378.167,401.5 382.833,401.5 387.5,401.5C 387.5,408.167 387.5,414.833 387.5,421.5C 343.5,421.5 299.5,421.5 255.5,421.5C 255.5,414.833 255.5,408.167 255.5,401.5 Z"/></g>
</svg>
