<?xml version="1.0" encoding="UTF-8"?>
<!DOCTYPE svg PUBLIC "-//W3C//DTD SVG 1.1//EN" "http://www.w3.org/Graphics/SVG/1.1/DTD/svg11.dtd">
<svg xmlns="http://www.w3.org/2000/svg" version="1.1" width="512px" height="512px" style="shape-rendering:geometricPrecision; text-rendering:geometricPrecision; image-rendering:optimizeQuality; fill-rule:evenodd; clip-rule:evenodd" xmlns:xlink="http://www.w3.org/1999/xlink">
<g><path style="opacity:0.996" fill="#fece00" d="M 232.5,-0.5 C 247.833,-0.5 263.167,-0.5 278.5,-0.5C 368.144,10.3879 435.644,54.7213 481,132.5C 497.695,163.971 507.861,197.304 511.5,232.5C 511.5,247.833 511.5,263.167 511.5,278.5C 510.833,281.5 510.167,284.5 509.5,287.5C 450.5,228.833 391.5,170.167 332.5,111.5C 332.5,110.833 332.167,110.5 331.5,110.5C 304.005,109.502 276.338,109.169 248.5,109.5C 240.113,100.111 231.113,91.4448 221.5,83.5C 210.046,68.6392 195.713,65.1392 178.5,73C 176.34,74.332 174.34,75.832 172.5,77.5C 166.9,74.205 160.9,71.705 154.5,70C 144.207,68.7336 133.874,68.2336 123.5,68.5C 119.187,99.1715 129.52,123.172 154.5,140.5C 158.141,145.832 162.808,150.832 168.5,155.5C 164.204,171.688 160.37,188.021 157,204.5C 154.444,231.631 161.778,255.631 179,276.5C 198,296.5 217,316.5 236,336.5C 236.5,365.498 236.667,394.498 236.5,423.5C 223.833,423.5 211.167,423.5 198.5,423.5C 198.191,434.248 198.524,444.915 199.5,455.5C 217.833,474.167 236.167,492.833 254.5,511.5C 247.167,511.5 239.833,511.5 232.5,511.5C 142.856,500.612 75.3562,456.279 30,378.5C 13.3053,347.029 3.1386,313.696 -0.5,278.5C -0.5,263.167 -0.5,247.833 -0.5,232.5C 10.3875,142.857 54.7208,75.3573 132.5,30C 163.971,13.3053 197.304,3.1386 232.5,-0.5 Z"/></g>
<g><path style="opacity:1" fill="#22d781" d="M 172.5,77.5 C 161.006,91.3414 160.506,105.675 171,120.5C 172.397,122.07 173.897,123.404 175.5,124.5C 174.259,131.955 172.592,139.288 170.5,146.5C 164.803,145.49 159.47,143.49 154.5,140.5C 129.52,123.172 119.187,99.1715 123.5,68.5C 133.874,68.2336 144.207,68.7336 154.5,70C 160.9,71.705 166.9,74.205 172.5,77.5 Z"/></g>
<g><path style="opacity:1" fill="#fe5f95" d="M 221.5,83.5 C 225.586,91.7368 226.586,100.403 224.5,109.5C 217.759,126.208 205.425,133.041 187.5,130C 183.095,128.963 179.095,127.129 175.5,124.5C 173.897,123.404 172.397,122.07 171,120.5C 160.506,105.675 161.006,91.3414 172.5,77.5C 174.34,75.832 176.34,74.332 178.5,73C 195.713,65.1392 210.046,68.6392 221.5,83.5 Z"/></g>
<g><path style="opacity:1" fill="#ffa308" d="M 221.5,83.5 C 231.113,91.4448 240.113,100.111 248.5,109.5C 240.5,109.5 232.5,109.5 224.5,109.5C 226.586,100.403 225.586,91.7368 221.5,83.5 Z"/></g>
<g><path style="opacity:1" fill="#fffefc" d="M 224.5,109.5 C 232.5,109.5 240.5,109.5 248.5,109.5C 276.338,109.169 304.005,109.502 331.5,110.5C 306.167,110.5 280.833,110.5 255.5,110.5C 255.5,140.833 255.5,171.167 255.5,201.5C 231.158,201.167 206.824,201.5 182.5,202.5C 178.319,225.776 183.819,246.443 199,264.5C 209.5,276.333 220.667,287.5 232.5,298C 239.519,302.504 247.186,304.671 255.5,304.5C 255.5,354.5 255.5,404.5 255.5,454.5C 274.5,454.5 293.5,454.5 312.5,454.5C 275.004,455.498 237.337,455.832 199.5,455.5C 198.524,444.915 198.191,434.248 198.5,423.5C 211.167,423.5 223.833,423.5 236.5,423.5C 236.667,394.498 236.5,365.498 236,336.5C 217,316.5 198,296.5 179,276.5C 161.778,255.631 154.444,231.631 157,204.5C 160.37,188.021 164.204,171.688 168.5,155.5C 169.167,152.5 169.833,149.5 170.5,146.5C 172.592,139.288 174.259,131.955 175.5,124.5C 179.095,127.129 183.095,128.963 187.5,130C 205.425,133.041 217.759,126.208 224.5,109.5 Z"/></g>
<g><path style="opacity:1" fill="#e9ecf4" d="M 331.5,110.5 C 332.167,110.5 332.5,110.833 332.5,111.5C 339.339,141.19 346.339,170.857 353.5,200.5C 357.485,228.028 350.985,252.695 334,274.5C 315.032,295.136 295.699,315.469 276,335.5C 275.5,364.831 275.333,394.165 275.5,423.5C 287.833,423.5 300.167,423.5 312.5,423.5C 312.5,433.833 312.5,444.167 312.5,454.5C 293.5,454.5 274.5,454.5 255.5,454.5C 255.5,404.5 255.5,354.5 255.5,304.5C 265.114,304.573 273.781,301.74 281.5,296C 292.697,285.137 303.53,273.971 314,262.5C 328.261,244.789 333.094,224.789 328.5,202.5C 304.176,201.5 279.842,201.167 255.5,201.5C 255.5,171.167 255.5,140.833 255.5,110.5C 280.833,110.5 306.167,110.5 331.5,110.5 Z"/></g>
<g><path style="opacity:1" fill="#ffa300" d="M 332.5,111.5 C 391.5,170.167 450.5,228.833 509.5,287.5C 497.959,367.825 458.293,429.991 390.5,474C 355.868,494.822 318.535,507.322 278.5,511.5C 270.5,511.5 262.5,511.5 254.5,511.5C 236.167,492.833 217.833,474.167 199.5,455.5C 237.337,455.832 275.004,455.498 312.5,454.5C 312.5,444.167 312.5,433.833 312.5,423.5C 300.167,423.5 287.833,423.5 275.5,423.5C 275.333,394.165 275.5,364.831 276,335.5C 295.699,315.469 315.032,295.136 334,274.5C 350.985,252.695 357.485,228.028 353.5,200.5C 346.339,170.857 339.339,141.19 332.5,111.5 Z"/></g>
<g><path style="opacity:1" fill="#fca809" d="M 154.5,140.5 C 159.47,143.49 164.803,145.49 170.5,146.5C 169.833,149.5 169.167,152.5 168.5,155.5C 162.808,150.832 158.141,145.832 154.5,140.5 Z"/></g>
<g><path style="opacity:1" fill="#ff6096" d="M 255.5,201.5 C 254.865,221.068 255.532,240.401 257.5,259.5C 245.571,259.929 241.071,265.929 244,277.5C 246.812,282.321 250.979,284.655 256.5,284.5C 255.54,291.078 255.207,297.745 255.5,304.5C 247.186,304.671 239.519,302.504 232.5,298C 220.667,287.5 209.5,276.333 199,264.5C 183.819,246.443 178.319,225.776 182.5,202.5C 206.824,201.5 231.158,201.167 255.5,201.5 Z"/></g>
<g><path style="opacity:1" fill="#d72a78" d="M 255.5,201.5 C 279.842,201.167 304.176,201.5 328.5,202.5C 333.094,224.789 328.261,244.789 314,262.5C 303.53,273.971 292.697,285.137 281.5,296C 273.781,301.74 265.114,304.573 255.5,304.5C 255.207,297.745 255.54,291.078 256.5,284.5C 263.679,283.487 267.679,279.32 268.5,272C 267.801,265.139 264.134,260.972 257.5,259.5C 255.532,240.401 254.865,221.068 255.5,201.5 Z"/></g>
<g><path style="opacity:1" fill="#e8e8f2" d="M 294.5,211.5 C 306.8,212.286 311.634,218.62 309,230.5C 303.007,238.404 296.007,239.404 288,233.5C 282.173,223.814 284.34,216.481 294.5,211.5 Z"/></g>
<g><path style="opacity:1" fill="#fffbfc" d="M 214.5,216.5 C 230.345,216.877 235.845,224.544 231,239.5C 219.822,249.914 210.822,248.248 204,234.5C 203.088,230.548 203.755,226.881 206,223.5C 208.441,220.546 211.275,218.213 214.5,216.5 Z"/></g>
<g><path style="opacity:1" fill="#f0f0f6" d="M 257.5,259.5 C 264.134,260.972 267.801,265.139 268.5,272C 267.679,279.32 263.679,283.487 256.5,284.5C 250.979,284.655 246.812,282.321 244,277.5C 241.071,265.929 245.571,259.929 257.5,259.5 Z"/></g>
</svg>
