<?xml version="1.0" encoding="UTF-8"?>
<!DOCTYPE svg PUBLIC "-//W3C//DTD SVG 1.1//EN" "http://www.w3.org/Graphics/SVG/1.1/DTD/svg11.dtd">
<svg xmlns="http://www.w3.org/2000/svg" version="1.1" width="512px" height="512px" style="shape-rendering:geometricPrecision; text-rendering:geometricPrecision; image-rendering:optimizeQuality; fill-rule:evenodd; clip-rule:evenodd" xmlns:xlink="http://www.w3.org/1999/xlink">
<g><path style="opacity:0.996" fill="#fee26e" d="M 232.5,-0.5 C 247.833,-0.5 263.167,-0.5 278.5,-0.5C 364.976,9.80479 431.142,51.8048 477,125.5C 491.647,150.798 501.814,177.798 507.5,206.5C 506.761,206.631 506.094,206.464 505.5,206C 472.965,173.299 440.299,140.799 407.5,108.5C 381.167,107.167 354.833,107.167 328.5,108.5C 322.373,129.337 316.707,150.337 311.5,171.5C 311.167,171.5 310.833,171.5 310.5,171.5C 298.5,171.5 286.5,171.5 274.5,171.5C 268.5,164.833 262.167,158.5 255.5,152.5C 243.949,140.127 229.615,132.96 212.5,131C 189.87,129.097 170.536,136.097 154.5,152C 158.369,156.037 162.369,159.87 166.5,163.5C 168.833,166.167 171.167,168.833 173.5,171.5C 167.167,171.5 160.833,171.5 154.5,171.5C 154.333,191.836 154.5,212.169 155,232.5C 158.436,262.393 171.936,286.393 195.5,304.5C 208.788,319.301 222.955,333.967 238,348.5C 238.5,339.84 238.666,331.173 238.5,322.5C 239.498,346.994 239.831,371.661 239.5,396.5C 223.5,396.5 207.5,396.5 191.5,396.5C 191.177,403.022 191.51,409.355 192.5,415.5C 223.55,447.55 255.216,478.883 287.5,509.5C 284.5,510.167 281.5,510.833 278.5,511.5C 263.167,511.5 247.833,511.5 232.5,511.5C 142.856,500.612 75.3562,456.279 30,378.5C 13.3053,347.029 3.1386,313.696 -0.5,278.5C -0.5,263.167 -0.5,247.833 -0.5,232.5C 10.3875,142.857 54.7208,75.3573 132.5,30C 163.971,13.3053 197.304,3.1386 232.5,-0.5 Z"/></g>
<g><path style="opacity:1" fill="#9a9acc" d="M 328.5,108.5 C 354.833,107.167 381.167,107.167 407.5,108.5C 407.821,113.695 407.487,118.695 406.5,123.5C 406.5,118.5 406.5,113.5 406.5,108.5C 380.5,108.5 354.5,108.5 328.5,108.5 Z"/></g>
<g><path style="opacity:1" fill="#7983ed" d="M 328.5,108.5 C 354.5,108.5 380.5,108.5 406.5,108.5C 406.5,113.5 406.5,118.5 406.5,123.5C 384.49,123.167 362.49,123.5 340.5,124.5C 335.697,140.048 331.363,155.714 327.5,171.5C 327.5,172.167 327.167,172.5 326.5,172.5C 321.695,171.513 316.695,171.179 311.5,171.5C 316.707,150.337 322.373,129.337 328.5,108.5 Z"/></g>
<g><path style="opacity:1" fill="#fed428" d="M 407.5,108.5 C 440.299,140.799 472.965,173.299 505.5,206C 506.094,206.464 506.761,206.631 507.5,206.5C 508.846,215.297 510.179,223.963 511.5,232.5C 511.5,247.833 511.5,263.167 511.5,278.5C 500.612,368.144 456.279,435.644 378.5,481C 350.011,496.441 319.678,505.941 287.5,509.5C 255.216,478.883 223.55,447.55 192.5,415.5C 213.5,415.5 234.5,415.5 255.5,415.5C 276.5,415.5 297.5,415.5 318.5,415.5C 319.49,409.355 319.823,403.022 319.5,396.5C 303.5,396.5 287.5,396.5 271.5,396.5C 271.5,371.833 271.5,347.167 271.5,322.5C 317.414,313.086 345.247,285.42 355,239.5C 356.398,216.863 356.898,194.196 356.5,171.5C 346.833,171.5 337.167,171.5 327.5,171.5C 331.363,155.714 335.697,140.048 340.5,124.5C 362.49,123.5 384.49,123.167 406.5,123.5C 407.487,118.695 407.821,113.695 407.5,108.5 Z"/></g>
<g><path style="opacity:1" fill="#7adb5a" d="M 255.5,152.5 C 251.5,156.167 247.5,159.833 243.5,163.5C 226.954,148.689 207.954,144.522 186.5,151C 178.997,153.913 172.33,158.08 166.5,163.5C 162.369,159.87 158.369,156.037 154.5,152C 170.536,136.097 189.87,129.097 212.5,131C 229.615,132.96 243.949,140.127 255.5,152.5 Z"/></g>
<g><path style="opacity:1" fill="#ed5da2" d="M 243.5,163.5 C 241.167,166.167 238.833,168.833 236.5,171.5C 235.833,171.833 235.167,172.167 234.5,172.5C 214.833,171.167 195.167,171.167 175.5,172.5C 174.833,172.167 174.167,171.833 173.5,171.5C 171.167,168.833 168.833,166.167 166.5,163.5C 172.33,158.08 178.997,153.913 186.5,151C 207.954,144.522 226.954,148.689 243.5,163.5 Z"/></g>
<g><path style="opacity:1" fill="#fed42b" d="M 255.5,152.5 C 262.167,158.5 268.5,164.833 274.5,171.5C 268.167,171.5 261.833,171.5 255.5,171.5C 249.167,171.5 242.833,171.5 236.5,171.5C 238.833,168.833 241.167,166.167 243.5,163.5C 247.5,159.833 251.5,156.167 255.5,152.5 Z"/></g>
<g><path style="opacity:1" fill="#fefefd" d="M 173.5,171.5 C 174.167,171.833 174.833,172.167 175.5,172.5C 180.167,177.833 185.167,182.833 190.5,187.5C 185.695,188.487 180.695,188.821 175.5,188.5C 175.117,206.534 175.617,224.534 177,242.5C 188.009,282.336 214.175,303.669 255.5,306.5C 255.5,342.833 255.5,379.167 255.5,415.5C 234.5,415.5 213.5,415.5 192.5,415.5C 192.5,409.5 192.5,403.5 192.5,397.5C 208.342,397.83 224.009,397.496 239.5,396.5C 239.831,371.661 239.498,346.994 238.5,322.5C 222.811,319.608 208.478,313.608 195.5,304.5C 171.936,286.393 158.436,262.393 155,232.5C 154.5,212.169 154.333,191.836 154.5,171.5C 160.833,171.5 167.167,171.5 173.5,171.5 Z"/></g>
<g><path style="opacity:1" fill="#e82282" d="M 234.5,172.5 C 229.833,177.833 224.833,182.833 219.5,187.5C 218.833,187.5 218.5,187.833 218.5,188.5C 209.5,188.5 200.5,188.5 191.5,188.5C 191.5,187.833 191.167,187.5 190.5,187.5C 185.167,182.833 180.167,177.833 175.5,172.5C 195.167,171.167 214.833,171.167 234.5,172.5 Z"/></g>
<g><path style="opacity:1" fill="#fefdfd" d="M 236.5,171.5 C 242.833,171.5 249.167,171.5 255.5,171.5C 255.5,177.167 255.5,182.833 255.5,188.5C 243.322,188.828 231.322,188.495 219.5,187.5C 224.833,182.833 229.833,177.833 234.5,172.5C 235.167,172.167 235.833,171.833 236.5,171.5 Z"/></g>
<g><path style="opacity:1" fill="#d6e7f7" d="M 255.5,171.5 C 261.833,171.5 268.167,171.5 274.5,171.5C 286.5,171.5 298.5,171.5 310.5,171.5C 309.167,177.167 307.833,182.833 306.5,188.5C 306.167,188.5 305.833,188.5 305.5,188.5C 288.833,188.5 272.167,188.5 255.5,188.5C 255.5,182.833 255.5,177.167 255.5,171.5 Z"/></g>
<g><path style="opacity:1" fill="#4853ca" d="M 310.5,171.5 C 310.833,171.5 311.167,171.5 311.5,171.5C 316.695,171.179 321.695,171.513 326.5,172.5C 325.371,177.888 324.037,183.221 322.5,188.5C 317.167,188.5 311.833,188.5 306.5,188.5C 307.833,182.833 309.167,177.167 310.5,171.5 Z"/></g>
<g><path style="opacity:1" fill="#d6e8f6" d="M 327.5,171.5 C 337.167,171.5 346.833,171.5 356.5,171.5C 356.898,194.196 356.398,216.863 355,239.5C 345.247,285.42 317.414,313.086 271.5,322.5C 271.5,347.167 271.5,371.833 271.5,396.5C 286.991,397.496 302.658,397.83 318.5,397.5C 318.5,403.5 318.5,409.5 318.5,415.5C 297.5,415.5 276.5,415.5 255.5,415.5C 255.5,379.167 255.5,342.833 255.5,306.5C 258.713,306.81 261.713,306.477 264.5,305.5C 301.474,299.759 324.641,278.759 334,242.5C 335.4,224.537 335.9,206.537 335.5,188.5C 331.167,188.5 326.833,188.5 322.5,188.5C 324.037,183.221 325.371,177.888 326.5,172.5C 327.167,172.5 327.5,172.167 327.5,171.5 Z"/></g>
<g><path style="opacity:1" fill="#ef5ca4" d="M 190.5,187.5 C 191.167,187.5 191.5,187.833 191.5,188.5C 195.51,193.343 200.01,197.676 205,201.5C 209.99,197.676 214.49,193.343 218.5,188.5C 218.5,187.833 218.833,187.5 219.5,187.5C 231.322,188.495 243.322,188.828 255.5,188.5C 255.5,227.5 255.5,266.5 255.5,305.5C 258.5,305.5 261.5,305.5 264.5,305.5C 261.713,306.477 258.713,306.81 255.5,306.5C 214.175,303.669 188.009,282.336 177,242.5C 175.617,224.534 175.117,206.534 175.5,188.5C 180.695,188.821 185.695,188.487 190.5,187.5 Z"/></g>
<g><path style="opacity:1" fill="#c01e6a" d="M 191.5,188.5 C 200.5,188.5 209.5,188.5 218.5,188.5C 214.49,193.343 209.99,197.676 205,201.5C 200.01,197.676 195.51,193.343 191.5,188.5 Z"/></g>
<g><path style="opacity:1" fill="#e91d82" d="M 255.5,188.5 C 272.167,188.5 288.833,188.5 305.5,188.5C 296.167,223.5 286.833,258.5 277.5,293.5C 281.862,294.285 286.196,295.285 290.5,296.5C 291.647,296.182 292.481,295.516 293,294.5C 302.837,259.148 312.671,223.815 322.5,188.5C 326.833,188.5 331.167,188.5 335.5,188.5C 335.9,206.537 335.4,224.537 334,242.5C 324.641,278.759 301.474,299.759 264.5,305.5C 261.5,305.5 258.5,305.5 255.5,305.5C 255.5,266.5 255.5,227.5 255.5,188.5 Z"/></g>
<g><path style="opacity:1" fill="#3a2fa2" d="M 305.5,188.5 C 305.833,188.5 306.167,188.5 306.5,188.5C 311.833,188.5 317.167,188.5 322.5,188.5C 312.671,223.815 302.837,259.148 293,294.5C 292.481,295.516 291.647,296.182 290.5,296.5C 286.196,295.285 281.862,294.285 277.5,293.5C 286.833,258.5 296.167,223.5 305.5,188.5 Z"/></g>
<g><path style="opacity:1" fill="#ffd42c" d="M 195.5,304.5 C 208.478,313.608 222.811,319.608 238.5,322.5C 238.666,331.173 238.5,339.84 238,348.5C 222.955,333.967 208.788,319.301 195.5,304.5 Z"/></g>
<g><path style="opacity:1" fill="#fff4c9" d="M 239.5,396.5 C 224.009,397.496 208.342,397.83 192.5,397.5C 192.5,403.5 192.5,409.5 192.5,415.5C 191.51,409.355 191.177,403.022 191.5,396.5C 207.5,396.5 223.5,396.5 239.5,396.5 Z"/></g>
<g><path style="opacity:1" fill="#e5e1ab" d="M 271.5,396.5 C 287.5,396.5 303.5,396.5 319.5,396.5C 319.823,403.022 319.49,409.355 318.5,415.5C 318.5,409.5 318.5,403.5 318.5,397.5C 302.658,397.83 286.991,397.496 271.5,396.5 Z"/></g>
</svg>
