<?xml version="1.0" encoding="UTF-8"?>
<!DOCTYPE svg PUBLIC "-//W3C//DTD SVG 1.1//EN" "http://www.w3.org/Graphics/SVG/1.1/DTD/svg11.dtd">
<svg xmlns="http://www.w3.org/2000/svg" version="1.1" width="512px" height="512px" style="shape-rendering:geometricPrecision; text-rendering:geometricPrecision; image-rendering:optimizeQuality; fill-rule:evenodd; clip-rule:evenodd" xmlns:xlink="http://www.w3.org/1999/xlink">
<g><path style="opacity:0.998" fill="#9d9de0" d="M 232.5,-0.5 C 247.833,-0.5 263.167,-0.5 278.5,-0.5C 366.196,10.2472 432.863,53.2472 478.5,128.5C 460.495,159.178 437.161,185.178 408.5,206.5C 408.5,204.833 408.5,203.167 408.5,201.5C 410.312,184.35 411.645,167.016 412.5,149.5C 388.167,149.5 363.833,149.5 339.5,149.5C 315.167,149.5 290.833,149.5 266.5,149.5C 266.98,166.87 267.98,184.203 269.5,201.5C 270.405,220.173 271.405,238.839 272.5,257.5C 261.167,257.5 249.833,257.5 238.5,257.5C 239.211,238.814 240.211,220.148 241.5,201.5C 242.93,184.323 244.264,166.99 245.5,149.5C 220.833,149.5 196.167,149.5 171.5,149.5C 147.5,149.5 123.5,149.5 99.5,149.5C 100.416,168.157 101.083,186.824 101.5,205.5C 80.6674,189.86 62.5008,171.527 47,150.5C 42.3037,142.991 37.4703,135.657 32.5,128.5C 78.1369,53.2472 144.804,10.2472 232.5,-0.5 Z"/></g>
<g><path style="opacity:1" fill="#fdfdfe" d="M 251.5,33.5 C 254.167,33.5 256.833,33.5 259.5,33.5C 259.879,42.5461 264.546,47.2128 273.5,47.5C 273.5,50.5 273.5,53.5 273.5,56.5C 264.99,56.6761 260.323,61.0094 259.5,69.5C 256.833,69.5 254.167,69.5 251.5,69.5C 250.649,60.9799 245.982,56.6466 237.5,56.5C 237.5,53.5 237.5,50.5 237.5,47.5C 246.5,47.1667 251.167,42.5 251.5,33.5 Z"/></g>
<g><path style="opacity:1" fill="#fdfdfe" d="M 147.5,85.5 C 150.5,85.5 153.5,85.5 156.5,85.5C 156.5,94.1667 160.833,98.5 169.5,98.5C 169.5,101.5 169.5,104.5 169.5,107.5C 160.639,108.026 156.306,112.692 156.5,121.5C 153.5,121.5 150.5,121.5 147.5,121.5C 147.184,112.517 142.517,107.85 133.5,107.5C 133.5,104.5 133.5,101.5 133.5,98.5C 142.666,99.0003 147.333,94.6669 147.5,85.5 Z"/></g>
<g><path style="opacity:1" fill="#fcfcfe" d="M 355.5,85.5 C 358.5,85.5 361.5,85.5 364.5,85.5C 364.519,94.1852 368.852,98.5186 377.5,98.5C 377.5,101.5 377.5,104.5 377.5,107.5C 368.98,108.351 364.647,113.018 364.5,121.5C 361.5,121.5 358.5,121.5 355.5,121.5C 355.302,112.301 350.635,107.967 341.5,108.5C 341.5,105.167 341.5,101.833 341.5,98.5C 350.683,98.9822 355.35,94.6489 355.5,85.5 Z"/></g>
<g><path style="opacity:1" fill="#7d7dd6" d="M 32.5,128.5 C 37.4703,135.657 42.3037,142.991 47,150.5C 62.5008,171.527 80.6674,189.86 101.5,205.5C 101.5,206.167 101.833,206.5 102.5,206.5C 102.951,226.377 104.285,246.044 106.5,265.5C 107.497,282.149 108.164,298.816 108.5,315.5C 98.5,315.5 88.5,315.5 78.5,315.5C 76.5864,347.733 90.9197,368.399 121.5,377.5C 90.9954,377.169 60.6621,377.502 30.5,378.5C 13.3569,347.256 3.02353,313.923 -0.5,278.5C -0.5,263.167 -0.5,247.833 -0.5,232.5C 3.24324,195.601 14.2432,160.934 32.5,128.5 Z"/></g>
<g><path style="opacity:1" fill="#7d7dd5" d="M 478.5,128.5 C 496.756,160.933 507.756,195.6 511.5,232.5C 511.5,247.833 511.5,263.167 511.5,278.5C 507.976,313.923 497.643,347.256 480.5,378.5C 450.005,377.502 419.338,377.169 388.5,377.5C 419.711,368.908 434.377,348.241 432.5,315.5C 422.681,314.506 412.681,314.173 402.5,314.5C 403.11,297.801 404.11,281.134 405.5,264.5C 406.002,245.135 407.002,225.802 408.5,206.5C 437.161,185.178 460.495,159.178 478.5,128.5 Z"/></g>
<g><path style="opacity:1" fill="#e6f9fe" d="M 171.5,149.5 C 171.5,166.833 171.5,184.167 171.5,201.5C 161.167,201.5 150.833,201.5 140.5,201.5C 127.833,201.5 115.167,201.5 102.5,201.5C 102.5,203.167 102.5,204.833 102.5,206.5C 101.833,206.5 101.5,206.167 101.5,205.5C 101.083,186.824 100.416,168.157 99.5,149.5C 123.5,149.5 147.5,149.5 171.5,149.5 Z"/></g>
<g><path style="opacity:1" fill="#bce9fc" d="M 171.5,149.5 C 196.167,149.5 220.833,149.5 245.5,149.5C 244.264,166.99 242.93,184.323 241.5,201.5C 218.167,201.5 194.833,201.5 171.5,201.5C 171.5,184.167 171.5,166.833 171.5,149.5 Z"/></g>
<g><path style="opacity:1" fill="#e5f8fd" d="M 339.5,149.5 C 339.5,166.5 339.5,183.5 339.5,200.5C 362.673,200.169 385.673,200.502 408.5,201.5C 385.5,201.5 362.5,201.5 339.5,201.5C 328.167,201.5 316.833,201.5 305.5,201.5C 293.5,201.5 281.5,201.5 269.5,201.5C 267.98,184.203 266.98,166.87 266.5,149.5C 290.833,149.5 315.167,149.5 339.5,149.5 Z"/></g>
<g><path style="opacity:1" fill="#bde9fc" d="M 339.5,149.5 C 363.833,149.5 388.167,149.5 412.5,149.5C 411.645,167.016 410.312,184.35 408.5,201.5C 385.673,200.502 362.673,200.169 339.5,200.5C 339.5,183.5 339.5,166.5 339.5,149.5 Z"/></g>
<g><path style="opacity:1" fill="#bcf0ed" d="M 140.5,201.5 C 140.5,228.833 140.5,256.167 140.5,283.5C 127.155,281.162 115.822,275.162 106.5,265.5C 104.285,246.044 102.951,226.377 102.5,206.5C 102.5,204.833 102.5,203.167 102.5,201.5C 115.167,201.5 127.833,201.5 140.5,201.5 Z"/></g>
<g><path style="opacity:1" fill="#a4f2ed" d="M 140.5,201.5 C 150.833,201.5 161.167,201.5 171.5,201.5C 171.5,229.167 171.5,256.833 171.5,284.5C 161.115,284.786 150.782,284.452 140.5,283.5C 140.5,256.167 140.5,228.833 140.5,201.5 Z"/></g>
<g><path style="opacity:1" fill="#6bb4c8" d="M 171.5,201.5 C 194.833,201.5 218.167,201.5 241.5,201.5C 240.211,220.148 239.211,238.814 238.5,257.5C 238.81,260.713 238.477,263.713 237.5,266.5C 237.565,266.062 237.399,265.728 237,265.5C 226.598,275.784 214.098,281.951 199.5,284C 190.173,284.5 180.839,284.666 171.5,284.5C 171.5,256.833 171.5,229.167 171.5,201.5 Z"/></g>
<g><path style="opacity:1" fill="#f2cd92" d="M 269.5,201.5 C 281.5,201.5 293.5,201.5 305.5,201.5C 305.831,228.672 305.498,255.672 304.5,282.5C 292.505,279.833 282.172,274.167 273.5,265.5C 272.612,262.946 272.279,260.279 272.5,257.5C 271.405,238.839 270.405,220.173 269.5,201.5 Z"/></g>
<g><path style="opacity:1" fill="#e59470" d="M 305.5,201.5 C 316.833,201.5 328.167,201.5 339.5,201.5C 339.5,228.833 339.5,256.167 339.5,283.5C 348.5,283.5 357.5,283.5 366.5,283.5C 357.682,284.493 348.682,284.827 339.5,284.5C 329.494,284.666 319.494,284.5 309.5,284C 307.618,283.802 305.952,283.302 304.5,282.5C 305.498,255.672 305.831,228.672 305.5,201.5 Z"/></g>
<g><path style="opacity:1" fill="#d95f2a" d="M 339.5,201.5 C 362.5,201.5 385.5,201.5 408.5,201.5C 408.5,203.167 408.5,204.833 408.5,206.5C 407.002,225.802 406.002,245.135 405.5,264.5C 394.774,275.362 381.774,281.696 366.5,283.5C 357.5,283.5 348.5,283.5 339.5,283.5C 339.5,256.167 339.5,228.833 339.5,201.5 Z"/></g>
<g><path style="opacity:1" fill="#7d7dd6" d="M 238.5,257.5 C 249.833,257.5 261.167,257.5 272.5,257.5C 272.279,260.279 272.612,262.946 273.5,265.5C 273.918,278.847 274.584,292.18 275.5,305.5C 275.5,308.5 275.5,311.5 275.5,314.5C 262.167,314.5 248.833,314.5 235.5,314.5C 236.167,298.5 236.833,282.5 237.5,266.5C 238.477,263.713 238.81,260.713 238.5,257.5 Z"/></g>
<g><path style="opacity:1" fill="#e6f8fc" d="M 106.5,265.5 C 115.822,275.162 127.155,281.162 140.5,283.5C 150.782,284.452 161.115,284.786 171.5,284.5C 171.5,294.5 171.5,304.5 171.5,314.5C 192.5,314.5 213.5,314.5 234.5,314.5C 234.5,314.833 234.5,315.167 234.5,315.5C 203.167,315.5 171.833,315.5 140.5,315.5C 129.833,315.5 119.167,315.5 108.5,315.5C 108.164,298.816 107.497,282.149 106.5,265.5 Z"/></g>
<g><path style="opacity:1" fill="#bce9fc" d="M 237.5,266.5 C 236.833,282.5 236.167,298.5 235.5,314.5C 235.167,314.5 234.833,314.5 234.5,314.5C 213.5,314.5 192.5,314.5 171.5,314.5C 171.5,304.5 171.5,294.5 171.5,284.5C 180.839,284.666 190.173,284.5 199.5,284C 214.098,281.951 226.598,275.784 237,265.5C 237.399,265.728 237.565,266.062 237.5,266.5 Z"/></g>
<g><path style="opacity:1" fill="#e5f7fa" d="M 273.5,265.5 C 282.172,274.167 292.505,279.833 304.5,282.5C 305.952,283.302 307.618,283.802 309.5,284C 319.494,284.5 329.494,284.666 339.5,284.5C 339.5,294.5 339.5,304.5 339.5,314.5C 360.5,314.5 381.5,314.5 402.5,314.5C 412.681,314.173 422.681,314.506 432.5,315.5C 380.5,315.5 328.5,315.5 276.5,315.5C 276.813,311.958 276.479,308.625 275.5,305.5C 274.584,292.18 273.918,278.847 273.5,265.5 Z"/></g>
<g><path style="opacity:1" fill="#bde9fc" d="M 405.5,264.5 C 404.11,281.134 403.11,297.801 402.5,314.5C 381.5,314.5 360.5,314.5 339.5,314.5C 339.5,304.5 339.5,294.5 339.5,284.5C 348.682,284.827 357.682,284.493 366.5,283.5C 381.774,281.696 394.774,275.362 405.5,264.5 Z"/></g>
<g><path style="opacity:1" fill="#afa6b0" d="M 275.5,305.5 C 276.479,308.625 276.813,311.958 276.5,315.5C 269.5,315.5 262.5,315.5 255.5,315.5C 248.5,315.5 241.5,315.5 234.5,315.5C 234.5,315.167 234.5,314.833 234.5,314.5C 234.833,314.5 235.167,314.5 235.5,314.5C 248.833,314.5 262.167,314.5 275.5,314.5C 275.5,311.5 275.5,308.5 275.5,305.5 Z"/></g>
<g><path style="opacity:1" fill="#fef099" d="M 108.5,315.5 C 119.167,315.5 129.833,315.5 140.5,315.5C 138.489,347.779 152.822,368.446 183.5,377.5C 162.833,377.5 142.167,377.5 121.5,377.5C 90.9197,368.399 76.5864,347.733 78.5,315.5C 88.5,315.5 98.5,315.5 108.5,315.5 Z"/></g>
<g><path style="opacity:1" fill="#ffe74d" d="M 140.5,315.5 C 171.833,315.5 203.167,315.5 234.5,315.5C 241.5,315.5 248.5,315.5 255.5,315.5C 255.5,336.167 255.5,356.833 255.5,377.5C 231.5,377.5 207.5,377.5 183.5,377.5C 152.822,368.446 138.489,347.779 140.5,315.5 Z"/></g>
<g><path style="opacity:1" fill="#eac42e" d="M 255.5,315.5 C 262.5,315.5 269.5,315.5 276.5,315.5C 328.5,315.5 380.5,315.5 432.5,315.5C 434.377,348.241 419.711,368.908 388.5,377.5C 344.167,377.5 299.833,377.5 255.5,377.5C 255.5,356.833 255.5,336.167 255.5,315.5 Z"/></g>
<g><path style="opacity:1" fill="#5541b8" d="M 121.5,377.5 C 142.167,377.5 162.833,377.5 183.5,377.5C 207.5,377.5 231.5,377.5 255.5,377.5C 299.833,377.5 344.167,377.5 388.5,377.5C 419.338,377.169 450.005,377.502 480.5,378.5C 435.483,456.365 368.15,500.699 278.5,511.5C 263.167,511.5 247.833,511.5 232.5,511.5C 142.85,500.699 75.5172,456.365 30.5,378.5C 60.6621,377.502 90.9954,377.169 121.5,377.5 Z"/></g>
</svg>
