<?xml version="1.0" encoding="UTF-8"?>
<!DOCTYPE svg PUBLIC "-//W3C//DTD SVG 1.1//EN" "http://www.w3.org/Graphics/SVG/1.1/DTD/svg11.dtd">
<svg xmlns="http://www.w3.org/2000/svg" version="1.1" width="512px" height="512px" style="shape-rendering:geometricPrecision; text-rendering:geometricPrecision; image-rendering:optimizeQuality; fill-rule:evenodd; clip-rule:evenodd" xmlns:xlink="http://www.w3.org/1999/xlink">
<g><path style="opacity:0.998" fill="#7883ee" d="M 232.5,-0.5 C 247.833,-0.5 263.167,-0.5 278.5,-0.5C 368.144,10.3879 435.644,54.7213 481,132.5C 497.695,163.971 507.861,197.304 511.5,232.5C 511.5,247.833 511.5,263.167 511.5,278.5C 510.833,281.5 510.167,284.5 509.5,287.5C 509.662,285.473 509.495,283.473 509,281.5C 466.965,239.299 424.799,197.299 382.5,155.5C 370.5,142.833 358.167,130.5 345.5,118.5C 342.484,114.298 338.817,111.131 334.5,109C 322.946,124.619 311.279,140.119 299.5,155.5C 299.167,155.5 298.833,155.5 298.5,155.5C 284.167,155.5 269.833,155.5 255.5,155.5C 213.165,155.333 170.832,155.5 128.5,156C 166.456,208.078 204.289,260.245 242,312.5C 242.833,340.173 242.667,367.839 241.5,395.5C 224.884,402.37 208.218,409.037 191.5,415.5C 189.973,415.427 188.973,416.094 188.5,417.5C 219.167,448.5 249.833,479.5 280.5,510.5C 279.508,510.328 278.842,510.662 278.5,511.5C 263.167,511.5 247.833,511.5 232.5,511.5C 142.856,500.612 75.3562,456.279 30,378.5C 13.3053,347.029 3.1386,313.696 -0.5,278.5C -0.5,263.167 -0.5,247.833 -0.5,232.5C 10.3875,142.857 54.7208,75.3573 132.5,30C 163.971,13.3053 197.304,3.1386 232.5,-0.5 Z"/></g>
<g><path style="opacity:1" fill="#8d4dd5" d="M 345.5,118.5 C 336.745,131.011 327.745,143.344 318.5,155.5C 318.167,155.5 317.833,155.5 317.5,155.5C 311.5,155.5 305.5,155.5 299.5,155.5C 311.279,140.119 322.946,124.619 334.5,109C 338.817,111.131 342.484,114.298 345.5,118.5 Z"/></g>
<g><path style="opacity:1" fill="#4752ca" d="M 345.5,118.5 C 358.167,130.5 370.5,142.833 382.5,155.5C 361.167,155.5 339.833,155.5 318.5,155.5C 327.745,143.344 336.745,131.011 345.5,118.5 Z"/></g>
<g><path style="opacity:1" fill="#fefdfe" d="M 255.5,155.5 C 255.5,161.167 255.5,166.833 255.5,172.5C 224.662,172.169 193.995,172.502 163.5,173.5C 192.448,214.288 221.615,254.955 251,295.5C 252.356,296.38 253.856,296.714 255.5,296.5C 255.5,336.5 255.5,376.5 255.5,416.5C 233.993,416.831 212.66,416.497 191.5,415.5C 208.218,409.037 224.884,402.37 241.5,395.5C 242.667,367.839 242.833,340.173 242,312.5C 204.289,260.245 166.456,208.078 128.5,156C 170.832,155.5 213.165,155.333 255.5,155.5 Z"/></g>
<g><path style="opacity:1" fill="#dae4f4" d="M 255.5,155.5 C 269.833,155.5 284.167,155.5 298.5,155.5C 294.167,161.5 289.833,167.5 285.5,173.5C 285.167,173.5 284.833,173.5 284.5,173.5C 274.833,173.5 265.167,173.5 255.5,173.5C 224.833,173.5 194.167,173.5 163.5,173.5C 193.995,172.502 224.662,172.169 255.5,172.5C 255.5,166.833 255.5,161.167 255.5,155.5 Z"/></g>
<g><path style="opacity:1" fill="#623594" d="M 298.5,155.5 C 298.833,155.5 299.167,155.5 299.5,155.5C 305.5,155.5 311.5,155.5 317.5,155.5C 313.5,160.833 309.5,166.167 305.5,171.5C 304.662,171.842 304.328,172.508 304.5,173.5C 304.167,173.5 303.833,173.5 303.5,173.5C 297.5,173.5 291.5,173.5 285.5,173.5C 289.833,167.5 294.167,161.5 298.5,155.5 Z"/></g>
<g><path style="opacity:1" fill="#d5e7f7" d="M 317.5,155.5 C 317.833,155.5 318.167,155.5 318.5,155.5C 339.833,155.5 361.167,155.5 382.5,155.5C 344.676,207.804 306.843,260.137 269,312.5C 268.333,340.167 268.333,367.833 269,395.5C 285.801,402.267 302.634,408.933 319.5,415.5C 298.34,416.497 277.007,416.831 255.5,416.5C 255.5,376.5 255.5,336.5 255.5,296.5C 257.099,296.768 258.432,296.434 259.5,295.5C 289.189,255.136 318.522,214.469 347.5,173.5C 333.5,172.833 319.5,172.167 305.5,171.5C 309.5,166.167 313.5,160.833 317.5,155.5 Z"/></g>
<g><path style="opacity:1" fill="#4652ca" d="M 382.5,155.5 C 424.799,197.299 466.965,239.299 509,281.5C 509.495,283.473 509.662,285.473 509.5,287.5C 497.959,367.825 458.293,429.991 390.5,474C 356.688,494.659 320.022,506.826 280.5,510.5C 249.833,479.5 219.167,448.5 188.5,417.5C 233.168,417.667 277.835,417.5 322.5,417C 321.756,415.961 320.756,415.461 319.5,415.5C 302.634,408.933 285.801,402.267 269,395.5C 268.333,367.833 268.333,340.167 269,312.5C 306.843,260.137 344.676,207.804 382.5,155.5 Z"/></g>
<g><path style="opacity:1" fill="#dab2d8" d="M 305.5,171.5 C 319.5,172.167 333.5,172.833 347.5,173.5C 333.167,173.5 318.833,173.5 304.5,173.5C 304.328,172.508 304.662,171.842 305.5,171.5 Z"/></g>
<g><path style="opacity:1" fill="#ef5ca4" d="M 163.5,173.5 C 194.167,173.5 224.833,173.5 255.5,173.5C 255.5,182.833 255.5,192.167 255.5,201.5C 238.574,204.33 231.074,214.33 233,231.5C 236.947,241.888 244.447,247.555 255.5,248.5C 255.5,264.167 255.5,279.833 255.5,295.5C 256.833,295.5 258.167,295.5 259.5,295.5C 258.432,296.434 257.099,296.768 255.5,296.5C 253.856,296.714 252.356,296.38 251,295.5C 221.615,254.955 192.448,214.288 163.5,173.5 Z"/></g>
<g><path style="opacity:1" fill="#e91f82" d="M 255.5,173.5 C 265.167,173.5 274.833,173.5 284.5,173.5C 277.525,183.482 270.525,193.482 263.5,203.5C 260.904,202.735 258.237,202.401 255.5,202.5C 255.5,217.5 255.5,232.5 255.5,247.5C 270.113,246.887 277.78,239.22 278.5,224.5C 278.669,220.183 277.669,216.183 275.5,212.5C 284.833,199.5 294.167,186.5 303.5,173.5C 303.833,173.5 304.167,173.5 304.5,173.5C 318.833,173.5 333.167,173.5 347.5,173.5C 318.522,214.469 289.189,255.136 259.5,295.5C 258.167,295.5 256.833,295.5 255.5,295.5C 255.5,279.833 255.5,264.167 255.5,248.5C 244.447,247.555 236.947,241.888 233,231.5C 231.074,214.33 238.574,204.33 255.5,201.5C 255.5,192.167 255.5,182.833 255.5,173.5 Z"/></g>
<g><path style="opacity:1" fill="#4e1b7a" d="M 284.5,173.5 C 284.833,173.5 285.167,173.5 285.5,173.5C 291.5,173.5 297.5,173.5 303.5,173.5C 294.167,186.5 284.833,199.5 275.5,212.5C 272.293,208.551 268.293,205.551 263.5,203.5C 270.525,193.482 277.525,183.482 284.5,173.5 Z"/></g>
<g><path style="opacity:1" fill="#c2126a" d="M 263.5,203.5 C 268.293,205.551 272.293,208.551 275.5,212.5C 277.669,216.183 278.669,220.183 278.5,224.5C 277.78,239.22 270.113,246.887 255.5,247.5C 255.5,232.5 255.5,217.5 255.5,202.5C 258.237,202.401 260.904,202.735 263.5,203.5 Z"/></g>
<g><path style="opacity:1" fill="#a4b1e7" d="M 191.5,415.5 C 212.66,416.497 233.993,416.831 255.5,416.5C 277.007,416.831 298.34,416.497 319.5,415.5C 320.756,415.461 321.756,415.961 322.5,417C 277.835,417.5 233.168,417.667 188.5,417.5C 188.973,416.094 189.973,415.427 191.5,415.5 Z"/></g>
</svg>
