<?xml version="1.0" encoding="UTF-8"?>
<!DOCTYPE svg PUBLIC "-//W3C//DTD SVG 1.1//EN" "http://www.w3.org/Graphics/SVG/1.1/DTD/svg11.dtd">
<svg xmlns="http://www.w3.org/2000/svg" version="1.1" width="512px" height="512px" style="shape-rendering:geometricPrecision; text-rendering:geometricPrecision; image-rendering:optimizeQuality; fill-rule:evenodd; clip-rule:evenodd" xmlns:xlink="http://www.w3.org/1999/xlink">
<g><path style="opacity:0.996" fill="#fecd00" d="M 232.5,-0.5 C 247.833,-0.5 263.167,-0.5 278.5,-0.5C 368.144,10.3879 435.644,54.7213 481,132.5C 497.695,163.971 507.861,197.304 511.5,232.5C 511.5,246.833 511.5,261.167 511.5,275.5C 510.761,275.631 510.094,275.464 509.5,275C 433.299,198.632 356.965,122.465 280.5,46.5C 276.724,45.1752 272.557,44.5085 268,44.5C 263.653,44.501 259.486,44.8343 255.5,45.5C 247.5,45.5 239.5,45.5 231.5,45.5C 231.344,53.5288 231.677,61.5288 232.5,69.5C 229.167,69.5 225.833,69.5 222.5,69.5C 222.5,79.5 222.5,89.5 222.5,99.5C 224.833,99.5 227.167,99.5 229.5,99.5C 229.922,121.868 229.422,144.202 228,166.5C 227,169.5 226,172.5 225,175.5C 216.788,191.257 209.121,207.257 202,223.5C 198.078,233.855 195.411,244.522 194,255.5C 192.535,322.479 192.035,389.479 192.5,456.5C 213.5,456.5 234.5,456.5 255.5,456.5C 276.5,456.5 297.5,456.5 318.5,456.5C 277.335,457.333 236.002,457.833 194.5,458C 212.368,475.701 230.035,493.535 247.5,511.5C 242.5,511.5 237.5,511.5 232.5,511.5C 142.856,500.612 75.3562,456.279 30,378.5C 13.3053,347.029 3.1386,313.696 -0.5,278.5C -0.5,263.167 -0.5,247.833 -0.5,232.5C 10.3875,142.857 54.7208,75.3573 132.5,30C 163.971,13.3053 197.304,3.1386 232.5,-0.5 Z"/></g>
<g><path style="opacity:1" fill="#d29423" d="M 255.5,45.5 C 259.486,44.8343 263.653,44.501 268,44.5C 272.557,44.5085 276.724,45.1752 280.5,46.5C 280.802,49.0593 280.468,51.3926 279.5,53.5C 279.5,50.8333 279.5,48.1667 279.5,45.5C 271.5,45.5 263.5,45.5 255.5,45.5 Z"/></g>
<g><path style="opacity:1" fill="#b06f59" d="M 255.5,45.5 C 255.5,53.1667 255.5,60.8333 255.5,68.5C 263.167,68.5 270.833,68.5 278.5,68.5C 278.5,68.8333 278.5,69.1667 278.5,69.5C 270.833,69.5 263.167,69.5 255.5,69.5C 247.833,69.5 240.167,69.5 232.5,69.5C 231.677,61.5288 231.344,53.5288 231.5,45.5C 239.5,45.5 247.5,45.5 255.5,45.5 Z"/></g>
<g><path style="opacity:1" fill="#915041" d="M 255.5,45.5 C 263.5,45.5 271.5,45.5 279.5,45.5C 279.5,48.1667 279.5,50.8333 279.5,53.5C 279.084,58.4932 278.751,63.4932 278.5,68.5C 270.833,68.5 263.167,68.5 255.5,68.5C 255.5,60.8333 255.5,53.1667 255.5,45.5 Z"/></g>
<g><path style="opacity:1" fill="#fea300" d="M 280.5,46.5 C 356.965,122.465 433.299,198.632 509.5,275C 510.094,275.464 510.761,275.631 511.5,275.5C 511.5,276.5 511.5,277.5 511.5,278.5C 500.612,368.144 456.279,435.644 378.5,481C 347.029,497.695 313.696,507.861 278.5,511.5C 268.167,511.5 257.833,511.5 247.5,511.5C 230.035,493.535 212.368,475.701 194.5,458C 236.002,457.833 277.335,457.333 318.5,456.5C 318.667,392.166 318.5,327.832 318,263.5C 316.715,248.692 313.381,234.358 308,220.5C 301.272,206.044 294.272,191.711 287,177.5C 285.204,173.317 283.871,168.984 283,164.5C 281.581,142.869 281.081,121.202 281.5,99.5C 283.833,99.5 286.167,99.5 288.5,99.5C 288.5,89.5 288.5,79.5 288.5,69.5C 285.167,69.5 281.833,69.5 278.5,69.5C 278.5,69.1667 278.5,68.8333 278.5,68.5C 278.751,63.4932 279.084,58.4932 279.5,53.5C 280.468,51.3926 280.802,49.0593 280.5,46.5 Z"/></g>
<g><path style="opacity:1" fill="#2cc47e" d="M 232.5,69.5 C 240.167,69.5 247.833,69.5 255.5,69.5C 255.5,79.5 255.5,89.5 255.5,99.5C 246.833,99.5 238.167,99.5 229.5,99.5C 227.167,99.5 224.833,99.5 222.5,99.5C 222.5,89.5 222.5,79.5 222.5,69.5C 225.833,69.5 229.167,69.5 232.5,69.5 Z"/></g>
<g><path style="opacity:1" fill="#079e59" d="M 255.5,69.5 C 263.167,69.5 270.833,69.5 278.5,69.5C 281.833,69.5 285.167,69.5 288.5,69.5C 288.5,79.5 288.5,89.5 288.5,99.5C 286.167,99.5 283.833,99.5 281.5,99.5C 272.833,99.5 264.167,99.5 255.5,99.5C 255.5,89.5 255.5,79.5 255.5,69.5 Z"/></g>
<g><path style="opacity:1" fill="#21d781" d="M 229.5,99.5 C 238.167,99.5 246.833,99.5 255.5,99.5C 255.5,170.5 255.5,241.5 255.5,312.5C 240.5,312.5 225.5,312.5 210.5,312.5C 210.169,342.338 210.502,372.005 211.5,401.5C 226.167,401.5 240.833,401.5 255.5,401.5C 255.5,419.833 255.5,438.167 255.5,456.5C 234.5,456.5 213.5,456.5 192.5,456.5C 192.035,389.479 192.535,322.479 194,255.5C 195.411,244.522 198.078,233.855 202,223.5C 209.121,207.257 216.788,191.257 225,175.5C 226,172.5 227,169.5 228,166.5C 229.422,144.202 229.922,121.868 229.5,99.5 Z"/></g>
<g><path style="opacity:1" fill="#2dc47e" d="M 255.5,99.5 C 264.167,99.5 272.833,99.5 281.5,99.5C 281.081,121.202 281.581,142.869 283,164.5C 283.871,168.984 285.204,173.317 287,177.5C 294.272,191.711 301.272,206.044 308,220.5C 313.381,234.358 316.715,248.692 318,263.5C 318.5,327.832 318.667,392.166 318.5,456.5C 297.5,456.5 276.5,456.5 255.5,456.5C 255.5,438.167 255.5,419.833 255.5,401.5C 270.167,401.5 284.833,401.5 299.5,401.5C 300.498,372.005 300.831,342.338 300.5,312.5C 285.5,312.5 270.5,312.5 255.5,312.5C 255.5,241.5 255.5,170.5 255.5,99.5 Z"/></g>
<g><path style="opacity:1" fill="#a6efcd" d="M 255.5,312.5 C 255.5,312.833 255.5,313.167 255.5,313.5C 240.833,313.5 226.167,313.5 211.5,313.5C 211.5,342.833 211.5,372.167 211.5,401.5C 210.502,372.005 210.169,342.338 210.5,312.5C 225.5,312.5 240.5,312.5 255.5,312.5 Z"/></g>
<g><path style="opacity:1" fill="#fefffe" d="M 255.5,313.5 C 255.5,342.833 255.5,372.167 255.5,401.5C 240.833,401.5 226.167,401.5 211.5,401.5C 211.5,372.167 211.5,342.833 211.5,313.5C 226.167,313.5 240.833,313.5 255.5,313.5 Z"/></g>
<g><path style="opacity:1" fill="#e9edf5" d="M 255.5,313.5 C 270.167,313.5 284.833,313.5 299.5,313.5C 299.5,342.833 299.5,372.167 299.5,401.5C 284.833,401.5 270.167,401.5 255.5,401.5C 255.5,372.167 255.5,342.833 255.5,313.5 Z"/></g>
<g><path style="opacity:1" fill="#d0ebe5" d="M 255.5,313.5 C 255.5,313.167 255.5,312.833 255.5,312.5C 270.5,312.5 285.5,312.5 300.5,312.5C 300.831,342.338 300.498,372.005 299.5,401.5C 299.5,372.167 299.5,342.833 299.5,313.5C 284.833,313.5 270.167,313.5 255.5,313.5 Z"/></g>
</svg>
