<?xml version="1.0" encoding="UTF-8"?>
<!DOCTYPE svg PUBLIC "-//W3C//DTD SVG 1.1//EN" "http://www.w3.org/Graphics/SVG/1.1/DTD/svg11.dtd">
<svg xmlns="http://www.w3.org/2000/svg" version="1.1" width="512px" height="512px" style="shape-rendering:geometricPrecision; text-rendering:geometricPrecision; image-rendering:optimizeQuality; fill-rule:evenodd; clip-rule:evenodd" xmlns:xlink="http://www.w3.org/1999/xlink">
<g><path style="opacity:0.997" fill="#fe7b37" d="M 232.5,-0.5 C 247.833,-0.5 263.167,-0.5 278.5,-0.5C 368.144,10.3879 435.644,54.7213 481,132.5C 497.695,163.971 507.861,197.304 511.5,232.5C 511.5,247.833 511.5,263.167 511.5,278.5C 510.188,285.654 509.188,292.987 508.5,300.5C 455.701,248.201 403.035,195.701 350.5,143C 349.563,142.308 348.897,142.475 348.5,143.5C 347.662,143.158 347.328,142.492 347.5,141.5C 342.263,134.757 336.429,128.423 330,122.5C 329.601,122.728 329.435,123.062 329.5,123.5C 320.348,109.284 308.182,105.951 293,113.5C 286.576,95.8962 274.076,86.5629 255.5,85.5C 242.538,85.898 232.038,91.2314 224,101.5C 221.738,105.455 219.572,109.455 217.5,113.5C 199.484,105.26 186.65,110.26 179,128.5C 178.505,130.473 178.338,132.473 178.5,134.5C 167.695,135.473 161.695,141.306 160.5,152C 160.705,163.236 166.372,169.736 177.5,171.5C 176.691,181.155 176.025,190.821 175.5,200.5C 174.031,208.976 173.031,217.642 172.5,226.5C 170.161,253.912 167.494,281.246 164.5,308.5C 163.751,316.826 163.084,325.16 162.5,333.5C 162.5,333.833 162.5,334.167 162.5,334.5C 161.603,343.828 160.603,353.161 159.5,362.5C 156.167,362.5 152.833,362.5 149.5,362.5C 149.174,371.017 149.507,379.35 150.5,387.5C 190.965,428.465 231.632,469.299 272.5,510C 274.473,510.495 276.473,510.662 278.5,510.5C 278.5,510.833 278.5,511.167 278.5,511.5C 263.167,511.5 247.833,511.5 232.5,511.5C 142.856,500.612 75.3562,456.279 30,378.5C 13.3053,347.029 3.1386,313.696 -0.5,278.5C -0.5,263.167 -0.5,247.833 -0.5,232.5C 10.3875,142.857 54.7208,75.3573 132.5,30C 163.971,13.3053 197.304,3.1386 232.5,-0.5 Z"/></g>
<g><path style="opacity:1" fill="#fefefe" d="M 255.5,85.5 C 255.5,118.167 255.5,150.833 255.5,183.5C 255.5,189.167 255.5,194.833 255.5,200.5C 255.5,203.5 255.5,206.5 255.5,209.5C 251.117,217.851 244.45,220.351 235.5,217C 233.291,215.127 231.458,212.96 230,210.5C 229.828,203.654 229.328,196.987 228.5,190.5C 217.144,192.487 209.144,188.154 204.5,177.5C 196.044,181.389 189.044,179.556 183.5,172C 181.527,171.505 179.527,171.338 177.5,171.5C 166.372,169.736 160.705,163.236 160.5,152C 161.695,141.306 167.695,135.473 178.5,134.5C 178.338,132.473 178.505,130.473 179,128.5C 186.65,110.26 199.484,105.26 217.5,113.5C 219.572,109.455 221.738,105.455 224,101.5C 232.038,91.2314 242.538,85.898 255.5,85.5 Z"/></g>
<g><path style="opacity:1" fill="#e6e5ec" d="M 255.5,85.5 C 274.076,86.5629 286.576,95.8962 293,113.5C 308.182,105.951 320.348,109.284 329.5,123.5C 331.092,126.966 331.758,130.633 331.5,134.5C 337.802,134.652 343.136,136.985 347.5,141.5C 347.328,142.492 347.662,143.158 348.5,143.5C 353.421,158.332 348.421,167.665 333.5,171.5C 318.167,171.5 302.833,171.5 287.5,171.5C 284.833,171.5 282.167,171.5 279.5,171.5C 278.511,177.952 274.845,182.118 268.5,184C 264.08,184.768 259.747,184.602 255.5,183.5C 255.5,150.833 255.5,118.167 255.5,85.5 Z"/></g>
<g><path style="opacity:1" fill="#fe6917" d="M 347.5,141.5 C 343.136,136.985 337.802,134.652 331.5,134.5C 331.758,130.633 331.092,126.966 329.5,123.5C 329.435,123.062 329.601,122.728 330,122.5C 336.429,128.423 342.263,134.757 347.5,141.5 Z"/></g>
<g><path style="opacity:1" fill="#fe6611" d="M 508.5,300.5 C 489.504,389.986 438.504,453.82 355.5,492C 330.846,502.414 305.179,508.58 278.5,510.5C 276.473,510.662 274.473,510.495 272.5,510C 231.632,469.299 190.965,428.465 150.5,387.5C 185.5,387.5 220.5,387.5 255.5,387.5C 290.5,387.5 325.5,387.5 360.5,387.5C 361.493,379.35 361.826,371.017 361.5,362.5C 358.167,362.5 354.833,362.5 351.5,362.5C 350.681,354.518 350.014,346.518 349.5,338.5C 349.5,337.167 349.5,335.833 349.5,334.5C 365.675,334.83 381.675,334.496 397.5,333.5C 397.5,289.167 397.5,244.833 397.5,200.5C 377.167,200.5 356.833,200.5 336.5,200.5C 336.167,200.5 335.833,200.5 335.5,200.5C 335.164,190.809 334.497,181.142 333.5,171.5C 348.421,167.665 353.421,158.332 348.5,143.5C 348.897,142.475 349.563,142.308 350.5,143C 403.035,195.701 455.701,248.201 508.5,300.5 Z"/></g>
<g><path style="opacity:1" fill="#905e4b" d="M 177.5,171.5 C 179.527,171.338 181.527,171.505 183.5,172C 189.044,179.556 196.044,181.389 204.5,177.5C 209.144,188.154 217.144,192.487 228.5,190.5C 228.5,193.833 228.5,197.167 228.5,200.5C 210.833,200.5 193.167,200.5 175.5,200.5C 176.025,190.821 176.691,181.155 177.5,171.5 Z"/></g>
<g><path style="opacity:1" fill="#654033" d="M 287.5,171.5 C 287.5,181.167 287.5,190.833 287.5,200.5C 276.833,200.5 266.167,200.5 255.5,200.5C 255.5,194.833 255.5,189.167 255.5,183.5C 259.747,184.602 264.08,184.768 268.5,184C 274.845,182.118 278.511,177.952 279.5,171.5C 282.167,171.5 284.833,171.5 287.5,171.5 Z"/></g>
<g><path style="opacity:1" fill="#704737" d="M 287.5,171.5 C 302.833,171.5 318.167,171.5 333.5,171.5C 334.497,181.142 335.164,190.809 335.5,200.5C 319.5,200.5 303.5,200.5 287.5,200.5C 287.5,190.833 287.5,181.167 287.5,171.5 Z"/></g>
<g><path style="opacity:1" fill="#b6b6cb" d="M 255.5,200.5 C 266.167,200.5 276.833,200.5 287.5,200.5C 303.5,200.5 319.5,200.5 335.5,200.5C 335.833,200.5 336.167,200.5 336.5,200.5C 336.8,209.197 337.466,217.864 338.5,226.5C 310.833,226.5 283.167,226.5 255.5,226.5C 255.5,220.833 255.5,215.167 255.5,209.5C 255.5,206.5 255.5,203.5 255.5,200.5 Z"/></g>
<g><path style="opacity:1" fill="#d7d6e0" d="M 228.5,190.5 C 229.328,196.987 229.828,203.654 230,210.5C 231.458,212.96 233.291,215.127 235.5,217C 244.45,220.351 251.117,217.851 255.5,209.5C 255.5,215.167 255.5,220.833 255.5,226.5C 244.833,226.5 234.167,226.5 223.5,226.5C 206.5,226.5 189.5,226.5 172.5,226.5C 173.031,217.642 174.031,208.976 175.5,200.5C 193.167,200.5 210.833,200.5 228.5,200.5C 228.5,197.167 228.5,193.833 228.5,190.5 Z"/></g>
<g><path style="opacity:1" fill="#643f32" d="M 336.5,200.5 C 356.833,200.5 377.167,200.5 397.5,200.5C 397.5,244.833 397.5,289.167 397.5,333.5C 381.167,333.5 364.833,333.5 348.5,333.5C 348.127,325.141 347.46,316.808 346.5,308.5C 354.833,308.5 363.167,308.5 371.5,308.5C 371.5,281.167 371.5,253.833 371.5,226.5C 360.5,226.5 349.5,226.5 338.5,226.5C 337.466,217.864 336.8,209.197 336.5,200.5 Z"/></g>
<g><path style="opacity:1" fill="#91604d" d="M 172.5,226.5 C 189.5,226.5 206.5,226.5 223.5,226.5C 223.5,253.5 223.5,280.5 223.5,307.5C 234.167,307.5 244.833,307.5 255.5,307.5C 266.167,307.5 276.833,307.5 287.5,307.5C 306.833,307.5 326.167,307.5 345.5,307.5C 346.167,307.5 346.5,307.833 346.5,308.5C 316.167,308.5 285.833,308.5 255.5,308.5C 225.167,308.5 194.833,308.5 164.5,308.5C 167.494,281.246 170.161,253.912 172.5,226.5 Z"/></g>
<g><path style="opacity:1" fill="#704738" d="M 223.5,226.5 C 234.167,226.5 244.833,226.5 255.5,226.5C 283.167,226.5 310.833,226.5 338.5,226.5C 341.031,253.481 343.365,280.481 345.5,307.5C 326.167,307.5 306.833,307.5 287.5,307.5C 287.5,280.833 287.5,254.167 287.5,227.5C 276.833,227.5 266.167,227.5 255.5,227.5C 255.5,254.167 255.5,280.833 255.5,307.5C 244.833,307.5 234.167,307.5 223.5,307.5C 223.5,280.5 223.5,253.5 223.5,226.5 Z"/></g>
<g><path style="opacity:1" fill="#633f31" d="M 287.5,307.5 C 276.833,307.5 266.167,307.5 255.5,307.5C 255.5,280.833 255.5,254.167 255.5,227.5C 266.167,227.5 276.833,227.5 287.5,227.5C 287.5,254.167 287.5,280.833 287.5,307.5 Z"/></g>
<g><path style="opacity:1" fill="#fd6511" d="M 338.5,226.5 C 349.5,226.5 360.5,226.5 371.5,226.5C 371.5,253.833 371.5,281.167 371.5,308.5C 363.167,308.5 354.833,308.5 346.5,308.5C 346.5,307.833 346.167,307.5 345.5,307.5C 343.365,280.481 341.031,253.481 338.5,226.5 Z"/></g>
<g><path style="opacity:1" fill="#d7d6e1" d="M 164.5,308.5 C 194.833,308.5 225.167,308.5 255.5,308.5C 255.5,316.833 255.5,325.167 255.5,333.5C 224.5,333.5 193.5,333.5 162.5,333.5C 163.084,325.16 163.751,316.826 164.5,308.5 Z"/></g>
<g><path style="opacity:1" fill="#b5b3c7" d="M 255.5,308.5 C 285.833,308.5 316.167,308.5 346.5,308.5C 347.46,316.808 348.127,325.141 348.5,333.5C 348.5,333.833 348.5,334.167 348.5,334.5C 328.167,334.5 307.833,334.5 287.5,334.5C 276.833,334.5 266.167,334.5 255.5,334.5C 244.833,334.5 234.167,334.5 223.5,334.5C 203.167,334.5 182.833,334.5 162.5,334.5C 162.5,334.167 162.5,333.833 162.5,333.5C 193.5,333.5 224.5,333.5 255.5,333.5C 255.5,325.167 255.5,316.833 255.5,308.5 Z"/></g>
<g><path style="opacity:1" fill="#af5222" d="M 348.5,333.5 C 364.833,333.5 381.167,333.5 397.5,333.5C 381.675,334.496 365.675,334.83 349.5,334.5C 349.5,335.833 349.5,337.167 349.5,338.5C 348.566,337.432 348.232,336.099 348.5,334.5C 348.5,334.167 348.5,333.833 348.5,333.5 Z"/></g>
<g><path style="opacity:1" fill="#915e4b" d="M 162.5,334.5 C 182.833,334.5 203.167,334.5 223.5,334.5C 223.5,343.833 223.5,353.167 223.5,362.5C 202.167,362.5 180.833,362.5 159.5,362.5C 160.603,353.161 161.603,343.828 162.5,334.5 Z"/></g>
<g><path style="opacity:1" fill="#6f4737" d="M 223.5,334.5 C 234.167,334.5 244.833,334.5 255.5,334.5C 255.5,343.833 255.5,353.167 255.5,362.5C 244.833,362.5 234.167,362.5 223.5,362.5C 223.5,353.167 223.5,343.833 223.5,334.5 Z"/></g>
<g><path style="opacity:1" fill="#633f31" d="M 255.5,334.5 C 266.167,334.5 276.833,334.5 287.5,334.5C 287.5,343.833 287.5,353.167 287.5,362.5C 276.833,362.5 266.167,362.5 255.5,362.5C 255.5,353.167 255.5,343.833 255.5,334.5 Z"/></g>
<g><path style="opacity:1" fill="#704737" d="M 287.5,334.5 C 307.833,334.5 328.167,334.5 348.5,334.5C 348.232,336.099 348.566,337.432 349.5,338.5C 350.014,346.518 350.681,354.518 351.5,362.5C 330.167,362.5 308.833,362.5 287.5,362.5C 287.5,353.167 287.5,343.833 287.5,334.5 Z"/></g>
<g><path style="opacity:1" fill="#d89d4a" d="M 159.5,362.5 C 180.833,362.5 202.167,362.5 223.5,362.5C 234.167,362.5 244.833,362.5 255.5,362.5C 266.167,362.5 276.833,362.5 287.5,362.5C 308.833,362.5 330.167,362.5 351.5,362.5C 351.5,362.833 351.5,363.167 351.5,363.5C 319.5,363.5 287.5,363.5 255.5,363.5C 220.5,363.5 185.5,363.5 150.5,363.5C 150.5,371.5 150.5,379.5 150.5,387.5C 149.507,379.35 149.174,371.017 149.5,362.5C 152.833,362.5 156.167,362.5 159.5,362.5 Z"/></g>
<g><path style="opacity:1" fill="#fee26e" d="M 255.5,363.5 C 255.5,371.5 255.5,379.5 255.5,387.5C 220.5,387.5 185.5,387.5 150.5,387.5C 150.5,379.5 150.5,371.5 150.5,363.5C 185.5,363.5 220.5,363.5 255.5,363.5 Z"/></g>
<g><path style="opacity:1" fill="#fed427" d="M 255.5,363.5 C 287.5,363.5 319.5,363.5 351.5,363.5C 354.5,363.5 357.5,363.5 360.5,363.5C 360.5,371.5 360.5,379.5 360.5,387.5C 325.5,387.5 290.5,387.5 255.5,387.5C 255.5,379.5 255.5,371.5 255.5,363.5 Z"/></g>
<g><path style="opacity:1" fill="#ffa11c" d="M 351.5,363.5 C 351.5,363.167 351.5,362.833 351.5,362.5C 354.833,362.5 358.167,362.5 361.5,362.5C 361.826,371.017 361.493,379.35 360.5,387.5C 360.5,379.5 360.5,371.5 360.5,363.5C 357.5,363.5 354.5,363.5 351.5,363.5 Z"/></g>
</svg>
