<?xml version="1.0" encoding="UTF-8"?>
<!DOCTYPE svg PUBLIC "-//W3C//DTD SVG 1.1//EN" "http://www.w3.org/Graphics/SVG/1.1/DTD/svg11.dtd">
<svg xmlns="http://www.w3.org/2000/svg" version="1.1" width="512px" height="512px" style="shape-rendering:geometricPrecision; text-rendering:geometricPrecision; image-rendering:optimizeQuality; fill-rule:evenodd; clip-rule:evenodd" xmlns:xlink="http://www.w3.org/1999/xlink">
<g><path style="opacity:0.998" fill="#7883ee" d="M 232.5,-0.5 C 247.833,-0.5 263.167,-0.5 278.5,-0.5C 368.144,10.3879 435.644,54.7213 481,132.5C 497.695,163.971 507.861,197.304 511.5,232.5C 511.5,247.833 511.5,263.167 511.5,278.5C 510.412,286.205 509.078,293.871 507.5,301.5C 507.657,300.127 507.49,298.793 507,297.5C 456.583,246.582 405.75,196.249 354.5,146.5C 290.002,145.501 225.335,145.168 160.5,145.5C 169.684,196.786 178.684,248.12 187.5,299.5C 187.48,300.726 187.147,301.726 186.5,302.5C 177.509,298.769 169.676,300.436 163,307.5C 152.487,328.527 141.987,349.527 131.5,370.5C 130.167,371.167 130.167,371.833 131.5,372.5C 176.965,418.465 222.632,464.299 268.5,510C 271.817,510.498 275.15,510.665 278.5,510.5C 278.5,510.833 278.5,511.167 278.5,511.5C 263.167,511.5 247.833,511.5 232.5,511.5C 142.856,500.612 75.3562,456.279 30,378.5C 13.3053,347.029 3.1386,313.696 -0.5,278.5C -0.5,263.167 -0.5,247.833 -0.5,232.5C 10.3875,142.857 54.7208,75.3573 132.5,30C 163.971,13.3053 197.304,3.1386 232.5,-0.5 Z"/></g>
<g><path style="opacity:1" fill="#d6e8f6" d="M 354.5,146.5 C 345.039,198.053 336.039,249.72 327.5,301.5C 310.5,318.833 293.5,336.167 276.5,353.5C 270.167,359.5 263.833,365.5 257.5,371.5C 246.5,371.5 235.5,371.5 224.5,371.5C 214.616,350.732 204.45,330.066 194,309.5C 192.258,306.254 189.758,303.921 186.5,302.5C 187.147,301.726 187.48,300.726 187.5,299.5C 178.684,248.12 169.684,196.786 160.5,145.5C 225.335,145.168 290.002,145.501 354.5,146.5 Z"/></g>
<g><path style="opacity:1" fill="#4652ca" d="M 354.5,146.5 C 405.75,196.249 456.583,246.582 507,297.5C 507.49,298.793 507.657,300.127 507.5,301.5C 492.814,375.653 453.814,433.153 390.5,474C 356.101,495.077 318.768,507.244 278.5,510.5C 275.15,510.665 271.817,510.498 268.5,510C 222.632,464.299 176.965,418.465 131.5,372.5C 173.5,372.5 215.5,372.5 257.5,372.5C 292.572,403.34 330.905,407.84 372.5,386C 406.929,362.624 421.429,330.124 416,288.5C 411.776,269.713 403.109,253.38 390,239.5C 383.297,246.035 376.797,252.702 370.5,259.5C 356.167,273.5 341.833,287.5 327.5,301.5C 336.039,249.72 345.039,198.053 354.5,146.5 Z"/></g>
<g><path style="opacity:1" fill="#fed428" d="M 257.5,176.5 C 257.5,231.167 257.5,285.833 257.5,340.5C 236.432,340.051 221.265,330.385 212,311.5C 202.582,266.745 194.415,221.745 187.5,176.5C 210.833,176.5 234.167,176.5 257.5,176.5 Z"/></g>
<g><path style="opacity:1" fill="#feae38" d="M 257.5,176.5 C 280.833,176.5 304.167,176.5 327.5,176.5C 321.567,212.526 315.401,248.526 309,284.5C 308.785,306.445 299.618,323.278 281.5,335C 273.933,338.725 265.933,340.558 257.5,340.5C 257.5,285.833 257.5,231.167 257.5,176.5 Z"/></g>
<g><path style="opacity:1" fill="#fdd32a" d="M 257.5,372.5 C 257.5,372.167 257.5,371.833 257.5,371.5C 263.833,365.5 270.167,359.5 276.5,353.5C 301.875,374.174 329.208,377.007 358.5,362C 386.32,341.538 395.154,314.705 385,281.5C 381.399,273.281 376.565,265.948 370.5,259.5C 376.797,252.702 383.297,246.035 390,239.5C 403.109,253.38 411.776,269.713 416,288.5C 421.429,330.124 406.929,362.624 372.5,386C 330.905,407.84 292.572,403.34 257.5,372.5 Z"/></g>
<g><path style="opacity:1" fill="#fee16f" d="M 370.5,259.5 C 376.565,265.948 381.399,273.281 385,281.5C 395.154,314.705 386.32,341.538 358.5,362C 329.208,377.007 301.875,374.174 276.5,353.5C 293.5,336.167 310.5,318.833 327.5,301.5C 341.833,287.5 356.167,273.5 370.5,259.5 Z"/></g>
<g><path style="opacity:1" fill="#fefefe" d="M 186.5,302.5 C 189.758,303.921 192.258,306.254 194,309.5C 204.45,330.066 214.616,350.732 224.5,371.5C 193.329,371.831 162.329,371.498 131.5,370.5C 141.987,349.527 152.487,328.527 163,307.5C 169.676,300.436 177.509,298.769 186.5,302.5 Z"/></g>
<g><path style="opacity:1" fill="#98a1e2" d="M 131.5,370.5 C 162.329,371.498 193.329,371.831 224.5,371.5C 235.5,371.5 246.5,371.5 257.5,371.5C 257.5,371.833 257.5,372.167 257.5,372.5C 215.5,372.5 173.5,372.5 131.5,372.5C 130.167,371.833 130.167,371.167 131.5,370.5 Z"/></g>
</svg>
