<?xml version="1.0" encoding="UTF-8"?>
<!DOCTYPE svg PUBLIC "-//W3C//DTD SVG 1.1//EN" "http://www.w3.org/Graphics/SVG/1.1/DTD/svg11.dtd">
<svg xmlns="http://www.w3.org/2000/svg" version="1.1" width="512px" height="512px" style="shape-rendering:geometricPrecision; text-rendering:geometricPrecision; image-rendering:optimizeQuality; fill-rule:evenodd; clip-rule:evenodd" xmlns:xlink="http://www.w3.org/1999/xlink">
<g><path style="opacity:0.998" fill="#5664df" d="M 232.5,-0.5 C 247.833,-0.5 263.167,-0.5 278.5,-0.5C 368.144,10.3879 435.644,54.7213 481,132.5C 497.695,163.971 507.861,197.304 511.5,232.5C 511.5,247.833 511.5,263.167 511.5,278.5C 510.551,282.657 509.884,286.99 509.5,291.5C 457.535,240.035 405.701,188.368 354,136.5C 353.601,136.728 353.435,137.062 353.5,137.5C 328.747,105.79 296.08,89.4566 255.5,88.5C 203.698,90.6413 166.531,114.975 144,161.5C 133.282,188.574 131.615,216.24 139,244.5C 149.553,278.271 164.886,309.604 185,338.5C 205.773,368.112 228.94,395.779 254.5,421.5C 254.842,422.338 255.508,422.672 256.5,422.5C 280.914,448.416 305.914,473.916 331.5,499C 332.094,499.464 332.761,499.631 333.5,499.5C 315.598,505.547 297.264,509.547 278.5,511.5C 263.167,511.5 247.833,511.5 232.5,511.5C 142.856,500.612 75.3562,456.279 30,378.5C 13.3053,347.029 3.1386,313.696 -0.5,278.5C -0.5,263.167 -0.5,247.833 -0.5,232.5C 10.3875,142.857 54.7208,75.3573 132.5,30C 163.971,13.3053 197.304,3.1386 232.5,-0.5 Z"/></g>
<g><path style="opacity:1" fill="#fea11e" d="M 255.5,88.5 C 255.5,96.8333 255.5,105.167 255.5,113.5C 215.357,114.494 186.19,132.827 168,168.5C 153.559,204.404 157.559,238.07 180,269.5C 199.699,292.933 224.866,304.933 255.5,305.5C 255.832,344.337 255.499,383.004 254.5,421.5C 228.94,395.779 205.773,368.112 185,338.5C 164.886,309.604 149.553,278.271 139,244.5C 131.615,216.24 133.282,188.574 144,161.5C 166.531,114.975 203.698,90.6413 255.5,88.5 Z"/></g>
<g><path style="opacity:1" fill="#fe6512" d="M 255.5,88.5 C 296.08,89.4566 328.747,105.79 353.5,137.5C 377.416,172.346 382.916,210.013 370,250.5C 359.966,280.9 345.966,309.233 328,335.5C 306.599,366.41 282.766,395.41 256.5,422.5C 255.508,422.672 254.842,422.338 254.5,421.5C 255.499,383.004 255.832,344.337 255.5,305.5C 299.012,303.661 329.179,282.661 346,242.5C 360.076,195.058 347.242,156.892 307.5,128C 291.553,118.184 274.219,113.351 255.5,113.5C 255.5,105.167 255.5,96.8333 255.5,88.5 Z"/></g>
<g><path style="opacity:1" fill="#ff6611" d="M 255.5,113.5 C 255.5,118.833 255.5,124.167 255.5,129.5C 245.721,129.625 239.388,134.292 236.5,143.5C 226.321,142.172 219.154,146.172 215,155.5C 214.501,161.491 214.334,167.491 214.5,173.5C 214.333,187.504 214.5,201.504 215,215.5C 215.524,220.594 216.524,225.594 218,230.5C 226.127,247.258 229.293,264.925 227.5,283.5C 236.833,283.5 246.167,283.5 255.5,283.5C 255.5,290.833 255.5,298.167 255.5,305.5C 224.866,304.933 199.699,292.933 180,269.5C 157.559,238.07 153.559,204.404 168,168.5C 186.19,132.827 215.357,114.494 255.5,113.5 Z"/></g>
<g><path style="opacity:1" fill="#fe2c2f" d="M 255.5,113.5 C 274.219,113.351 291.553,118.184 307.5,128C 347.242,156.892 360.076,195.058 346,242.5C 329.179,282.661 299.012,303.661 255.5,305.5C 255.5,298.167 255.5,290.833 255.5,283.5C 264.833,283.5 274.167,283.5 283.5,283.5C 281.533,264.905 284.7,247.238 293,230.5C 294.476,225.594 295.476,220.594 296,215.5C 296.5,201.504 296.667,187.504 296.5,173.5C 296.5,173.167 296.5,172.833 296.5,172.5C 300.338,154.033 293.004,144.366 274.5,143.5C 271.612,134.292 265.279,129.625 255.5,129.5C 255.5,124.167 255.5,118.833 255.5,113.5 Z"/></g>
<g><path style="opacity:1" fill="#fefdfb" d="M 255.5,129.5 C 255.5,143.833 255.5,158.167 255.5,172.5C 269.167,172.5 282.833,172.5 296.5,172.5C 296.5,172.833 296.5,173.167 296.5,173.5C 293.5,173.5 290.5,173.5 287.5,173.5C 276.833,173.5 266.167,173.5 255.5,173.5C 244.833,173.5 234.167,173.5 223.5,173.5C 220.5,173.5 217.5,173.5 214.5,173.5C 214.334,167.491 214.501,161.491 215,155.5C 219.154,146.172 226.321,142.172 236.5,143.5C 239.388,134.292 245.721,129.625 255.5,129.5 Z"/></g>
<g><path style="opacity:1" fill="#e7e6ed" d="M 255.5,129.5 C 265.279,129.625 271.612,134.292 274.5,143.5C 293.004,144.366 300.338,154.033 296.5,172.5C 282.833,172.5 269.167,172.5 255.5,172.5C 255.5,158.167 255.5,143.833 255.5,129.5 Z"/></g>
<g><path style="opacity:1" fill="#3748da" d="M 509.5,291.5 C 494.108,382.49 445.108,448.324 362.5,489C 353.065,493.2 343.399,496.7 333.5,499.5C 332.761,499.631 332.094,499.464 331.5,499C 305.914,473.916 280.914,448.416 256.5,422.5C 282.766,395.41 306.599,366.41 328,335.5C 345.966,309.233 359.966,280.9 370,250.5C 382.916,210.013 377.416,172.346 353.5,137.5C 353.435,137.062 353.601,136.728 354,136.5C 405.701,188.368 457.535,240.035 509.5,291.5 Z"/></g>
<g><path style="opacity:1" fill="#fbf1c1" d="M 214.5,173.5 C 217.5,173.5 220.5,173.5 223.5,173.5C 223.333,185.838 223.5,198.171 224,210.5C 224.683,215.234 225.683,219.9 227,224.5C 233.481,237.421 236.314,251.088 235.5,265.5C 242.167,265.5 248.833,265.5 255.5,265.5C 255.5,271.5 255.5,277.5 255.5,283.5C 246.167,283.5 236.833,283.5 227.5,283.5C 229.293,264.925 226.127,247.258 218,230.5C 216.524,225.594 215.524,220.594 215,215.5C 214.5,201.504 214.333,187.504 214.5,173.5 Z"/></g>
<g><path style="opacity:1" fill="#fed429" d="M 223.5,173.5 C 234.167,173.5 244.833,173.5 255.5,173.5C 255.5,204.167 255.5,234.833 255.5,265.5C 248.833,265.5 242.167,265.5 235.5,265.5C 236.314,251.088 233.481,237.421 227,224.5C 225.683,219.9 224.683,215.234 224,210.5C 223.5,198.171 223.333,185.838 223.5,173.5 Z"/></g>
<g><path style="opacity:1" fill="#ffa21d" d="M 255.5,173.5 C 266.167,173.5 276.833,173.5 287.5,173.5C 287.667,186.171 287.5,198.838 287,211.5C 284.476,222.406 281.143,233.072 277,243.5C 275.7,250.771 275.2,258.104 275.5,265.5C 268.833,265.5 262.167,265.5 255.5,265.5C 255.5,234.833 255.5,204.167 255.5,173.5 Z"/></g>
<g><path style="opacity:1" fill="#ffe06e" d="M 287.5,173.5 C 290.5,173.5 293.5,173.5 296.5,173.5C 296.667,187.504 296.5,201.504 296,215.5C 295.476,220.594 294.476,225.594 293,230.5C 284.7,247.238 281.533,264.905 283.5,283.5C 274.167,283.5 264.833,283.5 255.5,283.5C 255.5,277.5 255.5,271.5 255.5,265.5C 262.167,265.5 268.833,265.5 275.5,265.5C 275.2,258.104 275.7,250.771 277,243.5C 281.143,233.072 284.476,222.406 287,211.5C 287.5,198.838 287.667,186.171 287.5,173.5 Z"/></g>
</svg>
