<?xml version="1.0" encoding="UTF-8"?>
<!DOCTYPE svg PUBLIC "-//W3C//DTD SVG 1.1//EN" "http://www.w3.org/Graphics/SVG/1.1/DTD/svg11.dtd">
<svg xmlns="http://www.w3.org/2000/svg" version="1.1" width="512px" height="512px" style="shape-rendering:geometricPrecision; text-rendering:geometricPrecision; image-rendering:optimizeQuality; fill-rule:evenodd; clip-rule:evenodd" xmlns:xlink="http://www.w3.org/1999/xlink">
<g><path style="opacity:0.997" fill="#7584f1" d="M 232.5,-0.5 C 247.833,-0.5 263.167,-0.5 278.5,-0.5C 368.144,10.3879 435.644,54.7213 481,132.5C 497.695,163.971 507.861,197.304 511.5,232.5C 511.5,236.833 511.5,241.167 511.5,245.5C 469.535,204.035 427.701,162.368 386,120.5C 385.601,120.728 385.435,121.062 385.5,121.5C 379.524,111.854 371.19,105.187 360.5,101.5C 359.307,118.417 353.974,133.75 344.5,147.5C 314.833,118.167 285.167,88.8333 255.5,59.5C 254.883,59.3893 254.383,59.056 254,58.5C 236.031,73.1042 223.531,91.4376 216.5,113.5C 204.368,101.869 192.368,90.0353 180.5,78C 179.906,77.5357 179.239,77.369 178.5,77.5C 144.136,90.0813 123.302,114.748 116,151.5C 115.5,164.829 115.333,178.163 115.5,191.5C 115.334,201.839 115.5,212.172 116,222.5C 118.741,236.006 125.907,246.339 137.5,253.5C 169.748,287.249 202.582,320.583 236,353.5C 236.5,332.503 236.667,311.503 236.5,290.5C 237.167,290.5 237.5,290.833 237.5,291.5C 237.5,338.833 237.5,386.167 237.5,433.5C 221.167,433.5 204.833,433.5 188.5,433.5C 188.5,443.5 188.5,453.5 188.5,463.5C 188.5,463.833 188.5,464.167 188.5,464.5C 203.833,480.167 219.167,495.833 234.5,511.5C 233.833,511.5 233.167,511.5 232.5,511.5C 142.856,500.612 75.3562,456.279 30,378.5C 13.3053,347.029 3.1386,313.696 -0.5,278.5C -0.5,263.167 -0.5,247.833 -0.5,232.5C 10.3875,142.857 54.7208,75.3573 132.5,30C 163.971,13.3053 197.304,3.1386 232.5,-0.5 Z"/></g>
<g><path style="opacity:1" fill="#7fdafe" d="M 255.5,59.5 C 255.5,60.8333 255.5,62.1667 255.5,63.5C 255.5,106.167 255.5,148.833 255.5,191.5C 208.833,191.5 162.167,191.5 115.5,191.5C 115.333,178.163 115.5,164.829 116,151.5C 123.302,114.748 144.136,90.0813 178.5,77.5C 175.054,101.434 178.888,124.1 190,145.5C 193.083,150.588 196.917,155.088 201.5,159C 206.502,161.601 210.335,160.434 213,155.5C 213.333,145.5 213.667,135.5 214,125.5C 214.522,121.416 215.355,117.416 216.5,113.5C 223.531,91.4376 236.031,73.1042 254,58.5C 254.383,59.056 254.883,59.3893 255.5,59.5 Z"/></g>
<g><path style="opacity:1" fill="#4855b7" d="M 255.5,59.5 C 285.167,88.8333 314.833,118.167 344.5,147.5C 342.188,151.812 338.855,155.145 334.5,157.5C 307.094,150.251 286.594,134.251 273,109.5C 266.272,94.3994 260.438,79.066 255.5,63.5C 255.5,62.1667 255.5,60.8333 255.5,59.5 Z"/></g>
<g><path style="opacity:1" fill="#4ab7f6" d="M 255.5,63.5 C 260.438,79.066 266.272,94.3994 273,109.5C 286.594,134.251 307.094,150.251 334.5,157.5C 338.855,155.145 342.188,151.812 344.5,147.5C 353.974,133.75 359.307,118.417 360.5,101.5C 371.19,105.187 379.524,111.854 385.5,121.5C 390.342,129.524 393.509,138.191 395,147.5C 395.5,162.163 395.667,176.83 395.5,191.5C 348.833,191.5 302.167,191.5 255.5,191.5C 255.5,148.833 255.5,106.167 255.5,63.5 Z"/></g>
<g><path style="opacity:1" fill="#4856b7" d="M 178.5,77.5 C 179.239,77.369 179.906,77.5357 180.5,78C 192.368,90.0353 204.368,101.869 216.5,113.5C 215.355,117.416 214.522,121.416 214,125.5C 213.667,135.5 213.333,145.5 213,155.5C 210.335,160.434 206.502,161.601 201.5,159C 196.917,155.088 193.083,150.588 190,145.5C 178.888,124.1 175.054,101.434 178.5,77.5 Z"/></g>
<g><path style="opacity:1" fill="#4855b7" d="M 511.5,245.5 C 511.5,256.5 511.5,267.5 511.5,278.5C 500.612,368.144 456.279,435.644 378.5,481C 347.029,497.695 313.696,507.861 278.5,511.5C 263.833,511.5 249.167,511.5 234.5,511.5C 219.167,495.833 203.833,480.167 188.5,464.5C 233.5,464.5 278.5,464.5 323.5,464.5C 323.5,454.167 323.5,443.833 323.5,433.5C 307.167,433.5 290.833,433.5 274.5,433.5C 274.5,385.833 274.5,338.167 274.5,290.5C 305.105,279.242 335.771,268.075 366.5,257C 380.52,251.648 389.687,241.814 394,227.5C 395.387,215.887 395.887,204.221 395.5,192.5C 395.5,192.167 395.5,191.833 395.5,191.5C 395.667,176.83 395.5,162.163 395,147.5C 393.509,138.191 390.342,129.524 385.5,121.5C 385.435,121.062 385.601,120.728 386,120.5C 427.701,162.368 469.535,204.035 511.5,245.5 Z"/></g>
<g><path style="opacity:1" fill="#fddd53" d="M 115.5,191.5 C 162.167,191.5 208.833,191.5 255.5,191.5C 302.167,191.5 348.833,191.5 395.5,191.5C 395.5,191.833 395.5,192.167 395.5,192.5C 348.833,192.5 302.167,192.5 255.5,192.5C 254.84,227.516 255.507,262.183 257.5,296.5C 257.158,297.338 256.492,297.672 255.5,297.5C 249.703,294.937 243.703,292.937 237.5,291.5C 237.5,290.833 237.167,290.5 236.5,290.5C 203.268,278.756 170.268,266.423 137.5,253.5C 125.907,246.339 118.741,236.006 116,222.5C 115.5,212.172 115.334,201.839 115.5,191.5 Z"/></g>
<g><path style="opacity:1" fill="#fecd01" d="M 395.5,192.5 C 395.887,204.221 395.387,215.887 394,227.5C 389.687,241.814 380.52,251.648 366.5,257C 335.771,268.075 305.105,279.242 274.5,290.5C 268.945,292.776 263.278,294.776 257.5,296.5C 255.507,262.183 254.84,227.516 255.5,192.5C 302.167,192.5 348.833,192.5 395.5,192.5 Z"/></g>
<g><path style="opacity:1" fill="#4855b6" d="M 137.5,253.5 C 170.268,266.423 203.268,278.756 236.5,290.5C 236.667,311.503 236.5,332.503 236,353.5C 202.582,320.583 169.748,287.249 137.5,253.5 Z"/></g>
<g><path style="opacity:1" fill="#fefefe" d="M 237.5,291.5 C 243.703,292.937 249.703,294.937 255.5,297.5C 255.5,352.833 255.5,408.167 255.5,463.5C 233.167,463.5 210.833,463.5 188.5,463.5C 188.5,453.5 188.5,443.5 188.5,433.5C 204.833,433.5 221.167,433.5 237.5,433.5C 237.5,386.167 237.5,338.833 237.5,291.5 Z"/></g>
<g><path style="opacity:1" fill="#e6eaf3" d="M 274.5,290.5 C 274.5,338.167 274.5,385.833 274.5,433.5C 290.833,433.5 307.167,433.5 323.5,433.5C 323.5,443.833 323.5,454.167 323.5,464.5C 278.5,464.5 233.5,464.5 188.5,464.5C 188.5,464.167 188.5,463.833 188.5,463.5C 210.833,463.5 233.167,463.5 255.5,463.5C 255.5,408.167 255.5,352.833 255.5,297.5C 256.492,297.672 257.158,297.338 257.5,296.5C 263.278,294.776 268.945,292.776 274.5,290.5 Z"/></g>
</svg>
