<?xml version="1.0" encoding="UTF-8"?>
<!DOCTYPE svg PUBLIC "-//W3C//DTD SVG 1.1//EN" "http://www.w3.org/Graphics/SVG/1.1/DTD/svg11.dtd">
<svg xmlns="http://www.w3.org/2000/svg" version="1.1" width="512px" height="512px" style="shape-rendering:geometricPrecision; text-rendering:geometricPrecision; image-rendering:optimizeQuality; fill-rule:evenodd; clip-rule:evenodd" xmlns:xlink="http://www.w3.org/1999/xlink">
<g><path style="opacity:0.998" fill="#7883ed" d="M 232.5,-0.5 C 247.833,-0.5 263.167,-0.5 278.5,-0.5C 368.144,10.3879 435.644,54.7213 481,132.5C 497.695,163.971 507.861,197.304 511.5,232.5C 511.5,247.833 511.5,263.167 511.5,278.5C 510.323,287.914 508.656,297.247 506.5,306.5C 506.66,304.801 506.494,303.134 506,301.5C 432.632,227.965 359.132,154.632 285.5,81.5C 279.833,81.5 274.167,81.5 268.5,81.5C 268.5,85.5 268.5,89.5 268.5,93.5C 260.648,99.2118 258.648,106.545 262.5,115.5C 260.167,115.5 257.833,115.5 255.5,115.5C 255.5,120.167 255.5,124.833 255.5,129.5C 255.5,140.833 255.5,152.167 255.5,163.5C 230.158,163.167 204.825,163.5 179.5,164.5C 179.624,165.107 179.957,165.44 180.5,165.5C 189.795,186.732 191.961,208.732 187,231.5C 174.44,261.683 178.107,289.683 198,315.5C 201.729,319.398 205.562,323.065 209.5,326.5C 220.416,337.917 231.583,349.251 243,360.5C 243.5,353.842 243.666,347.175 243.5,340.5C 244.496,353.99 244.829,367.656 244.5,381.5C 226.386,384.387 211.386,392.72 199.5,406.5C 233.446,440.112 267.446,473.779 301.5,507.5C 293.871,509.078 286.205,510.412 278.5,511.5C 263.167,511.5 247.833,511.5 232.5,511.5C 142.856,500.612 75.3562,456.279 30,378.5C 13.3053,347.029 3.1386,313.696 -0.5,278.5C -0.5,263.167 -0.5,247.833 -0.5,232.5C 10.3875,142.857 54.7208,75.3573 132.5,30C 163.971,13.3053 197.304,3.1386 232.5,-0.5 Z"/></g>
<g><path style="opacity:1" fill="#ab7049" d="M 285.5,81.5 C 285.5,85.1667 285.5,88.8333 285.5,92.5C 279.653,90.8516 273.986,91.1849 268.5,93.5C 268.5,89.5 268.5,85.5 268.5,81.5C 274.167,81.5 279.833,81.5 285.5,81.5 Z"/></g>
<g><path style="opacity:1" fill="#4652ca" d="M 285.5,81.5 C 359.132,154.632 432.632,227.965 506,301.5C 506.494,303.134 506.66,304.801 506.5,306.5C 487.744,390.421 439.744,451.255 362.5,489C 342.984,497.895 322.65,504.061 301.5,507.5C 267.446,473.779 233.446,440.112 199.5,406.5C 217.833,406.5 236.167,406.5 254.5,406.5C 272.836,406.667 291.17,406.5 309.5,406C 297.386,392.608 282.386,384.442 264.5,381.5C 264.5,367.833 264.5,354.167 264.5,340.5C 297.443,335.732 318.943,317.399 329,285.5C 333.505,266.925 331.838,248.925 324,231.5C 320.448,214.088 320.781,196.755 325,179.5C 326.634,174.236 328.8,169.236 331.5,164.5C 322.525,163.502 313.525,163.168 304.5,163.5C 304.806,160.615 304.473,157.948 303.5,155.5C 301.271,143.428 295.438,133.428 286,125.5C 285.51,124.207 285.343,122.873 285.5,121.5C 293.452,115.358 295.285,107.692 291,98.5C 288.96,96.6298 287.127,94.6298 285.5,92.5C 285.5,88.8333 285.5,85.1667 285.5,81.5 Z"/></g>
<g><path style="opacity:1" fill="#c1146a" d="M 285.5,92.5 C 287.127,94.6298 288.96,96.6298 291,98.5C 295.285,107.692 293.452,115.358 285.5,121.5C 276.092,125.674 268.425,123.674 262.5,115.5C 258.648,106.545 260.648,99.2118 268.5,93.5C 273.986,91.1849 279.653,90.8516 285.5,92.5 Z"/></g>
<g><path style="opacity:1" fill="#fdac39" d="M 262.5,115.5 C 268.425,123.674 276.092,125.674 285.5,121.5C 285.343,122.873 285.51,124.207 286,125.5C 295.438,133.428 301.271,143.428 303.5,155.5C 303.5,158.167 303.5,160.833 303.5,163.5C 298.833,163.5 294.167,163.5 289.5,163.5C 287.89,142.556 276.556,131.223 255.5,129.5C 255.5,124.833 255.5,120.167 255.5,115.5C 257.833,115.5 260.167,115.5 262.5,115.5 Z"/></g>
<g><path style="opacity:1" fill="#ffd328" d="M 255.5,129.5 C 276.556,131.223 287.89,142.556 289.5,163.5C 288.167,163.5 286.833,163.5 285.5,163.5C 279.833,163.5 274.167,163.5 268.5,163.5C 264.167,163.5 259.833,163.5 255.5,163.5C 255.5,152.167 255.5,140.833 255.5,129.5 Z"/></g>
<g><path style="opacity:1" fill="#c8ccf7" d="M 255.5,163.5 C 255.5,163.833 255.5,164.167 255.5,164.5C 230.328,164.169 205.328,164.502 180.5,165.5C 179.957,165.44 179.624,165.107 179.5,164.5C 204.825,163.5 230.158,163.167 255.5,163.5 Z"/></g>
<g><path style="opacity:1" fill="#fdfdfe" d="M 255.5,164.5 C 255.5,169.833 255.5,175.167 255.5,180.5C 238.167,180.5 220.833,180.5 203.5,180.5C 203.263,181.791 203.596,182.791 204.5,183.5C 207.535,202.301 206.868,220.968 202.5,239.5C 201.833,239.5 201.5,239.833 201.5,240.5C 190.748,270.402 197.748,295.235 222.5,315C 231.044,320.459 240.377,323.626 250.5,324.5C 251.568,325.434 252.901,325.768 254.5,325.5C 254.5,352.5 254.5,379.5 254.5,406.5C 236.167,406.5 217.833,406.5 199.5,406.5C 211.386,392.72 226.386,384.387 244.5,381.5C 244.829,367.656 244.496,353.99 243.5,340.5C 231.015,338.59 219.682,333.923 209.5,326.5C 205.562,323.065 201.729,319.398 198,315.5C 178.107,289.683 174.44,261.683 187,231.5C 191.961,208.732 189.795,186.732 180.5,165.5C 205.328,164.502 230.328,164.169 255.5,164.5 Z"/></g>
<g><path style="opacity:1" fill="#d5e6f2" d="M 255.5,163.5 C 259.833,163.5 264.167,163.5 268.5,163.5C 268.5,169.167 268.5,174.833 268.5,180.5C 264.167,180.5 259.833,180.5 255.5,180.5C 255.5,175.167 255.5,169.833 255.5,164.5C 255.5,164.167 255.5,163.833 255.5,163.5 Z"/></g>
<g><path style="opacity:1" fill="#97653c" d="M 268.5,163.5 C 274.167,163.5 279.833,163.5 285.5,163.5C 285.5,169.167 285.5,174.833 285.5,180.5C 280.167,180.5 274.833,180.5 269.5,180.5C 269.5,196.167 269.5,211.833 269.5,227.5C 268.504,212.342 268.17,197.009 268.5,181.5C 268.5,181.167 268.5,180.833 268.5,180.5C 268.5,174.833 268.5,169.167 268.5,163.5 Z"/></g>
<g><path style="opacity:1" fill="#d4e6f6" d="M 303.5,155.5 C 304.473,157.948 304.806,160.615 304.5,163.5C 313.525,163.168 322.525,163.502 331.5,164.5C 328.8,169.236 326.634,174.236 325,179.5C 320.781,196.755 320.448,214.088 324,231.5C 331.838,248.925 333.505,266.925 329,285.5C 318.943,317.399 297.443,335.732 264.5,340.5C 264.5,354.167 264.5,367.833 264.5,381.5C 282.386,384.442 297.386,392.608 309.5,406C 291.17,406.5 272.836,406.667 254.5,406.5C 254.5,379.5 254.5,352.5 254.5,325.5C 252.901,325.768 251.568,325.434 250.5,324.5C 251.833,324.5 253.167,324.5 254.5,324.5C 283.091,323.409 302.258,309.409 312,282.5C 316.109,267.612 314.943,253.279 308.5,239.5C 303.747,219.861 303.414,200.194 307.5,180.5C 300.167,180.5 292.833,180.5 285.5,180.5C 285.5,174.833 285.5,169.167 285.5,163.5C 286.833,163.5 288.167,163.5 289.5,163.5C 294.167,163.5 298.833,163.5 303.5,163.5C 303.5,160.833 303.5,158.167 303.5,155.5 Z"/></g>
<g><path style="opacity:1" fill="#fcdc72" d="M 255.5,180.5 C 259.833,180.5 264.167,180.5 268.5,180.5C 268.5,180.833 268.5,181.167 268.5,181.5C 264.167,181.5 259.833,181.5 255.5,181.5C 238.134,180.848 221.134,181.514 204.5,183.5C 203.596,182.791 203.263,181.791 203.5,180.5C 220.833,180.5 238.167,180.5 255.5,180.5 Z"/></g>
<g><path style="opacity:1" fill="#ffd328" d="M 255.5,181.5 C 255.5,200.833 255.5,220.167 255.5,239.5C 237.833,239.5 220.167,239.5 202.5,239.5C 206.868,220.968 207.535,202.301 204.5,183.5C 221.134,181.514 238.134,180.848 255.5,181.5 Z"/></g>
<g><path style="opacity:1" fill="#fead39" d="M 285.5,180.5 C 292.833,180.5 300.167,180.5 307.5,180.5C 303.414,200.194 303.747,219.861 308.5,239.5C 290.833,239.5 273.167,239.5 255.5,239.5C 255.5,220.167 255.5,200.833 255.5,181.5C 259.833,181.5 264.167,181.5 268.5,181.5C 268.17,197.009 268.504,212.342 269.5,227.5C 274.833,227.5 280.167,227.5 285.5,227.5C 285.5,211.833 285.5,196.167 285.5,180.5 Z"/></g>
<g><path style="opacity:1" fill="#71482a" d="M 285.5,180.5 C 285.5,196.167 285.5,211.833 285.5,227.5C 280.167,227.5 274.833,227.5 269.5,227.5C 269.5,211.833 269.5,196.167 269.5,180.5C 274.833,180.5 280.167,180.5 285.5,180.5 Z"/></g>
<g><path style="opacity:1" fill="#ea1e82" d="M 201.5,240.5 C 219.167,240.5 236.833,240.5 254.5,240.5C 254.5,268.5 254.5,296.5 254.5,324.5C 253.167,324.5 251.833,324.5 250.5,324.5C 240.377,323.626 231.044,320.459 222.5,315C 197.748,295.235 190.748,270.402 201.5,240.5 Z"/></g>
<g><path style="opacity:1" fill="#c2156a" d="M 201.5,240.5 C 201.5,239.833 201.833,239.5 202.5,239.5C 220.167,239.5 237.833,239.5 255.5,239.5C 273.167,239.5 290.833,239.5 308.5,239.5C 314.943,253.279 316.109,267.612 312,282.5C 302.258,309.409 283.091,323.409 254.5,324.5C 254.5,296.5 254.5,268.5 254.5,240.5C 236.833,240.5 219.167,240.5 201.5,240.5 Z"/></g>
<g><path style="opacity:1" fill="#4954cb" d="M 209.5,326.5 C 219.682,333.923 231.015,338.59 243.5,340.5C 243.666,347.175 243.5,353.842 243,360.5C 231.583,349.251 220.416,337.917 209.5,326.5 Z"/></g>
</svg>
