<?xml version="1.0" encoding="UTF-8"?>
<!DOCTYPE svg PUBLIC "-//W3C//DTD SVG 1.1//EN" "http://www.w3.org/Graphics/SVG/1.1/DTD/svg11.dtd">
<svg xmlns="http://www.w3.org/2000/svg" version="1.1" width="512px" height="512px" style="shape-rendering:geometricPrecision; text-rendering:geometricPrecision; image-rendering:optimizeQuality; fill-rule:evenodd; clip-rule:evenodd" xmlns:xlink="http://www.w3.org/1999/xlink">
<g><path style="opacity:0.996" fill="#80dafe" d="M 232.5,-0.5 C 247.833,-0.5 263.167,-0.5 278.5,-0.5C 362.756,9.30468 427.923,49.638 474,120.5C 486.511,141.19 496.011,163.19 502.5,186.5C 477.201,161.702 452.035,136.702 427,111.5C 426.601,111.728 426.435,112.062 426.5,112.5C 406.555,85.0021 379.555,73.5021 345.5,78C 313.078,85.5904 292.744,105.424 284.5,137.5C 284.167,137.5 283.833,137.5 283.5,137.5C 283.649,136.448 283.483,135.448 283,134.5C 257.299,108.632 231.465,82.9651 205.5,57.5C 195.728,58.5345 186.061,60.2012 176.5,62.5C 181.425,87.4578 186.092,112.458 190.5,137.5C 170.833,137.5 151.167,137.5 131.5,137.5C 133.007,151.124 134.007,164.79 134.5,178.5C 139.049,237.66 143.716,296.66 148.5,355.5C 149.532,376.854 150.866,398.187 152.5,419.5C 152.5,420.167 152.833,420.5 153.5,420.5C 183.5,450.833 213.5,481.167 243.5,511.5C 239.833,511.5 236.167,511.5 232.5,511.5C 142.856,500.612 75.3562,456.279 30,378.5C 13.3053,347.029 3.1386,313.696 -0.5,278.5C -0.5,263.167 -0.5,247.833 -0.5,232.5C 10.3875,142.857 54.7208,75.3573 132.5,30C 163.971,13.3053 197.304,3.1386 232.5,-0.5 Z"/></g>
<g><path style="opacity:1" fill="#636a79" d="M 205.5,57.5 C 210.728,84.3055 216.061,110.972 221.5,137.5C 221.5,137.833 221.5,138.167 221.5,138.5C 224.16,152.136 226.827,165.803 229.5,179.5C 224.881,180.828 219.881,181.494 214.5,181.5C 208.921,181.449 203.588,180.782 198.5,179.5C 196.708,165.213 194.041,151.213 190.5,137.5C 186.092,112.458 181.425,87.4578 176.5,62.5C 186.061,60.2012 195.728,58.5345 205.5,57.5 Z"/></g>
<g><path style="opacity:1" fill="#4ab7f6" d="M 205.5,57.5 C 231.465,82.9651 257.299,108.632 283,134.5C 283.483,135.448 283.649,136.448 283.5,137.5C 262.833,137.5 242.167,137.5 221.5,137.5C 216.061,110.972 210.728,84.3055 205.5,57.5 Z"/></g>
<g><path style="opacity:1" fill="#0bb26b" d="M 426.5,112.5 C 437.194,129.308 441.027,147.641 438,167.5C 430.87,204.131 409.037,225.797 372.5,232.5C 373.167,223.833 373.833,215.167 374.5,206.5C 401.559,196.739 414.392,177.406 413,148.5C 407.726,122.893 392.226,107.726 366.5,103C 340.067,101.94 321.4,113.44 310.5,137.5C 301.833,137.5 293.167,137.5 284.5,137.5C 292.744,105.424 313.078,85.5904 345.5,78C 379.555,73.5021 406.555,85.0021 426.5,112.5 Z"/></g>
<g><path style="opacity:1" fill="#fdcd02" d="M 374.5,206.5 C 375.207,198.854 375.54,191.187 375.5,183.5C 377.298,168.354 378.632,153.021 379.5,137.5C 356.5,137.5 333.5,137.5 310.5,137.5C 321.4,113.44 340.067,101.94 366.5,103C 392.226,107.726 407.726,122.893 413,148.5C 414.392,177.406 401.559,196.739 374.5,206.5 Z"/></g>
<g><path style="opacity:1" fill="#4ab8f6" d="M 502.5,186.5 C 506.804,201.684 509.804,217.017 511.5,232.5C 511.5,247.833 511.5,263.167 511.5,278.5C 500.612,368.144 456.279,435.644 378.5,481C 347.029,497.695 313.696,507.861 278.5,511.5C 266.833,511.5 255.167,511.5 243.5,511.5C 213.5,481.167 183.5,450.833 153.5,420.5C 221.833,420.5 290.167,420.5 358.5,420.5C 360.451,397.191 362.117,373.857 363.5,350.5C 366.719,311.204 369.719,271.871 372.5,232.5C 409.037,225.797 430.87,204.131 438,167.5C 441.027,147.641 437.194,129.308 426.5,112.5C 426.435,112.062 426.601,111.728 427,111.5C 452.035,136.702 477.201,161.702 502.5,186.5 Z"/></g>
<g><path style="opacity:1" fill="#fdfefe" d="M 190.5,137.5 C 194.041,151.213 196.708,165.213 198.5,179.5C 177.86,181.489 156.86,182.155 135.5,181.5C 135.737,180.209 135.404,179.209 134.5,178.5C 134.007,164.79 133.007,151.124 131.5,137.5C 151.167,137.5 170.833,137.5 190.5,137.5 Z"/></g>
<g><path style="opacity:1" fill="#fefefe" d="M 221.5,138.5 C 232.833,138.5 244.167,138.5 255.5,138.5C 255.5,152.833 255.5,167.167 255.5,181.5C 246.566,182.092 237.899,181.425 229.5,179.5C 226.827,165.803 224.16,152.136 221.5,138.5 Z"/></g>
<g><path style="opacity:1" fill="#e8ecf4" d="M 221.5,138.5 C 221.5,138.167 221.5,137.833 221.5,137.5C 242.167,137.5 262.833,137.5 283.5,137.5C 283.833,137.5 284.167,137.5 284.5,137.5C 293.167,137.5 301.833,137.5 310.5,137.5C 333.5,137.5 356.5,137.5 379.5,137.5C 378.632,153.021 377.298,168.354 375.5,183.5C 335.847,181.506 295.847,180.839 255.5,181.5C 255.5,167.167 255.5,152.833 255.5,138.5C 244.167,138.5 232.833,138.5 221.5,138.5 Z"/></g>
<g><path style="opacity:1" fill="#e9edf5" d="M 134.5,178.5 C 135.404,179.209 135.737,180.209 135.5,181.5C 156.86,182.155 177.86,181.489 198.5,179.5C 203.588,180.782 208.921,181.449 214.5,181.5C 219.881,181.494 224.881,180.828 229.5,179.5C 237.899,181.425 246.566,182.092 255.5,181.5C 255.5,247.5 255.5,313.5 255.5,379.5C 230.164,379.667 204.831,379.5 179.5,379C 165.19,376.026 155.023,367.859 149,354.5C 148.601,354.728 148.435,355.062 148.5,355.5C 143.716,296.66 139.049,237.66 134.5,178.5 Z"/></g>
<g><path style="opacity:1" fill="#cdd2e1" d="M 255.5,181.5 C 295.847,180.839 335.847,181.506 375.5,183.5C 375.54,191.187 375.207,198.854 374.5,206.5C 373.833,215.167 373.167,223.833 372.5,232.5C 369.719,271.871 366.719,311.204 363.5,350.5C 358.684,364.149 349.35,373.316 335.5,378C 308.884,379.464 282.218,379.964 255.5,379.5C 255.5,313.5 255.5,247.5 255.5,181.5 Z"/></g>
<g><path style="opacity:1" fill="#e8ecf4" d="M 321.5,191.5 C 322.376,191.369 323.043,191.702 323.5,192.5C 331.706,209.078 340.039,225.578 348.5,242C 331.589,250.372 314.756,258.872 298,267.5C 289.245,250.989 280.745,234.323 272.5,217.5C 288.702,208.566 305.035,199.899 321.5,191.5 Z"/></g>
<g><path style="opacity:1" fill="#fefefe" d="M 184.5,226.5 C 206.165,236.415 227.665,246.749 249,257.5C 239.766,280 229.266,302 217.5,323.5C 195.833,312.667 174.167,301.833 152.5,291C 163.036,269.427 173.703,247.927 184.5,226.5 Z"/></g>
<g><path style="opacity:1" fill="#fefefe" d="M 255.5,379.5 C 255.5,392.833 255.5,406.167 255.5,419.5C 221.167,419.5 186.833,419.5 152.5,419.5C 150.866,398.187 149.532,376.854 148.5,355.5C 148.435,355.062 148.601,354.728 149,354.5C 155.023,367.859 165.19,376.026 179.5,379C 204.831,379.5 230.164,379.667 255.5,379.5 Z"/></g>
<g><path style="opacity:1" fill="#e8edf5" d="M 363.5,350.5 C 362.117,373.857 360.451,397.191 358.5,420.5C 290.167,420.5 221.833,420.5 153.5,420.5C 152.833,420.5 152.5,420.167 152.5,419.5C 186.833,419.5 221.167,419.5 255.5,419.5C 255.5,406.167 255.5,392.833 255.5,379.5C 282.218,379.964 308.884,379.464 335.5,378C 349.35,373.316 358.684,364.149 363.5,350.5 Z"/></g>
</svg>
